<?xml version="1.0" standalone="no"?>
 <!DOCTYPE svg PUBLIC "-//W3C//DTD SVG 1.1//EN" 
 "http://www.w3.org/Graphics/SVG/1.1/DTD/svg11.dtd"> 
<svg xmlns="http://www.w3.org/2000/svg" version="1.1" 
    width="18.1788cm" height="15.2578cm" viewBox="0 0 71570 60070 ">
<title>SVG Picture created as tDCS_driver--brd.svg date 2014/03/28 21:01:10 </title>
  <desc>Picture generated by PCBNEW </desc>
<g style="fill:#000000; fill-opacity:1;stroke:#000000; stroke-opacity:1;
stroke-linecap:round; stroke-linejoin:round; "
 transform="translate(0 0) scale(1 1)">
</g>
<g style="fill:#C2C200; fill-opacity:0.0; 
stroke:#C2C200; stroke-width:59.0551; stroke-opacity:1; 
stroke-linecap:round; stroke-linejoin:round;">
<path d="M7539 14539
L7539 53539
" />
<path d="M39039 23539
L66539 23539
" />
<path d="M36039 14539
L39039 14539
" />
<path d="M36039 14539
L7539 14539
" />
<path d="M39039 23539
L39039 14539
" />
<path d="M66539 53539
L66539 23539
" />
<path d="M7539 53539
L66539 53539
" />
</g>
<g style="fill:#840000; fill-opacity:0.0; 
stroke:#840000; stroke-width:39.3701; stroke-opacity:1; 
stroke-linecap:round; stroke-linejoin:round;">
</g>
<g style="fill:#840000; fill-opacity:1.0; 
stroke:#840000; stroke-width:39.3701; stroke-opacity:1; 
stroke-linecap:round; stroke-linejoin:round;">
<circle cx="12039.4" cy="50789.4" r="180.315" /> 
<circle cx="12039.4" cy="49789.4" r="180.315" /> 
<circle cx="13039.4" cy="50789.4" r="180.315" /> 
<circle cx="13039.4" cy="49789.4" r="180.315" /> 
<circle cx="14039.4" cy="50789.4" r="180.315" /> 
<circle cx="14039.4" cy="49789.4" r="180.315" /> 
<circle cx="15039.4" cy="50789.4" r="180.315" /> 
<circle cx="15039.4" cy="49789.4" r="180.315" /> 
<circle cx="16039.4" cy="50789.4" r="180.315" /> 
<circle cx="16039.4" cy="49789.4" r="180.315" /> 
<circle cx="17039.4" cy="50789.4" r="180.315" /> 
<circle cx="17039.4" cy="49789.4" r="180.315" /> 
<circle cx="18039.4" cy="50789.4" r="180.315" /> 
<circle cx="18039.4" cy="49789.4" r="180.315" /> 
<circle cx="19039.4" cy="50789.4" r="180.315" /> 
<circle cx="19039.4" cy="49789.4" r="180.315" /> 
<circle cx="20039.4" cy="50789.4" r="180.315" /> 
<circle cx="20039.4" cy="49789.4" r="180.315" /> 
<circle cx="21039.4" cy="50789.4" r="180.315" /> 
<circle cx="21039.4" cy="49789.4" r="180.315" /> 
<circle cx="22039.4" cy="50789.4" r="180.315" /> 
<circle cx="22039.4" cy="49789.4" r="180.315" /> 
<circle cx="23039.4" cy="50789.4" r="180.315" /> 
<circle cx="23039.4" cy="49789.4" r="180.315" /> 
<circle cx="24039.4" cy="50789.4" r="180.315" /> 
<circle cx="24039.4" cy="49789.4" r="180.315" /> 
<circle cx="25039.4" cy="50789.4" r="180.315" /> 
<circle cx="25039.4" cy="49789.4" r="180.315" /> 
<circle cx="26039.4" cy="50789.4" r="180.315" /> 
<circle cx="26039.4" cy="49789.4" r="180.315" /> 
<circle cx="27039.4" cy="50789.4" r="180.315" /> 
<circle cx="27039.4" cy="49789.4" r="180.315" /> 
<circle cx="28039.4" cy="50789.4" r="180.315" /> 
<circle cx="28039.4" cy="49789.4" r="180.315" /> 
<circle cx="29039.4" cy="50789.4" r="180.315" /> 
<circle cx="29039.4" cy="49789.4" r="180.315" /> 
<circle cx="30039.4" cy="50789.4" r="180.315" /> 
<circle cx="30039.4" cy="49789.4" r="180.315" /> 
<circle cx="31039.4" cy="50789.4" r="180.315" /> 
<circle cx="31039.4" cy="49789.4" r="180.315" /> 
<circle cx="32039.4" cy="50789.4" r="180.315" /> 
<circle cx="32039.4" cy="49789.4" r="180.315" /> 
<circle cx="33039.4" cy="50789.4" r="180.315" /> 
<circle cx="33039.4" cy="49789.4" r="180.315" /> 
<circle cx="34039.4" cy="50789.4" r="180.315" /> 
<circle cx="34039.4" cy="49789.4" r="180.315" /> 
<circle cx="35039.4" cy="50789.4" r="180.315" /> 
<circle cx="35039.4" cy="49789.4" r="180.315" /> 
<circle cx="36039.4" cy="50789.4" r="180.315" /> 
<circle cx="36039.4" cy="49789.4" r="180.315" /> 
<polyline style="fill-rule:evenodd;"
points="43234,38344
43234,37734
43844,37734
43844,38344
43234,38344
" /> 
<circle cx="43539.4" cy="39039.4" r="305.118" /> 
<circle cx="44539.4" cy="38039.4" r="305.118" /> 
<circle cx="44539.4" cy="39039.4" r="305.118" /> 
<circle cx="45539.4" cy="38039.4" r="305.118" /> 
<circle cx="45539.4" cy="39039.4" r="305.118" /> 
<circle cx="46539.4" cy="38039.4" r="305.118" /> 
<circle cx="46539.4" cy="39039.4" r="305.118" /> 
<circle cx="47539.4" cy="38039.4" r="305.118" /> 
<circle cx="47539.4" cy="39039.4" r="305.118" /> 
<polyline style="fill-rule:evenodd;"
points="55234,38344
55234,37734
55844,37734
55844,38344
55234,38344
" /> 
<circle cx="55539.4" cy="39039.4" r="305.118" /> 
<circle cx="56539.4" cy="38039.4" r="305.118" /> 
<circle cx="56539.4" cy="39039.4" r="305.118" /> 
<circle cx="57539.4" cy="38039.4" r="305.118" /> 
<circle cx="57539.4" cy="39039.4" r="305.118" /> 
<circle cx="58539.4" cy="38039.4" r="305.118" /> 
<circle cx="58539.4" cy="39039.4" r="305.118" /> 
<circle cx="59539.4" cy="38039.4" r="305.118" /> 
<circle cx="59539.4" cy="39039.4" r="305.118" /> 
<polyline style="fill-rule:evenodd;"
points="50234,38344
50234,37734
50844,37734
50844,38344
50234,38344
" /> 
<circle cx="51539.4" cy="38039.4" r="305.118" /> 
<circle cx="50539.4" cy="39039.4" r="305.118" /> 
<circle cx="51539.4" cy="39039.4" r="305.118" /> 
<circle cx="52539.4" cy="38039.4" r="305.118" /> 
<circle cx="52539.4" cy="39039.4" r="305.118" /> 
<polyline style="fill-rule:evenodd;"
points="60734,34594
60734,33984
61344,33984
61344,34594
60734,34594
" /> 
<circle cx="61039.4" cy="35289.4" r="305.118" /> 
<circle cx="62039.4" cy="34289.4" r="305.118" /> 
<circle cx="62039.4" cy="35289.4" r="305.118" /> 
<polyline style="fill-rule:evenodd;"
points="60734,42094
60734,41484
61344,41484
61344,42094
60734,42094
" /> 
<circle cx="61039.4" cy="42789.4" r="305.118" /> 
<circle cx="62039.4" cy="41789.4" r="305.118" /> 
<circle cx="62039.4" cy="42789.4" r="305.118" /> 
<circle cx="39039.4" cy="31039.4" r="570.866" /> 
<circle cx="64039.4" cy="46039.4" r="570.866" /> 
<circle cx="64039.4" cy="31039.4" r="570.866" /> 
<circle cx="39039.4" cy="46039.4" r="570.866" /> 
<circle cx="45489.4" cy="25329.4" r="720.315" /> 
<circle cx="47589.4" cy="25329.4" r="720.315" /> 
<circle cx="62589.4" cy="51749.4" r="720.315" /> 
<circle cx="60489.4" cy="51749.4" r="720.315" /> 
<circle cx="52589.4" cy="51749.4" r="720.315" /> 
<circle cx="50489.4" cy="51749.4" r="720.315" /> 
<circle cx="47589.4" cy="51749.4" r="720.315" /> 
<circle cx="45489.4" cy="51749.4" r="720.315" /> 
<circle cx="60489.4" cy="25329.4" r="720.315" /> 
<circle cx="62589.4" cy="25329.4" r="720.315" /> 
<circle cx="55489.4" cy="25329.4" r="720.315" /> 
<circle cx="57589.4" cy="25329.4" r="720.315" /> 
<circle cx="57589.4" cy="51749.4" r="720.315" /> 
<circle cx="55489.4" cy="51749.4" r="720.315" /> 
<circle cx="50489.4" cy="25329.4" r="720.315" /> 
<circle cx="52589.4" cy="25329.4" r="720.315" /> 
<circle cx="13789.4" cy="22783.5" r="531.496" /> 
<circle cx="13789.4" cy="20539.4" r="531.496" /> 
<circle cx="13789.4" cy="18295.3" r="531.496" /> 
<circle cx="15954.7" cy="22783.5" r="531.496" /> 
<circle cx="15954.7" cy="20539.4" r="531.496" /> 
<circle cx="15954.7" cy="18295.3" r="531.496" /> 
<circle cx="10915.4" cy="22783.5" r="570.866" /> 
<circle cx="10915.4" cy="18295.3" r="570.866" /> 
</g>
<g style="fill:#C2C2C2; fill-opacity:1.0; 
stroke:#C2C2C2; stroke-width:39.3701; stroke-opacity:1; 
stroke-linecap:round; stroke-linejoin:round;">
<circle cx="20939.4" cy="25139.4" r="140.315" /> 
<circle cx="20539.4" cy="25589.4" r="140.315" /> 
<circle cx="20489.4" cy="44589.4" r="140.315" /> 
<circle cx="18489.4" cy="45489.4" r="140.315" /> 
<circle cx="19189.4" cy="45489.4" r="140.315" /> 
<circle cx="19589.4" cy="45139.4" r="140.315" /> 
<circle cx="19939.4" cy="44739.4" r="140.315" /> 
<circle cx="35339.4" cy="36189.4" r="140.315" /> 
<circle cx="35489.4" cy="36789.4" r="140.315" /> 
<circle cx="35839.4" cy="39739.4" r="140.315" /> 
<circle cx="35839.4" cy="40439.4" r="140.315" /> 
<circle cx="21039.4" cy="33439.4" r="140.315" /> 
<circle cx="21639.4" cy="34039.4" r="140.315" /> 
<circle cx="21989.4" cy="34439.4" r="140.315" /> 
<circle cx="21039.4" cy="31939.4" r="140.315" /> 
<circle cx="20689.4" cy="32339.4" r="140.315" /> 
<circle cx="20289.4" cy="32689.4" r="140.315" /> 
<circle cx="20689.4" cy="33039.4" r="140.315" /> 
<circle cx="23564.4" cy="31864.4" r="140.315" /> 
<circle cx="22589.4" cy="30839.4" r="140.315" /> 
<circle cx="23789.4" cy="32289.4" r="140.315" /> 
<circle cx="42389.4" cy="38539.4" r="140.315" /> 
<circle cx="41939.4" cy="38239.4" r="140.315" /> 
<circle cx="41939.4" cy="40289.4" r="140.315" /> 
<circle cx="41939.4" cy="38839.4" r="140.315" /> 
<circle cx="55689.4" cy="31989.4" r="140.315" /> 
<circle cx="55689.4" cy="32439.4" r="140.315" /> 
<circle cx="55689.4" cy="35389.4" r="230.315" /> 
<circle cx="55689.4" cy="36039.4" r="230.315" /> 
<circle cx="59989.4" cy="42289.4" r="230.315" /> 
<circle cx="59189.4" cy="42789.4" r="230.315" /> 
<circle cx="59189.4" cy="41789.4" r="230.315" /> 
<circle cx="12339.4" cy="21289.4" r="180.315" /> 
<circle cx="11839.4" cy="20539.4" r="180.315" /> 
<circle cx="12339.4" cy="19789.4" r="180.315" /> 
<circle cx="63789.4" cy="47389.4" r="230.315" /> 
<circle cx="63739.4" cy="44739.4" r="230.315" /> 
<circle cx="64339.4" cy="37989.4" r="230.315" /> 
<circle cx="64489.4" cy="26989.4" r="230.315" /> 
<circle cx="65089.4" cy="24289.4" r="230.315" /> 
<circle cx="40039.4" cy="24589.4" r="230.315" /> 
<circle cx="30389.4" cy="27739.4" r="230.315" /> 
<circle cx="33439.4" cy="27939.4" r="230.315" /> 
<circle cx="33189.4" cy="25239.4" r="230.315" /> 
<circle cx="8239.37" cy="46589.4" r="230.315" /> 
<circle cx="14839.4" cy="46289.4" r="230.315" /> 
<circle cx="16889.4" cy="46339.4" r="230.315" /> 
<circle cx="37339.4" cy="51889.4" r="230.315" /> 
<circle cx="38789.4" cy="49839.4" r="230.315" /> 
<circle cx="40139.4" cy="51689.4" r="230.315" /> 
<circle cx="42389.4" cy="51589.4" r="230.315" /> 
<circle cx="34639.4" cy="46289.4" r="230.315" /> 
<circle cx="35639.4" cy="46289.4" r="230.315" /> 
<circle cx="21089.4" cy="19089.4" r="230.315" /> 
<circle cx="32489.4" cy="30539.4" r="230.315" /> 
<circle cx="31739.4" cy="31239.4" r="230.315" /> 
<circle cx="34839.4" cy="31239.4" r="230.315" /> 
<circle cx="35539.4" cy="30539.4" r="230.315" /> 
<circle cx="29489.4" cy="30539.4" r="230.315" /> 
<circle cx="28789.4" cy="31239.4" r="230.315" /> 
<circle cx="29789.4" cy="46789.4" r="230.315" /> 
<circle cx="32489.4" cy="46289.4" r="230.315" /> 
<circle cx="36689.4" cy="42289.4" r="230.315" /> 
<circle cx="17789.4" cy="30439.4" r="230.315" /> 
<circle cx="11689.4" cy="30089.4" r="230.315" /> 
<circle cx="17789.4" cy="34639.4" r="230.315" /> 
<circle cx="14589.4" cy="36639.4" r="230.315" /> 
<circle cx="14589.4" cy="28989.4" r="230.315" /> 
<circle cx="18439.4" cy="22989.4" r="230.315" /> 
<circle cx="26539.4" cy="32139.4" r="230.315" /> 
<circle cx="22989.4" cy="43589.4" r="230.315" /> 
<circle cx="22989.4" cy="42639.4" r="230.315" /> 
<circle cx="14939.4" cy="41539.4" r="230.315" /> 
<circle cx="15689.4" cy="40439.4" r="230.315" /> 
<circle cx="14989.4" cy="39089.4" r="230.315" /> 
<circle cx="15339.4" cy="42439.4" r="230.315" /> 
<circle cx="39089.4" cy="38389.4" r="230.315" /> 
<circle cx="37639.4" cy="38839.4" r="230.315" /> 
<circle cx="37639.4" cy="37589.4" r="230.315" /> 
<circle cx="46789.4" cy="44189.4" r="230.315" /> 
<circle cx="47739.4" cy="44339.4" r="230.315" /> 
<circle cx="47739.4" cy="43539.4" r="230.315" /> 
<circle cx="32589.4" cy="38739.4" r="230.315" /> 
<circle cx="31589.4" cy="38739.4" r="230.315" /> 
<circle cx="32139.4" cy="38089.4" r="230.315" /> 
<circle cx="25239.4" cy="34589.4" r="180.315" /> 
<circle cx="25889.4" cy="35239.4" r="180.315" /> 
<circle cx="42739.4" cy="33339.4" r="230.315" /> 
<circle cx="42289.4" cy="33989.4" r="230.315" /> 
<circle cx="42289.4" cy="32739.4" r="230.315" /> 
<circle cx="55789.4" cy="33789.4" r="230.315" /> 
<circle cx="56589.4" cy="33389.4" r="230.315" /> 
<circle cx="56589.4" cy="34189.4" r="230.315" /> 
<circle cx="25789.4" cy="27589.4" r="230.315" /> 
<circle cx="24339.4" cy="27989.4" r="230.315" /> 
<circle cx="25189.4" cy="26439.4" r="230.315" /> 
<circle cx="23889.4" cy="25889.4" r="230.315" /> 
<circle cx="62939.4" cy="34789.4" r="230.315" /> 
<circle cx="63639.4" cy="35289.4" r="230.315" /> 
<circle cx="63639.4" cy="34289.4" r="230.315" /> 
<circle cx="46139.4" cy="45339.4" r="180.315" /> 
<circle cx="15939.4" cy="26239.4" r="180.315" /> 
<circle cx="15039.4" cy="25439.4" r="180.315" /> 
<circle cx="15939.4" cy="24589.4" r="180.315" /> 
<circle cx="15039.4" cy="23739.4" r="180.315" /> 
<circle cx="55089.4" cy="36439.4" r="140.315" /> 
<circle cx="18389.4" cy="44739.4" r="140.315" /> 
<circle cx="21539.4" cy="29039.4" r="140.315" /> 
<circle cx="52239.4" cy="32389.4" r="140.315" /> 
<circle cx="41589.4" cy="40839.4" r="140.315" /> 
<circle cx="34889.4" cy="40789.4" r="140.315" /> 
<circle cx="23139.4" cy="33839.4" r="140.315" /> 
<circle cx="28939.4" cy="28389.4" r="140.315" /> 
<circle cx="22269.4" cy="31189.4" r="140.315" /> 
<circle cx="22564.4" cy="32864.4" r="60.315" /> 
<circle cx="22564.4" cy="32514.4" r="60.315" /> 
<circle cx="22214.4" cy="32864.4" r="60.315" /> 
<circle cx="22214.4" cy="32514.4" r="60.315" /> 
<circle cx="23539.4" cy="41039.4" r="140.315" /> 
<circle cx="17689.4" cy="21289.4" r="180.315" /> 
<circle cx="18189.4" cy="20539.4" r="180.315" /> 
<circle cx="17689.4" cy="19789.4" r="180.315" /> 
<circle cx="28089.4" cy="39389.4" r="140.315" /> 
<circle cx="18489.4" cy="40589.4" r="140.315" /> 
<circle cx="41089.4" cy="40889.4" r="140.315" /> 
<circle cx="54639.4" cy="36489.4" r="140.315" /> 
<circle cx="34389.4" cy="40839.4" r="140.315" /> 
<circle cx="17939.4" cy="44439.4" r="140.315" /> 
<circle cx="22189.4" cy="25639.4" r="180.315" /> 
<circle cx="43589.4" cy="48739.4" r="180.315" /> 
<circle cx="43389.4" cy="45639.4" r="180.315" /> 
<circle cx="13189.4" cy="17039.4" r="180.315" /> 
<circle cx="45589.4" cy="31439.4" r="140.315" /> 
<circle cx="14389.4" cy="17039.4" r="180.315" /> 
<circle cx="20989.4" cy="29039.4" r="140.315" /> 
<circle cx="23439.4" cy="31389.4" r="140.315" /> 
<circle cx="22989.4" cy="31089.4" r="140.315" /> 
<circle cx="16989.4" cy="17289.4" r="180.315" /> 
<circle cx="16239.4" cy="17289.4" r="180.315" /> 
<circle cx="16989.4" cy="18039.4" r="180.315" /> 
<circle cx="24789.4" cy="44739.4" r="140.315" /> 
<circle cx="26239.4" cy="39389.4" r="140.315" /> 
<circle cx="19839.4" cy="40439.4" r="140.315" /> 
<circle cx="41539.4" cy="36689.4" r="140.315" /> 
<circle cx="54739.4" cy="31889.4" r="140.315" /> 
<circle cx="34689.4" cy="36139.4" r="140.315" /> 
<circle cx="62839.4" cy="42289.4" r="230.315" /> 
<circle cx="63489.4" cy="41689.4" r="230.315" /> 
<circle cx="63489.4" cy="43239.4" r="230.315" /> 
<circle cx="12489.4" cy="24089.4" r="180.315" /> 
<circle cx="12339.4" cy="23339.4" r="180.315" /> 
<circle cx="43489.4" cy="41439.4" r="140.315" /> 
<circle cx="46089.4" cy="34289.4" r="140.315" /> 
<circle cx="22389.4" cy="34839.4" r="140.315" /> 
<circle cx="22789.4" cy="34439.4" r="140.315" /> 
<circle cx="17739.4" cy="40889.4" r="140.315" /> 
</g>
<g style="fill:#000084; fill-opacity:1.0; 
stroke:#000084; stroke-width:140; stroke-opacity:1; 
stroke-linecap:round; stroke-linejoin:round;">
<path d="M62039 34289
L63639 34289
" />
</g>
<g style="fill:#000084; fill-opacity:1.0; 
stroke:#000084; stroke-width:100; stroke-opacity:1; 
stroke-linecap:round; stroke-linejoin:round;">
<path d="M41089 41439
L41639 41439
" />
<path d="M46139 40539
L46289 40389
" />
<path d="M42539 40539
L46139 40539
" />
<path d="M41639 41439
L42539 40539
" />
<path d="M17689 23689
L17339 24039
" />
<path d="M16939 39039
L17689 39789
" />
<path d="M16939 27489
L16939 39039
" />
<path d="M17339 27089
L16939 27489
" />
<path d="M17339 24039
L17339 27089
" />
<path d="M17689 21289
L17689 23689
" />
<path d="M17689 39789
L18489 40589
" />
</g>
<g style="fill:#000084; fill-opacity:1.0; 
stroke:#000084; stroke-width:200; stroke-opacity:1; 
stroke-linecap:round; stroke-linejoin:round;">
<path d="M18489 40589
L18489 42289
" />
<path d="M18489 42289
L18539 42339
" />
<path d="M18539 42339
L22239 42339
" />
<path d="M22239 42339
L24289 40289
" />
<path d="M24289 40289
L27189 40289
" />
<path d="M27189 40289
L27639 39839
" />
<path d="M27639 39839
L29739 39839
" />
<path d="M29739 39839
L31339 41439
" />
<path d="M31339 41439
L41089 41439
" />
<path d="M46289 40389
L53939 39989
" />
<path d="M53939 39989
L53939 37289
" />
<path d="M53939 37289
L54389 36839
" />
</g>
<g style="fill:#000084; fill-opacity:1.0; 
stroke:#000084; stroke-width:100; stroke-opacity:1; 
stroke-linecap:round; stroke-linejoin:round;">
<path d="M43589 48739
L43589 52639
" />
<path d="M43589 52639
L43939 52989
" />
<path d="M45589 31439
L45589 30639
" />
<path d="M45589 30639
L49689 26539
" />
<path d="M49689 26539
L62939 26539
" />
<path d="M62939 26539
L65489 29089
" />
<path d="M65489 29089
L65489 51489
" />
<path d="M65489 51489
L63989 52989
" />
<path d="M63989 52989
L43939 52989
" />
<path d="M23439 31389
L23439 30939
" />
<path d="M23839 27839
L23289 27289
" />
<path d="M23839 30539
L23839 27839
" />
<path d="M23439 30939
L23839 30539
" />
<path d="M22989 31089
L22989 30589
" />
<path d="M22989 30589
L23289 30289
" />
<path d="M23289 30289
L23289 27289
" />
<path d="M20989 29039
L20989 27589
" />
<path d="M21289 27289
L23289 27289
" />
<path d="M20989 27589
L21289 27289
" />
<path d="M23289 27289
L32389 18189
" />
<path d="M19789 15189
L29389 15189
" />
<path d="M29389 15189
L32389 18189
" />
<path d="M13789 17139
L13789 15789
" />
<path d="M14389 15189
L19789 15189
" />
<path d="M13789 15789
L14389 15189
" />
<path d="M13789 17139
L13789 18295
" />
<path d="M32389 18189
L37539 23339
" />
<path d="M37539 23339
L37539 25639
" />
<path d="M37539 25639
L41339 29439
" />
<path d="M41339 29439
L43789 29439
" />
<path d="M43789 29439
L44639 30289
" />
<path d="M44639 30289
L44639 30989
" />
<path d="M44639 30989
L45089 31439
" />
<path d="M45089 31439
L45589 31439
" />
<path d="M44539 36689
L46589 36689
" />
<path d="M54589 31739
L54739 31889
" />
<path d="M51539 31739
L54589 31739
" />
<path d="M46589 36689
L51539 31739
" />
<path d="M19839 40439
L19839 39689
" />
<path d="M19839 39689
L20139 39389
" />
<path d="M16989 17289
L17639 16639
" />
</g>
<g style="fill:#000084; fill-opacity:1.0; 
stroke:#000084; stroke-width:200; stroke-opacity:1; 
stroke-linecap:round; stroke-linejoin:round;">
<path d="M19239 24289
L19239 38489
" />
<path d="M19239 38489
L20139 39389
" />
</g>
<g style="fill:#000084; fill-opacity:1.0; 
stroke:#000084; stroke-width:100; stroke-opacity:1; 
stroke-linecap:round; stroke-linejoin:round;">
<path d="M17639 16639
L18989 16639
" />
<path d="M18989 16639
L20189 17839
" />
<path d="M20189 17839
L20189 23339
" />
<path d="M20189 23339
L19239 24289
" />
<path d="M15954 18295
L15983 18295
" />
<path d="M15983 18295
L16989 17289
" />
</g>
<g style="fill:#000084; fill-opacity:1.0; 
stroke:#000084; stroke-width:200; stroke-opacity:1; 
stroke-linecap:round; stroke-linejoin:round;">
<path d="M41539 36689
L44539 36689
" />
<path d="M34689 36139
L34689 35289
" />
<path d="M41539 36039
L41539 36689
" />
<path d="M40839 35339
L41539 36039
" />
<path d="M34739 35339
L40839 35339
" />
<path d="M34689 35289
L34739 35339
" />
<path d="M26239 39389
L26239 37889
" />
<path d="M34389 36439
L34689 36139
" />
<path d="M27689 36439
L34389 36439
" />
<path d="M26239 37889
L27689 36439
" />
<path d="M20139 39389
L26239 39389
" />
</g>
<g style="fill:#000084; fill-opacity:1.0; 
stroke:#000084; stroke-width:140; stroke-opacity:1; 
stroke-linecap:round; stroke-linejoin:round;">
<path d="M59839 33489
L59389 33939
" />
<path d="M60089 36539
L60539 36539
" />
<path d="M59389 35839
L60089 36539
" />
<path d="M59389 33939
L59389 35839
" />
<path d="M59839 28989
L59839 33489
" />
<path d="M63039 39039
L63039 39439
" />
<path d="M60539 36539
L63039 39039
" />
<path d="M62039 42789
L63039 42789
" />
<path d="M63039 42789
L63489 43239
" />
</g>
<g style="fill:#000084; fill-opacity:1.0; 
stroke:#000084; stroke-width:100; stroke-opacity:1; 
stroke-linecap:round; stroke-linejoin:round;">
<path d="M62139 40389
L63039 40389
" />
<path d="M63039 41789
L62039 41789
" />
<path d="M63289 41539
L63039 41789
" />
<path d="M63289 40639
L63289 41539
" />
<path d="M63039 40389
L63289 40639
" />
<path d="M46089 34289
L46089 33739
" />
<path d="M45639 41439
L43489 41439
" />
<path d="M46539 42339
L45639 41439
" />
<path d="M55039 42339
L46539 42339
" />
<path d="M56989 40389
L55039 42339
" />
<path d="M62089 40389
L62139 40389
" />
<path d="M62139 40389
L56989 40389
" />
<path d="M63039 39439
L62089 40389
" />
<path d="M59289 28439
L59839 28989
" />
<path d="M51389 28439
L59289 28439
" />
<path d="M46089 33739
L51389 28439
" />
</g>
<g style="fill:#000084; fill-opacity:1.0; 
stroke:#000084; stroke-width:39.3701; stroke-opacity:1; 
stroke-linecap:round; stroke-linejoin:round;">
<polyline style="fill-rule:evenodd;"
points="66384,52637
65637,53384
65444,53384
65444,24219
65390,24088
65290,23988
65160,23934
65019,23934
64888,23988
64788,24088
64734,24218
64734,24359
64788,24490
64888,24590
65018,24644
65159,24644
65290,24590
65390,24490
65444,24360
65444,24219
65444,53384
64844,53384
64844,26919
64790,26788
64690,26688
64560,26634
64419,26634
64288,26688
64188,26788
64134,26918
64134,27059
64188,27190
64288,27290
64418,27344
64559,27344
64690,27290
64790,27190
64844,27060
64844,26919
64844,53384
63434,53384
63434,51582
63306,51271
63068,51033
62758,50904
62422,50904
62111,51032
61873,51270
61744,51580
61744,51916
61872,52227
62110,52465
62420,52594
62756,52594
63067,52466
63305,52228
63434,51918
63434,51582
63434,53384
61334,53384
61334,51582
61206,51271
60968,51033
60658,50904
60322,50904
60011,51032
59773,51270
59644,51580
59644,51916
59772,52227
60010,52465
60320,52594
60656,52594
60967,52466
61205,52228
61334,51918
61334,51582
61334,53384
58434,53384
58434,51582
58306,51271
58068,51033
57758,50904
57422,50904
57111,51032
56873,51270
56744,51580
56744,51916
56872,52227
57110,52465
57420,52594
57756,52594
58067,52466
58305,52228
58434,51918
58434,51582
58434,53384
56334,53384
56334,51582
56206,51271
55968,51033
55658,50904
55322,50904
55011,51032
54773,51270
54644,51580
54644,51916
54772,52227
55010,52465
55320,52594
55656,52594
55967,52466
56205,52228
56334,51918
56334,51582
56334,53384
53434,53384
53434,51582
53306,51271
53068,51033
52758,50904
52422,50904
52111,51032
51873,51270
51744,51580
51744,51916
51872,52227
52110,52465
52420,52594
52756,52594
53067,52466
53305,52228
53434,51918
53434,51582
53434,53384
51334,53384
51334,51582
51206,51271
50968,51033
50658,50904
50322,50904
50011,51032
49773,51270
49644,51580
49644,51916
49772,52227
50010,52465
50320,52594
50656,52594
50967,52466
51205,52228
51334,51918
51334,51582
51334,53384
48434,53384
48434,51582
48306,51271
48068,51033
47758,50904
47422,50904
47111,51032
46873,51270
46744,51580
46744,51916
46872,52227
47110,52465
47420,52594
47756,52594
48067,52466
48305,52228
48434,51918
48434,51582
48434,53384
46334,53384
46334,51582
46206,51271
45968,51033
45658,50904
45322,50904
45011,51032
44773,51270
44644,51580
44644,51916
44772,52227
45010,52465
45320,52594
45656,52594
45967,52466
46205,52228
46334,51918
46334,51582
46334,53384
44091,53384
43394,52687
43394,49091
43541,48944
43638,48944
43734,48992
43734,49141
44137,49544
64391,49544
64594,49341
64594,46468
64628,46433
64734,46178
64735,45901
64735,30901
64629,30645
64433,30450
64178,30343
63901,30343
63645,30449
63450,30644
63434,30682
63434,25162
63306,24851
63068,24613
62758,24484
62422,24484
62111,24612
61873,24850
61744,25160
61744,25496
61872,25807
62110,26045
62420,26174
62756,26174
63067,26046
63305,25808
63434,25498
63434,25162
63434,30682
63343,30900
63343,31177
63449,31432
63644,31628
63900,31734
64177,31735
64432,31629
64628,31433
64734,31178
64735,30901
64735,45901
64629,45645
64594,45610
64594,38236
64640,38190
64694,38060
64694,37919
64640,37788
64594,37742
64594,32637
61334,29377
61334,25162
61206,24851
60968,24613
60658,24484
60322,24484
60011,24612
59773,24850
59644,25160
59644,25496
59772,25807
60010,26045
60320,26174
60656,26174
60967,26046
61205,25808
61334,25498
61334,25162
61334,29377
60091,28134
58434,28134
58434,25162
58306,24851
58068,24613
57758,24484
57422,24484
57111,24612
56873,24850
56744,25160
56744,25496
56872,25807
57110,26045
57420,26174
57756,26174
58067,26046
58305,25808
58434,25498
58434,25162
58434,28134
56334,28134
56334,25162
56206,24851
55968,24613
55658,24484
55322,24484
55011,24612
54773,24850
54644,25160
54644,25496
54772,25807
55010,26045
55320,26174
55656,26174
55967,26046
56205,25808
56334,25498
56334,25162
56334,28134
53434,28134
53434,25162
53306,24851
53068,24613
52758,24484
52422,24484
52111,24612
51873,24850
51744,25160
51744,25496
51872,25807
52110,26045
52420,26174
52756,26174
53067,26046
53305,25808
53434,25498
53434,25162
53434,28134
51334,28134
51334,25162
51206,24851
50968,24613
50658,24484
50322,24484
50011,24612
49773,24850
49644,25160
49644,25496
49772,25807
50010,26045
50320,26174
50656,26174
50967,26046
51205,25808
51334,25498
51334,25162
51334,28134
50737,28134
48434,30437
48434,25162
48306,24851
48068,24613
47758,24484
47422,24484
47111,24612
46873,24850
46744,25160
46744,25496
46872,25807
47110,26045
47420,26174
47756,26174
48067,26046
48305,25808
48434,25498
48434,25162
48434,30437
47237,31634
46334,31634
46334,25162
46206,24851
45968,24613
45658,24484
45322,24484
45011,24612
44773,24850
44644,25160
44644,25496
44772,25807
45010,26045
45320,26174
45656,26174
45967,26046
46205,25808
46334,25498
46334,25162
46334,31634
45937,31634
45737,31834
40394,31834
40394,24519
40340,24388
40240,24288
40110,24234
39969,24234
39838,24288
39738,24388
39684,24518
39684,24659
39738,24790
39838,24890
39968,24944
40109,24944
40240,24890
40340,24790
40394,24660
40394,24519
40394,31834
39735,31834
39735,30901
39629,30645
39433,30450
39178,30343
38901,30343
38645,30449
38450,30644
38343,30900
38343,31177
38449,31432
38644,31628
38900,31734
39177,31735
39432,31629
39628,31433
39734,31178
39735,30901
39735,31834
37891,31834
37794,31737
37794,29787
37591,29584
34991,29584
34044,28637
34044,24837
33541,24334
26337,24334
25634,25037
25634,27269
25588,27288
25544,27332
25544,26369
25490,26238
25390,26138
25260,26084
25119,26084
24988,26138
24888,26238
24834,26368
24834,26509
24888,26640
24988,26740
25118,26794
25259,26794
25390,26740
25490,26640
25544,26510
25544,26369
25544,27332
25488,27388
25434,27518
25434,27659
25488,27790
25588,27890
25634,27909
25634,29637
24694,30577
24694,27919
24640,27788
24540,27688
24410,27634
24269,27634
24244,27644
24244,25819
24190,25688
24090,25588
23960,25534
23819,25534
23688,25588
23588,25688
23534,25818
23534,25959
23588,26090
23688,26190
23818,26244
23959,26244
24090,26190
24190,26090
24244,25960
24244,25819
24244,27644
24138,27688
24038,27788
23984,27918
23984,28059
24038,28190
24138,28290
24268,28344
24409,28344
24540,28290
24640,28190
24694,28060
24694,27919
24694,30577
23637,31634
23241,31634
22745,31138
23144,30340
23144,29937
22941,29734
21804,29734
21804,28986
21764,28889
21689,28814
21592,28774
21486,28774
21389,28814
21314,28889
21274,28986
21274,29091
21314,29189
21389,29263
21486,29304
21591,29304
21689,29264
21763,29189
21804,29092
21804,28986
21804,29734
20941,29734
20744,29537
20744,27541
21744,26541
21744,24937
21344,24537
21344,19336
21390,19290
21444,19160
21444,19019
21390,18888
21344,18842
21344,17937
19341,15934
15787,15934
15084,16637
15084,17187
14684,17587
14684,18687
14237,19134
13341,19134
12894,18687
12894,17587
12494,17187
12494,16391
14241,14644
36737,14644
38484,16391
38484,23091
38987,23594
65387,23594
66384,24591
66384,52637
" /> 
</g>
<g style="fill:#000084; fill-opacity:0.0; 
stroke:#000084; stroke-width:10; stroke-opacity:1; 
stroke-linecap:round; stroke-linejoin:round;">
<polyline fill="none;"
points="66384,52637
65637,53384
65444,53384
65444,24219
65390,24088
65290,23988
65160,23934
65019,23934
64888,23988
64788,24088
64734,24218
64734,24359
64788,24490
64888,24590
65018,24644
65159,24644
65290,24590
65390,24490
65444,24360
65444,24219
65444,53384
64844,53384
64844,26919
64790,26788
64690,26688
64560,26634
64419,26634
64288,26688
64188,26788
64134,26918
64134,27059
64188,27190
64288,27290
64418,27344
64559,27344
64690,27290
64790,27190
64844,27060
64844,26919
64844,53384
63434,53384
63434,51582
63306,51271
63068,51033
62758,50904
62422,50904
62111,51032
61873,51270
61744,51580
61744,51916
61872,52227
62110,52465
62420,52594
62756,52594
63067,52466
63305,52228
63434,51918
63434,51582
63434,53384
61334,53384
61334,51582
61206,51271
60968,51033
60658,50904
60322,50904
60011,51032
59773,51270
59644,51580
59644,51916
59772,52227
60010,52465
60320,52594
60656,52594
60967,52466
61205,52228
61334,51918
61334,51582
61334,53384
58434,53384
58434,51582
58306,51271
58068,51033
57758,50904
57422,50904
57111,51032
56873,51270
56744,51580
56744,51916
56872,52227
57110,52465
57420,52594
57756,52594
58067,52466
58305,52228
58434,51918
58434,51582
58434,53384
56334,53384
56334,51582
56206,51271
55968,51033
55658,50904
55322,50904
55011,51032
54773,51270
54644,51580
54644,51916
54772,52227
55010,52465
55320,52594
55656,52594
55967,52466
56205,52228
56334,51918
56334,51582
56334,53384
53434,53384
53434,51582
53306,51271
53068,51033
52758,50904
52422,50904
52111,51032
51873,51270
51744,51580
51744,51916
51872,52227
52110,52465
52420,52594
52756,52594
53067,52466
53305,52228
53434,51918
53434,51582
53434,53384
51334,53384
51334,51582
51206,51271
50968,51033
50658,50904
50322,50904
50011,51032
49773,51270
49644,51580
49644,51916
49772,52227
50010,52465
50320,52594
50656,52594
50967,52466
51205,52228
51334,51918
51334,51582
51334,53384
48434,53384
48434,51582
48306,51271
48068,51033
47758,50904
47422,50904
47111,51032
46873,51270
46744,51580
46744,51916
46872,52227
47110,52465
47420,52594
47756,52594
48067,52466
48305,52228
48434,51918
48434,51582
48434,53384
46334,53384
46334,51582
46206,51271
45968,51033
45658,50904
45322,50904
45011,51032
44773,51270
44644,51580
44644,51916
44772,52227
45010,52465
45320,52594
45656,52594
45967,52466
46205,52228
46334,51918
46334,51582
46334,53384
44091,53384
43394,52687
43394,49091
43541,48944
43638,48944
43734,48992
43734,49141
44137,49544
64391,49544
64594,49341
64594,46468
64628,46433
64734,46178
64735,45901
64735,30901
64629,30645
64433,30450
64178,30343
63901,30343
63645,30449
63450,30644
63434,30682
63434,25162
63306,24851
63068,24613
62758,24484
62422,24484
62111,24612
61873,24850
61744,25160
61744,25496
61872,25807
62110,26045
62420,26174
62756,26174
63067,26046
63305,25808
63434,25498
63434,25162
63434,30682
63343,30900
63343,31177
63449,31432
63644,31628
63900,31734
64177,31735
64432,31629
64628,31433
64734,31178
64735,30901
64735,45901
64629,45645
64594,45610
64594,38236
64640,38190
64694,38060
64694,37919
64640,37788
64594,37742
64594,32637
61334,29377
61334,25162
61206,24851
60968,24613
60658,24484
60322,24484
60011,24612
59773,24850
59644,25160
59644,25496
59772,25807
60010,26045
60320,26174
60656,26174
60967,26046
61205,25808
61334,25498
61334,25162
61334,29377
60091,28134
58434,28134
58434,25162
58306,24851
58068,24613
57758,24484
57422,24484
57111,24612
56873,24850
56744,25160
56744,25496
56872,25807
57110,26045
57420,26174
57756,26174
58067,26046
58305,25808
58434,25498
58434,25162
58434,28134
56334,28134
56334,25162
56206,24851
55968,24613
55658,24484
55322,24484
55011,24612
54773,24850
54644,25160
54644,25496
54772,25807
55010,26045
55320,26174
55656,26174
55967,26046
56205,25808
56334,25498
56334,25162
56334,28134
53434,28134
53434,25162
53306,24851
53068,24613
52758,24484
52422,24484
52111,24612
51873,24850
51744,25160
51744,25496
51872,25807
52110,26045
52420,26174
52756,26174
53067,26046
53305,25808
53434,25498
53434,25162
53434,28134
51334,28134
51334,25162
51206,24851
50968,24613
50658,24484
50322,24484
50011,24612
49773,24850
49644,25160
49644,25496
49772,25807
50010,26045
50320,26174
50656,26174
50967,26046
51205,25808
51334,25498
51334,25162
51334,28134
50737,28134
48434,30437
48434,25162
48306,24851
48068,24613
47758,24484
47422,24484
47111,24612
46873,24850
46744,25160
46744,25496
46872,25807
47110,26045
47420,26174
47756,26174
48067,26046
48305,25808
48434,25498
48434,25162
48434,30437
47237,31634
46334,31634
46334,25162
46206,24851
45968,24613
45658,24484
45322,24484
45011,24612
44773,24850
44644,25160
44644,25496
44772,25807
45010,26045
45320,26174
45656,26174
45967,26046
46205,25808
46334,25498
46334,25162
46334,31634
45937,31634
45737,31834
40394,31834
40394,24519
40340,24388
40240,24288
40110,24234
39969,24234
39838,24288
39738,24388
39684,24518
39684,24659
39738,24790
39838,24890
39968,24944
40109,24944
40240,24890
40340,24790
40394,24660
40394,24519
40394,31834
39735,31834
39735,30901
39629,30645
39433,30450
39178,30343
38901,30343
38645,30449
38450,30644
38343,30900
38343,31177
38449,31432
38644,31628
38900,31734
39177,31735
39432,31629
39628,31433
39734,31178
39735,30901
39735,31834
37891,31834
37794,31737
37794,29787
37591,29584
34991,29584
34044,28637
34044,24837
33541,24334
26337,24334
25634,25037
25634,27269
25588,27288
25544,27332
25544,26369
25490,26238
25390,26138
25260,26084
25119,26084
24988,26138
24888,26238
24834,26368
24834,26509
24888,26640
24988,26740
25118,26794
25259,26794
25390,26740
25490,26640
25544,26510
25544,26369
25544,27332
25488,27388
25434,27518
25434,27659
25488,27790
25588,27890
25634,27909
25634,29637
24694,30577
24694,27919
24640,27788
24540,27688
24410,27634
24269,27634
24244,27644
24244,25819
24190,25688
24090,25588
23960,25534
23819,25534
23688,25588
23588,25688
23534,25818
23534,25959
23588,26090
23688,26190
23818,26244
23959,26244
24090,26190
24190,26090
24244,25960
24244,25819
24244,27644
24138,27688
24038,27788
23984,27918
23984,28059
24038,28190
24138,28290
24268,28344
24409,28344
24540,28290
24640,28190
24694,28060
24694,27919
24694,30577
23637,31634
23241,31634
22745,31138
23144,30340
23144,29937
22941,29734
21804,29734
21804,28986
21764,28889
21689,28814
21592,28774
21486,28774
21389,28814
21314,28889
21274,28986
21274,29091
21314,29189
21389,29263
21486,29304
21591,29304
21689,29264
21763,29189
21804,29092
21804,28986
21804,29734
20941,29734
20744,29537
20744,27541
21744,26541
21744,24937
21344,24537
21344,19336
21390,19290
21444,19160
21444,19019
21390,18888
21344,18842
21344,17937
19341,15934
15787,15934
15084,16637
15084,17187
14684,17587
14684,18687
14237,19134
13341,19134
12894,18687
12894,17587
12494,17187
12494,16391
14241,14644
36737,14644
38484,16391
38484,23091
38987,23594
65387,23594
66384,24591
66384,52637
" /> 
</g>
<g style="fill:#000084; fill-opacity:1.0; 
stroke:#000084; stroke-width:39.3701; stroke-opacity:1; 
stroke-linecap:round; stroke-linejoin:round;">
<polyline style="fill-rule:evenodd;"
points="61484,43087
61336,43284
60787,43284
58137,45934
52087,45934
51334,46687
51334,48837
51187,48984
48094,48984
48094,44269
48094,43469
48040,43338
47940,43238
47810,43184
47669,43184
47538,43238
47438,43338
47384,43468
47384,43609
47438,43740
47538,43840
47668,43894
47809,43894
47940,43840
48040,43740
48094,43610
48094,43469
48094,44269
48040,44138
47940,44038
47810,43984
47669,43984
47538,44038
47438,44138
47384,44268
47384,44409
47438,44540
47538,44640
47668,44694
47809,44694
47940,44640
48040,44540
48094,44410
48094,44269
48094,48984
45191,48984
44491,48284
42837,48284
42137,48984
9291,48984
8594,48287
8594,46519
8540,46388
8440,46288
8310,46234
8169,46234
8038,46288
7938,46388
7884,46518
7884,46659
7938,46790
8038,46890
8168,46944
8309,46944
8440,46890
8540,46790
8594,46660
8594,46519
8594,48287
7644,47337
7644,19841
8091,19394
14087,19394
14534,19841
14534,21237
14087,21684
10287,21684
9984,21987
9984,23341
10584,23941
10584,42941
14337,46694
16889,46694
16959,46694
16959,46694
29444,46694
29434,46718
29434,46859
29488,46990
29588,47090
29718,47144
29859,47144
29990,47090
30090,46990
30144,46860
30144,46719
30134,46694
38803,46694
38900,46734
39177,46735
39275,46694
45491,46694
46544,45641
46544,44446
46588,44490
46718,44544
46859,44544
46990,44490
47090,44390
47144,44260
47144,44119
47090,43988
46990,43888
46860,43834
46719,43834
46588,43888
46544,43932
46544,43391
46791,43144
57691,43144
58744,42091
58744,41491
58891,41344
59489,41344
60189,41344
61287,41344
61484,41541
61484,43087
" /> 
</g>
<g style="fill:#000084; fill-opacity:0.0; 
stroke:#000084; stroke-width:10; stroke-opacity:1; 
stroke-linecap:round; stroke-linejoin:round;">
<polyline fill="none;"
points="61484,43087
61336,43284
60787,43284
58137,45934
52087,45934
51334,46687
51334,48837
51187,48984
48094,48984
48094,44269
48094,43469
48040,43338
47940,43238
47810,43184
47669,43184
47538,43238
47438,43338
47384,43468
47384,43609
47438,43740
47538,43840
47668,43894
47809,43894
47940,43840
48040,43740
48094,43610
48094,43469
48094,44269
48040,44138
47940,44038
47810,43984
47669,43984
47538,44038
47438,44138
47384,44268
47384,44409
47438,44540
47538,44640
47668,44694
47809,44694
47940,44640
48040,44540
48094,44410
48094,44269
48094,48984
45191,48984
44491,48284
42837,48284
42137,48984
9291,48984
8594,48287
8594,46519
8540,46388
8440,46288
8310,46234
8169,46234
8038,46288
7938,46388
7884,46518
7884,46659
7938,46790
8038,46890
8168,46944
8309,46944
8440,46890
8540,46790
8594,46660
8594,46519
8594,48287
7644,47337
7644,19841
8091,19394
14087,19394
14534,19841
14534,21237
14087,21684
10287,21684
9984,21987
9984,23341
10584,23941
10584,42941
14337,46694
16889,46694
16959,46694
16959,46694
29444,46694
29434,46718
29434,46859
29488,46990
29588,47090
29718,47144
29859,47144
29990,47090
30090,46990
30144,46860
30144,46719
30134,46694
38803,46694
38900,46734
39177,46735
39275,46694
45491,46694
46544,45641
46544,44446
46588,44490
46718,44544
46859,44544
46990,44490
47090,44390
47144,44260
47144,44119
47090,43988
46990,43888
46860,43834
46719,43834
46588,43888
46544,43932
46544,43391
46791,43144
57691,43144
58744,42091
58744,41491
58891,41344
59489,41344
60189,41344
61287,41344
61484,41541
61484,43087
" /> 
</g>
<g style="fill:#000084; fill-opacity:1.0; 
stroke:#000084; stroke-width:39.3701; stroke-opacity:1; 
stroke-linecap:round; stroke-linejoin:round;">
<polyline style="fill-rule:evenodd;"
points="16684,23337
16334,23687
16334,26337
16087,26584
14941,26584
14594,26237
14594,23691
14844,23441
14844,22291
15041,22094
15939,22094
16089,22094
16487,22094
16684,22291
16684,23337
" /> 
</g>
<g style="fill:#000084; fill-opacity:0.0; 
stroke:#000084; stroke-width:10; stroke-opacity:1; 
stroke-linecap:round; stroke-linejoin:round;">
<polyline fill="none;"
points="16684,23337
16334,23687
16334,26337
16087,26584
14941,26584
14594,26237
14594,23691
14844,23441
14844,22291
15041,22094
15939,22094
16089,22094
16487,22094
16684,22291
16684,23337
" /> 
</g>
<g style="fill:#000084; fill-opacity:1.0; 
stroke:#000084; stroke-width:39.3701; stroke-opacity:1; 
stroke-linecap:round; stroke-linejoin:round;">
<polyline style="fill-rule:evenodd;"
points="55034,33087
54737,33384
52937,33384
52504,33817
52504,32336
52464,32239
52389,32164
52292,32124
52186,32124
52089,32164
52014,32239
51974,32336
51974,32441
52014,32539
52089,32613
52186,32654
52291,32654
52389,32614
52463,32539
52504,32442
52504,32336
52504,33817
49337,36984
44443,36984
44438,36932
44387,36984
42644,36984
42644,33919
42590,33788
42490,33688
42360,33634
42219,33634
42088,33688
41988,33788
41934,33918
41934,34059
41988,34190
42088,34290
42218,34344
42359,34344
42490,34290
42590,34190
42644,34060
42644,33919
42644,36984
35606,36984
35616,36980
35680,36916
35714,36834
35714,36744
35680,36662
35616,36598
35564,36576
35564,36144
35530,36062
35466,35998
35384,35964
35294,35964
35212,35998
35148,36061
35114,36144
35114,36233
35148,36316
35211,36380
35294,36414
35383,36414
35466,36380
35530,36316
35564,36234
35564,36144
35564,36576
35534,36564
35444,36564
35362,36598
35298,36661
35264,36744
35264,36833
35298,36916
35361,36980
35372,36984
29087,36984
26237,39834
21437,39834
20237,41034
19841,41034
18844,40037
18844,39237
18144,38537
18144,34639
18144,34569
18144,34568
18144,30439
18144,30369
18144,30368
18144,27791
18844,27091
18844,21741
19294,21291
19294,18487
18991,18184
17437,18184
16687,18934
15491,18934
15244,18687
15244,17791
15644,17391
15644,16991
16041,16594
17291,16594
17341,16544
18987,16544
20784,18341
20784,18898
20734,19018
20734,19159
20784,19280
20784,24787
20084,25487
20084,25691
20384,25991
20384,29541
20584,29741
20584,31837
19884,32537
19884,32841
21034,33991
21034,34691
22037,35694
24239,35694
26241,35694
26444,35491
26444,34291
26541,34194
29641,34194
30291,33544
42442,33544
42538,33640
42668,33694
42809,33694
42940,33640
43036,33544
43137,33544
44737,35144
46241,35144
47344,34041
47344,33741
49591,31494
54787,31494
55034,31741
55034,33087
" /> 
</g>
<g style="fill:#000084; fill-opacity:0.0; 
stroke:#000084; stroke-width:10; stroke-opacity:1; 
stroke-linecap:round; stroke-linejoin:round;">
<polyline fill="none;"
points="55034,33087
54737,33384
52937,33384
52504,33817
52504,32336
52464,32239
52389,32164
52292,32124
52186,32124
52089,32164
52014,32239
51974,32336
51974,32441
52014,32539
52089,32613
52186,32654
52291,32654
52389,32614
52463,32539
52504,32442
52504,32336
52504,33817
49337,36984
44443,36984
44438,36932
44387,36984
42644,36984
42644,33919
42590,33788
42490,33688
42360,33634
42219,33634
42088,33688
41988,33788
41934,33918
41934,34059
41988,34190
42088,34290
42218,34344
42359,34344
42490,34290
42590,34190
42644,34060
42644,33919
42644,36984
35606,36984
35616,36980
35680,36916
35714,36834
35714,36744
35680,36662
35616,36598
35564,36576
35564,36144
35530,36062
35466,35998
35384,35964
35294,35964
35212,35998
35148,36061
35114,36144
35114,36233
35148,36316
35211,36380
35294,36414
35383,36414
35466,36380
35530,36316
35564,36234
35564,36144
35564,36576
35534,36564
35444,36564
35362,36598
35298,36661
35264,36744
35264,36833
35298,36916
35361,36980
35372,36984
29087,36984
26237,39834
21437,39834
20237,41034
19841,41034
18844,40037
18844,39237
18144,38537
18144,34639
18144,34569
18144,34568
18144,30439
18144,30369
18144,30368
18144,27791
18844,27091
18844,21741
19294,21291
19294,18487
18991,18184
17437,18184
16687,18934
15491,18934
15244,18687
15244,17791
15644,17391
15644,16991
16041,16594
17291,16594
17341,16544
18987,16544
20784,18341
20784,18898
20734,19018
20734,19159
20784,19280
20784,24787
20084,25487
20084,25691
20384,25991
20384,29541
20584,29741
20584,31837
19884,32537
19884,32841
21034,33991
21034,34691
22037,35694
24239,35694
26241,35694
26444,35491
26444,34291
26541,34194
29641,34194
30291,33544
42442,33544
42538,33640
42668,33694
42809,33694
42940,33640
43036,33544
43137,33544
44737,35144
46241,35144
47344,34041
47344,33741
49591,31494
54787,31494
55034,31741
55034,33087
" /> 
</g>
<g style="fill:#000084; fill-opacity:1.0; 
stroke:#000084; stroke-width:39.3701; stroke-opacity:1; 
stroke-linecap:round; stroke-linejoin:round;">
<polyline style="fill-rule:evenodd;"
points="54434,40737
54287,40884
42887,40884
42684,41087
42684,41487
42337,41834
42164,41834
42164,40244
42130,40162
42066,40098
41984,40064
41894,40064
41812,40098
41748,40161
41714,40244
41714,40333
41748,40416
41811,40480
41894,40514
41983,40514
42066,40480
42130,40416
42164,40334
42164,40244
42164,41834
41854,41834
41854,40786
41814,40689
41739,40614
41642,40574
41536,40574
41439,40614
41364,40689
41324,40786
41324,40891
41364,40989
41439,41063
41536,41104
41641,41104
41739,41064
41813,40989
41854,40892
41854,40786
41854,41834
36064,41834
36064,40394
36064,39694
36030,39612
35966,39548
35884,39514
35794,39514
35712,39548
35648,39611
35614,39694
35614,39783
35648,39866
35711,39930
35794,39964
35883,39964
35966,39930
36030,39866
36064,39784
36064,39694
36064,40394
36030,40312
35966,40248
35884,40214
35794,40214
35712,40248
35648,40311
35614,40394
35614,40483
35648,40566
35711,40630
35794,40664
35883,40664
35966,40630
36030,40566
36064,40484
36064,40394
36064,41834
35154,41834
35154,40736
35114,40639
35039,40564
34942,40524
34836,40524
34739,40564
34664,40639
34624,40736
34624,40841
34664,40939
34739,41013
34836,41054
34941,41054
35039,41014
35113,40939
35154,40842
35154,40736
35154,41834
29037,41834
28337,42584
23344,42584
23344,42569
23290,42438
23190,42338
23060,42284
22919,42284
22788,42338
22688,42438
22634,42568
22634,42584
18004,42584
18004,40836
17964,40739
17889,40664
17792,40624
17686,40624
17589,40664
17514,40739
17474,40836
17474,40941
17514,41039
17589,41113
17686,41154
17791,41154
17889,41114
17963,41039
18004,40942
18004,40836
18004,42584
15694,42584
15694,42439
15694,42369
15694,42368
15694,41341
16194,40841
16194,40287
15344,39437
15344,39089
15344,39019
15344,39018
15344,27841
16844,26341
16894,23691
17244,23341
17244,21737
16691,21184
15491,21184
15244,20937
15244,19891
15741,19394
18037,19394
18684,20041
18684,21287
18237,21734
18134,21734
18134,22798
18084,22918
18084,23059
18134,23180
18134,27087
17434,27787
17434,30439
17434,30509
17434,30509
17434,34639
17434,34709
17434,34709
17434,39091
18734,40391
18734,40841
19637,41744
20791,41744
22291,40194
27141,40194
27644,39691
27644,39241
27791,39094
31589,39094
31659,39094
31659,39094
32589,39094
32659,39094
32659,39094
37392,39094
37438,39140
37568,39194
37709,39194
37840,39140
37886,39094
42437,39094
43077,39734
36214,39621
36337,39744
43089,39744
47989,39744
54434,39804
54434,40737
" /> 
</g>
<g style="fill:#000084; fill-opacity:0.0; 
stroke:#000084; stroke-width:10; stroke-opacity:1; 
stroke-linecap:round; stroke-linejoin:round;">
<polyline fill="none;"
points="54434,40737
54287,40884
42887,40884
42684,41087
42684,41487
42337,41834
42164,41834
42164,40244
42130,40162
42066,40098
41984,40064
41894,40064
41812,40098
41748,40161
41714,40244
41714,40333
41748,40416
41811,40480
41894,40514
41983,40514
42066,40480
42130,40416
42164,40334
42164,40244
42164,41834
41854,41834
41854,40786
41814,40689
41739,40614
41642,40574
41536,40574
41439,40614
41364,40689
41324,40786
41324,40891
41364,40989
41439,41063
41536,41104
41641,41104
41739,41064
41813,40989
41854,40892
41854,40786
41854,41834
36064,41834
36064,40394
36064,39694
36030,39612
35966,39548
35884,39514
35794,39514
35712,39548
35648,39611
35614,39694
35614,39783
35648,39866
35711,39930
35794,39964
35883,39964
35966,39930
36030,39866
36064,39784
36064,39694
36064,40394
36030,40312
35966,40248
35884,40214
35794,40214
35712,40248
35648,40311
35614,40394
35614,40483
35648,40566
35711,40630
35794,40664
35883,40664
35966,40630
36030,40566
36064,40484
36064,40394
36064,41834
35154,41834
35154,40736
35114,40639
35039,40564
34942,40524
34836,40524
34739,40564
34664,40639
34624,40736
34624,40841
34664,40939
34739,41013
34836,41054
34941,41054
35039,41014
35113,40939
35154,40842
35154,40736
35154,41834
29037,41834
28337,42584
23344,42584
23344,42569
23290,42438
23190,42338
23060,42284
22919,42284
22788,42338
22688,42438
22634,42568
22634,42584
18004,42584
18004,40836
17964,40739
17889,40664
17792,40624
17686,40624
17589,40664
17514,40739
17474,40836
17474,40941
17514,41039
17589,41113
17686,41154
17791,41154
17889,41114
17963,41039
18004,40942
18004,40836
18004,42584
15694,42584
15694,42439
15694,42369
15694,42368
15694,41341
16194,40841
16194,40287
15344,39437
15344,39089
15344,39019
15344,39018
15344,27841
16844,26341
16894,23691
17244,23341
17244,21737
16691,21184
15491,21184
15244,20937
15244,19891
15741,19394
18037,19394
18684,20041
18684,21287
18237,21734
18134,21734
18134,22798
18084,22918
18084,23059
18134,23180
18134,27087
17434,27787
17434,30439
17434,30509
17434,30509
17434,34639
17434,34709
17434,34709
17434,39091
18734,40391
18734,40841
19637,41744
20791,41744
22291,40194
27141,40194
27644,39691
27644,39241
27791,39094
31589,39094
31659,39094
31659,39094
32589,39094
32659,39094
32659,39094
37392,39094
37438,39140
37568,39194
37709,39194
37840,39140
37886,39094
42437,39094
43077,39734
36214,39621
36337,39744
43089,39744
47989,39744
54434,39804
54434,40737
" /> 
</g>
<g style="fill:#000084; fill-opacity:1.0; 
stroke:#000084; stroke-width:39.3701; stroke-opacity:1; 
stroke-linecap:round; stroke-linejoin:round;">
<polyline style="fill-rule:evenodd;"
points="54834,36937
54434,37337
54434,39796
52929,39779
52929,38962
52929,37962
52870,37818
52760,37709
52617,37649
52462,37649
52318,37708
52209,37818
52149,37961
52149,38116
52208,38259
52318,38369
52461,38429
52616,38429
52759,38370
52869,38260
52929,38117
52929,37962
52929,38962
52870,38818
52760,38709
52617,38649
52462,38649
52318,38708
52209,38818
52149,38961
52149,39116
52208,39259
52318,39369
52461,39429
52616,39429
52759,39370
52869,39260
52929,39117
52929,38962
52929,39779
51929,39768
51929,38962
51929,37962
51870,37818
51760,37709
51617,37649
51462,37649
51318,37708
51209,37818
51149,37961
51149,38116
51208,38259
51318,38369
51461,38429
51616,38429
51759,38370
51869,38260
51929,38117
51929,37962
51929,38962
51870,38818
51760,38709
51617,38649
51462,38649
51318,38708
51209,38818
51149,38961
51149,39116
51208,39259
51318,39369
51461,39429
51616,39429
51759,39370
51869,39260
51929,39117
51929,38962
51929,39768
50929,39757
50929,38962
50929,38962
50929,38377
50929,38351
50929,37701
50919,37677
50900,37659
50877,37649
50851,37649
50201,37649
50177,37659
50159,37677
50149,37701
50149,37727
50149,38377
50159,38400
50177,38419
50201,38429
50227,38429
50877,38429
50900,38419
50919,38400
50929,38377
50929,38962
50870,38818
50760,38709
50617,38649
50462,38649
50318,38708
50209,38818
50149,38961
50149,39116
50208,39259
50318,39369
50461,39429
50616,39429
50759,39370
50869,39260
50929,39117
50929,38962
50929,39757
48889,39734
48451,39734
48894,39291
48894,37591
49141,37344
50041,37344
51041,36344
53941,36344
54141,36144
54637,36144
54834,36341
54834,36362
54824,36386
54824,36491
54834,36516
54834,36937
" /> 
</g>
<g style="fill:#000084; fill-opacity:0.0; 
stroke:#000084; stroke-width:10; stroke-opacity:1; 
stroke-linecap:round; stroke-linejoin:round;">
<polyline fill="none;"
points="54834,36937
54434,37337
54434,39796
52929,39779
52929,38962
52929,37962
52870,37818
52760,37709
52617,37649
52462,37649
52318,37708
52209,37818
52149,37961
52149,38116
52208,38259
52318,38369
52461,38429
52616,38429
52759,38370
52869,38260
52929,38117
52929,37962
52929,38962
52870,38818
52760,38709
52617,38649
52462,38649
52318,38708
52209,38818
52149,38961
52149,39116
52208,39259
52318,39369
52461,39429
52616,39429
52759,39370
52869,39260
52929,39117
52929,38962
52929,39779
51929,39768
51929,38962
51929,37962
51870,37818
51760,37709
51617,37649
51462,37649
51318,37708
51209,37818
51149,37961
51149,38116
51208,38259
51318,38369
51461,38429
51616,38429
51759,38370
51869,38260
51929,38117
51929,37962
51929,38962
51870,38818
51760,38709
51617,38649
51462,38649
51318,38708
51209,38818
51149,38961
51149,39116
51208,39259
51318,39369
51461,39429
51616,39429
51759,39370
51869,39260
51929,39117
51929,38962
51929,39768
50929,39757
50929,38962
50929,38962
50929,38377
50929,38351
50929,37701
50919,37677
50900,37659
50877,37649
50851,37649
50201,37649
50177,37659
50159,37677
50149,37701
50149,37727
50149,38377
50159,38400
50177,38419
50201,38429
50227,38429
50877,38429
50900,38419
50919,38400
50929,38377
50929,38962
50870,38818
50760,38709
50617,38649
50462,38649
50318,38708
50209,38818
50149,38961
50149,39116
50208,39259
50318,39369
50461,39429
50616,39429
50759,39370
50869,39260
50929,39117
50929,38962
50929,39757
48889,39734
48451,39734
48894,39291
48894,37591
49141,37344
50041,37344
51041,36344
53941,36344
54141,36144
54637,36144
54834,36341
54834,36362
54824,36386
54824,36491
54834,36516
54834,36937
" /> 
</g>
<g style="fill:#000084; fill-opacity:1.0; 
stroke:#000084; stroke-width:39.3701; stroke-opacity:1; 
stroke-linecap:round; stroke-linejoin:round;">
<polyline style="fill-rule:evenodd;"
points="64034,43537
63837,43734
62041,43734
61844,43537
61844,43287
61644,43087
61644,41087
61491,40934
59929,40934
59929,38962
59929,37962
59870,37818
59760,37709
59617,37649
59462,37649
59318,37708
59209,37818
59149,37961
59149,38116
59208,38259
59318,38369
59461,38429
59616,38429
59759,38370
59869,38260
59929,38117
59929,37962
59929,38962
59870,38818
59760,38709
59617,38649
59462,38649
59318,38708
59209,38818
59149,38961
59149,39116
59208,39259
59318,39369
59461,39429
59616,39429
59759,39370
59869,39260
59929,39117
59929,38962
59929,40934
58929,40934
58929,38962
58929,37962
58870,37818
58760,37709
58617,37649
58462,37649
58318,37708
58209,37818
58149,37961
58149,38116
58208,38259
58318,38369
58461,38429
58616,38429
58759,38370
58869,38260
58929,38117
58929,37962
58929,38962
58870,38818
58760,38709
58617,38649
58462,38649
58318,38708
58209,38818
58149,38961
58149,39116
58208,39259
58318,39369
58461,39429
58616,39429
58759,39370
58869,39260
58929,39117
58929,38962
58929,40934
57937,40934
55987,42884
46287,42884
46034,43137
46034,45052
45966,45080
45880,45166
45834,45278
45834,45399
45880,45511
45945,45576
45600,45920
43512,45918
43561,45898
43647,45812
43694,45700
43694,45578
43648,45466
43562,45380
43450,45334
43328,45334
43216,45380
43130,45466
43084,45578
43084,45699
43130,45811
43216,45897
43265,45918
39735,45913
39735,45901
39629,45645
39433,45450
39178,45343
38901,45343
38645,45449
38450,45644
38343,45900
38343,45912
25054,45896
25054,44686
25014,44589
24939,44514
24842,44474
24736,44474
24639,44514
24564,44589
24524,44686
24524,44791
24564,44889
24639,44963
24736,45004
24841,45004
24939,44964
25013,44889
25054,44792
25054,44686
25054,45896
23344,45894
23344,43519
23290,43388
23190,43288
23060,43234
22919,43234
22788,43288
22688,43388
22634,43518
22634,43659
22688,43790
22788,43890
22918,43944
23059,43944
23190,43890
23290,43790
23344,43660
23344,43519
23344,45894
20714,45891
20714,44544
20680,44462
20616,44398
20534,44364
20444,44364
20362,44398
20298,44461
20264,44544
20264,44633
20298,44716
20361,44780
20444,44814
20533,44814
20616,44780
20680,44716
20714,44634
20714,44544
20714,45891
20204,45890
20204,44686
20164,44589
20089,44514
19992,44474
19886,44474
19789,44514
19714,44589
19674,44686
19674,44791
19714,44889
19789,44963
19886,45004
19991,45004
20089,44964
20163,44889
20204,44792
20204,44686
20204,45890
19814,45890
19814,45094
19780,45012
19716,44948
19634,44914
19544,44914
19462,44948
19398,45011
19364,45094
19364,45183
19398,45266
19461,45330
19544,45364
19633,45364
19716,45330
19780,45266
19814,45184
19814,45094
19814,45890
19414,45890
19414,45444
19380,45362
19316,45298
19234,45264
19144,45264
19062,45298
18998,45361
18964,45444
18964,45533
18998,45616
19061,45680
19144,45714
19233,45714
19316,45680
19380,45616
19414,45534
19414,45444
19414,45890
18714,45889
18714,45444
18680,45362
18654,45336
18654,44686
18614,44589
18539,44514
18442,44474
18336,44474
18239,44514
18204,44549
18204,44386
18164,44289
18089,44214
17992,44174
17886,44174
17789,44214
17714,44289
17674,44386
17674,44491
17714,44589
17789,44663
17886,44704
17991,44704
18089,44664
18163,44589
18204,44492
18204,44386
18204,44549
18164,44589
18124,44686
18124,44791
18164,44889
18239,44963
18336,45004
18441,45004
18539,44964
18613,44889
18654,44792
18654,44686
18654,45336
18616,45298
18534,45264
18444,45264
18362,45298
18298,45361
18264,45444
18264,45533
18298,45616
18361,45680
18444,45714
18533,45714
18616,45680
18680,45616
18714,45534
18714,45444
18714,45889
14591,45884
11894,43187
11894,30386
11990,30290
12044,30160
12044,30019
11990,29888
11894,29792
11894,22391
12191,22094
14337,22094
14584,22341
14584,23137
13934,23787
13934,41791
15287,43144
41691,43144
43294,41541
43294,41341
43391,41244
54291,41244
55991,39544
57241,39544
57344,39441
57344,39380
57461,39429
57616,39429
57759,39370
57869,39260
57929,39117
57929,38962
57870,38818
57760,38709
57617,38649
57462,38649
57344,38698
57344,38380
57461,38429
57616,38429
57759,38370
57869,38260
57929,38117
57929,37962
57870,37818
57760,37709
57617,37649
57462,37649
57344,37698
57344,31337
57241,31234
49587,31234
46337,34484
45991,34484
45894,34387
45894,33441
50941,28394
59487,28394
60384,29291
60384,33137
59734,33787
59734,35891
60037,36194
60737,36194
62835,38292
63237,38744
63887,38744
64034,38891
64034,43537
" /> 
</g>
<g style="fill:#000084; fill-opacity:0.0; 
stroke:#000084; stroke-width:10; stroke-opacity:1; 
stroke-linecap:round; stroke-linejoin:round;">
<polyline fill="none;"
points="64034,43537
63837,43734
62041,43734
61844,43537
61844,43287
61644,43087
61644,41087
61491,40934
59929,40934
59929,38962
59929,37962
59870,37818
59760,37709
59617,37649
59462,37649
59318,37708
59209,37818
59149,37961
59149,38116
59208,38259
59318,38369
59461,38429
59616,38429
59759,38370
59869,38260
59929,38117
59929,37962
59929,38962
59870,38818
59760,38709
59617,38649
59462,38649
59318,38708
59209,38818
59149,38961
59149,39116
59208,39259
59318,39369
59461,39429
59616,39429
59759,39370
59869,39260
59929,39117
59929,38962
59929,40934
58929,40934
58929,38962
58929,37962
58870,37818
58760,37709
58617,37649
58462,37649
58318,37708
58209,37818
58149,37961
58149,38116
58208,38259
58318,38369
58461,38429
58616,38429
58759,38370
58869,38260
58929,38117
58929,37962
58929,38962
58870,38818
58760,38709
58617,38649
58462,38649
58318,38708
58209,38818
58149,38961
58149,39116
58208,39259
58318,39369
58461,39429
58616,39429
58759,39370
58869,39260
58929,39117
58929,38962
58929,40934
57937,40934
55987,42884
46287,42884
46034,43137
46034,45052
45966,45080
45880,45166
45834,45278
45834,45399
45880,45511
45945,45576
45600,45920
43512,45918
43561,45898
43647,45812
43694,45700
43694,45578
43648,45466
43562,45380
43450,45334
43328,45334
43216,45380
43130,45466
43084,45578
43084,45699
43130,45811
43216,45897
43265,45918
39735,45913
39735,45901
39629,45645
39433,45450
39178,45343
38901,45343
38645,45449
38450,45644
38343,45900
38343,45912
25054,45896
25054,44686
25014,44589
24939,44514
24842,44474
24736,44474
24639,44514
24564,44589
24524,44686
24524,44791
24564,44889
24639,44963
24736,45004
24841,45004
24939,44964
25013,44889
25054,44792
25054,44686
25054,45896
23344,45894
23344,43519
23290,43388
23190,43288
23060,43234
22919,43234
22788,43288
22688,43388
22634,43518
22634,43659
22688,43790
22788,43890
22918,43944
23059,43944
23190,43890
23290,43790
23344,43660
23344,43519
23344,45894
20714,45891
20714,44544
20680,44462
20616,44398
20534,44364
20444,44364
20362,44398
20298,44461
20264,44544
20264,44633
20298,44716
20361,44780
20444,44814
20533,44814
20616,44780
20680,44716
20714,44634
20714,44544
20714,45891
20204,45890
20204,44686
20164,44589
20089,44514
19992,44474
19886,44474
19789,44514
19714,44589
19674,44686
19674,44791
19714,44889
19789,44963
19886,45004
19991,45004
20089,44964
20163,44889
20204,44792
20204,44686
20204,45890
19814,45890
19814,45094
19780,45012
19716,44948
19634,44914
19544,44914
19462,44948
19398,45011
19364,45094
19364,45183
19398,45266
19461,45330
19544,45364
19633,45364
19716,45330
19780,45266
19814,45184
19814,45094
19814,45890
19414,45890
19414,45444
19380,45362
19316,45298
19234,45264
19144,45264
19062,45298
18998,45361
18964,45444
18964,45533
18998,45616
19061,45680
19144,45714
19233,45714
19316,45680
19380,45616
19414,45534
19414,45444
19414,45890
18714,45889
18714,45444
18680,45362
18654,45336
18654,44686
18614,44589
18539,44514
18442,44474
18336,44474
18239,44514
18204,44549
18204,44386
18164,44289
18089,44214
17992,44174
17886,44174
17789,44214
17714,44289
17674,44386
17674,44491
17714,44589
17789,44663
17886,44704
17991,44704
18089,44664
18163,44589
18204,44492
18204,44386
18204,44549
18164,44589
18124,44686
18124,44791
18164,44889
18239,44963
18336,45004
18441,45004
18539,44964
18613,44889
18654,44792
18654,44686
18654,45336
18616,45298
18534,45264
18444,45264
18362,45298
18298,45361
18264,45444
18264,45533
18298,45616
18361,45680
18444,45714
18533,45714
18616,45680
18680,45616
18714,45534
18714,45444
18714,45889
14591,45884
11894,43187
11894,30386
11990,30290
12044,30160
12044,30019
11990,29888
11894,29792
11894,22391
12191,22094
14337,22094
14584,22341
14584,23137
13934,23787
13934,41791
15287,43144
41691,43144
43294,41541
43294,41341
43391,41244
54291,41244
55991,39544
57241,39544
57344,39441
57344,39380
57461,39429
57616,39429
57759,39370
57869,39260
57929,39117
57929,38962
57870,38818
57760,38709
57617,38649
57462,38649
57344,38698
57344,38380
57461,38429
57616,38429
57759,38370
57869,38260
57929,38117
57929,37962
57870,37818
57760,37709
57617,37649
57462,37649
57344,37698
57344,31337
57241,31234
49587,31234
46337,34484
45991,34484
45894,34387
45894,33441
50941,28394
59487,28394
60384,29291
60384,33137
59734,33787
59734,35891
60037,36194
60737,36194
62835,38292
63237,38744
63887,38744
64034,38891
64034,43537
" /> 
</g>
<g style="fill:#000084; fill-opacity:1.0; 
stroke:#000084; stroke-width:39.3701; stroke-opacity:1; 
stroke-linecap:round; stroke-linejoin:round;">
<polyline style="fill-rule:evenodd;"
points="64234,35587
63937,35884
60591,35884
60294,35587
60294,33991
60591,33694
63937,33694
64234,33991
64234,35587
" /> 
</g>
<g style="fill:#000084; fill-opacity:0.0; 
stroke:#000084; stroke-width:10; stroke-opacity:1; 
stroke-linecap:round; stroke-linejoin:round;">
<polyline fill="none;"
points="64234,35587
63937,35884
60591,35884
60294,35587
60294,33991
60591,33694
63937,33694
64234,33991
64234,35587
" /> 
</g>
<g style="fill:#FFFFFF; fill-opacity:0.0; 
stroke:#FFFFFF; stroke-width:39.3701; stroke-opacity:1; 
stroke-linecap:round; stroke-linejoin:round;">
</g>
<g style="fill:#FFFFFF; fill-opacity:1.0; 
stroke:#FFFFFF; stroke-width:39.3701; stroke-opacity:1; 
stroke-linecap:round; stroke-linejoin:round;">
<circle cx="20939.4" cy="25139.4" r="40.315" /> 
<circle cx="20539.4" cy="25589.4" r="40.315" /> 
<circle cx="20489.4" cy="44589.4" r="40.315" /> 
<circle cx="18489.4" cy="45489.4" r="40.315" /> 
<circle cx="19189.4" cy="45489.4" r="40.315" /> 
<circle cx="19589.4" cy="45139.4" r="40.315" /> 
<circle cx="19939.4" cy="44739.4" r="40.315" /> 
<circle cx="35339.4" cy="36189.4" r="40.315" /> 
<circle cx="35489.4" cy="36789.4" r="40.315" /> 
<circle cx="35839.4" cy="39739.4" r="40.315" /> 
<circle cx="35839.4" cy="40439.4" r="40.315" /> 
<circle cx="21039.4" cy="33439.4" r="40.315" /> 
<circle cx="21639.4" cy="34039.4" r="40.315" /> 
<circle cx="21989.4" cy="34439.4" r="40.315" /> 
<circle cx="21039.4" cy="31939.4" r="40.315" /> 
<circle cx="20689.4" cy="32339.4" r="40.315" /> 
<circle cx="20289.4" cy="32689.4" r="40.315" /> 
<circle cx="20689.4" cy="33039.4" r="40.315" /> 
<circle cx="23564.4" cy="31864.4" r="40.315" /> 
<circle cx="22589.4" cy="30839.4" r="40.315" /> 
<circle cx="23789.4" cy="32289.4" r="40.315" /> 
<circle cx="42389.4" cy="38539.4" r="40.315" /> 
<circle cx="41939.4" cy="38239.4" r="40.315" /> 
<circle cx="41939.4" cy="40289.4" r="40.315" /> 
<circle cx="41939.4" cy="38839.4" r="40.315" /> 
<circle cx="55689.4" cy="31989.4" r="40.315" /> 
<circle cx="55689.4" cy="32439.4" r="40.315" /> 
<circle cx="55689.4" cy="35389.4" r="130.315" /> 
<circle cx="55689.4" cy="36039.4" r="130.315" /> 
<circle cx="59989.4" cy="42289.4" r="130.315" /> 
<circle cx="59189.4" cy="42789.4" r="130.315" /> 
<circle cx="59189.4" cy="41789.4" r="130.315" /> 
<circle cx="12339.4" cy="21289.4" r="80.315" /> 
<circle cx="11839.4" cy="20539.4" r="80.315" /> 
<circle cx="12339.4" cy="19789.4" r="80.315" /> 
<circle cx="63789.4" cy="47389.4" r="130.315" /> 
<circle cx="63739.4" cy="44739.4" r="130.315" /> 
<circle cx="64339.4" cy="37989.4" r="130.315" /> 
<circle cx="64489.4" cy="26989.4" r="130.315" /> 
<circle cx="65089.4" cy="24289.4" r="130.315" /> 
<circle cx="40039.4" cy="24589.4" r="130.315" /> 
<circle cx="30389.4" cy="27739.4" r="130.315" /> 
<circle cx="33439.4" cy="27939.4" r="130.315" /> 
<circle cx="33189.4" cy="25239.4" r="130.315" /> 
<circle cx="8239.37" cy="46589.4" r="130.315" /> 
<circle cx="14839.4" cy="46289.4" r="130.315" /> 
<circle cx="16889.4" cy="46339.4" r="130.315" /> 
<circle cx="37339.4" cy="51889.4" r="130.315" /> 
<circle cx="38789.4" cy="49839.4" r="130.315" /> 
<circle cx="40139.4" cy="51689.4" r="130.315" /> 
<circle cx="42389.4" cy="51589.4" r="130.315" /> 
<circle cx="34639.4" cy="46289.4" r="130.315" /> 
<circle cx="35639.4" cy="46289.4" r="130.315" /> 
<circle cx="21089.4" cy="19089.4" r="130.315" /> 
<circle cx="32489.4" cy="30539.4" r="130.315" /> 
<circle cx="31739.4" cy="31239.4" r="130.315" /> 
<circle cx="34839.4" cy="31239.4" r="130.315" /> 
<circle cx="35539.4" cy="30539.4" r="130.315" /> 
<circle cx="29489.4" cy="30539.4" r="130.315" /> 
<circle cx="28789.4" cy="31239.4" r="130.315" /> 
<circle cx="29789.4" cy="46789.4" r="130.315" /> 
<circle cx="32489.4" cy="46289.4" r="130.315" /> 
<circle cx="36689.4" cy="42289.4" r="130.315" /> 
<circle cx="17789.4" cy="30439.4" r="130.315" /> 
<circle cx="11689.4" cy="30089.4" r="130.315" /> 
<circle cx="17789.4" cy="34639.4" r="130.315" /> 
<circle cx="14589.4" cy="36639.4" r="130.315" /> 
<circle cx="14589.4" cy="28989.4" r="130.315" /> 
<circle cx="18439.4" cy="22989.4" r="130.315" /> 
<circle cx="26539.4" cy="32139.4" r="130.315" /> 
<circle cx="22989.4" cy="43589.4" r="130.315" /> 
<circle cx="22989.4" cy="42639.4" r="130.315" /> 
<circle cx="14939.4" cy="41539.4" r="130.315" /> 
<circle cx="15689.4" cy="40439.4" r="130.315" /> 
<circle cx="14989.4" cy="39089.4" r="130.315" /> 
<circle cx="15339.4" cy="42439.4" r="130.315" /> 
<circle cx="39089.4" cy="38389.4" r="130.315" /> 
<circle cx="37639.4" cy="38839.4" r="130.315" /> 
<circle cx="37639.4" cy="37589.4" r="130.315" /> 
<circle cx="46789.4" cy="44189.4" r="130.315" /> 
<circle cx="47739.4" cy="44339.4" r="130.315" /> 
<circle cx="47739.4" cy="43539.4" r="130.315" /> 
<circle cx="32589.4" cy="38739.4" r="130.315" /> 
<circle cx="31589.4" cy="38739.4" r="130.315" /> 
<circle cx="32139.4" cy="38089.4" r="130.315" /> 
<circle cx="25239.4" cy="34589.4" r="80.315" /> 
<circle cx="25889.4" cy="35239.4" r="80.315" /> 
<circle cx="42739.4" cy="33339.4" r="130.315" /> 
<circle cx="42289.4" cy="33989.4" r="130.315" /> 
<circle cx="42289.4" cy="32739.4" r="130.315" /> 
<circle cx="55789.4" cy="33789.4" r="130.315" /> 
<circle cx="56589.4" cy="33389.4" r="130.315" /> 
<circle cx="56589.4" cy="34189.4" r="130.315" /> 
<circle cx="25789.4" cy="27589.4" r="130.315" /> 
<circle cx="24339.4" cy="27989.4" r="130.315" /> 
<circle cx="25189.4" cy="26439.4" r="130.315" /> 
<circle cx="23889.4" cy="25889.4" r="130.315" /> 
<circle cx="62939.4" cy="34789.4" r="130.315" /> 
<circle cx="63639.4" cy="35289.4" r="130.315" /> 
<circle cx="63639.4" cy="34289.4" r="130.315" /> 
<circle cx="46139.4" cy="45339.4" r="80.315" /> 
<circle cx="15939.4" cy="26239.4" r="80.315" /> 
<circle cx="15039.4" cy="25439.4" r="80.315" /> 
<circle cx="15939.4" cy="24589.4" r="80.315" /> 
<circle cx="15039.4" cy="23739.4" r="80.315" /> 
<circle cx="55089.4" cy="36439.4" r="40.315" /> 
<circle cx="18389.4" cy="44739.4" r="40.315" /> 
<circle cx="21539.4" cy="29039.4" r="40.315" /> 
<circle cx="52239.4" cy="32389.4" r="40.315" /> 
<circle cx="41589.4" cy="40839.4" r="40.315" /> 
<circle cx="34889.4" cy="40789.4" r="40.315" /> 
<circle cx="23139.4" cy="33839.4" r="40.315" /> 
<circle cx="28939.4" cy="28389.4" r="40.315" /> 
<circle cx="22269.4" cy="31189.4" r="40.315" /> 
<circle cx="22564.4" cy="32864.4" r="40.315" /> 
<circle cx="22564.4" cy="32514.4" r="40.315" /> 
<circle cx="22214.4" cy="32864.4" r="40.315" /> 
<circle cx="22214.4" cy="32514.4" r="40.315" /> 
<circle cx="23539.4" cy="41039.4" r="40.315" /> 
<circle cx="17689.4" cy="21289.4" r="80.315" /> 
<circle cx="18189.4" cy="20539.4" r="80.315" /> 
<circle cx="17689.4" cy="19789.4" r="80.315" /> 
<circle cx="28089.4" cy="39389.4" r="40.315" /> 
<circle cx="18489.4" cy="40589.4" r="40.315" /> 
<circle cx="41089.4" cy="40889.4" r="40.315" /> 
<circle cx="54639.4" cy="36489.4" r="40.315" /> 
<circle cx="34389.4" cy="40839.4" r="40.315" /> 
<circle cx="17939.4" cy="44439.4" r="40.315" /> 
<circle cx="22189.4" cy="25639.4" r="80.315" /> 
<circle cx="43589.4" cy="48739.4" r="80.315" /> 
<circle cx="43389.4" cy="45639.4" r="80.315" /> 
<circle cx="13189.4" cy="17039.4" r="80.315" /> 
<circle cx="45589.4" cy="31439.4" r="40.315" /> 
<circle cx="14389.4" cy="17039.4" r="80.315" /> 
<circle cx="20989.4" cy="29039.4" r="40.315" /> 
<circle cx="23439.4" cy="31389.4" r="40.315" /> 
<circle cx="22989.4" cy="31089.4" r="40.315" /> 
<circle cx="16989.4" cy="17289.4" r="80.315" /> 
<circle cx="16239.4" cy="17289.4" r="80.315" /> 
<circle cx="16989.4" cy="18039.4" r="80.315" /> 
<circle cx="24789.4" cy="44739.4" r="40.315" /> 
<circle cx="26239.4" cy="39389.4" r="40.315" /> 
<circle cx="19839.4" cy="40439.4" r="40.315" /> 
<circle cx="41539.4" cy="36689.4" r="40.315" /> 
<circle cx="54739.4" cy="31889.4" r="40.315" /> 
<circle cx="34689.4" cy="36139.4" r="40.315" /> 
<circle cx="62839.4" cy="42289.4" r="130.315" /> 
<circle cx="63489.4" cy="41689.4" r="130.315" /> 
<circle cx="63489.4" cy="43239.4" r="130.315" /> 
<circle cx="12489.4" cy="24089.4" r="80.315" /> 
<circle cx="12339.4" cy="23339.4" r="80.315" /> 
<circle cx="43489.4" cy="41439.4" r="40.315" /> 
<circle cx="46089.4" cy="34289.4" r="40.315" /> 
<circle cx="22389.4" cy="34839.4" r="40.315" /> 
<circle cx="22789.4" cy="34439.4" r="40.315" /> 
<circle cx="17739.4" cy="40889.4" r="40.315" /> 
<circle cx="12039.4" cy="50789.4" r="105.315" /> 
<circle cx="12039.4" cy="49789.4" r="105.315" /> 
<circle cx="13039.4" cy="50789.4" r="105.315" /> 
<circle cx="13039.4" cy="49789.4" r="105.315" /> 
<circle cx="14039.4" cy="50789.4" r="105.315" /> 
<circle cx="14039.4" cy="49789.4" r="105.315" /> 
<circle cx="15039.4" cy="50789.4" r="105.315" /> 
<circle cx="15039.4" cy="49789.4" r="105.315" /> 
<circle cx="16039.4" cy="50789.4" r="105.315" /> 
<circle cx="16039.4" cy="49789.4" r="105.315" /> 
<circle cx="17039.4" cy="50789.4" r="105.315" /> 
<circle cx="17039.4" cy="49789.4" r="105.315" /> 
<circle cx="18039.4" cy="50789.4" r="105.315" /> 
<circle cx="18039.4" cy="49789.4" r="105.315" /> 
<circle cx="19039.4" cy="50789.4" r="105.315" /> 
<circle cx="19039.4" cy="49789.4" r="105.315" /> 
<circle cx="20039.4" cy="50789.4" r="105.315" /> 
<circle cx="20039.4" cy="49789.4" r="105.315" /> 
<circle cx="21039.4" cy="50789.4" r="105.315" /> 
<circle cx="21039.4" cy="49789.4" r="105.315" /> 
<circle cx="22039.4" cy="50789.4" r="105.315" /> 
<circle cx="22039.4" cy="49789.4" r="105.315" /> 
<circle cx="23039.4" cy="50789.4" r="105.315" /> 
<circle cx="23039.4" cy="49789.4" r="105.315" /> 
<circle cx="24039.4" cy="50789.4" r="105.315" /> 
<circle cx="24039.4" cy="49789.4" r="105.315" /> 
<circle cx="25039.4" cy="50789.4" r="105.315" /> 
<circle cx="25039.4" cy="49789.4" r="105.315" /> 
<circle cx="26039.4" cy="50789.4" r="105.315" /> 
<circle cx="26039.4" cy="49789.4" r="105.315" /> 
<circle cx="27039.4" cy="50789.4" r="105.315" /> 
<circle cx="27039.4" cy="49789.4" r="105.315" /> 
<circle cx="28039.4" cy="50789.4" r="105.315" /> 
<circle cx="28039.4" cy="49789.4" r="105.315" /> 
<circle cx="29039.4" cy="50789.4" r="105.315" /> 
<circle cx="29039.4" cy="49789.4" r="105.315" /> 
<circle cx="30039.4" cy="50789.4" r="105.315" /> 
<circle cx="30039.4" cy="49789.4" r="105.315" /> 
<circle cx="31039.4" cy="50789.4" r="105.315" /> 
<circle cx="31039.4" cy="49789.4" r="105.315" /> 
<circle cx="32039.4" cy="50789.4" r="105.315" /> 
<circle cx="32039.4" cy="49789.4" r="105.315" /> 
<circle cx="33039.4" cy="50789.4" r="105.315" /> 
<circle cx="33039.4" cy="49789.4" r="105.315" /> 
<circle cx="34039.4" cy="50789.4" r="105.315" /> 
<circle cx="34039.4" cy="49789.4" r="105.315" /> 
<circle cx="35039.4" cy="50789.4" r="105.315" /> 
<circle cx="35039.4" cy="49789.4" r="105.315" /> 
<circle cx="36039.4" cy="50789.4" r="105.315" /> 
<circle cx="36039.4" cy="49789.4" r="105.315" /> 
<circle cx="43539.4" cy="38039.4" r="177.165" /> 
<circle cx="43539.4" cy="39039.4" r="177.165" /> 
<circle cx="44539.4" cy="38039.4" r="177.165" /> 
<circle cx="44539.4" cy="39039.4" r="177.165" /> 
<circle cx="45539.4" cy="38039.4" r="177.165" /> 
<circle cx="45539.4" cy="39039.4" r="177.165" /> 
<circle cx="46539.4" cy="38039.4" r="177.165" /> 
<circle cx="46539.4" cy="39039.4" r="177.165" /> 
<circle cx="47539.4" cy="38039.4" r="177.165" /> 
<circle cx="47539.4" cy="39039.4" r="177.165" /> 
<circle cx="55539.4" cy="38039.4" r="177.165" /> 
<circle cx="55539.4" cy="39039.4" r="177.165" /> 
<circle cx="56539.4" cy="38039.4" r="177.165" /> 
<circle cx="56539.4" cy="39039.4" r="177.165" /> 
<circle cx="57539.4" cy="38039.4" r="177.165" /> 
<circle cx="57539.4" cy="39039.4" r="177.165" /> 
<circle cx="58539.4" cy="38039.4" r="177.165" /> 
<circle cx="58539.4" cy="39039.4" r="177.165" /> 
<circle cx="59539.4" cy="38039.4" r="177.165" /> 
<circle cx="59539.4" cy="39039.4" r="177.165" /> 
<circle cx="50539.4" cy="38039.4" r="177.165" /> 
<circle cx="51539.4" cy="38039.4" r="177.165" /> 
<circle cx="50539.4" cy="39039.4" r="177.165" /> 
<circle cx="51539.4" cy="39039.4" r="177.165" /> 
<circle cx="52539.4" cy="38039.4" r="177.165" /> 
<circle cx="52539.4" cy="39039.4" r="177.165" /> 
<circle cx="61039.4" cy="34289.4" r="177.165" /> 
<circle cx="61039.4" cy="35289.4" r="177.165" /> 
<circle cx="62039.4" cy="34289.4" r="177.165" /> 
<circle cx="62039.4" cy="35289.4" r="177.165" /> 
<circle cx="61039.4" cy="41789.4" r="177.165" /> 
<circle cx="61039.4" cy="42789.4" r="177.165" /> 
<circle cx="62039.4" cy="41789.4" r="177.165" /> 
<circle cx="62039.4" cy="42789.4" r="177.165" /> 
<circle cx="39039.4" cy="31039.4" r="570.866" /> 
<circle cx="64039.4" cy="46039.4" r="570.866" /> 
<circle cx="64039.4" cy="31039.4" r="570.866" /> 
<circle cx="39039.4" cy="46039.4" r="570.866" /> 
<circle cx="45489.4" cy="25329.4" r="650.315" /> 
<circle cx="47589.4" cy="25329.4" r="650.315" /> 
<circle cx="62589.4" cy="51749.4" r="650.315" /> 
<circle cx="60489.4" cy="51749.4" r="650.315" /> 
<circle cx="52589.4" cy="51749.4" r="650.315" /> 
<circle cx="50489.4" cy="51749.4" r="650.315" /> 
<circle cx="47589.4" cy="51749.4" r="650.315" /> 
<circle cx="45489.4" cy="51749.4" r="650.315" /> 
<circle cx="60489.4" cy="25329.4" r="650.315" /> 
<circle cx="62589.4" cy="25329.4" r="650.315" /> 
<circle cx="55489.4" cy="25329.4" r="650.315" /> 
<circle cx="57589.4" cy="25329.4" r="650.315" /> 
<circle cx="57589.4" cy="51749.4" r="650.315" /> 
<circle cx="55489.4" cy="51749.4" r="650.315" /> 
<circle cx="50489.4" cy="25329.4" r="650.315" /> 
<circle cx="52589.4" cy="25329.4" r="650.315" /> 
<circle cx="13789.4" cy="22783.5" r="334.646" /> 
<circle cx="13789.4" cy="20539.4" r="334.646" /> 
<circle cx="13789.4" cy="18295.3" r="334.646" /> 
<circle cx="15954.7" cy="22783.5" r="334.646" /> 
<circle cx="15954.7" cy="20539.4" r="334.646" /> 
<circle cx="15954.7" cy="18295.3" r="334.646" /> 
<circle cx="10915.4" cy="22783.5" r="570.866" /> 
<circle cx="10915.4" cy="18295.3" r="570.866" /> 
</g> 
</svg>
