<?xml version="1.0" standalone="no"?>
 <!DOCTYPE svg PUBLIC "-//W3C//DTD SVG 1.1//EN" 
 "http://www.w3.org/Graphics/SVG/1.1/DTD/svg11.dtd"> 
<svg xmlns="http://www.w3.org/2000/svg" version="1.1" 
    width="7.79526cm" height="7.71144cm" viewBox="0 0 30690 30360 ">
<title>SVG Picture created as demux-panel--brd.svg date 2014/03/17 17:20:49 </title>
  <desc>Picture generated by PCBNEW </desc>
<g style="fill:#000000; fill-opacity:1;stroke:#000000; stroke-opacity:1;
stroke-linecap:round; stroke-linejoin:round; "
 transform="translate(0 0) scale(1 1)">
</g>
<g style="fill:#C2C200; fill-opacity:0.0; 
stroke:#C2C200; stroke-width:150; stroke-opacity:1; 
stroke-linecap:round; stroke-linejoin:round;">
<path d="M1596 30184
L1596 184
" />
<path d="M29096 30184
L1596 30184
" />
<path d="M29096 184
L29096 30184
" />
<path d="M1596 184
L29096 184
" />
</g>
<g style="fill:#840000; fill-opacity:0.0; 
stroke:#840000; stroke-width:39.3701; stroke-opacity:1; 
stroke-linecap:round; stroke-linejoin:round;">
</g>
<g style="fill:#840000; fill-opacity:1.0; 
stroke:#840000; stroke-width:39.3701; stroke-opacity:1; 
stroke-linecap:round; stroke-linejoin:round;">
<circle cx="2846.35" cy="7684.65" r="570.866" /> 
<circle cx="2846.35" cy="22684.6" r="570.866" /> 
<circle cx="27846.4" cy="7684.65" r="570.866" /> 
<circle cx="27846.4" cy="22684.6" r="570.866" /> 
<polyline style="fill-rule:evenodd;"
points="7041,14989
7041,14379
7651,14379
7651,14989
7041,14989
" /> 
<circle cx="7346.35" cy="15684.6" r="305.118" /> 
<circle cx="8346.35" cy="14684.6" r="305.118" /> 
<circle cx="8346.35" cy="15684.6" r="305.118" /> 
<circle cx="9346.35" cy="14684.6" r="305.118" /> 
<circle cx="9346.35" cy="15684.6" r="305.118" /> 
<circle cx="10346.4" cy="14684.6" r="305.118" /> 
<circle cx="10346.4" cy="15684.6" r="305.118" /> 
<circle cx="11346.4" cy="14684.6" r="305.118" /> 
<circle cx="11346.4" cy="15684.6" r="305.118" /> 
<polyline style="fill-rule:evenodd;"
points="19041,14989
19041,14379
19651,14379
19651,14989
19041,14989
" /> 
<circle cx="19346.4" cy="15684.6" r="305.118" /> 
<circle cx="20346.4" cy="14684.6" r="305.118" /> 
<circle cx="20346.4" cy="15684.6" r="305.118" /> 
<circle cx="21346.4" cy="14684.6" r="305.118" /> 
<circle cx="21346.4" cy="15684.6" r="305.118" /> 
<circle cx="22346.4" cy="14684.6" r="305.118" /> 
<circle cx="22346.4" cy="15684.6" r="305.118" /> 
<circle cx="23346.4" cy="14684.6" r="305.118" /> 
<circle cx="23346.4" cy="15684.6" r="305.118" /> 
<polyline style="fill-rule:evenodd;"
points="14041,14989
14041,14379
14651,14379
14651,14989
14041,14989
" /> 
<circle cx="15346.4" cy="14684.6" r="305.118" /> 
<circle cx="14346.4" cy="15684.6" r="305.118" /> 
<circle cx="15346.4" cy="15684.6" r="305.118" /> 
<circle cx="16346.4" cy="14684.6" r="305.118" /> 
<circle cx="16346.4" cy="15684.6" r="305.118" /> 
<polyline style="fill-rule:evenodd;"
points="24541,11239
24541,10629
25151,10629
25151,11239
24541,11239
" /> 
<circle cx="24846.4" cy="11934.6" r="305.118" /> 
<circle cx="25846.4" cy="10934.6" r="305.118" /> 
<circle cx="25846.4" cy="11934.6" r="305.118" /> 
<polyline style="fill-rule:evenodd;"
points="24541,18739
24541,18129
25151,18129
25151,18739
24541,18739
" /> 
<circle cx="24846.4" cy="19434.6" r="305.118" /> 
<circle cx="25846.4" cy="18434.6" r="305.118" /> 
<circle cx="25846.4" cy="19434.6" r="305.118" /> 
<circle cx="25602.3" cy="26578.3" r="255.906" /> 
<circle cx="25602.3" cy="25790.9" r="255.906" /> 
<circle cx="24814.9" cy="26578.3" r="255.906" /> 
<circle cx="24814.9" cy="25790.9" r="255.906" /> 
<circle cx="24027.5" cy="26578.3" r="255.906" /> 
<circle cx="24027.5" cy="25790.9" r="255.906" /> 
<circle cx="23240.1" cy="26578.3" r="255.906" /> 
<circle cx="23240.1" cy="25790.9" r="255.906" /> 
<circle cx="22452.7" cy="26578.3" r="255.906" /> 
<circle cx="22452.7" cy="25790.9" r="255.906" /> 
<circle cx="21665.2" cy="26578.3" r="255.906" /> 
<circle cx="21665.2" cy="25790.9" r="255.906" /> 
<circle cx="20877.8" cy="26578.3" r="255.906" /> 
<circle cx="20877.8" cy="25790.9" r="255.906" /> 
<circle cx="20090.4" cy="26578.3" r="255.906" /> 
<circle cx="20090.4" cy="25790.9" r="255.906" /> 
<circle cx="10602.3" cy="26578.3" r="255.906" /> 
<circle cx="10602.3" cy="25790.9" r="255.906" /> 
<circle cx="9814.86" cy="26578.3" r="255.906" /> 
<circle cx="9814.86" cy="25790.9" r="255.906" /> 
<circle cx="9027.45" cy="26578.3" r="255.906" /> 
<circle cx="9027.45" cy="25790.9" r="255.906" /> 
<circle cx="8240.05" cy="26578.3" r="255.906" /> 
<circle cx="8240.05" cy="25790.9" r="255.906" /> 
<circle cx="7452.65" cy="26578.3" r="255.906" /> 
<circle cx="7452.65" cy="25790.9" r="255.906" /> 
<circle cx="6665.25" cy="26578.3" r="255.906" /> 
<circle cx="6665.25" cy="25790.9" r="255.906" /> 
<circle cx="5877.85" cy="26578.3" r="255.906" /> 
<circle cx="5877.85" cy="25790.9" r="255.906" /> 
<circle cx="5090.45" cy="26578.3" r="255.906" /> 
<circle cx="5090.45" cy="25790.9" r="255.906" /> 
<circle cx="20090.4" cy="3790.95" r="255.906" /> 
<circle cx="20090.4" cy="4578.35" r="255.906" /> 
<circle cx="20877.8" cy="3790.95" r="255.906" /> 
<circle cx="20877.8" cy="4578.35" r="255.906" /> 
<circle cx="21665.2" cy="3790.95" r="255.906" /> 
<circle cx="21665.2" cy="4578.35" r="255.906" /> 
<circle cx="22452.7" cy="3790.95" r="255.906" /> 
<circle cx="22452.7" cy="4578.35" r="255.906" /> 
<circle cx="23240.1" cy="3790.95" r="255.906" /> 
<circle cx="23240.1" cy="4578.35" r="255.906" /> 
<circle cx="24027.5" cy="3790.95" r="255.906" /> 
<circle cx="24027.5" cy="4578.35" r="255.906" /> 
<circle cx="24814.9" cy="3790.95" r="255.906" /> 
<circle cx="24814.9" cy="4578.35" r="255.906" /> 
<circle cx="25602.3" cy="3790.95" r="255.906" /> 
<circle cx="25602.3" cy="4578.35" r="255.906" /> 
<circle cx="5090.45" cy="3790.95" r="255.906" /> 
<circle cx="5090.45" cy="4578.35" r="255.906" /> 
<circle cx="5877.85" cy="3790.95" r="255.906" /> 
<circle cx="5877.85" cy="4578.35" r="255.906" /> 
<circle cx="6665.25" cy="3790.95" r="255.906" /> 
<circle cx="6665.25" cy="4578.35" r="255.906" /> 
<circle cx="7452.65" cy="3790.95" r="255.906" /> 
<circle cx="7452.65" cy="4578.35" r="255.906" /> 
<circle cx="8240.05" cy="3790.95" r="255.906" /> 
<circle cx="8240.05" cy="4578.35" r="255.906" /> 
<circle cx="9027.45" cy="3790.95" r="255.906" /> 
<circle cx="9027.45" cy="4578.35" r="255.906" /> 
<circle cx="9814.86" cy="3790.95" r="255.906" /> 
<circle cx="9814.86" cy="4578.35" r="255.906" /> 
<circle cx="10602.3" cy="3790.95" r="255.906" /> 
<circle cx="10602.3" cy="4578.35" r="255.906" /> 
<circle cx="14796.4" cy="5184.65" r="314.961" /> 
<circle cx="15796.4" cy="5184.65" r="314.961" /> 
<circle cx="16296.4" cy="1784.65" r="650.315" /> 
<circle cx="14296.4" cy="1784.65" r="650.315" /> 
<circle cx="15846.4" cy="25184.6" r="314.961" /> 
<circle cx="14846.4" cy="25184.6" r="314.961" /> 
<circle cx="14346.4" cy="28584.6" r="650.315" /> 
<circle cx="16346.4" cy="28584.6" r="650.315" /> 
<circle cx="27740.1" cy="14184.6" r="255.906" /> 
<circle cx="26952.7" cy="14184.6" r="255.906" /> 
<circle cx="26952.7" cy="16434.6" r="255.906" /> 
<circle cx="27740.1" cy="16434.6" r="255.906" /> 
</g>
<g style="fill:#C2C2C2; fill-opacity:1.0; 
stroke:#C2C2C2; stroke-width:39.3701; stroke-opacity:1; 
stroke-linecap:round; stroke-linejoin:round;">
<circle cx="4196.35" cy="29284.6" r="230.315" /> 
<circle cx="7846.35" cy="28034.6" r="230.315" /> 
<circle cx="11496.4" cy="29284.6" r="230.315" /> 
<circle cx="19146.4" cy="29384.6" r="230.315" /> 
<circle cx="22896.4" cy="28084.6" r="230.315" /> 
<circle cx="27296.4" cy="28634.6" r="230.315" /> 
<circle cx="27396.4" cy="24584.6" r="230.315" /> 
<circle cx="27046.4" cy="10084.6" r="230.315" /> 
<circle cx="25246.4" cy="8934.65" r="230.315" /> 
<circle cx="26446.4" cy="1134.65" r="230.315" /> 
<circle cx="22846.4" cy="2384.65" r="230.315" /> 
<circle cx="19196.4" cy="1134.65" r="230.315" /> 
<circle cx="11496.4" cy="1084.65" r="230.315" /> 
<circle cx="7846.35" cy="2234.65" r="230.315" /> 
<circle cx="4996.35" cy="1134.65" r="230.315" /> 
<circle cx="4196.35" cy="15284.6" r="230.315" /> 
<circle cx="8946.35" cy="11584.6" r="230.315" /> 
<circle cx="5046.35" cy="12434.6" r="230.315" /> 
<circle cx="4046.35" cy="17584.6" r="230.315" /> 
<circle cx="6046.35" cy="18234.6" r="230.315" /> 
<circle cx="6046.35" cy="19634.6" r="230.315" /> 
<circle cx="4046.35" cy="18984.6" r="230.315" /> 
<circle cx="5046.35" cy="10334.6" r="230.315" /> 
<circle cx="4046.35" cy="20384.6" r="230.315" /> 
<circle cx="14296.4" cy="17784.6" r="180.315" /> 
<circle cx="12296.4" cy="18634.6" r="180.315" /> 
<circle cx="12296.4" cy="11734.6" r="180.315" /> 
<circle cx="14296.4" cy="12584.6" r="180.315" /> 
<circle cx="16396.4" cy="12584.6" r="180.315" /> 
<circle cx="18396.4" cy="11734.6" r="180.315" /> 
<circle cx="18396.4" cy="18634.6" r="180.315" /> 
<circle cx="16396.4" cy="17784.6" r="180.315" /> 
<circle cx="27846.4" cy="18434.6" r="230.315" /> 
<circle cx="27846.4" cy="19434.6" r="230.315" /> 
<circle cx="13496.4" cy="18834.6" r="180.315" /> 
<circle cx="13496.4" cy="11534.6" r="180.315" /> 
<circle cx="17196.4" cy="11534.6" r="180.315" /> 
<circle cx="17196.4" cy="18834.6" r="180.315" /> 
<circle cx="26846.4" cy="18934.6" r="230.315" /> 
<circle cx="11096.4" cy="17884.6" r="230.315" /> 
<circle cx="11096.4" cy="12184.6" r="230.315" /> 
<circle cx="23346.4" cy="18934.6" r="230.315" /> 
<circle cx="22346.4" cy="18434.6" r="230.315" /> 
<circle cx="22346.4" cy="19434.6" r="230.315" /> 
</g>
<g style="fill:#C2C2C2; fill-opacity:1.0; 
stroke:#C2C2C2; stroke-width:500; stroke-opacity:1; 
stroke-linecap:round; stroke-linejoin:round;">
<path d="M13096 16184
L13596 16684
" />
<path d="M13096 16184
L13096 14184
" />
<path d="M13096 14184
L11096 12184
" />
<path d="M13596 16684
L13096 17184
" />
<path d="M11096 17434
L11096 18684
" />
<path d="M11346 17184
L11096 17434
" />
<path d="M13096 17184
L11346 17184
" />
<path d="M22346 18434
L22096 18434
" />
<path d="M20346 16684
L13596 16684
" />
<path d="M22096 18434
L20346 16684
" />
</g>
<g style="fill:#C2C2C2; fill-opacity:1.0; 
stroke:#C2C2C2; stroke-width:39.3701; stroke-opacity:1; 
stroke-linecap:round; stroke-linejoin:round;">
<polyline style="fill-rule:evenodd;"
points="29006,30094
28542,30094
28542,22546
28542,7546
28436,7291
28240,7095
27985,6989
27708,6988
27452,7094
27257,7290
27150,7545
27150,7822
27256,8078
27451,8273
27707,8380
27984,8380
28239,8274
28435,8079
28541,7823
28542,7546
28542,22546
28436,22291
28240,22095
28080,22028
28080,16367
28080,14117
28028,13991
27933,13896
27808,13844
27672,13843
27547,13895
27451,13991
27401,14112
27401,10014
27347,9883
27247,9783
27117,9729
26976,9729
26845,9783
26801,9827
26801,1064
26747,933
26647,833
26517,779
26376,779
26245,833
26145,933
26091,1063
26091,1204
26145,1335
26244,1435
26375,1489
26516,1489
26647,1435
26747,1336
26801,1205
26801,1064
26801,9827
26745,9883
26691,10013
26691,10154
26745,10285
26844,10385
26975,10439
27116,10439
27247,10385
27347,10286
27401,10155
27401,10014
27401,14112
27399,14116
27399,14252
27451,14377
27546,14473
27672,14525
27807,14525
27932,14473
28028,14377
28080,14252
28080,14117
28080,16367
28028,16241
27933,16146
27808,16094
27672,16093
27547,16145
27451,16241
27399,16366
27399,16502
27451,16627
27546,16723
27672,16775
27807,16775
27932,16723
28028,16627
28080,16502
28080,16367
28080,22028
27985,21989
27708,21988
27452,22094
27293,22253
27293,14117
27241,13991
27145,13896
27020,13844
26885,13843
26759,13895
26664,13991
26612,14116
26612,14252
26663,14377
26759,14473
26884,14525
27020,14525
27145,14473
27241,14377
27293,14252
27293,14117
27293,22253
27257,22290
27150,22545
27150,22822
27256,23078
27451,23273
27707,23380
27984,23380
28239,23274
28435,23079
28541,22823
28542,22546
28542,30094
27751,30094
27751,24514
27697,24383
27597,24283
27467,24229
27326,24229
27195,24283
27095,24383
27041,24513
27041,24654
27095,24785
27194,24885
27325,24939
27466,24939
27597,24885
27697,24786
27751,24655
27751,24514
27751,30094
27651,30094
27651,28564
27597,28433
27497,28333
27367,28279
27226,28279
27095,28333
26995,28433
26941,28563
26941,28704
26995,28835
27094,28935
27225,28989
27366,28989
27497,28935
27597,28836
27651,28705
27651,28564
27651,30094
26236,30094
26236,11857
26236,10857
26177,10714
26067,10604
25941,10552
25941,4511
25941,3723
25890,3598
25794,3503
25670,3451
25534,3451
25410,3502
25314,3598
25262,3723
25262,3858
25314,3983
25409,4078
25534,4130
25669,4130
25794,4079
25890,3983
25941,3858
25941,3723
25941,4511
25890,4386
25794,4290
25670,4238
25534,4238
25410,4290
25314,4385
25262,4510
25262,4645
25314,4770
25409,4866
25534,4917
25669,4918
25794,4866
25890,4770
25941,4646
25941,4511
25941,10552
25924,10544
25769,10544
25625,10603
25601,10628
25601,8864
25547,8733
25447,8633
25317,8579
25176,8579
25154,8588
25154,4511
25154,3723
25102,3598
25007,3503
24882,3451
24747,3451
24622,3502
24527,3598
24475,3723
24475,3858
24526,3983
24622,4078
24746,4130
24882,4130
25006,4079
25102,3983
25154,3858
25154,3723
25154,4511
25102,4386
25007,4290
24882,4238
24747,4238
24622,4290
24527,4385
24475,4510
24475,4645
24526,4770
24622,4866
24746,4917
24882,4918
25006,4866
25102,4770
25154,4646
25154,4511
25154,8588
25045,8633
24945,8733
24891,8863
24891,9004
24945,9135
25044,9235
25175,9289
25316,9289
25447,9235
25547,9136
25601,9005
25601,8864
25601,10628
25516,10713
25456,10856
25456,11011
25515,11155
25625,11264
25768,11324
25923,11324
26066,11265
26176,11155
26236,11012
26236,10857
26236,11857
26177,11714
26067,11604
25924,11544
25769,11544
25625,11603
25516,11713
25456,11856
25456,12011
25515,12155
25625,12264
25768,12324
25923,12324
26066,12265
26176,12155
26236,12012
26236,11857
26236,30094
25941,30094
25941,26511
25941,25723
25890,25598
25794,25503
25670,25451
25601,25451
25601,20189
25601,19934
25601,17684
25601,16382
25236,16017
25236,11857
25236,11857
25236,11272
25236,11246
25236,10596
25226,10573
25207,10554
25184,10544
25158,10544
24508,10544
24484,10554
24466,10573
24456,10596
24456,10622
24456,11272
24466,11296
24484,11314
24508,11324
24534,11324
25184,11324
25207,11314
25226,11296
25236,11272
25236,11857
25177,11714
25067,11604
24924,11544
24769,11544
24625,11603
24516,11713
24456,11856
24456,12011
24515,12155
24625,12264
24768,12324
24923,12324
25066,12265
25176,12155
25236,12012
25236,11857
25236,16017
24998,15779
24367,15779
24367,4511
24367,3723
24315,3598
24220,3503
24095,3451
23960,3451
23835,3502
23739,3598
23687,3723
23687,3858
23739,3983
23834,4078
23959,4130
24094,4130
24219,4079
24315,3983
24367,3858
24367,3723
24367,4511
24315,4386
24220,4290
24095,4238
23960,4238
23835,4290
23739,4385
23687,4510
23687,4645
23739,4770
23834,4866
23959,4917
24094,4918
24219,4866
24315,4770
24367,4646
24367,4511
24367,15779
24248,15779
23736,15267
23736,14607
23677,14464
23579,14366
23579,4511
23579,3723
23528,3598
23432,3503
23307,3451
23201,3451
23201,2314
23147,2183
23047,2083
22917,2029
22776,2029
22645,2083
22545,2183
22491,2313
22491,2454
22545,2585
22644,2685
22775,2739
22916,2739
23047,2685
23147,2586
23201,2455
23201,2314
23201,3451
23172,3451
23047,3502
22952,3598
22900,3723
22900,3858
22951,3983
23047,4078
23172,4130
23307,4130
23432,4079
23527,3983
23579,3858
23579,3723
23579,4511
23528,4386
23432,4290
23307,4238
23172,4238
23047,4290
22952,4385
22900,4510
22900,4645
22951,4770
23047,4866
23172,4917
23307,4918
23432,4866
23527,4770
23579,4646
23579,4511
23579,14366
23567,14354
23424,14294
23269,14294
23125,14353
23016,14463
22956,14606
22956,14761
23015,14905
23125,15014
23268,15074
23423,15074
23566,15015
23676,14905
23736,14762
23736,14607
23736,15267
23648,15179
22792,15179
22792,4511
22792,3723
22740,3598
22645,3503
22520,3451
22385,3451
22260,3502
22164,3598
22113,3723
22112,3858
22164,3983
22260,4078
22384,4130
22519,4130
22644,4079
22740,3983
22792,3858
22792,3723
22792,4511
22740,4386
22645,4290
22520,4238
22385,4238
22260,4290
22164,4385
22113,4510
22112,4645
22164,4770
22260,4866
22384,4917
22519,4918
22644,4866
22740,4770
22792,4646
22792,4511
22792,15179
22736,15179
22736,14607
22677,14464
22567,14354
22424,14294
22269,14294
22125,14353
22016,14463
22004,14490
22004,4511
22004,3723
21953,3598
21857,3503
21733,3451
21597,3451
21473,3502
21377,3598
21325,3723
21325,3858
21377,3983
21472,4078
21597,4130
21732,4130
21857,4079
21953,3983
22004,3858
22004,3723
22004,4511
21953,4386
21857,4290
21733,4238
21597,4238
21473,4290
21377,4385
21325,4510
21325,4645
21377,4770
21472,4866
21597,4917
21732,4918
21857,4866
21953,4770
22004,4646
22004,4511
22004,14490
21956,14606
21956,14761
22015,14905
22125,15014
22268,15074
22423,15074
22566,15015
22676,14905
22736,14762
22736,14607
22736,15179
21736,15179
21736,14607
21677,14464
21567,14354
21424,14294
21269,14294
21217,14316
21217,4511
21217,3723
21165,3598
21070,3503
20945,3451
20810,3451
20685,3502
20590,3598
20538,3723
20538,3858
20589,3983
20685,4078
20809,4130
20945,4130
21069,4079
21165,3983
21217,3858
21217,3723
21217,4511
21165,4386
21070,4290
20945,4238
20810,4238
20685,4290
20590,4385
20538,4510
20538,4645
20589,4770
20685,4866
20809,4917
20945,4918
21069,4866
21165,4770
21217,4646
21217,4511
21217,14316
21125,14353
21016,14463
20956,14606
20956,14761
21015,14905
21125,15014
21268,15074
21423,15074
21566,15015
21676,14905
21736,14762
21736,14607
21736,15179
20736,15179
20736,14607
20677,14464
20567,14354
20430,14297
20430,4511
20430,3723
20378,3598
20283,3503
20158,3451
20023,3451
19898,3502
19802,3598
19750,3723
19750,3858
19802,3983
19897,4078
20022,4130
20157,4130
20282,4079
20378,3983
20430,3858
20430,3723
20430,4511
20378,4386
20283,4290
20158,4238
20023,4238
19898,4290
19802,4385
19750,4510
19750,4645
19802,4770
19897,4866
20022,4917
20157,4918
20282,4866
20378,4770
20430,4646
20430,4511
20430,14297
20424,14294
20269,14294
20125,14353
20016,14463
19956,14606
19956,14761
20015,14905
20125,15014
20268,15074
20423,15074
20566,15015
20676,14905
20736,14762
20736,14607
20736,15179
19736,15179
19736,15022
19736,14996
19736,14346
19726,14323
19707,14304
19684,14294
19658,14294
19551,14294
19551,1064
19497,933
19397,833
19267,779
19126,779
18995,833
18895,933
18841,1063
18841,1204
18895,1335
18994,1435
19125,1489
19266,1489
19397,1435
19497,1336
19551,1205
19551,1064
19551,14294
19008,14294
18984,14304
18966,14323
18956,14346
18956,14372
18956,15022
18966,15046
18984,15064
19008,15074
19034,15074
19684,15074
19707,15064
19726,15046
19736,15022
19736,15179
18661,15179
18661,11682
18621,11584
18546,11510
18449,11469
18343,11469
18246,11509
18171,11584
18131,11681
18131,11787
18171,11884
18246,11959
18343,11999
18448,11999
18546,11959
18620,11884
18661,11787
18661,11682
18661,15179
18498,15179
17448,14129
17071,14129
17071,1631
16953,1346
16735,1128
16451,1009
16142,1009
15857,1127
15639,1345
15521,1629
15521,1938
15638,2223
15856,2441
16141,2559
16449,2559
16734,2442
16952,2224
17071,1939
17071,1631
17071,14129
16661,14129
16661,12532
16621,12434
16546,12360
16449,12319
16343,12319
16246,12359
16196,12410
16196,5105
16135,4958
16023,4846
15876,4785
15717,4784
15570,4845
15457,4957
15396,5104
15396,5263
15457,5410
15569,5523
15716,5584
15875,5584
16022,5523
16134,5411
16195,5264
16196,5105
16196,12410
16171,12434
16131,12531
16131,12637
16171,12734
16246,12809
16343,12849
16448,12849
16546,12809
16620,12734
16661,12637
16661,12532
16661,14129
15196,14129
15196,5105
15135,4958
15071,4894
15071,1631
14953,1346
14735,1128
14451,1009
14142,1009
13857,1127
13639,1345
13521,1629
13521,1938
13638,2223
13856,2441
14141,2559
14449,2559
14734,2442
14952,2224
15071,1939
15071,1631
15071,4894
15023,4846
14876,4785
14717,4784
14570,4845
14457,4957
14396,5104
14396,5263
14457,5410
14569,5523
14716,5584
14875,5584
15022,5523
15134,5411
15195,5264
15196,5105
15196,14129
14561,14129
14561,12532
14521,12434
14446,12360
14349,12319
14243,12319
14146,12359
14071,12434
14031,12531
14031,12637
14071,12734
14146,12809
14243,12849
14348,12849
14446,12809
14520,12734
14561,12637
14561,12532
14561,14129
14098,14129
12801,12732
12801,11582
12648,11429
11851,11429
11851,1014
11797,883
11697,783
11567,729
11426,729
11295,783
11195,883
11141,1013
11141,1154
11195,1285
11294,1385
11425,1439
11566,1439
11697,1385
11797,1286
11851,1155
11851,1014
11851,11429
11596,11429
10941,11429
10941,4511
10941,3723
10890,3598
10794,3503
10670,3451
10534,3451
10410,3502
10314,3598
10262,3723
10262,3858
10314,3983
10409,4078
10534,4130
10669,4130
10794,4079
10890,3983
10941,3858
10941,3723
10941,4511
10890,4386
10794,4290
10670,4238
10534,4238
10410,4290
10314,4385
10262,4510
10262,4645
10314,4770
10409,4866
10534,4917
10669,4918
10794,4866
10890,4770
10941,4646
10941,4511
10941,11429
10244,11429
10154,11519
10154,4511
10154,3723
10102,3598
10007,3503
9882,3451
9747,3451
9622,3502
9527,3598
9475,3723
9475,3858
9526,3983
9622,4078
9746,4130
9882,4130
10006,4079
10102,3983
10154,3858
10154,3723
10154,4511
10102,4386
10007,4290
9882,4238
9747,4238
9622,4290
9527,4385
9475,4510
9475,4645
9526,4770
9622,4866
9746,4917
9882,4918
10006,4866
10102,4770
10154,4646
10154,4511
10154,11519
10091,11582
10091,13889
12094,13889
12441,14236
12441,16082
12144,16379
11736,16379
11736,15607
11736,14607
11677,14464
11567,14354
11424,14294
11269,14294
11125,14353
11016,14463
10956,14606
10956,14761
11015,14905
11125,15014
11268,15074
11423,15074
11566,15015
11676,14905
11736,14762
11736,14607
11736,15607
11677,15464
11567,15354
11424,15294
11269,15294
11125,15353
11016,15463
10956,15606
10956,15761
11015,15905
11125,16014
11268,16074
11423,16074
11566,16015
11676,15905
11736,15762
11736,15607
11736,16379
10736,16379
10736,15607
10736,14607
10677,14464
10567,14354
10424,14294
10269,14294
10125,14353
10016,14463
9956,14606
9956,14761
10015,14905
10125,15014
10268,15074
10423,15074
10566,15015
10676,14905
10736,14762
10736,14607
10736,15607
10677,15464
10567,15354
10424,15294
10269,15294
10125,15353
10016,15463
9956,15606
9956,15761
10015,15905
10125,16014
10268,16074
10423,16074
10566,16015
10676,15905
10736,15762
10736,15607
10736,16379
10244,16379
10091,16532
10091,19036
10244,19189
13001,19189
13001,18886
13298,18589
14096,18589
17344,18589
17944,19189
20144,19189
21594,20189
25601,20189
25601,25451
25534,25451
25410,25502
25314,25598
25262,25723
25262,25858
25314,25983
25409,26078
25534,26130
25601,26130
25669,26130
25794,26079
25890,25983
25941,25858
25941,25723
25941,26511
25890,26386
25794,26290
25670,26238
25601,26238
25534,26238
25410,26290
25314,26385
25262,26510
25262,26645
25314,26770
25409,26866
25534,26917
25601,26917
25669,26918
25794,26866
25890,26770
25941,26646
25941,26511
25941,30094
25601,30094
25154,30094
25154,26511
25154,25723
25102,25598
25007,25503
24882,25451
24747,25451
24622,25502
24527,25598
24475,25723
24475,25858
24526,25983
24622,26078
24746,26130
24882,26130
25006,26079
25102,25983
25154,25858
25154,25723
25154,26511
25102,26386
25007,26290
24882,26238
24747,26238
24622,26290
24527,26385
24475,26510
24475,26645
24526,26770
24622,26866
24746,26917
24882,26918
25006,26866
25102,26770
25154,26646
25154,26511
25154,30094
24367,30094
24367,26511
24367,25723
24315,25598
24220,25503
24095,25451
23960,25451
23835,25502
23739,25598
23687,25723
23687,25858
23739,25983
23834,26078
23959,26130
24094,26130
24219,26079
24315,25983
24367,25858
24367,25723
24367,26511
24315,26386
24220,26290
24095,26238
23960,26238
23835,26290
23739,26385
23687,26510
23687,26645
23739,26770
23834,26866
23959,26917
24094,26918
24219,26866
24315,26770
24367,26646
24367,26511
24367,30094
23579,30094
23579,26511
23579,25723
23528,25598
23432,25503
23307,25451
23172,25451
23047,25502
22952,25598
22900,25723
22900,25858
22951,25983
23047,26078
23172,26130
23307,26130
23432,26079
23527,25983
23579,25858
23579,25723
23579,26511
23528,26386
23432,26290
23307,26238
23172,26238
23047,26290
22952,26385
22900,26510
22900,26645
22951,26770
23047,26866
23172,26917
23307,26918
23432,26866
23527,26770
23579,26646
23579,26511
23579,30094
23251,30094
23251,28014
23197,27883
23097,27783
22967,27729
22826,27729
22792,27743
22792,26511
22792,25723
22740,25598
22645,25503
22520,25451
22385,25451
22260,25502
22164,25598
22113,25723
22112,25858
22164,25983
22260,26078
22384,26130
22519,26130
22644,26079
22740,25983
22792,25858
22792,25723
22792,26511
22740,26386
22645,26290
22520,26238
22385,26238
22260,26290
22164,26385
22113,26510
22112,26645
22164,26770
22260,26866
22384,26917
22519,26918
22644,26866
22740,26770
22792,26646
22792,26511
22792,27743
22695,27783
22595,27883
22541,28013
22541,28154
22595,28285
22694,28385
22825,28439
22966,28439
23097,28385
23197,28286
23251,28155
23251,28014
23251,30094
22004,30094
22004,26511
22004,25723
21953,25598
21857,25503
21733,25451
21597,25451
21473,25502
21377,25598
21325,25723
21325,25858
21377,25983
21472,26078
21597,26130
21732,26130
21857,26079
21953,25983
22004,25858
22004,25723
22004,26511
21953,26386
21857,26290
21733,26238
21597,26238
21473,26290
21377,26385
21325,26510
21325,26645
21377,26770
21472,26866
21597,26917
21732,26918
21857,26866
21953,26770
22004,26646
22004,26511
22004,30094
21217,30094
21217,26511
21217,25723
21165,25598
21070,25503
20945,25451
20810,25451
20685,25502
20590,25598
20538,25723
20538,25858
20589,25983
20685,26078
20809,26130
20945,26130
21069,26079
21165,25983
21217,25858
21217,25723
21217,26511
21165,26386
21070,26290
20945,26238
20810,26238
20685,26290
20590,26385
20538,26510
20538,26645
20589,26770
20685,26866
20809,26917
20945,26918
21069,26866
21165,26770
21217,26646
21217,26511
21217,30094
20430,30094
20430,26511
20430,25723
20378,25598
20283,25503
20158,25451
20023,25451
19898,25502
19802,25598
19750,25723
19750,25858
19802,25983
19897,26078
20022,26130
20157,26130
20282,26079
20378,25983
20430,25858
20430,25723
20430,26511
20378,26386
20283,26290
20158,26238
20023,26238
19898,26290
19802,26385
19750,26510
19750,26645
19802,26770
19897,26866
20022,26917
20157,26918
20282,26866
20378,26770
20430,26646
20430,26511
20430,30094
19501,30094
19501,29314
19447,29183
19347,29083
19217,29029
19076,29029
18945,29083
18845,29183
18791,29313
18791,29454
18845,29585
18944,29685
19075,29739
19216,29739
19347,29685
19447,29586
19501,29455
19501,29314
19501,30094
17121,30094
17121,28431
17003,28146
16785,27928
16501,27809
16246,27809
16246,25105
16185,24958
16073,24846
15926,24785
15767,24784
15620,24845
15507,24957
15446,25104
15446,25263
15507,25410
15619,25523
15766,25584
15925,25584
16072,25523
16184,25411
16245,25264
16246,25105
16246,27809
16192,27809
15907,27927
15689,28145
15571,28429
15571,28738
15688,29023
15906,29241
16191,29359
16499,29359
16784,29242
17002,29024
17121,28739
17121,28431
17121,30094
15246,30094
15246,25105
15185,24958
15073,24846
14926,24785
14767,24784
14620,24845
14507,24957
14446,25104
14446,25263
14507,25410
14619,25523
14766,25584
14925,25584
15072,25523
15184,25411
15245,25264
15246,25105
15246,30094
15121,30094
15121,28431
15003,28146
14785,27928
14501,27809
14192,27809
13907,27927
13689,28145
13571,28429
13571,28738
13688,29023
13906,29241
14191,29359
14499,29359
14784,29242
15002,29024
15121,28739
15121,28431
15121,30094
11851,30094
11851,29214
11797,29083
11697,28983
11567,28929
11426,28929
11295,28983
11195,29083
11141,29213
11141,29354
11195,29485
11294,29585
11425,29639
11566,29639
11697,29585
11797,29486
11851,29355
11851,29214
11851,30094
10941,30094
10941,26511
10941,25723
10890,25598
10794,25503
10670,25451
10534,25451
10410,25502
10314,25598
10262,25723
10262,25858
10314,25983
10409,26078
10534,26130
10669,26130
10794,26079
10890,25983
10941,25858
10941,25723
10941,26511
10890,26386
10794,26290
10670,26238
10534,26238
10410,26290
10314,26385
10262,26510
10262,26645
10314,26770
10409,26866
10534,26917
10669,26918
10794,26866
10890,26770
10941,26646
10941,26511
10941,30094
10154,30094
10154,26511
10154,25723
10102,25598
10007,25503
9882,25451
9747,25451
9736,25455
9736,15607
9736,14607
9677,14464
9567,14354
9424,14294
9367,14294
9367,4511
9367,3723
9315,3598
9220,3503
9095,3451
8960,3451
8835,3502
8739,3598
8687,3723
8687,3858
8739,3983
8834,4078
8959,4130
9094,4130
9219,4079
9315,3983
9367,3858
9367,3723
9367,4511
9315,4386
9220,4290
9095,4238
8960,4238
8835,4290
8739,4385
8687,4510
8687,4645
8739,4770
8834,4866
8959,4917
9094,4918
9219,4866
9315,4770
9367,4646
9367,4511
9367,14294
9301,14294
9301,11514
9247,11383
9147,11283
9017,11229
8876,11229
8745,11283
8645,11383
8591,11513
8591,11654
8645,11785
8744,11885
8875,11939
9016,11939
9147,11885
9247,11786
9301,11655
9301,11514
9301,14294
9269,14294
9125,14353
9016,14463
8956,14606
8956,14761
9015,14905
9125,15014
9268,15074
9423,15074
9566,15015
9676,14905
9736,14762
9736,14607
9736,15607
9677,15464
9567,15354
9424,15294
9269,15294
9125,15353
9016,15463
8956,15606
8956,15761
9015,15905
9125,16014
9268,16074
9423,16074
9566,16015
9676,15905
9736,15762
9736,15607
9736,25455
9622,25502
9527,25598
9475,25723
9475,25858
9526,25983
9622,26078
9746,26130
9882,26130
10006,26079
10102,25983
10154,25858
10154,25723
10154,26511
10102,26386
10007,26290
9882,26238
9747,26238
9622,26290
9527,26385
9475,26510
9475,26645
9526,26770
9622,26866
9746,26917
9882,26918
10006,26866
10102,26770
10154,26646
10154,26511
10154,30094
9367,30094
9367,26511
9367,25723
9315,25598
9220,25503
9095,25451
8960,25451
8835,25502
8739,25598
8736,25606
8736,15607
8736,14607
8677,14464
8579,14366
8579,4511
8579,3723
8528,3598
8432,3503
8307,3451
8201,3451
8201,2164
8147,2033
8047,1933
7917,1879
7776,1879
7645,1933
7545,2033
7491,2163
7491,2304
7545,2435
7644,2535
7775,2589
7916,2589
8047,2535
8147,2436
8201,2305
8201,2164
8201,3451
8172,3451
8047,3502
7952,3598
7900,3723
7900,3858
7951,3983
8047,4078
8172,4130
8307,4130
8432,4079
8527,3983
8579,3858
8579,3723
8579,4511
8528,4386
8432,4290
8307,4238
8172,4238
8047,4290
7952,4385
7900,4510
7900,4645
7951,4770
8047,4866
8172,4917
8307,4918
8432,4866
8527,4770
8579,4646
8579,4511
8579,14366
8567,14354
8424,14294
8269,14294
8125,14353
8016,14463
7956,14606
7956,14761
8015,14905
8125,15014
8268,15074
8423,15074
8566,15015
8676,14905
8736,14762
8736,14607
8736,15607
8677,15464
8567,15354
8424,15294
8269,15294
8125,15353
8016,15463
7956,15606
7956,15761
8015,15905
8125,16014
8268,16074
8423,16074
8566,16015
8676,15905
8736,15762
8736,15607
8736,25606
8687,25723
8687,25858
8739,25983
8834,26078
8959,26130
9094,26130
9219,26079
9315,25983
9367,25858
9367,25723
9367,26511
9315,26386
9220,26290
9095,26238
8960,26238
8835,26290
8739,26385
8687,26510
8687,26645
8739,26770
8834,26866
8959,26917
9094,26918
9219,26866
9315,26770
9367,26646
9367,26511
9367,30094
8579,30094
8579,26511
8579,25723
8528,25598
8432,25503
8307,25451
8172,25451
8047,25502
7952,25598
7900,25723
7900,25858
7951,25983
8047,26078
8172,26130
8307,26130
8432,26079
8527,25983
8579,25858
8579,25723
8579,26511
8528,26386
8432,26290
8307,26238
8172,26238
8047,26290
7952,26385
7900,26510
7900,26645
7951,26770
8047,26866
8172,26917
8307,26918
8432,26866
8527,26770
8579,26646
8579,26511
8579,30094
8201,30094
8201,27964
8147,27833
8047,27733
7917,27679
7792,27679
7792,26511
7792,25723
7792,4511
7792,3723
7740,3598
7645,3503
7520,3451
7385,3451
7260,3502
7164,3598
7113,3723
7112,3858
7164,3983
7260,4078
7384,4130
7519,4130
7644,4079
7740,3983
7792,3858
7792,3723
7792,4511
7740,4386
7645,4290
7520,4238
7385,4238
7260,4290
7164,4385
7113,4510
7112,4645
7164,4770
7260,4866
7384,4917
7519,4918
7644,4866
7740,4770
7792,4646
7792,4511
7792,25723
7740,25598
7736,25594
7736,15607
7736,15607
7736,15022
7736,14996
7736,14346
7726,14323
7707,14304
7684,14294
7658,14294
7008,14294
7004,14296
7004,4511
7004,3723
6953,3598
6857,3503
6733,3451
6597,3451
6473,3502
6377,3598
6325,3723
6325,3858
6377,3983
6472,4078
6597,4130
6732,4130
6857,4079
6953,3983
7004,3858
7004,3723
7004,4511
6953,4386
6857,4290
6733,4238
6597,4238
6473,4290
6377,4385
6325,4510
6325,4645
6377,4770
6472,4866
6597,4917
6732,4918
6857,4866
6953,4770
7004,4646
7004,4511
7004,14296
6984,14304
6966,14323
6956,14346
6956,14372
6956,15022
6966,15046
6984,15064
7008,15074
7034,15074
7684,15074
7707,15064
7726,15046
7736,15022
7736,15607
7677,15464
7567,15354
7424,15294
7269,15294
7125,15353
7016,15463
6956,15606
6956,15761
7015,15905
7125,16014
7268,16074
7423,16074
7566,16015
7676,15905
7736,15762
7736,15607
7736,25594
7645,25503
7520,25451
7385,25451
7260,25502
7164,25598
7113,25723
7112,25858
7164,25983
7260,26078
7384,26130
7519,26130
7644,26079
7740,25983
7792,25858
7792,25723
7792,26511
7740,26386
7645,26290
7520,26238
7385,26238
7260,26290
7164,26385
7113,26510
7112,26645
7164,26770
7260,26866
7384,26917
7519,26918
7644,26866
7740,26770
7792,26646
7792,26511
7792,27679
7776,27679
7645,27733
7545,27833
7491,27963
7491,28104
7545,28235
7644,28335
7775,28389
7916,28389
8047,28335
8147,28236
8201,28105
8201,27964
8201,30094
7004,30094
7004,26511
7004,25723
6953,25598
6857,25503
6733,25451
6597,25451
6473,25502
6401,25574
6401,19564
6401,18164
6347,18033
6247,17933
6217,17921
6217,4511
6217,3723
6165,3598
6070,3503
5945,3451
5810,3451
5685,3502
5590,3598
5538,3723
5538,3858
5589,3983
5685,4078
5809,4130
5945,4130
6069,4079
6165,3983
6217,3858
6217,3723
6217,4511
6165,4386
6070,4290
5945,4238
5810,4238
5685,4290
5590,4385
5538,4510
5538,4645
5589,4770
5685,4866
5809,4917
5945,4918
6069,4866
6165,4770
6217,4646
6217,4511
6217,17921
6117,17879
5976,17879
5845,17933
5745,18033
5691,18163
5691,18304
5745,18435
5844,18535
5975,18589
6116,18589
6247,18535
6347,18436
6401,18305
6401,18164
6401,19564
6347,19433
6247,19333
6117,19279
5976,19279
5845,19333
5745,19433
5691,19563
5691,19704
5745,19835
5844,19935
5975,19989
6116,19989
6247,19935
6347,19836
6401,19705
6401,19564
6401,25574
6377,25598
6325,25723
6325,25858
6377,25983
6472,26078
6597,26130
6732,26130
6857,26079
6953,25983
7004,25858
7004,25723
7004,26511
6953,26386
6857,26290
6733,26238
6597,26238
6473,26290
6377,26385
6325,26510
6325,26645
6377,26770
6472,26866
6597,26917
6732,26918
6857,26866
6953,26770
7004,26646
7004,26511
7004,30094
6217,30094
6217,26511
6217,25723
6165,25598
6070,25503
5945,25451
5810,25451
5685,25502
5590,25598
5538,25723
5538,25858
5589,25983
5685,26078
5809,26130
5945,26130
6069,26079
6165,25983
6217,25858
6217,25723
6217,26511
6165,26386
6070,26290
5945,26238
5810,26238
5685,26290
5590,26385
5538,26510
5538,26645
5589,26770
5685,26866
5809,26917
5945,26918
6069,26866
6165,26770
6217,26646
6217,26511
6217,30094
5430,30094
5430,26511
5430,25723
5430,4511
5430,3723
5378,3598
5351,3571
5351,1064
5297,933
5197,833
5067,779
4926,779
4795,833
4695,933
4641,1063
4641,1204
4695,1335
4794,1435
4925,1489
5066,1489
5197,1435
5297,1336
5351,1205
5351,1064
5351,3571
5283,3503
5158,3451
5023,3451
4898,3502
4802,3598
4750,3723
4750,3858
4802,3983
4897,4078
5022,4130
5157,4130
5282,4079
5378,3983
5430,3858
5430,3723
5430,4511
5378,4386
5283,4290
5158,4238
5023,4238
4898,4290
4802,4385
4750,4510
4750,4645
4802,4770
4897,4866
5022,4917
5157,4918
5282,4866
5378,4770
5430,4646
5430,4511
5430,25723
5401,25654
5401,12364
5401,10264
5347,10133
5247,10033
5117,9979
4976,9979
4845,10033
4745,10133
4691,10263
4691,10404
4745,10535
4844,10635
4975,10689
5116,10689
5247,10635
5347,10536
5401,10405
5401,10264
5401,12364
5347,12233
5247,12133
5117,12079
4976,12079
4845,12133
4745,12233
4691,12363
4691,12504
4745,12635
4844,12735
4975,12789
5116,12789
5247,12735
5347,12636
5401,12505
5401,12364
5401,25654
5378,25598
5283,25503
5158,25451
5023,25451
4898,25502
4802,25598
4750,25723
4750,25858
4802,25983
4897,26078
5022,26130
5157,26130
5282,26079
5378,25983
5430,25858
5430,25723
5430,26511
5378,26386
5283,26290
5158,26238
5023,26238
4898,26290
4802,26385
4750,26510
4750,26645
4802,26770
4897,26866
5022,26917
5157,26918
5282,26866
5378,26770
5430,26646
5430,26511
5430,30094
4551,30094
4551,29214
4551,15214
4497,15083
4397,14983
4267,14929
4126,14929
3995,14983
3895,15083
3841,15213
3841,15354
3895,15485
3994,15585
4125,15639
4266,15639
4397,15585
4497,15486
4551,15355
4551,15214
4551,29214
4497,29083
4401,28987
4401,20314
4401,18914
4401,17514
4347,17383
4247,17283
4117,17229
3976,17229
3845,17283
3745,17383
3691,17513
3691,17654
3745,17785
3844,17885
3975,17939
4116,17939
4247,17885
4347,17786
4401,17655
4401,17514
4401,18914
4347,18783
4247,18683
4117,18629
3976,18629
3845,18683
3745,18783
3691,18913
3691,19054
3745,19185
3844,19285
3975,19339
4116,19339
4247,19285
4347,19186
4401,19055
4401,18914
4401,20314
4347,20183
4247,20083
4117,20029
3976,20029
3845,20083
3745,20183
3691,20313
3691,20454
3745,20585
3844,20685
3975,20739
4116,20739
4247,20685
4347,20586
4401,20455
4401,20314
4401,28987
4397,28983
4267,28929
4126,28929
3995,28983
3895,29083
3841,29213
3841,29354
3895,29485
3994,29585
4125,29639
4266,29639
4397,29585
4497,29486
4551,29355
4551,29214
4551,30094
3542,30094
3542,22546
3542,7546
3436,7291
3240,7095
2985,6989
2708,6988
2452,7094
2257,7290
2150,7545
2150,7822
2256,8078
2451,8273
2707,8380
2984,8380
3239,8274
3435,8079
3541,7823
3542,7546
3542,22546
3436,22291
3240,22095
2985,21989
2708,21988
2452,22094
2257,22290
2150,22545
2150,22822
2256,23078
2451,23273
2707,23380
2984,23380
3239,23274
3435,23079
3541,22823
3542,22546
3542,30094
1686,30094
1686,274
29006,274
29006,30094
" /> 
</g>
<g style="fill:#C2C2C2; fill-opacity:0.0; 
stroke:#C2C2C2; stroke-width:10; stroke-opacity:1; 
stroke-linecap:round; stroke-linejoin:round;">
<polyline fill="none;"
points="29006,30094
28542,30094
28542,22546
28542,7546
28436,7291
28240,7095
27985,6989
27708,6988
27452,7094
27257,7290
27150,7545
27150,7822
27256,8078
27451,8273
27707,8380
27984,8380
28239,8274
28435,8079
28541,7823
28542,7546
28542,22546
28436,22291
28240,22095
28080,22028
28080,16367
28080,14117
28028,13991
27933,13896
27808,13844
27672,13843
27547,13895
27451,13991
27401,14112
27401,10014
27347,9883
27247,9783
27117,9729
26976,9729
26845,9783
26801,9827
26801,1064
26747,933
26647,833
26517,779
26376,779
26245,833
26145,933
26091,1063
26091,1204
26145,1335
26244,1435
26375,1489
26516,1489
26647,1435
26747,1336
26801,1205
26801,1064
26801,9827
26745,9883
26691,10013
26691,10154
26745,10285
26844,10385
26975,10439
27116,10439
27247,10385
27347,10286
27401,10155
27401,10014
27401,14112
27399,14116
27399,14252
27451,14377
27546,14473
27672,14525
27807,14525
27932,14473
28028,14377
28080,14252
28080,14117
28080,16367
28028,16241
27933,16146
27808,16094
27672,16093
27547,16145
27451,16241
27399,16366
27399,16502
27451,16627
27546,16723
27672,16775
27807,16775
27932,16723
28028,16627
28080,16502
28080,16367
28080,22028
27985,21989
27708,21988
27452,22094
27293,22253
27293,14117
27241,13991
27145,13896
27020,13844
26885,13843
26759,13895
26664,13991
26612,14116
26612,14252
26663,14377
26759,14473
26884,14525
27020,14525
27145,14473
27241,14377
27293,14252
27293,14117
27293,22253
27257,22290
27150,22545
27150,22822
27256,23078
27451,23273
27707,23380
27984,23380
28239,23274
28435,23079
28541,22823
28542,22546
28542,30094
27751,30094
27751,24514
27697,24383
27597,24283
27467,24229
27326,24229
27195,24283
27095,24383
27041,24513
27041,24654
27095,24785
27194,24885
27325,24939
27466,24939
27597,24885
27697,24786
27751,24655
27751,24514
27751,30094
27651,30094
27651,28564
27597,28433
27497,28333
27367,28279
27226,28279
27095,28333
26995,28433
26941,28563
26941,28704
26995,28835
27094,28935
27225,28989
27366,28989
27497,28935
27597,28836
27651,28705
27651,28564
27651,30094
26236,30094
26236,11857
26236,10857
26177,10714
26067,10604
25941,10552
25941,4511
25941,3723
25890,3598
25794,3503
25670,3451
25534,3451
25410,3502
25314,3598
25262,3723
25262,3858
25314,3983
25409,4078
25534,4130
25669,4130
25794,4079
25890,3983
25941,3858
25941,3723
25941,4511
25890,4386
25794,4290
25670,4238
25534,4238
25410,4290
25314,4385
25262,4510
25262,4645
25314,4770
25409,4866
25534,4917
25669,4918
25794,4866
25890,4770
25941,4646
25941,4511
25941,10552
25924,10544
25769,10544
25625,10603
25601,10628
25601,8864
25547,8733
25447,8633
25317,8579
25176,8579
25154,8588
25154,4511
25154,3723
25102,3598
25007,3503
24882,3451
24747,3451
24622,3502
24527,3598
24475,3723
24475,3858
24526,3983
24622,4078
24746,4130
24882,4130
25006,4079
25102,3983
25154,3858
25154,3723
25154,4511
25102,4386
25007,4290
24882,4238
24747,4238
24622,4290
24527,4385
24475,4510
24475,4645
24526,4770
24622,4866
24746,4917
24882,4918
25006,4866
25102,4770
25154,4646
25154,4511
25154,8588
25045,8633
24945,8733
24891,8863
24891,9004
24945,9135
25044,9235
25175,9289
25316,9289
25447,9235
25547,9136
25601,9005
25601,8864
25601,10628
25516,10713
25456,10856
25456,11011
25515,11155
25625,11264
25768,11324
25923,11324
26066,11265
26176,11155
26236,11012
26236,10857
26236,11857
26177,11714
26067,11604
25924,11544
25769,11544
25625,11603
25516,11713
25456,11856
25456,12011
25515,12155
25625,12264
25768,12324
25923,12324
26066,12265
26176,12155
26236,12012
26236,11857
26236,30094
25941,30094
25941,26511
25941,25723
25890,25598
25794,25503
25670,25451
25601,25451
25601,20189
25601,19934
25601,17684
25601,16382
25236,16017
25236,11857
25236,11857
25236,11272
25236,11246
25236,10596
25226,10573
25207,10554
25184,10544
25158,10544
24508,10544
24484,10554
24466,10573
24456,10596
24456,10622
24456,11272
24466,11296
24484,11314
24508,11324
24534,11324
25184,11324
25207,11314
25226,11296
25236,11272
25236,11857
25177,11714
25067,11604
24924,11544
24769,11544
24625,11603
24516,11713
24456,11856
24456,12011
24515,12155
24625,12264
24768,12324
24923,12324
25066,12265
25176,12155
25236,12012
25236,11857
25236,16017
24998,15779
24367,15779
24367,4511
24367,3723
24315,3598
24220,3503
24095,3451
23960,3451
23835,3502
23739,3598
23687,3723
23687,3858
23739,3983
23834,4078
23959,4130
24094,4130
24219,4079
24315,3983
24367,3858
24367,3723
24367,4511
24315,4386
24220,4290
24095,4238
23960,4238
23835,4290
23739,4385
23687,4510
23687,4645
23739,4770
23834,4866
23959,4917
24094,4918
24219,4866
24315,4770
24367,4646
24367,4511
24367,15779
24248,15779
23736,15267
23736,14607
23677,14464
23579,14366
23579,4511
23579,3723
23528,3598
23432,3503
23307,3451
23201,3451
23201,2314
23147,2183
23047,2083
22917,2029
22776,2029
22645,2083
22545,2183
22491,2313
22491,2454
22545,2585
22644,2685
22775,2739
22916,2739
23047,2685
23147,2586
23201,2455
23201,2314
23201,3451
23172,3451
23047,3502
22952,3598
22900,3723
22900,3858
22951,3983
23047,4078
23172,4130
23307,4130
23432,4079
23527,3983
23579,3858
23579,3723
23579,4511
23528,4386
23432,4290
23307,4238
23172,4238
23047,4290
22952,4385
22900,4510
22900,4645
22951,4770
23047,4866
23172,4917
23307,4918
23432,4866
23527,4770
23579,4646
23579,4511
23579,14366
23567,14354
23424,14294
23269,14294
23125,14353
23016,14463
22956,14606
22956,14761
23015,14905
23125,15014
23268,15074
23423,15074
23566,15015
23676,14905
23736,14762
23736,14607
23736,15267
23648,15179
22792,15179
22792,4511
22792,3723
22740,3598
22645,3503
22520,3451
22385,3451
22260,3502
22164,3598
22113,3723
22112,3858
22164,3983
22260,4078
22384,4130
22519,4130
22644,4079
22740,3983
22792,3858
22792,3723
22792,4511
22740,4386
22645,4290
22520,4238
22385,4238
22260,4290
22164,4385
22113,4510
22112,4645
22164,4770
22260,4866
22384,4917
22519,4918
22644,4866
22740,4770
22792,4646
22792,4511
22792,15179
22736,15179
22736,14607
22677,14464
22567,14354
22424,14294
22269,14294
22125,14353
22016,14463
22004,14490
22004,4511
22004,3723
21953,3598
21857,3503
21733,3451
21597,3451
21473,3502
21377,3598
21325,3723
21325,3858
21377,3983
21472,4078
21597,4130
21732,4130
21857,4079
21953,3983
22004,3858
22004,3723
22004,4511
21953,4386
21857,4290
21733,4238
21597,4238
21473,4290
21377,4385
21325,4510
21325,4645
21377,4770
21472,4866
21597,4917
21732,4918
21857,4866
21953,4770
22004,4646
22004,4511
22004,14490
21956,14606
21956,14761
22015,14905
22125,15014
22268,15074
22423,15074
22566,15015
22676,14905
22736,14762
22736,14607
22736,15179
21736,15179
21736,14607
21677,14464
21567,14354
21424,14294
21269,14294
21217,14316
21217,4511
21217,3723
21165,3598
21070,3503
20945,3451
20810,3451
20685,3502
20590,3598
20538,3723
20538,3858
20589,3983
20685,4078
20809,4130
20945,4130
21069,4079
21165,3983
21217,3858
21217,3723
21217,4511
21165,4386
21070,4290
20945,4238
20810,4238
20685,4290
20590,4385
20538,4510
20538,4645
20589,4770
20685,4866
20809,4917
20945,4918
21069,4866
21165,4770
21217,4646
21217,4511
21217,14316
21125,14353
21016,14463
20956,14606
20956,14761
21015,14905
21125,15014
21268,15074
21423,15074
21566,15015
21676,14905
21736,14762
21736,14607
21736,15179
20736,15179
20736,14607
20677,14464
20567,14354
20430,14297
20430,4511
20430,3723
20378,3598
20283,3503
20158,3451
20023,3451
19898,3502
19802,3598
19750,3723
19750,3858
19802,3983
19897,4078
20022,4130
20157,4130
20282,4079
20378,3983
20430,3858
20430,3723
20430,4511
20378,4386
20283,4290
20158,4238
20023,4238
19898,4290
19802,4385
19750,4510
19750,4645
19802,4770
19897,4866
20022,4917
20157,4918
20282,4866
20378,4770
20430,4646
20430,4511
20430,14297
20424,14294
20269,14294
20125,14353
20016,14463
19956,14606
19956,14761
20015,14905
20125,15014
20268,15074
20423,15074
20566,15015
20676,14905
20736,14762
20736,14607
20736,15179
19736,15179
19736,15022
19736,14996
19736,14346
19726,14323
19707,14304
19684,14294
19658,14294
19551,14294
19551,1064
19497,933
19397,833
19267,779
19126,779
18995,833
18895,933
18841,1063
18841,1204
18895,1335
18994,1435
19125,1489
19266,1489
19397,1435
19497,1336
19551,1205
19551,1064
19551,14294
19008,14294
18984,14304
18966,14323
18956,14346
18956,14372
18956,15022
18966,15046
18984,15064
19008,15074
19034,15074
19684,15074
19707,15064
19726,15046
19736,15022
19736,15179
18661,15179
18661,11682
18621,11584
18546,11510
18449,11469
18343,11469
18246,11509
18171,11584
18131,11681
18131,11787
18171,11884
18246,11959
18343,11999
18448,11999
18546,11959
18620,11884
18661,11787
18661,11682
18661,15179
18498,15179
17448,14129
17071,14129
17071,1631
16953,1346
16735,1128
16451,1009
16142,1009
15857,1127
15639,1345
15521,1629
15521,1938
15638,2223
15856,2441
16141,2559
16449,2559
16734,2442
16952,2224
17071,1939
17071,1631
17071,14129
16661,14129
16661,12532
16621,12434
16546,12360
16449,12319
16343,12319
16246,12359
16196,12410
16196,5105
16135,4958
16023,4846
15876,4785
15717,4784
15570,4845
15457,4957
15396,5104
15396,5263
15457,5410
15569,5523
15716,5584
15875,5584
16022,5523
16134,5411
16195,5264
16196,5105
16196,12410
16171,12434
16131,12531
16131,12637
16171,12734
16246,12809
16343,12849
16448,12849
16546,12809
16620,12734
16661,12637
16661,12532
16661,14129
15196,14129
15196,5105
15135,4958
15071,4894
15071,1631
14953,1346
14735,1128
14451,1009
14142,1009
13857,1127
13639,1345
13521,1629
13521,1938
13638,2223
13856,2441
14141,2559
14449,2559
14734,2442
14952,2224
15071,1939
15071,1631
15071,4894
15023,4846
14876,4785
14717,4784
14570,4845
14457,4957
14396,5104
14396,5263
14457,5410
14569,5523
14716,5584
14875,5584
15022,5523
15134,5411
15195,5264
15196,5105
15196,14129
14561,14129
14561,12532
14521,12434
14446,12360
14349,12319
14243,12319
14146,12359
14071,12434
14031,12531
14031,12637
14071,12734
14146,12809
14243,12849
14348,12849
14446,12809
14520,12734
14561,12637
14561,12532
14561,14129
14098,14129
12801,12732
12801,11582
12648,11429
11851,11429
11851,1014
11797,883
11697,783
11567,729
11426,729
11295,783
11195,883
11141,1013
11141,1154
11195,1285
11294,1385
11425,1439
11566,1439
11697,1385
11797,1286
11851,1155
11851,1014
11851,11429
11596,11429
10941,11429
10941,4511
10941,3723
10890,3598
10794,3503
10670,3451
10534,3451
10410,3502
10314,3598
10262,3723
10262,3858
10314,3983
10409,4078
10534,4130
10669,4130
10794,4079
10890,3983
10941,3858
10941,3723
10941,4511
10890,4386
10794,4290
10670,4238
10534,4238
10410,4290
10314,4385
10262,4510
10262,4645
10314,4770
10409,4866
10534,4917
10669,4918
10794,4866
10890,4770
10941,4646
10941,4511
10941,11429
10244,11429
10154,11519
10154,4511
10154,3723
10102,3598
10007,3503
9882,3451
9747,3451
9622,3502
9527,3598
9475,3723
9475,3858
9526,3983
9622,4078
9746,4130
9882,4130
10006,4079
10102,3983
10154,3858
10154,3723
10154,4511
10102,4386
10007,4290
9882,4238
9747,4238
9622,4290
9527,4385
9475,4510
9475,4645
9526,4770
9622,4866
9746,4917
9882,4918
10006,4866
10102,4770
10154,4646
10154,4511
10154,11519
10091,11582
10091,13889
12094,13889
12441,14236
12441,16082
12144,16379
11736,16379
11736,15607
11736,14607
11677,14464
11567,14354
11424,14294
11269,14294
11125,14353
11016,14463
10956,14606
10956,14761
11015,14905
11125,15014
11268,15074
11423,15074
11566,15015
11676,14905
11736,14762
11736,14607
11736,15607
11677,15464
11567,15354
11424,15294
11269,15294
11125,15353
11016,15463
10956,15606
10956,15761
11015,15905
11125,16014
11268,16074
11423,16074
11566,16015
11676,15905
11736,15762
11736,15607
11736,16379
10736,16379
10736,15607
10736,14607
10677,14464
10567,14354
10424,14294
10269,14294
10125,14353
10016,14463
9956,14606
9956,14761
10015,14905
10125,15014
10268,15074
10423,15074
10566,15015
10676,14905
10736,14762
10736,14607
10736,15607
10677,15464
10567,15354
10424,15294
10269,15294
10125,15353
10016,15463
9956,15606
9956,15761
10015,15905
10125,16014
10268,16074
10423,16074
10566,16015
10676,15905
10736,15762
10736,15607
10736,16379
10244,16379
10091,16532
10091,19036
10244,19189
13001,19189
13001,18886
13298,18589
14096,18589
17344,18589
17944,19189
20144,19189
21594,20189
25601,20189
25601,25451
25534,25451
25410,25502
25314,25598
25262,25723
25262,25858
25314,25983
25409,26078
25534,26130
25601,26130
25669,26130
25794,26079
25890,25983
25941,25858
25941,25723
25941,26511
25890,26386
25794,26290
25670,26238
25601,26238
25534,26238
25410,26290
25314,26385
25262,26510
25262,26645
25314,26770
25409,26866
25534,26917
25601,26917
25669,26918
25794,26866
25890,26770
25941,26646
25941,26511
25941,30094
25601,30094
25154,30094
25154,26511
25154,25723
25102,25598
25007,25503
24882,25451
24747,25451
24622,25502
24527,25598
24475,25723
24475,25858
24526,25983
24622,26078
24746,26130
24882,26130
25006,26079
25102,25983
25154,25858
25154,25723
25154,26511
25102,26386
25007,26290
24882,26238
24747,26238
24622,26290
24527,26385
24475,26510
24475,26645
24526,26770
24622,26866
24746,26917
24882,26918
25006,26866
25102,26770
25154,26646
25154,26511
25154,30094
24367,30094
24367,26511
24367,25723
24315,25598
24220,25503
24095,25451
23960,25451
23835,25502
23739,25598
23687,25723
23687,25858
23739,25983
23834,26078
23959,26130
24094,26130
24219,26079
24315,25983
24367,25858
24367,25723
24367,26511
24315,26386
24220,26290
24095,26238
23960,26238
23835,26290
23739,26385
23687,26510
23687,26645
23739,26770
23834,26866
23959,26917
24094,26918
24219,26866
24315,26770
24367,26646
24367,26511
24367,30094
23579,30094
23579,26511
23579,25723
23528,25598
23432,25503
23307,25451
23172,25451
23047,25502
22952,25598
22900,25723
22900,25858
22951,25983
23047,26078
23172,26130
23307,26130
23432,26079
23527,25983
23579,25858
23579,25723
23579,26511
23528,26386
23432,26290
23307,26238
23172,26238
23047,26290
22952,26385
22900,26510
22900,26645
22951,26770
23047,26866
23172,26917
23307,26918
23432,26866
23527,26770
23579,26646
23579,26511
23579,30094
23251,30094
23251,28014
23197,27883
23097,27783
22967,27729
22826,27729
22792,27743
22792,26511
22792,25723
22740,25598
22645,25503
22520,25451
22385,25451
22260,25502
22164,25598
22113,25723
22112,25858
22164,25983
22260,26078
22384,26130
22519,26130
22644,26079
22740,25983
22792,25858
22792,25723
22792,26511
22740,26386
22645,26290
22520,26238
22385,26238
22260,26290
22164,26385
22113,26510
22112,26645
22164,26770
22260,26866
22384,26917
22519,26918
22644,26866
22740,26770
22792,26646
22792,26511
22792,27743
22695,27783
22595,27883
22541,28013
22541,28154
22595,28285
22694,28385
22825,28439
22966,28439
23097,28385
23197,28286
23251,28155
23251,28014
23251,30094
22004,30094
22004,26511
22004,25723
21953,25598
21857,25503
21733,25451
21597,25451
21473,25502
21377,25598
21325,25723
21325,25858
21377,25983
21472,26078
21597,26130
21732,26130
21857,26079
21953,25983
22004,25858
22004,25723
22004,26511
21953,26386
21857,26290
21733,26238
21597,26238
21473,26290
21377,26385
21325,26510
21325,26645
21377,26770
21472,26866
21597,26917
21732,26918
21857,26866
21953,26770
22004,26646
22004,26511
22004,30094
21217,30094
21217,26511
21217,25723
21165,25598
21070,25503
20945,25451
20810,25451
20685,25502
20590,25598
20538,25723
20538,25858
20589,25983
20685,26078
20809,26130
20945,26130
21069,26079
21165,25983
21217,25858
21217,25723
21217,26511
21165,26386
21070,26290
20945,26238
20810,26238
20685,26290
20590,26385
20538,26510
20538,26645
20589,26770
20685,26866
20809,26917
20945,26918
21069,26866
21165,26770
21217,26646
21217,26511
21217,30094
20430,30094
20430,26511
20430,25723
20378,25598
20283,25503
20158,25451
20023,25451
19898,25502
19802,25598
19750,25723
19750,25858
19802,25983
19897,26078
20022,26130
20157,26130
20282,26079
20378,25983
20430,25858
20430,25723
20430,26511
20378,26386
20283,26290
20158,26238
20023,26238
19898,26290
19802,26385
19750,26510
19750,26645
19802,26770
19897,26866
20022,26917
20157,26918
20282,26866
20378,26770
20430,26646
20430,26511
20430,30094
19501,30094
19501,29314
19447,29183
19347,29083
19217,29029
19076,29029
18945,29083
18845,29183
18791,29313
18791,29454
18845,29585
18944,29685
19075,29739
19216,29739
19347,29685
19447,29586
19501,29455
19501,29314
19501,30094
17121,30094
17121,28431
17003,28146
16785,27928
16501,27809
16246,27809
16246,25105
16185,24958
16073,24846
15926,24785
15767,24784
15620,24845
15507,24957
15446,25104
15446,25263
15507,25410
15619,25523
15766,25584
15925,25584
16072,25523
16184,25411
16245,25264
16246,25105
16246,27809
16192,27809
15907,27927
15689,28145
15571,28429
15571,28738
15688,29023
15906,29241
16191,29359
16499,29359
16784,29242
17002,29024
17121,28739
17121,28431
17121,30094
15246,30094
15246,25105
15185,24958
15073,24846
14926,24785
14767,24784
14620,24845
14507,24957
14446,25104
14446,25263
14507,25410
14619,25523
14766,25584
14925,25584
15072,25523
15184,25411
15245,25264
15246,25105
15246,30094
15121,30094
15121,28431
15003,28146
14785,27928
14501,27809
14192,27809
13907,27927
13689,28145
13571,28429
13571,28738
13688,29023
13906,29241
14191,29359
14499,29359
14784,29242
15002,29024
15121,28739
15121,28431
15121,30094
11851,30094
11851,29214
11797,29083
11697,28983
11567,28929
11426,28929
11295,28983
11195,29083
11141,29213
11141,29354
11195,29485
11294,29585
11425,29639
11566,29639
11697,29585
11797,29486
11851,29355
11851,29214
11851,30094
10941,30094
10941,26511
10941,25723
10890,25598
10794,25503
10670,25451
10534,25451
10410,25502
10314,25598
10262,25723
10262,25858
10314,25983
10409,26078
10534,26130
10669,26130
10794,26079
10890,25983
10941,25858
10941,25723
10941,26511
10890,26386
10794,26290
10670,26238
10534,26238
10410,26290
10314,26385
10262,26510
10262,26645
10314,26770
10409,26866
10534,26917
10669,26918
10794,26866
10890,26770
10941,26646
10941,26511
10941,30094
10154,30094
10154,26511
10154,25723
10102,25598
10007,25503
9882,25451
9747,25451
9736,25455
9736,15607
9736,14607
9677,14464
9567,14354
9424,14294
9367,14294
9367,4511
9367,3723
9315,3598
9220,3503
9095,3451
8960,3451
8835,3502
8739,3598
8687,3723
8687,3858
8739,3983
8834,4078
8959,4130
9094,4130
9219,4079
9315,3983
9367,3858
9367,3723
9367,4511
9315,4386
9220,4290
9095,4238
8960,4238
8835,4290
8739,4385
8687,4510
8687,4645
8739,4770
8834,4866
8959,4917
9094,4918
9219,4866
9315,4770
9367,4646
9367,4511
9367,14294
9301,14294
9301,11514
9247,11383
9147,11283
9017,11229
8876,11229
8745,11283
8645,11383
8591,11513
8591,11654
8645,11785
8744,11885
8875,11939
9016,11939
9147,11885
9247,11786
9301,11655
9301,11514
9301,14294
9269,14294
9125,14353
9016,14463
8956,14606
8956,14761
9015,14905
9125,15014
9268,15074
9423,15074
9566,15015
9676,14905
9736,14762
9736,14607
9736,15607
9677,15464
9567,15354
9424,15294
9269,15294
9125,15353
9016,15463
8956,15606
8956,15761
9015,15905
9125,16014
9268,16074
9423,16074
9566,16015
9676,15905
9736,15762
9736,15607
9736,25455
9622,25502
9527,25598
9475,25723
9475,25858
9526,25983
9622,26078
9746,26130
9882,26130
10006,26079
10102,25983
10154,25858
10154,25723
10154,26511
10102,26386
10007,26290
9882,26238
9747,26238
9622,26290
9527,26385
9475,26510
9475,26645
9526,26770
9622,26866
9746,26917
9882,26918
10006,26866
10102,26770
10154,26646
10154,26511
10154,30094
9367,30094
9367,26511
9367,25723
9315,25598
9220,25503
9095,25451
8960,25451
8835,25502
8739,25598
8736,25606
8736,15607
8736,14607
8677,14464
8579,14366
8579,4511
8579,3723
8528,3598
8432,3503
8307,3451
8201,3451
8201,2164
8147,2033
8047,1933
7917,1879
7776,1879
7645,1933
7545,2033
7491,2163
7491,2304
7545,2435
7644,2535
7775,2589
7916,2589
8047,2535
8147,2436
8201,2305
8201,2164
8201,3451
8172,3451
8047,3502
7952,3598
7900,3723
7900,3858
7951,3983
8047,4078
8172,4130
8307,4130
8432,4079
8527,3983
8579,3858
8579,3723
8579,4511
8528,4386
8432,4290
8307,4238
8172,4238
8047,4290
7952,4385
7900,4510
7900,4645
7951,4770
8047,4866
8172,4917
8307,4918
8432,4866
8527,4770
8579,4646
8579,4511
8579,14366
8567,14354
8424,14294
8269,14294
8125,14353
8016,14463
7956,14606
7956,14761
8015,14905
8125,15014
8268,15074
8423,15074
8566,15015
8676,14905
8736,14762
8736,14607
8736,15607
8677,15464
8567,15354
8424,15294
8269,15294
8125,15353
8016,15463
7956,15606
7956,15761
8015,15905
8125,16014
8268,16074
8423,16074
8566,16015
8676,15905
8736,15762
8736,15607
8736,25606
8687,25723
8687,25858
8739,25983
8834,26078
8959,26130
9094,26130
9219,26079
9315,25983
9367,25858
9367,25723
9367,26511
9315,26386
9220,26290
9095,26238
8960,26238
8835,26290
8739,26385
8687,26510
8687,26645
8739,26770
8834,26866
8959,26917
9094,26918
9219,26866
9315,26770
9367,26646
9367,26511
9367,30094
8579,30094
8579,26511
8579,25723
8528,25598
8432,25503
8307,25451
8172,25451
8047,25502
7952,25598
7900,25723
7900,25858
7951,25983
8047,26078
8172,26130
8307,26130
8432,26079
8527,25983
8579,25858
8579,25723
8579,26511
8528,26386
8432,26290
8307,26238
8172,26238
8047,26290
7952,26385
7900,26510
7900,26645
7951,26770
8047,26866
8172,26917
8307,26918
8432,26866
8527,26770
8579,26646
8579,26511
8579,30094
8201,30094
8201,27964
8147,27833
8047,27733
7917,27679
7792,27679
7792,26511
7792,25723
7792,4511
7792,3723
7740,3598
7645,3503
7520,3451
7385,3451
7260,3502
7164,3598
7113,3723
7112,3858
7164,3983
7260,4078
7384,4130
7519,4130
7644,4079
7740,3983
7792,3858
7792,3723
7792,4511
7740,4386
7645,4290
7520,4238
7385,4238
7260,4290
7164,4385
7113,4510
7112,4645
7164,4770
7260,4866
7384,4917
7519,4918
7644,4866
7740,4770
7792,4646
7792,4511
7792,25723
7740,25598
7736,25594
7736,15607
7736,15607
7736,15022
7736,14996
7736,14346
7726,14323
7707,14304
7684,14294
7658,14294
7008,14294
7004,14296
7004,4511
7004,3723
6953,3598
6857,3503
6733,3451
6597,3451
6473,3502
6377,3598
6325,3723
6325,3858
6377,3983
6472,4078
6597,4130
6732,4130
6857,4079
6953,3983
7004,3858
7004,3723
7004,4511
6953,4386
6857,4290
6733,4238
6597,4238
6473,4290
6377,4385
6325,4510
6325,4645
6377,4770
6472,4866
6597,4917
6732,4918
6857,4866
6953,4770
7004,4646
7004,4511
7004,14296
6984,14304
6966,14323
6956,14346
6956,14372
6956,15022
6966,15046
6984,15064
7008,15074
7034,15074
7684,15074
7707,15064
7726,15046
7736,15022
7736,15607
7677,15464
7567,15354
7424,15294
7269,15294
7125,15353
7016,15463
6956,15606
6956,15761
7015,15905
7125,16014
7268,16074
7423,16074
7566,16015
7676,15905
7736,15762
7736,15607
7736,25594
7645,25503
7520,25451
7385,25451
7260,25502
7164,25598
7113,25723
7112,25858
7164,25983
7260,26078
7384,26130
7519,26130
7644,26079
7740,25983
7792,25858
7792,25723
7792,26511
7740,26386
7645,26290
7520,26238
7385,26238
7260,26290
7164,26385
7113,26510
7112,26645
7164,26770
7260,26866
7384,26917
7519,26918
7644,26866
7740,26770
7792,26646
7792,26511
7792,27679
7776,27679
7645,27733
7545,27833
7491,27963
7491,28104
7545,28235
7644,28335
7775,28389
7916,28389
8047,28335
8147,28236
8201,28105
8201,27964
8201,30094
7004,30094
7004,26511
7004,25723
6953,25598
6857,25503
6733,25451
6597,25451
6473,25502
6401,25574
6401,19564
6401,18164
6347,18033
6247,17933
6217,17921
6217,4511
6217,3723
6165,3598
6070,3503
5945,3451
5810,3451
5685,3502
5590,3598
5538,3723
5538,3858
5589,3983
5685,4078
5809,4130
5945,4130
6069,4079
6165,3983
6217,3858
6217,3723
6217,4511
6165,4386
6070,4290
5945,4238
5810,4238
5685,4290
5590,4385
5538,4510
5538,4645
5589,4770
5685,4866
5809,4917
5945,4918
6069,4866
6165,4770
6217,4646
6217,4511
6217,17921
6117,17879
5976,17879
5845,17933
5745,18033
5691,18163
5691,18304
5745,18435
5844,18535
5975,18589
6116,18589
6247,18535
6347,18436
6401,18305
6401,18164
6401,19564
6347,19433
6247,19333
6117,19279
5976,19279
5845,19333
5745,19433
5691,19563
5691,19704
5745,19835
5844,19935
5975,19989
6116,19989
6247,19935
6347,19836
6401,19705
6401,19564
6401,25574
6377,25598
6325,25723
6325,25858
6377,25983
6472,26078
6597,26130
6732,26130
6857,26079
6953,25983
7004,25858
7004,25723
7004,26511
6953,26386
6857,26290
6733,26238
6597,26238
6473,26290
6377,26385
6325,26510
6325,26645
6377,26770
6472,26866
6597,26917
6732,26918
6857,26866
6953,26770
7004,26646
7004,26511
7004,30094
6217,30094
6217,26511
6217,25723
6165,25598
6070,25503
5945,25451
5810,25451
5685,25502
5590,25598
5538,25723
5538,25858
5589,25983
5685,26078
5809,26130
5945,26130
6069,26079
6165,25983
6217,25858
6217,25723
6217,26511
6165,26386
6070,26290
5945,26238
5810,26238
5685,26290
5590,26385
5538,26510
5538,26645
5589,26770
5685,26866
5809,26917
5945,26918
6069,26866
6165,26770
6217,26646
6217,26511
6217,30094
5430,30094
5430,26511
5430,25723
5430,4511
5430,3723
5378,3598
5351,3571
5351,1064
5297,933
5197,833
5067,779
4926,779
4795,833
4695,933
4641,1063
4641,1204
4695,1335
4794,1435
4925,1489
5066,1489
5197,1435
5297,1336
5351,1205
5351,1064
5351,3571
5283,3503
5158,3451
5023,3451
4898,3502
4802,3598
4750,3723
4750,3858
4802,3983
4897,4078
5022,4130
5157,4130
5282,4079
5378,3983
5430,3858
5430,3723
5430,4511
5378,4386
5283,4290
5158,4238
5023,4238
4898,4290
4802,4385
4750,4510
4750,4645
4802,4770
4897,4866
5022,4917
5157,4918
5282,4866
5378,4770
5430,4646
5430,4511
5430,25723
5401,25654
5401,12364
5401,10264
5347,10133
5247,10033
5117,9979
4976,9979
4845,10033
4745,10133
4691,10263
4691,10404
4745,10535
4844,10635
4975,10689
5116,10689
5247,10635
5347,10536
5401,10405
5401,10264
5401,12364
5347,12233
5247,12133
5117,12079
4976,12079
4845,12133
4745,12233
4691,12363
4691,12504
4745,12635
4844,12735
4975,12789
5116,12789
5247,12735
5347,12636
5401,12505
5401,12364
5401,25654
5378,25598
5283,25503
5158,25451
5023,25451
4898,25502
4802,25598
4750,25723
4750,25858
4802,25983
4897,26078
5022,26130
5157,26130
5282,26079
5378,25983
5430,25858
5430,25723
5430,26511
5378,26386
5283,26290
5158,26238
5023,26238
4898,26290
4802,26385
4750,26510
4750,26645
4802,26770
4897,26866
5022,26917
5157,26918
5282,26866
5378,26770
5430,26646
5430,26511
5430,30094
4551,30094
4551,29214
4551,15214
4497,15083
4397,14983
4267,14929
4126,14929
3995,14983
3895,15083
3841,15213
3841,15354
3895,15485
3994,15585
4125,15639
4266,15639
4397,15585
4497,15486
4551,15355
4551,15214
4551,29214
4497,29083
4401,28987
4401,20314
4401,18914
4401,17514
4347,17383
4247,17283
4117,17229
3976,17229
3845,17283
3745,17383
3691,17513
3691,17654
3745,17785
3844,17885
3975,17939
4116,17939
4247,17885
4347,17786
4401,17655
4401,17514
4401,18914
4347,18783
4247,18683
4117,18629
3976,18629
3845,18683
3745,18783
3691,18913
3691,19054
3745,19185
3844,19285
3975,19339
4116,19339
4247,19285
4347,19186
4401,19055
4401,18914
4401,20314
4347,20183
4247,20083
4117,20029
3976,20029
3845,20083
3745,20183
3691,20313
3691,20454
3745,20585
3844,20685
3975,20739
4116,20739
4247,20685
4347,20586
4401,20455
4401,20314
4401,28987
4397,28983
4267,28929
4126,28929
3995,28983
3895,29083
3841,29213
3841,29354
3895,29485
3994,29585
4125,29639
4266,29639
4397,29585
4497,29486
4551,29355
4551,29214
4551,30094
3542,30094
3542,22546
3542,7546
3436,7291
3240,7095
2985,6989
2708,6988
2452,7094
2257,7290
2150,7545
2150,7822
2256,8078
2451,8273
2707,8380
2984,8380
3239,8274
3435,8079
3541,7823
3542,7546
3542,22546
3436,22291
3240,22095
2985,21989
2708,21988
2452,22094
2257,22290
2150,22545
2150,22822
2256,23078
2451,23273
2707,23380
2984,23380
3239,23274
3435,23079
3541,22823
3542,22546
3542,30094
1686,30094
1686,274
29006,274
29006,30094
" /> 
</g>
<g style="fill:#C2C2C2; fill-opacity:1.0; 
stroke:#C2C2C2; stroke-width:39.3701; stroke-opacity:1; 
stroke-linecap:round; stroke-linejoin:round;">
<polyline style="fill-rule:evenodd;"
points="25041,19782
24894,19929
21848,19929
20598,18679
19648,18679
18448,17479
13894,17479
13594,17779
12494,17779
11344,18929
10851,18929
10851,17086
11298,16639
12498,16639
12851,16286
12851,14282
12248,13679
10401,13679
10401,11689
11941,11689
11941,12686
13691,14436
13741,16036
14144,16439
23746,16439
24244,16439
25041,17236
25041,17684
25041,19782
" /> 
</g>
<g style="fill:#C2C2C2; fill-opacity:0.0; 
stroke:#C2C2C2; stroke-width:10; stroke-opacity:1; 
stroke-linecap:round; stroke-linejoin:round;">
<polyline fill="none;"
points="25041,19782
24894,19929
21848,19929
20598,18679
19648,18679
18448,17479
13894,17479
13594,17779
12494,17779
11344,18929
10851,18929
10851,17086
11298,16639
12498,16639
12851,16286
12851,14282
12248,13679
10401,13679
10401,11689
11941,11689
11941,12686
13691,14436
13741,16036
14144,16439
23746,16439
24244,16439
25041,17236
25041,17684
25041,19782
" /> 
</g>
<g style="fill:#FFFFFF; fill-opacity:0.0; 
stroke:#FFFFFF; stroke-width:39.3701; stroke-opacity:1; 
stroke-linecap:round; stroke-linejoin:round;">
</g>
<g style="fill:#FFFFFF; fill-opacity:1.0; 
stroke:#FFFFFF; stroke-width:39.3701; stroke-opacity:1; 
stroke-linecap:round; stroke-linejoin:round;">
<circle cx="4196.35" cy="29284.6" r="140.315" /> 
<circle cx="7846.35" cy="28034.6" r="140.315" /> 
<circle cx="11496.4" cy="29284.6" r="140.315" /> 
<circle cx="19146.4" cy="29384.6" r="140.315" /> 
<circle cx="22896.4" cy="28084.6" r="140.315" /> 
<circle cx="27296.4" cy="28634.6" r="140.315" /> 
<circle cx="27396.4" cy="24584.6" r="140.315" /> 
<circle cx="27046.4" cy="10084.6" r="140.315" /> 
<circle cx="25246.4" cy="8934.65" r="140.315" /> 
<circle cx="26446.4" cy="1134.65" r="140.315" /> 
<circle cx="22846.4" cy="2384.65" r="140.315" /> 
<circle cx="19196.4" cy="1134.65" r="140.315" /> 
<circle cx="11496.4" cy="1084.65" r="140.315" /> 
<circle cx="7846.35" cy="2234.65" r="140.315" /> 
<circle cx="4996.35" cy="1134.65" r="140.315" /> 
<circle cx="4196.35" cy="15284.6" r="140.315" /> 
<circle cx="8946.35" cy="11584.6" r="140.315" /> 
<circle cx="5046.35" cy="12434.6" r="140.315" /> 
<circle cx="4046.35" cy="17584.6" r="140.315" /> 
<circle cx="6046.35" cy="18234.6" r="140.315" /> 
<circle cx="6046.35" cy="19634.6" r="140.315" /> 
<circle cx="4046.35" cy="18984.6" r="140.315" /> 
<circle cx="5046.35" cy="10334.6" r="140.315" /> 
<circle cx="4046.35" cy="20384.6" r="140.315" /> 
<circle cx="14296.4" cy="17784.6" r="80.315" /> 
<circle cx="12296.4" cy="18634.6" r="80.315" /> 
<circle cx="12296.4" cy="11734.6" r="80.315" /> 
<circle cx="14296.4" cy="12584.6" r="80.315" /> 
<circle cx="16396.4" cy="12584.6" r="80.315" /> 
<circle cx="18396.4" cy="11734.6" r="80.315" /> 
<circle cx="18396.4" cy="18634.6" r="80.315" /> 
<circle cx="16396.4" cy="17784.6" r="80.315" /> 
<circle cx="27846.4" cy="18434.6" r="140.315" /> 
<circle cx="27846.4" cy="19434.6" r="140.315" /> 
<circle cx="13496.4" cy="18834.6" r="80.315" /> 
<circle cx="13496.4" cy="11534.6" r="80.315" /> 
<circle cx="17196.4" cy="11534.6" r="80.315" /> 
<circle cx="17196.4" cy="18834.6" r="80.315" /> 
<circle cx="26846.4" cy="18934.6" r="140.315" /> 
<circle cx="11096.4" cy="17884.6" r="140.315" /> 
<circle cx="11096.4" cy="12184.6" r="140.315" /> 
<circle cx="23346.4" cy="18934.6" r="140.315" /> 
<circle cx="22346.4" cy="18434.6" r="140.315" /> 
<circle cx="22346.4" cy="19434.6" r="140.315" /> 
<circle cx="2846.35" cy="7684.65" r="570.866" /> 
<circle cx="2846.35" cy="22684.6" r="570.866" /> 
<circle cx="27846.4" cy="7684.65" r="570.866" /> 
<circle cx="27846.4" cy="22684.6" r="570.866" /> 
<circle cx="7346.35" cy="14684.6" r="177.165" /> 
<circle cx="7346.35" cy="15684.6" r="177.165" /> 
<circle cx="8346.35" cy="14684.6" r="177.165" /> 
<circle cx="8346.35" cy="15684.6" r="177.165" /> 
<circle cx="9346.35" cy="14684.6" r="177.165" /> 
<circle cx="9346.35" cy="15684.6" r="177.165" /> 
<circle cx="10346.4" cy="14684.6" r="177.165" /> 
<circle cx="10346.4" cy="15684.6" r="177.165" /> 
<circle cx="11346.4" cy="14684.6" r="177.165" /> 
<circle cx="11346.4" cy="15684.6" r="177.165" /> 
<circle cx="19346.4" cy="14684.6" r="177.165" /> 
<circle cx="19346.4" cy="15684.6" r="177.165" /> 
<circle cx="20346.4" cy="14684.6" r="177.165" /> 
<circle cx="20346.4" cy="15684.6" r="177.165" /> 
<circle cx="21346.4" cy="14684.6" r="177.165" /> 
<circle cx="21346.4" cy="15684.6" r="177.165" /> 
<circle cx="22346.4" cy="14684.6" r="177.165" /> 
<circle cx="22346.4" cy="15684.6" r="177.165" /> 
<circle cx="23346.4" cy="14684.6" r="177.165" /> 
<circle cx="23346.4" cy="15684.6" r="177.165" /> 
<circle cx="14346.4" cy="14684.6" r="177.165" /> 
<circle cx="15346.4" cy="14684.6" r="177.165" /> 
<circle cx="14346.4" cy="15684.6" r="177.165" /> 
<circle cx="15346.4" cy="15684.6" r="177.165" /> 
<circle cx="16346.4" cy="14684.6" r="177.165" /> 
<circle cx="16346.4" cy="15684.6" r="177.165" /> 
<circle cx="24846.4" cy="10934.6" r="177.165" /> 
<circle cx="24846.4" cy="11934.6" r="177.165" /> 
<circle cx="25846.4" cy="10934.6" r="177.165" /> 
<circle cx="25846.4" cy="11934.6" r="177.165" /> 
<circle cx="24846.4" cy="18434.6" r="177.165" /> 
<circle cx="24846.4" cy="19434.6" r="177.165" /> 
<circle cx="25846.4" cy="18434.6" r="177.165" /> 
<circle cx="25846.4" cy="19434.6" r="177.165" /> 
<circle cx="25602.3" cy="26578.3" r="137.795" /> 
<circle cx="25602.3" cy="25790.9" r="137.795" /> 
<circle cx="24814.9" cy="26578.3" r="137.795" /> 
<circle cx="24814.9" cy="25790.9" r="137.795" /> 
<circle cx="24027.5" cy="26578.3" r="137.795" /> 
<circle cx="24027.5" cy="25790.9" r="137.795" /> 
<circle cx="23240.1" cy="26578.3" r="137.795" /> 
<circle cx="23240.1" cy="25790.9" r="137.795" /> 
<circle cx="22452.7" cy="26578.3" r="137.795" /> 
<circle cx="22452.7" cy="25790.9" r="137.795" /> 
<circle cx="21665.2" cy="26578.3" r="137.795" /> 
<circle cx="21665.2" cy="25790.9" r="137.795" /> 
<circle cx="20877.8" cy="26578.3" r="137.795" /> 
<circle cx="20877.8" cy="25790.9" r="137.795" /> 
<circle cx="20090.4" cy="26578.3" r="137.795" /> 
<circle cx="20090.4" cy="25790.9" r="137.795" /> 
<circle cx="10602.3" cy="26578.3" r="137.795" /> 
<circle cx="10602.3" cy="25790.9" r="137.795" /> 
<circle cx="9814.86" cy="26578.3" r="137.795" /> 
<circle cx="9814.86" cy="25790.9" r="137.795" /> 
<circle cx="9027.45" cy="26578.3" r="137.795" /> 
<circle cx="9027.45" cy="25790.9" r="137.795" /> 
<circle cx="8240.05" cy="26578.3" r="137.795" /> 
<circle cx="8240.05" cy="25790.9" r="137.795" /> 
<circle cx="7452.65" cy="26578.3" r="137.795" /> 
<circle cx="7452.65" cy="25790.9" r="137.795" /> 
<circle cx="6665.25" cy="26578.3" r="137.795" /> 
<circle cx="6665.25" cy="25790.9" r="137.795" /> 
<circle cx="5877.85" cy="26578.3" r="137.795" /> 
<circle cx="5877.85" cy="25790.9" r="137.795" /> 
<circle cx="5090.45" cy="26578.3" r="137.795" /> 
<circle cx="5090.45" cy="25790.9" r="137.795" /> 
<circle cx="20090.4" cy="3790.95" r="137.795" /> 
<circle cx="20090.4" cy="4578.35" r="137.795" /> 
<circle cx="20877.8" cy="3790.95" r="137.795" /> 
<circle cx="20877.8" cy="4578.35" r="137.795" /> 
<circle cx="21665.2" cy="3790.95" r="137.795" /> 
<circle cx="21665.2" cy="4578.35" r="137.795" /> 
<circle cx="22452.7" cy="3790.95" r="137.795" /> 
<circle cx="22452.7" cy="4578.35" r="137.795" /> 
<circle cx="23240.1" cy="3790.95" r="137.795" /> 
<circle cx="23240.1" cy="4578.35" r="137.795" /> 
<circle cx="24027.5" cy="3790.95" r="137.795" /> 
<circle cx="24027.5" cy="4578.35" r="137.795" /> 
<circle cx="24814.9" cy="3790.95" r="137.795" /> 
<circle cx="24814.9" cy="4578.35" r="137.795" /> 
<circle cx="25602.3" cy="3790.95" r="137.795" /> 
<circle cx="25602.3" cy="4578.35" r="137.795" /> 
<circle cx="5090.45" cy="3790.95" r="137.795" /> 
<circle cx="5090.45" cy="4578.35" r="137.795" /> 
<circle cx="5877.85" cy="3790.95" r="137.795" /> 
<circle cx="5877.85" cy="4578.35" r="137.795" /> 
<circle cx="6665.25" cy="3790.95" r="137.795" /> 
<circle cx="6665.25" cy="4578.35" r="137.795" /> 
<circle cx="7452.65" cy="3790.95" r="137.795" /> 
<circle cx="7452.65" cy="4578.35" r="137.795" /> 
<circle cx="8240.05" cy="3790.95" r="137.795" /> 
<circle cx="8240.05" cy="4578.35" r="137.795" /> 
<circle cx="9027.45" cy="3790.95" r="137.795" /> 
<circle cx="9027.45" cy="4578.35" r="137.795" /> 
<circle cx="9814.86" cy="3790.95" r="137.795" /> 
<circle cx="9814.86" cy="4578.35" r="137.795" /> 
<circle cx="10602.3" cy="3790.95" r="137.795" /> 
<circle cx="10602.3" cy="4578.35" r="137.795" /> 
<circle cx="14796.4" cy="5184.65" r="196.85" /> 
<circle cx="15796.4" cy="5184.65" r="196.85" /> 
<circle cx="16296.4" cy="1784.65" r="650.315" /> 
<circle cx="14296.4" cy="1784.65" r="650.315" /> 
<circle cx="15846.4" cy="25184.6" r="196.85" /> 
<circle cx="14846.4" cy="25184.6" r="196.85" /> 
<circle cx="14346.4" cy="28584.6" r="650.315" /> 
<circle cx="16346.4" cy="28584.6" r="650.315" /> 
<circle cx="27740.1" cy="14184.6" r="137.795" /> 
<circle cx="26952.7" cy="14184.6" r="137.795" /> 
<circle cx="26952.7" cy="16434.6" r="137.795" /> 
<circle cx="27740.1" cy="16434.6" r="137.795" /> 
</g> 
</svg>
