<?xml version="1.0" standalone="no"?>
 <!DOCTYPE svg PUBLIC "-//W3C//DTD SVG 1.1//EN" 
 "http://www.w3.org/Graphics/SVG/1.1/DTD/svg11.dtd"> 
<svg xmlns="http://www.w3.org/2000/svg" version="1.1" 
    width="29.7002cm" height="21.0007cm" viewBox="0 0 116930 82680 ">
<title>SVG Picture created as clocksch.svg date 2014/04/01 18:39:46 </title>
  <desc>Picture generated by Eeschema-SVG </desc>
<g style="fill:#000000; fill-opacity:1;stroke:#000000; stroke-opacity:1;
stroke-linecap:round; stroke-linejoin:round; "
 transform="translate(0 0) scale(1 1)">
</g>
<g style="fill:#000000; fill-opacity:0.0; 
stroke:#000000; stroke-width:0; stroke-opacity:1; 
stroke-linecap:round; stroke-linejoin:round;">
</g>
<g style="fill:#840000; fill-opacity:0.0; 
stroke:#840000; stroke-width:60; stroke-opacity:1; 
stroke-linecap:round; stroke-linejoin:round;">
<circle cx="57500" cy="22900" r="200" /> 
<polyline fill="none;"
points="57500,23500
57500,23100
57500,23100
" /> 
</g>
<g style="fill:#008484; fill-opacity:0.0; 
stroke:#008484; stroke-width:50; stroke-opacity:1; 
stroke-linecap:round; stroke-linejoin:round;">
<path d="M56460 22520
L56460 22220
L56530 22220
L56580 22230
L56600 22260
L56620 22290
L56630 22340
L56630 22390
L56620 22440
L56600 22470
L56580 22500
L56530 22520
L56460 22520
" />
<path d="M56720 22220
L56820 22520
L56920 22220
" />
<path d="M57020 22520
L57020 22220
L57090 22220
L57140 22230
L57160 22260
L57180 22290
L57190 22340
L57190 22390
L57180 22440
L57160 22470
L57140 22500
L57090 22520
L57020 22520
" />
<path d="M57320 22520
L57320 22220
L57390 22220
L57440 22230
L57460 22260
L57480 22290
L57490 22340
L57490 22390
L57480 22440
L57460 22470
L57440 22500
L57390 22520
L57320 22520
" />
<path d="M57550 22540
L57780 22540
" />
<path d="M57820 22220
L58010 22220
L57910 22330
L57950 22330
L57980 22340
L57990 22360
L58010 22390
L58010 22460
L57990 22490
L57980 22500
L57950 22520
L57870 22520
L57840 22500
L57820 22490
" />
<path d="M58100 22220
L58200 22520
L58300 22220
" />
<path d="M58370 22220
L58560 22220
L58460 22330
L58500 22330
L58530 22340
L58540 22360
L58560 22390
L58560 22460
L58540 22490
L58530 22500
L58500 22520
L58420 22520
L58390 22500
L58370 22490
" />
</g>
<g style="fill:#008484; fill-opacity:0.0; 
stroke:#008484; stroke-width:0; stroke-opacity:1; 
stroke-linecap:round; stroke-linejoin:round;">
</g>
<g style="fill:#840000; fill-opacity:0.0; 
stroke:#840000; stroke-width:200; stroke-opacity:1; 
stroke-linecap:round; stroke-linejoin:round;">
<polyline fill="none;"
points="55200,29300
55200,27700
" /> 
<polyline fill="none;"
points="55800,29300
55800,27700
" /> 
</g>
<g style="fill:#840000; fill-opacity:0.0; 
stroke:#840000; stroke-width:60; stroke-opacity:1; 
stroke-linecap:round; stroke-linejoin:round;">
<path d="M55800 28500
L57500 28500
" />
</g>
<g style="fill:#008484; fill-opacity:0.0; 
stroke:#008484; stroke-width:60; stroke-opacity:1; 
stroke-linecap:round; stroke-linejoin:round;">
<path d="M55200 28500
L53500 28500
" />
</g>
<g style="fill:#008484; fill-opacity:0.0; 
stroke:#008484; stroke-width:60; stroke-opacity:1; 
stroke-linecap:round; stroke-linejoin:round;">
<path d="M56710 27600
L56730 27620
L56760 27690
L56760 27740
L56730 27810
L56680 27860
L56640 27880
L56540 27900
L56470 27900
L56380 27880
L56330 27860
L56280 27810
L56260 27740
L56260 27690
L56280 27620
L56300 27600
" />
<path d="M56300 27400
L56280 27380
L56260 27330
L56260 27210
L56280 27170
L56300 27140
L56350 27120
L56400 27120
L56470 27140
L56760 27430
L56760 27120
" />
<path d="M54760 27620
L54760 27900
" />
<path d="M54760 27760
L54260 27760
L54330 27810
L54380 27860
L54400 27900
" />
<path d="M54420 27190
L54760 27190
" />
<path d="M54420 27400
L54680 27400
L54730 27380
L54760 27330
L54760 27260
L54730 27210
L54710 27190
" />
<path d="M54490 26780
L54490 26950
" />
<path d="M54760 26950
L54260 26950
L54260 26710
" />
</g>
<g style="fill:#008484; fill-opacity:0.0; 
stroke:#008484; stroke-width:0; stroke-opacity:1; 
stroke-linecap:round; stroke-linejoin:round;">
</g>
<g style="fill:#840000; fill-opacity:0.0; 
stroke:#840000; stroke-width:200; stroke-opacity:1; 
stroke-linecap:round; stroke-linejoin:round;">
<polyline fill="none;"
points="55200,26300
55200,24700
" /> 
<polyline fill="none;"
points="55800,26300
55800,24700
" /> 
</g>
<g style="fill:#840000; fill-opacity:0.0; 
stroke:#840000; stroke-width:60; stroke-opacity:1; 
stroke-linecap:round; stroke-linejoin:round;">
<path d="M55800 25500
L57500 25500
" />
</g>
<g style="fill:#008484; fill-opacity:0.0; 
stroke:#008484; stroke-width:60; stroke-opacity:1; 
stroke-linecap:round; stroke-linejoin:round;">
<path d="M55200 25500
L53500 25500
" />
</g>
<g style="fill:#008484; fill-opacity:0.0; 
stroke:#008484; stroke-width:60; stroke-opacity:1; 
stroke-linecap:round; stroke-linejoin:round;">
<path d="M56710 24600
L56730 24620
L56760 24690
L56760 24740
L56730 24810
L56680 24860
L56640 24880
L56540 24900
L56470 24900
L56380 24880
L56330 24860
L56280 24810
L56260 24740
L56260 24690
L56280 24620
L56300 24600
" />
<path d="M56760 24120
L56760 24400
" />
<path d="M56760 24260
L56260 24260
L56330 24310
L56380 24360
L56400 24400
" />
<path d="M54260 24790
L54260 24740
L54280 24690
L54300 24670
L54350 24640
L54450 24620
L54570 24620
L54660 24640
L54710 24670
L54730 24690
L54760 24740
L54760 24790
L54730 24830
L54710 24860
L54660 24880
L54570 24900
L54450 24900
L54350 24880
L54300 24860
L54280 24830
L54260 24790
" />
<path d="M54710 24400
L54730 24380
L54760 24400
L54730 24420
L54710 24400
L54760 24400
" />
<path d="M54760 23900
L54760 24180
" />
<path d="M54760 24040
L54260 24040
L54330 24090
L54380 24140
L54400 24180
" />
<path d="M54420 23470
L54760 23470
" />
<path d="M54420 23680
L54680 23680
L54730 23660
L54760 23610
L54760 23540
L54730 23490
L54710 23470
" />
<path d="M54490 23060
L54490 23230
" />
<path d="M54760 23230
L54260 23230
L54260 22990
" />
</g>
<g style="fill:#008484; fill-opacity:0.0; 
stroke:#008484; stroke-width:0; stroke-opacity:1; 
stroke-linecap:round; stroke-linejoin:round;">
</g>
<g style="fill:#840000; fill-opacity:0.0; 
stroke:#840000; stroke-width:60; stroke-opacity:1; 
stroke-linecap:round; stroke-linejoin:round;">
<polyline fill="none;"
points="52000,27400
52000,26600
51600,27000
52000,27400
" /> 
</g>
<g style="fill:#008484; fill-opacity:0.0; 
stroke:#008484; stroke-width:60; stroke-opacity:1; 
stroke-linecap:round; stroke-linejoin:round;">
<path d="M51410 27860
L51410 27630
" />
<path d="M51560 27910
L51060 27750
L51560 27580
" />
<path d="M51080 27150
L51060 27200
L51060 27270
L51080 27340
L51130 27390
L51180 27410
L51270 27430
L51340 27430
L51440 27410
L51480 27390
L51530 27340
L51560 27270
L51560 27220
L51530 27150
L51510 27130
L51340 27130
L51340 27220
" />
<path d="M51560 26910
L51060 26910
L51560 26630
L51060 26630
" />
<path d="M51560 26390
L51060 26390
L51060 26270
L51080 26200
L51130 26150
L51180 26130
L51270 26110
L51340 26110
L51440 26130
L51480 26150
L51530 26200
L51560 26270
L51560 26390
" />
<path d="M51000 39500
L52000 38500
" />
</g>
<g style="fill:#008400; fill-opacity:0.0; 
stroke:#008400; stroke-width:60; stroke-opacity:1; 
stroke-linecap:round; stroke-linejoin:round;">
<path d="M51000 38500
L52000 37500
" />
</g>
<g style="fill:#008400; fill-opacity:0.0; 
stroke:#008400; stroke-width:0; stroke-opacity:1; 
stroke-linecap:round; stroke-linejoin:round;">
</g>
<g style="fill:#840000; fill-opacity:0.0; 
stroke:#840000; stroke-width:60; stroke-opacity:1; 
stroke-linecap:round; stroke-linejoin:round;">
<polyline fill="none;"
points="59100,44000
59900,44000
59500,44400
59100,44000
" /> 
</g>
<g style="fill:#008484; fill-opacity:0.0; 
stroke:#008484; stroke-width:60; stroke-opacity:1; 
stroke-linecap:round; stroke-linejoin:round;">
<path d="M58630 44750
L58860 44750
" />
<path d="M58580 44900
L58740 44400
L58910 44900
" />
<path d="M59340 44420
L59290 44400
L59220 44400
L59150 44420
L59100 44470
L59080 44520
L59060 44610
L59060 44680
L59080 44780
L59100 44820
L59150 44870
L59220 44900
L59270 44900
L59340 44870
L59360 44850
L59360 44680
L59270 44680
" />
<path d="M59580 44900
L59580 44400
L59860 44900
L59860 44400
" />
<path d="M60100 44900
L60100 44400
L60220 44400
L60290 44420
L60340 44470
L60360 44520
L60380 44610
L60380 44680
L60360 44780
L60340 44820
L60290 44870
L60220 44900
L60100 44900
" />
</g>
<g style="fill:#008484; fill-opacity:0.0; 
stroke:#008484; stroke-width:0; stroke-opacity:1; 
stroke-linecap:round; stroke-linejoin:round;">
</g>
<g style="fill:#840000; fill-opacity:0.0; 
stroke:#840000; stroke-width:160; stroke-opacity:1; 
stroke-linecap:round; stroke-linejoin:round;">
<polyline fill="none;"
points="45500,35500
43500,35500
" /> 
<polyline fill="none;"
points="45500,33500
43500,33500
" /> 
</g>
<g style="fill:#FFFFC2; fill-opacity:0.6; 
stroke:#FFFFC2; stroke-width:0; stroke-opacity:1; 
stroke-linecap:round; stroke-linejoin:round;">
<polyline style="fill-rule:evenodd;"
points="45000,35000
45000,34000
44000,34000
44000,35000
45000,35000
" /> 
</g>
<g style="fill:#840000; fill-opacity:0.0; 
stroke:#840000; stroke-width:120; stroke-opacity:1; 
stroke-linecap:round; stroke-linejoin:round;">
<polyline fill="none;"
points="45000,35000
45000,34000
44000,34000
44000,35000
45000,35000
" /> 
</g>
<g style="fill:#840000; fill-opacity:0.0; 
stroke:#840000; stroke-width:60; stroke-opacity:1; 
stroke-linecap:round; stroke-linejoin:round;">
<path d="M44500 35500
L44500 37500
" />
<path d="M44500 33500
L44500 31500
" />
</g>
<g style="fill:#008484; fill-opacity:0.0; 
stroke:#008484; stroke-width:60; stroke-opacity:1; 
stroke-linecap:round; stroke-linejoin:round;">
<path d="M45700 34980
L46300 34580
" />
<path d="M45700 34580
L46300 34980
" />
<path d="M46300 34040
L46300 34390
" />
<path d="M46300 34210
L45700 34210
L45790 34270
L45840 34330
L45870 34390
" />
<path d="M43460 30740
L43430 30770
L43340 30800
L43280 30800
L43200 30770
L43140 30720
L43110 30660
L43080 30540
L43080 30460
L43110 30340
L43140 30290
L43200 30230
L43280 30200
L43340 30200
L43430 30230
L43460 30260
" />
<path d="M44060 30800
L43860 30520
" />
<path d="M43710 30800
L43710 30200
L43940 30200
L44000 30230
L44030 30260
L44060 30320
L44060 30400
L44030 30460
L44000 30490
L43940 30520
L43710 30520
" />
<path d="M44430 30520
L44430 30800
" />
<path d="M44230 30200
L44430 30520
L44630 30200
" />
<path d="M44790 30770
L44880 30800
L45020 30800
L45080 30770
L45110 30740
L45140 30690
L45140 30630
L45110 30570
L45080 30540
L45020 30520
L44910 30490
L44850 30460
L44820 30430
L44790 30370
L44790 30320
L44820 30260
L44850 30230
L44910 30200
L45050 30200
L45140 30230
" />
<path d="M45310 30200
L45650 30200
" />
<path d="M45480 30800
L45480 30200
" />
<path d="M45820 30630
L46110 30630
" />
<path d="M45770 30800
L45970 30200
L46170 30800
" />
<path d="M46650 30800
L46360 30800
L46360 30200
" />
<path d="M47110 30200
L47000 30200
L46940 30230
L46910 30260
L46850 30340
L46820 30460
L46820 30690
L46850 30740
L46880 30770
L46940 30800
L47050 30800
L47110 30770
L47140 30740
L47170 30690
L47170 30540
L47140 30490
L47110 30460
L47050 30430
L46940 30430
L46880 30460
L46850 30490
L46820 30540
" />
<path d="M47420 30570
L47880 30570
" />
<path d="M48480 30800
L48130 30800
" />
<path d="M48310 30800
L48310 30200
L48250 30290
L48190 30340
L48130 30370
" />
<path d="M48850 30200
L48900 30200
L48960 30230
L48990 30260
L49020 30320
L49050 30430
L49050 30570
L49020 30690
L48990 30740
L48960 30770
L48900 30800
L48850 30800
L48790 30770
L48760 30740
L48730 30690
L48700 30570
L48700 30430
L48730 30320
L48760 30260
L48790 30230
L48850 30200
" />
<path d="M49300 30400
L49300 31000
" />
<path d="M49300 30430
L49360 30400
L49470 30400
L49530 30430
L49560 30460
L49590 30520
L49590 30690
L49560 30740
L49530 30770
L49470 30800
L49360 30800
L49300 30770
" />
<path d="M49760 30400
L49990 30400
" />
<path d="M49840 30800
L49840 30290
L49870 30230
L49930 30200
L49990 30200
" />
</g>
<g style="fill:#008484; fill-opacity:0.0; 
stroke:#008484; stroke-width:0; stroke-opacity:1; 
stroke-linecap:round; stroke-linejoin:round;">
</g>
<g style="fill:#840000; fill-opacity:0.0; 
stroke:#840000; stroke-width:60; stroke-opacity:1; 
stroke-linecap:round; stroke-linejoin:round;">
<rect x="55000" y="32000" width="9000" height="9000" rx="0" />
<path d="M57500 32000
L57500 29000
" />
</g>
<g style="fill:#008484; fill-opacity:0.0; 
stroke:#008484; stroke-width:60; stroke-opacity:1; 
stroke-linecap:round; stroke-linejoin:round;">
<path d="M57230 33780
L57730 33620
L57230 33450
" />
<path d="M57730 33280
L57230 33280
L57230 33160
L57250 33090
L57300 33040
L57350 33020
L57440 33000
L57510 33000
L57610 33020
L57650 33040
L57700 33090
L57730 33160
L57730 33280
" />
<path d="M57730 32780
L57230 32780
L57230 32660
L57250 32590
L57300 32540
L57350 32520
L57440 32500
L57510 32500
L57610 32520
L57650 32540
L57700 32590
L57730 32660
L57730 32780
" />
</g>
<g style="fill:#840000; fill-opacity:0.0; 
stroke:#840000; stroke-width:60; stroke-opacity:1; 
stroke-linecap:round; stroke-linejoin:round;">
<path d="M57380 30360
L57380 30640
" />
<path d="M57380 30500
L56880 30500
L56950 30550
L57000 30600
L57020 30640
" />
<path d="M55000 34000
L52000 34000
" />
</g>
<g style="fill:#008484; fill-opacity:0.0; 
stroke:#008484; stroke-width:60; stroke-opacity:1; 
stroke-linecap:round; stroke-linejoin:round;">
<path d="M55470 33730
L55800 34230
" />
<path d="M55800 33730
L55470 34230
" />
<path d="M55980 34080
L56210 34080
" />
<path d="M55930 34230
L56090 33730
L56260 34230
" />
</g>
<g style="fill:#840000; fill-opacity:0.0; 
stroke:#840000; stroke-width:60; stroke-opacity:1; 
stroke-linecap:round; stroke-linejoin:round;">
<path d="M53360 33420
L53380 33400
L53430 33380
L53550 33380
L53590 33400
L53620 33420
L53640 33470
L53640 33520
L53620 33590
L53330 33880
L53640 33880
" />
<path d="M55000 35000
L52000 35000
" />
</g>
<g style="fill:#008484; fill-opacity:0.0; 
stroke:#008484; stroke-width:60; stroke-opacity:1; 
stroke-linecap:round; stroke-linejoin:round;">
<path d="M55470 34730
L55800 35230
" />
<path d="M55800 34730
L55470 35230
" />
<path d="M56170 34960
L56240 34990
L56260 35010
L56280 35060
L56280 35130
L56260 35180
L56240 35200
L56190 35230
L56000 35230
L56000 34730
L56170 34730
L56210 34750
L56240 34770
L56260 34820
L56260 34870
L56240 34920
L56210 34940
L56170 34960
L56000 34960
" />
</g>
<g style="fill:#840000; fill-opacity:0.0; 
stroke:#840000; stroke-width:60; stroke-opacity:1; 
stroke-linecap:round; stroke-linejoin:round;">
<path d="M53330 34380
L53640 34380
L53470 34570
L53550 34570
L53590 34590
L53620 34610
L53640 34660
L53640 34780
L53620 34830
L53590 34850
L53550 34880
L53400 34880
L53360 34850
L53330 34830
" />
<path d="M55000 37500
L52000 37500
" />
</g>
<g style="fill:#008484; fill-opacity:0.0; 
stroke:#008484; stroke-width:60; stroke-opacity:1; 
stroke-linecap:round; stroke-linejoin:round;">
<path d="M55500 37700
L55570 37730
L55690 37730
L55730 37700
L55760 37680
L55780 37630
L55780 37580
L55760 37540
L55730 37510
L55690 37490
L55590 37460
L55540 37440
L55520 37420
L55500 37370
L55500 37320
L55520 37270
L55540 37250
L55590 37230
L55710 37230
L55780 37250
" />
<path d="M56280 37680
L56260 37700
L56190 37730
L56140 37730
L56070 37700
L56020 37650
L56000 37610
L55980 37510
L55980 37440
L56000 37350
L56020 37300
L56070 37250
L56140 37230
L56190 37230
L56260 37250
L56280 37270
" />
<path d="M56740 37730
L56500 37730
L56500 37230
" />
</g>
<g style="fill:#840000; fill-opacity:0.0; 
stroke:#840000; stroke-width:60; stroke-opacity:1; 
stroke-linecap:round; stroke-linejoin:round;">
<path d="M53590 37040
L53590 37380
" />
<path d="M53470 36850
L53360 37210
L53660 37210
" />
<path d="M55000 38500
L52000 38500
" />
</g>
<g style="fill:#008484; fill-opacity:0.0; 
stroke:#008484; stroke-width:60; stroke-opacity:1; 
stroke-linecap:round; stroke-linejoin:round;">
<path d="M55500 38700
L55570 38730
L55690 38730
L55730 38700
L55760 38680
L55780 38630
L55780 38580
L55760 38540
L55730 38510
L55690 38490
L55590 38460
L55540 38440
L55520 38420
L55500 38370
L55500 38320
L55520 38270
L55540 38250
L55590 38230
L55710 38230
L55780 38250
" />
<path d="M56000 38730
L56000 38230
L56120 38230
L56190 38250
L56240 38300
L56260 38350
L56280 38440
L56280 38510
L56260 38610
L56240 38650
L56190 38700
L56120 38730
L56000 38730
" />
<path d="M56480 38580
L56710 38580
" />
<path d="M56430 38730
L56590 38230
L56760 38730
" />
</g>
<g style="fill:#840000; fill-opacity:0.0; 
stroke:#840000; stroke-width:60; stroke-opacity:1; 
stroke-linecap:round; stroke-linejoin:round;">
<path d="M53620 37880
L53380 37880
L53360 38110
L53380 38090
L53430 38070
L53550 38070
L53590 38090
L53620 38110
L53640 38160
L53640 38280
L53620 38330
L53590 38350
L53550 38380
L53430 38380
L53380 38350
L53360 38330
" />
<path d="M64000 37500
L67000 37500
" />
</g>
<g style="fill:#008484; fill-opacity:0.0; 
stroke:#008484; stroke-width:60; stroke-opacity:1; 
stroke-linecap:round; stroke-linejoin:round;">
<path d="M62120 37680
L62100 37700
L62030 37730
L61980 37730
L61910 37700
L61860 37650
L61840 37610
L61820 37510
L61820 37440
L61840 37350
L61860 37300
L61910 37250
L61980 37230
L62030 37230
L62100 37250
L62120 37270
" />
<path d="M62580 37730
L62340 37730
L62340 37230
" />
<path d="M62740 37730
L62740 37230
" />
<path d="M63020 37730
L62810 37440
" />
<path d="M63020 37230
L62740 37510
" />
<path d="M63220 37270
L63240 37250
L63290 37230
L63410 37230
L63450 37250
L63480 37270
L63500 37320
L63500 37370
L63480 37440
L63190 37730
L63500 37730
" />
</g>
<g style="fill:#840000; fill-opacity:0.0; 
stroke:#840000; stroke-width:60; stroke-opacity:1; 
stroke-linecap:round; stroke-linejoin:round;">
<path d="M65590 36880
L65500 36880
L65450 36900
L65430 36920
L65380 37000
L65360 37090
L65360 37280
L65380 37330
L65400 37350
L65450 37380
L65550 37380
L65590 37350
L65620 37330
L65640 37280
L65640 37160
L65620 37110
L65590 37090
L65550 37070
L65450 37070
L65400 37090
L65380 37110
L65360 37160
" />
<path d="M61000 32000
L61000 29000
" />
</g>
<g style="fill:#008484; fill-opacity:0.0; 
stroke:#008484; stroke-width:60; stroke-opacity:1; 
stroke-linecap:round; stroke-linejoin:round;">
<path d="M60730 34300
L61230 34140
L60730 33970
" />
<path d="M61230 33800
L60730 33800
L60730 33680
L60750 33610
L60800 33560
L60850 33540
L60940 33520
L61010 33520
L61110 33540
L61150 33560
L61200 33610
L61230 33680
L61230 33800
" />
<path d="M61230 33300
L60730 33300
L60730 33180
L60750 33110
L60800 33060
L60850 33040
L60940 33020
L61010 33020
L61110 33040
L61150 33060
L61200 33110
L61230 33180
L61230 33300
" />
<path d="M60730 32710
L60730 32610
L60750 32560
L60800 32520
L60890 32490
L61060 32490
L61150 32520
L61200 32560
L61230 32610
L61230 32710
L61200 32750
L61150 32800
L61060 32820
L60890 32820
L60800 32800
L60750 32750
L60730 32710
" />
</g>
<g style="fill:#840000; fill-opacity:0.0; 
stroke:#840000; stroke-width:60; stroke-opacity:1; 
stroke-linecap:round; stroke-linejoin:round;">
<path d="M60380 30670
L60380 30340
L60880 30550
" />
<path d="M59500 41000
L59500 44000
" />
</g>
<g style="fill:#008484; fill-opacity:0.0; 
stroke:#008484; stroke-width:60; stroke-opacity:1; 
stroke-linecap:round; stroke-linejoin:round;">
<path d="M59250 40220
L59230 40270
L59230 40340
L59250 40410
L59300 40460
L59350 40480
L59440 40500
L59510 40500
L59610 40480
L59650 40460
L59700 40410
L59730 40340
L59730 40290
L59700 40220
L59680 40200
L59510 40200
L59510 40290
" />
<path d="M59730 39980
L59230 39980
L59730 39700
L59230 39700
" />
<path d="M59730 39460
L59230 39460
L59230 39340
L59250 39270
L59300 39220
L59350 39200
L59440 39180
L59510 39180
L59610 39200
L59650 39220
L59700 39270
L59730 39340
L59730 39460
" />
</g>
<g style="fill:#840000; fill-opacity:0.0; 
stroke:#840000; stroke-width:60; stroke-opacity:1; 
stroke-linecap:round; stroke-linejoin:round;">
<path d="M59090 42550
L59070 42600
L59040 42620
L59000 42640
L58970 42640
L58920 42620
L58900 42600
L58880 42550
L58880 42450
L58900 42410
L58920 42380
L58970 42360
L59000 42360
L59040 42380
L59070 42410
L59090 42450
L59090 42550
L59110 42600
L59140 42620
L59190 42640
L59280 42640
L59330 42620
L59350 42600
L59380 42550
L59380 42450
L59350 42410
L59330 42380
L59280 42360
L59190 42360
L59140 42380
L59110 42410
L59090 42450
" />
<path d="M64000 36000
L67000 36000
" />
</g>
<g style="fill:#008484; fill-opacity:0.0; 
stroke:#008484; stroke-width:60; stroke-opacity:1; 
stroke-linecap:round; stroke-linejoin:round;">
<path d="M62120 36180
L62100 36200
L62030 36230
L61980 36230
L61910 36200
L61860 36150
L61840 36110
L61820 36010
L61820 35940
L61840 35850
L61860 35800
L61910 35750
L61980 35730
L62030 35730
L62100 35750
L62120 35770
" />
<path d="M62580 36230
L62340 36230
L62340 35730
" />
<path d="M62740 36230
L62740 35730
" />
<path d="M63020 36230
L62810 35940
" />
<path d="M63020 35730
L62740 36010
" />
<path d="M63500 36230
L63220 36230
" />
<path d="M63360 36230
L63360 35730
L63310 35800
L63260 35850
L63220 35870
" />
</g>
<g style="fill:#840000; fill-opacity:0.0; 
stroke:#840000; stroke-width:60; stroke-opacity:1; 
stroke-linecap:round; stroke-linejoin:round;">
<path d="M65400 35880
L65500 35880
L65550 35850
L65570 35830
L65620 35760
L65640 35660
L65640 35470
L65620 35420
L65590 35400
L65550 35380
L65450 35380
L65400 35400
L65380 35420
L65360 35470
L65360 35590
L65380 35640
L65400 35660
L65450 35690
L65550 35690
L65590 35660
L65620 35640
L65640 35590
" />
<path d="M64000 34500
L67000 34500
" />
</g>
<g style="fill:#008484; fill-opacity:0.0; 
stroke:#008484; stroke-width:60; stroke-opacity:1; 
stroke-linecap:round; stroke-linejoin:round;">
<path d="M62120 34680
L62100 34700
L62030 34730
L61980 34730
L61910 34700
L61860 34650
L61840 34610
L61820 34510
L61820 34440
L61840 34350
L61860 34300
L61910 34250
L61980 34230
L62030 34230
L62100 34250
L62120 34270
" />
<path d="M62580 34730
L62340 34730
L62340 34230
" />
<path d="M62740 34730
L62740 34230
" />
<path d="M63020 34730
L62810 34440
" />
<path d="M63020 34230
L62740 34510
" />
<path d="M63330 34230
L63380 34230
L63430 34250
L63450 34270
L63480 34320
L63500 34420
L63500 34540
L63480 34630
L63450 34680
L63430 34700
L63380 34730
L63330 34730
L63290 34700
L63260 34680
L63240 34630
L63220 34540
L63220 34420
L63240 34320
L63260 34270
L63290 34250
L63330 34230
" />
</g>
<g style="fill:#840000; fill-opacity:0.0; 
stroke:#840000; stroke-width:60; stroke-opacity:1; 
stroke-linecap:round; stroke-linejoin:round;">
<path d="M65400 34380
L65120 34380
" />
<path d="M65260 34380
L65260 33880
L65210 33950
L65160 34000
L65120 34020
" />
<path d="M65710 33880
L65760 33880
L65810 33900
L65830 33920
L65860 33970
L65880 34070
L65880 34190
L65860 34280
L65830 34330
L65810 34350
L65760 34380
L65710 34380
L65670 34350
L65640 34330
L65620 34280
L65600 34190
L65600 34070
L65620 33970
L65640 33920
L65670 33900
L65710 33880
" />
</g>
<g style="fill:#008484; fill-opacity:0.0; 
stroke:#008484; stroke-width:60; stroke-opacity:1; 
stroke-linecap:round; stroke-linejoin:round;">
<path d="M59040 34640
L59040 35130
L59070 35180
L59100 35210
L59160 35240
L59270 35240
L59330 35210
L59360 35180
L59390 35130
L59390 34640
" />
<path d="M59990 35240
L59640 35240
" />
<path d="M59820 35240
L59820 34640
L59760 34730
L59700 34780
L59640 34810
" />
<path d="M57790 37710
L57880 37740
L58020 37740
L58080 37710
L58110 37680
L58140 37630
L58140 37570
L58110 37510
L58080 37480
L58020 37460
L57910 37430
L57850 37400
L57820 37370
L57790 37310
L57790 37260
L57820 37200
L57850 37170
L57910 37140
L58050 37140
L58140 37170
" />
<path d="M58390 37740
L58390 37140
" />
<path d="M58970 37140
L58680 37140
L58650 37430
L58680 37400
L58740 37370
L58880 37370
L58940 37400
L58970 37430
L59000 37480
L59000 37630
L58970 37680
L58940 37710
L58880 37740
L58740 37740
L58680 37710
L58650 37680
" />
<path d="M59200 37140
L59570 37140
L59370 37370
L59450 37370
L59510 37400
L59540 37430
L59570 37480
L59570 37630
L59540 37680
L59510 37710
L59450 37740
L59280 37740
L59220 37710
L59200 37680
" />
<path d="M60110 37140
L59820 37140
L59790 37430
L59820 37400
L59880 37370
L60020 37370
L60080 37400
L60110 37430
L60140 37480
L60140 37630
L60110 37680
L60080 37710
L60020 37740
L59880 37740
L59820 37710
L59790 37680
" />
<path d="M60710 37740
L60360 37740
" />
<path d="M60540 37740
L60540 37140
L60480 37230
L60420 37280
L60360 37310
" />
<path d="M60930 37570
L61220 37570
" />
<path d="M60880 37740
L61080 37140
L61280 37740
" />
</g>
<g style="fill:#008484; fill-opacity:0.0; 
stroke:#008484; stroke-width:120; stroke-opacity:1; 
stroke-linecap:round; stroke-linejoin:round;">
</g>
<g style="fill:#000084; fill-opacity:0.0; 
stroke:#000084; stroke-width:120; stroke-opacity:1; 
stroke-linecap:round; stroke-linejoin:round;">
<path d="M51000 41500
L51000 38500
" />
</g>
<g style="fill:#000084; fill-opacity:0.0; 
stroke:#000084; stroke-width:60; stroke-opacity:1; 
stroke-linecap:round; stroke-linejoin:round;">
</g>
<g style="fill:#008400; fill-opacity:0.0; 
stroke:#008400; stroke-width:60; stroke-opacity:1; 
stroke-linecap:round; stroke-linejoin:round;">
<path d="M49000 31500
L44500 31500
" />
<path d="M49000 34000
L49000 31500
" />
<path d="M52000 34000
L49000 34000
" />
<path d="M67000 34500
L68500 34500
" />
<path d="M48500 35000
L52000 35000
" />
<path d="M48500 37500
L48500 35000
" />
<path d="M44500 37500
L48500 37500
" />
<path d="M57500 23500
L57500 29000
" />
</g>
<g style="fill:#848400; fill-opacity:0.0; 
stroke:#848400; stroke-width:60; stroke-opacity:1; 
stroke-linecap:round; stroke-linejoin:round;">
<path d="M69750 34710
L69720 34740
L69630 34770
L69570 34770
L69490 34740
L69430 34690
L69400 34630
L69370 34510
L69370 34430
L69400 34310
L69430 34260
L69490 34200
L69570 34170
L69630 34170
L69720 34200
L69750 34230
" />
<path d="M70290 34770
L70000 34770
L70000 34170
" />
<path d="M70490 34770
L70490 34170
" />
<path d="M70840 34770
L70580 34430
" />
<path d="M70840 34170
L70490 34510
" />
<path d="M70950 34830
L71410 34830
" />
<path d="M71670 34170
L71780 34170
L71840 34200
L71900 34260
L71920 34370
L71920 34570
L71900 34690
L71840 34740
L71780 34770
L71670 34770
L71610 34740
L71550 34690
L71520 34570
L71520 34370
L71550 34260
L71610 34200
L71670 34170
" />
<path d="M72180 34170
L72180 34660
L72210 34710
L72240 34740
L72300 34770
L72410 34770
L72470 34740
L72500 34710
L72530 34660
L72530 34170
" />
<path d="M72730 34170
L73070 34170
" />
<path d="M72900 34770
L72900 34170
" />
</g>
<g style="fill:#848400; fill-opacity:0.0; 
stroke:#848400; stroke-width:100; stroke-opacity:1; 
stroke-linecap:round; stroke-linejoin:round;">
<polyline fill="none;"
points="68500,34500
68800,34800
69100,34800
69100,34200
68800,34200
68500,34500
" /> 
</g>
<g style="fill:#848400; fill-opacity:0.0; 
stroke:#848400; stroke-width:60; stroke-opacity:1; 
stroke-linecap:round; stroke-linejoin:round;">
<path d="M44620 41710
L44590 41740
L44500 41770
L44440 41770
L44360 41740
L44300 41690
L44270 41630
L44240 41510
L44240 41430
L44270 41310
L44300 41260
L44360 41200
L44440 41170
L44500 41170
L44590 41200
L44620 41230
" />
<path d="M45160 41770
L44870 41770
L44870 41170
" />
<path d="M45360 41770
L45360 41170
" />
<path d="M45710 41770
L45450 41430
" />
<path d="M45710 41170
L45360 41510
" />
<path d="M45820 41830
L46280 41830
" />
<path d="M46340 41170
L46680 41170
" />
<path d="M46510 41770
L46510 41170
" />
<path d="M46830 41170
L46970 41770
L47080 41340
L47200 41770
L47340 41170
" />
<path d="M47570 41770
L47570 41170
" />
<path d="M48030 41970
L47890 41970
L47890 41110
L48030 41110
" />
<path d="M48380 41170
L48430 41170
L48490 41200
L48520 41230
L48550 41290
L48580 41400
L48580 41540
L48550 41660
L48520 41710
L48490 41740
L48430 41770
L48380 41770
L48320 41740
L48290 41710
L48260 41660
L48230 41540
L48230 41400
L48260 41290
L48290 41230
L48320 41200
L48380 41170
" />
<path d="M48830 41710
L48860 41740
L48830 41770
L48800 41740
L48830 41710
L48830 41770
" />
<path d="M49120 41710
L49150 41740
L49120 41770
L49090 41740
L49120 41710
L49120 41770
" />
<path d="M49730 41770
L49380 41770
" />
<path d="M49560 41770
L49560 41170
L49500 41260
L49440 41310
L49380 41340
" />
<path d="M49930 41970
L50070 41970
L50070 41110
L49930 41110
" />
</g>
<g style="fill:#848400; fill-opacity:0.0; 
stroke:#848400; stroke-width:100; stroke-opacity:1; 
stroke-linecap:round; stroke-linejoin:round;">
<polyline fill="none;"
points="51000,41500
50700,41200
50400,41200
50400,41800
50700,41800
51000,41500
" /> 
</g>
<g style="fill:#848400; fill-opacity:0.0; 
stroke:#848400; stroke-width:60; stroke-opacity:1; 
stroke-linecap:round; stroke-linejoin:round;">
<path d="M66760 35760
L67240 36240
" />
<path d="M67240 35760
L66760 36240
" />
</g>
<g style="fill:#000084; fill-opacity:0.0; 
stroke:#000084; stroke-width:60; stroke-opacity:1; 
stroke-linecap:round; stroke-linejoin:round;">
<path d="M66760 37260
L67240 37740
" />
<path d="M67240 37260
L66760 37740
" />
</g>
<g style="fill:#008400; fill-opacity:0.0; 
stroke:#008400; stroke-width:60; stroke-opacity:1; 
stroke-linecap:round; stroke-linejoin:round;">
<path d="M53500 25500
L53500 28500
" />
<path d="M53500 27000
L52000 27000
" />
</g>
<g style="fill:#008400; fill-opacity:0.0; 
stroke:#008400; stroke-width:0; stroke-opacity:1; 
stroke-linecap:round; stroke-linejoin:round;">
</g>
<g style="fill:#008400; fill-opacity:1.0; 
stroke:#008400; stroke-width:100; stroke-opacity:1; 
stroke-linecap:round; stroke-linejoin:round;">
<circle cx="53500" cy="27000" r="200" /> 
</g>
<g style="fill:#008400; fill-opacity:1.0; 
stroke:#008400; stroke-width:60; stroke-opacity:1; 
stroke-linecap:round; stroke-linejoin:round;">
<path d="M57500 28500
L57500 27000
" />
<path d="M57500 27000
L61000 27000
" />
<path d="M61000 27000
L61000 29000
" />
</g>
<g style="fill:#008400; fill-opacity:1.0; 
stroke:#008400; stroke-width:0; stroke-opacity:1; 
stroke-linecap:round; stroke-linejoin:round;">
</g>
<g style="fill:#008400; fill-opacity:1.0; 
stroke:#008400; stroke-width:100; stroke-opacity:1; 
stroke-linecap:round; stroke-linejoin:round;">
<circle cx="57500" cy="27000" r="200" /> 
</g>
<g style="fill:#008400; fill-opacity:1.0; 
stroke:#008400; stroke-width:60; stroke-opacity:1; 
stroke-linecap:round; stroke-linejoin:round;">
</g>
<g style="fill:#0000C2; fill-opacity:1.0; 
stroke:#0000C2; stroke-width:60; stroke-opacity:1; 
stroke-linecap:round; stroke-linejoin:round;">
<path d="M43500 31000
L42500 31000
" />
<path d="M42500 31000
L42500 38500
" />
<path d="M42500 38500
L50000 38500
" />
<path d="M50000 38500
L50000 31000
" />
<path d="M50000 31000
L43000 31000
" />
</g> 
</svg>
