<?xml version="1.0" standalone="no"?>
 <!DOCTYPE svg PUBLIC "-//W3C//DTD SVG 1.1//EN" 
 "http://www.w3.org/Graphics/SVG/1.1/DTD/svg11.dtd"> 
<svg xmlns="http://www.w3.org/2000/svg" version="1.1" 
    width="7.79526cm" height="7.71144cm" viewBox="0 0 30690 30360 ">
<title>SVG Picture created as demux-panel--brd.svg date 2014/03/17 17:21:52 </title>
  <desc>Picture generated by PCBNEW </desc>
<g style="fill:#000000; fill-opacity:1;stroke:#000000; stroke-opacity:1;
stroke-linecap:round; stroke-linejoin:round; "
 transform="translate(0 0) scale(1 1)">
</g>
<g style="fill:#C2C200; fill-opacity:0.0; 
stroke:#C2C200; stroke-width:150; stroke-opacity:1; 
stroke-linecap:round; stroke-linejoin:round;">
<path d="M1596 30184
L1596 184
" />
<path d="M29096 30184
L1596 30184
" />
<path d="M29096 184
L29096 30184
" />
<path d="M1596 184
L29096 184
" />
</g>
<g style="fill:#840084; fill-opacity:0.0; 
stroke:#840084; stroke-width:59.0551; stroke-opacity:1; 
stroke-linecap:round; stroke-linejoin:round;">
<path d="M11913 18327
L11932 18346
L11989 18365
L12027 18365
L12084 18346
L12122 18308
L12141 18270
L12160 18194
L12160 18137
L12141 18060
L12122 18022
L12084 17984
L12027 17965
L11989 17965
L11932 17984
L11913 18003
" />
<path d="M11722 18365
L11646 18365
L11608 18346
L11589 18327
L11551 18270
L11532 18194
L11532 18041
L11551 18003
L11570 17984
L11608 17965
L11684 17965
L11722 17984
L11741 18003
L11760 18041
L11760 18137
L11741 18175
L11722 18194
L11684 18213
L11608 18213
L11570 18194
L11551 18175
L11532 18137
" />
<path d="M13484 17259
L13454 17259
L13423 17274
L13408 17289
L13393 17320
L13378 17381
L13378 17457
L13393 17518
L13408 17548
L13423 17564
L13454 17579
L13484 17579
L13515 17564
L13530 17548
L13545 17518
L13561 17457
L13561 17381
L13545 17320
L13530 17289
L13515 17274
L13484 17259
" />
<path d="M13241 17548
L13225 17564
L13241 17579
L13256 17564
L13241 17548
L13241 17579
" />
<path d="M12921 17579
L13103 17579
" />
<path d="M13012 17579
L13012 17259
L13043 17305
L13073 17335
L13103 17350
" />
<path d="M12646 17366
L12646 17579
" />
<path d="M12783 17366
L12783 17533
L12768 17564
L12738 17579
L12692 17579
L12662 17564
L12646 17548
" />
<path d="M19163 18327
L19182 18346
L19239 18365
L19277 18365
L19334 18346
L19372 18308
L19391 18270
L19410 18194
L19410 18137
L19391 18060
L19372 18022
L19334 17984
L19277 17965
L19239 17965
L19182 17984
L19163 18003
" />
<path d="M18934 18137
L18972 18117
L18991 18098
L19010 18060
L19010 18041
L18991 18003
L18972 17984
L18934 17965
L18858 17965
L18820 17984
L18801 18003
L18782 18041
L18782 18060
L18801 18098
L18820 18117
L18858 18137
L18934 18137
L18972 18156
L18991 18175
L19010 18213
L19010 18289
L18991 18327
L18972 18346
L18934 18365
L18858 18365
L18820 18346
L18801 18327
L18782 18289
L18782 18213
L18801 18175
L18820 18156
L18858 18137
" />
<path d="M17984 17359
L17954 17359
L17923 17374
L17908 17389
L17893 17420
L17878 17481
L17878 17557
L17893 17618
L17908 17648
L17923 17664
L17954 17679
L17984 17679
L18015 17664
L18030 17648
L18045 17618
L18061 17557
L18061 17481
L18045 17420
L18030 17389
L18015 17374
L17984 17359
" />
<path d="M17741 17648
L17725 17664
L17741 17679
L17756 17664
L17741 17648
L17741 17679
" />
<path d="M17421 17679
L17603 17679
" />
<path d="M17512 17679
L17512 17359
L17543 17405
L17573 17435
L17603 17450
" />
<path d="M17146 17466
L17146 17679
" />
<path d="M17283 17466
L17283 17633
L17268 17664
L17238 17679
L17192 17679
L17162 17664
L17146 17648
" />
<path d="M18913 12327
L18932 12346
L18989 12365
L19027 12365
L19084 12346
L19122 12308
L19141 12270
L19160 12194
L19160 12137
L19141 12060
L19122 12022
L19084 11984
L19027 11965
L18989 11965
L18932 11984
L18913 12003
" />
<path d="M18779 11965
L18532 11965
L18665 12117
L18608 12117
L18570 12137
L18551 12156
L18532 12194
L18532 12289
L18551 12327
L18570 12346
L18608 12365
L18722 12365
L18760 12346
L18779 12327
" />
<path d="M17984 12759
L17954 12759
L17923 12774
L17908 12789
L17893 12820
L17878 12881
L17878 12957
L17893 13018
L17908 13048
L17923 13064
L17954 13079
L17984 13079
L18015 13064
L18030 13048
L18045 13018
L18061 12957
L18061 12881
L18045 12820
L18030 12789
L18015 12774
L17984 12759
" />
<path d="M17741 13048
L17725 13064
L17741 13079
L17756 13064
L17741 13048
L17741 13079
" />
<path d="M17421 13079
L17603 13079
" />
<path d="M17512 13079
L17512 12759
L17543 12805
L17573 12835
L17603 12850
" />
<path d="M17146 12866
L17146 13079
" />
<path d="M17283 12866
L17283 13033
L17268 13064
L17238 13079
L17192 13079
L17162 13064
L17146 13048
" />
<path d="M11913 12327
L11932 12346
L11989 12365
L12027 12365
L12084 12346
L12122 12308
L12141 12270
L12160 12194
L12160 12137
L12141 12060
L12122 12022
L12084 11984
L12027 11965
L11989 11965
L11932 11984
L11913 12003
" />
<path d="M11760 12003
L11741 11984
L11703 11965
L11608 11965
L11570 11984
L11551 12003
L11532 12041
L11532 12079
L11551 12137
L11779 12365
L11532 12365
" />
<path d="M13484 12759
L13454 12759
L13423 12774
L13408 12789
L13393 12820
L13378 12881
L13378 12957
L13393 13018
L13408 13048
L13423 13064
L13454 13079
L13484 13079
L13515 13064
L13530 13048
L13545 13018
L13561 12957
L13561 12881
L13545 12820
L13530 12789
L13515 12774
L13484 12759
" />
<path d="M13241 13048
L13225 13064
L13241 13079
L13256 13064
L13241 13048
L13241 13079
" />
<path d="M12921 13079
L13103 13079
" />
<path d="M13012 13079
L13012 12759
L13043 12805
L13073 12835
L13103 12850
" />
<path d="M12646 12866
L12646 13079
" />
<path d="M12783 12866
L12783 13033
L12768 13064
L12738 13079
L12692 13079
L12662 13064
L12646 13048
" />
</g>
<g style="fill:#840084; fill-opacity:0.0; 
stroke:#840084; stroke-width:80; stroke-opacity:1; 
stroke-linecap:round; stroke-linejoin:round;">
<path d="M13570 23115
L13570 22715
L13436 23001
L13303 22715
L13303 23115
" />
<path d="M13113 22715
L13113 23039
L13093 23077
L13074 23096
L13036 23115
L12960 23115
L12922 23096
L12903 23077
L12884 23039
L12884 22715
" />
<path d="M12732 22715
L12465 23115
" />
<path d="M12465 22715
L12732 23115
" />
<path d="M12141 22848
L12141 23115
" />
<path d="M12236 22696
L12332 22982
L12084 22982
" />
<path d="M18570 7615
L18570 7215
L18436 7501
L18303 7215
L18303 7615
" />
<path d="M18113 7215
L18113 7539
L18093 7577
L18074 7596
L18036 7615
L17960 7615
L17922 7596
L17903 7577
L17884 7539
L17884 7215
" />
<path d="M17732 7215
L17465 7615
" />
<path d="M17465 7215
L17732 7615
" />
<path d="M17332 7253
L17313 7234
L17274 7215
L17179 7215
L17141 7234
L17122 7253
L17103 7291
L17103 7329
L17122 7387
L17351 7615
L17103 7615
" />
</g>
<g style="fill:#840084; fill-opacity:0.0; 
stroke:#840084; stroke-width:59.0551; stroke-opacity:1; 
stroke-linecap:round; stroke-linejoin:round;">
<path d="M13293 18499
L12899 18499
" />
<path d="M13293 17869
L12899 17869
" />
<path d="M17399 17869
L17793 17869
" />
<path d="M17399 18499
L17793 18499
" />
<path d="M17399 11869
L17793 11869
" />
<path d="M17399 12499
L17793 12499
" />
<path d="M13293 12499
L12899 12499
" />
<path d="M13293 11869
L12899 11869
" />
</g>
<g style="fill:#840084; fill-opacity:0.0; 
stroke:#840084; stroke-width:98.4252; stroke-opacity:1; 
stroke-linecap:round; stroke-linejoin:round;">
<path d="M14066 19208
L13869 19208
" />
<path d="M13869 19208
L13869 19405
" />
<path d="M16625 19208
L16822 19208
" />
<path d="M16822 19208
L16822 19405
" />
<path d="M13869 22161
L13751 22279
" />
<path d="M14066 22161
L13869 22161
" />
<path d="M13869 22161
L13869 21964
" />
<path d="M16625 22161
L16822 22161
" />
<path d="M16822 22161
L16822 21964
" />
<path d="M16625 11161
L16822 11161
" />
<path d="M16822 11161
L16822 10964
" />
<path d="M14066 11161
L13869 11161
" />
<path d="M13869 11161
L13869 10964
" />
<path d="M16822 8208
L16940 8090
" />
<path d="M16625 8208
L16822 8208
" />
<path d="M16822 8208
L16822 8405
" />
<path d="M14066 8208
L13869 8208
" />
<path d="M13869 8208
L13869 8405
" />
</g>
<g style="fill:#840000; fill-opacity:0.0; 
stroke:#840000; stroke-width:39.3701; stroke-opacity:1; 
stroke-linecap:round; stroke-linejoin:round;">
</g>
<g style="fill:#840000; fill-opacity:1.0; 
stroke:#840000; stroke-width:39.3701; stroke-opacity:1; 
stroke-linecap:round; stroke-linejoin:round;">
<circle cx="2846.35" cy="7684.65" r="570.866" /> 
<circle cx="2846.35" cy="22684.6" r="570.866" /> 
<circle cx="27846.4" cy="7684.65" r="570.866" /> 
<circle cx="27846.4" cy="22684.6" r="570.866" /> 
</g>
<g style="fill:#008400; fill-opacity:1.0; 
stroke:#008400; stroke-width:39.3701; stroke-opacity:1; 
stroke-linecap:round; stroke-linejoin:round;">
<polyline style="fill-rule:evenodd;"
points="13627,18007
13627,18361
13234,18361
13234,18007
13627,18007
" /> 
<polyline style="fill-rule:evenodd;"
points="12958,18007
12958,18361
12564,18361
12564,18007
12958,18007
" /> 
<polyline style="fill-rule:evenodd;"
points="17064,18361
17064,18007
17458,18007
17458,18361
17064,18361
" /> 
<polyline style="fill-rule:evenodd;"
points="17734,18361
17734,18007
18127,18007
18127,18361
17734,18361
" /> 
<polyline style="fill-rule:evenodd;"
points="17064,12361
17064,12007
17458,12007
17458,12361
17064,12361
" /> 
<polyline style="fill-rule:evenodd;"
points="17734,12361
17734,12007
18127,12007
18127,12361
17734,12361
" /> 
<polyline style="fill-rule:evenodd;"
points="13627,12007
13627,12361
13234,12361
13234,12007
13627,12007
" /> 
<polyline style="fill-rule:evenodd;"
points="12958,12007
12958,12361
12564,12361
12564,12007
12958,12007
" /> 
<polyline style="fill-rule:evenodd;"
points="13328,21806
13328,21727
13997,21727
13997,21806
13328,21806
" /> 
<polyline style="fill-rule:evenodd;"
points="13328,21609
13328,21531
13997,21531
13997,21609
13328,21609
" /> 
<polyline style="fill-rule:evenodd;"
points="13328,21412
13328,21334
13997,21334
13997,21412
13328,21412
" /> 
<polyline style="fill-rule:evenodd;"
points="13328,21216
13328,21137
13997,21137
13997,21216
13328,21216
" /> 
<polyline style="fill-rule:evenodd;"
points="13328,21019
13328,20940
13997,20940
13997,21019
13328,21019
" /> 
<polyline style="fill-rule:evenodd;"
points="13328,20822
13328,20743
13997,20743
13997,20822
13328,20822
" /> 
<polyline style="fill-rule:evenodd;"
points="13328,20625
13328,20546
13997,20546
13997,20625
13328,20625
" /> 
<polyline style="fill-rule:evenodd;"
points="13328,20428
13328,20350
13997,20350
13997,20428
13328,20428
" /> 
<polyline style="fill-rule:evenodd;"
points="13328,20231
13328,20153
13997,20153
13997,20231
13328,20231
" /> 
<polyline style="fill-rule:evenodd;"
points="13328,20035
13328,19956
13997,19956
13997,20035
13328,20035
" /> 
<polyline style="fill-rule:evenodd;"
points="13328,19838
13328,19759
13997,19759
13997,19838
13328,19838
" /> 
<polyline style="fill-rule:evenodd;"
points="13328,19641
13328,19562
13997,19562
13997,19641
13328,19641
" /> 
<polyline style="fill-rule:evenodd;"
points="16694,19641
16694,19562
17364,19562
17364,19641
16694,19641
" /> 
<polyline style="fill-rule:evenodd;"
points="16694,19838
16694,19759
17364,19759
17364,19838
16694,19838
" /> 
<polyline style="fill-rule:evenodd;"
points="16694,20035
16694,19956
17364,19956
17364,20035
16694,20035
" /> 
<polyline style="fill-rule:evenodd;"
points="16694,20231
16694,20153
17364,20153
17364,20231
16694,20231
" /> 
<polyline style="fill-rule:evenodd;"
points="16694,20428
16694,20350
17364,20350
17364,20428
16694,20428
" /> 
<polyline style="fill-rule:evenodd;"
points="16694,20625
16694,20546
17364,20546
17364,20625
16694,20625
" /> 
<polyline style="fill-rule:evenodd;"
points="16694,20822
16694,20743
17364,20743
17364,20822
16694,20822
" /> 
<polyline style="fill-rule:evenodd;"
points="16694,21019
16694,20940
17364,20940
17364,21019
16694,21019
" /> 
<polyline style="fill-rule:evenodd;"
points="16694,21216
16694,21137
17364,21137
17364,21216
16694,21216
" /> 
<polyline style="fill-rule:evenodd;"
points="16694,21412
16694,21334
17364,21334
17364,21412
16694,21412
" /> 
<polyline style="fill-rule:evenodd;"
points="16694,21609
16694,21531
17364,21531
17364,21609
16694,21609
" /> 
<polyline style="fill-rule:evenodd;"
points="16694,21806
16694,21727
17364,21727
17364,21806
16694,21806
" /> 
<polyline style="fill-rule:evenodd;"
points="16389,22033
16468,22033
16468,22702
16389,22702
16389,22033
" /> 
<polyline style="fill-rule:evenodd;"
points="16192,22033
16271,22033
16271,22702
16192,22702
16192,22033
" /> 
<polyline style="fill-rule:evenodd;"
points="15995,22033
16074,22033
16074,22702
15995,22702
15995,22033
" /> 
<polyline style="fill-rule:evenodd;"
points="15799,22033
15877,22033
15877,22702
15799,22702
15799,22033
" /> 
<polyline style="fill-rule:evenodd;"
points="15602,22033
15680,22033
15680,22702
15602,22702
15602,22033
" /> 
<polyline style="fill-rule:evenodd;"
points="15405,22033
15484,22033
15484,22702
15405,22702
15405,22033
" /> 
<polyline style="fill-rule:evenodd;"
points="15208,22033
15287,22033
15287,22702
15208,22702
15208,22033
" /> 
<polyline style="fill-rule:evenodd;"
points="15011,22033
15090,22033
15090,22702
15011,22702
15011,22033
" /> 
<polyline style="fill-rule:evenodd;"
points="14814,22033
14893,22033
14893,22702
14814,22702
14814,22033
" /> 
<polyline style="fill-rule:evenodd;"
points="14618,22033
14696,22033
14696,22702
14618,22702
14618,22033
" /> 
<polyline style="fill-rule:evenodd;"
points="14421,22033
14499,22033
14499,22702
14421,22702
14421,22033
" /> 
<polyline style="fill-rule:evenodd;"
points="14224,22033
14303,22033
14303,22702
14224,22702
14224,22033
" /> 
<polyline style="fill-rule:evenodd;"
points="14224,18666
14303,18666
14303,19336
14224,19336
14224,18666
" /> 
<polyline style="fill-rule:evenodd;"
points="14421,18666
14499,18666
14499,19336
14421,19336
14421,18666
" /> 
<polyline style="fill-rule:evenodd;"
points="14618,18666
14696,18666
14696,19336
14618,19336
14618,18666
" /> 
<polyline style="fill-rule:evenodd;"
points="14814,18666
14893,18666
14893,19336
14814,19336
14814,18666
" /> 
<polyline style="fill-rule:evenodd;"
points="15011,18666
15090,18666
15090,19336
15011,19336
15011,18666
" /> 
<polyline style="fill-rule:evenodd;"
points="15208,18666
15287,18666
15287,19336
15208,19336
15208,18666
" /> 
<polyline style="fill-rule:evenodd;"
points="15405,18666
15484,18666
15484,19336
15405,19336
15405,18666
" /> 
<polyline style="fill-rule:evenodd;"
points="15602,18666
15680,18666
15680,19336
15602,19336
15602,18666
" /> 
<polyline style="fill-rule:evenodd;"
points="15799,18666
15877,18666
15877,19336
15799,19336
15799,18666
" /> 
<polyline style="fill-rule:evenodd;"
points="15995,18666
16074,18666
16074,19336
15995,19336
15995,18666
" /> 
<polyline style="fill-rule:evenodd;"
points="16192,18666
16271,18666
16271,19336
16192,19336
16192,18666
" /> 
<polyline style="fill-rule:evenodd;"
points="16389,18666
16468,18666
16468,19336
16389,19336
16389,18666
" /> 
<polyline style="fill-rule:evenodd;"
points="17364,8562
17364,8641
16694,8641
16694,8562
17364,8562
" /> 
<polyline style="fill-rule:evenodd;"
points="17364,8759
17364,8838
16694,8838
16694,8759
17364,8759
" /> 
<polyline style="fill-rule:evenodd;"
points="17364,8956
17364,9035
16694,9035
16694,8956
17364,8956
" /> 
<polyline style="fill-rule:evenodd;"
points="17364,9153
17364,9231
16694,9231
16694,9153
17364,9153
" /> 
<polyline style="fill-rule:evenodd;"
points="17364,9350
17364,9428
16694,9428
16694,9350
17364,9350
" /> 
<polyline style="fill-rule:evenodd;"
points="17364,9546
17364,9625
16694,9625
16694,9546
17364,9546
" /> 
<polyline style="fill-rule:evenodd;"
points="17364,9743
17364,9822
16694,9822
16694,9743
17364,9743
" /> 
<polyline style="fill-rule:evenodd;"
points="17364,9940
17364,10019
16694,10019
16694,9940
17364,9940
" /> 
<polyline style="fill-rule:evenodd;"
points="17364,10137
17364,10216
16694,10216
16694,10137
17364,10137
" /> 
<polyline style="fill-rule:evenodd;"
points="17364,10334
17364,10412
16694,10412
16694,10334
17364,10334
" /> 
<polyline style="fill-rule:evenodd;"
points="17364,10531
17364,10609
16694,10609
16694,10531
17364,10531
" /> 
<polyline style="fill-rule:evenodd;"
points="17364,10727
17364,10806
16694,10806
16694,10727
17364,10727
" /> 
<polyline style="fill-rule:evenodd;"
points="13997,10727
13997,10806
13328,10806
13328,10727
13997,10727
" /> 
<polyline style="fill-rule:evenodd;"
points="13997,10531
13997,10609
13328,10609
13328,10531
13997,10531
" /> 
<polyline style="fill-rule:evenodd;"
points="13997,10334
13997,10412
13328,10412
13328,10334
13997,10334
" /> 
<polyline style="fill-rule:evenodd;"
points="13997,10137
13997,10216
13328,10216
13328,10137
13997,10137
" /> 
<polyline style="fill-rule:evenodd;"
points="13997,9940
13997,10019
13328,10019
13328,9940
13997,9940
" /> 
<polyline style="fill-rule:evenodd;"
points="13997,9743
13997,9822
13328,9822
13328,9743
13997,9743
" /> 
<polyline style="fill-rule:evenodd;"
points="13997,9546
13997,9625
13328,9625
13328,9546
13997,9546
" /> 
<polyline style="fill-rule:evenodd;"
points="13997,9350
13997,9428
13328,9428
13328,9350
13997,9350
" /> 
<polyline style="fill-rule:evenodd;"
points="13997,9153
13997,9231
13328,9231
13328,9153
13997,9153
" /> 
<polyline style="fill-rule:evenodd;"
points="13997,8956
13997,9035
13328,9035
13328,8956
13997,8956
" /> 
<polyline style="fill-rule:evenodd;"
points="13997,8759
13997,8838
13328,8838
13328,8759
13997,8759
" /> 
<polyline style="fill-rule:evenodd;"
points="13997,8562
13997,8641
13328,8641
13328,8562
13997,8562
" /> 
<polyline style="fill-rule:evenodd;"
points="14303,8336
14224,8336
14224,7666
14303,7666
14303,8336
" /> 
<polyline style="fill-rule:evenodd;"
points="14499,8336
14421,8336
14421,7666
14499,7666
14499,8336
" /> 
<polyline style="fill-rule:evenodd;"
points="14696,8336
14618,8336
14618,7666
14696,7666
14696,8336
" /> 
<polyline style="fill-rule:evenodd;"
points="14893,8336
14814,8336
14814,7666
14893,7666
14893,8336
" /> 
<polyline style="fill-rule:evenodd;"
points="15090,8336
15011,8336
15011,7666
15090,7666
15090,8336
" /> 
<polyline style="fill-rule:evenodd;"
points="15287,8336
15208,8336
15208,7666
15287,7666
15287,8336
" /> 
<polyline style="fill-rule:evenodd;"
points="15484,8336
15405,8336
15405,7666
15484,7666
15484,8336
" /> 
<polyline style="fill-rule:evenodd;"
points="15680,8336
15602,8336
15602,7666
15680,7666
15680,8336
" /> 
<polyline style="fill-rule:evenodd;"
points="15877,8336
15799,8336
15799,7666
15877,7666
15877,8336
" /> 
<polyline style="fill-rule:evenodd;"
points="16074,8336
15995,8336
15995,7666
16074,7666
16074,8336
" /> 
<polyline style="fill-rule:evenodd;"
points="16271,8336
16192,8336
16192,7666
16271,7666
16271,8336
" /> 
<polyline style="fill-rule:evenodd;"
points="16468,8336
16389,8336
16389,7666
16468,7666
16468,8336
" /> 
<polyline style="fill-rule:evenodd;"
points="16468,11702
16389,11702
16389,11033
16468,11033
16468,11702
" /> 
<polyline style="fill-rule:evenodd;"
points="16271,11702
16192,11702
16192,11033
16271,11033
16271,11702
" /> 
<polyline style="fill-rule:evenodd;"
points="16074,11702
15995,11702
15995,11033
16074,11033
16074,11702
" /> 
<polyline style="fill-rule:evenodd;"
points="15877,11702
15799,11702
15799,11033
15877,11033
15877,11702
" /> 
<polyline style="fill-rule:evenodd;"
points="15680,11702
15602,11702
15602,11033
15680,11033
15680,11702
" /> 
<polyline style="fill-rule:evenodd;"
points="15484,11702
15405,11702
15405,11033
15484,11033
15484,11702
" /> 
<polyline style="fill-rule:evenodd;"
points="15287,11702
15208,11702
15208,11033
15287,11033
15287,11702
" /> 
<polyline style="fill-rule:evenodd;"
points="15090,11702
15011,11702
15011,11033
15090,11033
15090,11702
" /> 
<polyline style="fill-rule:evenodd;"
points="14893,11702
14814,11702
14814,11033
14893,11033
14893,11702
" /> 
<polyline style="fill-rule:evenodd;"
points="14696,11702
14618,11702
14618,11033
14696,11033
14696,11702
" /> 
<polyline style="fill-rule:evenodd;"
points="14499,11702
14421,11702
14421,11033
14499,11033
14499,11702
" /> 
<polyline style="fill-rule:evenodd;"
points="14303,11702
14224,11702
14224,11033
14303,11033
14303,11702
" /> 
</g>
<g style="fill:#840000; fill-opacity:1.0; 
stroke:#840000; stroke-width:39.3701; stroke-opacity:1; 
stroke-linecap:round; stroke-linejoin:round;">
<polyline style="fill-rule:evenodd;"
points="7041,14989
7041,14379
7651,14379
7651,14989
7041,14989
" /> 
<circle cx="7346.35" cy="15684.6" r="305.118" /> 
<circle cx="8346.35" cy="14684.6" r="305.118" /> 
<circle cx="8346.35" cy="15684.6" r="305.118" /> 
<circle cx="9346.35" cy="14684.6" r="305.118" /> 
<circle cx="9346.35" cy="15684.6" r="305.118" /> 
<circle cx="10346.4" cy="14684.6" r="305.118" /> 
<circle cx="10346.4" cy="15684.6" r="305.118" /> 
<circle cx="11346.4" cy="14684.6" r="305.118" /> 
<circle cx="11346.4" cy="15684.6" r="305.118" /> 
<polyline style="fill-rule:evenodd;"
points="19041,14989
19041,14379
19651,14379
19651,14989
19041,14989
" /> 
<circle cx="19346.4" cy="15684.6" r="305.118" /> 
<circle cx="20346.4" cy="14684.6" r="305.118" /> 
<circle cx="20346.4" cy="15684.6" r="305.118" /> 
<circle cx="21346.4" cy="14684.6" r="305.118" /> 
<circle cx="21346.4" cy="15684.6" r="305.118" /> 
<circle cx="22346.4" cy="14684.6" r="305.118" /> 
<circle cx="22346.4" cy="15684.6" r="305.118" /> 
<circle cx="23346.4" cy="14684.6" r="305.118" /> 
<circle cx="23346.4" cy="15684.6" r="305.118" /> 
<polyline style="fill-rule:evenodd;"
points="14041,14989
14041,14379
14651,14379
14651,14989
14041,14989
" /> 
<circle cx="15346.4" cy="14684.6" r="305.118" /> 
<circle cx="14346.4" cy="15684.6" r="305.118" /> 
<circle cx="15346.4" cy="15684.6" r="305.118" /> 
<circle cx="16346.4" cy="14684.6" r="305.118" /> 
<circle cx="16346.4" cy="15684.6" r="305.118" /> 
<polyline style="fill-rule:evenodd;"
points="24541,11239
24541,10629
25151,10629
25151,11239
24541,11239
" /> 
<circle cx="24846.4" cy="11934.6" r="305.118" /> 
<circle cx="25846.4" cy="10934.6" r="305.118" /> 
<circle cx="25846.4" cy="11934.6" r="305.118" /> 
<polyline style="fill-rule:evenodd;"
points="24541,18739
24541,18129
25151,18129
25151,18739
24541,18739
" /> 
<circle cx="24846.4" cy="19434.6" r="305.118" /> 
<circle cx="25846.4" cy="18434.6" r="305.118" /> 
<circle cx="25846.4" cy="19434.6" r="305.118" /> 
<circle cx="25602.3" cy="26578.3" r="255.906" /> 
<circle cx="25602.3" cy="25790.9" r="255.906" /> 
<circle cx="24814.9" cy="26578.3" r="255.906" /> 
<circle cx="24814.9" cy="25790.9" r="255.906" /> 
<circle cx="24027.5" cy="26578.3" r="255.906" /> 
<circle cx="24027.5" cy="25790.9" r="255.906" /> 
<circle cx="23240.1" cy="26578.3" r="255.906" /> 
<circle cx="23240.1" cy="25790.9" r="255.906" /> 
<circle cx="22452.7" cy="26578.3" r="255.906" /> 
<circle cx="22452.7" cy="25790.9" r="255.906" /> 
<circle cx="21665.2" cy="26578.3" r="255.906" /> 
<circle cx="21665.2" cy="25790.9" r="255.906" /> 
<circle cx="20877.8" cy="26578.3" r="255.906" /> 
<circle cx="20877.8" cy="25790.9" r="255.906" /> 
<circle cx="20090.4" cy="26578.3" r="255.906" /> 
<circle cx="20090.4" cy="25790.9" r="255.906" /> 
<circle cx="10602.3" cy="26578.3" r="255.906" /> 
<circle cx="10602.3" cy="25790.9" r="255.906" /> 
<circle cx="9814.86" cy="26578.3" r="255.906" /> 
<circle cx="9814.86" cy="25790.9" r="255.906" /> 
<circle cx="9027.45" cy="26578.3" r="255.906" /> 
<circle cx="9027.45" cy="25790.9" r="255.906" /> 
<circle cx="8240.05" cy="26578.3" r="255.906" /> 
<circle cx="8240.05" cy="25790.9" r="255.906" /> 
<circle cx="7452.65" cy="26578.3" r="255.906" /> 
<circle cx="7452.65" cy="25790.9" r="255.906" /> 
<circle cx="6665.25" cy="26578.3" r="255.906" /> 
<circle cx="6665.25" cy="25790.9" r="255.906" /> 
<circle cx="5877.85" cy="26578.3" r="255.906" /> 
<circle cx="5877.85" cy="25790.9" r="255.906" /> 
<circle cx="5090.45" cy="26578.3" r="255.906" /> 
<circle cx="5090.45" cy="25790.9" r="255.906" /> 
<circle cx="20090.4" cy="3790.95" r="255.906" /> 
<circle cx="20090.4" cy="4578.35" r="255.906" /> 
<circle cx="20877.8" cy="3790.95" r="255.906" /> 
<circle cx="20877.8" cy="4578.35" r="255.906" /> 
<circle cx="21665.2" cy="3790.95" r="255.906" /> 
<circle cx="21665.2" cy="4578.35" r="255.906" /> 
<circle cx="22452.7" cy="3790.95" r="255.906" /> 
<circle cx="22452.7" cy="4578.35" r="255.906" /> 
<circle cx="23240.1" cy="3790.95" r="255.906" /> 
<circle cx="23240.1" cy="4578.35" r="255.906" /> 
<circle cx="24027.5" cy="3790.95" r="255.906" /> 
<circle cx="24027.5" cy="4578.35" r="255.906" /> 
<circle cx="24814.9" cy="3790.95" r="255.906" /> 
<circle cx="24814.9" cy="4578.35" r="255.906" /> 
<circle cx="25602.3" cy="3790.95" r="255.906" /> 
<circle cx="25602.3" cy="4578.35" r="255.906" /> 
<circle cx="5090.45" cy="3790.95" r="255.906" /> 
<circle cx="5090.45" cy="4578.35" r="255.906" /> 
<circle cx="5877.85" cy="3790.95" r="255.906" /> 
<circle cx="5877.85" cy="4578.35" r="255.906" /> 
<circle cx="6665.25" cy="3790.95" r="255.906" /> 
<circle cx="6665.25" cy="4578.35" r="255.906" /> 
<circle cx="7452.65" cy="3790.95" r="255.906" /> 
<circle cx="7452.65" cy="4578.35" r="255.906" /> 
<circle cx="8240.05" cy="3790.95" r="255.906" /> 
<circle cx="8240.05" cy="4578.35" r="255.906" /> 
<circle cx="9027.45" cy="3790.95" r="255.906" /> 
<circle cx="9027.45" cy="4578.35" r="255.906" /> 
<circle cx="9814.86" cy="3790.95" r="255.906" /> 
<circle cx="9814.86" cy="4578.35" r="255.906" /> 
<circle cx="10602.3" cy="3790.95" r="255.906" /> 
<circle cx="10602.3" cy="4578.35" r="255.906" /> 
<circle cx="14796.4" cy="5184.65" r="314.961" /> 
<circle cx="15796.4" cy="5184.65" r="314.961" /> 
<circle cx="16296.4" cy="1784.65" r="650.315" /> 
<circle cx="14296.4" cy="1784.65" r="650.315" /> 
<circle cx="15846.4" cy="25184.6" r="314.961" /> 
<circle cx="14846.4" cy="25184.6" r="314.961" /> 
<circle cx="14346.4" cy="28584.6" r="650.315" /> 
<circle cx="16346.4" cy="28584.6" r="650.315" /> 
<circle cx="27740.1" cy="14184.6" r="255.906" /> 
<circle cx="26952.7" cy="14184.6" r="255.906" /> 
<circle cx="26952.7" cy="16434.6" r="255.906" /> 
<circle cx="27740.1" cy="16434.6" r="255.906" /> 
</g>
<g style="fill:#C2C2C2; fill-opacity:1.0; 
stroke:#C2C2C2; stroke-width:39.3701; stroke-opacity:1; 
stroke-linecap:round; stroke-linejoin:round;">
<circle cx="4196.35" cy="29284.6" r="230.315" /> 
<circle cx="7846.35" cy="28034.6" r="230.315" /> 
<circle cx="11496.4" cy="29284.6" r="230.315" /> 
<circle cx="19146.4" cy="29384.6" r="230.315" /> 
<circle cx="22896.4" cy="28084.6" r="230.315" /> 
<circle cx="27296.4" cy="28634.6" r="230.315" /> 
<circle cx="27396.4" cy="24584.6" r="230.315" /> 
<circle cx="27046.4" cy="10084.6" r="230.315" /> 
<circle cx="25246.4" cy="8934.65" r="230.315" /> 
<circle cx="26446.4" cy="1134.65" r="230.315" /> 
<circle cx="22846.4" cy="2384.65" r="230.315" /> 
<circle cx="19196.4" cy="1134.65" r="230.315" /> 
<circle cx="11496.4" cy="1084.65" r="230.315" /> 
<circle cx="7846.35" cy="2234.65" r="230.315" /> 
<circle cx="4996.35" cy="1134.65" r="230.315" /> 
<circle cx="4196.35" cy="15284.6" r="230.315" /> 
<circle cx="8946.35" cy="11584.6" r="230.315" /> 
<circle cx="5046.35" cy="12434.6" r="230.315" /> 
<circle cx="4046.35" cy="17584.6" r="230.315" /> 
<circle cx="6046.35" cy="18234.6" r="230.315" /> 
<circle cx="6046.35" cy="19634.6" r="230.315" /> 
<circle cx="4046.35" cy="18984.6" r="230.315" /> 
<circle cx="5046.35" cy="10334.6" r="230.315" /> 
<circle cx="4046.35" cy="20384.6" r="230.315" /> 
<circle cx="14296.4" cy="17784.6" r="180.315" /> 
<circle cx="12296.4" cy="18634.6" r="180.315" /> 
<circle cx="12296.4" cy="11734.6" r="180.315" /> 
<circle cx="14296.4" cy="12584.6" r="180.315" /> 
<circle cx="16396.4" cy="12584.6" r="180.315" /> 
<circle cx="18396.4" cy="11734.6" r="180.315" /> 
<circle cx="18396.4" cy="18634.6" r="180.315" /> 
<circle cx="16396.4" cy="17784.6" r="180.315" /> 
<circle cx="27846.4" cy="18434.6" r="230.315" /> 
<circle cx="27846.4" cy="19434.6" r="230.315" /> 
<circle cx="13496.4" cy="18834.6" r="180.315" /> 
<circle cx="13496.4" cy="11534.6" r="180.315" /> 
<circle cx="17196.4" cy="11534.6" r="180.315" /> 
<circle cx="17196.4" cy="18834.6" r="180.315" /> 
<circle cx="26846.4" cy="18934.6" r="230.315" /> 
<circle cx="11096.4" cy="17884.6" r="230.315" /> 
<circle cx="11096.4" cy="12184.6" r="230.315" /> 
<circle cx="23346.4" cy="18934.6" r="230.315" /> 
<circle cx="22346.4" cy="18434.6" r="230.315" /> 
<circle cx="22346.4" cy="19434.6" r="230.315" /> 
</g>
<g style="fill:#008400; fill-opacity:1.0; 
stroke:#008400; stroke-width:80; stroke-opacity:1; 
stroke-linecap:round; stroke-linejoin:round;">
<path d="M21396 12941
L21553 12941
" />
<path d="M23196 13834
L23346 13984
" />
<path d="M22446 13834
L23196 13834
" />
<path d="M21553 12941
L22446 13834
" />
<path d="M23346 14684
L23346 13984
" />
<path d="M14086 17434
L14490 17434
" />
<path d="M14657 17601
L14657 19001
" />
<path d="M14490 17434
L14657 17601
" />
<path d="M7346 15684
L7346 16384
" />
<path d="M7496 16534
L7346 16384
" />
<path d="M8246 16534
L7496 16534
" />
<path d="M9146 17434
L8246 16534
" />
<path d="M14086 17434
L14086 17434
" />
<path d="M14086 17434
L9146 17434
" />
<path d="M16035 12773
L16035 11367
" />
<path d="M16203 12941
L16035 12773
" />
<path d="M21396 12941
L16203 12941
" />
<path d="M22346 13981
L22346 14681
" />
<path d="M22196 13831
L22346 13981
" />
<path d="M14596 17284
L14854 17542
" />
<path d="M14596 17284
L9996 17284
" />
<path d="M9996 17284
L9246 16534
" />
<path d="M9246 16534
L8496 16534
" />
<path d="M8496 16534
L8346 16384
" />
<path d="M8346 15684
L8346 16384
" />
<path d="M14854 17542
L14854 19001
" />
<path d="M16096 13081
L15838 12823
" />
<path d="M15838 12823
L15838 11367
" />
<path d="M16096 13081
L16096 13081
" />
<path d="M16096 13081
L20696 13081
" />
<path d="M20696 13081
L21446 13831
" />
<path d="M21446 13831
L22196 13831
" />
<path d="M21346 13981
L21346 14681
" />
<path d="M21196 13831
L21346 13981
" />
<path d="M14696 17134
L15051 17489
" />
<path d="M14696 17134
L10696 17134
" />
<path d="M10696 17134
L10096 16534
" />
<path d="M10096 16534
L9496 16534
" />
<path d="M9496 16534
L9346 16384
" />
<path d="M9346 15684
L9346 16384
" />
<path d="M15051 17489
L15051 19001
" />
<path d="M15996 13231
L15641 12876
" />
<path d="M15641 12876
L15641 11367
" />
<path d="M15996 13231
L15996 13231
" />
<path d="M15996 13231
L19996 13231
" />
<path d="M19996 13231
L20596 13831
" />
<path d="M20596 13831
L21196 13831
" />
<path d="M20346 13981
L20346 14681
" />
<path d="M20196 13831
L20346 13981
" />
<path d="M14796 16984
L15247 17436
" />
<path d="M14796 16984
L11146 16984
" />
<path d="M11146 16984
L10696 16534
" />
<path d="M10696 16534
L10496 16534
" />
<path d="M10496 16534
L10346 16384
" />
<path d="M10346 15684
L10346 16384
" />
<path d="M15247 17436
L15247 19001
" />
<path d="M15896 13381
L15444 12930
" />
<path d="M15444 12930
L15444 11367
" />
<path d="M15896 13381
L15896 13381
" />
<path d="M15896 13381
L19546 13381
" />
<path d="M19546 13381
L19996 13831
" />
<path d="M19996 13831
L20196 13831
" />
<path d="M19346 14684
L19346 13684
" />
<path d="M19346 13684
L19346 13681
" />
<path d="M19196 13531
L19346 13681
" />
<path d="M19346 13681
L19346 13681
" />
<path d="M14896 16834
L15444 17383
" />
<path d="M14896 16834
L11496 16834
" />
<path d="M11496 16834
L11346 16684
" />
<path d="M11346 15684
L11346 16684
" />
<path d="M15444 17383
L15444 19001
" />
<path d="M15796 13531
L15247 12983
" />
<path d="M15247 12983
L15247 11367
" />
<path d="M15796 13531
L15796 13531
" />
<path d="M15796 13531
L19196 13531
" />
<path d="M15641 19001
L15641 17329
" />
<path d="M15641 17329
L14746 16434
" />
<path d="M14746 16434
L14296 16434
" />
<path d="M14296 16434
L13796 15934
" />
<path d="M13796 15934
L13796 15234
" />
<path d="M13796 15234
L14346 14684
" />
<path d="M15641 17329
L14746 16434
" />
<path d="M15051 11367
L15051 13489
" />
<path d="M15051 13489
L15846 14284
" />
<path d="M15846 14284
L15846 15184
" />
<path d="M15846 15184
L16346 15684
" />
<path d="M16035 19001
L16035 16745
" />
<path d="M16896 15234
L16346 14684
" />
<path d="M16896 15884
L16896 15234
" />
<path d="M16035 16745
L16896 15884
" />
<path d="M14657 11367
L14657 13945
" />
<path d="M14846 15184
L14346 15684
" />
<path d="M14846 14134
L14846 15184
" />
<path d="M14657 13945
L14846 14134
" />
<path d="M15444 8001
L15444 5536
" />
<path d="M15444 5536
L15796 5184
" />
<path d="M15247 22367
L15247 24783
" />
<path d="M15247 24783
L14846 25184
" />
<path d="M5090 3790
L4696 4184
" />
<path d="M10492 10767
L13663 10767
" />
<path d="M8830 9105
L10492 10767
" />
<path d="M7846 9105
L8830 9105
" />
<path d="M4696 5956
L7846 9105
" />
<path d="M4696 4184
L4696 5956
" />
<path d="M13663 8995
L12263 8995
" />
<path d="M8240 5956
L8240 4578
" />
<path d="M9618 7334
L8240 5956
" />
<path d="M10602 7334
L9618 7334
" />
<path d="M12263 8995
L10602 7334
" />
<path d="M9027 3790
L8633 4184
" />
<path d="M12460 8798
L13663 8798
" />
<path d="M10799 7137
L12460 8798
" />
<path d="M9814 7137
L10799 7137
" />
<path d="M8633 5956
L9814 7137
" />
<path d="M8633 4184
L8633 5956
" />
<path d="M13663 8601
L12657 8601
" />
<path d="M9027 5956
L9027 4578
" />
<path d="M10011 6940
L9027 5956
" />
<path d="M10995 6940
L10011 6940
" />
<path d="M12657 8601
L10995 6940
" />
<path d="M9814 3790
L9421 4184
" />
<path d="M14263 7255
L14263 8001
" />
<path d="M13751 6743
L14263 7255
" />
<path d="M10208 6743
L13751 6743
" />
<path d="M9421 5956
L10208 6743
" />
<path d="M9421 4184
L9421 5956
" />
<path d="M14460 8001
L14460 7058
" />
<path d="M9814 5956
L9814 4578
" />
<path d="M10405 6546
L9814 5956
" />
<path d="M13948 6546
L10405 6546
" />
<path d="M14460 7058
L13948 6546
" />
<path d="M10602 3790
L10208 4184
" />
<path d="M14657 6861
L14657 8001
" />
<path d="M14145 6350
L14657 6861
" />
<path d="M10602 6350
L14145 6350
" />
<path d="M10208 5956
L10602 6350
" />
<path d="M10208 4184
L10208 5956
" />
<path d="M14854 8001
L14854 6664
" />
<path d="M10602 5759
L10602 4578
" />
<path d="M10995 6153
L10602 5759
" />
<path d="M14342 6153
L10995 6153
" />
<path d="M14854 6664
L14342 6153
" />
<path d="M15838 8001
L15838 6664
" />
<path d="M19696 4184
L20090 3790
" />
<path d="M19696 5562
L19696 4184
" />
<path d="M19106 6153
L19696 5562
" />
<path d="M16350 6153
L19106 6153
" />
<path d="M15838 6664
L16350 6153
" />
<path d="M20090 4578
L20090 5562
" />
<path d="M16035 6861
L16035 8001
" />
<path d="M16547 6350
L16035 6861
" />
<path d="M19303 6350
L16547 6350
" />
<path d="M20090 5562
L19303 6350
" />
<path d="M16232 8001
L16232 7058
" />
<path d="M20484 4184
L20877 3790
" />
<path d="M20484 5562
L20484 4184
" />
<path d="M19499 6546
L20484 5562
" />
<path d="M16743 6546
L19499 6546
" />
<path d="M16232 7058
L16743 6546
" />
<path d="M13663 10570
L10688 10570
" />
<path d="M5090 5956
L5090 4578
" />
<path d="M8043 8909
L5090 5956
" />
<path d="M9027 8909
L8043 8909
" />
<path d="M10688 10570
L9027 8909
" />
<path d="M20877 4578
L20877 5759
" />
<path d="M16429 7255
L16429 8001
" />
<path d="M16940 6743
L16429 7255
" />
<path d="M19893 6743
L16940 6743
" />
<path d="M20877 5759
L19893 6743
" />
<path d="M17029 8601
L18035 8601
" />
<path d="M21271 4184
L21665 3790
" />
<path d="M21271 5956
L21271 4184
" />
<path d="M20287 6940
L21271 5956
" />
<path d="M19696 6940
L20287 6940
" />
<path d="M18035 8601
L19696 6940
" />
<path d="M17029 8798
L18232 8798
" />
<path d="M21665 5956
L21665 4578
" />
<path d="M20484 7137
L21665 5956
" />
<path d="M19893 7137
L20484 7137
" />
<path d="M18232 8798
L19893 7137
" />
<path d="M22452 3790
L22058 4184
" />
<path d="M18429 8995
L17029 8995
" />
<path d="M20090 7334
L18429 8995
" />
<path d="M20680 7334
L20090 7334
" />
<path d="M22058 5956
L20680 7334
" />
<path d="M22058 4184
L22058 5956
" />
<path d="M17029 9192
L18625 9192
" />
<path d="M22452 5956
L22452 4578
" />
<path d="M20877 7531
L22452 5956
" />
<path d="M20287 7531
L20877 7531
" />
<path d="M18625 9192
L20287 7531
" />
<path d="M23240 3790
L22846 4184
" />
<path d="M18822 9389
L17029 9389
" />
<path d="M20484 7727
L18822 9389
" />
<path d="M21074 7727
L20484 7727
" />
<path d="M22846 5956
L21074 7727
" />
<path d="M22846 4184
L22846 5956
" />
<path d="M17029 9586
L19019 9586
" />
<path d="M23240 5956
L23240 4578
" />
<path d="M21271 7924
L23240 5956
" />
<path d="M20680 7924
L21271 7924
" />
<path d="M19019 9586
L20680 7924
" />
<path d="M17029 9783
L19216 9783
" />
<path d="M23633 4184
L24027 3790
" />
<path d="M23633 5956
L23633 4184
" />
<path d="M21468 8121
L23633 5956
" />
<path d="M20877 8121
L21468 8121
" />
<path d="M19216 9783
L20877 8121
" />
<path d="M24027 4578
L24027 5956
" />
<path d="M19413 9979
L17029 9979
" />
<path d="M21074 8318
L19413 9979
" />
<path d="M21665 8318
L21074 8318
" />
<path d="M24027 5956
L21665 8318
" />
<path d="M17029 10176
L19610 10176
" />
<path d="M24421 4184
L24814 3790
" />
<path d="M24421 5956
L24421 4184
" />
<path d="M21862 8515
L24421 5956
" />
<path d="M21271 8515
L21862 8515
" />
<path d="M19610 10176
L21271 8515
" />
<path d="M5877 3790
L5484 4184
" />
<path d="M10885 10373
L13663 10373
" />
<path d="M9224 8712
L10885 10373
" />
<path d="M8240 8712
L9224 8712
" />
<path d="M5484 5956
L8240 8712
" />
<path d="M5484 4184
L5484 5956
" />
<path d="M17029 10373
L19806 10373
" />
<path d="M24814 5956
L24814 4578
" />
<path d="M22058 8712
L24814 5956
" />
<path d="M21468 8712
L22058 8712
" />
<path d="M19806 10373
L21468 8712
" />
<path d="M17029 10570
L20003 10570
" />
<path d="M25208 4184
L25602 3790
" />
<path d="M25208 5956
L25208 4184
" />
<path d="M22255 8909
L25208 5956
" />
<path d="M21665 8909
L22255 8909
" />
<path d="M20003 10570
L21665 8909
" />
<path d="M17029 10767
L20200 10767
" />
<path d="M25602 5956
L25602 4578
" />
<path d="M22452 9105
L25602 5956
" />
<path d="M21862 9105
L22452 9105
" />
<path d="M20200 10767
L21862 9105
" />
<path d="M13663 10176
L11082 10176
" />
<path d="M5877 5956
L5877 4578
" />
<path d="M8436 8515
L5877 5956
" />
<path d="M9421 8515
L8436 8515
" />
<path d="M11082 10176
L9421 8515
" />
<path d="M6665 3790
L6271 4184
" />
<path d="M11279 9979
L13663 9979
" />
<path d="M9618 8318
L11279 9979
" />
<path d="M8633 8318
L9618 8318
" />
<path d="M6271 5956
L8633 8318
" />
<path d="M6271 4184
L6271 5956
" />
<path d="M13663 9783
L11476 9783
" />
<path d="M6665 5956
L6665 4578
" />
<path d="M8830 8121
L6665 5956
" />
<path d="M9814 8121
L8830 8121
" />
<path d="M11476 9783
L9814 8121
" />
<path d="M7452 3790
L7058 4184
" />
<path d="M11673 9586
L13663 9586
" />
<path d="M10011 7924
L11673 9586
" />
<path d="M9027 7924
L10011 7924
" />
<path d="M7058 5956
L9027 7924
" />
<path d="M7058 4184
L7058 5956
" />
<path d="M13663 9389
L11869 9389
" />
<path d="M7452 5956
L7452 4578
" />
<path d="M9224 7727
L7452 5956
" />
<path d="M10208 7727
L9224 7727
" />
<path d="M11869 9389
L10208 7727
" />
<path d="M8240 3790
L7846 4184
" />
<path d="M12066 9192
L13663 9192
" />
<path d="M10405 7531
L12066 9192
" />
<path d="M9421 7531
L10405 7531
" />
<path d="M7846 5956
L9421 7531
" />
<path d="M7846 4184
L7846 5956
" />
<path d="M17029 19601
L20200 19601
" />
<path d="M25995 26184
L25602 26578
" />
<path d="M25995 24412
L25995 26184
" />
<path d="M22846 21263
L25995 24412
" />
<path d="M21862 21263
L22846 21263
" />
<path d="M20200 19601
L21862 21263
" />
<path d="M22452 25790
L22452 24412
" />
<path d="M18429 21373
L17029 21373
" />
<path d="M20090 23035
L18429 21373
" />
<path d="M21074 23035
L20090 23035
" />
<path d="M22452 24412
L21074 23035
" />
<path d="M17029 21570
L18232 21570
" />
<path d="M22058 26184
L21665 26578
" />
<path d="M22058 24412
L22058 26184
" />
<path d="M20877 23231
L22058 24412
" />
<path d="M19893 23231
L20877 23231
" />
<path d="M18232 21570
L19893 23231
" />
<path d="M21665 25790
L21665 24412
" />
<path d="M18035 21767
L17029 21767
" />
<path d="M19696 23428
L18035 21767
" />
<path d="M20680 23428
L19696 23428
" />
<path d="M21665 24412
L20680 23428
" />
<path d="M16429 22367
L16429 23212
" />
<path d="M21271 26184
L20877 26578
" />
<path d="M21271 24412
L21271 26184
" />
<path d="M20484 23625
L21271 24412
" />
<path d="M16842 23625
L20484 23625
" />
<path d="M16429 23212
L16842 23625
" />
<path d="M20877 25790
L20877 24412
" />
<path d="M16232 23409
L16232 22367
" />
<path d="M16645 23822
L16232 23409
" />
<path d="M20287 23822
L16645 23822
" />
<path d="M20877 24412
L20287 23822
" />
<path d="M16035 22367
L16035 23605
" />
<path d="M20484 26184
L20090 26578
" />
<path d="M20484 24412
L20484 26184
" />
<path d="M20090 24019
L20484 24412
" />
<path d="M16448 24019
L20090 24019
" />
<path d="M16035 23605
L16448 24019
" />
<path d="M20090 25790
L20090 24412
" />
<path d="M15838 23802
L15838 22367
" />
<path d="M16251 24216
L15838 23802
" />
<path d="M19893 24216
L16251 24216
" />
<path d="M20090 24412
L19893 24216
" />
<path d="M14854 22367
L14854 23704
" />
<path d="M10995 26184
L10602 26578
" />
<path d="M10995 24412
L10995 26184
" />
<path d="M11291 24117
L10995 24412
" />
<path d="M14440 24117
L11291 24117
" />
<path d="M14854 23704
L14440 24117
" />
<path d="M10602 25790
L10602 24412
" />
<path d="M14657 23507
L14657 22367
" />
<path d="M14243 23920
L14657 23507
" />
<path d="M11094 23920
L14243 23920
" />
<path d="M10602 24412
L11094 23920
" />
<path d="M14460 22367
L14460 23310
" />
<path d="M10208 26184
L9814 26578
" />
<path d="M10208 24412
L10208 26184
" />
<path d="M10897 23724
L10208 24412
" />
<path d="M14047 23724
L10897 23724
" />
<path d="M14460 23310
L14047 23724
" />
<path d="M25602 25790
L25602 24412
" />
<path d="M20003 19798
L17029 19798
" />
<path d="M21665 21460
L20003 19798
" />
<path d="M22649 21460
L21665 21460
" />
<path d="M25602 24412
L22649 21460
" />
<path d="M9814 25790
L9814 24412
" />
<path d="M14263 23113
L14263 22367
" />
<path d="M13850 23527
L14263 23113
" />
<path d="M10700 23527
L13850 23527
" />
<path d="M9814 24412
L10700 23527
" />
<path d="M13663 21767
L12657 21767
" />
<path d="M9421 26184
L9027 26578
" />
<path d="M9421 24412
L9421 26184
" />
<path d="M10503 23330
L9421 24412
" />
<path d="M11094 23330
L10503 23330
" />
<path d="M12657 21767
L11094 23330
" />
<path d="M9027 25790
L9027 24412
" />
<path d="M12460 21570
L13663 21570
" />
<path d="M10897 23133
L12460 21570
" />
<path d="M10306 23133
L10897 23133
" />
<path d="M9027 24412
L10306 23133
" />
<path d="M13663 21373
L12263 21373
" />
<path d="M8633 26184
L8240 26578
" />
<path d="M8633 24412
L8633 26184
" />
<path d="M10110 22936
L8633 24412
" />
<path d="M10700 22936
L10110 22936
" />
<path d="M12263 21373
L10700 22936
" />
<path d="M8240 25790
L8240 24412
" />
<path d="M12066 21176
L13663 21176
" />
<path d="M10503 22739
L12066 21176
" />
<path d="M9913 22739
L10503 22739
" />
<path d="M8240 24412
L9913 22739
" />
<path d="M13663 20979
L11869 20979
" />
<path d="M7846 26184
L7452 26578
" />
<path d="M7846 24412
L7846 26184
" />
<path d="M9716 22542
L7846 24412
" />
<path d="M10306 22542
L9716 22542
" />
<path d="M11869 20979
L10306 22542
" />
<path d="M7452 25790
L7452 24412
" />
<path d="M11673 20783
L13663 20783
" />
<path d="M10110 22346
L11673 20783
" />
<path d="M9519 22346
L10110 22346
" />
<path d="M7452 24412
L9519 22346
" />
<path d="M6665 26578
L7058 26184
" />
<path d="M11476 20586
L13663 20586
" />
<path d="M9913 22149
L11476 20586
" />
<path d="M9322 22149
L9913 22149
" />
<path d="M7058 24412
L9322 22149
" />
<path d="M7058 26184
L7058 24412
" />
<path d="M13663 20389
L11279 20389
" />
<path d="M6665 24412
L6665 25790
" />
<path d="M9125 21952
L6665 24412
" />
<path d="M9716 21952
L9125 21952
" />
<path d="M11279 20389
L9716 21952
" />
<path d="M5877 26578
L6271 26184
" />
<path d="M11082 20192
L13663 20192
" />
<path d="M9519 21755
L11082 20192
" />
<path d="M8929 21755
L9519 21755
" />
<path d="M6271 24412
L8929 21755
" />
<path d="M6271 26184
L6271 24412
" />
<path d="M17029 19995
L19806 19995
" />
<path d="M25208 26184
L24814 26578
" />
<path d="M25208 24412
L25208 26184
" />
<path d="M22452 21657
L25208 24412
" />
<path d="M21468 21657
L22452 21657
" />
<path d="M19806 19995
L21468 21657
" />
<path d="M13663 19995
L10885 19995
" />
<path d="M5877 24412
L5877 25790
" />
<path d="M8732 21558
L5877 24412
" />
<path d="M9322 21558
L8732 21558
" />
<path d="M10885 19995
L9322 21558
" />
<path d="M5090 26578
L5484 26184
" />
<path d="M10688 19798
L13663 19798
" />
<path d="M9125 21361
L10688 19798
" />
<path d="M8535 21361
L9125 21361
" />
<path d="M5484 24412
L8535 21361
" />
<path d="M5484 26184
L5484 24412
" />
<path d="M13663 19601
L10492 19601
" />
<path d="M5090 24412
L5090 25790
" />
<path d="M8338 21164
L5090 24412
" />
<path d="M8929 21164
L8338 21164
" />
<path d="M10492 19601
L8929 21164
" />
<path d="M24814 25790
L24814 24412
" />
<path d="M19610 20192
L17029 20192
" />
<path d="M21271 21853
L19610 20192
" />
<path d="M22255 21853
L21271 21853
" />
<path d="M24814 24412
L22255 21853
" />
<path d="M17029 20389
L19413 20389
" />
<path d="M24421 26184
L24027 26578
" />
<path d="M24421 24412
L24421 26184
" />
<path d="M22058 22050
L24421 24412
" />
<path d="M21074 22050
L22058 22050
" />
<path d="M19413 20389
L21074 22050
" />
<path d="M24027 25790
L24027 24412
" />
<path d="M19216 20586
L17029 20586
" />
<path d="M20877 22247
L19216 20586
" />
<path d="M21862 22247
L20877 22247
" />
<path d="M24027 24412
L21862 22247
" />
<path d="M17029 20783
L19019 20783
" />
<path d="M23633 26184
L23240 26578
" />
<path d="M23633 24412
L23633 26184
" />
<path d="M21665 22444
L23633 24412
" />
<path d="M20680 22444
L21665 22444
" />
<path d="M19019 20783
L20680 22444
" />
<path d="M23240 25790
L23240 24412
" />
<path d="M18822 20979
L17029 20979
" />
<path d="M20484 22641
L18822 20979
" />
<path d="M21468 22641
L20484 22641
" />
<path d="M23240 24412
L21468 22641
" />
<path d="M17029 21176
L18625 21176
" />
<path d="M22846 26184
L22452 26578
" />
<path d="M22846 24412
L22846 26184
" />
<path d="M21271 22838
L22846 24412
" />
<path d="M20287 22838
L21271 22838
" />
<path d="M18625 21176
L20287 22838
" />
<path d="M15838 19001
L15838 16176
" />
<path d="M15838 16176
L15346 15684
" />
<path d="M14854 11367
L14854 13492
" />
<path d="M15346 13984
L15346 14684
" />
<path d="M14854 13492
L15346 13984
" />
</g>
<g style="fill:#008400; fill-opacity:1.0; 
stroke:#008400; stroke-width:100; stroke-opacity:1; 
stroke-linecap:round; stroke-linejoin:round;">
<path d="M12746 18184
L12761 18184
" />
</g>
<g style="fill:#008400; fill-opacity:1.0; 
stroke:#008400; stroke-width:200; stroke-opacity:1; 
stroke-linecap:round; stroke-linejoin:round;">
<path d="M12746 18184
L12296 18634
" />
</g>
<g style="fill:#008400; fill-opacity:1.0; 
stroke:#008400; stroke-width:100; stroke-opacity:1; 
stroke-linecap:round; stroke-linejoin:round;">
<path d="M12761 12184
L12746 12184
" />
</g>
<g style="fill:#008400; fill-opacity:1.0; 
stroke:#008400; stroke-width:200; stroke-opacity:1; 
stroke-linecap:round; stroke-linejoin:round;">
<path d="M12746 12184
L12296 11734
" />
</g>
<g style="fill:#008400; fill-opacity:1.0; 
stroke:#008400; stroke-width:100; stroke-opacity:1; 
stroke-linecap:round; stroke-linejoin:round;">
<path d="M14460 11367
L14460 12420
" />
<path d="M14460 12420
L14296 12584
" />
</g>
<g style="fill:#008400; fill-opacity:1.0; 
stroke:#008400; stroke-width:200; stroke-opacity:1; 
stroke-linecap:round; stroke-linejoin:round;">
<path d="M17946 12184
L18396 11734
" />
</g>
<g style="fill:#008400; fill-opacity:1.0; 
stroke:#008400; stroke-width:100; stroke-opacity:1; 
stroke-linecap:round; stroke-linejoin:round;">
<path d="M17946 12184
L17930 12184
" />
</g>
<g style="fill:#008400; fill-opacity:1.0; 
stroke:#008400; stroke-width:200; stroke-opacity:1; 
stroke-linecap:round; stroke-linejoin:round;">
<path d="M17946 18184
L18396 18634
" />
</g>
<g style="fill:#008400; fill-opacity:1.0; 
stroke:#008400; stroke-width:100; stroke-opacity:1; 
stroke-linecap:round; stroke-linejoin:round;">
<path d="M17946 18184
L17930 18184
" />
<path d="M16232 19001
L16232 17948
" />
<path d="M16232 17948
L16396 17784
" />
<path d="M14346 18284
L14246 18184
" />
<path d="M14460 18398
L14346 18284
" />
<path d="M14246 18184
L13430 18184
" />
<path d="M14460 19001
L14460 18398
" />
<path d="M14263 18417
L14346 18334
" />
<path d="M14346 18334
L14346 18284
" />
<path d="M14263 19001
L14263 18417
" />
<path d="M14146 18184
L14246 18184
" />
<path d="M14146 18184
L13646 18684
" />
<path d="M13496 18834
L13646 18684
" />
<path d="M16396 12134
L16446 12184
" />
<path d="M16346 12084
L16396 12134
" />
<path d="M16232 11970
L16346 12084
" />
<path d="M16446 12184
L17261 12184
" />
<path d="M16232 11367
L16232 11970
" />
<path d="M16429 11951
L16346 12034
" />
<path d="M16346 12034
L16346 12084
" />
<path d="M16429 11367
L16429 11951
" />
<path d="M16396 11984
L16246 11984
" />
<path d="M16246 11984
L16396 12134
" />
<path d="M16396 12134
L16396 11984
" />
<path d="M16546 12184
L17196 11534
" />
<path d="M16446 12184
L16546 12184
" />
</g>
<g style="fill:#008400; fill-opacity:1.0; 
stroke:#008400; stroke-width:500; stroke-opacity:1; 
stroke-linecap:round; stroke-linejoin:round;">
<path d="M26596 14184
L26952 14184
" />
<path d="M22346 18434
L22346 18184
" />
<path d="M26096 14184
L26596 14184
" />
<path d="M26596 14184
L26702 14184
" />
<path d="M25596 14684
L26096 14184
" />
<path d="M25846 16434
L25846 14684
" />
<path d="M25096 17184
L25846 16434
" />
<path d="M23346 17184
L24846 17184
" />
<path d="M22346 18184
L23346 17184
" />
</g>
<g style="fill:#008400; fill-opacity:1.0; 
stroke:#008400; stroke-width:100; stroke-opacity:1; 
stroke-linecap:round; stroke-linejoin:round;">
<path d="M13430 12184
L13446 12184
" />
<path d="M13796 12534
L13796 12584
" />
<path d="M13446 12184
L13796 12534
" />
<path d="M14263 11367
L14263 12117
" />
<path d="M11596 12684
L11096 12184
" />
<path d="M13696 12684
L11596 12684
" />
<path d="M14263 12117
L13796 12584
" />
<path d="M13796 12584
L13696 12684
" />
</g>
<g style="fill:#008400; fill-opacity:1.0; 
stroke:#008400; stroke-width:500; stroke-opacity:1; 
stroke-linecap:round; stroke-linejoin:round;">
<path d="M24596 18434
L23846 18434
" />
<path d="M23846 18434
L23346 18934
" />
</g>
<g style="fill:#008400; fill-opacity:1.0; 
stroke:#008400; stroke-width:100; stroke-opacity:1; 
stroke-linecap:round; stroke-linejoin:round;">
<path d="M19696 17684
L19696 18184
" />
<path d="M19346 17684
L19596 17684
" />
<path d="M19696 17684
L19596 17684
" />
<path d="M19696 18184
L19696 18334
" />
<path d="M17261 18184
L17236 18184
" />
<path d="M16886 17834
L16886 17794
" />
<path d="M17236 18184
L16886 17834
" />
</g>
<g style="fill:#008400; fill-opacity:1.0; 
stroke:#008400; stroke-width:500; stroke-opacity:1; 
stroke-linecap:round; stroke-linejoin:round;">
<path d="M22346 18434
L19796 18434
" />
<path d="M19796 18434
L19696 18334
" />
<path d="M19696 18334
L19596 18234
" />
</g>
<g style="fill:#008400; fill-opacity:1.0; 
stroke:#008400; stroke-width:100; stroke-opacity:1; 
stroke-linecap:round; stroke-linejoin:round;">
<path d="M19446 17684
L19346 17684
" />
<path d="M19346 17684
L18946 17684
" />
<path d="M18946 17684
L18496 17684
" />
<path d="M17546 17684
L18496 17684
" />
<path d="M16996 17684
L16946 17734
" />
<path d="M16996 17684
L17546 17684
" />
<path d="M16429 19001
L16429 18251
" />
<path d="M16429 18251
L16886 17794
" />
<path d="M16886 17794
L16876 17804
" />
<path d="M16876 17804
L16896 17784
" />
<path d="M16896 17784
L16946 17734
" />
</g>
<g style="fill:#008400; fill-opacity:1.0; 
stroke:#008400; stroke-width:39.3701; stroke-opacity:1; 
stroke-linecap:round; stroke-linejoin:round;">
<polyline style="fill-rule:evenodd;"
points="17138,11725
17092,11771
16941,11922
16941,12134
16941,12229
16451,12229
16451,11939
16518,11939
16559,11898
16589,11868
16649,11808
16699,11758
17030,11427
17021,11637
17138,11725
" /> 
</g>
<g style="fill:#008400; fill-opacity:0.0; 
stroke:#008400; stroke-width:10; stroke-opacity:1; 
stroke-linecap:round; stroke-linejoin:round;">
<polyline fill="none;"
points="17138,11725
17092,11771
16941,11922
16941,12134
16941,12229
16451,12229
16451,11939
16518,11939
16559,11898
16589,11868
16649,11808
16699,11758
17030,11427
17021,11637
17138,11725
" /> 
</g>
<g style="fill:#008400; fill-opacity:1.0; 
stroke:#008400; stroke-width:39.3701; stroke-opacity:1; 
stroke-linecap:round; stroke-linejoin:round;">
<polyline style="fill-rule:evenodd;"
points="26540,13936
26416,14432
25991,14857
25991,16184
25991,17032
25344,17679
23844,17679
23591,17932
23591,18189
23841,18189
23841,19432
23344,19929
21848,19929
20598,18679
19657,18630
20108,18179
19594,18179
19396,18377
18848,17829
17094,17829
17041,17882
17041,17932
16994,17979
16894,17979
16451,18422
16451,18236
16998,17689
18694,17689
18751,17746
18751,17639
20046,17639
21344,17689
21846,18191
23098,16939
24273,16939
25001,16211
25001,14311
25598,13689
26294,13689
26540,13936
" /> 
</g>
<g style="fill:#008400; fill-opacity:0.0; 
stroke:#008400; stroke-width:10; stroke-opacity:1; 
stroke-linecap:round; stroke-linejoin:round;">
<polyline fill="none;"
points="26540,13936
26416,14432
25991,14857
25991,16184
25991,17032
25344,17679
23844,17679
23591,17932
23591,18189
23841,18189
23841,19432
23344,19929
21848,19929
20598,18679
19657,18630
20108,18179
19594,18179
19396,18377
18848,17829
17094,17829
17041,17882
17041,17932
16994,17979
16894,17979
16451,18422
16451,18236
16998,17689
18694,17689
18751,17746
18751,17639
20046,17639
21344,17689
21846,18191
23098,16939
24273,16939
25001,16211
25001,14311
25598,13689
26294,13689
26540,13936
" /> 
</g>
<g style="fill:#008400; fill-opacity:1.0; 
stroke:#008400; stroke-width:39.3701; stroke-opacity:1; 
stroke-linecap:round; stroke-linejoin:round;">
<polyline style="fill-rule:evenodd;"
points="14491,18429
14184,18429
13640,18963
13611,18722
13562,18645
13741,18466
13741,18149
14264,18149
14491,18376
14491,18429
" /> 
</g>
<g style="fill:#008400; fill-opacity:0.0; 
stroke:#008400; stroke-width:10; stroke-opacity:1; 
stroke-linecap:round; stroke-linejoin:round;">
<polyline fill="none;"
points="14491,18429
14184,18429
13640,18963
13611,18722
13562,18645
13741,18466
13741,18149
14264,18149
14491,18376
14491,18429
" /> 
</g>
<g style="fill:#008400; fill-opacity:1.0; 
stroke:#008400; stroke-width:39.3701; stroke-opacity:1; 
stroke-linecap:round; stroke-linejoin:round;">
<polyline style="fill-rule:evenodd;"
points="14241,12132
13694,12679
11598,12679
11357,12389
11944,12389
12094,12539
13548,12539
13599,12488
13651,12436
13651,12389
13748,12389
14241,11896
14241,12132
" /> 
</g>
<g style="fill:#008400; fill-opacity:0.0; 
stroke:#008400; stroke-width:10; stroke-opacity:1; 
stroke-linecap:round; stroke-linejoin:round;">
<polyline fill="none;"
points="14241,12132
13694,12679
11598,12679
11357,12389
11944,12389
12094,12539
13548,12539
13599,12488
13651,12436
13651,12389
13748,12389
14241,11896
14241,12132
" /> 
</g>
<g style="fill:#008400; fill-opacity:1.0; 
stroke:#008400; stroke-width:39.3701; stroke-opacity:1; 
stroke-linecap:round; stroke-linejoin:round;">
<polyline style="fill-rule:evenodd;"
points="28091,29929
27751,29929
27751,24514
27697,24383
27597,24283
27467,24229
27326,24229
27195,24283
27095,24383
27041,24513
27041,24654
27095,24785
27194,24885
27325,24939
27466,24939
27597,24885
27697,24786
27751,24655
27751,24514
27751,29929
27651,29929
27651,28564
27597,28433
27497,28333
27367,28279
27226,28279
27095,28333
26995,28433
26941,28563
26941,28704
26995,28835
27094,28935
27225,28989
27366,28989
27497,28935
27597,28836
27651,28705
27651,28564
27651,29929
23251,29929
23251,28014
23197,27883
23097,27783
22967,27729
22826,27729
22695,27783
22595,27883
22541,28013
22541,28154
22595,28285
22694,28385
22825,28439
22966,28439
23097,28385
23197,28286
23251,28155
23251,28014
23251,29929
19501,29929
19501,29314
19447,29183
19347,29083
19217,29029
19076,29029
18945,29083
18845,29183
18791,29313
18791,29454
18845,29585
18944,29685
19075,29739
19216,29739
19347,29685
19447,29586
19501,29455
19501,29314
19501,29929
17121,29929
17121,28431
17003,28146
16785,27928
16501,27809
16192,27809
15907,27927
15689,28145
15571,28429
15571,28738
15688,29023
15906,29241
16191,29359
16499,29359
16784,29242
17002,29024
17121,28739
17121,28431
17121,29929
15121,29929
15121,28431
15003,28146
14785,27928
14501,27809
14192,27809
13907,27927
13689,28145
13571,28429
13571,28738
13688,29023
13906,29241
14191,29359
14499,29359
14784,29242
15002,29024
15121,28739
15121,28431
15121,29929
11851,29929
11851,29214
11797,29083
11697,28983
11567,28929
11426,28929
11295,28983
11195,29083
11141,29213
11141,29354
11195,29485
11294,29585
11425,29639
11566,29639
11697,29585
11797,29486
11851,29355
11851,29214
11851,29929
8201,29929
8201,27964
8147,27833
8047,27733
7917,27679
7776,27679
7645,27733
7545,27833
7491,27963
7491,28104
7545,28235
7644,28335
7775,28389
7916,28389
8047,28335
8147,28236
8201,28105
8201,27964
8201,29929
4551,29929
4551,29214
4497,29083
4397,28983
4267,28929
4126,28929
3995,28983
3895,29083
3841,29213
3841,29354
3895,29485
3994,29585
4125,29639
4266,29639
4397,29585
4497,29486
4551,29355
4551,29214
4551,29929
2851,29929
2851,23380
2984,23380
3239,23274
3435,23079
3541,22823
3542,22546
3436,22291
3240,22095
2985,21989
2851,21989
2851,8380
2984,8380
3239,8274
3435,8079
3541,7823
3542,7546
3436,7291
3240,7095
2985,6989
2851,6989
2851,439
27841,439
27841,6989
27708,6988
27452,7094
27257,7290
27150,7545
27150,7822
27256,8078
27451,8273
27707,8380
27841,8380
27841,12429
27401,12429
27401,10014
27347,9883
27247,9783
27117,9729
26976,9729
26845,9783
26801,9827
26801,1064
26747,933
26647,833
26517,779
26376,779
26245,833
26145,933
26091,1063
26091,1204
26145,1335
26244,1435
26375,1489
26516,1489
26647,1435
26747,1336
26801,1205
26801,1064
26801,9827
26745,9883
26691,10013
26691,10154
26745,10285
26844,10385
26975,10439
27116,10439
27247,10385
27347,10286
27401,10155
27401,10014
27401,12429
25601,12429
25601,8864
25547,8733
25447,8633
25317,8579
25176,8579
25045,8633
24945,8733
24891,8863
24891,9004
24945,9135
25044,9235
25175,9289
25316,9289
25447,9235
25547,9136
25601,9005
25601,8864
25601,12429
24098,12429
23348,11679
20351,11679
20351,11186
21848,9689
22848,9689
26601,5936
26601,2929
23201,2929
23201,2314
23147,2183
23047,2083
22917,2029
22776,2029
22645,2083
22545,2183
22491,2313
22491,2454
22545,2585
22644,2685
22775,2739
22916,2739
23047,2685
23147,2586
23201,2455
23201,2314
23201,2929
19551,2929
19551,1064
19497,933
19397,833
19267,779
19126,779
18995,833
18895,933
18841,1063
18841,1204
18895,1335
18994,1435
19125,1489
19266,1489
19397,1435
19497,1336
19551,1205
19551,1064
19551,2929
19344,2929
17844,4429
17071,4429
17071,1631
16953,1346
16735,1128
16451,1009
16142,1009
15857,1127
15639,1345
15521,1629
15521,1938
15638,2223
15856,2441
16141,2559
16449,2559
16734,2442
16952,2224
17071,1939
17071,1631
17071,4429
15071,4429
15071,1631
14953,1346
14735,1128
14451,1009
14142,1009
13857,1127
13639,1345
13521,1629
13521,1938
13638,2223
13856,2441
14141,2559
14449,2559
14734,2442
14952,2224
15071,1939
15071,1631
15071,4429
12848,4429
11851,3432
11851,1014
11797,883
11697,783
11567,729
11426,729
11295,783
11195,883
11141,1013
11141,1154
11195,1285
11294,1385
11425,1439
11566,1439
11697,1385
11797,1286
11851,1155
11851,1014
11851,3432
11348,2929
8201,2929
8201,2164
8147,2033
8047,1933
7917,1879
7776,1879
7645,1933
7545,2033
7491,2163
7491,2304
7545,2435
7644,2535
7775,2589
7916,2589
8047,2535
8147,2436
8201,2305
8201,2164
8201,2929
5351,2929
5351,1064
5297,933
5197,833
5067,779
4926,779
4795,833
4695,933
4641,1063
4641,1204
4695,1335
4794,1435
4925,1489
5066,1489
5197,1435
5297,1336
5351,1205
5351,1064
5351,2929
4091,2929
4091,5936
7844,9689
8844,9689
10341,11186
10341,12679
9301,12679
9301,11514
9247,11383
9147,11283
9017,11229
8876,11229
8745,11283
8645,11383
8591,11513
8591,11654
8645,11785
8744,11885
8875,11939
9016,11939
9147,11885
9247,11786
9301,11655
9301,11514
9301,12679
8844,12679
8094,13429
6341,13429
6341,16436
7844,17939
9841,17939
9841,19182
8594,20429
8094,20429
6401,22122
6401,19564
6401,18164
6347,18033
6247,17933
6117,17879
5976,17879
5845,17933
5745,18033
5691,18163
5691,18304
5745,18435
5844,18535
5975,18589
6116,18589
6247,18535
6347,18436
6401,18305
6401,18164
6401,19564
6347,19433
6247,19333
6117,19279
5976,19279
5845,19333
5745,19433
5691,19563
5691,19704
5745,19835
5844,19935
5975,19989
6116,19989
6247,19935
6347,19836
6401,19705
6401,19564
6401,22122
5401,23122
5401,12364
5401,10264
5347,10133
5247,10033
5117,9979
4976,9979
4845,10033
4745,10133
4691,10263
4691,10404
4745,10535
4844,10635
4975,10689
5116,10689
5247,10635
5347,10536
5401,10405
5401,10264
5401,12364
5347,12233
5247,12133
5117,12079
4976,12079
4845,12133
4745,12233
4691,12363
4691,12504
4745,12635
4844,12735
4975,12789
5116,12789
5247,12735
5347,12636
5401,12505
5401,12364
5401,23122
4551,23972
4551,15214
4497,15083
4397,14983
4267,14929
4126,14929
3995,14983
3895,15083
3841,15213
3841,15354
3895,15485
3994,15585
4125,15639
4266,15639
4397,15585
4497,15486
4551,15355
4551,15214
4551,23972
4401,24122
4401,20314
4401,18914
4401,17514
4347,17383
4247,17283
4117,17229
3976,17229
3845,17283
3745,17383
3691,17513
3691,17654
3745,17785
3844,17885
3975,17939
4116,17939
4247,17885
4347,17786
4401,17655
4401,17514
4401,18914
4347,18783
4247,18683
4117,18629
3976,18629
3845,18683
3745,18783
3691,18913
3691,19054
3745,19185
3844,19285
3975,19339
4116,19339
4247,19285
4347,19186
4401,19055
4401,18914
4401,20314
4347,20183
4247,20083
4117,20029
3976,20029
3845,20083
3745,20183
3691,20313
3691,20454
3745,20585
3844,20685
3975,20739
4116,20739
4247,20685
4347,20586
4401,20455
4401,20314
4401,24122
4344,24179
4091,24179
4091,27439
11348,27439
12848,25939
17844,25939
19344,27439
26601,27439
26601,24182
25599,23181
23098,20929
22101,20929
22101,20439
28091,20439
28091,22033
27985,21989
27708,21988
27452,22094
27257,22290
27150,22545
27150,22822
27256,23078
27451,23273
27707,23380
27984,23380
28091,23336
28091,29929
" /> 
</g>
<g style="fill:#008400; fill-opacity:0.0; 
stroke:#008400; stroke-width:10; stroke-opacity:1; 
stroke-linecap:round; stroke-linejoin:round;">
<polyline fill="none;"
points="28091,29929
27751,29929
27751,24514
27697,24383
27597,24283
27467,24229
27326,24229
27195,24283
27095,24383
27041,24513
27041,24654
27095,24785
27194,24885
27325,24939
27466,24939
27597,24885
27697,24786
27751,24655
27751,24514
27751,29929
27651,29929
27651,28564
27597,28433
27497,28333
27367,28279
27226,28279
27095,28333
26995,28433
26941,28563
26941,28704
26995,28835
27094,28935
27225,28989
27366,28989
27497,28935
27597,28836
27651,28705
27651,28564
27651,29929
23251,29929
23251,28014
23197,27883
23097,27783
22967,27729
22826,27729
22695,27783
22595,27883
22541,28013
22541,28154
22595,28285
22694,28385
22825,28439
22966,28439
23097,28385
23197,28286
23251,28155
23251,28014
23251,29929
19501,29929
19501,29314
19447,29183
19347,29083
19217,29029
19076,29029
18945,29083
18845,29183
18791,29313
18791,29454
18845,29585
18944,29685
19075,29739
19216,29739
19347,29685
19447,29586
19501,29455
19501,29314
19501,29929
17121,29929
17121,28431
17003,28146
16785,27928
16501,27809
16192,27809
15907,27927
15689,28145
15571,28429
15571,28738
15688,29023
15906,29241
16191,29359
16499,29359
16784,29242
17002,29024
17121,28739
17121,28431
17121,29929
15121,29929
15121,28431
15003,28146
14785,27928
14501,27809
14192,27809
13907,27927
13689,28145
13571,28429
13571,28738
13688,29023
13906,29241
14191,29359
14499,29359
14784,29242
15002,29024
15121,28739
15121,28431
15121,29929
11851,29929
11851,29214
11797,29083
11697,28983
11567,28929
11426,28929
11295,28983
11195,29083
11141,29213
11141,29354
11195,29485
11294,29585
11425,29639
11566,29639
11697,29585
11797,29486
11851,29355
11851,29214
11851,29929
8201,29929
8201,27964
8147,27833
8047,27733
7917,27679
7776,27679
7645,27733
7545,27833
7491,27963
7491,28104
7545,28235
7644,28335
7775,28389
7916,28389
8047,28335
8147,28236
8201,28105
8201,27964
8201,29929
4551,29929
4551,29214
4497,29083
4397,28983
4267,28929
4126,28929
3995,28983
3895,29083
3841,29213
3841,29354
3895,29485
3994,29585
4125,29639
4266,29639
4397,29585
4497,29486
4551,29355
4551,29214
4551,29929
2851,29929
2851,23380
2984,23380
3239,23274
3435,23079
3541,22823
3542,22546
3436,22291
3240,22095
2985,21989
2851,21989
2851,8380
2984,8380
3239,8274
3435,8079
3541,7823
3542,7546
3436,7291
3240,7095
2985,6989
2851,6989
2851,439
27841,439
27841,6989
27708,6988
27452,7094
27257,7290
27150,7545
27150,7822
27256,8078
27451,8273
27707,8380
27841,8380
27841,12429
27401,12429
27401,10014
27347,9883
27247,9783
27117,9729
26976,9729
26845,9783
26801,9827
26801,1064
26747,933
26647,833
26517,779
26376,779
26245,833
26145,933
26091,1063
26091,1204
26145,1335
26244,1435
26375,1489
26516,1489
26647,1435
26747,1336
26801,1205
26801,1064
26801,9827
26745,9883
26691,10013
26691,10154
26745,10285
26844,10385
26975,10439
27116,10439
27247,10385
27347,10286
27401,10155
27401,10014
27401,12429
25601,12429
25601,8864
25547,8733
25447,8633
25317,8579
25176,8579
25045,8633
24945,8733
24891,8863
24891,9004
24945,9135
25044,9235
25175,9289
25316,9289
25447,9235
25547,9136
25601,9005
25601,8864
25601,12429
24098,12429
23348,11679
20351,11679
20351,11186
21848,9689
22848,9689
26601,5936
26601,2929
23201,2929
23201,2314
23147,2183
23047,2083
22917,2029
22776,2029
22645,2083
22545,2183
22491,2313
22491,2454
22545,2585
22644,2685
22775,2739
22916,2739
23047,2685
23147,2586
23201,2455
23201,2314
23201,2929
19551,2929
19551,1064
19497,933
19397,833
19267,779
19126,779
18995,833
18895,933
18841,1063
18841,1204
18895,1335
18994,1435
19125,1489
19266,1489
19397,1435
19497,1336
19551,1205
19551,1064
19551,2929
19344,2929
17844,4429
17071,4429
17071,1631
16953,1346
16735,1128
16451,1009
16142,1009
15857,1127
15639,1345
15521,1629
15521,1938
15638,2223
15856,2441
16141,2559
16449,2559
16734,2442
16952,2224
17071,1939
17071,1631
17071,4429
15071,4429
15071,1631
14953,1346
14735,1128
14451,1009
14142,1009
13857,1127
13639,1345
13521,1629
13521,1938
13638,2223
13856,2441
14141,2559
14449,2559
14734,2442
14952,2224
15071,1939
15071,1631
15071,4429
12848,4429
11851,3432
11851,1014
11797,883
11697,783
11567,729
11426,729
11295,783
11195,883
11141,1013
11141,1154
11195,1285
11294,1385
11425,1439
11566,1439
11697,1385
11797,1286
11851,1155
11851,1014
11851,3432
11348,2929
8201,2929
8201,2164
8147,2033
8047,1933
7917,1879
7776,1879
7645,1933
7545,2033
7491,2163
7491,2304
7545,2435
7644,2535
7775,2589
7916,2589
8047,2535
8147,2436
8201,2305
8201,2164
8201,2929
5351,2929
5351,1064
5297,933
5197,833
5067,779
4926,779
4795,833
4695,933
4641,1063
4641,1204
4695,1335
4794,1435
4925,1489
5066,1489
5197,1435
5297,1336
5351,1205
5351,1064
5351,2929
4091,2929
4091,5936
7844,9689
8844,9689
10341,11186
10341,12679
9301,12679
9301,11514
9247,11383
9147,11283
9017,11229
8876,11229
8745,11283
8645,11383
8591,11513
8591,11654
8645,11785
8744,11885
8875,11939
9016,11939
9147,11885
9247,11786
9301,11655
9301,11514
9301,12679
8844,12679
8094,13429
6341,13429
6341,16436
7844,17939
9841,17939
9841,19182
8594,20429
8094,20429
6401,22122
6401,19564
6401,18164
6347,18033
6247,17933
6117,17879
5976,17879
5845,17933
5745,18033
5691,18163
5691,18304
5745,18435
5844,18535
5975,18589
6116,18589
6247,18535
6347,18436
6401,18305
6401,18164
6401,19564
6347,19433
6247,19333
6117,19279
5976,19279
5845,19333
5745,19433
5691,19563
5691,19704
5745,19835
5844,19935
5975,19989
6116,19989
6247,19935
6347,19836
6401,19705
6401,19564
6401,22122
5401,23122
5401,12364
5401,10264
5347,10133
5247,10033
5117,9979
4976,9979
4845,10033
4745,10133
4691,10263
4691,10404
4745,10535
4844,10635
4975,10689
5116,10689
5247,10635
5347,10536
5401,10405
5401,10264
5401,12364
5347,12233
5247,12133
5117,12079
4976,12079
4845,12133
4745,12233
4691,12363
4691,12504
4745,12635
4844,12735
4975,12789
5116,12789
5247,12735
5347,12636
5401,12505
5401,12364
5401,23122
4551,23972
4551,15214
4497,15083
4397,14983
4267,14929
4126,14929
3995,14983
3895,15083
3841,15213
3841,15354
3895,15485
3994,15585
4125,15639
4266,15639
4397,15585
4497,15486
4551,15355
4551,15214
4551,23972
4401,24122
4401,20314
4401,18914
4401,17514
4347,17383
4247,17283
4117,17229
3976,17229
3845,17283
3745,17383
3691,17513
3691,17654
3745,17785
3844,17885
3975,17939
4116,17939
4247,17885
4347,17786
4401,17655
4401,17514
4401,18914
4347,18783
4247,18683
4117,18629
3976,18629
3845,18683
3745,18783
3691,18913
3691,19054
3745,19185
3844,19285
3975,19339
4116,19339
4247,19285
4347,19186
4401,19055
4401,18914
4401,20314
4347,20183
4247,20083
4117,20029
3976,20029
3845,20083
3745,20183
3691,20313
3691,20454
3745,20585
3844,20685
3975,20739
4116,20739
4247,20685
4347,20586
4401,20455
4401,20314
4401,24122
4344,24179
4091,24179
4091,27439
11348,27439
12848,25939
17844,25939
19344,27439
26601,27439
26601,24182
25599,23181
23098,20929
22101,20929
22101,20439
28091,20439
28091,22033
27985,21989
27708,21988
27452,22094
27257,22290
27150,22545
27150,22822
27256,23078
27451,23273
27707,23380
27984,23380
28091,23336
28091,29929
" /> 
</g>
<g style="fill:#FFFFFF; fill-opacity:0.0; 
stroke:#FFFFFF; stroke-width:39.3701; stroke-opacity:1; 
stroke-linecap:round; stroke-linejoin:round;">
</g>
<g style="fill:#FFFFFF; fill-opacity:1.0; 
stroke:#FFFFFF; stroke-width:39.3701; stroke-opacity:1; 
stroke-linecap:round; stroke-linejoin:round;">
<circle cx="4196.35" cy="29284.6" r="140.315" /> 
<circle cx="7846.35" cy="28034.6" r="140.315" /> 
<circle cx="11496.4" cy="29284.6" r="140.315" /> 
<circle cx="19146.4" cy="29384.6" r="140.315" /> 
<circle cx="22896.4" cy="28084.6" r="140.315" /> 
<circle cx="27296.4" cy="28634.6" r="140.315" /> 
<circle cx="27396.4" cy="24584.6" r="140.315" /> 
<circle cx="27046.4" cy="10084.6" r="140.315" /> 
<circle cx="25246.4" cy="8934.65" r="140.315" /> 
<circle cx="26446.4" cy="1134.65" r="140.315" /> 
<circle cx="22846.4" cy="2384.65" r="140.315" /> 
<circle cx="19196.4" cy="1134.65" r="140.315" /> 
<circle cx="11496.4" cy="1084.65" r="140.315" /> 
<circle cx="7846.35" cy="2234.65" r="140.315" /> 
<circle cx="4996.35" cy="1134.65" r="140.315" /> 
<circle cx="4196.35" cy="15284.6" r="140.315" /> 
<circle cx="8946.35" cy="11584.6" r="140.315" /> 
<circle cx="5046.35" cy="12434.6" r="140.315" /> 
<circle cx="4046.35" cy="17584.6" r="140.315" /> 
<circle cx="6046.35" cy="18234.6" r="140.315" /> 
<circle cx="6046.35" cy="19634.6" r="140.315" /> 
<circle cx="4046.35" cy="18984.6" r="140.315" /> 
<circle cx="5046.35" cy="10334.6" r="140.315" /> 
<circle cx="4046.35" cy="20384.6" r="140.315" /> 
<circle cx="14296.4" cy="17784.6" r="80.315" /> 
<circle cx="12296.4" cy="18634.6" r="80.315" /> 
<circle cx="12296.4" cy="11734.6" r="80.315" /> 
<circle cx="14296.4" cy="12584.6" r="80.315" /> 
<circle cx="16396.4" cy="12584.6" r="80.315" /> 
<circle cx="18396.4" cy="11734.6" r="80.315" /> 
<circle cx="18396.4" cy="18634.6" r="80.315" /> 
<circle cx="16396.4" cy="17784.6" r="80.315" /> 
<circle cx="27846.4" cy="18434.6" r="140.315" /> 
<circle cx="27846.4" cy="19434.6" r="140.315" /> 
<circle cx="13496.4" cy="18834.6" r="80.315" /> 
<circle cx="13496.4" cy="11534.6" r="80.315" /> 
<circle cx="17196.4" cy="11534.6" r="80.315" /> 
<circle cx="17196.4" cy="18834.6" r="80.315" /> 
<circle cx="26846.4" cy="18934.6" r="140.315" /> 
<circle cx="11096.4" cy="17884.6" r="140.315" /> 
<circle cx="11096.4" cy="12184.6" r="140.315" /> 
<circle cx="23346.4" cy="18934.6" r="140.315" /> 
<circle cx="22346.4" cy="18434.6" r="140.315" /> 
<circle cx="22346.4" cy="19434.6" r="140.315" /> 
<circle cx="2846.35" cy="7684.65" r="570.866" /> 
<circle cx="2846.35" cy="22684.6" r="570.866" /> 
<circle cx="27846.4" cy="7684.65" r="570.866" /> 
<circle cx="27846.4" cy="22684.6" r="570.866" /> 
<circle cx="7346.35" cy="14684.6" r="177.165" /> 
<circle cx="7346.35" cy="15684.6" r="177.165" /> 
<circle cx="8346.35" cy="14684.6" r="177.165" /> 
<circle cx="8346.35" cy="15684.6" r="177.165" /> 
<circle cx="9346.35" cy="14684.6" r="177.165" /> 
<circle cx="9346.35" cy="15684.6" r="177.165" /> 
<circle cx="10346.4" cy="14684.6" r="177.165" /> 
<circle cx="10346.4" cy="15684.6" r="177.165" /> 
<circle cx="11346.4" cy="14684.6" r="177.165" /> 
<circle cx="11346.4" cy="15684.6" r="177.165" /> 
<circle cx="19346.4" cy="14684.6" r="177.165" /> 
<circle cx="19346.4" cy="15684.6" r="177.165" /> 
<circle cx="20346.4" cy="14684.6" r="177.165" /> 
<circle cx="20346.4" cy="15684.6" r="177.165" /> 
<circle cx="21346.4" cy="14684.6" r="177.165" /> 
<circle cx="21346.4" cy="15684.6" r="177.165" /> 
<circle cx="22346.4" cy="14684.6" r="177.165" /> 
<circle cx="22346.4" cy="15684.6" r="177.165" /> 
<circle cx="23346.4" cy="14684.6" r="177.165" /> 
<circle cx="23346.4" cy="15684.6" r="177.165" /> 
<circle cx="14346.4" cy="14684.6" r="177.165" /> 
<circle cx="15346.4" cy="14684.6" r="177.165" /> 
<circle cx="14346.4" cy="15684.6" r="177.165" /> 
<circle cx="15346.4" cy="15684.6" r="177.165" /> 
<circle cx="16346.4" cy="14684.6" r="177.165" /> 
<circle cx="16346.4" cy="15684.6" r="177.165" /> 
<circle cx="24846.4" cy="10934.6" r="177.165" /> 
<circle cx="24846.4" cy="11934.6" r="177.165" /> 
<circle cx="25846.4" cy="10934.6" r="177.165" /> 
<circle cx="25846.4" cy="11934.6" r="177.165" /> 
<circle cx="24846.4" cy="18434.6" r="177.165" /> 
<circle cx="24846.4" cy="19434.6" r="177.165" /> 
<circle cx="25846.4" cy="18434.6" r="177.165" /> 
<circle cx="25846.4" cy="19434.6" r="177.165" /> 
<circle cx="25602.3" cy="26578.3" r="137.795" /> 
<circle cx="25602.3" cy="25790.9" r="137.795" /> 
<circle cx="24814.9" cy="26578.3" r="137.795" /> 
<circle cx="24814.9" cy="25790.9" r="137.795" /> 
<circle cx="24027.5" cy="26578.3" r="137.795" /> 
<circle cx="24027.5" cy="25790.9" r="137.795" /> 
<circle cx="23240.1" cy="26578.3" r="137.795" /> 
<circle cx="23240.1" cy="25790.9" r="137.795" /> 
<circle cx="22452.7" cy="26578.3" r="137.795" /> 
<circle cx="22452.7" cy="25790.9" r="137.795" /> 
<circle cx="21665.2" cy="26578.3" r="137.795" /> 
<circle cx="21665.2" cy="25790.9" r="137.795" /> 
<circle cx="20877.8" cy="26578.3" r="137.795" /> 
<circle cx="20877.8" cy="25790.9" r="137.795" /> 
<circle cx="20090.4" cy="26578.3" r="137.795" /> 
<circle cx="20090.4" cy="25790.9" r="137.795" /> 
<circle cx="10602.3" cy="26578.3" r="137.795" /> 
<circle cx="10602.3" cy="25790.9" r="137.795" /> 
<circle cx="9814.86" cy="26578.3" r="137.795" /> 
<circle cx="9814.86" cy="25790.9" r="137.795" /> 
<circle cx="9027.45" cy="26578.3" r="137.795" /> 
<circle cx="9027.45" cy="25790.9" r="137.795" /> 
<circle cx="8240.05" cy="26578.3" r="137.795" /> 
<circle cx="8240.05" cy="25790.9" r="137.795" /> 
<circle cx="7452.65" cy="26578.3" r="137.795" /> 
<circle cx="7452.65" cy="25790.9" r="137.795" /> 
<circle cx="6665.25" cy="26578.3" r="137.795" /> 
<circle cx="6665.25" cy="25790.9" r="137.795" /> 
<circle cx="5877.85" cy="26578.3" r="137.795" /> 
<circle cx="5877.85" cy="25790.9" r="137.795" /> 
<circle cx="5090.45" cy="26578.3" r="137.795" /> 
<circle cx="5090.45" cy="25790.9" r="137.795" /> 
<circle cx="20090.4" cy="3790.95" r="137.795" /> 
<circle cx="20090.4" cy="4578.35" r="137.795" /> 
<circle cx="20877.8" cy="3790.95" r="137.795" /> 
<circle cx="20877.8" cy="4578.35" r="137.795" /> 
<circle cx="21665.2" cy="3790.95" r="137.795" /> 
<circle cx="21665.2" cy="4578.35" r="137.795" /> 
<circle cx="22452.7" cy="3790.95" r="137.795" /> 
<circle cx="22452.7" cy="4578.35" r="137.795" /> 
<circle cx="23240.1" cy="3790.95" r="137.795" /> 
<circle cx="23240.1" cy="4578.35" r="137.795" /> 
<circle cx="24027.5" cy="3790.95" r="137.795" /> 
<circle cx="24027.5" cy="4578.35" r="137.795" /> 
<circle cx="24814.9" cy="3790.95" r="137.795" /> 
<circle cx="24814.9" cy="4578.35" r="137.795" /> 
<circle cx="25602.3" cy="3790.95" r="137.795" /> 
<circle cx="25602.3" cy="4578.35" r="137.795" /> 
<circle cx="5090.45" cy="3790.95" r="137.795" /> 
<circle cx="5090.45" cy="4578.35" r="137.795" /> 
<circle cx="5877.85" cy="3790.95" r="137.795" /> 
<circle cx="5877.85" cy="4578.35" r="137.795" /> 
<circle cx="6665.25" cy="3790.95" r="137.795" /> 
<circle cx="6665.25" cy="4578.35" r="137.795" /> 
<circle cx="7452.65" cy="3790.95" r="137.795" /> 
<circle cx="7452.65" cy="4578.35" r="137.795" /> 
<circle cx="8240.05" cy="3790.95" r="137.795" /> 
<circle cx="8240.05" cy="4578.35" r="137.795" /> 
<circle cx="9027.45" cy="3790.95" r="137.795" /> 
<circle cx="9027.45" cy="4578.35" r="137.795" /> 
<circle cx="9814.86" cy="3790.95" r="137.795" /> 
<circle cx="9814.86" cy="4578.35" r="137.795" /> 
<circle cx="10602.3" cy="3790.95" r="137.795" /> 
<circle cx="10602.3" cy="4578.35" r="137.795" /> 
<circle cx="14796.4" cy="5184.65" r="196.85" /> 
<circle cx="15796.4" cy="5184.65" r="196.85" /> 
<circle cx="16296.4" cy="1784.65" r="650.315" /> 
<circle cx="14296.4" cy="1784.65" r="650.315" /> 
<circle cx="15846.4" cy="25184.6" r="196.85" /> 
<circle cx="14846.4" cy="25184.6" r="196.85" /> 
<circle cx="14346.4" cy="28584.6" r="650.315" /> 
<circle cx="16346.4" cy="28584.6" r="650.315" /> 
<circle cx="27740.1" cy="14184.6" r="137.795" /> 
<circle cx="26952.7" cy="14184.6" r="137.795" /> 
<circle cx="26952.7" cy="16434.6" r="137.795" /> 
<circle cx="27740.1" cy="16434.6" r="137.795" /> 
</g> 
</svg>
