<?xml version="1.0" standalone="no"?>
 <!DOCTYPE svg PUBLIC "-//W3C//DTD SVG 1.1//EN" 
 "http://www.w3.org/Graphics/SVG/1.1/DTD/svg11.dtd"> 
<svg xmlns="http://www.w3.org/2000/svg" version="1.1" 
    width="7.79526cm" height="7.71144cm" viewBox="0 0 30690 30360 ">
<title>SVG Picture created as demux-panel--brd.svg date 2014/03/17 17:21:36 </title>
  <desc>Picture generated by PCBNEW </desc>
<g style="fill:#000000; fill-opacity:1;stroke:#000000; stroke-opacity:1;
stroke-linecap:round; stroke-linejoin:round; "
 transform="translate(0 0) scale(1 1)">
</g>
<g style="fill:#C2C200; fill-opacity:0.0; 
stroke:#C2C200; stroke-width:150; stroke-opacity:1; 
stroke-linecap:round; stroke-linejoin:round;">
<path d="M1596 30184
L1596 184
" />
<path d="M29096 30184
L1596 30184
" />
<path d="M29096 184
L29096 30184
" />
<path d="M1596 184
L29096 184
" />
</g>
<g style="fill:#008484; fill-opacity:0.0; 
stroke:#008484; stroke-width:59.0551; stroke-opacity:1; 
stroke-linecap:round; stroke-linejoin:round;">
<path d="M18779 12327
L18760 12346
L18703 12365
L18665 12365
L18608 12346
L18570 12308
L18551 12270
L18532 12194
L18532 12137
L18551 12060
L18570 12022
L18608 11984
L18665 11965
L18703 11965
L18760 11984
L18779 12003
" />
<path d="M19160 12365
L18932 12365
" />
<path d="M19046 12365
L19046 11965
L19008 12022
L18970 12060
L18932 12079
" />
<path d="M17207 12759
L17238 12759
L17268 12774
L17283 12789
L17299 12820
L17314 12881
L17314 12957
L17299 13018
L17283 13048
L17268 13064
L17238 13079
L17207 13079
L17177 13064
L17162 13048
L17146 13018
L17131 12957
L17131 12881
L17146 12820
L17162 12789
L17177 12774
L17207 12759
" />
<path d="M17451 13048
L17466 13064
L17451 13079
L17436 13064
L17451 13048
L17451 13079
" />
<path d="M17771 13079
L17588 13079
" />
<path d="M17680 13079
L17680 12759
L17649 12805
L17619 12835
L17588 12850
" />
<path d="M18045 12866
L18045 13079
" />
<path d="M17908 12866
L17908 13033
L17923 13064
L17954 13079
L18000 13079
L18030 13064
L18045 13048
" />
<path d="M18839 18327
L18820 18346
L18763 18365
L18724 18365
L18667 18346
L18629 18308
L18610 18270
L18591 18194
L18591 18137
L18610 18060
L18629 18022
L18667 17984
L18724 17965
L18763 17965
L18820 17984
L18839 18003
" />
<path d="M19220 18365
L18991 18365
" />
<path d="M19105 18365
L19105 17965
L19067 18022
L19029 18060
L18991 18079
" />
<path d="M19467 17965
L19505 17965
L19543 17984
L19563 18003
L19582 18041
L19601 18117
L19601 18213
L19582 18289
L19563 18327
L19543 18346
L19505 18365
L19467 18365
L19429 18346
L19410 18327
L19391 18289
L19372 18213
L19372 18117
L19391 18041
L19410 18003
L19429 17984
L19467 17965
" />
<path d="M17207 17359
L17238 17359
L17268 17374
L17283 17389
L17299 17420
L17314 17481
L17314 17557
L17299 17618
L17283 17648
L17268 17664
L17238 17679
L17207 17679
L17177 17664
L17162 17648
L17146 17618
L17131 17557
L17131 17481
L17146 17420
L17162 17389
L17177 17374
L17207 17359
" />
<path d="M17451 17648
L17466 17664
L17451 17679
L17436 17664
L17451 17648
L17451 17679
" />
<path d="M17771 17679
L17588 17679
" />
<path d="M17680 17679
L17680 17359
L17649 17405
L17619 17435
L17588 17450
" />
<path d="M18045 17466
L18045 17679
" />
<path d="M17908 17466
L17908 17633
L17923 17664
L17954 17679
L18000 17679
L18030 17664
L18045 17648
" />
<path d="M11779 18327
L11760 18346
L11703 18365
L11665 18365
L11608 18346
L11570 18308
L11551 18270
L11532 18194
L11532 18137
L11551 18060
L11570 18022
L11608 17984
L11665 17965
L11703 17965
L11760 17984
L11779 18003
" />
<path d="M11913 17965
L12179 17965
L12008 18365
" />
<path d="M12707 17259
L12738 17259
L12768 17274
L12783 17289
L12799 17320
L12814 17381
L12814 17457
L12799 17518
L12783 17548
L12768 17564
L12738 17579
L12707 17579
L12677 17564
L12662 17548
L12646 17518
L12631 17457
L12631 17381
L12646 17320
L12662 17289
L12677 17274
L12707 17259
" />
<path d="M12951 17548
L12966 17564
L12951 17579
L12936 17564
L12951 17548
L12951 17579
" />
<path d="M13271 17579
L13088 17579
" />
<path d="M13180 17579
L13180 17259
L13149 17305
L13119 17335
L13088 17350
" />
<path d="M13545 17366
L13545 17579
" />
<path d="M13408 17366
L13408 17533
L13423 17564
L13454 17579
L13500 17579
L13530 17564
L13545 17548
" />
<path d="M11779 12327
L11760 12346
L11703 12365
L11665 12365
L11608 12346
L11570 12308
L11551 12270
L11532 12194
L11532 12137
L11551 12060
L11570 12022
L11608 11984
L11665 11965
L11703 11965
L11760 11984
L11779 12003
" />
<path d="M12122 12098
L12122 12365
" />
<path d="M12027 11946
L11932 12232
L12179 12232
" />
<path d="M12707 12759
L12738 12759
L12768 12774
L12783 12789
L12799 12820
L12814 12881
L12814 12957
L12799 13018
L12783 13048
L12768 13064
L12738 13079
L12707 13079
L12677 13064
L12662 13048
L12646 13018
L12631 12957
L12631 12881
L12646 12820
L12662 12789
L12677 12774
L12707 12759
" />
<path d="M12951 13048
L12966 13064
L12951 13079
L12936 13064
L12951 13048
L12951 13079
" />
<path d="M13271 13079
L13088 13079
" />
<path d="M13180 13079
L13180 12759
L13149 12805
L13119 12835
L13088 12850
" />
<path d="M13545 12866
L13545 13079
" />
<path d="M13408 12866
L13408 13033
L13423 13064
L13454 13079
L13500 13079
L13530 13064
L13545 13048
" />
</g>
<g style="fill:#008484; fill-opacity:0.0; 
stroke:#008484; stroke-width:80; stroke-opacity:1; 
stroke-linecap:round; stroke-linejoin:round;">
<path d="M17122 23115
L17122 22715
L17255 23001
L17389 22715
L17389 23115
" />
<path d="M17579 22715
L17579 23039
L17598 23077
L17617 23096
L17655 23115
L17732 23115
L17770 23096
L17789 23077
L17808 23039
L17808 22715
" />
<path d="M17960 22715
L18227 23115
" />
<path d="M18227 22715
L17960 23115
" />
<path d="M18341 22715
L18589 22715
L18455 22867
L18513 22867
L18551 22887
L18570 22906
L18589 22944
L18589 23039
L18570 23077
L18551 23096
L18513 23115
L18398 23115
L18360 23096
L18341 23077
" />
<path d="M12122 7615
L12122 7215
L12255 7501
L12389 7215
L12389 7615
" />
<path d="M12579 7215
L12579 7539
L12598 7577
L12617 7596
L12655 7615
L12732 7615
L12770 7596
L12789 7577
L12808 7539
L12808 7215
" />
<path d="M12960 7215
L13227 7615
" />
<path d="M13227 7215
L12960 7615
" />
<path d="M13589 7615
L13360 7615
" />
<path d="M13474 7615
L13474 7215
L13436 7272
L13398 7310
L13360 7329
" />
<path d="M6801 13615
L6801 13215
L6953 13215
L6991 13234
L7010 13253
L7029 13291
L7029 13348
L7010 13387
L6991 13406
L6953 13425
L6801 13425
" />
<path d="M7372 13215
L7296 13215
L7258 13234
L7239 13253
L7201 13310
L7182 13387
L7182 13539
L7201 13577
L7220 13596
L7258 13615
L7334 13615
L7372 13596
L7391 13577
L7410 13539
L7410 13444
L7391 13406
L7372 13387
L7334 13367
L7258 13367
L7220 13387
L7201 13406
L7182 13444
" />
<path d="M18801 13615
L18801 13215
L18953 13215
L18991 13234
L19010 13253
L19029 13291
L19029 13348
L19010 13387
L18991 13406
L18953 13425
L18801 13425
" />
<path d="M19391 13215
L19201 13215
L19182 13406
L19201 13387
L19239 13367
L19334 13367
L19372 13387
L19391 13406
L19410 13444
L19410 13539
L19391 13577
L19372 13596
L19334 13615
L19239 13615
L19201 13596
L19182 13577
" />
<path d="M13801 13865
L13801 13465
L13953 13465
L13991 13484
L14010 13503
L14029 13541
L14029 13598
L14010 13637
L13991 13656
L13953 13675
L13801 13675
" />
<path d="M14372 13598
L14372 13865
" />
<path d="M14277 13446
L14182 13732
L14429 13732
" />
<path d="M24451 10215
L24451 9815
L24603 9815
L24641 9834
L24660 9853
L24679 9891
L24679 9948
L24660 9987
L24641 10006
L24603 10025
L24451 10025
" />
<path d="M24813 9815
L25079 9815
L24908 10215
" />
<path d="M24260 17715
L24260 17315
L24413 17315
L24451 17334
L24470 17353
L24489 17391
L24489 17448
L24470 17487
L24451 17506
L24413 17525
L24260 17525
" />
<path d="M24870 17715
L24641 17715
" />
<path d="M24755 17715
L24755 17315
L24717 17372
L24679 17410
L24641 17429
" />
<path d="M25251 17715
L25022 17715
" />
<path d="M25136 17715
L25136 17315
L25098 17372
L25060 17410
L25022 17429
" />
<path d="M27051 27365
L27051 26965
L27203 26965
L27241 26984
L27260 27003
L27279 27041
L27279 27098
L27260 27137
L27241 27156
L27203 27175
L27051 27175
" />
<path d="M27470 27365
L27546 27365
L27584 27346
L27603 27327
L27641 27270
L27660 27194
L27660 27041
L27641 27003
L27622 26984
L27584 26965
L27508 26965
L27470 26984
L27451 27003
L27432 27041
L27432 27137
L27451 27175
L27470 27194
L27508 27213
L27584 27213
L27622 27194
L27641 27175
L27660 27137
" />
<path d="M12051 27365
L12051 26965
L12203 26965
L12241 26984
L12260 27003
L12279 27041
L12279 27098
L12260 27137
L12241 27156
L12203 27175
L12051 27175
" />
<path d="M12508 27137
L12470 27117
L12451 27098
L12432 27060
L12432 27041
L12451 27003
L12470 26984
L12508 26965
L12584 26965
L12622 26984
L12641 27003
L12660 27041
L12660 27060
L12641 27098
L12622 27117
L12584 27137
L12508 27137
L12470 27156
L12451 27175
L12432 27213
L12432 27289
L12451 27327
L12470 27346
L12508 27365
L12584 27365
L12622 27346
L12641 27327
L12660 27289
L12660 27213
L12641 27175
L12622 27156
L12584 27137
" />
<path d="M18051 3365
L18051 2965
L18203 2965
L18241 2984
L18260 3003
L18279 3041
L18279 3098
L18260 3137
L18241 3156
L18203 3175
L18051 3175
" />
<path d="M18413 2965
L18660 2965
L18527 3117
L18584 3117
L18622 3137
L18641 3156
L18660 3194
L18660 3289
L18641 3327
L18622 3346
L18584 3365
L18470 3365
L18432 3346
L18413 3327
" />
<path d="M3051 3365
L3051 2965
L3203 2965
L3241 2984
L3260 3003
L3279 3041
L3279 3098
L3260 3137
L3241 3156
L3203 3175
L3051 3175
" />
<path d="M3432 3003
L3451 2984
L3489 2965
L3584 2965
L3622 2984
L3641 3003
L3660 3041
L3660 3079
L3641 3137
L3413 3365
L3660 3365
" />
<path d="M13001 5865
L13001 5465
L13153 5465
L13191 5484
L13210 5503
L13229 5541
L13229 5598
L13210 5637
L13191 5656
L13153 5675
L13001 5675
" />
<path d="M13610 5865
L13382 5865
" />
<path d="M13496 5865
L13496 5465
L13458 5522
L13420 5560
L13382 5579
" />
<path d="M16860 24865
L16860 24465
L17013 24465
L17051 24484
L17070 24503
L17089 24541
L17089 24598
L17070 24637
L17051 24656
L17013 24675
L16860 24675
" />
<path d="M17470 24865
L17241 24865
" />
<path d="M17355 24865
L17355 24465
L17317 24522
L17279 24560
L17241 24579
" />
<path d="M17717 24465
L17755 24465
L17793 24484
L17813 24503
L17832 24541
L17851 24617
L17851 24713
L17832 24789
L17813 24827
L17793 24846
L17755 24865
L17717 24865
L17679 24846
L17660 24827
L17641 24789
L17622 24713
L17622 24617
L17641 24541
L17660 24503
L17679 24484
L17717 24465
" />
<path d="M28529 13327
L28510 13346
L28453 13365
L28415 13365
L28358 13346
L28320 13308
L28301 13270
L28282 13194
L28282 13137
L28301 13060
L28320 13022
L28358 12984
L28415 12965
L28453 12965
L28510 12984
L28529 13003
" />
<path d="M28872 12965
L28796 12965
L28758 12984
L28739 13003
L28701 13060
L28682 13137
L28682 13289
L28701 13327
L28720 13346
L28758 13365
L28834 13365
L28872 13346
L28891 13327
L28910 13289
L28910 13194
L28891 13156
L28872 13137
L28834 13117
L28758 13117
L28720 13137
L28701 13156
L28682 13194
" />
</g>
<g style="fill:#008484; fill-opacity:0.0; 
stroke:#008484; stroke-width:60; stroke-opacity:1; 
stroke-linecap:round; stroke-linejoin:round;">
<path d="M25339 14365
L25110 14365
" />
<path d="M25224 14365
L25224 13965
L25186 14022
L25148 14060
L25110 14079
" />
<path d="M25586 13965
L25624 13965
L25663 13984
L25682 14003
L25701 14041
L25720 14117
L25720 14213
L25701 14289
L25682 14327
L25663 14346
L25624 14365
L25586 14365
L25548 14346
L25529 14327
L25510 14289
L25491 14213
L25491 14117
L25510 14041
L25529 14003
L25548 13984
L25586 13965
" />
<path d="M26063 14098
L26063 14365
" />
<path d="M25891 14098
L25891 14308
L25910 14346
L25948 14365
L26005 14365
L26043 14346
L26063 14327
" />
</g>
<g style="fill:#008484; fill-opacity:0.0; 
stroke:#008484; stroke-width:80; stroke-opacity:1; 
stroke-linecap:round; stroke-linejoin:round;">
<path d="M28529 15577
L28510 15596
L28453 15615
L28415 15615
L28358 15596
L28320 15558
L28301 15520
L28282 15444
L28282 15387
L28301 15310
L28320 15272
L28358 15234
L28415 15215
L28453 15215
L28510 15234
L28529 15253
" />
<path d="M28891 15215
L28701 15215
L28682 15406
L28701 15387
L28739 15367
L28834 15367
L28872 15387
L28891 15406
L28910 15444
L28910 15539
L28891 15577
L28872 15596
L28834 15615
L28739 15615
L28701 15596
L28682 15577
" />
</g>
<g style="fill:#008484; fill-opacity:0.0; 
stroke:#008484; stroke-width:60; stroke-opacity:1; 
stroke-linecap:round; stroke-linejoin:round;">
<path d="M25339 16115
L25110 16115
" />
<path d="M25224 16115
L25224 15715
L25186 15772
L25148 15810
L25110 15829
" />
<path d="M25586 15715
L25624 15715
L25663 15734
L25682 15753
L25701 15791
L25720 15867
L25720 15963
L25701 16039
L25682 16077
L25663 16096
L25624 16115
L25586 16115
L25548 16096
L25529 16077
L25510 16039
L25491 15963
L25491 15867
L25510 15791
L25529 15753
L25548 15734
L25586 15715
" />
<path d="M26063 15848
L26063 16115
" />
<path d="M25891 15848
L25891 16058
L25910 16096
L25948 16115
L26005 16115
L26043 16096
L26063 16077
" />
</g>
<g style="fill:#008484; fill-opacity:0.0; 
stroke:#008484; stroke-width:59.0551; stroke-opacity:1; 
stroke-linecap:round; stroke-linejoin:round;">
<path d="M17399 12499
L17793 12499
" />
<path d="M17399 11869
L17793 11869
" />
<path d="M17793 17869
L17399 17869
" />
<path d="M17793 18499
L17399 18499
" />
<path d="M13293 17869
L12899 17869
" />
<path d="M13293 18499
L12899 18499
" />
<path d="M13293 11869
L12899 11869
" />
<path d="M13293 12499
L12899 12499
" />
</g>
<g style="fill:#008484; fill-opacity:0.0; 
stroke:#008484; stroke-width:98.4252; stroke-opacity:1; 
stroke-linecap:round; stroke-linejoin:round;">
<path d="M16625 19208
L16822 19208
" />
<path d="M16822 19208
L16822 19405
" />
<path d="M14066 19208
L13869 19208
" />
<path d="M13869 19208
L13869 19405
" />
<path d="M16822 22161
L16940 22279
" />
<path d="M16625 22161
L16822 22161
" />
<path d="M16822 22161
L16822 21964
" />
<path d="M14066 22161
L13869 22161
" />
<path d="M13869 22161
L13869 21964
" />
<path d="M14066 11161
L13869 11161
" />
<path d="M13869 11161
L13869 10964
" />
<path d="M16625 11161
L16822 11161
" />
<path d="M16822 11161
L16822 10964
" />
<path d="M13869 8208
L13751 8090
" />
<path d="M14066 8208
L13869 8208
" />
<path d="M13869 8208
L13869 8405
" />
<path d="M16625 8208
L16822 8208
" />
<path d="M16822 8208
L16822 8405
" />
<path d="M6646 13884
L6446 13684
" />
<path d="M6646 14384
L6646 13884
" />
<path d="M6646 13884
L7146 13884
" />
<path d="M7146 16384
L6646 16384
" />
<path d="M6646 16384
L6646 15884
" />
<path d="M12046 15984
L12046 16484
" />
<path d="M12046 16484
L11546 16484
" />
<path d="M11546 13984
L12046 13984
" />
<path d="M12046 13984
L12046 14484
" />
<path d="M18646 13884
L18446 13684
" />
<path d="M18646 14384
L18646 13884
" />
<path d="M18646 13884
L19146 13884
" />
<path d="M19146 16384
L18646 16384
" />
<path d="M18646 16384
L18646 15884
" />
<path d="M24046 15984
L24046 16484
" />
<path d="M24046 16484
L23546 16484
" />
<path d="M23546 13984
L24046 13984
" />
<path d="M24046 13984
L24046 14484
" />
<path d="M15149 14101
L15543 14101
" />
<path d="M15149 16267
L15543 16267
" />
<path d="M13653 14082
L13495 13924
" />
<path d="M13673 14397
L13673 14101
" />
<path d="M13673 14101
L13968 14101
" />
<path d="M13968 16267
L13673 16267
" />
<path d="M13673 16267
L13673 15972
" />
<path d="M17019 15972
L17019 16267
" />
<path d="M17019 16267
L16724 16267
" />
<path d="M17019 14101
L17019 14397
" />
<path d="M16724 14101
L17019 14101
" />
<path d="M24196 10434
L24096 10334
" />
<path d="M24196 10434
L24396 10434
" />
<path d="M24196 10434
L24196 10634
" />
<path d="M24196 12434
L24196 12234
" />
<path d="M24196 12434
L24396 12434
" />
<path d="M26496 12234
L26496 12434
" />
<path d="M26496 12434
L26296 12434
" />
<path d="M26496 10634
L26496 10434
" />
<path d="M26496 10434
L26296 10434
" />
<path d="M24196 17934
L24096 17834
" />
<path d="M24196 17934
L24396 17934
" />
<path d="M24196 17934
L24196 18134
" />
<path d="M24196 19934
L24196 19734
" />
<path d="M24196 19934
L24396 19934
" />
<path d="M26496 19734
L26496 19934
" />
<path d="M26496 19934
L26296 19934
" />
<path d="M26496 18134
L26496 17934
" />
<path d="M26496 17934
L26296 17934
" />
<path d="M19204 25200
L19204 30220
" />
<path d="M26488 27168
L25405 27168
" />
<path d="M26488 25200
L26488 30220
" />
<path d="M4204 25200
L4204 30220
" />
<path d="M11488 27168
L10405 27168
" />
<path d="M11488 25200
L11488 30220
" />
<path d="M26488 5168
L26488 149
" />
<path d="M19204 3200
L20287 3200
" />
<path d="M19204 5168
L19204 149
" />
<path d="M11488 5168
L11488 149
" />
<path d="M4204 3200
L5287 3200
" />
<path d="M4204 5168
L4204 149
" />
<path d="M17096 4184
L17096 5184
" />
<path d="M17096 5184
L16596 5184
" />
<path d="M13996 5184
L13996 5684
" />
<path d="M13496 5184
L13496 4184
" />
<path d="M13496 5184
L13996 5184
" />
<path d="M13496 184
L13496 1184
" />
<path d="M13496 184
L14496 184
" />
<path d="M16096 184
L17096 184
" />
<path d="M17096 184
L17096 1184
" />
<path d="M13546 26184
L13546 25184
" />
<path d="M13546 25184
L14046 25184
" />
<path d="M16646 25184
L16646 24684
" />
<path d="M17146 25184
L17146 26184
" />
<path d="M17146 25184
L16646 25184
" />
<path d="M17146 30184
L17146 29184
" />
<path d="M17146 30184
L16146 30184
" />
<path d="M14546 30184
L13546 30184
" />
<path d="M13546 30184
L13546 29184
" />
<path d="M26362.1 14184.6 A984.252 984.252 0.0 0 0 26494 14676.8 " />
<path d="M26494 13692.5 A984.252 984.252 0.0 0 0 26362.1 14184.6 " />
<path d="M28330 14184
L28625 14184
" />
<path d="M28330.6 14184.6 A984.252 984.252 0.0 0 0 28198.7 13692.5 " />
<path d="M28198.7 14676.8 A984.252 984.252 0.0 0 0 28330.6 14184.6 " />
<path d="M28330.6 16434.6 A984.252 984.252 0.0 0 0 28198.7 15942.5 " />
<path d="M28198.7 16926.8 A984.252 984.252 0.0 0 0 28330.6 16434.6 " />
<path d="M26362 16434
L26066 16434
" />
<path d="M26362.1 16434.6 A984.252 984.252 0.0 0 0 26494 16926.8 " />
<path d="M26494 15942.5 A984.252 984.252 0.0 0 0 26362.1 16434.6 " />
</g>
<g style="fill:#840000; fill-opacity:0.0; 
stroke:#840000; stroke-width:39.3701; stroke-opacity:1; 
stroke-linecap:round; stroke-linejoin:round;">
</g>
<g style="fill:#840000; fill-opacity:1.0; 
stroke:#840000; stroke-width:39.3701; stroke-opacity:1; 
stroke-linecap:round; stroke-linejoin:round;">
<circle cx="2846.35" cy="7684.65" r="570.866" /> 
<circle cx="2846.35" cy="22684.6" r="570.866" /> 
<circle cx="27846.4" cy="7684.65" r="570.866" /> 
<circle cx="27846.4" cy="22684.6" r="570.866" /> 
<polyline style="fill-rule:evenodd;"
points="7041,14989
7041,14379
7651,14379
7651,14989
7041,14989
" /> 
<circle cx="7346.35" cy="15684.6" r="305.118" /> 
<circle cx="8346.35" cy="14684.6" r="305.118" /> 
<circle cx="8346.35" cy="15684.6" r="305.118" /> 
<circle cx="9346.35" cy="14684.6" r="305.118" /> 
<circle cx="9346.35" cy="15684.6" r="305.118" /> 
<circle cx="10346.4" cy="14684.6" r="305.118" /> 
<circle cx="10346.4" cy="15684.6" r="305.118" /> 
<circle cx="11346.4" cy="14684.6" r="305.118" /> 
<circle cx="11346.4" cy="15684.6" r="305.118" /> 
<polyline style="fill-rule:evenodd;"
points="19041,14989
19041,14379
19651,14379
19651,14989
19041,14989
" /> 
<circle cx="19346.4" cy="15684.6" r="305.118" /> 
<circle cx="20346.4" cy="14684.6" r="305.118" /> 
<circle cx="20346.4" cy="15684.6" r="305.118" /> 
<circle cx="21346.4" cy="14684.6" r="305.118" /> 
<circle cx="21346.4" cy="15684.6" r="305.118" /> 
<circle cx="22346.4" cy="14684.6" r="305.118" /> 
<circle cx="22346.4" cy="15684.6" r="305.118" /> 
<circle cx="23346.4" cy="14684.6" r="305.118" /> 
<circle cx="23346.4" cy="15684.6" r="305.118" /> 
<polyline style="fill-rule:evenodd;"
points="14041,14989
14041,14379
14651,14379
14651,14989
14041,14989
" /> 
<circle cx="15346.4" cy="14684.6" r="305.118" /> 
<circle cx="14346.4" cy="15684.6" r="305.118" /> 
<circle cx="15346.4" cy="15684.6" r="305.118" /> 
<circle cx="16346.4" cy="14684.6" r="305.118" /> 
<circle cx="16346.4" cy="15684.6" r="305.118" /> 
<polyline style="fill-rule:evenodd;"
points="24541,11239
24541,10629
25151,10629
25151,11239
24541,11239
" /> 
<circle cx="24846.4" cy="11934.6" r="305.118" /> 
<circle cx="25846.4" cy="10934.6" r="305.118" /> 
<circle cx="25846.4" cy="11934.6" r="305.118" /> 
<polyline style="fill-rule:evenodd;"
points="24541,18739
24541,18129
25151,18129
25151,18739
24541,18739
" /> 
<circle cx="24846.4" cy="19434.6" r="305.118" /> 
<circle cx="25846.4" cy="18434.6" r="305.118" /> 
<circle cx="25846.4" cy="19434.6" r="305.118" /> 
<circle cx="25602.3" cy="26578.3" r="255.906" /> 
<circle cx="25602.3" cy="25790.9" r="255.906" /> 
<circle cx="24814.9" cy="26578.3" r="255.906" /> 
<circle cx="24814.9" cy="25790.9" r="255.906" /> 
<circle cx="24027.5" cy="26578.3" r="255.906" /> 
<circle cx="24027.5" cy="25790.9" r="255.906" /> 
<circle cx="23240.1" cy="26578.3" r="255.906" /> 
<circle cx="23240.1" cy="25790.9" r="255.906" /> 
<circle cx="22452.7" cy="26578.3" r="255.906" /> 
<circle cx="22452.7" cy="25790.9" r="255.906" /> 
<circle cx="21665.2" cy="26578.3" r="255.906" /> 
<circle cx="21665.2" cy="25790.9" r="255.906" /> 
<circle cx="20877.8" cy="26578.3" r="255.906" /> 
<circle cx="20877.8" cy="25790.9" r="255.906" /> 
<circle cx="20090.4" cy="26578.3" r="255.906" /> 
<circle cx="20090.4" cy="25790.9" r="255.906" /> 
<circle cx="10602.3" cy="26578.3" r="255.906" /> 
<circle cx="10602.3" cy="25790.9" r="255.906" /> 
<circle cx="9814.86" cy="26578.3" r="255.906" /> 
<circle cx="9814.86" cy="25790.9" r="255.906" /> 
<circle cx="9027.45" cy="26578.3" r="255.906" /> 
<circle cx="9027.45" cy="25790.9" r="255.906" /> 
<circle cx="8240.05" cy="26578.3" r="255.906" /> 
<circle cx="8240.05" cy="25790.9" r="255.906" /> 
<circle cx="7452.65" cy="26578.3" r="255.906" /> 
<circle cx="7452.65" cy="25790.9" r="255.906" /> 
<circle cx="6665.25" cy="26578.3" r="255.906" /> 
<circle cx="6665.25" cy="25790.9" r="255.906" /> 
<circle cx="5877.85" cy="26578.3" r="255.906" /> 
<circle cx="5877.85" cy="25790.9" r="255.906" /> 
<circle cx="5090.45" cy="26578.3" r="255.906" /> 
<circle cx="5090.45" cy="25790.9" r="255.906" /> 
<circle cx="20090.4" cy="3790.95" r="255.906" /> 
<circle cx="20090.4" cy="4578.35" r="255.906" /> 
<circle cx="20877.8" cy="3790.95" r="255.906" /> 
<circle cx="20877.8" cy="4578.35" r="255.906" /> 
<circle cx="21665.2" cy="3790.95" r="255.906" /> 
<circle cx="21665.2" cy="4578.35" r="255.906" /> 
<circle cx="22452.7" cy="3790.95" r="255.906" /> 
<circle cx="22452.7" cy="4578.35" r="255.906" /> 
<circle cx="23240.1" cy="3790.95" r="255.906" /> 
<circle cx="23240.1" cy="4578.35" r="255.906" /> 
<circle cx="24027.5" cy="3790.95" r="255.906" /> 
<circle cx="24027.5" cy="4578.35" r="255.906" /> 
<circle cx="24814.9" cy="3790.95" r="255.906" /> 
<circle cx="24814.9" cy="4578.35" r="255.906" /> 
<circle cx="25602.3" cy="3790.95" r="255.906" /> 
<circle cx="25602.3" cy="4578.35" r="255.906" /> 
<circle cx="5090.45" cy="3790.95" r="255.906" /> 
<circle cx="5090.45" cy="4578.35" r="255.906" /> 
<circle cx="5877.85" cy="3790.95" r="255.906" /> 
<circle cx="5877.85" cy="4578.35" r="255.906" /> 
<circle cx="6665.25" cy="3790.95" r="255.906" /> 
<circle cx="6665.25" cy="4578.35" r="255.906" /> 
<circle cx="7452.65" cy="3790.95" r="255.906" /> 
<circle cx="7452.65" cy="4578.35" r="255.906" /> 
<circle cx="8240.05" cy="3790.95" r="255.906" /> 
<circle cx="8240.05" cy="4578.35" r="255.906" /> 
<circle cx="9027.45" cy="3790.95" r="255.906" /> 
<circle cx="9027.45" cy="4578.35" r="255.906" /> 
<circle cx="9814.86" cy="3790.95" r="255.906" /> 
<circle cx="9814.86" cy="4578.35" r="255.906" /> 
<circle cx="10602.3" cy="3790.95" r="255.906" /> 
<circle cx="10602.3" cy="4578.35" r="255.906" /> 
<circle cx="14796.4" cy="5184.65" r="314.961" /> 
<circle cx="15796.4" cy="5184.65" r="314.961" /> 
<circle cx="16296.4" cy="1784.65" r="650.315" /> 
<circle cx="14296.4" cy="1784.65" r="650.315" /> 
<circle cx="15846.4" cy="25184.6" r="314.961" /> 
<circle cx="14846.4" cy="25184.6" r="314.961" /> 
<circle cx="14346.4" cy="28584.6" r="650.315" /> 
<circle cx="16346.4" cy="28584.6" r="650.315" /> 
<circle cx="27740.1" cy="14184.6" r="255.906" /> 
<circle cx="26952.7" cy="14184.6" r="255.906" /> 
<circle cx="26952.7" cy="16434.6" r="255.906" /> 
<circle cx="27740.1" cy="16434.6" r="255.906" /> 
</g>
<g style="fill:#C2C2C2; fill-opacity:1.0; 
stroke:#C2C2C2; stroke-width:39.3701; stroke-opacity:1; 
stroke-linecap:round; stroke-linejoin:round;">
<circle cx="4196.35" cy="29284.6" r="230.315" /> 
<circle cx="7846.35" cy="28034.6" r="230.315" /> 
<circle cx="11496.4" cy="29284.6" r="230.315" /> 
<circle cx="19146.4" cy="29384.6" r="230.315" /> 
<circle cx="22896.4" cy="28084.6" r="230.315" /> 
<circle cx="27296.4" cy="28634.6" r="230.315" /> 
<circle cx="27396.4" cy="24584.6" r="230.315" /> 
<circle cx="27046.4" cy="10084.6" r="230.315" /> 
<circle cx="25246.4" cy="8934.65" r="230.315" /> 
<circle cx="26446.4" cy="1134.65" r="230.315" /> 
<circle cx="22846.4" cy="2384.65" r="230.315" /> 
<circle cx="19196.4" cy="1134.65" r="230.315" /> 
<circle cx="11496.4" cy="1084.65" r="230.315" /> 
<circle cx="7846.35" cy="2234.65" r="230.315" /> 
<circle cx="4996.35" cy="1134.65" r="230.315" /> 
<circle cx="4196.35" cy="15284.6" r="230.315" /> 
<circle cx="8946.35" cy="11584.6" r="230.315" /> 
<circle cx="5046.35" cy="12434.6" r="230.315" /> 
<circle cx="4046.35" cy="17584.6" r="230.315" /> 
<circle cx="6046.35" cy="18234.6" r="230.315" /> 
<circle cx="6046.35" cy="19634.6" r="230.315" /> 
<circle cx="4046.35" cy="18984.6" r="230.315" /> 
<circle cx="5046.35" cy="10334.6" r="230.315" /> 
<circle cx="4046.35" cy="20384.6" r="230.315" /> 
<circle cx="14296.4" cy="17784.6" r="180.315" /> 
<circle cx="12296.4" cy="18634.6" r="180.315" /> 
<circle cx="12296.4" cy="11734.6" r="180.315" /> 
<circle cx="14296.4" cy="12584.6" r="180.315" /> 
<circle cx="16396.4" cy="12584.6" r="180.315" /> 
<circle cx="18396.4" cy="11734.6" r="180.315" /> 
<circle cx="18396.4" cy="18634.6" r="180.315" /> 
<circle cx="16396.4" cy="17784.6" r="180.315" /> 
<circle cx="27846.4" cy="18434.6" r="230.315" /> 
<circle cx="27846.4" cy="19434.6" r="230.315" /> 
<circle cx="13496.4" cy="18834.6" r="180.315" /> 
<circle cx="13496.4" cy="11534.6" r="180.315" /> 
<circle cx="17196.4" cy="11534.6" r="180.315" /> 
<circle cx="17196.4" cy="18834.6" r="180.315" /> 
<circle cx="26846.4" cy="18934.6" r="230.315" /> 
<circle cx="11096.4" cy="17884.6" r="230.315" /> 
<circle cx="11096.4" cy="12184.6" r="230.315" /> 
<circle cx="23346.4" cy="18934.6" r="230.315" /> 
<circle cx="22346.4" cy="18434.6" r="230.315" /> 
<circle cx="22346.4" cy="19434.6" r="230.315" /> 
</g>
<g style="fill:#000084; fill-opacity:1.0; 
stroke:#000084; stroke-width:39.3701; stroke-opacity:1; 
stroke-linecap:round; stroke-linejoin:round;">
<polyline style="fill-rule:evenodd;"
points="28771,29859
28687,29859
28687,22518
28687,7518
28559,7209
28323,6972
28014,6844
27679,6843
27370,6971
27134,7207
27005,7516
27005,7851
27133,8160
27369,8396
27678,8525
28012,8525
28321,8397
28558,8161
28686,7852
28687,7518
28687,22518
28559,22209
28346,21995
28346,19335
28270,19151
28129,19011
27946,18934
27945,18934
28129,18858
28269,18718
28346,18534
28346,18335
28270,18151
28129,18011
27946,17934
27747,17934
27563,18010
27546,18027
27546,9985
27470,9801
27329,9661
27146,9584
26947,9584
26946,9584
26946,1035
26870,851
26729,711
26546,634
26347,634
26163,710
26022,851
25946,1034
25946,1233
26022,1417
26162,1558
26346,1634
26545,1634
26729,1558
26869,1418
26946,1234
26946,1035
26946,9584
26763,9660
26622,9801
26546,9984
26546,10183
26622,10367
26762,10508
26946,10584
27145,10584
27329,10508
27469,10368
27546,10184
27546,9985
27546,18027
27478,18095
27478,16330
27478,14080
27398,13887
27250,13739
27057,13659
26848,13658
26655,13738
26507,13886
26427,14079
26426,14288
26506,14481
26654,14629
26847,14710
27056,14710
27249,14630
27397,14482
27478,14289
27478,14080
27478,16330
27398,16137
27250,15989
27057,15909
26848,15908
26655,15988
26507,16136
26427,16329
26426,16538
26506,16731
26654,16879
26847,16960
27056,16960
27249,16880
27397,16732
27478,16539
27478,16330
27478,18095
27422,18151
27346,18334
27346,18533
27422,18717
27562,18858
27746,18934
27747,18934
27563,19010
27422,19151
27346,19334
27346,19335
27346,18835
27270,18651
27129,18511
26946,18434
26747,18434
26563,18510
26422,18651
26346,18834
26346,19033
26422,19217
26562,19358
26746,19434
26945,19434
27129,19358
27269,19218
27346,19034
27346,18835
27346,19335
27346,19533
27422,19717
27562,19858
27746,19934
27945,19934
28129,19858
28269,19718
28346,19534
28346,19335
28346,21995
28323,21972
28014,21844
27679,21843
27370,21971
27134,22207
27005,22516
27005,22851
27133,23160
27369,23396
27678,23525
28012,23525
28321,23397
28558,23161
28686,22852
28687,22518
28687,29859
27896,29859
27896,24485
27820,24301
27679,24161
27496,24084
27297,24084
27113,24160
26972,24301
26896,24484
26896,24683
26972,24867
27112,25008
27296,25084
27495,25084
27679,25008
27819,24868
27896,24684
27896,24485
27896,29859
27796,29859
27796,28535
27720,28351
27579,28211
27396,28134
27197,28134
27013,28210
26872,28351
26796,28534
26796,28733
26872,28917
27012,29058
27196,29134
27395,29134
27579,29058
27719,28918
27796,28734
27796,28535
27796,29859
26421,29859
26421,19320
26333,19109
26172,18947
26141,18934
26171,18922
26333,18760
26421,18549
26421,18320
26333,18109
26172,17947
26127,17929
26127,4474
26048,4281
25951,4184
26047,4089
26127,3895
26127,3686
26048,3493
25900,3345
25707,3265
25498,3265
25304,3345
25208,3441
25112,3345
24919,3265
24710,3265
24517,3345
24421,3441
24325,3345
24132,3265
23923,3265
23730,3345
23633,3441
23538,3345
23346,3266
23346,2285
23270,2101
23129,1961
22946,1884
22747,1884
22563,1960
22422,2101
22346,2284
22346,2483
22422,2667
22562,2808
22746,2884
22945,2884
23129,2808
23269,2668
23346,2484
23346,2285
23346,3266
23345,3265
23135,3265
22942,3345
22846,3441
22750,3345
22557,3265
22348,3265
22155,3345
22058,3441
21963,3345
21770,3265
21561,3265
21367,3345
21271,3441
21175,3345
20982,3265
20773,3265
20580,3345
20484,3441
20388,3345
20195,3265
19986,3265
19793,3345
19696,3441
19696,1035
19620,851
19479,711
19296,634
19097,634
18913,710
18772,851
18696,1034
18696,1233
18772,1417
18912,1558
19096,1634
19295,1634
19479,1558
19619,1418
19696,1234
19696,1035
19696,3441
19645,3492
19564,3685
19564,3895
19644,4088
19740,4184
19645,4280
19564,4473
19564,4682
19644,4875
19792,5023
19985,5103
20194,5104
20387,5024
20484,4927
20579,5023
20772,5103
20981,5104
21175,5024
21271,4927
21367,5023
21560,5103
21769,5104
21962,5024
22058,4927
22154,5023
22347,5103
22556,5104
22749,5024
22846,4927
22941,5023
23135,5103
23344,5104
23537,5024
23633,4927
23729,5023
23922,5103
24131,5104
24324,5024
24421,4927
24516,5023
24709,5103
24918,5104
25112,5024
25208,4927
25304,5023
25497,5103
25706,5104
25899,5024
26047,4876
26127,4683
26127,4474
26127,17929
25961,17859
25746,17859
25746,8835
25670,8651
25529,8511
25346,8434
25147,8434
24963,8510
24822,8651
24746,8834
24746,9033
24822,9217
24962,9358
25146,9434
25345,9434
25529,9358
25669,9218
25746,9034
25746,8835
25746,17859
25732,17859
25521,17947
25417,18050
25383,17968
25312,17897
25220,17859
25121,17859
24471,17859
24379,17897
24309,17968
24271,18060
24271,18159
24271,18809
24309,18901
24379,18971
24462,19005
24359,19108
24271,19319
24271,19548
24358,19759
24520,19921
24731,20009
24960,20009
25171,19922
25333,19760
25346,19729
25358,19759
25520,19921
25731,20009
25960,20009
26171,19922
26333,19760
26421,19549
26421,19320
26421,29859
26127,29859
26127,26474
26048,26281
25951,26184
26047,26089
26127,25895
26127,25686
26048,25493
25900,25345
25707,25265
25498,25265
25304,25345
25208,25441
25112,25345
24919,25265
24710,25265
24517,25345
24421,25441
24325,25345
24132,25265
23923,25265
23921,25266
23921,15570
23833,15359
23672,15197
23641,15184
23671,15172
23833,15010
23921,14799
23921,14570
23833,14359
23672,14197
23461,14109
23232,14109
23021,14197
22859,14358
22846,14389
22833,14359
22672,14197
22461,14109
22232,14109
22021,14197
21859,14358
21846,14389
21833,14359
21672,14197
21461,14109
21232,14109
21021,14197
20859,14358
20846,14389
20833,14359
20672,14197
20461,14109
20232,14109
20021,14197
19917,14300
19883,14218
19812,14147
19720,14109
19621,14109
18971,14109
18879,14147
18809,14218
18771,14310
18771,14409
18771,15059
18809,15151
18879,15221
18962,15255
18859,15358
18771,15569
18771,15798
18858,16009
19020,16171
19231,16259
19460,16259
19671,16172
19833,16010
19846,15979
19858,16009
20020,16171
20231,16259
20460,16259
20671,16172
20833,16010
20846,15979
20858,16009
21020,16171
21231,16259
21460,16259
21671,16172
21833,16010
21846,15979
21858,16009
22020,16171
22231,16259
22460,16259
22671,16172
22833,16010
22846,15979
22858,16009
23020,16171
23231,16259
23460,16259
23671,16172
23833,16010
23921,15799
23921,15570
23921,25266
23846,25297
23846,18835
23770,18651
23629,18511
23446,18434
23247,18434
23063,18510
22922,18651
22846,18834
22846,19033
22922,19217
23062,19358
23246,19434
23445,19434
23629,19358
23769,19218
23846,19034
23846,18835
23846,25297
23730,25345
23633,25441
23538,25345
23345,25265
23135,25265
22942,25345
22846,25441
22846,19335
22770,19151
22629,19011
22446,18934
22445,18934
22629,18858
22769,18718
22846,18534
22846,18335
22770,18151
22629,18011
22446,17934
22247,17934
22063,18010
21922,18151
21846,18334
21846,18533
21922,18717
22062,18858
22246,18934
22247,18934
22063,19010
21922,19151
21846,19334
21846,19533
21922,19717
22062,19858
22246,19934
22445,19934
22629,19858
22769,19718
22846,19534
22846,19335
22846,25441
22846,25441
22750,25345
22557,25265
22348,25265
22155,25345
22058,25441
21963,25345
21770,25265
21561,25265
21367,25345
21271,25441
21175,25345
20982,25265
20773,25265
20580,25345
20484,25441
20388,25345
20195,25265
19986,25265
19793,25345
19645,25492
19564,25685
19564,25895
19644,26088
19740,26184
19645,26280
19564,26473
19564,26682
19644,26875
19792,27023
19985,27103
20194,27104
20387,27024
20484,26927
20579,27023
20772,27103
20981,27104
21175,27024
21271,26927
21367,27023
21560,27103
21769,27104
21962,27024
22058,26927
22154,27023
22347,27103
22556,27104
22749,27024
22846,26927
22941,27023
23135,27103
23344,27104
23537,27024
23633,26927
23729,27023
23922,27103
24131,27104
24324,27024
24421,26927
24516,27023
24709,27103
24918,27104
25112,27024
25208,26927
25304,27023
25497,27103
25706,27104
25899,27024
26047,26876
26127,26683
26127,26474
26127,29859
23396,29859
23396,27985
23320,27801
23179,27661
22996,27584
22797,27584
22613,27660
22472,27801
22396,27984
22396,28183
22472,28367
22612,28508
22796,28584
22995,28584
23179,28508
23319,28368
23396,28184
23396,27985
23396,29859
19306,29859
19429,29808
19569,29668
19646,29484
19646,29285
19570,29101
19429,28961
19246,28884
19047,28884
18863,28960
18722,29101
18646,29284
18646,29483
18722,29667
18862,29808
18986,29859
17646,29859
17646,18745
17646,11445
17578,11280
17451,11153
17286,11084
17216,11084
17216,1602
17076,1264
16818,1005
16480,864
16114,864
15775,1004
15516,1262
15376,1600
15376,1966
15515,2305
15774,2564
16112,2704
16478,2704
16816,2565
17075,2306
17216,1968
17216,1602
17216,11084
17107,11084
16941,11152
16815,11279
16746,11444
16746,11623
16814,11789
16941,11915
17106,11984
17285,11984
17450,11916
17577,11789
17646,11624
17646,11445
17646,18745
17578,18580
17451,18453
17286,18384
17107,18384
16941,18452
16921,18473
16921,15570
16833,15359
16672,15197
16641,15184
16671,15172
16833,15010
16921,14799
16921,14570
16833,14359
16672,14197
16461,14109
16381,14109
16381,5068
16292,4853
16127,4689
15913,4600
15680,4599
15465,4688
15301,4853
15296,4863
15292,4853
15216,4778
15216,1602
15076,1264
14818,1005
14480,864
14114,864
13775,1004
13516,1262
13376,1600
13376,1966
13515,2305
13774,2564
14112,2704
14478,2704
14816,2565
15075,2306
15216,1968
15216,1602
15216,4778
15127,4689
14913,4600
14680,4599
14465,4688
14301,4853
14211,5067
14211,5300
14300,5515
14464,5679
14679,5769
14912,5769
15127,5680
15291,5516
15296,5505
15300,5515
15464,5679
15679,5769
15912,5769
16127,5680
16291,5516
16380,5301
16381,5068
16381,14109
16232,14109
16021,14197
15859,14358
15846,14389
15833,14359
15672,14197
15461,14109
15232,14109
15021,14197
14917,14300
14883,14218
14812,14147
14720,14109
14621,14109
13971,14109
13946,14120
13946,11445
13878,11280
13751,11153
13586,11084
13407,11084
13241,11152
13115,11279
13046,11444
13046,11623
13114,11789
13241,11915
13406,11984
13585,11984
13750,11916
13877,11789
13946,11624
13946,11445
13946,14120
13879,14147
13809,14218
13771,14310
13771,14409
13771,15059
13809,15151
13879,15221
13962,15255
13859,15358
13771,15569
13771,15798
13858,16009
14020,16171
14231,16259
14460,16259
14671,16172
14833,16010
14846,15979
14858,16009
15020,16171
15231,16259
15460,16259
15671,16172
15833,16010
15846,15979
15858,16009
16020,16171
16231,16259
16460,16259
16671,16172
16833,16010
16921,15799
16921,15570
16921,18473
16815,18579
16746,18744
16746,18923
16814,19089
16941,19215
17106,19284
17285,19284
17450,19216
17577,19089
17646,18924
17646,18745
17646,29859
17266,29859
17266,28402
17126,28064
16868,27805
16530,27664
16431,27664
16431,25068
16342,24853
16177,24689
15963,24600
15730,24599
15515,24688
15351,24853
15346,24863
15342,24853
15177,24689
14963,24600
14730,24599
14515,24688
14351,24853
14261,25067
14261,25300
14350,25515
14514,25679
14729,25769
14962,25769
15177,25680
15341,25516
15346,25505
15350,25515
15514,25679
15729,25769
15962,25769
16177,25680
16341,25516
16430,25301
16431,25068
16431,27664
16164,27664
15825,27804
15566,28062
15426,28400
15426,28766
15565,29105
15824,29364
16162,29504
16528,29504
16866,29365
17125,29106
17266,28768
17266,28402
17266,29859
15266,29859
15266,28402
15126,28064
14868,27805
14530,27664
14164,27664
13946,27754
13946,18745
13878,18580
13751,18453
13586,18384
13407,18384
13241,18452
13115,18579
13046,18744
13046,18923
13114,19089
13241,19215
13406,19284
13585,19284
13750,19216
13877,19089
13946,18924
13946,18745
13946,27754
13825,27804
13566,28062
13426,28400
13426,28766
13565,29105
13824,29364
14162,29504
14528,29504
14866,29365
15125,29106
15266,28768
15266,28402
15266,29859
11996,29859
11996,29185
11996,985
11920,801
11779,661
11596,584
11397,584
11213,660
11072,801
10996,984
10996,1183
11072,1367
11212,1508
11396,1584
11595,1584
11779,1508
11919,1368
11996,1184
11996,985
11996,29185
11921,29003
11921,15570
11833,15359
11672,15197
11641,15184
11671,15172
11833,15010
11921,14799
11921,14570
11833,14359
11672,14197
11596,14166
11596,12085
11520,11901
11379,11761
11196,11684
11127,11684
11127,4474
11048,4281
10951,4184
11047,4089
11127,3895
11127,3686
11048,3493
10900,3345
10707,3265
10498,3265
10304,3345
10208,3441
10112,3345
9919,3265
9710,3265
9517,3345
9421,3441
9325,3345
9132,3265
8923,3265
8730,3345
8633,3441
8538,3345
8346,3266
8346,2135
8270,1951
8129,1811
7946,1734
7747,1734
7563,1810
7422,1951
7346,2134
7346,2333
7422,2517
7562,2658
7746,2734
7945,2734
8129,2658
8269,2518
8346,2334
8346,2135
8346,3266
8345,3265
8135,3265
7942,3345
7846,3441
7750,3345
7557,3265
7348,3265
7155,3345
7058,3441
6963,3345
6770,3265
6561,3265
6367,3345
6271,3441
6175,3345
5982,3265
5773,3265
5580,3345
5496,3429
5496,1035
5420,851
5279,711
5096,634
4897,634
4713,710
4572,851
4496,1034
4496,1233
4572,1417
4712,1558
4896,1634
5095,1634
5279,1558
5419,1418
5496,1234
5496,1035
5496,3429
5484,3441
5388,3345
5195,3265
4986,3265
4793,3345
4645,3492
4564,3685
4564,3895
4644,4088
4740,4184
4645,4280
4564,4473
4564,4682
4644,4875
4792,5023
4985,5103
5194,5104
5387,5024
5484,4927
5579,5023
5772,5103
5981,5104
6175,5024
6271,4927
6367,5023
6560,5103
6769,5104
6962,5024
7058,4927
7154,5023
7347,5103
7556,5104
7749,5024
7846,4927
7941,5023
8135,5103
8344,5104
8537,5024
8633,4927
8729,5023
8922,5103
9131,5104
9324,5024
9421,4927
9516,5023
9709,5103
9918,5104
10112,5024
10208,4927
10304,5023
10497,5103
10706,5104
10899,5024
11047,4876
11127,4683
11127,4474
11127,11684
10997,11684
10813,11760
10672,11901
10596,12084
10596,12283
10672,12467
10812,12608
10996,12684
11195,12684
11379,12608
11519,12468
11596,12284
11596,12085
11596,14166
11461,14109
11232,14109
11021,14197
10859,14358
10846,14389
10833,14359
10672,14197
10461,14109
10232,14109
10021,14197
9859,14358
9846,14389
9833,14359
9672,14197
9461,14109
9446,14109
9446,11485
9370,11301
9229,11161
9046,11084
8847,11084
8663,11160
8522,11301
8446,11484
8446,11683
8522,11867
8662,12008
8846,12084
9045,12084
9229,12008
9369,11868
9446,11684
9446,11485
9446,14109
9232,14109
9021,14197
8859,14358
8846,14389
8833,14359
8672,14197
8461,14109
8232,14109
8021,14197
7917,14300
7883,14218
7812,14147
7720,14109
7621,14109
6971,14109
6879,14147
6809,14218
6771,14310
6771,14409
6771,15059
6809,15151
6879,15221
6962,15255
6859,15358
6771,15569
6771,15798
6858,16009
7020,16171
7231,16259
7460,16259
7671,16172
7833,16010
7846,15979
7858,16009
8020,16171
8231,16259
8460,16259
8671,16172
8833,16010
8846,15979
8858,16009
9020,16171
9231,16259
9460,16259
9671,16172
9833,16010
9846,15979
9858,16009
10020,16171
10231,16259
10460,16259
10671,16172
10833,16010
10846,15979
10858,16009
11020,16171
11231,16259
11460,16259
11671,16172
11833,16010
11921,15799
11921,15570
11921,29003
11920,29001
11779,28861
11596,28784
11596,17785
11520,17601
11379,17461
11196,17384
10997,17384
10813,17460
10672,17601
10596,17784
10596,17983
10672,18167
10812,18308
10996,18384
11195,18384
11379,18308
11519,18168
11596,17984
11596,17785
11596,28784
11596,28784
11397,28784
11213,28860
11127,28945
11127,26474
11048,26281
10951,26184
11047,26089
11127,25895
11127,25686
11048,25493
10900,25345
10707,25265
10498,25265
10304,25345
10208,25441
10112,25345
9919,25265
9710,25265
9517,25345
9421,25441
9325,25345
9132,25265
8923,25265
8730,25345
8633,25441
8538,25345
8345,25265
8135,25265
7942,25345
7846,25441
7750,25345
7557,25265
7348,25265
7155,25345
7058,25441
6963,25345
6770,25265
6561,25265
6546,25271
6546,19535
6546,18135
6470,17951
6329,17811
6146,17734
5947,17734
5763,17810
5622,17951
5546,18134
5546,18135
5546,12335
5546,10235
5470,10051
5329,9911
5146,9834
4947,9834
4763,9910
4622,10051
4546,10234
4546,10433
4622,10617
4762,10758
4946,10834
5145,10834
5329,10758
5469,10618
5546,10434
5546,10235
5546,12335
5470,12151
5329,12011
5146,11934
4947,11934
4763,12010
4622,12151
4546,12334
4546,12533
4622,12717
4762,12858
4946,12934
5145,12934
5329,12858
5469,12718
5546,12534
5546,12335
5546,18135
5546,18333
5622,18517
5762,18658
5946,18734
6145,18734
6329,18658
6469,18518
6546,18334
6546,18135
6546,19535
6470,19351
6329,19211
6146,19134
5947,19134
5763,19210
5622,19351
5546,19534
5546,19733
5622,19917
5762,20058
5946,20134
6145,20134
6329,20058
6469,19918
6546,19734
6546,19535
6546,25271
6367,25345
6271,25441
6175,25345
5982,25265
5773,25265
5580,25345
5484,25441
5388,25345
5195,25265
4986,25265
4793,25345
4696,25441
4696,15185
4620,15001
4479,14861
4296,14784
4097,14784
3913,14860
3772,15001
3696,15184
3696,15383
3772,15567
3912,15708
4096,15784
4295,15784
4479,15708
4619,15568
4696,15384
4696,15185
4696,25441
4645,25492
4564,25685
4564,25895
4644,26088
4740,26184
4645,26280
4564,26473
4564,26682
4644,26875
4792,27023
4985,27103
5194,27104
5387,27024
5484,26927
5579,27023
5772,27103
5981,27104
6175,27024
6271,26927
6367,27023
6560,27103
6769,27104
6962,27024
7058,26927
7154,27023
7347,27103
7556,27104
7749,27024
7846,26927
7941,27023
8135,27103
8344,27104
8537,27024
8633,26927
8729,27023
8922,27103
9131,27104
9324,27024
9421,26927
9516,27023
9709,27103
9918,27104
10112,27024
10208,26927
10304,27023
10497,27103
10706,27104
10899,27024
11047,26876
11127,26683
11127,26474
11127,28945
11072,29001
10996,29184
10996,29383
11072,29567
11212,29708
11396,29784
11595,29784
11779,29708
11919,29568
11996,29384
11996,29185
11996,29859
8346,29859
8346,27935
8270,27751
8129,27611
7946,27534
7747,27534
7563,27610
7422,27751
7346,27934
7346,28133
7422,28317
7562,28458
7746,28534
7945,28534
8129,28458
8269,28318
8346,28134
8346,27935
8346,29859
4696,29859
4696,29185
4620,29001
4546,28927
4546,20285
4546,18885
4546,17485
4470,17301
4329,17161
4146,17084
3947,17084
3763,17160
3687,17236
3687,7518
3559,7209
3323,6972
3014,6844
2679,6843
2370,6971
2134,7207
2005,7516
2005,7851
2133,8160
2369,8396
2678,8525
3012,8525
3321,8397
3558,8161
3686,7852
3687,7518
3687,17236
3622,17301
3546,17484
3546,17683
3622,17867
3762,18008
3946,18084
4145,18084
4329,18008
4469,17868
4546,17684
4546,17485
4546,18885
4470,18701
4329,18561
4146,18484
3947,18484
3763,18560
3622,18701
3546,18884
3546,19083
3622,19267
3762,19408
3946,19484
4145,19484
4329,19408
4469,19268
4546,19084
4546,18885
4546,20285
4470,20101
4329,19961
4146,19884
3947,19884
3763,19960
3622,20101
3546,20284
3546,20483
3622,20667
3762,20808
3946,20884
4145,20884
4329,20808
4469,20668
4546,20484
4546,20285
4546,28927
4479,28861
4296,28784
4097,28784
3913,28860
3772,29001
3696,29184
3696,29383
3772,29567
3912,29708
4096,29784
4295,29784
4479,29708
4619,29568
4696,29384
4696,29185
4696,29859
3687,29859
3687,22518
3559,22209
3323,21972
3014,21844
2679,21843
2370,21971
2134,22207
2005,22516
2005,22851
2133,23160
2369,23396
2678,23525
3012,23525
3321,23397
3558,23161
3686,22852
3687,22518
3687,29859
1921,29859
1921,509
28771,509
28771,29859
" /> 
</g>
<g style="fill:#000084; fill-opacity:0.0; 
stroke:#000084; stroke-width:100; stroke-opacity:1; 
stroke-linecap:round; stroke-linejoin:round;">
<polyline fill="none;"
points="28771,29859
28687,29859
28687,22518
28687,7518
28559,7209
28323,6972
28014,6844
27679,6843
27370,6971
27134,7207
27005,7516
27005,7851
27133,8160
27369,8396
27678,8525
28012,8525
28321,8397
28558,8161
28686,7852
28687,7518
28687,22518
28559,22209
28346,21995
28346,19335
28270,19151
28129,19011
27946,18934
27945,18934
28129,18858
28269,18718
28346,18534
28346,18335
28270,18151
28129,18011
27946,17934
27747,17934
27563,18010
27546,18027
27546,9985
27470,9801
27329,9661
27146,9584
26947,9584
26946,9584
26946,1035
26870,851
26729,711
26546,634
26347,634
26163,710
26022,851
25946,1034
25946,1233
26022,1417
26162,1558
26346,1634
26545,1634
26729,1558
26869,1418
26946,1234
26946,1035
26946,9584
26763,9660
26622,9801
26546,9984
26546,10183
26622,10367
26762,10508
26946,10584
27145,10584
27329,10508
27469,10368
27546,10184
27546,9985
27546,18027
27478,18095
27478,16330
27478,14080
27398,13887
27250,13739
27057,13659
26848,13658
26655,13738
26507,13886
26427,14079
26426,14288
26506,14481
26654,14629
26847,14710
27056,14710
27249,14630
27397,14482
27478,14289
27478,14080
27478,16330
27398,16137
27250,15989
27057,15909
26848,15908
26655,15988
26507,16136
26427,16329
26426,16538
26506,16731
26654,16879
26847,16960
27056,16960
27249,16880
27397,16732
27478,16539
27478,16330
27478,18095
27422,18151
27346,18334
27346,18533
27422,18717
27562,18858
27746,18934
27747,18934
27563,19010
27422,19151
27346,19334
27346,19335
27346,18835
27270,18651
27129,18511
26946,18434
26747,18434
26563,18510
26422,18651
26346,18834
26346,19033
26422,19217
26562,19358
26746,19434
26945,19434
27129,19358
27269,19218
27346,19034
27346,18835
27346,19335
27346,19533
27422,19717
27562,19858
27746,19934
27945,19934
28129,19858
28269,19718
28346,19534
28346,19335
28346,21995
28323,21972
28014,21844
27679,21843
27370,21971
27134,22207
27005,22516
27005,22851
27133,23160
27369,23396
27678,23525
28012,23525
28321,23397
28558,23161
28686,22852
28687,22518
28687,29859
27896,29859
27896,24485
27820,24301
27679,24161
27496,24084
27297,24084
27113,24160
26972,24301
26896,24484
26896,24683
26972,24867
27112,25008
27296,25084
27495,25084
27679,25008
27819,24868
27896,24684
27896,24485
27896,29859
27796,29859
27796,28535
27720,28351
27579,28211
27396,28134
27197,28134
27013,28210
26872,28351
26796,28534
26796,28733
26872,28917
27012,29058
27196,29134
27395,29134
27579,29058
27719,28918
27796,28734
27796,28535
27796,29859
26421,29859
26421,19320
26333,19109
26172,18947
26141,18934
26171,18922
26333,18760
26421,18549
26421,18320
26333,18109
26172,17947
26127,17929
26127,4474
26048,4281
25951,4184
26047,4089
26127,3895
26127,3686
26048,3493
25900,3345
25707,3265
25498,3265
25304,3345
25208,3441
25112,3345
24919,3265
24710,3265
24517,3345
24421,3441
24325,3345
24132,3265
23923,3265
23730,3345
23633,3441
23538,3345
23346,3266
23346,2285
23270,2101
23129,1961
22946,1884
22747,1884
22563,1960
22422,2101
22346,2284
22346,2483
22422,2667
22562,2808
22746,2884
22945,2884
23129,2808
23269,2668
23346,2484
23346,2285
23346,3266
23345,3265
23135,3265
22942,3345
22846,3441
22750,3345
22557,3265
22348,3265
22155,3345
22058,3441
21963,3345
21770,3265
21561,3265
21367,3345
21271,3441
21175,3345
20982,3265
20773,3265
20580,3345
20484,3441
20388,3345
20195,3265
19986,3265
19793,3345
19696,3441
19696,1035
19620,851
19479,711
19296,634
19097,634
18913,710
18772,851
18696,1034
18696,1233
18772,1417
18912,1558
19096,1634
19295,1634
19479,1558
19619,1418
19696,1234
19696,1035
19696,3441
19645,3492
19564,3685
19564,3895
19644,4088
19740,4184
19645,4280
19564,4473
19564,4682
19644,4875
19792,5023
19985,5103
20194,5104
20387,5024
20484,4927
20579,5023
20772,5103
20981,5104
21175,5024
21271,4927
21367,5023
21560,5103
21769,5104
21962,5024
22058,4927
22154,5023
22347,5103
22556,5104
22749,5024
22846,4927
22941,5023
23135,5103
23344,5104
23537,5024
23633,4927
23729,5023
23922,5103
24131,5104
24324,5024
24421,4927
24516,5023
24709,5103
24918,5104
25112,5024
25208,4927
25304,5023
25497,5103
25706,5104
25899,5024
26047,4876
26127,4683
26127,4474
26127,17929
25961,17859
25746,17859
25746,8835
25670,8651
25529,8511
25346,8434
25147,8434
24963,8510
24822,8651
24746,8834
24746,9033
24822,9217
24962,9358
25146,9434
25345,9434
25529,9358
25669,9218
25746,9034
25746,8835
25746,17859
25732,17859
25521,17947
25417,18050
25383,17968
25312,17897
25220,17859
25121,17859
24471,17859
24379,17897
24309,17968
24271,18060
24271,18159
24271,18809
24309,18901
24379,18971
24462,19005
24359,19108
24271,19319
24271,19548
24358,19759
24520,19921
24731,20009
24960,20009
25171,19922
25333,19760
25346,19729
25358,19759
25520,19921
25731,20009
25960,20009
26171,19922
26333,19760
26421,19549
26421,19320
26421,29859
26127,29859
26127,26474
26048,26281
25951,26184
26047,26089
26127,25895
26127,25686
26048,25493
25900,25345
25707,25265
25498,25265
25304,25345
25208,25441
25112,25345
24919,25265
24710,25265
24517,25345
24421,25441
24325,25345
24132,25265
23923,25265
23921,25266
23921,15570
23833,15359
23672,15197
23641,15184
23671,15172
23833,15010
23921,14799
23921,14570
23833,14359
23672,14197
23461,14109
23232,14109
23021,14197
22859,14358
22846,14389
22833,14359
22672,14197
22461,14109
22232,14109
22021,14197
21859,14358
21846,14389
21833,14359
21672,14197
21461,14109
21232,14109
21021,14197
20859,14358
20846,14389
20833,14359
20672,14197
20461,14109
20232,14109
20021,14197
19917,14300
19883,14218
19812,14147
19720,14109
19621,14109
18971,14109
18879,14147
18809,14218
18771,14310
18771,14409
18771,15059
18809,15151
18879,15221
18962,15255
18859,15358
18771,15569
18771,15798
18858,16009
19020,16171
19231,16259
19460,16259
19671,16172
19833,16010
19846,15979
19858,16009
20020,16171
20231,16259
20460,16259
20671,16172
20833,16010
20846,15979
20858,16009
21020,16171
21231,16259
21460,16259
21671,16172
21833,16010
21846,15979
21858,16009
22020,16171
22231,16259
22460,16259
22671,16172
22833,16010
22846,15979
22858,16009
23020,16171
23231,16259
23460,16259
23671,16172
23833,16010
23921,15799
23921,15570
23921,25266
23846,25297
23846,18835
23770,18651
23629,18511
23446,18434
23247,18434
23063,18510
22922,18651
22846,18834
22846,19033
22922,19217
23062,19358
23246,19434
23445,19434
23629,19358
23769,19218
23846,19034
23846,18835
23846,25297
23730,25345
23633,25441
23538,25345
23345,25265
23135,25265
22942,25345
22846,25441
22846,19335
22770,19151
22629,19011
22446,18934
22445,18934
22629,18858
22769,18718
22846,18534
22846,18335
22770,18151
22629,18011
22446,17934
22247,17934
22063,18010
21922,18151
21846,18334
21846,18533
21922,18717
22062,18858
22246,18934
22247,18934
22063,19010
21922,19151
21846,19334
21846,19533
21922,19717
22062,19858
22246,19934
22445,19934
22629,19858
22769,19718
22846,19534
22846,19335
22846,25441
22846,25441
22750,25345
22557,25265
22348,25265
22155,25345
22058,25441
21963,25345
21770,25265
21561,25265
21367,25345
21271,25441
21175,25345
20982,25265
20773,25265
20580,25345
20484,25441
20388,25345
20195,25265
19986,25265
19793,25345
19645,25492
19564,25685
19564,25895
19644,26088
19740,26184
19645,26280
19564,26473
19564,26682
19644,26875
19792,27023
19985,27103
20194,27104
20387,27024
20484,26927
20579,27023
20772,27103
20981,27104
21175,27024
21271,26927
21367,27023
21560,27103
21769,27104
21962,27024
22058,26927
22154,27023
22347,27103
22556,27104
22749,27024
22846,26927
22941,27023
23135,27103
23344,27104
23537,27024
23633,26927
23729,27023
23922,27103
24131,27104
24324,27024
24421,26927
24516,27023
24709,27103
24918,27104
25112,27024
25208,26927
25304,27023
25497,27103
25706,27104
25899,27024
26047,26876
26127,26683
26127,26474
26127,29859
23396,29859
23396,27985
23320,27801
23179,27661
22996,27584
22797,27584
22613,27660
22472,27801
22396,27984
22396,28183
22472,28367
22612,28508
22796,28584
22995,28584
23179,28508
23319,28368
23396,28184
23396,27985
23396,29859
19306,29859
19429,29808
19569,29668
19646,29484
19646,29285
19570,29101
19429,28961
19246,28884
19047,28884
18863,28960
18722,29101
18646,29284
18646,29483
18722,29667
18862,29808
18986,29859
17646,29859
17646,18745
17646,11445
17578,11280
17451,11153
17286,11084
17216,11084
17216,1602
17076,1264
16818,1005
16480,864
16114,864
15775,1004
15516,1262
15376,1600
15376,1966
15515,2305
15774,2564
16112,2704
16478,2704
16816,2565
17075,2306
17216,1968
17216,1602
17216,11084
17107,11084
16941,11152
16815,11279
16746,11444
16746,11623
16814,11789
16941,11915
17106,11984
17285,11984
17450,11916
17577,11789
17646,11624
17646,11445
17646,18745
17578,18580
17451,18453
17286,18384
17107,18384
16941,18452
16921,18473
16921,15570
16833,15359
16672,15197
16641,15184
16671,15172
16833,15010
16921,14799
16921,14570
16833,14359
16672,14197
16461,14109
16381,14109
16381,5068
16292,4853
16127,4689
15913,4600
15680,4599
15465,4688
15301,4853
15296,4863
15292,4853
15216,4778
15216,1602
15076,1264
14818,1005
14480,864
14114,864
13775,1004
13516,1262
13376,1600
13376,1966
13515,2305
13774,2564
14112,2704
14478,2704
14816,2565
15075,2306
15216,1968
15216,1602
15216,4778
15127,4689
14913,4600
14680,4599
14465,4688
14301,4853
14211,5067
14211,5300
14300,5515
14464,5679
14679,5769
14912,5769
15127,5680
15291,5516
15296,5505
15300,5515
15464,5679
15679,5769
15912,5769
16127,5680
16291,5516
16380,5301
16381,5068
16381,14109
16232,14109
16021,14197
15859,14358
15846,14389
15833,14359
15672,14197
15461,14109
15232,14109
15021,14197
14917,14300
14883,14218
14812,14147
14720,14109
14621,14109
13971,14109
13946,14120
13946,11445
13878,11280
13751,11153
13586,11084
13407,11084
13241,11152
13115,11279
13046,11444
13046,11623
13114,11789
13241,11915
13406,11984
13585,11984
13750,11916
13877,11789
13946,11624
13946,11445
13946,14120
13879,14147
13809,14218
13771,14310
13771,14409
13771,15059
13809,15151
13879,15221
13962,15255
13859,15358
13771,15569
13771,15798
13858,16009
14020,16171
14231,16259
14460,16259
14671,16172
14833,16010
14846,15979
14858,16009
15020,16171
15231,16259
15460,16259
15671,16172
15833,16010
15846,15979
15858,16009
16020,16171
16231,16259
16460,16259
16671,16172
16833,16010
16921,15799
16921,15570
16921,18473
16815,18579
16746,18744
16746,18923
16814,19089
16941,19215
17106,19284
17285,19284
17450,19216
17577,19089
17646,18924
17646,18745
17646,29859
17266,29859
17266,28402
17126,28064
16868,27805
16530,27664
16431,27664
16431,25068
16342,24853
16177,24689
15963,24600
15730,24599
15515,24688
15351,24853
15346,24863
15342,24853
15177,24689
14963,24600
14730,24599
14515,24688
14351,24853
14261,25067
14261,25300
14350,25515
14514,25679
14729,25769
14962,25769
15177,25680
15341,25516
15346,25505
15350,25515
15514,25679
15729,25769
15962,25769
16177,25680
16341,25516
16430,25301
16431,25068
16431,27664
16164,27664
15825,27804
15566,28062
15426,28400
15426,28766
15565,29105
15824,29364
16162,29504
16528,29504
16866,29365
17125,29106
17266,28768
17266,28402
17266,29859
15266,29859
15266,28402
15126,28064
14868,27805
14530,27664
14164,27664
13946,27754
13946,18745
13878,18580
13751,18453
13586,18384
13407,18384
13241,18452
13115,18579
13046,18744
13046,18923
13114,19089
13241,19215
13406,19284
13585,19284
13750,19216
13877,19089
13946,18924
13946,18745
13946,27754
13825,27804
13566,28062
13426,28400
13426,28766
13565,29105
13824,29364
14162,29504
14528,29504
14866,29365
15125,29106
15266,28768
15266,28402
15266,29859
11996,29859
11996,29185
11996,985
11920,801
11779,661
11596,584
11397,584
11213,660
11072,801
10996,984
10996,1183
11072,1367
11212,1508
11396,1584
11595,1584
11779,1508
11919,1368
11996,1184
11996,985
11996,29185
11921,29003
11921,15570
11833,15359
11672,15197
11641,15184
11671,15172
11833,15010
11921,14799
11921,14570
11833,14359
11672,14197
11596,14166
11596,12085
11520,11901
11379,11761
11196,11684
11127,11684
11127,4474
11048,4281
10951,4184
11047,4089
11127,3895
11127,3686
11048,3493
10900,3345
10707,3265
10498,3265
10304,3345
10208,3441
10112,3345
9919,3265
9710,3265
9517,3345
9421,3441
9325,3345
9132,3265
8923,3265
8730,3345
8633,3441
8538,3345
8346,3266
8346,2135
8270,1951
8129,1811
7946,1734
7747,1734
7563,1810
7422,1951
7346,2134
7346,2333
7422,2517
7562,2658
7746,2734
7945,2734
8129,2658
8269,2518
8346,2334
8346,2135
8346,3266
8345,3265
8135,3265
7942,3345
7846,3441
7750,3345
7557,3265
7348,3265
7155,3345
7058,3441
6963,3345
6770,3265
6561,3265
6367,3345
6271,3441
6175,3345
5982,3265
5773,3265
5580,3345
5496,3429
5496,1035
5420,851
5279,711
5096,634
4897,634
4713,710
4572,851
4496,1034
4496,1233
4572,1417
4712,1558
4896,1634
5095,1634
5279,1558
5419,1418
5496,1234
5496,1035
5496,3429
5484,3441
5388,3345
5195,3265
4986,3265
4793,3345
4645,3492
4564,3685
4564,3895
4644,4088
4740,4184
4645,4280
4564,4473
4564,4682
4644,4875
4792,5023
4985,5103
5194,5104
5387,5024
5484,4927
5579,5023
5772,5103
5981,5104
6175,5024
6271,4927
6367,5023
6560,5103
6769,5104
6962,5024
7058,4927
7154,5023
7347,5103
7556,5104
7749,5024
7846,4927
7941,5023
8135,5103
8344,5104
8537,5024
8633,4927
8729,5023
8922,5103
9131,5104
9324,5024
9421,4927
9516,5023
9709,5103
9918,5104
10112,5024
10208,4927
10304,5023
10497,5103
10706,5104
10899,5024
11047,4876
11127,4683
11127,4474
11127,11684
10997,11684
10813,11760
10672,11901
10596,12084
10596,12283
10672,12467
10812,12608
10996,12684
11195,12684
11379,12608
11519,12468
11596,12284
11596,12085
11596,14166
11461,14109
11232,14109
11021,14197
10859,14358
10846,14389
10833,14359
10672,14197
10461,14109
10232,14109
10021,14197
9859,14358
9846,14389
9833,14359
9672,14197
9461,14109
9446,14109
9446,11485
9370,11301
9229,11161
9046,11084
8847,11084
8663,11160
8522,11301
8446,11484
8446,11683
8522,11867
8662,12008
8846,12084
9045,12084
9229,12008
9369,11868
9446,11684
9446,11485
9446,14109
9232,14109
9021,14197
8859,14358
8846,14389
8833,14359
8672,14197
8461,14109
8232,14109
8021,14197
7917,14300
7883,14218
7812,14147
7720,14109
7621,14109
6971,14109
6879,14147
6809,14218
6771,14310
6771,14409
6771,15059
6809,15151
6879,15221
6962,15255
6859,15358
6771,15569
6771,15798
6858,16009
7020,16171
7231,16259
7460,16259
7671,16172
7833,16010
7846,15979
7858,16009
8020,16171
8231,16259
8460,16259
8671,16172
8833,16010
8846,15979
8858,16009
9020,16171
9231,16259
9460,16259
9671,16172
9833,16010
9846,15979
9858,16009
10020,16171
10231,16259
10460,16259
10671,16172
10833,16010
10846,15979
10858,16009
11020,16171
11231,16259
11460,16259
11671,16172
11833,16010
11921,15799
11921,15570
11921,29003
11920,29001
11779,28861
11596,28784
11596,17785
11520,17601
11379,17461
11196,17384
10997,17384
10813,17460
10672,17601
10596,17784
10596,17983
10672,18167
10812,18308
10996,18384
11195,18384
11379,18308
11519,18168
11596,17984
11596,17785
11596,28784
11596,28784
11397,28784
11213,28860
11127,28945
11127,26474
11048,26281
10951,26184
11047,26089
11127,25895
11127,25686
11048,25493
10900,25345
10707,25265
10498,25265
10304,25345
10208,25441
10112,25345
9919,25265
9710,25265
9517,25345
9421,25441
9325,25345
9132,25265
8923,25265
8730,25345
8633,25441
8538,25345
8345,25265
8135,25265
7942,25345
7846,25441
7750,25345
7557,25265
7348,25265
7155,25345
7058,25441
6963,25345
6770,25265
6561,25265
6546,25271
6546,19535
6546,18135
6470,17951
6329,17811
6146,17734
5947,17734
5763,17810
5622,17951
5546,18134
5546,18135
5546,12335
5546,10235
5470,10051
5329,9911
5146,9834
4947,9834
4763,9910
4622,10051
4546,10234
4546,10433
4622,10617
4762,10758
4946,10834
5145,10834
5329,10758
5469,10618
5546,10434
5546,10235
5546,12335
5470,12151
5329,12011
5146,11934
4947,11934
4763,12010
4622,12151
4546,12334
4546,12533
4622,12717
4762,12858
4946,12934
5145,12934
5329,12858
5469,12718
5546,12534
5546,12335
5546,18135
5546,18333
5622,18517
5762,18658
5946,18734
6145,18734
6329,18658
6469,18518
6546,18334
6546,18135
6546,19535
6470,19351
6329,19211
6146,19134
5947,19134
5763,19210
5622,19351
5546,19534
5546,19733
5622,19917
5762,20058
5946,20134
6145,20134
6329,20058
6469,19918
6546,19734
6546,19535
6546,25271
6367,25345
6271,25441
6175,25345
5982,25265
5773,25265
5580,25345
5484,25441
5388,25345
5195,25265
4986,25265
4793,25345
4696,25441
4696,15185
4620,15001
4479,14861
4296,14784
4097,14784
3913,14860
3772,15001
3696,15184
3696,15383
3772,15567
3912,15708
4096,15784
4295,15784
4479,15708
4619,15568
4696,15384
4696,15185
4696,25441
4645,25492
4564,25685
4564,25895
4644,26088
4740,26184
4645,26280
4564,26473
4564,26682
4644,26875
4792,27023
4985,27103
5194,27104
5387,27024
5484,26927
5579,27023
5772,27103
5981,27104
6175,27024
6271,26927
6367,27023
6560,27103
6769,27104
6962,27024
7058,26927
7154,27023
7347,27103
7556,27104
7749,27024
7846,26927
7941,27023
8135,27103
8344,27104
8537,27024
8633,26927
8729,27023
8922,27103
9131,27104
9324,27024
9421,26927
9516,27023
9709,27103
9918,27104
10112,27024
10208,26927
10304,27023
10497,27103
10706,27104
10899,27024
11047,26876
11127,26683
11127,26474
11127,28945
11072,29001
10996,29184
10996,29383
11072,29567
11212,29708
11396,29784
11595,29784
11779,29708
11919,29568
11996,29384
11996,29185
11996,29859
8346,29859
8346,27935
8270,27751
8129,27611
7946,27534
7747,27534
7563,27610
7422,27751
7346,27934
7346,28133
7422,28317
7562,28458
7746,28534
7945,28534
8129,28458
8269,28318
8346,28134
8346,27935
8346,29859
4696,29859
4696,29185
4620,29001
4546,28927
4546,20285
4546,18885
4546,17485
4470,17301
4329,17161
4146,17084
3947,17084
3763,17160
3687,17236
3687,7518
3559,7209
3323,6972
3014,6844
2679,6843
2370,6971
2134,7207
2005,7516
2005,7851
2133,8160
2369,8396
2678,8525
3012,8525
3321,8397
3558,8161
3686,7852
3687,7518
3687,17236
3622,17301
3546,17484
3546,17683
3622,17867
3762,18008
3946,18084
4145,18084
4329,18008
4469,17868
4546,17684
4546,17485
4546,18885
4470,18701
4329,18561
4146,18484
3947,18484
3763,18560
3622,18701
3546,18884
3546,19083
3622,19267
3762,19408
3946,19484
4145,19484
4329,19408
4469,19268
4546,19084
4546,18885
4546,20285
4470,20101
4329,19961
4146,19884
3947,19884
3763,19960
3622,20101
3546,20284
3546,20483
3622,20667
3762,20808
3946,20884
4145,20884
4329,20808
4469,20668
4546,20484
4546,20285
4546,28927
4479,28861
4296,28784
4097,28784
3913,28860
3772,29001
3696,29184
3696,29383
3772,29567
3912,29708
4096,29784
4295,29784
4479,29708
4619,29568
4696,29384
4696,29185
4696,29859
3687,29859
3687,22518
3559,22209
3323,21972
3014,21844
2679,21843
2370,21971
2134,22207
2005,22516
2005,22851
2133,23160
2369,23396
2678,23525
3012,23525
3321,23397
3558,23161
3686,22852
3687,22518
3687,29859
1921,29859
1921,509
28771,509
28771,29859
" /> 
</g>
<g style="fill:#FFFFFF; fill-opacity:0.0; 
stroke:#FFFFFF; stroke-width:39.3701; stroke-opacity:1; 
stroke-linecap:round; stroke-linejoin:round;">
</g>
<g style="fill:#FFFFFF; fill-opacity:1.0; 
stroke:#FFFFFF; stroke-width:39.3701; stroke-opacity:1; 
stroke-linecap:round; stroke-linejoin:round;">
<circle cx="4196.35" cy="29284.6" r="140.315" /> 
<circle cx="7846.35" cy="28034.6" r="140.315" /> 
<circle cx="11496.4" cy="29284.6" r="140.315" /> 
<circle cx="19146.4" cy="29384.6" r="140.315" /> 
<circle cx="22896.4" cy="28084.6" r="140.315" /> 
<circle cx="27296.4" cy="28634.6" r="140.315" /> 
<circle cx="27396.4" cy="24584.6" r="140.315" /> 
<circle cx="27046.4" cy="10084.6" r="140.315" /> 
<circle cx="25246.4" cy="8934.65" r="140.315" /> 
<circle cx="26446.4" cy="1134.65" r="140.315" /> 
<circle cx="22846.4" cy="2384.65" r="140.315" /> 
<circle cx="19196.4" cy="1134.65" r="140.315" /> 
<circle cx="11496.4" cy="1084.65" r="140.315" /> 
<circle cx="7846.35" cy="2234.65" r="140.315" /> 
<circle cx="4996.35" cy="1134.65" r="140.315" /> 
<circle cx="4196.35" cy="15284.6" r="140.315" /> 
<circle cx="8946.35" cy="11584.6" r="140.315" /> 
<circle cx="5046.35" cy="12434.6" r="140.315" /> 
<circle cx="4046.35" cy="17584.6" r="140.315" /> 
<circle cx="6046.35" cy="18234.6" r="140.315" /> 
<circle cx="6046.35" cy="19634.6" r="140.315" /> 
<circle cx="4046.35" cy="18984.6" r="140.315" /> 
<circle cx="5046.35" cy="10334.6" r="140.315" /> 
<circle cx="4046.35" cy="20384.6" r="140.315" /> 
<circle cx="14296.4" cy="17784.6" r="80.315" /> 
<circle cx="12296.4" cy="18634.6" r="80.315" /> 
<circle cx="12296.4" cy="11734.6" r="80.315" /> 
<circle cx="14296.4" cy="12584.6" r="80.315" /> 
<circle cx="16396.4" cy="12584.6" r="80.315" /> 
<circle cx="18396.4" cy="11734.6" r="80.315" /> 
<circle cx="18396.4" cy="18634.6" r="80.315" /> 
<circle cx="16396.4" cy="17784.6" r="80.315" /> 
<circle cx="27846.4" cy="18434.6" r="140.315" /> 
<circle cx="27846.4" cy="19434.6" r="140.315" /> 
<circle cx="13496.4" cy="18834.6" r="80.315" /> 
<circle cx="13496.4" cy="11534.6" r="80.315" /> 
<circle cx="17196.4" cy="11534.6" r="80.315" /> 
<circle cx="17196.4" cy="18834.6" r="80.315" /> 
<circle cx="26846.4" cy="18934.6" r="140.315" /> 
<circle cx="11096.4" cy="17884.6" r="140.315" /> 
<circle cx="11096.4" cy="12184.6" r="140.315" /> 
<circle cx="23346.4" cy="18934.6" r="140.315" /> 
<circle cx="22346.4" cy="18434.6" r="140.315" /> 
<circle cx="22346.4" cy="19434.6" r="140.315" /> 
<circle cx="2846.35" cy="7684.65" r="570.866" /> 
<circle cx="2846.35" cy="22684.6" r="570.866" /> 
<circle cx="27846.4" cy="7684.65" r="570.866" /> 
<circle cx="27846.4" cy="22684.6" r="570.866" /> 
<circle cx="7346.35" cy="14684.6" r="177.165" /> 
<circle cx="7346.35" cy="15684.6" r="177.165" /> 
<circle cx="8346.35" cy="14684.6" r="177.165" /> 
<circle cx="8346.35" cy="15684.6" r="177.165" /> 
<circle cx="9346.35" cy="14684.6" r="177.165" /> 
<circle cx="9346.35" cy="15684.6" r="177.165" /> 
<circle cx="10346.4" cy="14684.6" r="177.165" /> 
<circle cx="10346.4" cy="15684.6" r="177.165" /> 
<circle cx="11346.4" cy="14684.6" r="177.165" /> 
<circle cx="11346.4" cy="15684.6" r="177.165" /> 
<circle cx="19346.4" cy="14684.6" r="177.165" /> 
<circle cx="19346.4" cy="15684.6" r="177.165" /> 
<circle cx="20346.4" cy="14684.6" r="177.165" /> 
<circle cx="20346.4" cy="15684.6" r="177.165" /> 
<circle cx="21346.4" cy="14684.6" r="177.165" /> 
<circle cx="21346.4" cy="15684.6" r="177.165" /> 
<circle cx="22346.4" cy="14684.6" r="177.165" /> 
<circle cx="22346.4" cy="15684.6" r="177.165" /> 
<circle cx="23346.4" cy="14684.6" r="177.165" /> 
<circle cx="23346.4" cy="15684.6" r="177.165" /> 
<circle cx="14346.4" cy="14684.6" r="177.165" /> 
<circle cx="15346.4" cy="14684.6" r="177.165" /> 
<circle cx="14346.4" cy="15684.6" r="177.165" /> 
<circle cx="15346.4" cy="15684.6" r="177.165" /> 
<circle cx="16346.4" cy="14684.6" r="177.165" /> 
<circle cx="16346.4" cy="15684.6" r="177.165" /> 
<circle cx="24846.4" cy="10934.6" r="177.165" /> 
<circle cx="24846.4" cy="11934.6" r="177.165" /> 
<circle cx="25846.4" cy="10934.6" r="177.165" /> 
<circle cx="25846.4" cy="11934.6" r="177.165" /> 
<circle cx="24846.4" cy="18434.6" r="177.165" /> 
<circle cx="24846.4" cy="19434.6" r="177.165" /> 
<circle cx="25846.4" cy="18434.6" r="177.165" /> 
<circle cx="25846.4" cy="19434.6" r="177.165" /> 
<circle cx="25602.3" cy="26578.3" r="137.795" /> 
<circle cx="25602.3" cy="25790.9" r="137.795" /> 
<circle cx="24814.9" cy="26578.3" r="137.795" /> 
<circle cx="24814.9" cy="25790.9" r="137.795" /> 
<circle cx="24027.5" cy="26578.3" r="137.795" /> 
<circle cx="24027.5" cy="25790.9" r="137.795" /> 
<circle cx="23240.1" cy="26578.3" r="137.795" /> 
<circle cx="23240.1" cy="25790.9" r="137.795" /> 
<circle cx="22452.7" cy="26578.3" r="137.795" /> 
<circle cx="22452.7" cy="25790.9" r="137.795" /> 
<circle cx="21665.2" cy="26578.3" r="137.795" /> 
<circle cx="21665.2" cy="25790.9" r="137.795" /> 
<circle cx="20877.8" cy="26578.3" r="137.795" /> 
<circle cx="20877.8" cy="25790.9" r="137.795" /> 
<circle cx="20090.4" cy="26578.3" r="137.795" /> 
<circle cx="20090.4" cy="25790.9" r="137.795" /> 
<circle cx="10602.3" cy="26578.3" r="137.795" /> 
<circle cx="10602.3" cy="25790.9" r="137.795" /> 
<circle cx="9814.86" cy="26578.3" r="137.795" /> 
<circle cx="9814.86" cy="25790.9" r="137.795" /> 
<circle cx="9027.45" cy="26578.3" r="137.795" /> 
<circle cx="9027.45" cy="25790.9" r="137.795" /> 
<circle cx="8240.05" cy="26578.3" r="137.795" /> 
<circle cx="8240.05" cy="25790.9" r="137.795" /> 
<circle cx="7452.65" cy="26578.3" r="137.795" /> 
<circle cx="7452.65" cy="25790.9" r="137.795" /> 
<circle cx="6665.25" cy="26578.3" r="137.795" /> 
<circle cx="6665.25" cy="25790.9" r="137.795" /> 
<circle cx="5877.85" cy="26578.3" r="137.795" /> 
<circle cx="5877.85" cy="25790.9" r="137.795" /> 
<circle cx="5090.45" cy="26578.3" r="137.795" /> 
<circle cx="5090.45" cy="25790.9" r="137.795" /> 
<circle cx="20090.4" cy="3790.95" r="137.795" /> 
<circle cx="20090.4" cy="4578.35" r="137.795" /> 
<circle cx="20877.8" cy="3790.95" r="137.795" /> 
<circle cx="20877.8" cy="4578.35" r="137.795" /> 
<circle cx="21665.2" cy="3790.95" r="137.795" /> 
<circle cx="21665.2" cy="4578.35" r="137.795" /> 
<circle cx="22452.7" cy="3790.95" r="137.795" /> 
<circle cx="22452.7" cy="4578.35" r="137.795" /> 
<circle cx="23240.1" cy="3790.95" r="137.795" /> 
<circle cx="23240.1" cy="4578.35" r="137.795" /> 
<circle cx="24027.5" cy="3790.95" r="137.795" /> 
<circle cx="24027.5" cy="4578.35" r="137.795" /> 
<circle cx="24814.9" cy="3790.95" r="137.795" /> 
<circle cx="24814.9" cy="4578.35" r="137.795" /> 
<circle cx="25602.3" cy="3790.95" r="137.795" /> 
<circle cx="25602.3" cy="4578.35" r="137.795" /> 
<circle cx="5090.45" cy="3790.95" r="137.795" /> 
<circle cx="5090.45" cy="4578.35" r="137.795" /> 
<circle cx="5877.85" cy="3790.95" r="137.795" /> 
<circle cx="5877.85" cy="4578.35" r="137.795" /> 
<circle cx="6665.25" cy="3790.95" r="137.795" /> 
<circle cx="6665.25" cy="4578.35" r="137.795" /> 
<circle cx="7452.65" cy="3790.95" r="137.795" /> 
<circle cx="7452.65" cy="4578.35" r="137.795" /> 
<circle cx="8240.05" cy="3790.95" r="137.795" /> 
<circle cx="8240.05" cy="4578.35" r="137.795" /> 
<circle cx="9027.45" cy="3790.95" r="137.795" /> 
<circle cx="9027.45" cy="4578.35" r="137.795" /> 
<circle cx="9814.86" cy="3790.95" r="137.795" /> 
<circle cx="9814.86" cy="4578.35" r="137.795" /> 
<circle cx="10602.3" cy="3790.95" r="137.795" /> 
<circle cx="10602.3" cy="4578.35" r="137.795" /> 
<circle cx="14796.4" cy="5184.65" r="196.85" /> 
<circle cx="15796.4" cy="5184.65" r="196.85" /> 
<circle cx="16296.4" cy="1784.65" r="650.315" /> 
<circle cx="14296.4" cy="1784.65" r="650.315" /> 
<circle cx="15846.4" cy="25184.6" r="196.85" /> 
<circle cx="14846.4" cy="25184.6" r="196.85" /> 
<circle cx="14346.4" cy="28584.6" r="650.315" /> 
<circle cx="16346.4" cy="28584.6" r="650.315" /> 
<circle cx="27740.1" cy="14184.6" r="137.795" /> 
<circle cx="26952.7" cy="14184.6" r="137.795" /> 
<circle cx="26952.7" cy="16434.6" r="137.795" /> 
<circle cx="27740.1" cy="16434.6" r="137.795" /> 
</g> 
</svg>
