M48
;DRILL file {Pcbnew (2013-mar-13)-testing} date Fri 28 Mar 2014 08:54:46 PM PDT
;FORMAT={-:-/ absolute / inch / decimal}
FMAT,2
INCH,TZ
T1C0.012
T2C0.020
T3C0.025
T4C0.030
T5C0.039
T6C0.071
%
G90
G05
M72
T1
X7.52Y-4.535
X7.54Y-4.89
X7.585Y-4.92
X7.595Y-4.505
X7.595Y-4.995
X7.665Y-4.995
X7.705Y-4.96
X7.73Y-4.49
X7.74Y-4.92
X7.775Y-3.715
X7.795Y-4.905
X7.8Y-3.005
X7.815Y-3.68
X7.815Y-3.75
X7.84Y-2.96
X7.845Y-3.35
X7.85Y-3.64
X7.85Y-3.79
X7.9Y-3.35
X7.91Y-3.85
X7.945Y-3.89
X7.9675Y-3.6975
X7.9675Y-3.7325
X7.973Y-3.565
X7.985Y-3.93
X8.0025Y-3.6975
X8.0025Y-3.7325
X8.005Y-3.53
X8.025Y-3.89
X8.045Y-3.555
X8.06Y-3.83
X8.09Y-3.585
X8.1Y-4.55
X8.1025Y-3.6325
X8.125Y-3.675
X8.225Y-4.92
X8.37Y-4.385
X8.555Y-4.385
X8.64Y-3.285
X9.185Y-4.53
X9.215Y-4.06
X9.235Y-4.525
X9.28Y-4.065
X9.295Y-4.125
X9.33Y-4.42
X9.33Y-4.49
X9.855Y-4.535
X9.9Y-4.115
X9.905Y-4.53
X9.94Y-4.27
X9.94Y-4.33
X9.94Y-4.475
X9.985Y-4.3
X10.095Y-4.59
X10.305Y-3.59
X10.355Y-3.875
X10.97Y-3.685
X11.21Y-4.095
X11.22Y-3.635
X11.255Y-4.09
X11.315Y-3.645
X11.315Y-3.69
T2
X6.93Y-2.5
X6.98Y-2.425
X6.98Y-2.575
X6.98Y-2.78
X6.995Y-2.855
X7.065Y-2.15
X7.185Y-2.15
X7.25Y-2.82
X7.25Y-2.99
X7.34Y-2.905
X7.34Y-3.07
X7.37Y-2.175
X7.445Y-2.175
X7.445Y-2.25
X7.515Y-2.425
X7.515Y-2.575
X7.565Y-2.5
X7.965Y-3.01
X8.27Y-3.905
X8.335Y-3.97
X10.085Y-5.01
X10.105Y-5.32
X10.36Y-4.98
T3
X6.95Y-5.425
X6.95Y-5.525
X7.05Y-5.425
X7.05Y-5.525
X7.15Y-5.425
X7.15Y-5.525
X7.25Y-5.425
X7.25Y-5.525
X7.35Y-5.425
X7.35Y-5.525
X7.45Y-5.425
X7.45Y-5.525
X7.55Y-5.425
X7.55Y-5.525
X7.65Y-5.425
X7.65Y-5.525
X7.75Y-5.425
X7.75Y-5.525
X7.85Y-5.425
X7.85Y-5.525
X7.95Y-5.425
X7.95Y-5.525
X8.05Y-5.425
X8.05Y-5.525
X8.15Y-5.425
X8.15Y-5.525
X8.25Y-5.425
X8.25Y-5.525
X8.35Y-5.425
X8.35Y-5.525
X8.45Y-5.425
X8.45Y-5.525
X8.55Y-5.425
X8.55Y-5.525
X8.65Y-5.425
X8.65Y-5.525
X8.75Y-5.425
X8.75Y-5.525
X8.85Y-5.425
X8.85Y-5.525
X8.95Y-5.425
X8.95Y-5.525
X9.05Y-5.425
X9.05Y-5.525
X9.15Y-5.425
X9.15Y-5.525
X9.25Y-5.425
X9.25Y-5.525
X9.35Y-5.425
X9.35Y-5.525
T4
X6.57Y-5.105
X6.915Y-3.455
X7.205Y-3.345
X7.205Y-4.11
X7.23Y-5.075
X7.24Y-4.6
X7.245Y-4.355
X7.28Y-4.69
X7.315Y-4.49
X7.435Y-5.08
X7.525Y-3.49
X7.525Y-3.91
X7.59Y-2.745
X7.855Y-2.355
X8.045Y-4.71
X8.045Y-4.805
X8.135Y-3.035
X8.18Y-3.245
X8.265Y-3.09
X8.325Y-3.205
X8.4Y-3.66
X8.625Y-3.57
X8.695Y-3.5
X8.725Y-5.125
X8.785Y-3.22
X8.905Y-4.32
X8.92Y-3.57
X8.96Y-4.255
X8.995Y-3.5
X8.995Y-5.075
X9.005Y-4.32
X9.065Y-2.97
X9.09Y-3.24
X9.21Y-5.075
X9.23Y-3.57
X9.3Y-3.5
X9.31Y-5.075
X9.415Y-4.675
X9.48Y-5.635
X9.51Y-4.205
X9.51Y-4.33
X9.625Y-5.43
X9.655Y-4.285
X9.75Y-2.905
X9.76Y-5.615
X9.975Y-3.72
X9.975Y-3.845
X9.985Y-5.605
X10.02Y-3.78
X10.425Y-4.865
X10.52Y-4.8
X10.52Y-4.88
X11.315Y-3.985
X11.315Y-4.05
X11.325Y-3.825
X11.405Y-3.785
X11.405Y-3.865
X11.665Y-4.625
X11.665Y-4.725
X11.745Y-4.675
X12.03Y-4.675
X12.04Y-3.925
X12.095Y-4.615
X12.095Y-4.77
X12.11Y-3.875
X12.11Y-3.975
X12.12Y-4.92
X12.125Y-5.185
X12.18Y-4.245
X12.195Y-3.145
X12.255Y-2.875
T5
X10.1Y-4.25
X10.1Y-4.35
X10.2Y-4.25
X10.2Y-4.35
X10.3Y-4.25
X10.3Y-4.35
X10.4Y-4.25
X10.4Y-4.35
X10.5Y-4.25
X10.5Y-4.35
X10.8Y-4.25
X10.8Y-4.35
X10.9Y-4.25
X10.9Y-4.35
X11.Y-4.25
X11.Y-4.35
X11.3Y-4.25
X11.3Y-4.35
X11.4Y-4.25
X11.4Y-4.35
X11.5Y-4.25
X11.5Y-4.35
X11.6Y-4.25
X11.6Y-4.35
X11.7Y-4.25
X11.7Y-4.35
X11.85Y-3.875
X11.85Y-3.975
X11.85Y-4.625
X11.85Y-4.725
X11.95Y-3.875
X11.95Y-3.975
X11.95Y-4.625
X11.95Y-4.725
T6
X7.125Y-2.2756
X7.125Y-2.5
X7.125Y-2.7244
X7.3415Y-2.2756
X7.3415Y-2.5
X7.3415Y-2.7244
T0
M30
