G04 (created by PCBNEW (2013-mar-13)-testing) date Fri 28 Mar 2014 08:54:37 PM PDT*
%MOIN*%
G04 Gerber Fmt 3.4, Leading zero omitted, Abs format*
%FSLAX34Y34*%
G01*
G70*
G90*
G04 APERTURE LIST*
%ADD10C,0.005906*%
%ADD11C,0.009843*%
%ADD12C,0.008000*%
%ADD13C,0.006000*%
G04 APERTURE END LIST*
G54D10*
X95500Y-55250D02*
X95500Y-56750D01*
X95500Y-54250D02*
X95500Y-52750D01*
X93500Y-52750D02*
X95500Y-52750D01*
X93500Y-56750D02*
X95500Y-56750D01*
X82500Y-56750D02*
X83500Y-56750D01*
X79500Y-56750D02*
X80500Y-56750D01*
X80500Y-52750D02*
X82500Y-52750D01*
X67500Y-56750D02*
X67500Y-55250D01*
X67500Y-54250D02*
X67500Y-52750D01*
X69500Y-52750D02*
X67500Y-52750D01*
X69500Y-56750D02*
X67500Y-56750D01*
X67500Y-56750D02*
X66500Y-57750D01*
G54D11*
X100300Y-41700D02*
X100100Y-41500D01*
X100300Y-42200D02*
X100300Y-41700D01*
X100300Y-41700D02*
X100800Y-41700D01*
X100800Y-44200D02*
X100300Y-44200D01*
X100300Y-44200D02*
X100300Y-43700D01*
X105700Y-43800D02*
X105700Y-44300D01*
X105700Y-44300D02*
X105200Y-44300D01*
X105200Y-41800D02*
X105700Y-41800D01*
X105700Y-41800D02*
X105700Y-42300D01*
X112300Y-41700D02*
X112100Y-41500D01*
X112300Y-42200D02*
X112300Y-41700D01*
X112300Y-41700D02*
X112800Y-41700D01*
X112800Y-44200D02*
X112300Y-44200D01*
X112300Y-44200D02*
X112300Y-43700D01*
X117700Y-43800D02*
X117700Y-44300D01*
X117700Y-44300D02*
X117200Y-44300D01*
X117200Y-41800D02*
X117700Y-41800D01*
X117700Y-41800D02*
X117700Y-42300D01*
X108803Y-41917D02*
X109196Y-41917D01*
X108803Y-44082D02*
X109196Y-44082D01*
X107307Y-41897D02*
X107149Y-41740D01*
X107326Y-42212D02*
X107326Y-41917D01*
X107326Y-41917D02*
X107622Y-41917D01*
X107622Y-44082D02*
X107326Y-44082D01*
X107326Y-44082D02*
X107326Y-43787D01*
X110673Y-43787D02*
X110673Y-44082D01*
X110673Y-44082D02*
X110377Y-44082D01*
X110673Y-41917D02*
X110673Y-42212D01*
X110377Y-41917D02*
X110673Y-41917D01*
X117850Y-38250D02*
X117750Y-38150D01*
X117850Y-38250D02*
X118050Y-38250D01*
X117850Y-38250D02*
X117850Y-38450D01*
X117850Y-40250D02*
X117850Y-40050D01*
X117850Y-40250D02*
X118050Y-40250D01*
X120150Y-40050D02*
X120150Y-40250D01*
X120150Y-40250D02*
X119950Y-40250D01*
X120150Y-38450D02*
X120150Y-38250D01*
X120150Y-38250D02*
X119950Y-38250D01*
X117850Y-45750D02*
X117750Y-45650D01*
X117850Y-45750D02*
X118050Y-45750D01*
X117850Y-45750D02*
X117850Y-45950D01*
X117850Y-47750D02*
X117850Y-47550D01*
X117850Y-47750D02*
X118050Y-47750D01*
X120150Y-47550D02*
X120150Y-47750D01*
X120150Y-47750D02*
X119950Y-47750D01*
X120150Y-45950D02*
X120150Y-45750D01*
X120150Y-45750D02*
X119950Y-45750D01*
G54D10*
X106000Y-33450D02*
X105100Y-33450D01*
X102000Y-33450D02*
X102900Y-33450D01*
X102900Y-33450D02*
X102900Y-34950D01*
X106000Y-28000D02*
X106000Y-33450D01*
X102000Y-28000D02*
X102000Y-33450D01*
X117000Y-52550D02*
X117900Y-52550D01*
X121000Y-52550D02*
X120100Y-52550D01*
X120100Y-52550D02*
X120100Y-51050D01*
X117000Y-58000D02*
X117000Y-52550D01*
X121000Y-58000D02*
X121000Y-52550D01*
X107000Y-52550D02*
X107900Y-52550D01*
X111000Y-52550D02*
X110100Y-52550D01*
X110100Y-52550D02*
X110100Y-51050D01*
X107000Y-58000D02*
X107000Y-52550D01*
X111000Y-58000D02*
X111000Y-52550D01*
X102000Y-52550D02*
X102900Y-52550D01*
X106000Y-52550D02*
X105100Y-52550D01*
X105100Y-52550D02*
X105100Y-51050D01*
X102000Y-58000D02*
X102000Y-52550D01*
X106000Y-58000D02*
X106000Y-52550D01*
X121000Y-33450D02*
X120100Y-33450D01*
X117000Y-33450D02*
X117900Y-33450D01*
X117900Y-33450D02*
X117900Y-34950D01*
X121000Y-28000D02*
X121000Y-33450D01*
X117000Y-28000D02*
X117000Y-33450D01*
X116000Y-33450D02*
X115100Y-33450D01*
X112000Y-33450D02*
X112900Y-33450D01*
X112900Y-33450D02*
X112900Y-34950D01*
X116000Y-28000D02*
X116000Y-33450D01*
X112000Y-28000D02*
X112000Y-33450D01*
X112000Y-52550D02*
X112900Y-52550D01*
X116000Y-52550D02*
X115100Y-52550D01*
X115100Y-52550D02*
X115100Y-51050D01*
X112000Y-58000D02*
X112000Y-52550D01*
X116000Y-58000D02*
X116000Y-52550D01*
X111000Y-33450D02*
X110100Y-33450D01*
X107000Y-33450D02*
X107900Y-33450D01*
X107900Y-33450D02*
X107900Y-34950D01*
X111000Y-28000D02*
X111000Y-33450D01*
X107000Y-28000D02*
X107000Y-33450D01*
X83185Y-33303D02*
X83185Y-33696D01*
X83814Y-33303D02*
X83814Y-33696D01*
X81553Y-40164D02*
X81946Y-40164D01*
X81553Y-39535D02*
X81946Y-39535D01*
X83185Y-37903D02*
X83185Y-38296D01*
X83814Y-37903D02*
X83814Y-38296D01*
X103364Y-38996D02*
X103364Y-38603D01*
X102735Y-38996D02*
X102735Y-38603D01*
X101185Y-46303D02*
X101185Y-46696D01*
X101814Y-46303D02*
X101814Y-46696D01*
X102185Y-36303D02*
X102185Y-36696D01*
X102814Y-36303D02*
X102814Y-36696D01*
X101814Y-49696D02*
X101814Y-49303D01*
X101185Y-49696D02*
X101185Y-49303D01*
X82814Y-33696D02*
X82814Y-33303D01*
X82185Y-33696D02*
X82185Y-33303D01*
X81946Y-38735D02*
X81553Y-38735D01*
X81946Y-39364D02*
X81553Y-39364D01*
X83014Y-38296D02*
X83014Y-37903D01*
X82385Y-38296D02*
X82385Y-37903D01*
X81696Y-43935D02*
X81303Y-43935D01*
X81696Y-44564D02*
X81303Y-44564D01*
X93685Y-50303D02*
X93685Y-50696D01*
X94314Y-50303D02*
X94314Y-50696D01*
X90685Y-50303D02*
X90685Y-50696D01*
X91314Y-50303D02*
X91314Y-50696D01*
X87685Y-50303D02*
X87685Y-50696D01*
X88314Y-50303D02*
X88314Y-50696D01*
X84685Y-50303D02*
X84685Y-50696D01*
X85314Y-50303D02*
X85314Y-50696D01*
X85564Y-35696D02*
X85564Y-35303D01*
X84935Y-35696D02*
X84935Y-35303D01*
X88564Y-35696D02*
X88564Y-35303D01*
X87935Y-35696D02*
X87935Y-35303D01*
X91564Y-35696D02*
X91564Y-35303D01*
X90935Y-35696D02*
X90935Y-35303D01*
X94564Y-35696D02*
X94564Y-35303D01*
X93935Y-35696D02*
X93935Y-35303D01*
X70462Y-21850D02*
X70462Y-22244D01*
X70462Y-28149D02*
X70462Y-27755D01*
X70462Y-28543D02*
X71250Y-28543D01*
X70462Y-21456D02*
X70462Y-21850D01*
X70462Y-28543D02*
X70462Y-28149D01*
X70462Y-21456D02*
X64950Y-21456D01*
X70462Y-28543D02*
X64950Y-28543D01*
X80279Y-28078D02*
X80476Y-28078D01*
X80476Y-27921D02*
X80476Y-28078D01*
X81185Y-28669D02*
X81185Y-28866D01*
X81185Y-28669D02*
X81814Y-28669D01*
X81814Y-27330D02*
X81185Y-27330D01*
X82523Y-27921D02*
X82523Y-28078D01*
X78448Y-32379D02*
X78370Y-32379D01*
X78370Y-32379D02*
X78370Y-31120D01*
X78370Y-31120D02*
X78448Y-31120D01*
X79551Y-32379D02*
X79629Y-32379D01*
X79629Y-32379D02*
X79629Y-31120D01*
X79629Y-31120D02*
X79551Y-31120D01*
X79551Y-31120D02*
X79551Y-30568D01*
X85590Y-30251D02*
X86023Y-30251D01*
X86023Y-30251D02*
X86023Y-31748D01*
X86023Y-31748D02*
X85905Y-31748D01*
X84409Y-30251D02*
X83976Y-30251D01*
X83976Y-30251D02*
X83976Y-31748D01*
X83976Y-31748D02*
X84094Y-31748D01*
X78590Y-41551D02*
X79023Y-41551D01*
X79023Y-41551D02*
X79023Y-43048D01*
X79023Y-43048D02*
X78905Y-43048D01*
X77409Y-41551D02*
X76976Y-41551D01*
X76976Y-41551D02*
X76976Y-43048D01*
X76976Y-43048D02*
X77094Y-43048D01*
X96090Y-47251D02*
X96523Y-47251D01*
X96523Y-47251D02*
X96523Y-48748D01*
X96523Y-48748D02*
X96405Y-48748D01*
X94909Y-47251D02*
X94476Y-47251D01*
X94476Y-47251D02*
X94476Y-48748D01*
X94476Y-48748D02*
X94594Y-48748D01*
X93090Y-47251D02*
X93523Y-47251D01*
X93523Y-47251D02*
X93523Y-48748D01*
X93523Y-48748D02*
X93405Y-48748D01*
X91909Y-47251D02*
X91476Y-47251D01*
X91476Y-47251D02*
X91476Y-48748D01*
X91476Y-48748D02*
X91594Y-48748D01*
X90090Y-47251D02*
X90523Y-47251D01*
X90523Y-47251D02*
X90523Y-48748D01*
X90523Y-48748D02*
X90405Y-48748D01*
X88909Y-47251D02*
X88476Y-47251D01*
X88476Y-47251D02*
X88476Y-48748D01*
X88476Y-48748D02*
X88594Y-48748D01*
X87090Y-47251D02*
X87523Y-47251D01*
X87523Y-47251D02*
X87523Y-48748D01*
X87523Y-48748D02*
X87405Y-48748D01*
X85909Y-47251D02*
X85476Y-47251D01*
X85476Y-47251D02*
X85476Y-48748D01*
X85476Y-48748D02*
X85594Y-48748D01*
X86159Y-38748D02*
X85726Y-38748D01*
X85726Y-38748D02*
X85726Y-37251D01*
X85726Y-37251D02*
X85844Y-37251D01*
X87340Y-38748D02*
X87773Y-38748D01*
X87773Y-38748D02*
X87773Y-37251D01*
X87773Y-37251D02*
X87655Y-37251D01*
X89159Y-38748D02*
X88726Y-38748D01*
X88726Y-38748D02*
X88726Y-37251D01*
X88726Y-37251D02*
X88844Y-37251D01*
X90340Y-38748D02*
X90773Y-38748D01*
X90773Y-38748D02*
X90773Y-37251D01*
X90773Y-37251D02*
X90655Y-37251D01*
X92159Y-38748D02*
X91726Y-38748D01*
X91726Y-38748D02*
X91726Y-37251D01*
X91726Y-37251D02*
X91844Y-37251D01*
X93340Y-38748D02*
X93773Y-38748D01*
X93773Y-38748D02*
X93773Y-37251D01*
X93773Y-37251D02*
X93655Y-37251D01*
X95159Y-38748D02*
X94726Y-38748D01*
X94726Y-38748D02*
X94726Y-37251D01*
X94726Y-37251D02*
X94844Y-37251D01*
X96340Y-38748D02*
X96773Y-38748D01*
X96773Y-38748D02*
X96773Y-37251D01*
X96773Y-37251D02*
X96655Y-37251D01*
X110476Y-39466D02*
X110476Y-37733D01*
X112523Y-39466D02*
X112523Y-37261D01*
X96976Y-43866D02*
X96976Y-42133D01*
X99023Y-43866D02*
X99023Y-41661D01*
X90476Y-43866D02*
X90476Y-42133D01*
X92523Y-43866D02*
X92523Y-41661D01*
X80676Y-36323D02*
X80794Y-36205D01*
X80676Y-36598D02*
X80676Y-36323D01*
X80676Y-36323D02*
X80401Y-36323D01*
X79023Y-36598D02*
X79023Y-36323D01*
X79023Y-36323D02*
X79298Y-36323D01*
X79298Y-37976D02*
X79023Y-37976D01*
X79023Y-37976D02*
X79023Y-37701D01*
X80401Y-37976D02*
X80676Y-37976D01*
X80676Y-37976D02*
X80676Y-37701D01*
X82169Y-46680D02*
X82169Y-48019D01*
X82169Y-48019D02*
X82051Y-48019D01*
X82051Y-46680D02*
X82169Y-46680D01*
X80948Y-46680D02*
X80830Y-46680D01*
X80830Y-46680D02*
X80830Y-48019D01*
X80830Y-48019D02*
X80948Y-48019D01*
X80948Y-48019D02*
X80948Y-48452D01*
X83980Y-43019D02*
X83980Y-41680D01*
X83980Y-41680D02*
X84098Y-41680D01*
X84098Y-43019D02*
X83980Y-43019D01*
X85201Y-43019D02*
X85319Y-43019D01*
X85319Y-43019D02*
X85319Y-41680D01*
X85319Y-41680D02*
X85201Y-41680D01*
X85201Y-41680D02*
X85201Y-41247D01*
X75555Y-47955D02*
X75397Y-47955D01*
X75397Y-47955D02*
X75397Y-46144D01*
X75397Y-46144D02*
X75555Y-46144D01*
X77444Y-47955D02*
X77602Y-47955D01*
X77602Y-47955D02*
X77602Y-46144D01*
X77602Y-46144D02*
X77444Y-46144D01*
X77444Y-46144D02*
X77444Y-45711D01*
X81014Y-52467D02*
X81014Y-51876D01*
X81239Y-51876D01*
X81295Y-51904D01*
X81323Y-51932D01*
X81351Y-51989D01*
X81351Y-52073D01*
X81323Y-52129D01*
X81295Y-52157D01*
X81239Y-52185D01*
X81014Y-52185D01*
X81857Y-51876D02*
X81745Y-51876D01*
X81689Y-51904D01*
X81660Y-51932D01*
X81604Y-52017D01*
X81576Y-52129D01*
X81576Y-52354D01*
X81604Y-52410D01*
X81632Y-52439D01*
X81689Y-52467D01*
X81801Y-52467D01*
X81857Y-52439D01*
X81885Y-52410D01*
X81914Y-52354D01*
X81914Y-52214D01*
X81885Y-52157D01*
X81857Y-52129D01*
X81801Y-52101D01*
X81689Y-52101D01*
X81632Y-52129D01*
X81604Y-52157D01*
X81576Y-52214D01*
G54D12*
X100264Y-41430D02*
X100264Y-41030D01*
X100416Y-41030D01*
X100454Y-41050D01*
X100473Y-41069D01*
X100492Y-41107D01*
X100492Y-41164D01*
X100473Y-41202D01*
X100454Y-41221D01*
X100416Y-41240D01*
X100264Y-41240D01*
X100873Y-41430D02*
X100645Y-41430D01*
X100759Y-41430D02*
X100759Y-41030D01*
X100721Y-41088D01*
X100683Y-41126D01*
X100645Y-41145D01*
X101216Y-41164D02*
X101216Y-41430D01*
X101121Y-41011D02*
X101026Y-41297D01*
X101273Y-41297D01*
X112264Y-41430D02*
X112264Y-41030D01*
X112416Y-41030D01*
X112454Y-41050D01*
X112473Y-41069D01*
X112492Y-41107D01*
X112492Y-41164D01*
X112473Y-41202D01*
X112454Y-41221D01*
X112416Y-41240D01*
X112264Y-41240D01*
X112873Y-41430D02*
X112645Y-41430D01*
X112759Y-41430D02*
X112759Y-41030D01*
X112721Y-41088D01*
X112683Y-41126D01*
X112645Y-41145D01*
X113235Y-41030D02*
X113045Y-41030D01*
X113026Y-41221D01*
X113045Y-41202D01*
X113083Y-41183D01*
X113178Y-41183D01*
X113216Y-41202D01*
X113235Y-41221D01*
X113254Y-41259D01*
X113254Y-41354D01*
X113235Y-41392D01*
X113216Y-41411D01*
X113178Y-41430D01*
X113083Y-41430D01*
X113045Y-41411D01*
X113026Y-41392D01*
X107264Y-41680D02*
X107264Y-41280D01*
X107416Y-41280D01*
X107454Y-41300D01*
X107473Y-41319D01*
X107492Y-41357D01*
X107492Y-41414D01*
X107473Y-41452D01*
X107454Y-41471D01*
X107416Y-41490D01*
X107264Y-41490D01*
X107873Y-41680D02*
X107645Y-41680D01*
X107759Y-41680D02*
X107759Y-41280D01*
X107721Y-41338D01*
X107683Y-41376D01*
X107645Y-41395D01*
X108216Y-41280D02*
X108140Y-41280D01*
X108102Y-41300D01*
X108083Y-41319D01*
X108045Y-41376D01*
X108026Y-41452D01*
X108026Y-41604D01*
X108045Y-41642D01*
X108064Y-41661D01*
X108102Y-41680D01*
X108178Y-41680D01*
X108216Y-41661D01*
X108235Y-41642D01*
X108254Y-41604D01*
X108254Y-41509D01*
X108235Y-41471D01*
X108216Y-41452D01*
X108178Y-41433D01*
X108102Y-41433D01*
X108064Y-41452D01*
X108045Y-41471D01*
X108026Y-41509D01*
X117914Y-38030D02*
X117914Y-37630D01*
X118066Y-37630D01*
X118104Y-37650D01*
X118123Y-37669D01*
X118142Y-37707D01*
X118142Y-37764D01*
X118123Y-37802D01*
X118104Y-37821D01*
X118066Y-37840D01*
X117914Y-37840D01*
X118523Y-38030D02*
X118295Y-38030D01*
X118409Y-38030D02*
X118409Y-37630D01*
X118371Y-37688D01*
X118333Y-37726D01*
X118295Y-37745D01*
X118657Y-37630D02*
X118923Y-37630D01*
X118752Y-38030D01*
X117914Y-45530D02*
X117914Y-45130D01*
X118066Y-45130D01*
X118104Y-45150D01*
X118123Y-45169D01*
X118142Y-45207D01*
X118142Y-45264D01*
X118123Y-45302D01*
X118104Y-45321D01*
X118066Y-45340D01*
X117914Y-45340D01*
X118523Y-45530D02*
X118295Y-45530D01*
X118409Y-45530D02*
X118409Y-45130D01*
X118371Y-45188D01*
X118333Y-45226D01*
X118295Y-45245D01*
X118752Y-45302D02*
X118714Y-45283D01*
X118695Y-45264D01*
X118676Y-45226D01*
X118676Y-45207D01*
X118695Y-45169D01*
X118714Y-45150D01*
X118752Y-45130D01*
X118828Y-45130D01*
X118866Y-45150D01*
X118885Y-45169D01*
X118904Y-45207D01*
X118904Y-45226D01*
X118885Y-45264D01*
X118866Y-45283D01*
X118828Y-45302D01*
X118752Y-45302D01*
X118714Y-45321D01*
X118695Y-45340D01*
X118676Y-45378D01*
X118676Y-45454D01*
X118695Y-45492D01*
X118714Y-45511D01*
X118752Y-45530D01*
X118828Y-45530D01*
X118866Y-45511D01*
X118885Y-45492D01*
X118904Y-45454D01*
X118904Y-45378D01*
X118885Y-45340D01*
X118866Y-45321D01*
X118828Y-45302D01*
G54D13*
X101704Y-34180D02*
X101704Y-33780D01*
X101857Y-33780D01*
X101895Y-33800D01*
X101914Y-33819D01*
X101933Y-33857D01*
X101933Y-33914D01*
X101914Y-33952D01*
X101895Y-33971D01*
X101857Y-33990D01*
X101704Y-33990D01*
X102295Y-33780D02*
X102104Y-33780D01*
X102085Y-33971D01*
X102104Y-33952D01*
X102142Y-33933D01*
X102238Y-33933D01*
X102276Y-33952D01*
X102295Y-33971D01*
X102314Y-34009D01*
X102314Y-34104D01*
X102295Y-34142D01*
X102276Y-34161D01*
X102238Y-34180D01*
X102142Y-34180D01*
X102104Y-34161D01*
X102085Y-34142D01*
X118514Y-50730D02*
X118514Y-50330D01*
X118666Y-50330D01*
X118704Y-50350D01*
X118723Y-50369D01*
X118742Y-50407D01*
X118742Y-50464D01*
X118723Y-50502D01*
X118704Y-50521D01*
X118666Y-50540D01*
X118514Y-50540D01*
X119123Y-50730D02*
X118895Y-50730D01*
X119009Y-50730D02*
X119009Y-50330D01*
X118971Y-50388D01*
X118933Y-50426D01*
X118895Y-50445D01*
X119257Y-50330D02*
X119504Y-50330D01*
X119371Y-50483D01*
X119428Y-50483D01*
X119466Y-50502D01*
X119485Y-50521D01*
X119504Y-50559D01*
X119504Y-50654D01*
X119485Y-50692D01*
X119466Y-50711D01*
X119428Y-50730D01*
X119314Y-50730D01*
X119276Y-50711D01*
X119257Y-50692D01*
X108514Y-50730D02*
X108514Y-50330D01*
X108666Y-50330D01*
X108704Y-50350D01*
X108723Y-50369D01*
X108742Y-50407D01*
X108742Y-50464D01*
X108723Y-50502D01*
X108704Y-50521D01*
X108666Y-50540D01*
X108514Y-50540D01*
X109123Y-50730D02*
X108895Y-50730D01*
X109009Y-50730D02*
X109009Y-50330D01*
X108971Y-50388D01*
X108933Y-50426D01*
X108895Y-50445D01*
X109276Y-50369D02*
X109295Y-50350D01*
X109333Y-50330D01*
X109428Y-50330D01*
X109466Y-50350D01*
X109485Y-50369D01*
X109504Y-50407D01*
X109504Y-50445D01*
X109485Y-50502D01*
X109257Y-50730D01*
X109504Y-50730D01*
X103514Y-50730D02*
X103514Y-50330D01*
X103666Y-50330D01*
X103704Y-50350D01*
X103723Y-50369D01*
X103742Y-50407D01*
X103742Y-50464D01*
X103723Y-50502D01*
X103704Y-50521D01*
X103666Y-50540D01*
X103514Y-50540D01*
X104123Y-50730D02*
X103895Y-50730D01*
X104009Y-50730D02*
X104009Y-50330D01*
X103971Y-50388D01*
X103933Y-50426D01*
X103895Y-50445D01*
X104504Y-50730D02*
X104276Y-50730D01*
X104390Y-50730D02*
X104390Y-50330D01*
X104352Y-50388D01*
X104314Y-50426D01*
X104276Y-50445D01*
X116514Y-34180D02*
X116514Y-33780D01*
X116666Y-33780D01*
X116704Y-33800D01*
X116723Y-33819D01*
X116742Y-33857D01*
X116742Y-33914D01*
X116723Y-33952D01*
X116704Y-33971D01*
X116666Y-33990D01*
X116514Y-33990D01*
X117123Y-34180D02*
X116895Y-34180D01*
X117009Y-34180D02*
X117009Y-33780D01*
X116971Y-33838D01*
X116933Y-33876D01*
X116895Y-33895D01*
X117371Y-33780D02*
X117409Y-33780D01*
X117447Y-33800D01*
X117466Y-33819D01*
X117485Y-33857D01*
X117504Y-33933D01*
X117504Y-34028D01*
X117485Y-34104D01*
X117466Y-34142D01*
X117447Y-34161D01*
X117409Y-34180D01*
X117371Y-34180D01*
X117333Y-34161D01*
X117314Y-34142D01*
X117295Y-34104D01*
X117276Y-34028D01*
X117276Y-33933D01*
X117295Y-33857D01*
X117314Y-33819D01*
X117333Y-33800D01*
X117371Y-33780D01*
X111704Y-34180D02*
X111704Y-33780D01*
X111857Y-33780D01*
X111895Y-33800D01*
X111914Y-33819D01*
X111933Y-33857D01*
X111933Y-33914D01*
X111914Y-33952D01*
X111895Y-33971D01*
X111857Y-33990D01*
X111704Y-33990D01*
X112123Y-34180D02*
X112200Y-34180D01*
X112238Y-34161D01*
X112257Y-34142D01*
X112295Y-34085D01*
X112314Y-34009D01*
X112314Y-33857D01*
X112295Y-33819D01*
X112276Y-33800D01*
X112238Y-33780D01*
X112161Y-33780D01*
X112123Y-33800D01*
X112104Y-33819D01*
X112085Y-33857D01*
X112085Y-33952D01*
X112104Y-33990D01*
X112123Y-34009D01*
X112161Y-34028D01*
X112238Y-34028D01*
X112276Y-34009D01*
X112295Y-33990D01*
X112314Y-33952D01*
X113654Y-50730D02*
X113654Y-50330D01*
X113807Y-50330D01*
X113845Y-50350D01*
X113864Y-50369D01*
X113883Y-50407D01*
X113883Y-50464D01*
X113864Y-50502D01*
X113845Y-50521D01*
X113807Y-50540D01*
X113654Y-50540D01*
X114111Y-50502D02*
X114073Y-50483D01*
X114054Y-50464D01*
X114035Y-50426D01*
X114035Y-50407D01*
X114054Y-50369D01*
X114073Y-50350D01*
X114111Y-50330D01*
X114188Y-50330D01*
X114226Y-50350D01*
X114245Y-50369D01*
X114264Y-50407D01*
X114264Y-50426D01*
X114245Y-50464D01*
X114226Y-50483D01*
X114188Y-50502D01*
X114111Y-50502D01*
X114073Y-50521D01*
X114054Y-50540D01*
X114035Y-50578D01*
X114035Y-50654D01*
X114054Y-50692D01*
X114073Y-50711D01*
X114111Y-50730D01*
X114188Y-50730D01*
X114226Y-50711D01*
X114245Y-50692D01*
X114264Y-50654D01*
X114264Y-50578D01*
X114245Y-50540D01*
X114226Y-50521D01*
X114188Y-50502D01*
X106704Y-34180D02*
X106704Y-33780D01*
X106857Y-33780D01*
X106895Y-33800D01*
X106914Y-33819D01*
X106933Y-33857D01*
X106933Y-33914D01*
X106914Y-33952D01*
X106895Y-33971D01*
X106857Y-33990D01*
X106704Y-33990D01*
X107066Y-33780D02*
X107333Y-33780D01*
X107161Y-34180D01*
X83600Y-32742D02*
X83585Y-32761D01*
X83542Y-32780D01*
X83514Y-32780D01*
X83471Y-32761D01*
X83442Y-32723D01*
X83428Y-32685D01*
X83414Y-32609D01*
X83414Y-32552D01*
X83428Y-32476D01*
X83442Y-32438D01*
X83471Y-32400D01*
X83514Y-32380D01*
X83542Y-32380D01*
X83585Y-32400D01*
X83600Y-32419D01*
X83771Y-32552D02*
X83742Y-32533D01*
X83728Y-32514D01*
X83714Y-32476D01*
X83714Y-32457D01*
X83728Y-32419D01*
X83742Y-32400D01*
X83771Y-32380D01*
X83828Y-32380D01*
X83857Y-32400D01*
X83871Y-32419D01*
X83885Y-32457D01*
X83885Y-32476D01*
X83871Y-32514D01*
X83857Y-32533D01*
X83828Y-32552D01*
X83771Y-32552D01*
X83742Y-32571D01*
X83728Y-32590D01*
X83714Y-32628D01*
X83714Y-32704D01*
X83728Y-32742D01*
X83742Y-32761D01*
X83771Y-32780D01*
X83828Y-32780D01*
X83857Y-32761D01*
X83871Y-32742D01*
X83885Y-32704D01*
X83885Y-32628D01*
X83871Y-32590D01*
X83857Y-32571D01*
X83828Y-32552D01*
X83357Y-34230D02*
X83385Y-34230D01*
X83414Y-34250D01*
X83428Y-34269D01*
X83442Y-34307D01*
X83457Y-34383D01*
X83457Y-34478D01*
X83442Y-34554D01*
X83428Y-34592D01*
X83414Y-34611D01*
X83385Y-34630D01*
X83357Y-34630D01*
X83328Y-34611D01*
X83314Y-34592D01*
X83300Y-34554D01*
X83285Y-34478D01*
X83285Y-34383D01*
X83300Y-34307D01*
X83314Y-34269D01*
X83328Y-34250D01*
X83357Y-34230D01*
X83585Y-34592D02*
X83600Y-34611D01*
X83585Y-34630D01*
X83571Y-34611D01*
X83585Y-34592D01*
X83585Y-34630D01*
X83885Y-34630D02*
X83714Y-34630D01*
X83800Y-34630D02*
X83800Y-34230D01*
X83771Y-34288D01*
X83742Y-34326D01*
X83714Y-34345D01*
X84142Y-34364D02*
X84142Y-34630D01*
X84014Y-34364D02*
X84014Y-34573D01*
X84028Y-34611D01*
X84057Y-34630D01*
X84100Y-34630D01*
X84128Y-34611D01*
X84142Y-34592D01*
X84385Y-34421D02*
X84285Y-34421D01*
X84285Y-34630D02*
X84285Y-34230D01*
X84428Y-34230D01*
X80750Y-39992D02*
X80735Y-40011D01*
X80692Y-40030D01*
X80664Y-40030D01*
X80621Y-40011D01*
X80592Y-39973D01*
X80578Y-39935D01*
X80564Y-39859D01*
X80564Y-39802D01*
X80578Y-39726D01*
X80592Y-39688D01*
X80621Y-39650D01*
X80664Y-39630D01*
X80692Y-39630D01*
X80735Y-39650D01*
X80750Y-39669D01*
X80892Y-40030D02*
X80950Y-40030D01*
X80978Y-40011D01*
X80992Y-39992D01*
X81021Y-39935D01*
X81035Y-39859D01*
X81035Y-39707D01*
X81021Y-39669D01*
X81007Y-39650D01*
X80978Y-39630D01*
X80921Y-39630D01*
X80892Y-39650D01*
X80878Y-39669D01*
X80864Y-39707D01*
X80864Y-39802D01*
X80878Y-39840D01*
X80892Y-39859D01*
X80921Y-39878D01*
X80978Y-39878D01*
X81007Y-39859D01*
X81021Y-39840D01*
X81035Y-39802D01*
X81257Y-40419D02*
X81271Y-40400D01*
X81300Y-40380D01*
X81371Y-40380D01*
X81400Y-40400D01*
X81414Y-40419D01*
X81428Y-40457D01*
X81428Y-40495D01*
X81414Y-40552D01*
X81242Y-40780D01*
X81428Y-40780D01*
X81614Y-40380D02*
X81642Y-40380D01*
X81671Y-40400D01*
X81685Y-40419D01*
X81700Y-40457D01*
X81714Y-40533D01*
X81714Y-40628D01*
X81700Y-40704D01*
X81685Y-40742D01*
X81671Y-40761D01*
X81642Y-40780D01*
X81614Y-40780D01*
X81585Y-40761D01*
X81571Y-40742D01*
X81557Y-40704D01*
X81542Y-40628D01*
X81542Y-40533D01*
X81557Y-40457D01*
X81571Y-40419D01*
X81585Y-40400D01*
X81614Y-40380D01*
X81842Y-40514D02*
X81842Y-40914D01*
X81842Y-40533D02*
X81871Y-40514D01*
X81928Y-40514D01*
X81957Y-40533D01*
X81971Y-40552D01*
X81985Y-40590D01*
X81985Y-40704D01*
X81971Y-40742D01*
X81957Y-40761D01*
X81928Y-40780D01*
X81871Y-40780D01*
X81842Y-40761D01*
X82214Y-40571D02*
X82114Y-40571D01*
X82114Y-40780D02*
X82114Y-40380D01*
X82257Y-40380D01*
X83307Y-37342D02*
X83292Y-37361D01*
X83250Y-37380D01*
X83221Y-37380D01*
X83178Y-37361D01*
X83150Y-37323D01*
X83135Y-37285D01*
X83121Y-37209D01*
X83121Y-37152D01*
X83135Y-37076D01*
X83150Y-37038D01*
X83178Y-37000D01*
X83221Y-36980D01*
X83250Y-36980D01*
X83292Y-37000D01*
X83307Y-37019D01*
X83592Y-37380D02*
X83421Y-37380D01*
X83507Y-37380D02*
X83507Y-36980D01*
X83478Y-37038D01*
X83450Y-37076D01*
X83421Y-37095D01*
X83778Y-36980D02*
X83807Y-36980D01*
X83835Y-37000D01*
X83850Y-37019D01*
X83864Y-37057D01*
X83878Y-37133D01*
X83878Y-37228D01*
X83864Y-37304D01*
X83850Y-37342D01*
X83835Y-37361D01*
X83807Y-37380D01*
X83778Y-37380D01*
X83750Y-37361D01*
X83735Y-37342D01*
X83721Y-37304D01*
X83707Y-37228D01*
X83707Y-37133D01*
X83721Y-37057D01*
X83735Y-37019D01*
X83750Y-37000D01*
X83778Y-36980D01*
X84007Y-37419D02*
X84021Y-37400D01*
X84050Y-37380D01*
X84121Y-37380D01*
X84150Y-37400D01*
X84164Y-37419D01*
X84178Y-37457D01*
X84178Y-37495D01*
X84164Y-37552D01*
X83992Y-37780D01*
X84178Y-37780D01*
X84364Y-37380D02*
X84392Y-37380D01*
X84421Y-37400D01*
X84435Y-37419D01*
X84450Y-37457D01*
X84464Y-37533D01*
X84464Y-37628D01*
X84450Y-37704D01*
X84435Y-37742D01*
X84421Y-37761D01*
X84392Y-37780D01*
X84364Y-37780D01*
X84335Y-37761D01*
X84321Y-37742D01*
X84307Y-37704D01*
X84292Y-37628D01*
X84292Y-37533D01*
X84307Y-37457D01*
X84321Y-37419D01*
X84335Y-37400D01*
X84364Y-37380D01*
X84592Y-37514D02*
X84592Y-37914D01*
X84592Y-37533D02*
X84621Y-37514D01*
X84678Y-37514D01*
X84707Y-37533D01*
X84721Y-37552D01*
X84735Y-37590D01*
X84735Y-37704D01*
X84721Y-37742D01*
X84707Y-37761D01*
X84678Y-37780D01*
X84621Y-37780D01*
X84592Y-37761D01*
X84964Y-37571D02*
X84864Y-37571D01*
X84864Y-37780D02*
X84864Y-37380D01*
X85007Y-37380D01*
X101857Y-38942D02*
X101842Y-38961D01*
X101800Y-38980D01*
X101771Y-38980D01*
X101728Y-38961D01*
X101700Y-38923D01*
X101685Y-38885D01*
X101671Y-38809D01*
X101671Y-38752D01*
X101685Y-38676D01*
X101700Y-38638D01*
X101728Y-38600D01*
X101771Y-38580D01*
X101800Y-38580D01*
X101842Y-38600D01*
X101857Y-38619D01*
X101957Y-38580D02*
X102142Y-38580D01*
X102042Y-38733D01*
X102085Y-38733D01*
X102114Y-38752D01*
X102128Y-38771D01*
X102142Y-38809D01*
X102142Y-38904D01*
X102128Y-38942D01*
X102114Y-38961D01*
X102085Y-38980D01*
X102000Y-38980D01*
X101971Y-38961D01*
X101957Y-38942D01*
X102242Y-38580D02*
X102442Y-38580D01*
X102314Y-38980D01*
X102557Y-39580D02*
X102585Y-39580D01*
X102614Y-39600D01*
X102628Y-39619D01*
X102642Y-39657D01*
X102657Y-39733D01*
X102657Y-39828D01*
X102642Y-39904D01*
X102628Y-39942D01*
X102614Y-39961D01*
X102585Y-39980D01*
X102557Y-39980D01*
X102528Y-39961D01*
X102514Y-39942D01*
X102500Y-39904D01*
X102485Y-39828D01*
X102485Y-39733D01*
X102500Y-39657D01*
X102514Y-39619D01*
X102528Y-39600D01*
X102557Y-39580D01*
X102785Y-39942D02*
X102800Y-39961D01*
X102785Y-39980D01*
X102771Y-39961D01*
X102785Y-39942D01*
X102785Y-39980D01*
X103085Y-39980D02*
X102914Y-39980D01*
X103000Y-39980D02*
X103000Y-39580D01*
X102971Y-39638D01*
X102942Y-39676D01*
X102914Y-39695D01*
X103342Y-39714D02*
X103342Y-39980D01*
X103214Y-39714D02*
X103214Y-39923D01*
X103228Y-39961D01*
X103257Y-39980D01*
X103300Y-39980D01*
X103328Y-39961D01*
X103342Y-39942D01*
X103585Y-39771D02*
X103485Y-39771D01*
X103485Y-39980D02*
X103485Y-39580D01*
X103628Y-39580D01*
X100307Y-46642D02*
X100292Y-46661D01*
X100250Y-46680D01*
X100221Y-46680D01*
X100178Y-46661D01*
X100150Y-46623D01*
X100135Y-46585D01*
X100121Y-46509D01*
X100121Y-46452D01*
X100135Y-46376D01*
X100150Y-46338D01*
X100178Y-46300D01*
X100221Y-46280D01*
X100250Y-46280D01*
X100292Y-46300D01*
X100307Y-46319D01*
X100407Y-46280D02*
X100592Y-46280D01*
X100492Y-46433D01*
X100535Y-46433D01*
X100564Y-46452D01*
X100578Y-46471D01*
X100592Y-46509D01*
X100592Y-46604D01*
X100578Y-46642D01*
X100564Y-46661D01*
X100535Y-46680D01*
X100450Y-46680D01*
X100421Y-46661D01*
X100407Y-46642D01*
X100764Y-46452D02*
X100735Y-46433D01*
X100721Y-46414D01*
X100707Y-46376D01*
X100707Y-46357D01*
X100721Y-46319D01*
X100735Y-46300D01*
X100764Y-46280D01*
X100821Y-46280D01*
X100850Y-46300D01*
X100864Y-46319D01*
X100878Y-46357D01*
X100878Y-46376D01*
X100864Y-46414D01*
X100850Y-46433D01*
X100821Y-46452D01*
X100764Y-46452D01*
X100735Y-46471D01*
X100721Y-46490D01*
X100707Y-46528D01*
X100707Y-46604D01*
X100721Y-46642D01*
X100735Y-46661D01*
X100764Y-46680D01*
X100821Y-46680D01*
X100850Y-46661D01*
X100864Y-46642D01*
X100878Y-46604D01*
X100878Y-46528D01*
X100864Y-46490D01*
X100850Y-46471D01*
X100821Y-46452D01*
X100707Y-47580D02*
X100735Y-47580D01*
X100764Y-47600D01*
X100778Y-47619D01*
X100792Y-47657D01*
X100807Y-47733D01*
X100807Y-47828D01*
X100792Y-47904D01*
X100778Y-47942D01*
X100764Y-47961D01*
X100735Y-47980D01*
X100707Y-47980D01*
X100678Y-47961D01*
X100664Y-47942D01*
X100650Y-47904D01*
X100635Y-47828D01*
X100635Y-47733D01*
X100650Y-47657D01*
X100664Y-47619D01*
X100678Y-47600D01*
X100707Y-47580D01*
X100935Y-47942D02*
X100950Y-47961D01*
X100935Y-47980D01*
X100921Y-47961D01*
X100935Y-47942D01*
X100935Y-47980D01*
X101235Y-47980D02*
X101064Y-47980D01*
X101150Y-47980D02*
X101150Y-47580D01*
X101121Y-47638D01*
X101092Y-47676D01*
X101064Y-47695D01*
X101492Y-47714D02*
X101492Y-47980D01*
X101364Y-47714D02*
X101364Y-47923D01*
X101378Y-47961D01*
X101407Y-47980D01*
X101450Y-47980D01*
X101478Y-47961D01*
X101492Y-47942D01*
X101735Y-47771D02*
X101635Y-47771D01*
X101635Y-47980D02*
X101635Y-47580D01*
X101778Y-47580D01*
X101407Y-36642D02*
X101392Y-36661D01*
X101350Y-36680D01*
X101321Y-36680D01*
X101278Y-36661D01*
X101250Y-36623D01*
X101235Y-36585D01*
X101221Y-36509D01*
X101221Y-36452D01*
X101235Y-36376D01*
X101250Y-36338D01*
X101278Y-36300D01*
X101321Y-36280D01*
X101350Y-36280D01*
X101392Y-36300D01*
X101407Y-36319D01*
X101664Y-36414D02*
X101664Y-36680D01*
X101592Y-36261D02*
X101521Y-36547D01*
X101707Y-36547D01*
X101978Y-36680D02*
X101807Y-36680D01*
X101892Y-36680D02*
X101892Y-36280D01*
X101864Y-36338D01*
X101835Y-36376D01*
X101807Y-36395D01*
X102007Y-37230D02*
X102035Y-37230D01*
X102064Y-37250D01*
X102078Y-37269D01*
X102092Y-37307D01*
X102107Y-37383D01*
X102107Y-37478D01*
X102092Y-37554D01*
X102078Y-37592D01*
X102064Y-37611D01*
X102035Y-37630D01*
X102007Y-37630D01*
X101978Y-37611D01*
X101964Y-37592D01*
X101950Y-37554D01*
X101935Y-37478D01*
X101935Y-37383D01*
X101950Y-37307D01*
X101964Y-37269D01*
X101978Y-37250D01*
X102007Y-37230D01*
X102235Y-37592D02*
X102250Y-37611D01*
X102235Y-37630D01*
X102221Y-37611D01*
X102235Y-37592D01*
X102235Y-37630D01*
X102535Y-37630D02*
X102364Y-37630D01*
X102450Y-37630D02*
X102450Y-37230D01*
X102421Y-37288D01*
X102392Y-37326D01*
X102364Y-37345D01*
X102792Y-37364D02*
X102792Y-37630D01*
X102664Y-37364D02*
X102664Y-37573D01*
X102678Y-37611D01*
X102707Y-37630D01*
X102750Y-37630D01*
X102778Y-37611D01*
X102792Y-37592D01*
X103035Y-37421D02*
X102935Y-37421D01*
X102935Y-37630D02*
X102935Y-37230D01*
X103078Y-37230D01*
X100407Y-49642D02*
X100392Y-49661D01*
X100350Y-49680D01*
X100321Y-49680D01*
X100278Y-49661D01*
X100250Y-49623D01*
X100235Y-49585D01*
X100221Y-49509D01*
X100221Y-49452D01*
X100235Y-49376D01*
X100250Y-49338D01*
X100278Y-49300D01*
X100321Y-49280D01*
X100350Y-49280D01*
X100392Y-49300D01*
X100407Y-49319D01*
X100664Y-49414D02*
X100664Y-49680D01*
X100592Y-49261D02*
X100521Y-49547D01*
X100707Y-49547D01*
X100807Y-49319D02*
X100821Y-49300D01*
X100850Y-49280D01*
X100921Y-49280D01*
X100950Y-49300D01*
X100964Y-49319D01*
X100978Y-49357D01*
X100978Y-49395D01*
X100964Y-49452D01*
X100792Y-49680D01*
X100978Y-49680D01*
X101207Y-50280D02*
X101235Y-50280D01*
X101264Y-50300D01*
X101278Y-50319D01*
X101292Y-50357D01*
X101307Y-50433D01*
X101307Y-50528D01*
X101292Y-50604D01*
X101278Y-50642D01*
X101264Y-50661D01*
X101235Y-50680D01*
X101207Y-50680D01*
X101178Y-50661D01*
X101164Y-50642D01*
X101150Y-50604D01*
X101135Y-50528D01*
X101135Y-50433D01*
X101150Y-50357D01*
X101164Y-50319D01*
X101178Y-50300D01*
X101207Y-50280D01*
X101435Y-50642D02*
X101450Y-50661D01*
X101435Y-50680D01*
X101421Y-50661D01*
X101435Y-50642D01*
X101435Y-50680D01*
X101735Y-50680D02*
X101564Y-50680D01*
X101650Y-50680D02*
X101650Y-50280D01*
X101621Y-50338D01*
X101592Y-50376D01*
X101564Y-50395D01*
X101992Y-50414D02*
X101992Y-50680D01*
X101864Y-50414D02*
X101864Y-50623D01*
X101878Y-50661D01*
X101907Y-50680D01*
X101950Y-50680D01*
X101978Y-50661D01*
X101992Y-50642D01*
X102235Y-50471D02*
X102135Y-50471D01*
X102135Y-50680D02*
X102135Y-50280D01*
X102278Y-50280D01*
X82450Y-34580D02*
X82350Y-34390D01*
X82278Y-34580D02*
X82278Y-34180D01*
X82392Y-34180D01*
X82421Y-34200D01*
X82435Y-34219D01*
X82450Y-34257D01*
X82450Y-34314D01*
X82435Y-34352D01*
X82421Y-34371D01*
X82392Y-34390D01*
X82278Y-34390D01*
X82735Y-34580D02*
X82564Y-34580D01*
X82650Y-34580D02*
X82650Y-34180D01*
X82621Y-34238D01*
X82592Y-34276D01*
X82564Y-34295D01*
X82121Y-32369D02*
X82135Y-32350D01*
X82164Y-32330D01*
X82235Y-32330D01*
X82264Y-32350D01*
X82278Y-32369D01*
X82292Y-32407D01*
X82292Y-32445D01*
X82278Y-32502D01*
X82107Y-32730D01*
X82292Y-32730D01*
X82478Y-32330D02*
X82507Y-32330D01*
X82535Y-32350D01*
X82550Y-32369D01*
X82564Y-32407D01*
X82578Y-32483D01*
X82578Y-32578D01*
X82564Y-32654D01*
X82550Y-32692D01*
X82535Y-32711D01*
X82507Y-32730D01*
X82478Y-32730D01*
X82450Y-32711D01*
X82435Y-32692D01*
X82421Y-32654D01*
X82407Y-32578D01*
X82407Y-32483D01*
X82421Y-32407D01*
X82435Y-32369D01*
X82450Y-32350D01*
X82478Y-32330D01*
X82707Y-32730D02*
X82707Y-32330D01*
X82878Y-32730D02*
X82750Y-32502D01*
X82878Y-32330D02*
X82707Y-32559D01*
X80750Y-39230D02*
X80650Y-39040D01*
X80578Y-39230D02*
X80578Y-38830D01*
X80692Y-38830D01*
X80721Y-38850D01*
X80735Y-38869D01*
X80750Y-38907D01*
X80750Y-38964D01*
X80735Y-39002D01*
X80721Y-39021D01*
X80692Y-39040D01*
X80578Y-39040D01*
X80864Y-38869D02*
X80878Y-38850D01*
X80907Y-38830D01*
X80978Y-38830D01*
X81007Y-38850D01*
X81021Y-38869D01*
X81035Y-38907D01*
X81035Y-38945D01*
X81021Y-39002D01*
X80850Y-39230D01*
X81035Y-39230D01*
X81400Y-38630D02*
X81228Y-38630D01*
X81314Y-38630D02*
X81314Y-38230D01*
X81285Y-38288D01*
X81257Y-38326D01*
X81228Y-38345D01*
X81500Y-38230D02*
X81685Y-38230D01*
X81585Y-38383D01*
X81628Y-38383D01*
X81657Y-38402D01*
X81671Y-38421D01*
X81685Y-38459D01*
X81685Y-38554D01*
X81671Y-38592D01*
X81657Y-38611D01*
X81628Y-38630D01*
X81542Y-38630D01*
X81514Y-38611D01*
X81500Y-38592D01*
X81785Y-38230D02*
X81985Y-38230D01*
X81857Y-38630D01*
X82271Y-38630D02*
X82171Y-38440D01*
X82100Y-38630D02*
X82100Y-38230D01*
X82214Y-38230D01*
X82242Y-38250D01*
X82257Y-38269D01*
X82271Y-38307D01*
X82271Y-38364D01*
X82257Y-38402D01*
X82242Y-38421D01*
X82214Y-38440D01*
X82100Y-38440D01*
X82650Y-37380D02*
X82550Y-37190D01*
X82478Y-37380D02*
X82478Y-36980D01*
X82592Y-36980D01*
X82621Y-37000D01*
X82635Y-37019D01*
X82650Y-37057D01*
X82650Y-37114D01*
X82635Y-37152D01*
X82621Y-37171D01*
X82592Y-37190D01*
X82478Y-37190D01*
X82750Y-36980D02*
X82935Y-36980D01*
X82835Y-37133D01*
X82878Y-37133D01*
X82907Y-37152D01*
X82921Y-37171D01*
X82935Y-37209D01*
X82935Y-37304D01*
X82921Y-37342D01*
X82907Y-37361D01*
X82878Y-37380D01*
X82792Y-37380D01*
X82764Y-37361D01*
X82750Y-37342D01*
X81400Y-37830D02*
X81228Y-37830D01*
X81314Y-37830D02*
X81314Y-37430D01*
X81285Y-37488D01*
X81257Y-37526D01*
X81228Y-37545D01*
X81500Y-37430D02*
X81685Y-37430D01*
X81585Y-37583D01*
X81628Y-37583D01*
X81657Y-37602D01*
X81671Y-37621D01*
X81685Y-37659D01*
X81685Y-37754D01*
X81671Y-37792D01*
X81657Y-37811D01*
X81628Y-37830D01*
X81542Y-37830D01*
X81514Y-37811D01*
X81500Y-37792D01*
X81785Y-37430D02*
X81985Y-37430D01*
X81857Y-37830D01*
X82271Y-37830D02*
X82171Y-37640D01*
X82100Y-37830D02*
X82100Y-37430D01*
X82214Y-37430D01*
X82242Y-37450D01*
X82257Y-37469D01*
X82271Y-37507D01*
X82271Y-37564D01*
X82257Y-37602D01*
X82242Y-37621D01*
X82214Y-37640D01*
X82100Y-37640D01*
X81450Y-45080D02*
X81350Y-44890D01*
X81278Y-45080D02*
X81278Y-44680D01*
X81392Y-44680D01*
X81421Y-44700D01*
X81435Y-44719D01*
X81450Y-44757D01*
X81450Y-44814D01*
X81435Y-44852D01*
X81421Y-44871D01*
X81392Y-44890D01*
X81278Y-44890D01*
X81707Y-44814D02*
X81707Y-45080D01*
X81635Y-44661D02*
X81564Y-44947D01*
X81750Y-44947D01*
X81121Y-43419D02*
X81135Y-43400D01*
X81164Y-43380D01*
X81235Y-43380D01*
X81264Y-43400D01*
X81278Y-43419D01*
X81292Y-43457D01*
X81292Y-43495D01*
X81278Y-43552D01*
X81107Y-43780D01*
X81292Y-43780D01*
X81550Y-43514D02*
X81550Y-43780D01*
X81478Y-43361D02*
X81407Y-43647D01*
X81592Y-43647D01*
X81707Y-43780D02*
X81707Y-43380D01*
X81878Y-43780D02*
X81750Y-43552D01*
X81878Y-43380D02*
X81707Y-43609D01*
X93950Y-49780D02*
X93850Y-49590D01*
X93778Y-49780D02*
X93778Y-49380D01*
X93892Y-49380D01*
X93921Y-49400D01*
X93935Y-49419D01*
X93950Y-49457D01*
X93950Y-49514D01*
X93935Y-49552D01*
X93921Y-49571D01*
X93892Y-49590D01*
X93778Y-49590D01*
X94221Y-49380D02*
X94078Y-49380D01*
X94064Y-49571D01*
X94078Y-49552D01*
X94107Y-49533D01*
X94178Y-49533D01*
X94207Y-49552D01*
X94221Y-49571D01*
X94235Y-49609D01*
X94235Y-49704D01*
X94221Y-49742D01*
X94207Y-49761D01*
X94178Y-49780D01*
X94107Y-49780D01*
X94078Y-49761D01*
X94064Y-49742D01*
X93464Y-51230D02*
X93650Y-51230D01*
X93550Y-51383D01*
X93592Y-51383D01*
X93621Y-51402D01*
X93635Y-51421D01*
X93650Y-51459D01*
X93650Y-51554D01*
X93635Y-51592D01*
X93621Y-51611D01*
X93592Y-51630D01*
X93507Y-51630D01*
X93478Y-51611D01*
X93464Y-51592D01*
X93750Y-51230D02*
X93950Y-51230D01*
X93821Y-51630D01*
X94192Y-51364D02*
X94192Y-51630D01*
X94121Y-51211D02*
X94050Y-51497D01*
X94235Y-51497D01*
X94350Y-51630D02*
X94350Y-51230D01*
X94521Y-51630D02*
X94392Y-51402D01*
X94521Y-51230D02*
X94350Y-51459D01*
X90950Y-49780D02*
X90850Y-49590D01*
X90778Y-49780D02*
X90778Y-49380D01*
X90892Y-49380D01*
X90921Y-49400D01*
X90935Y-49419D01*
X90950Y-49457D01*
X90950Y-49514D01*
X90935Y-49552D01*
X90921Y-49571D01*
X90892Y-49590D01*
X90778Y-49590D01*
X91207Y-49380D02*
X91150Y-49380D01*
X91121Y-49400D01*
X91107Y-49419D01*
X91078Y-49476D01*
X91064Y-49552D01*
X91064Y-49704D01*
X91078Y-49742D01*
X91092Y-49761D01*
X91121Y-49780D01*
X91178Y-49780D01*
X91207Y-49761D01*
X91221Y-49742D01*
X91235Y-49704D01*
X91235Y-49609D01*
X91221Y-49571D01*
X91207Y-49552D01*
X91178Y-49533D01*
X91121Y-49533D01*
X91092Y-49552D01*
X91078Y-49571D01*
X91064Y-49609D01*
X90650Y-51630D02*
X90478Y-51630D01*
X90564Y-51630D02*
X90564Y-51230D01*
X90535Y-51288D01*
X90507Y-51326D01*
X90478Y-51345D01*
X90821Y-51402D02*
X90792Y-51383D01*
X90778Y-51364D01*
X90764Y-51326D01*
X90764Y-51307D01*
X90778Y-51269D01*
X90792Y-51250D01*
X90821Y-51230D01*
X90878Y-51230D01*
X90907Y-51250D01*
X90921Y-51269D01*
X90935Y-51307D01*
X90935Y-51326D01*
X90921Y-51364D01*
X90907Y-51383D01*
X90878Y-51402D01*
X90821Y-51402D01*
X90792Y-51421D01*
X90778Y-51440D01*
X90764Y-51478D01*
X90764Y-51554D01*
X90778Y-51592D01*
X90792Y-51611D01*
X90821Y-51630D01*
X90878Y-51630D01*
X90907Y-51611D01*
X90921Y-51592D01*
X90935Y-51554D01*
X90935Y-51478D01*
X90921Y-51440D01*
X90907Y-51421D01*
X90878Y-51402D01*
X91050Y-51269D02*
X91064Y-51250D01*
X91092Y-51230D01*
X91164Y-51230D01*
X91192Y-51250D01*
X91207Y-51269D01*
X91221Y-51307D01*
X91221Y-51345D01*
X91207Y-51402D01*
X91035Y-51630D01*
X91221Y-51630D01*
X91350Y-51630D02*
X91350Y-51230D01*
X91521Y-51630D02*
X91392Y-51402D01*
X91521Y-51230D02*
X91350Y-51459D01*
X87950Y-49780D02*
X87850Y-49590D01*
X87778Y-49780D02*
X87778Y-49380D01*
X87892Y-49380D01*
X87921Y-49400D01*
X87935Y-49419D01*
X87950Y-49457D01*
X87950Y-49514D01*
X87935Y-49552D01*
X87921Y-49571D01*
X87892Y-49590D01*
X87778Y-49590D01*
X88050Y-49380D02*
X88250Y-49380D01*
X88121Y-49780D01*
X87650Y-51630D02*
X87707Y-51630D01*
X87735Y-51611D01*
X87750Y-51592D01*
X87778Y-51535D01*
X87792Y-51459D01*
X87792Y-51307D01*
X87778Y-51269D01*
X87764Y-51250D01*
X87735Y-51230D01*
X87678Y-51230D01*
X87650Y-51250D01*
X87635Y-51269D01*
X87621Y-51307D01*
X87621Y-51402D01*
X87635Y-51440D01*
X87650Y-51459D01*
X87678Y-51478D01*
X87735Y-51478D01*
X87764Y-51459D01*
X87778Y-51440D01*
X87792Y-51402D01*
X88078Y-51630D02*
X87907Y-51630D01*
X87992Y-51630D02*
X87992Y-51230D01*
X87964Y-51288D01*
X87935Y-51326D01*
X87907Y-51345D01*
X88207Y-51630D02*
X88207Y-51230D01*
X88378Y-51630D02*
X88250Y-51402D01*
X88378Y-51230D02*
X88207Y-51459D01*
X84950Y-49780D02*
X84850Y-49590D01*
X84778Y-49780D02*
X84778Y-49380D01*
X84892Y-49380D01*
X84921Y-49400D01*
X84935Y-49419D01*
X84950Y-49457D01*
X84950Y-49514D01*
X84935Y-49552D01*
X84921Y-49571D01*
X84892Y-49590D01*
X84778Y-49590D01*
X85121Y-49552D02*
X85092Y-49533D01*
X85078Y-49514D01*
X85064Y-49476D01*
X85064Y-49457D01*
X85078Y-49419D01*
X85092Y-49400D01*
X85121Y-49380D01*
X85178Y-49380D01*
X85207Y-49400D01*
X85221Y-49419D01*
X85235Y-49457D01*
X85235Y-49476D01*
X85221Y-49514D01*
X85207Y-49533D01*
X85178Y-49552D01*
X85121Y-49552D01*
X85092Y-49571D01*
X85078Y-49590D01*
X85064Y-49628D01*
X85064Y-49704D01*
X85078Y-49742D01*
X85092Y-49761D01*
X85121Y-49780D01*
X85178Y-49780D01*
X85207Y-49761D01*
X85221Y-49742D01*
X85235Y-49704D01*
X85235Y-49628D01*
X85221Y-49590D01*
X85207Y-49571D01*
X85178Y-49552D01*
X84764Y-51364D02*
X84764Y-51630D01*
X84692Y-51211D02*
X84621Y-51497D01*
X84807Y-51497D01*
X85064Y-51230D02*
X84921Y-51230D01*
X84907Y-51421D01*
X84921Y-51402D01*
X84950Y-51383D01*
X85021Y-51383D01*
X85050Y-51402D01*
X85064Y-51421D01*
X85078Y-51459D01*
X85078Y-51554D01*
X85064Y-51592D01*
X85050Y-51611D01*
X85021Y-51630D01*
X84950Y-51630D01*
X84921Y-51611D01*
X84907Y-51592D01*
X85207Y-51630D02*
X85207Y-51230D01*
X85378Y-51630D02*
X85250Y-51402D01*
X85378Y-51230D02*
X85207Y-51459D01*
X85200Y-36580D02*
X85100Y-36390D01*
X85028Y-36580D02*
X85028Y-36180D01*
X85142Y-36180D01*
X85171Y-36200D01*
X85185Y-36219D01*
X85200Y-36257D01*
X85200Y-36314D01*
X85185Y-36352D01*
X85171Y-36371D01*
X85142Y-36390D01*
X85028Y-36390D01*
X85342Y-36580D02*
X85400Y-36580D01*
X85428Y-36561D01*
X85442Y-36542D01*
X85471Y-36485D01*
X85485Y-36409D01*
X85485Y-36257D01*
X85471Y-36219D01*
X85457Y-36200D01*
X85428Y-36180D01*
X85371Y-36180D01*
X85342Y-36200D01*
X85328Y-36219D01*
X85314Y-36257D01*
X85314Y-36352D01*
X85328Y-36390D01*
X85342Y-36409D01*
X85371Y-36428D01*
X85428Y-36428D01*
X85457Y-36409D01*
X85471Y-36390D01*
X85485Y-36352D01*
X84871Y-34369D02*
X84885Y-34350D01*
X84914Y-34330D01*
X84985Y-34330D01*
X85014Y-34350D01*
X85028Y-34369D01*
X85042Y-34407D01*
X85042Y-34445D01*
X85028Y-34502D01*
X84857Y-34730D01*
X85042Y-34730D01*
X85157Y-34369D02*
X85171Y-34350D01*
X85200Y-34330D01*
X85271Y-34330D01*
X85300Y-34350D01*
X85314Y-34369D01*
X85328Y-34407D01*
X85328Y-34445D01*
X85314Y-34502D01*
X85142Y-34730D01*
X85328Y-34730D01*
X85457Y-34730D02*
X85457Y-34330D01*
X85628Y-34730D02*
X85500Y-34502D01*
X85628Y-34330D02*
X85457Y-34559D01*
X88057Y-36580D02*
X87957Y-36390D01*
X87885Y-36580D02*
X87885Y-36180D01*
X88000Y-36180D01*
X88028Y-36200D01*
X88042Y-36219D01*
X88057Y-36257D01*
X88057Y-36314D01*
X88042Y-36352D01*
X88028Y-36371D01*
X88000Y-36390D01*
X87885Y-36390D01*
X88342Y-36580D02*
X88171Y-36580D01*
X88257Y-36580D02*
X88257Y-36180D01*
X88228Y-36238D01*
X88200Y-36276D01*
X88171Y-36295D01*
X88528Y-36180D02*
X88557Y-36180D01*
X88585Y-36200D01*
X88600Y-36219D01*
X88614Y-36257D01*
X88628Y-36333D01*
X88628Y-36428D01*
X88614Y-36504D01*
X88600Y-36542D01*
X88585Y-36561D01*
X88557Y-36580D01*
X88528Y-36580D01*
X88500Y-36561D01*
X88485Y-36542D01*
X88471Y-36504D01*
X88457Y-36428D01*
X88457Y-36333D01*
X88471Y-36257D01*
X88485Y-36219D01*
X88500Y-36200D01*
X88528Y-36180D01*
X88042Y-34730D02*
X87871Y-34730D01*
X87957Y-34730D02*
X87957Y-34330D01*
X87928Y-34388D01*
X87900Y-34426D01*
X87871Y-34445D01*
X88228Y-34330D02*
X88257Y-34330D01*
X88285Y-34350D01*
X88300Y-34369D01*
X88314Y-34407D01*
X88328Y-34483D01*
X88328Y-34578D01*
X88314Y-34654D01*
X88300Y-34692D01*
X88285Y-34711D01*
X88257Y-34730D01*
X88228Y-34730D01*
X88200Y-34711D01*
X88185Y-34692D01*
X88171Y-34654D01*
X88157Y-34578D01*
X88157Y-34483D01*
X88171Y-34407D01*
X88185Y-34369D01*
X88200Y-34350D01*
X88228Y-34330D01*
X88457Y-34730D02*
X88457Y-34330D01*
X88628Y-34730D02*
X88500Y-34502D01*
X88628Y-34330D02*
X88457Y-34559D01*
X91057Y-36580D02*
X90957Y-36390D01*
X90885Y-36580D02*
X90885Y-36180D01*
X91000Y-36180D01*
X91028Y-36200D01*
X91042Y-36219D01*
X91057Y-36257D01*
X91057Y-36314D01*
X91042Y-36352D01*
X91028Y-36371D01*
X91000Y-36390D01*
X90885Y-36390D01*
X91342Y-36580D02*
X91171Y-36580D01*
X91257Y-36580D02*
X91257Y-36180D01*
X91228Y-36238D01*
X91200Y-36276D01*
X91171Y-36295D01*
X91628Y-36580D02*
X91457Y-36580D01*
X91542Y-36580D02*
X91542Y-36180D01*
X91514Y-36238D01*
X91485Y-36276D01*
X91457Y-36295D01*
X91171Y-34330D02*
X91028Y-34330D01*
X91014Y-34521D01*
X91028Y-34502D01*
X91057Y-34483D01*
X91128Y-34483D01*
X91157Y-34502D01*
X91171Y-34521D01*
X91185Y-34559D01*
X91185Y-34654D01*
X91171Y-34692D01*
X91157Y-34711D01*
X91128Y-34730D01*
X91057Y-34730D01*
X91028Y-34711D01*
X91014Y-34692D01*
X91314Y-34730D02*
X91314Y-34330D01*
X91485Y-34730D02*
X91357Y-34502D01*
X91485Y-34330D02*
X91314Y-34559D01*
X94057Y-36580D02*
X93957Y-36390D01*
X93885Y-36580D02*
X93885Y-36180D01*
X94000Y-36180D01*
X94028Y-36200D01*
X94042Y-36219D01*
X94057Y-36257D01*
X94057Y-36314D01*
X94042Y-36352D01*
X94028Y-36371D01*
X94000Y-36390D01*
X93885Y-36390D01*
X94342Y-36580D02*
X94171Y-36580D01*
X94257Y-36580D02*
X94257Y-36180D01*
X94228Y-36238D01*
X94200Y-36276D01*
X94171Y-36295D01*
X94457Y-36219D02*
X94471Y-36200D01*
X94500Y-36180D01*
X94571Y-36180D01*
X94600Y-36200D01*
X94614Y-36219D01*
X94628Y-36257D01*
X94628Y-36295D01*
X94614Y-36352D01*
X94442Y-36580D01*
X94628Y-36580D01*
X94014Y-34369D02*
X94028Y-34350D01*
X94057Y-34330D01*
X94128Y-34330D01*
X94157Y-34350D01*
X94171Y-34369D01*
X94185Y-34407D01*
X94185Y-34445D01*
X94171Y-34502D01*
X94000Y-34730D01*
X94185Y-34730D01*
X94314Y-34730D02*
X94314Y-34330D01*
X94485Y-34730D02*
X94357Y-34502D01*
X94485Y-34330D02*
X94314Y-34559D01*
X70630Y-29495D02*
X70230Y-29495D01*
X70230Y-29342D01*
X70250Y-29304D01*
X70269Y-29285D01*
X70307Y-29266D01*
X70364Y-29266D01*
X70402Y-29285D01*
X70421Y-29304D01*
X70440Y-29342D01*
X70440Y-29495D01*
X70364Y-28923D02*
X70630Y-28923D01*
X70211Y-29019D02*
X70497Y-29114D01*
X70497Y-28866D01*
X81476Y-28980D02*
X81742Y-29380D01*
X81742Y-28980D02*
X81476Y-29380D01*
X82104Y-29380D02*
X81876Y-29380D01*
X81990Y-29380D02*
X81990Y-28980D01*
X81952Y-29038D01*
X81914Y-29076D01*
X81876Y-29095D01*
X79745Y-30480D02*
X79745Y-30804D01*
X79764Y-30842D01*
X79783Y-30861D01*
X79821Y-30880D01*
X79897Y-30880D01*
X79935Y-30861D01*
X79954Y-30842D01*
X79973Y-30804D01*
X79973Y-30480D01*
X80373Y-30880D02*
X80145Y-30880D01*
X80259Y-30880D02*
X80259Y-30480D01*
X80221Y-30538D01*
X80183Y-30576D01*
X80145Y-30595D01*
X84761Y-29080D02*
X84628Y-28890D01*
X84533Y-29080D02*
X84533Y-28680D01*
X84685Y-28680D01*
X84723Y-28700D01*
X84742Y-28719D01*
X84761Y-28757D01*
X84761Y-28814D01*
X84742Y-28852D01*
X84723Y-28871D01*
X84685Y-28890D01*
X84533Y-28890D01*
X84876Y-28680D02*
X85009Y-29080D01*
X85142Y-28680D01*
X85485Y-29080D02*
X85257Y-29080D01*
X85371Y-29080D02*
X85371Y-28680D01*
X85333Y-28738D01*
X85295Y-28776D01*
X85257Y-28795D01*
X84914Y-33230D02*
X84685Y-33230D01*
X84800Y-33230D02*
X84800Y-32830D01*
X84761Y-32888D01*
X84723Y-32926D01*
X84685Y-32945D01*
X85085Y-33230D02*
X85085Y-32830D01*
X85314Y-33230D02*
X85142Y-33002D01*
X85314Y-32830D02*
X85085Y-33059D01*
X77761Y-40380D02*
X77628Y-40190D01*
X77533Y-40380D02*
X77533Y-39980D01*
X77685Y-39980D01*
X77723Y-40000D01*
X77742Y-40019D01*
X77761Y-40057D01*
X77761Y-40114D01*
X77742Y-40152D01*
X77723Y-40171D01*
X77685Y-40190D01*
X77533Y-40190D01*
X77876Y-39980D02*
X78009Y-40380D01*
X78142Y-39980D01*
X78257Y-40019D02*
X78276Y-40000D01*
X78314Y-39980D01*
X78409Y-39980D01*
X78447Y-40000D01*
X78466Y-40019D01*
X78485Y-40057D01*
X78485Y-40095D01*
X78466Y-40152D01*
X78238Y-40380D01*
X78485Y-40380D01*
X77914Y-44530D02*
X77685Y-44530D01*
X77800Y-44530D02*
X77800Y-44130D01*
X77761Y-44188D01*
X77723Y-44226D01*
X77685Y-44245D01*
X78085Y-44530D02*
X78085Y-44130D01*
X78314Y-44530D02*
X78142Y-44302D01*
X78314Y-44130D02*
X78085Y-44359D01*
X95311Y-46280D02*
X95178Y-46090D01*
X95083Y-46280D02*
X95083Y-45880D01*
X95235Y-45880D01*
X95273Y-45900D01*
X95292Y-45919D01*
X95311Y-45957D01*
X95311Y-46014D01*
X95292Y-46052D01*
X95273Y-46071D01*
X95235Y-46090D01*
X95083Y-46090D01*
X95426Y-45880D02*
X95559Y-46280D01*
X95692Y-45880D01*
X95788Y-45880D02*
X96035Y-45880D01*
X95902Y-46033D01*
X95959Y-46033D01*
X95997Y-46052D01*
X96016Y-46071D01*
X96035Y-46109D01*
X96035Y-46204D01*
X96016Y-46242D01*
X95997Y-46261D01*
X95959Y-46280D01*
X95845Y-46280D01*
X95807Y-46261D01*
X95788Y-46242D01*
X96095Y-46719D02*
X96114Y-46700D01*
X96152Y-46680D01*
X96247Y-46680D01*
X96285Y-46700D01*
X96304Y-46719D01*
X96323Y-46757D01*
X96323Y-46795D01*
X96304Y-46852D01*
X96076Y-47080D01*
X96323Y-47080D01*
X96571Y-46680D02*
X96609Y-46680D01*
X96647Y-46700D01*
X96666Y-46719D01*
X96685Y-46757D01*
X96704Y-46833D01*
X96704Y-46928D01*
X96685Y-47004D01*
X96666Y-47042D01*
X96647Y-47061D01*
X96609Y-47080D01*
X96571Y-47080D01*
X96533Y-47061D01*
X96514Y-47042D01*
X96495Y-47004D01*
X96476Y-46928D01*
X96476Y-46833D01*
X96495Y-46757D01*
X96514Y-46719D01*
X96533Y-46700D01*
X96571Y-46680D01*
X96876Y-47080D02*
X96876Y-46680D01*
X97104Y-47080D02*
X96933Y-46852D01*
X97104Y-46680D02*
X96876Y-46909D01*
X92311Y-46280D02*
X92178Y-46090D01*
X92083Y-46280D02*
X92083Y-45880D01*
X92235Y-45880D01*
X92273Y-45900D01*
X92292Y-45919D01*
X92311Y-45957D01*
X92311Y-46014D01*
X92292Y-46052D01*
X92273Y-46071D01*
X92235Y-46090D01*
X92083Y-46090D01*
X92426Y-45880D02*
X92559Y-46280D01*
X92692Y-45880D01*
X92997Y-46014D02*
X92997Y-46280D01*
X92902Y-45861D02*
X92807Y-46147D01*
X93054Y-46147D01*
X90895Y-46719D02*
X90914Y-46700D01*
X90952Y-46680D01*
X91047Y-46680D01*
X91085Y-46700D01*
X91104Y-46719D01*
X91123Y-46757D01*
X91123Y-46795D01*
X91104Y-46852D01*
X90876Y-47080D01*
X91123Y-47080D01*
X91371Y-46680D02*
X91409Y-46680D01*
X91447Y-46700D01*
X91466Y-46719D01*
X91485Y-46757D01*
X91504Y-46833D01*
X91504Y-46928D01*
X91485Y-47004D01*
X91466Y-47042D01*
X91447Y-47061D01*
X91409Y-47080D01*
X91371Y-47080D01*
X91333Y-47061D01*
X91314Y-47042D01*
X91295Y-47004D01*
X91276Y-46928D01*
X91276Y-46833D01*
X91295Y-46757D01*
X91314Y-46719D01*
X91333Y-46700D01*
X91371Y-46680D01*
X91676Y-47080D02*
X91676Y-46680D01*
X91904Y-47080D02*
X91733Y-46852D01*
X91904Y-46680D02*
X91676Y-46909D01*
X89261Y-46280D02*
X89128Y-46090D01*
X89033Y-46280D02*
X89033Y-45880D01*
X89185Y-45880D01*
X89223Y-45900D01*
X89242Y-45919D01*
X89261Y-45957D01*
X89261Y-46014D01*
X89242Y-46052D01*
X89223Y-46071D01*
X89185Y-46090D01*
X89033Y-46090D01*
X89376Y-45880D02*
X89509Y-46280D01*
X89642Y-45880D01*
X89966Y-45880D02*
X89776Y-45880D01*
X89757Y-46071D01*
X89776Y-46052D01*
X89814Y-46033D01*
X89909Y-46033D01*
X89947Y-46052D01*
X89966Y-46071D01*
X89985Y-46109D01*
X89985Y-46204D01*
X89966Y-46242D01*
X89947Y-46261D01*
X89909Y-46280D01*
X89814Y-46280D01*
X89776Y-46261D01*
X89757Y-46242D01*
X88073Y-47030D02*
X87845Y-47030D01*
X87959Y-47030D02*
X87959Y-46630D01*
X87921Y-46688D01*
X87883Y-46726D01*
X87845Y-46745D01*
X88321Y-46630D02*
X88359Y-46630D01*
X88397Y-46650D01*
X88416Y-46669D01*
X88435Y-46707D01*
X88454Y-46783D01*
X88454Y-46878D01*
X88435Y-46954D01*
X88416Y-46992D01*
X88397Y-47011D01*
X88359Y-47030D01*
X88321Y-47030D01*
X88283Y-47011D01*
X88264Y-46992D01*
X88245Y-46954D01*
X88226Y-46878D01*
X88226Y-46783D01*
X88245Y-46707D01*
X88264Y-46669D01*
X88283Y-46650D01*
X88321Y-46630D01*
X88626Y-47030D02*
X88626Y-46630D01*
X88854Y-47030D02*
X88683Y-46802D01*
X88854Y-46630D02*
X88626Y-46859D01*
X86361Y-46280D02*
X86228Y-46090D01*
X86133Y-46280D02*
X86133Y-45880D01*
X86285Y-45880D01*
X86323Y-45900D01*
X86342Y-45919D01*
X86361Y-45957D01*
X86361Y-46014D01*
X86342Y-46052D01*
X86323Y-46071D01*
X86285Y-46090D01*
X86133Y-46090D01*
X86476Y-45880D02*
X86609Y-46280D01*
X86742Y-45880D01*
X87047Y-45880D02*
X86971Y-45880D01*
X86933Y-45900D01*
X86914Y-45919D01*
X86876Y-45976D01*
X86857Y-46052D01*
X86857Y-46204D01*
X86876Y-46242D01*
X86895Y-46261D01*
X86933Y-46280D01*
X87009Y-46280D01*
X87047Y-46261D01*
X87066Y-46242D01*
X87085Y-46204D01*
X87085Y-46109D01*
X87066Y-46071D01*
X87047Y-46052D01*
X87009Y-46033D01*
X86933Y-46033D01*
X86895Y-46052D01*
X86876Y-46071D01*
X86857Y-46109D01*
X85445Y-46580D02*
X85254Y-46580D01*
X85235Y-46771D01*
X85254Y-46752D01*
X85292Y-46733D01*
X85388Y-46733D01*
X85426Y-46752D01*
X85445Y-46771D01*
X85464Y-46809D01*
X85464Y-46904D01*
X85445Y-46942D01*
X85426Y-46961D01*
X85388Y-46980D01*
X85292Y-46980D01*
X85254Y-46961D01*
X85235Y-46942D01*
X85635Y-46980D02*
X85635Y-46580D01*
X85864Y-46980D02*
X85692Y-46752D01*
X85864Y-46580D02*
X85635Y-46809D01*
X86511Y-40280D02*
X86378Y-40090D01*
X86283Y-40280D02*
X86283Y-39880D01*
X86435Y-39880D01*
X86473Y-39900D01*
X86492Y-39919D01*
X86511Y-39957D01*
X86511Y-40014D01*
X86492Y-40052D01*
X86473Y-40071D01*
X86435Y-40090D01*
X86283Y-40090D01*
X86626Y-39880D02*
X86759Y-40280D01*
X86892Y-39880D01*
X86988Y-39880D02*
X87254Y-39880D01*
X87083Y-40280D01*
X85745Y-38880D02*
X85554Y-38880D01*
X85535Y-39071D01*
X85554Y-39052D01*
X85592Y-39033D01*
X85688Y-39033D01*
X85726Y-39052D01*
X85745Y-39071D01*
X85764Y-39109D01*
X85764Y-39204D01*
X85745Y-39242D01*
X85726Y-39261D01*
X85688Y-39280D01*
X85592Y-39280D01*
X85554Y-39261D01*
X85535Y-39242D01*
X85935Y-39280D02*
X85935Y-38880D01*
X86164Y-39280D02*
X85992Y-39052D01*
X86164Y-38880D02*
X85935Y-39109D01*
X89511Y-40280D02*
X89378Y-40090D01*
X89283Y-40280D02*
X89283Y-39880D01*
X89435Y-39880D01*
X89473Y-39900D01*
X89492Y-39919D01*
X89511Y-39957D01*
X89511Y-40014D01*
X89492Y-40052D01*
X89473Y-40071D01*
X89435Y-40090D01*
X89283Y-40090D01*
X89626Y-39880D02*
X89759Y-40280D01*
X89892Y-39880D01*
X90083Y-40052D02*
X90045Y-40033D01*
X90026Y-40014D01*
X90007Y-39976D01*
X90007Y-39957D01*
X90026Y-39919D01*
X90045Y-39900D01*
X90083Y-39880D01*
X90159Y-39880D01*
X90197Y-39900D01*
X90216Y-39919D01*
X90235Y-39957D01*
X90235Y-39976D01*
X90216Y-40014D01*
X90197Y-40033D01*
X90159Y-40052D01*
X90083Y-40052D01*
X90045Y-40071D01*
X90026Y-40090D01*
X90007Y-40128D01*
X90007Y-40204D01*
X90026Y-40242D01*
X90045Y-40261D01*
X90083Y-40280D01*
X90159Y-40280D01*
X90197Y-40261D01*
X90216Y-40242D01*
X90235Y-40204D01*
X90235Y-40128D01*
X90216Y-40090D01*
X90197Y-40071D01*
X90159Y-40052D01*
X88745Y-38880D02*
X88554Y-38880D01*
X88535Y-39071D01*
X88554Y-39052D01*
X88592Y-39033D01*
X88688Y-39033D01*
X88726Y-39052D01*
X88745Y-39071D01*
X88764Y-39109D01*
X88764Y-39204D01*
X88745Y-39242D01*
X88726Y-39261D01*
X88688Y-39280D01*
X88592Y-39280D01*
X88554Y-39261D01*
X88535Y-39242D01*
X88935Y-39280D02*
X88935Y-38880D01*
X89164Y-39280D02*
X88992Y-39052D01*
X89164Y-38880D02*
X88935Y-39109D01*
X92511Y-40280D02*
X92378Y-40090D01*
X92283Y-40280D02*
X92283Y-39880D01*
X92435Y-39880D01*
X92473Y-39900D01*
X92492Y-39919D01*
X92511Y-39957D01*
X92511Y-40014D01*
X92492Y-40052D01*
X92473Y-40071D01*
X92435Y-40090D01*
X92283Y-40090D01*
X92626Y-39880D02*
X92759Y-40280D01*
X92892Y-39880D01*
X93045Y-40280D02*
X93121Y-40280D01*
X93159Y-40261D01*
X93178Y-40242D01*
X93216Y-40185D01*
X93235Y-40109D01*
X93235Y-39957D01*
X93216Y-39919D01*
X93197Y-39900D01*
X93159Y-39880D01*
X93083Y-39880D01*
X93045Y-39900D01*
X93026Y-39919D01*
X93007Y-39957D01*
X93007Y-40052D01*
X93026Y-40090D01*
X93045Y-40109D01*
X93083Y-40128D01*
X93159Y-40128D01*
X93197Y-40109D01*
X93216Y-40090D01*
X93235Y-40052D01*
X91485Y-38919D02*
X91504Y-38900D01*
X91542Y-38880D01*
X91638Y-38880D01*
X91676Y-38900D01*
X91695Y-38919D01*
X91714Y-38957D01*
X91714Y-38995D01*
X91695Y-39052D01*
X91466Y-39280D01*
X91714Y-39280D01*
X91885Y-39280D02*
X91885Y-38880D01*
X92114Y-39280D02*
X91942Y-39052D01*
X92114Y-38880D02*
X91885Y-39109D01*
X95321Y-40280D02*
X95188Y-40090D01*
X95092Y-40280D02*
X95092Y-39880D01*
X95245Y-39880D01*
X95283Y-39900D01*
X95302Y-39919D01*
X95321Y-39957D01*
X95321Y-40014D01*
X95302Y-40052D01*
X95283Y-40071D01*
X95245Y-40090D01*
X95092Y-40090D01*
X95435Y-39880D02*
X95569Y-40280D01*
X95702Y-39880D01*
X96045Y-40280D02*
X95816Y-40280D01*
X95930Y-40280D02*
X95930Y-39880D01*
X95892Y-39938D01*
X95854Y-39976D01*
X95816Y-39995D01*
X96292Y-39880D02*
X96330Y-39880D01*
X96369Y-39900D01*
X96388Y-39919D01*
X96407Y-39957D01*
X96426Y-40033D01*
X96426Y-40128D01*
X96407Y-40204D01*
X96388Y-40242D01*
X96369Y-40261D01*
X96330Y-40280D01*
X96292Y-40280D01*
X96254Y-40261D01*
X96235Y-40242D01*
X96216Y-40204D01*
X96197Y-40128D01*
X96197Y-40033D01*
X96216Y-39957D01*
X96235Y-39919D01*
X96254Y-39900D01*
X96292Y-39880D01*
X94485Y-38919D02*
X94504Y-38900D01*
X94542Y-38880D01*
X94638Y-38880D01*
X94676Y-38900D01*
X94695Y-38919D01*
X94714Y-38957D01*
X94714Y-38995D01*
X94695Y-39052D01*
X94466Y-39280D01*
X94714Y-39280D01*
X94885Y-39280D02*
X94885Y-38880D01*
X95114Y-39280D02*
X94942Y-39052D01*
X95114Y-38880D02*
X94885Y-39109D01*
X112745Y-37280D02*
X112745Y-37604D01*
X112764Y-37642D01*
X112783Y-37661D01*
X112821Y-37680D01*
X112897Y-37680D01*
X112935Y-37661D01*
X112954Y-37642D01*
X112973Y-37604D01*
X112973Y-37280D01*
X113126Y-37280D02*
X113392Y-37280D01*
X113221Y-37680D01*
X99245Y-41680D02*
X99245Y-42004D01*
X99264Y-42042D01*
X99283Y-42061D01*
X99321Y-42080D01*
X99397Y-42080D01*
X99435Y-42061D01*
X99454Y-42042D01*
X99473Y-42004D01*
X99473Y-41680D01*
X99835Y-41680D02*
X99759Y-41680D01*
X99721Y-41700D01*
X99702Y-41719D01*
X99664Y-41776D01*
X99645Y-41852D01*
X99645Y-42004D01*
X99664Y-42042D01*
X99683Y-42061D01*
X99721Y-42080D01*
X99797Y-42080D01*
X99835Y-42061D01*
X99854Y-42042D01*
X99873Y-42004D01*
X99873Y-41909D01*
X99854Y-41871D01*
X99835Y-41852D01*
X99797Y-41833D01*
X99721Y-41833D01*
X99683Y-41852D01*
X99664Y-41871D01*
X99645Y-41909D01*
X92745Y-41680D02*
X92745Y-42004D01*
X92764Y-42042D01*
X92783Y-42061D01*
X92821Y-42080D01*
X92897Y-42080D01*
X92935Y-42061D01*
X92954Y-42042D01*
X92973Y-42004D01*
X92973Y-41680D01*
X93354Y-41680D02*
X93164Y-41680D01*
X93145Y-41871D01*
X93164Y-41852D01*
X93202Y-41833D01*
X93297Y-41833D01*
X93335Y-41852D01*
X93354Y-41871D01*
X93373Y-41909D01*
X93373Y-42004D01*
X93354Y-42042D01*
X93335Y-42061D01*
X93297Y-42080D01*
X93202Y-42080D01*
X93164Y-42061D01*
X93145Y-42042D01*
X78114Y-35980D02*
X78114Y-35580D01*
X78209Y-35580D01*
X78266Y-35600D01*
X78304Y-35638D01*
X78323Y-35676D01*
X78342Y-35752D01*
X78342Y-35809D01*
X78323Y-35885D01*
X78304Y-35923D01*
X78266Y-35961D01*
X78209Y-35980D01*
X78114Y-35980D01*
X78514Y-35980D02*
X78514Y-35580D01*
X78609Y-35580D01*
X78666Y-35600D01*
X78704Y-35638D01*
X78723Y-35676D01*
X78742Y-35752D01*
X78742Y-35809D01*
X78723Y-35885D01*
X78704Y-35923D01*
X78666Y-35961D01*
X78609Y-35980D01*
X78514Y-35980D01*
X78895Y-35961D02*
X78952Y-35980D01*
X79047Y-35980D01*
X79085Y-35961D01*
X79104Y-35942D01*
X79123Y-35904D01*
X79123Y-35866D01*
X79104Y-35828D01*
X79085Y-35809D01*
X79047Y-35790D01*
X78971Y-35771D01*
X78933Y-35752D01*
X78914Y-35733D01*
X78895Y-35695D01*
X78895Y-35657D01*
X78914Y-35619D01*
X78933Y-35600D01*
X78971Y-35580D01*
X79066Y-35580D01*
X79123Y-35600D01*
X79504Y-35980D02*
X79276Y-35980D01*
X79390Y-35980D02*
X79390Y-35580D01*
X79352Y-35638D01*
X79314Y-35676D01*
X79276Y-35695D01*
X80295Y-48730D02*
X80295Y-49054D01*
X80314Y-49092D01*
X80333Y-49111D01*
X80371Y-49130D01*
X80447Y-49130D01*
X80485Y-49111D01*
X80504Y-49092D01*
X80523Y-49054D01*
X80523Y-48730D01*
X80885Y-48864D02*
X80885Y-49130D01*
X80790Y-48711D02*
X80695Y-48997D01*
X80942Y-48997D01*
X85245Y-40530D02*
X85245Y-40854D01*
X85264Y-40892D01*
X85283Y-40911D01*
X85321Y-40930D01*
X85397Y-40930D01*
X85435Y-40911D01*
X85454Y-40892D01*
X85473Y-40854D01*
X85473Y-40530D01*
X85626Y-40530D02*
X85873Y-40530D01*
X85740Y-40683D01*
X85797Y-40683D01*
X85835Y-40702D01*
X85854Y-40721D01*
X85873Y-40759D01*
X85873Y-40854D01*
X85854Y-40892D01*
X85835Y-40911D01*
X85797Y-40930D01*
X85683Y-40930D01*
X85645Y-40911D01*
X85626Y-40892D01*
X77745Y-45530D02*
X77745Y-45854D01*
X77764Y-45892D01*
X77783Y-45911D01*
X77821Y-45930D01*
X77897Y-45930D01*
X77935Y-45911D01*
X77954Y-45892D01*
X77973Y-45854D01*
X77973Y-45530D01*
X78145Y-45569D02*
X78164Y-45550D01*
X78202Y-45530D01*
X78297Y-45530D01*
X78335Y-45550D01*
X78354Y-45569D01*
X78373Y-45607D01*
X78373Y-45645D01*
X78354Y-45702D01*
X78126Y-45930D01*
X78373Y-45930D01*
M02*
