G04 (created by PCBNEW (2013-mar-13)-testing) date Fri 28 Mar 2014 08:54:36 PM PDT*
%MOIN*%
G04 Gerber Fmt 3.4, Leading zero omitted, Abs format*
%FSLAX34Y34*%
G01*
G70*
G90*
G04 APERTURE LIST*
%ADD10C,0.005906*%
%ADD11C,0.040000*%
%ADD12R,0.064961X0.064961*%
%ADD13C,0.064961*%
%ADD14C,0.148000*%
%ADD15C,0.110236*%
%ADD16C,0.032000*%
%ADD17C,0.050000*%
%ADD18C,0.016000*%
%ADD19C,0.014000*%
%ADD20C,0.010000*%
%ADD21C,0.020000*%
%ADD22C,0.001000*%
G04 APERTURE END LIST*
G54D10*
G54D11*
X69500Y-55250D03*
X69500Y-54250D03*
X70500Y-55250D03*
X70500Y-54250D03*
X71500Y-55250D03*
X71500Y-54250D03*
X72500Y-55250D03*
X72500Y-54250D03*
X73500Y-55250D03*
X73500Y-54250D03*
X74500Y-55250D03*
X74500Y-54250D03*
X75500Y-55250D03*
X75500Y-54250D03*
X76500Y-55250D03*
X76500Y-54250D03*
X77500Y-55250D03*
X77500Y-54250D03*
X78500Y-55250D03*
X78500Y-54250D03*
X79500Y-55250D03*
X79500Y-54250D03*
X80500Y-55250D03*
X80500Y-54250D03*
X81500Y-55250D03*
X81500Y-54250D03*
X82500Y-55250D03*
X82500Y-54250D03*
X83500Y-55250D03*
X83500Y-54250D03*
X84500Y-55250D03*
X84500Y-54250D03*
X85500Y-55250D03*
X85500Y-54250D03*
X86500Y-55250D03*
X86500Y-54250D03*
X87500Y-55250D03*
X87500Y-54250D03*
X88500Y-55250D03*
X88500Y-54250D03*
X89500Y-55250D03*
X89500Y-54250D03*
X90500Y-55250D03*
X90500Y-54250D03*
X91500Y-55250D03*
X91500Y-54250D03*
X92500Y-55250D03*
X92500Y-54250D03*
X93500Y-55250D03*
X93500Y-54250D03*
G54D12*
X101000Y-42500D03*
G54D13*
X101000Y-43500D03*
X102000Y-42500D03*
X102000Y-43500D03*
X103000Y-42500D03*
X103000Y-43500D03*
X104000Y-42500D03*
X104000Y-43500D03*
X105000Y-42500D03*
X105000Y-43500D03*
G54D12*
X113000Y-42500D03*
G54D13*
X113000Y-43500D03*
X114000Y-42500D03*
X114000Y-43500D03*
X115000Y-42500D03*
X115000Y-43500D03*
X116000Y-42500D03*
X116000Y-43500D03*
X117000Y-42500D03*
X117000Y-43500D03*
G54D12*
X108000Y-42500D03*
G54D13*
X109000Y-42500D03*
X108000Y-43500D03*
X109000Y-43500D03*
X110000Y-42500D03*
X110000Y-43500D03*
G54D12*
X118500Y-38750D03*
G54D13*
X118500Y-39750D03*
X119500Y-38750D03*
X119500Y-39750D03*
G54D12*
X118500Y-46250D03*
G54D13*
X118500Y-47250D03*
X119500Y-46250D03*
X119500Y-47250D03*
G54D14*
X102950Y-29790D03*
X105050Y-29790D03*
X120050Y-56210D03*
X117950Y-56210D03*
X110050Y-56210D03*
X107950Y-56210D03*
X105050Y-56210D03*
X102950Y-56210D03*
X117950Y-29790D03*
X120050Y-29790D03*
X112950Y-29790D03*
X115050Y-29790D03*
X115050Y-56210D03*
X112950Y-56210D03*
X107950Y-29790D03*
X110050Y-29790D03*
G54D15*
X71250Y-27244D03*
X71250Y-25000D03*
X71250Y-22755D03*
X73415Y-27244D03*
X73415Y-25000D03*
X73415Y-22755D03*
G54D16*
X78400Y-29600D03*
X78000Y-30050D03*
X77950Y-49050D03*
X75950Y-49950D03*
X76650Y-49950D03*
X77050Y-49600D03*
X77400Y-49200D03*
X92800Y-40650D03*
X92950Y-41250D03*
X93300Y-44200D03*
X93300Y-44900D03*
X78500Y-37900D03*
X79100Y-38500D03*
X79450Y-38900D03*
X78500Y-36400D03*
X78150Y-36800D03*
X77750Y-37150D03*
X78150Y-37500D03*
X81025Y-36325D03*
X80050Y-35300D03*
X81250Y-36750D03*
X99850Y-43000D03*
X99400Y-42700D03*
X99400Y-44750D03*
X99400Y-43300D03*
X113150Y-36450D03*
X113150Y-36900D03*
G54D17*
X113150Y-39850D03*
X113150Y-40500D03*
X117450Y-46750D03*
X116650Y-47250D03*
X116650Y-46250D03*
G54D11*
X69800Y-25750D03*
X69300Y-25000D03*
X69800Y-24250D03*
G54D17*
X121250Y-51850D03*
X121200Y-49200D03*
X121800Y-42450D03*
X121950Y-31450D03*
X122550Y-28750D03*
X97500Y-29050D03*
X87850Y-32200D03*
X90900Y-32400D03*
X90650Y-29700D03*
X65700Y-51050D03*
X72300Y-50750D03*
X74350Y-50800D03*
X94800Y-56350D03*
X96250Y-54300D03*
X97600Y-56150D03*
X99850Y-56050D03*
X92100Y-50750D03*
X93100Y-50750D03*
X78550Y-23550D03*
X89950Y-35000D03*
X89200Y-35700D03*
X92300Y-35700D03*
X93000Y-35000D03*
X86950Y-35000D03*
X86250Y-35700D03*
X87250Y-51250D03*
X89950Y-50750D03*
X94150Y-46750D03*
X75250Y-34900D03*
X69150Y-34550D03*
X75250Y-39100D03*
X72050Y-41100D03*
X72050Y-33450D03*
X75900Y-27450D03*
X84000Y-36600D03*
X80450Y-48050D03*
X80450Y-47100D03*
X72400Y-46000D03*
X73150Y-44900D03*
X72450Y-43550D03*
X72800Y-46900D03*
X96550Y-42850D03*
X95100Y-43300D03*
X95100Y-42050D03*
X104250Y-48650D03*
X105200Y-48800D03*
X105200Y-48000D03*
X90050Y-43200D03*
X89050Y-43200D03*
X89600Y-42550D03*
G54D11*
X82700Y-39050D03*
X83350Y-39700D03*
G54D17*
X100200Y-37800D03*
X99750Y-38450D03*
X99750Y-37200D03*
X113250Y-38250D03*
X114050Y-37850D03*
X114050Y-38650D03*
X83250Y-32050D03*
X81800Y-32450D03*
X82650Y-30900D03*
X81350Y-30350D03*
X120400Y-39250D03*
X121100Y-39750D03*
X121100Y-38750D03*
G54D11*
X103600Y-49800D03*
X73400Y-30700D03*
X72500Y-29900D03*
X73400Y-29050D03*
X72500Y-28200D03*
G54D16*
X112550Y-40900D03*
X75850Y-49200D03*
X79000Y-33500D03*
X109700Y-36850D03*
X99050Y-45300D03*
X92350Y-45250D03*
X80600Y-38300D03*
X86400Y-32850D03*
X79730Y-35650D03*
G54D18*
X80025Y-37325D03*
X80025Y-36975D03*
X79675Y-37325D03*
X79675Y-36975D03*
G54D16*
X81000Y-45500D03*
G54D11*
X75150Y-25750D03*
X75650Y-25000D03*
X75150Y-24250D03*
G54D16*
X85550Y-43850D03*
X75950Y-45050D03*
X98550Y-45350D03*
X112100Y-40950D03*
X91850Y-45300D03*
X75400Y-48900D03*
G54D11*
X79650Y-30100D03*
X101050Y-53200D03*
X100850Y-50100D03*
X70650Y-21500D03*
G54D16*
X103050Y-35900D03*
G54D11*
X71850Y-21500D03*
G54D16*
X78450Y-33500D03*
X80900Y-35850D03*
X80450Y-35550D03*
G54D11*
X74450Y-21750D03*
X73700Y-21750D03*
X74450Y-22500D03*
G54D16*
X82250Y-49200D03*
X83700Y-43850D03*
X77300Y-44900D03*
X99000Y-41150D03*
X112200Y-36350D03*
X92150Y-40600D03*
G54D17*
X120300Y-46750D03*
X120950Y-46150D03*
X120950Y-47700D03*
G54D11*
X69950Y-28550D03*
X69800Y-27800D03*
G54D16*
X100950Y-45900D03*
X103550Y-38750D03*
X79850Y-39300D03*
X80250Y-38900D03*
X75200Y-45350D03*
G54D19*
X119500Y-38750D02*
X121100Y-38750D01*
G54D20*
X98550Y-45900D02*
X99100Y-45900D01*
X103600Y-45000D02*
X103750Y-44850D01*
X100000Y-45000D02*
X103600Y-45000D01*
X99100Y-45900D02*
X100000Y-45000D01*
X75150Y-28150D02*
X74800Y-28500D01*
X74400Y-43500D02*
X75150Y-44250D01*
X74400Y-31950D02*
X74400Y-43500D01*
X74800Y-31550D02*
X74400Y-31950D01*
X74800Y-28500D02*
X74800Y-31550D01*
X75150Y-25750D02*
X75150Y-28150D01*
X75150Y-44250D02*
X75950Y-45050D01*
G54D21*
X75950Y-45050D02*
X75950Y-46750D01*
X75950Y-46750D02*
X76000Y-46800D01*
X76000Y-46800D02*
X79700Y-46800D01*
X79700Y-46800D02*
X81750Y-44750D01*
X81750Y-44750D02*
X84650Y-44750D01*
X84650Y-44750D02*
X85100Y-44300D01*
X85100Y-44300D02*
X87200Y-44300D01*
X87200Y-44300D02*
X88800Y-45900D01*
X88800Y-45900D02*
X98550Y-45900D01*
X103750Y-44850D02*
X111400Y-44450D01*
X111400Y-44450D02*
X111400Y-41750D01*
X111400Y-41750D02*
X111850Y-41300D01*
G54D20*
X101050Y-53200D02*
X101050Y-57100D01*
X101050Y-57100D02*
X101400Y-57450D01*
X103050Y-35900D02*
X103050Y-35100D01*
X103050Y-35100D02*
X107150Y-31000D01*
X107150Y-31000D02*
X120400Y-31000D01*
X120400Y-31000D02*
X122950Y-33550D01*
X122950Y-33550D02*
X122950Y-55950D01*
X122950Y-55950D02*
X121450Y-57450D01*
X121450Y-57450D02*
X101400Y-57450D01*
X80900Y-35850D02*
X80900Y-35400D01*
X81300Y-32300D02*
X80750Y-31750D01*
X81300Y-35000D02*
X81300Y-32300D01*
X80900Y-35400D02*
X81300Y-35000D01*
X80450Y-35550D02*
X80450Y-35050D01*
X80450Y-35050D02*
X80750Y-34750D01*
X80750Y-34750D02*
X80750Y-31750D01*
X78450Y-33500D02*
X78450Y-32050D01*
X78750Y-31750D02*
X80750Y-31750D01*
X78450Y-32050D02*
X78750Y-31750D01*
X80750Y-31750D02*
X89850Y-22650D01*
X77250Y-19650D02*
X86850Y-19650D01*
X86850Y-19650D02*
X89850Y-22650D01*
X71250Y-21600D02*
X71250Y-20250D01*
X71850Y-19650D02*
X77250Y-19650D01*
X71250Y-20250D02*
X71850Y-19650D01*
X71250Y-21600D02*
X71250Y-22755D01*
X89850Y-22650D02*
X95000Y-27800D01*
X95000Y-27800D02*
X95000Y-30100D01*
X95000Y-30100D02*
X98800Y-33900D01*
X98800Y-33900D02*
X101250Y-33900D01*
X101250Y-33900D02*
X102100Y-34750D01*
X102100Y-34750D02*
X102100Y-35450D01*
X102100Y-35450D02*
X102550Y-35900D01*
X102550Y-35900D02*
X103050Y-35900D01*
X102000Y-41150D02*
X104050Y-41150D01*
X112050Y-36200D02*
X112200Y-36350D01*
X109000Y-36200D02*
X112050Y-36200D01*
X104050Y-41150D02*
X109000Y-36200D01*
X77300Y-44900D02*
X77300Y-44150D01*
X77300Y-44150D02*
X77600Y-43850D01*
X74450Y-21750D02*
X75100Y-21100D01*
G54D21*
X76700Y-28750D02*
X76700Y-42950D01*
X76700Y-42950D02*
X77600Y-43850D01*
G54D20*
X75100Y-21100D02*
X76450Y-21100D01*
X76450Y-21100D02*
X77650Y-22300D01*
X77650Y-22300D02*
X77650Y-27800D01*
X77650Y-27800D02*
X76700Y-28750D01*
X73415Y-22755D02*
X73444Y-22755D01*
X73444Y-22755D02*
X74450Y-21750D01*
G54D21*
X99000Y-41150D02*
X102000Y-41150D01*
X92150Y-40600D02*
X92150Y-39750D01*
X99000Y-40500D02*
X99000Y-41150D01*
X98300Y-39800D02*
X99000Y-40500D01*
X92200Y-39800D02*
X98300Y-39800D01*
X92150Y-39750D02*
X92200Y-39800D01*
X83700Y-43850D02*
X83700Y-42350D01*
X91850Y-40900D02*
X92150Y-40600D01*
X85150Y-40900D02*
X91850Y-40900D01*
X83700Y-42350D02*
X85150Y-40900D01*
X77600Y-43850D02*
X83700Y-43850D01*
G54D19*
X117300Y-37950D02*
X116850Y-38400D01*
X117550Y-41000D02*
X118000Y-41000D01*
X116850Y-40300D02*
X117550Y-41000D01*
X116850Y-38400D02*
X116850Y-40300D01*
X117300Y-33450D02*
X117300Y-37950D01*
X120500Y-43500D02*
X120500Y-43900D01*
X118000Y-41000D02*
X120500Y-43500D01*
X119500Y-47250D02*
X120500Y-47250D01*
X120500Y-47250D02*
X120950Y-47700D01*
G54D20*
X119600Y-44850D02*
X120500Y-44850D01*
X120500Y-46250D02*
X119500Y-46250D01*
X120750Y-46000D02*
X120500Y-46250D01*
X120750Y-45100D02*
X120750Y-46000D01*
X120500Y-44850D02*
X120750Y-45100D01*
X103550Y-38750D02*
X103550Y-38200D01*
X103100Y-45900D02*
X100950Y-45900D01*
X104000Y-46800D02*
X103100Y-45900D01*
X112500Y-46800D02*
X104000Y-46800D01*
X114450Y-44850D02*
X112500Y-46800D01*
X119550Y-44850D02*
X119600Y-44850D01*
X119600Y-44850D02*
X114450Y-44850D01*
X120500Y-43900D02*
X119550Y-44850D01*
X116750Y-32900D02*
X117300Y-33450D01*
X108850Y-32900D02*
X116750Y-32900D01*
X103550Y-38200D02*
X108850Y-32900D01*
G54D10*
G36*
X123845Y-57097D02*
X123097Y-57845D01*
X122905Y-57845D01*
X122905Y-28679D01*
X122851Y-28549D01*
X122751Y-28449D01*
X122620Y-28395D01*
X122479Y-28394D01*
X122349Y-28448D01*
X122249Y-28548D01*
X122195Y-28679D01*
X122194Y-28820D01*
X122248Y-28950D01*
X122348Y-29050D01*
X122479Y-29104D01*
X122620Y-29105D01*
X122750Y-29051D01*
X122850Y-28951D01*
X122904Y-28820D01*
X122905Y-28679D01*
X122905Y-57845D01*
X122305Y-57845D01*
X122305Y-31379D01*
X122251Y-31249D01*
X122151Y-31149D01*
X122020Y-31095D01*
X121879Y-31094D01*
X121749Y-31148D01*
X121649Y-31248D01*
X121595Y-31379D01*
X121594Y-31520D01*
X121648Y-31650D01*
X121748Y-31750D01*
X121879Y-31804D01*
X122020Y-31805D01*
X122150Y-31751D01*
X122250Y-31651D01*
X122304Y-31520D01*
X122305Y-31379D01*
X122305Y-57845D01*
X120895Y-57845D01*
X120895Y-56042D01*
X120766Y-55731D01*
X120529Y-55494D01*
X120218Y-55365D01*
X119882Y-55364D01*
X119571Y-55493D01*
X119334Y-55730D01*
X119205Y-56041D01*
X119204Y-56377D01*
X119333Y-56688D01*
X119570Y-56925D01*
X119881Y-57054D01*
X120217Y-57055D01*
X120528Y-56926D01*
X120765Y-56689D01*
X120894Y-56378D01*
X120895Y-56042D01*
X120895Y-57845D01*
X118795Y-57845D01*
X118795Y-56042D01*
X118666Y-55731D01*
X118429Y-55494D01*
X118118Y-55365D01*
X117782Y-55364D01*
X117471Y-55493D01*
X117234Y-55730D01*
X117105Y-56041D01*
X117104Y-56377D01*
X117233Y-56688D01*
X117470Y-56925D01*
X117781Y-57054D01*
X118117Y-57055D01*
X118428Y-56926D01*
X118665Y-56689D01*
X118794Y-56378D01*
X118795Y-56042D01*
X118795Y-57845D01*
X115895Y-57845D01*
X115895Y-56042D01*
X115766Y-55731D01*
X115529Y-55494D01*
X115218Y-55365D01*
X114882Y-55364D01*
X114571Y-55493D01*
X114334Y-55730D01*
X114205Y-56041D01*
X114204Y-56377D01*
X114333Y-56688D01*
X114570Y-56925D01*
X114881Y-57054D01*
X115217Y-57055D01*
X115528Y-56926D01*
X115765Y-56689D01*
X115894Y-56378D01*
X115895Y-56042D01*
X115895Y-57845D01*
X113795Y-57845D01*
X113795Y-56042D01*
X113666Y-55731D01*
X113429Y-55494D01*
X113118Y-55365D01*
X112782Y-55364D01*
X112471Y-55493D01*
X112234Y-55730D01*
X112105Y-56041D01*
X112104Y-56377D01*
X112233Y-56688D01*
X112470Y-56925D01*
X112781Y-57054D01*
X113117Y-57055D01*
X113428Y-56926D01*
X113665Y-56689D01*
X113794Y-56378D01*
X113795Y-56042D01*
X113795Y-57845D01*
X110895Y-57845D01*
X110895Y-56042D01*
X110766Y-55731D01*
X110529Y-55494D01*
X110218Y-55365D01*
X109882Y-55364D01*
X109571Y-55493D01*
X109334Y-55730D01*
X109205Y-56041D01*
X109204Y-56377D01*
X109333Y-56688D01*
X109570Y-56925D01*
X109881Y-57054D01*
X110217Y-57055D01*
X110528Y-56926D01*
X110765Y-56689D01*
X110894Y-56378D01*
X110895Y-56042D01*
X110895Y-57845D01*
X108795Y-57845D01*
X108795Y-56042D01*
X108666Y-55731D01*
X108429Y-55494D01*
X108118Y-55365D01*
X107782Y-55364D01*
X107471Y-55493D01*
X107234Y-55730D01*
X107105Y-56041D01*
X107104Y-56377D01*
X107233Y-56688D01*
X107470Y-56925D01*
X107781Y-57054D01*
X108117Y-57055D01*
X108428Y-56926D01*
X108665Y-56689D01*
X108794Y-56378D01*
X108795Y-56042D01*
X108795Y-57845D01*
X105895Y-57845D01*
X105895Y-56042D01*
X105766Y-55731D01*
X105529Y-55494D01*
X105218Y-55365D01*
X104882Y-55364D01*
X104571Y-55493D01*
X104334Y-55730D01*
X104205Y-56041D01*
X104204Y-56377D01*
X104333Y-56688D01*
X104570Y-56925D01*
X104881Y-57054D01*
X105217Y-57055D01*
X105528Y-56926D01*
X105765Y-56689D01*
X105894Y-56378D01*
X105895Y-56042D01*
X105895Y-57845D01*
X103795Y-57845D01*
X103795Y-56042D01*
X103666Y-55731D01*
X103429Y-55494D01*
X103118Y-55365D01*
X102782Y-55364D01*
X102471Y-55493D01*
X102234Y-55730D01*
X102105Y-56041D01*
X102104Y-56377D01*
X102233Y-56688D01*
X102470Y-56925D01*
X102781Y-57054D01*
X103117Y-57055D01*
X103428Y-56926D01*
X103665Y-56689D01*
X103794Y-56378D01*
X103795Y-56042D01*
X103795Y-57845D01*
X101552Y-57845D01*
X100855Y-57147D01*
X100855Y-53552D01*
X101002Y-53405D01*
X101098Y-53405D01*
X101195Y-53453D01*
X101195Y-53602D01*
X101597Y-54005D01*
X121852Y-54005D01*
X122055Y-53802D01*
X122055Y-50928D01*
X122089Y-50894D01*
X122195Y-50638D01*
X122195Y-50362D01*
X122195Y-35362D01*
X122090Y-35106D01*
X121894Y-34910D01*
X121638Y-34804D01*
X121362Y-34804D01*
X121106Y-34909D01*
X120910Y-35105D01*
X120895Y-35142D01*
X120895Y-29622D01*
X120766Y-29311D01*
X120529Y-29074D01*
X120218Y-28945D01*
X119882Y-28944D01*
X119571Y-29073D01*
X119334Y-29310D01*
X119205Y-29621D01*
X119204Y-29957D01*
X119333Y-30268D01*
X119570Y-30505D01*
X119881Y-30634D01*
X120217Y-30635D01*
X120528Y-30506D01*
X120765Y-30269D01*
X120894Y-29958D01*
X120895Y-29622D01*
X120895Y-35142D01*
X120804Y-35361D01*
X120804Y-35637D01*
X120909Y-35893D01*
X121105Y-36089D01*
X121361Y-36195D01*
X121637Y-36195D01*
X121893Y-36090D01*
X122089Y-35894D01*
X122195Y-35638D01*
X122195Y-35362D01*
X122195Y-50362D01*
X122090Y-50106D01*
X122055Y-50071D01*
X122055Y-42697D01*
X122100Y-42651D01*
X122154Y-42520D01*
X122155Y-42379D01*
X122101Y-42249D01*
X122055Y-42202D01*
X122055Y-37097D01*
X118795Y-33838D01*
X118795Y-29622D01*
X118666Y-29311D01*
X118429Y-29074D01*
X118118Y-28945D01*
X117782Y-28944D01*
X117471Y-29073D01*
X117234Y-29310D01*
X117105Y-29621D01*
X117104Y-29957D01*
X117233Y-30268D01*
X117470Y-30505D01*
X117781Y-30634D01*
X118117Y-30635D01*
X118428Y-30506D01*
X118665Y-30269D01*
X118794Y-29958D01*
X118795Y-29622D01*
X118795Y-33838D01*
X117552Y-32595D01*
X115895Y-32595D01*
X115895Y-29622D01*
X115766Y-29311D01*
X115529Y-29074D01*
X115218Y-28945D01*
X114882Y-28944D01*
X114571Y-29073D01*
X114334Y-29310D01*
X114205Y-29621D01*
X114204Y-29957D01*
X114333Y-30268D01*
X114570Y-30505D01*
X114881Y-30634D01*
X115217Y-30635D01*
X115528Y-30506D01*
X115765Y-30269D01*
X115894Y-29958D01*
X115895Y-29622D01*
X115895Y-32595D01*
X113795Y-32595D01*
X113795Y-29622D01*
X113666Y-29311D01*
X113429Y-29074D01*
X113118Y-28945D01*
X112782Y-28944D01*
X112471Y-29073D01*
X112234Y-29310D01*
X112105Y-29621D01*
X112104Y-29957D01*
X112233Y-30268D01*
X112470Y-30505D01*
X112781Y-30634D01*
X113117Y-30635D01*
X113428Y-30506D01*
X113665Y-30269D01*
X113794Y-29958D01*
X113795Y-29622D01*
X113795Y-32595D01*
X110895Y-32595D01*
X110895Y-29622D01*
X110766Y-29311D01*
X110529Y-29074D01*
X110218Y-28945D01*
X109882Y-28944D01*
X109571Y-29073D01*
X109334Y-29310D01*
X109205Y-29621D01*
X109204Y-29957D01*
X109333Y-30268D01*
X109570Y-30505D01*
X109881Y-30634D01*
X110217Y-30635D01*
X110528Y-30506D01*
X110765Y-30269D01*
X110894Y-29958D01*
X110895Y-29622D01*
X110895Y-32595D01*
X108795Y-32595D01*
X108795Y-29622D01*
X108666Y-29311D01*
X108429Y-29074D01*
X108118Y-28945D01*
X107782Y-28944D01*
X107471Y-29073D01*
X107234Y-29310D01*
X107105Y-29621D01*
X107104Y-29957D01*
X107233Y-30268D01*
X107470Y-30505D01*
X107781Y-30634D01*
X108117Y-30635D01*
X108428Y-30506D01*
X108665Y-30269D01*
X108794Y-29958D01*
X108795Y-29622D01*
X108795Y-32595D01*
X108197Y-32595D01*
X105895Y-34897D01*
X105895Y-29622D01*
X105766Y-29311D01*
X105529Y-29074D01*
X105218Y-28945D01*
X104882Y-28944D01*
X104571Y-29073D01*
X104334Y-29310D01*
X104205Y-29621D01*
X104204Y-29957D01*
X104333Y-30268D01*
X104570Y-30505D01*
X104881Y-30634D01*
X105217Y-30635D01*
X105528Y-30506D01*
X105765Y-30269D01*
X105894Y-29958D01*
X105895Y-29622D01*
X105895Y-34897D01*
X104697Y-36095D01*
X103795Y-36095D01*
X103795Y-29622D01*
X103666Y-29311D01*
X103429Y-29074D01*
X103118Y-28945D01*
X102782Y-28944D01*
X102471Y-29073D01*
X102234Y-29310D01*
X102105Y-29621D01*
X102104Y-29957D01*
X102233Y-30268D01*
X102470Y-30505D01*
X102781Y-30634D01*
X103117Y-30635D01*
X103428Y-30506D01*
X103665Y-30269D01*
X103794Y-29958D01*
X103795Y-29622D01*
X103795Y-36095D01*
X103397Y-36095D01*
X103197Y-36295D01*
X97855Y-36295D01*
X97855Y-28979D01*
X97801Y-28849D01*
X97701Y-28749D01*
X97570Y-28695D01*
X97429Y-28694D01*
X97299Y-28748D01*
X97199Y-28848D01*
X97145Y-28979D01*
X97144Y-29120D01*
X97198Y-29250D01*
X97298Y-29350D01*
X97429Y-29404D01*
X97570Y-29405D01*
X97700Y-29351D01*
X97800Y-29251D01*
X97854Y-29120D01*
X97855Y-28979D01*
X97855Y-36295D01*
X97195Y-36295D01*
X97195Y-35362D01*
X97090Y-35106D01*
X96894Y-34910D01*
X96638Y-34804D01*
X96362Y-34804D01*
X96106Y-34909D01*
X95910Y-35105D01*
X95804Y-35361D01*
X95804Y-35637D01*
X95909Y-35893D01*
X96105Y-36089D01*
X96361Y-36195D01*
X96637Y-36195D01*
X96893Y-36090D01*
X97089Y-35894D01*
X97195Y-35638D01*
X97195Y-35362D01*
X97195Y-36295D01*
X95352Y-36295D01*
X95255Y-36197D01*
X95255Y-34247D01*
X95052Y-34045D01*
X92452Y-34045D01*
X91505Y-33097D01*
X91505Y-29297D01*
X91002Y-28795D01*
X83797Y-28795D01*
X83095Y-29497D01*
X83095Y-31729D01*
X83049Y-31748D01*
X83005Y-31792D01*
X83005Y-30829D01*
X82951Y-30699D01*
X82851Y-30599D01*
X82720Y-30545D01*
X82579Y-30544D01*
X82449Y-30598D01*
X82349Y-30698D01*
X82295Y-30829D01*
X82294Y-30970D01*
X82348Y-31100D01*
X82448Y-31200D01*
X82579Y-31254D01*
X82720Y-31255D01*
X82850Y-31201D01*
X82950Y-31101D01*
X83004Y-30970D01*
X83005Y-30829D01*
X83005Y-31792D01*
X82949Y-31848D01*
X82895Y-31979D01*
X82894Y-32120D01*
X82948Y-32250D01*
X83048Y-32350D01*
X83095Y-32370D01*
X83095Y-34097D01*
X82155Y-35037D01*
X82155Y-32379D01*
X82101Y-32249D01*
X82001Y-32149D01*
X81870Y-32095D01*
X81729Y-32094D01*
X81705Y-32105D01*
X81705Y-30279D01*
X81651Y-30149D01*
X81551Y-30049D01*
X81420Y-29995D01*
X81279Y-29994D01*
X81149Y-30048D01*
X81049Y-30148D01*
X80995Y-30279D01*
X80994Y-30420D01*
X81048Y-30550D01*
X81148Y-30650D01*
X81279Y-30704D01*
X81420Y-30705D01*
X81550Y-30651D01*
X81650Y-30551D01*
X81704Y-30420D01*
X81705Y-30279D01*
X81705Y-32105D01*
X81599Y-32148D01*
X81499Y-32248D01*
X81445Y-32379D01*
X81444Y-32520D01*
X81498Y-32650D01*
X81598Y-32750D01*
X81729Y-32804D01*
X81870Y-32805D01*
X82000Y-32751D01*
X82100Y-32651D01*
X82154Y-32520D01*
X82155Y-32379D01*
X82155Y-35037D01*
X81097Y-36095D01*
X80702Y-36095D01*
X80206Y-35599D01*
X80605Y-34801D01*
X80605Y-34397D01*
X80402Y-34195D01*
X79265Y-34195D01*
X79265Y-33447D01*
X79224Y-33350D01*
X79150Y-33275D01*
X79052Y-33235D01*
X78947Y-33234D01*
X78850Y-33275D01*
X78775Y-33349D01*
X78735Y-33447D01*
X78734Y-33552D01*
X78775Y-33649D01*
X78849Y-33724D01*
X78947Y-33764D01*
X79052Y-33765D01*
X79149Y-33724D01*
X79224Y-33650D01*
X79264Y-33552D01*
X79265Y-33447D01*
X79265Y-34195D01*
X78402Y-34195D01*
X78205Y-33997D01*
X78205Y-32002D01*
X79205Y-31002D01*
X79205Y-29397D01*
X78805Y-28997D01*
X78805Y-23797D01*
X78850Y-23751D01*
X78904Y-23620D01*
X78905Y-23479D01*
X78851Y-23349D01*
X78805Y-23302D01*
X78805Y-22397D01*
X76802Y-20395D01*
X73247Y-20395D01*
X72545Y-21097D01*
X72545Y-21647D01*
X72145Y-22047D01*
X72145Y-23147D01*
X71697Y-23595D01*
X70802Y-23595D01*
X70355Y-23147D01*
X70355Y-22047D01*
X69955Y-21647D01*
X69955Y-20852D01*
X71702Y-19105D01*
X94197Y-19105D01*
X95945Y-20852D01*
X95945Y-27552D01*
X96447Y-28055D01*
X122847Y-28055D01*
X123845Y-29052D01*
X123845Y-57097D01*
X123845Y-57097D01*
G37*
G54D22*
X123845Y-57097D02*
X123097Y-57845D01*
X122905Y-57845D01*
X122905Y-28679D01*
X122851Y-28549D01*
X122751Y-28449D01*
X122620Y-28395D01*
X122479Y-28394D01*
X122349Y-28448D01*
X122249Y-28548D01*
X122195Y-28679D01*
X122194Y-28820D01*
X122248Y-28950D01*
X122348Y-29050D01*
X122479Y-29104D01*
X122620Y-29105D01*
X122750Y-29051D01*
X122850Y-28951D01*
X122904Y-28820D01*
X122905Y-28679D01*
X122905Y-57845D01*
X122305Y-57845D01*
X122305Y-31379D01*
X122251Y-31249D01*
X122151Y-31149D01*
X122020Y-31095D01*
X121879Y-31094D01*
X121749Y-31148D01*
X121649Y-31248D01*
X121595Y-31379D01*
X121594Y-31520D01*
X121648Y-31650D01*
X121748Y-31750D01*
X121879Y-31804D01*
X122020Y-31805D01*
X122150Y-31751D01*
X122250Y-31651D01*
X122304Y-31520D01*
X122305Y-31379D01*
X122305Y-57845D01*
X120895Y-57845D01*
X120895Y-56042D01*
X120766Y-55731D01*
X120529Y-55494D01*
X120218Y-55365D01*
X119882Y-55364D01*
X119571Y-55493D01*
X119334Y-55730D01*
X119205Y-56041D01*
X119204Y-56377D01*
X119333Y-56688D01*
X119570Y-56925D01*
X119881Y-57054D01*
X120217Y-57055D01*
X120528Y-56926D01*
X120765Y-56689D01*
X120894Y-56378D01*
X120895Y-56042D01*
X120895Y-57845D01*
X118795Y-57845D01*
X118795Y-56042D01*
X118666Y-55731D01*
X118429Y-55494D01*
X118118Y-55365D01*
X117782Y-55364D01*
X117471Y-55493D01*
X117234Y-55730D01*
X117105Y-56041D01*
X117104Y-56377D01*
X117233Y-56688D01*
X117470Y-56925D01*
X117781Y-57054D01*
X118117Y-57055D01*
X118428Y-56926D01*
X118665Y-56689D01*
X118794Y-56378D01*
X118795Y-56042D01*
X118795Y-57845D01*
X115895Y-57845D01*
X115895Y-56042D01*
X115766Y-55731D01*
X115529Y-55494D01*
X115218Y-55365D01*
X114882Y-55364D01*
X114571Y-55493D01*
X114334Y-55730D01*
X114205Y-56041D01*
X114204Y-56377D01*
X114333Y-56688D01*
X114570Y-56925D01*
X114881Y-57054D01*
X115217Y-57055D01*
X115528Y-56926D01*
X115765Y-56689D01*
X115894Y-56378D01*
X115895Y-56042D01*
X115895Y-57845D01*
X113795Y-57845D01*
X113795Y-56042D01*
X113666Y-55731D01*
X113429Y-55494D01*
X113118Y-55365D01*
X112782Y-55364D01*
X112471Y-55493D01*
X112234Y-55730D01*
X112105Y-56041D01*
X112104Y-56377D01*
X112233Y-56688D01*
X112470Y-56925D01*
X112781Y-57054D01*
X113117Y-57055D01*
X113428Y-56926D01*
X113665Y-56689D01*
X113794Y-56378D01*
X113795Y-56042D01*
X113795Y-57845D01*
X110895Y-57845D01*
X110895Y-56042D01*
X110766Y-55731D01*
X110529Y-55494D01*
X110218Y-55365D01*
X109882Y-55364D01*
X109571Y-55493D01*
X109334Y-55730D01*
X109205Y-56041D01*
X109204Y-56377D01*
X109333Y-56688D01*
X109570Y-56925D01*
X109881Y-57054D01*
X110217Y-57055D01*
X110528Y-56926D01*
X110765Y-56689D01*
X110894Y-56378D01*
X110895Y-56042D01*
X110895Y-57845D01*
X108795Y-57845D01*
X108795Y-56042D01*
X108666Y-55731D01*
X108429Y-55494D01*
X108118Y-55365D01*
X107782Y-55364D01*
X107471Y-55493D01*
X107234Y-55730D01*
X107105Y-56041D01*
X107104Y-56377D01*
X107233Y-56688D01*
X107470Y-56925D01*
X107781Y-57054D01*
X108117Y-57055D01*
X108428Y-56926D01*
X108665Y-56689D01*
X108794Y-56378D01*
X108795Y-56042D01*
X108795Y-57845D01*
X105895Y-57845D01*
X105895Y-56042D01*
X105766Y-55731D01*
X105529Y-55494D01*
X105218Y-55365D01*
X104882Y-55364D01*
X104571Y-55493D01*
X104334Y-55730D01*
X104205Y-56041D01*
X104204Y-56377D01*
X104333Y-56688D01*
X104570Y-56925D01*
X104881Y-57054D01*
X105217Y-57055D01*
X105528Y-56926D01*
X105765Y-56689D01*
X105894Y-56378D01*
X105895Y-56042D01*
X105895Y-57845D01*
X103795Y-57845D01*
X103795Y-56042D01*
X103666Y-55731D01*
X103429Y-55494D01*
X103118Y-55365D01*
X102782Y-55364D01*
X102471Y-55493D01*
X102234Y-55730D01*
X102105Y-56041D01*
X102104Y-56377D01*
X102233Y-56688D01*
X102470Y-56925D01*
X102781Y-57054D01*
X103117Y-57055D01*
X103428Y-56926D01*
X103665Y-56689D01*
X103794Y-56378D01*
X103795Y-56042D01*
X103795Y-57845D01*
X101552Y-57845D01*
X100855Y-57147D01*
X100855Y-53552D01*
X101002Y-53405D01*
X101098Y-53405D01*
X101195Y-53453D01*
X101195Y-53602D01*
X101597Y-54005D01*
X121852Y-54005D01*
X122055Y-53802D01*
X122055Y-50928D01*
X122089Y-50894D01*
X122195Y-50638D01*
X122195Y-50362D01*
X122195Y-35362D01*
X122090Y-35106D01*
X121894Y-34910D01*
X121638Y-34804D01*
X121362Y-34804D01*
X121106Y-34909D01*
X120910Y-35105D01*
X120895Y-35142D01*
X120895Y-29622D01*
X120766Y-29311D01*
X120529Y-29074D01*
X120218Y-28945D01*
X119882Y-28944D01*
X119571Y-29073D01*
X119334Y-29310D01*
X119205Y-29621D01*
X119204Y-29957D01*
X119333Y-30268D01*
X119570Y-30505D01*
X119881Y-30634D01*
X120217Y-30635D01*
X120528Y-30506D01*
X120765Y-30269D01*
X120894Y-29958D01*
X120895Y-29622D01*
X120895Y-35142D01*
X120804Y-35361D01*
X120804Y-35637D01*
X120909Y-35893D01*
X121105Y-36089D01*
X121361Y-36195D01*
X121637Y-36195D01*
X121893Y-36090D01*
X122089Y-35894D01*
X122195Y-35638D01*
X122195Y-35362D01*
X122195Y-50362D01*
X122090Y-50106D01*
X122055Y-50071D01*
X122055Y-42697D01*
X122100Y-42651D01*
X122154Y-42520D01*
X122155Y-42379D01*
X122101Y-42249D01*
X122055Y-42202D01*
X122055Y-37097D01*
X118795Y-33838D01*
X118795Y-29622D01*
X118666Y-29311D01*
X118429Y-29074D01*
X118118Y-28945D01*
X117782Y-28944D01*
X117471Y-29073D01*
X117234Y-29310D01*
X117105Y-29621D01*
X117104Y-29957D01*
X117233Y-30268D01*
X117470Y-30505D01*
X117781Y-30634D01*
X118117Y-30635D01*
X118428Y-30506D01*
X118665Y-30269D01*
X118794Y-29958D01*
X118795Y-29622D01*
X118795Y-33838D01*
X117552Y-32595D01*
X115895Y-32595D01*
X115895Y-29622D01*
X115766Y-29311D01*
X115529Y-29074D01*
X115218Y-28945D01*
X114882Y-28944D01*
X114571Y-29073D01*
X114334Y-29310D01*
X114205Y-29621D01*
X114204Y-29957D01*
X114333Y-30268D01*
X114570Y-30505D01*
X114881Y-30634D01*
X115217Y-30635D01*
X115528Y-30506D01*
X115765Y-30269D01*
X115894Y-29958D01*
X115895Y-29622D01*
X115895Y-32595D01*
X113795Y-32595D01*
X113795Y-29622D01*
X113666Y-29311D01*
X113429Y-29074D01*
X113118Y-28945D01*
X112782Y-28944D01*
X112471Y-29073D01*
X112234Y-29310D01*
X112105Y-29621D01*
X112104Y-29957D01*
X112233Y-30268D01*
X112470Y-30505D01*
X112781Y-30634D01*
X113117Y-30635D01*
X113428Y-30506D01*
X113665Y-30269D01*
X113794Y-29958D01*
X113795Y-29622D01*
X113795Y-32595D01*
X110895Y-32595D01*
X110895Y-29622D01*
X110766Y-29311D01*
X110529Y-29074D01*
X110218Y-28945D01*
X109882Y-28944D01*
X109571Y-29073D01*
X109334Y-29310D01*
X109205Y-29621D01*
X109204Y-29957D01*
X109333Y-30268D01*
X109570Y-30505D01*
X109881Y-30634D01*
X110217Y-30635D01*
X110528Y-30506D01*
X110765Y-30269D01*
X110894Y-29958D01*
X110895Y-29622D01*
X110895Y-32595D01*
X108795Y-32595D01*
X108795Y-29622D01*
X108666Y-29311D01*
X108429Y-29074D01*
X108118Y-28945D01*
X107782Y-28944D01*
X107471Y-29073D01*
X107234Y-29310D01*
X107105Y-29621D01*
X107104Y-29957D01*
X107233Y-30268D01*
X107470Y-30505D01*
X107781Y-30634D01*
X108117Y-30635D01*
X108428Y-30506D01*
X108665Y-30269D01*
X108794Y-29958D01*
X108795Y-29622D01*
X108795Y-32595D01*
X108197Y-32595D01*
X105895Y-34897D01*
X105895Y-29622D01*
X105766Y-29311D01*
X105529Y-29074D01*
X105218Y-28945D01*
X104882Y-28944D01*
X104571Y-29073D01*
X104334Y-29310D01*
X104205Y-29621D01*
X104204Y-29957D01*
X104333Y-30268D01*
X104570Y-30505D01*
X104881Y-30634D01*
X105217Y-30635D01*
X105528Y-30506D01*
X105765Y-30269D01*
X105894Y-29958D01*
X105895Y-29622D01*
X105895Y-34897D01*
X104697Y-36095D01*
X103795Y-36095D01*
X103795Y-29622D01*
X103666Y-29311D01*
X103429Y-29074D01*
X103118Y-28945D01*
X102782Y-28944D01*
X102471Y-29073D01*
X102234Y-29310D01*
X102105Y-29621D01*
X102104Y-29957D01*
X102233Y-30268D01*
X102470Y-30505D01*
X102781Y-30634D01*
X103117Y-30635D01*
X103428Y-30506D01*
X103665Y-30269D01*
X103794Y-29958D01*
X103795Y-29622D01*
X103795Y-36095D01*
X103397Y-36095D01*
X103197Y-36295D01*
X97855Y-36295D01*
X97855Y-28979D01*
X97801Y-28849D01*
X97701Y-28749D01*
X97570Y-28695D01*
X97429Y-28694D01*
X97299Y-28748D01*
X97199Y-28848D01*
X97145Y-28979D01*
X97144Y-29120D01*
X97198Y-29250D01*
X97298Y-29350D01*
X97429Y-29404D01*
X97570Y-29405D01*
X97700Y-29351D01*
X97800Y-29251D01*
X97854Y-29120D01*
X97855Y-28979D01*
X97855Y-36295D01*
X97195Y-36295D01*
X97195Y-35362D01*
X97090Y-35106D01*
X96894Y-34910D01*
X96638Y-34804D01*
X96362Y-34804D01*
X96106Y-34909D01*
X95910Y-35105D01*
X95804Y-35361D01*
X95804Y-35637D01*
X95909Y-35893D01*
X96105Y-36089D01*
X96361Y-36195D01*
X96637Y-36195D01*
X96893Y-36090D01*
X97089Y-35894D01*
X97195Y-35638D01*
X97195Y-35362D01*
X97195Y-36295D01*
X95352Y-36295D01*
X95255Y-36197D01*
X95255Y-34247D01*
X95052Y-34045D01*
X92452Y-34045D01*
X91505Y-33097D01*
X91505Y-29297D01*
X91002Y-28795D01*
X83797Y-28795D01*
X83095Y-29497D01*
X83095Y-31729D01*
X83049Y-31748D01*
X83005Y-31792D01*
X83005Y-30829D01*
X82951Y-30699D01*
X82851Y-30599D01*
X82720Y-30545D01*
X82579Y-30544D01*
X82449Y-30598D01*
X82349Y-30698D01*
X82295Y-30829D01*
X82294Y-30970D01*
X82348Y-31100D01*
X82448Y-31200D01*
X82579Y-31254D01*
X82720Y-31255D01*
X82850Y-31201D01*
X82950Y-31101D01*
X83004Y-30970D01*
X83005Y-30829D01*
X83005Y-31792D01*
X82949Y-31848D01*
X82895Y-31979D01*
X82894Y-32120D01*
X82948Y-32250D01*
X83048Y-32350D01*
X83095Y-32370D01*
X83095Y-34097D01*
X82155Y-35037D01*
X82155Y-32379D01*
X82101Y-32249D01*
X82001Y-32149D01*
X81870Y-32095D01*
X81729Y-32094D01*
X81705Y-32105D01*
X81705Y-30279D01*
X81651Y-30149D01*
X81551Y-30049D01*
X81420Y-29995D01*
X81279Y-29994D01*
X81149Y-30048D01*
X81049Y-30148D01*
X80995Y-30279D01*
X80994Y-30420D01*
X81048Y-30550D01*
X81148Y-30650D01*
X81279Y-30704D01*
X81420Y-30705D01*
X81550Y-30651D01*
X81650Y-30551D01*
X81704Y-30420D01*
X81705Y-30279D01*
X81705Y-32105D01*
X81599Y-32148D01*
X81499Y-32248D01*
X81445Y-32379D01*
X81444Y-32520D01*
X81498Y-32650D01*
X81598Y-32750D01*
X81729Y-32804D01*
X81870Y-32805D01*
X82000Y-32751D01*
X82100Y-32651D01*
X82154Y-32520D01*
X82155Y-32379D01*
X82155Y-35037D01*
X81097Y-36095D01*
X80702Y-36095D01*
X80206Y-35599D01*
X80605Y-34801D01*
X80605Y-34397D01*
X80402Y-34195D01*
X79265Y-34195D01*
X79265Y-33447D01*
X79224Y-33350D01*
X79150Y-33275D01*
X79052Y-33235D01*
X78947Y-33234D01*
X78850Y-33275D01*
X78775Y-33349D01*
X78735Y-33447D01*
X78734Y-33552D01*
X78775Y-33649D01*
X78849Y-33724D01*
X78947Y-33764D01*
X79052Y-33765D01*
X79149Y-33724D01*
X79224Y-33650D01*
X79264Y-33552D01*
X79265Y-33447D01*
X79265Y-34195D01*
X78402Y-34195D01*
X78205Y-33997D01*
X78205Y-32002D01*
X79205Y-31002D01*
X79205Y-29397D01*
X78805Y-28997D01*
X78805Y-23797D01*
X78850Y-23751D01*
X78904Y-23620D01*
X78905Y-23479D01*
X78851Y-23349D01*
X78805Y-23302D01*
X78805Y-22397D01*
X76802Y-20395D01*
X73247Y-20395D01*
X72545Y-21097D01*
X72545Y-21647D01*
X72145Y-22047D01*
X72145Y-23147D01*
X71697Y-23595D01*
X70802Y-23595D01*
X70355Y-23147D01*
X70355Y-22047D01*
X69955Y-21647D01*
X69955Y-20852D01*
X71702Y-19105D01*
X94197Y-19105D01*
X95945Y-20852D01*
X95945Y-27552D01*
X96447Y-28055D01*
X122847Y-28055D01*
X123845Y-29052D01*
X123845Y-57097D01*
G54D10*
G36*
X118945Y-47548D02*
X118797Y-47745D01*
X118247Y-47745D01*
X115597Y-50395D01*
X109547Y-50395D01*
X108795Y-51147D01*
X108795Y-53297D01*
X108647Y-53445D01*
X105555Y-53445D01*
X105555Y-48729D01*
X105555Y-47929D01*
X105501Y-47799D01*
X105401Y-47699D01*
X105270Y-47645D01*
X105129Y-47644D01*
X104999Y-47698D01*
X104899Y-47798D01*
X104845Y-47929D01*
X104844Y-48070D01*
X104898Y-48200D01*
X104998Y-48300D01*
X105129Y-48354D01*
X105270Y-48355D01*
X105400Y-48301D01*
X105500Y-48201D01*
X105554Y-48070D01*
X105555Y-47929D01*
X105555Y-48729D01*
X105501Y-48599D01*
X105401Y-48499D01*
X105270Y-48445D01*
X105129Y-48444D01*
X104999Y-48498D01*
X104899Y-48598D01*
X104845Y-48729D01*
X104844Y-48870D01*
X104898Y-49000D01*
X104998Y-49100D01*
X105129Y-49154D01*
X105270Y-49155D01*
X105400Y-49101D01*
X105500Y-49001D01*
X105554Y-48870D01*
X105555Y-48729D01*
X105555Y-53445D01*
X102652Y-53445D01*
X101952Y-52745D01*
X100297Y-52745D01*
X99597Y-53445D01*
X66752Y-53445D01*
X66055Y-52747D01*
X66055Y-50979D01*
X66001Y-50849D01*
X65901Y-50749D01*
X65770Y-50695D01*
X65629Y-50694D01*
X65499Y-50748D01*
X65399Y-50848D01*
X65345Y-50979D01*
X65344Y-51120D01*
X65398Y-51250D01*
X65498Y-51350D01*
X65629Y-51404D01*
X65770Y-51405D01*
X65900Y-51351D01*
X66000Y-51251D01*
X66054Y-51120D01*
X66055Y-50979D01*
X66055Y-52747D01*
X65105Y-51797D01*
X65105Y-24302D01*
X65552Y-23855D01*
X71547Y-23855D01*
X71995Y-24302D01*
X71995Y-25697D01*
X71547Y-26145D01*
X67747Y-26145D01*
X67445Y-26447D01*
X67445Y-27802D01*
X68045Y-28402D01*
X68045Y-47402D01*
X71797Y-51155D01*
X74349Y-51155D01*
X74420Y-51155D01*
X74420Y-51155D01*
X86905Y-51155D01*
X86895Y-51179D01*
X86894Y-51320D01*
X86948Y-51450D01*
X87048Y-51550D01*
X87179Y-51604D01*
X87320Y-51605D01*
X87450Y-51551D01*
X87550Y-51451D01*
X87604Y-51320D01*
X87605Y-51179D01*
X87594Y-51155D01*
X96263Y-51155D01*
X96361Y-51195D01*
X96637Y-51195D01*
X96736Y-51155D01*
X102952Y-51155D01*
X104005Y-50102D01*
X104005Y-48907D01*
X104048Y-48950D01*
X104179Y-49004D01*
X104320Y-49005D01*
X104450Y-48951D01*
X104550Y-48851D01*
X104604Y-48720D01*
X104605Y-48579D01*
X104551Y-48449D01*
X104451Y-48349D01*
X104320Y-48295D01*
X104179Y-48294D01*
X104049Y-48348D01*
X104005Y-48392D01*
X104005Y-47852D01*
X104252Y-47605D01*
X115152Y-47605D01*
X116205Y-46552D01*
X116205Y-45952D01*
X116352Y-45805D01*
X116950Y-45805D01*
X117650Y-45805D01*
X118747Y-45805D01*
X118945Y-46002D01*
X118945Y-47548D01*
X118945Y-47548D01*
G37*
G54D22*
X118945Y-47548D02*
X118797Y-47745D01*
X118247Y-47745D01*
X115597Y-50395D01*
X109547Y-50395D01*
X108795Y-51147D01*
X108795Y-53297D01*
X108647Y-53445D01*
X105555Y-53445D01*
X105555Y-48729D01*
X105555Y-47929D01*
X105501Y-47799D01*
X105401Y-47699D01*
X105270Y-47645D01*
X105129Y-47644D01*
X104999Y-47698D01*
X104899Y-47798D01*
X104845Y-47929D01*
X104844Y-48070D01*
X104898Y-48200D01*
X104998Y-48300D01*
X105129Y-48354D01*
X105270Y-48355D01*
X105400Y-48301D01*
X105500Y-48201D01*
X105554Y-48070D01*
X105555Y-47929D01*
X105555Y-48729D01*
X105501Y-48599D01*
X105401Y-48499D01*
X105270Y-48445D01*
X105129Y-48444D01*
X104999Y-48498D01*
X104899Y-48598D01*
X104845Y-48729D01*
X104844Y-48870D01*
X104898Y-49000D01*
X104998Y-49100D01*
X105129Y-49154D01*
X105270Y-49155D01*
X105400Y-49101D01*
X105500Y-49001D01*
X105554Y-48870D01*
X105555Y-48729D01*
X105555Y-53445D01*
X102652Y-53445D01*
X101952Y-52745D01*
X100297Y-52745D01*
X99597Y-53445D01*
X66752Y-53445D01*
X66055Y-52747D01*
X66055Y-50979D01*
X66001Y-50849D01*
X65901Y-50749D01*
X65770Y-50695D01*
X65629Y-50694D01*
X65499Y-50748D01*
X65399Y-50848D01*
X65345Y-50979D01*
X65344Y-51120D01*
X65398Y-51250D01*
X65498Y-51350D01*
X65629Y-51404D01*
X65770Y-51405D01*
X65900Y-51351D01*
X66000Y-51251D01*
X66054Y-51120D01*
X66055Y-50979D01*
X66055Y-52747D01*
X65105Y-51797D01*
X65105Y-24302D01*
X65552Y-23855D01*
X71547Y-23855D01*
X71995Y-24302D01*
X71995Y-25697D01*
X71547Y-26145D01*
X67747Y-26145D01*
X67445Y-26447D01*
X67445Y-27802D01*
X68045Y-28402D01*
X68045Y-47402D01*
X71797Y-51155D01*
X74349Y-51155D01*
X74420Y-51155D01*
X74420Y-51155D01*
X86905Y-51155D01*
X86895Y-51179D01*
X86894Y-51320D01*
X86948Y-51450D01*
X87048Y-51550D01*
X87179Y-51604D01*
X87320Y-51605D01*
X87450Y-51551D01*
X87550Y-51451D01*
X87604Y-51320D01*
X87605Y-51179D01*
X87594Y-51155D01*
X96263Y-51155D01*
X96361Y-51195D01*
X96637Y-51195D01*
X96736Y-51155D01*
X102952Y-51155D01*
X104005Y-50102D01*
X104005Y-48907D01*
X104048Y-48950D01*
X104179Y-49004D01*
X104320Y-49005D01*
X104450Y-48951D01*
X104550Y-48851D01*
X104604Y-48720D01*
X104605Y-48579D01*
X104551Y-48449D01*
X104451Y-48349D01*
X104320Y-48295D01*
X104179Y-48294D01*
X104049Y-48348D01*
X104005Y-48392D01*
X104005Y-47852D01*
X104252Y-47605D01*
X115152Y-47605D01*
X116205Y-46552D01*
X116205Y-45952D01*
X116352Y-45805D01*
X116950Y-45805D01*
X117650Y-45805D01*
X118747Y-45805D01*
X118945Y-46002D01*
X118945Y-47548D01*
G54D10*
G36*
X74145Y-27797D02*
X73795Y-28147D01*
X73795Y-30797D01*
X73547Y-31045D01*
X72402Y-31045D01*
X72055Y-30697D01*
X72055Y-28152D01*
X72305Y-27902D01*
X72305Y-26752D01*
X72502Y-26555D01*
X73400Y-26555D01*
X73550Y-26555D01*
X73947Y-26555D01*
X74145Y-26752D01*
X74145Y-27797D01*
X74145Y-27797D01*
G37*
G54D22*
X74145Y-27797D02*
X73795Y-28147D01*
X73795Y-30797D01*
X73547Y-31045D01*
X72402Y-31045D01*
X72055Y-30697D01*
X72055Y-28152D01*
X72305Y-27902D01*
X72305Y-26752D01*
X72502Y-26555D01*
X73400Y-26555D01*
X73550Y-26555D01*
X73947Y-26555D01*
X74145Y-26752D01*
X74145Y-27797D01*
G54D10*
G36*
X112495Y-37547D02*
X112197Y-37845D01*
X110397Y-37845D01*
X109965Y-38277D01*
X109965Y-36797D01*
X109924Y-36700D01*
X109850Y-36625D01*
X109752Y-36585D01*
X109647Y-36584D01*
X109550Y-36625D01*
X109475Y-36699D01*
X109435Y-36797D01*
X109434Y-36902D01*
X109475Y-36999D01*
X109549Y-37074D01*
X109647Y-37114D01*
X109752Y-37115D01*
X109849Y-37074D01*
X109924Y-37000D01*
X109964Y-36902D01*
X109965Y-36797D01*
X109965Y-38277D01*
X106797Y-41445D01*
X101904Y-41445D01*
X101899Y-41393D01*
X101847Y-41445D01*
X100105Y-41445D01*
X100105Y-38379D01*
X100051Y-38249D01*
X99951Y-38149D01*
X99820Y-38095D01*
X99679Y-38094D01*
X99549Y-38148D01*
X99449Y-38248D01*
X99395Y-38379D01*
X99394Y-38520D01*
X99448Y-38650D01*
X99548Y-38750D01*
X99679Y-38804D01*
X99820Y-38805D01*
X99950Y-38751D01*
X100050Y-38651D01*
X100104Y-38520D01*
X100105Y-38379D01*
X100105Y-41445D01*
X93067Y-41445D01*
X93077Y-41440D01*
X93140Y-41377D01*
X93174Y-41294D01*
X93175Y-41205D01*
X93140Y-41122D01*
X93077Y-41059D01*
X93025Y-41037D01*
X93025Y-40605D01*
X92990Y-40522D01*
X92927Y-40459D01*
X92844Y-40425D01*
X92755Y-40424D01*
X92672Y-40459D01*
X92609Y-40522D01*
X92575Y-40605D01*
X92574Y-40694D01*
X92609Y-40777D01*
X92672Y-40840D01*
X92755Y-40874D01*
X92844Y-40875D01*
X92927Y-40840D01*
X92990Y-40777D01*
X93024Y-40694D01*
X93025Y-40605D01*
X93025Y-41037D01*
X92994Y-41025D01*
X92905Y-41024D01*
X92822Y-41059D01*
X92759Y-41122D01*
X92725Y-41205D01*
X92724Y-41294D01*
X92759Y-41377D01*
X92822Y-41440D01*
X92832Y-41445D01*
X86547Y-41445D01*
X83697Y-44295D01*
X78897Y-44295D01*
X77697Y-45495D01*
X77302Y-45495D01*
X76305Y-44497D01*
X76305Y-43697D01*
X75605Y-42997D01*
X75605Y-39100D01*
X75605Y-39029D01*
X75605Y-39029D01*
X75605Y-34900D01*
X75605Y-34829D01*
X75605Y-34829D01*
X75605Y-32252D01*
X76305Y-31552D01*
X76305Y-26202D01*
X76755Y-25752D01*
X76755Y-22947D01*
X76452Y-22645D01*
X74897Y-22645D01*
X74147Y-23395D01*
X72952Y-23395D01*
X72705Y-23147D01*
X72705Y-22252D01*
X73105Y-21852D01*
X73105Y-21452D01*
X73502Y-21055D01*
X74752Y-21055D01*
X74802Y-21005D01*
X76447Y-21005D01*
X78245Y-22802D01*
X78245Y-23358D01*
X78195Y-23479D01*
X78194Y-23620D01*
X78245Y-23741D01*
X78245Y-29247D01*
X77545Y-29947D01*
X77545Y-30152D01*
X77845Y-30452D01*
X77845Y-34002D01*
X78045Y-34202D01*
X78045Y-36297D01*
X77345Y-36997D01*
X77345Y-37302D01*
X78495Y-38452D01*
X78495Y-39152D01*
X79497Y-40155D01*
X81700Y-40155D01*
X83702Y-40155D01*
X83905Y-39952D01*
X83905Y-38752D01*
X84002Y-38655D01*
X87102Y-38655D01*
X87752Y-38005D01*
X99903Y-38005D01*
X99998Y-38100D01*
X100129Y-38154D01*
X100270Y-38155D01*
X100400Y-38101D01*
X100497Y-38005D01*
X100597Y-38005D01*
X102197Y-39605D01*
X103702Y-39605D01*
X104805Y-38502D01*
X104805Y-38202D01*
X107052Y-35955D01*
X112247Y-35955D01*
X112495Y-36202D01*
X112495Y-37547D01*
X112495Y-37547D01*
G37*
G54D22*
X112495Y-37547D02*
X112197Y-37845D01*
X110397Y-37845D01*
X109965Y-38277D01*
X109965Y-36797D01*
X109924Y-36700D01*
X109850Y-36625D01*
X109752Y-36585D01*
X109647Y-36584D01*
X109550Y-36625D01*
X109475Y-36699D01*
X109435Y-36797D01*
X109434Y-36902D01*
X109475Y-36999D01*
X109549Y-37074D01*
X109647Y-37114D01*
X109752Y-37115D01*
X109849Y-37074D01*
X109924Y-37000D01*
X109964Y-36902D01*
X109965Y-36797D01*
X109965Y-38277D01*
X106797Y-41445D01*
X101904Y-41445D01*
X101899Y-41393D01*
X101847Y-41445D01*
X100105Y-41445D01*
X100105Y-38379D01*
X100051Y-38249D01*
X99951Y-38149D01*
X99820Y-38095D01*
X99679Y-38094D01*
X99549Y-38148D01*
X99449Y-38248D01*
X99395Y-38379D01*
X99394Y-38520D01*
X99448Y-38650D01*
X99548Y-38750D01*
X99679Y-38804D01*
X99820Y-38805D01*
X99950Y-38751D01*
X100050Y-38651D01*
X100104Y-38520D01*
X100105Y-38379D01*
X100105Y-41445D01*
X93067Y-41445D01*
X93077Y-41440D01*
X93140Y-41377D01*
X93174Y-41294D01*
X93175Y-41205D01*
X93140Y-41122D01*
X93077Y-41059D01*
X93025Y-41037D01*
X93025Y-40605D01*
X92990Y-40522D01*
X92927Y-40459D01*
X92844Y-40425D01*
X92755Y-40424D01*
X92672Y-40459D01*
X92609Y-40522D01*
X92575Y-40605D01*
X92574Y-40694D01*
X92609Y-40777D01*
X92672Y-40840D01*
X92755Y-40874D01*
X92844Y-40875D01*
X92927Y-40840D01*
X92990Y-40777D01*
X93024Y-40694D01*
X93025Y-40605D01*
X93025Y-41037D01*
X92994Y-41025D01*
X92905Y-41024D01*
X92822Y-41059D01*
X92759Y-41122D01*
X92725Y-41205D01*
X92724Y-41294D01*
X92759Y-41377D01*
X92822Y-41440D01*
X92832Y-41445D01*
X86547Y-41445D01*
X83697Y-44295D01*
X78897Y-44295D01*
X77697Y-45495D01*
X77302Y-45495D01*
X76305Y-44497D01*
X76305Y-43697D01*
X75605Y-42997D01*
X75605Y-39100D01*
X75605Y-39029D01*
X75605Y-39029D01*
X75605Y-34900D01*
X75605Y-34829D01*
X75605Y-34829D01*
X75605Y-32252D01*
X76305Y-31552D01*
X76305Y-26202D01*
X76755Y-25752D01*
X76755Y-22947D01*
X76452Y-22645D01*
X74897Y-22645D01*
X74147Y-23395D01*
X72952Y-23395D01*
X72705Y-23147D01*
X72705Y-22252D01*
X73105Y-21852D01*
X73105Y-21452D01*
X73502Y-21055D01*
X74752Y-21055D01*
X74802Y-21005D01*
X76447Y-21005D01*
X78245Y-22802D01*
X78245Y-23358D01*
X78195Y-23479D01*
X78194Y-23620D01*
X78245Y-23741D01*
X78245Y-29247D01*
X77545Y-29947D01*
X77545Y-30152D01*
X77845Y-30452D01*
X77845Y-34002D01*
X78045Y-34202D01*
X78045Y-36297D01*
X77345Y-36997D01*
X77345Y-37302D01*
X78495Y-38452D01*
X78495Y-39152D01*
X79497Y-40155D01*
X81700Y-40155D01*
X83702Y-40155D01*
X83905Y-39952D01*
X83905Y-38752D01*
X84002Y-38655D01*
X87102Y-38655D01*
X87752Y-38005D01*
X99903Y-38005D01*
X99998Y-38100D01*
X100129Y-38154D01*
X100270Y-38155D01*
X100400Y-38101D01*
X100497Y-38005D01*
X100597Y-38005D01*
X102197Y-39605D01*
X103702Y-39605D01*
X104805Y-38502D01*
X104805Y-38202D01*
X107052Y-35955D01*
X112247Y-35955D01*
X112495Y-36202D01*
X112495Y-37547D01*
G54D10*
G36*
X111895Y-45197D02*
X111747Y-45345D01*
X100347Y-45345D01*
X100145Y-45547D01*
X100145Y-45947D01*
X99797Y-46295D01*
X99625Y-46295D01*
X99625Y-44705D01*
X99590Y-44622D01*
X99527Y-44559D01*
X99444Y-44525D01*
X99355Y-44524D01*
X99272Y-44559D01*
X99209Y-44622D01*
X99175Y-44705D01*
X99174Y-44794D01*
X99209Y-44877D01*
X99272Y-44940D01*
X99355Y-44974D01*
X99444Y-44975D01*
X99527Y-44940D01*
X99590Y-44877D01*
X99624Y-44794D01*
X99625Y-44705D01*
X99625Y-46295D01*
X99315Y-46295D01*
X99315Y-45247D01*
X99274Y-45150D01*
X99200Y-45075D01*
X99102Y-45035D01*
X98997Y-45034D01*
X98900Y-45075D01*
X98825Y-45149D01*
X98785Y-45247D01*
X98784Y-45352D01*
X98825Y-45449D01*
X98899Y-45524D01*
X98997Y-45564D01*
X99102Y-45565D01*
X99199Y-45524D01*
X99274Y-45450D01*
X99314Y-45352D01*
X99315Y-45247D01*
X99315Y-46295D01*
X93525Y-46295D01*
X93525Y-44855D01*
X93525Y-44155D01*
X93490Y-44072D01*
X93427Y-44009D01*
X93344Y-43975D01*
X93255Y-43974D01*
X93172Y-44009D01*
X93109Y-44072D01*
X93075Y-44155D01*
X93074Y-44244D01*
X93109Y-44327D01*
X93172Y-44390D01*
X93255Y-44424D01*
X93344Y-44425D01*
X93427Y-44390D01*
X93490Y-44327D01*
X93524Y-44244D01*
X93525Y-44155D01*
X93525Y-44855D01*
X93490Y-44772D01*
X93427Y-44709D01*
X93344Y-44675D01*
X93255Y-44674D01*
X93172Y-44709D01*
X93109Y-44772D01*
X93075Y-44855D01*
X93074Y-44944D01*
X93109Y-45027D01*
X93172Y-45090D01*
X93255Y-45124D01*
X93344Y-45125D01*
X93427Y-45090D01*
X93490Y-45027D01*
X93524Y-44944D01*
X93525Y-44855D01*
X93525Y-46295D01*
X92615Y-46295D01*
X92615Y-45197D01*
X92574Y-45100D01*
X92500Y-45025D01*
X92402Y-44985D01*
X92297Y-44984D01*
X92200Y-45025D01*
X92125Y-45099D01*
X92085Y-45197D01*
X92084Y-45302D01*
X92125Y-45399D01*
X92199Y-45474D01*
X92297Y-45514D01*
X92402Y-45515D01*
X92499Y-45474D01*
X92574Y-45400D01*
X92614Y-45302D01*
X92615Y-45197D01*
X92615Y-46295D01*
X86497Y-46295D01*
X85797Y-47045D01*
X80805Y-47045D01*
X80805Y-47029D01*
X80751Y-46899D01*
X80651Y-46799D01*
X80520Y-46745D01*
X80379Y-46744D01*
X80249Y-46798D01*
X80149Y-46898D01*
X80095Y-47029D01*
X80095Y-47045D01*
X75465Y-47045D01*
X75465Y-45297D01*
X75424Y-45200D01*
X75350Y-45125D01*
X75252Y-45085D01*
X75147Y-45084D01*
X75050Y-45125D01*
X74975Y-45199D01*
X74935Y-45297D01*
X74934Y-45402D01*
X74975Y-45499D01*
X75049Y-45574D01*
X75147Y-45614D01*
X75252Y-45615D01*
X75349Y-45574D01*
X75424Y-45500D01*
X75464Y-45402D01*
X75465Y-45297D01*
X75465Y-47045D01*
X73155Y-47045D01*
X73155Y-46900D01*
X73155Y-46829D01*
X73155Y-46829D01*
X73155Y-45802D01*
X73655Y-45302D01*
X73655Y-44747D01*
X72805Y-43897D01*
X72805Y-43550D01*
X72805Y-43479D01*
X72805Y-43479D01*
X72805Y-32302D01*
X74304Y-30802D01*
X74354Y-28152D01*
X74705Y-27802D01*
X74705Y-26197D01*
X74152Y-25645D01*
X72952Y-25645D01*
X72705Y-25397D01*
X72705Y-24352D01*
X73202Y-23855D01*
X75497Y-23855D01*
X76145Y-24502D01*
X76145Y-25747D01*
X75697Y-26195D01*
X75595Y-26195D01*
X75595Y-27258D01*
X75545Y-27379D01*
X75544Y-27520D01*
X75595Y-27641D01*
X75595Y-31547D01*
X74895Y-32247D01*
X74895Y-34899D01*
X74894Y-34970D01*
X74895Y-34970D01*
X74895Y-39099D01*
X74894Y-39170D01*
X74895Y-39170D01*
X74895Y-43552D01*
X76195Y-44852D01*
X76195Y-45302D01*
X77097Y-46205D01*
X78252Y-46205D01*
X79752Y-44655D01*
X84602Y-44655D01*
X85105Y-44152D01*
X85105Y-43702D01*
X85252Y-43555D01*
X89049Y-43555D01*
X89120Y-43555D01*
X89120Y-43555D01*
X90049Y-43555D01*
X90120Y-43555D01*
X90120Y-43555D01*
X94852Y-43555D01*
X94898Y-43600D01*
X95029Y-43654D01*
X95170Y-43655D01*
X95300Y-43601D01*
X95347Y-43555D01*
X99897Y-43555D01*
X100537Y-44194D01*
X93674Y-44081D01*
X93797Y-44205D01*
X100550Y-44205D01*
X105449Y-44205D01*
X111895Y-44265D01*
X111895Y-45197D01*
X111895Y-45197D01*
G37*
G54D22*
X111895Y-45197D02*
X111747Y-45345D01*
X100347Y-45345D01*
X100145Y-45547D01*
X100145Y-45947D01*
X99797Y-46295D01*
X99625Y-46295D01*
X99625Y-44705D01*
X99590Y-44622D01*
X99527Y-44559D01*
X99444Y-44525D01*
X99355Y-44524D01*
X99272Y-44559D01*
X99209Y-44622D01*
X99175Y-44705D01*
X99174Y-44794D01*
X99209Y-44877D01*
X99272Y-44940D01*
X99355Y-44974D01*
X99444Y-44975D01*
X99527Y-44940D01*
X99590Y-44877D01*
X99624Y-44794D01*
X99625Y-44705D01*
X99625Y-46295D01*
X99315Y-46295D01*
X99315Y-45247D01*
X99274Y-45150D01*
X99200Y-45075D01*
X99102Y-45035D01*
X98997Y-45034D01*
X98900Y-45075D01*
X98825Y-45149D01*
X98785Y-45247D01*
X98784Y-45352D01*
X98825Y-45449D01*
X98899Y-45524D01*
X98997Y-45564D01*
X99102Y-45565D01*
X99199Y-45524D01*
X99274Y-45450D01*
X99314Y-45352D01*
X99315Y-45247D01*
X99315Y-46295D01*
X93525Y-46295D01*
X93525Y-44855D01*
X93525Y-44155D01*
X93490Y-44072D01*
X93427Y-44009D01*
X93344Y-43975D01*
X93255Y-43974D01*
X93172Y-44009D01*
X93109Y-44072D01*
X93075Y-44155D01*
X93074Y-44244D01*
X93109Y-44327D01*
X93172Y-44390D01*
X93255Y-44424D01*
X93344Y-44425D01*
X93427Y-44390D01*
X93490Y-44327D01*
X93524Y-44244D01*
X93525Y-44155D01*
X93525Y-44855D01*
X93490Y-44772D01*
X93427Y-44709D01*
X93344Y-44675D01*
X93255Y-44674D01*
X93172Y-44709D01*
X93109Y-44772D01*
X93075Y-44855D01*
X93074Y-44944D01*
X93109Y-45027D01*
X93172Y-45090D01*
X93255Y-45124D01*
X93344Y-45125D01*
X93427Y-45090D01*
X93490Y-45027D01*
X93524Y-44944D01*
X93525Y-44855D01*
X93525Y-46295D01*
X92615Y-46295D01*
X92615Y-45197D01*
X92574Y-45100D01*
X92500Y-45025D01*
X92402Y-44985D01*
X92297Y-44984D01*
X92200Y-45025D01*
X92125Y-45099D01*
X92085Y-45197D01*
X92084Y-45302D01*
X92125Y-45399D01*
X92199Y-45474D01*
X92297Y-45514D01*
X92402Y-45515D01*
X92499Y-45474D01*
X92574Y-45400D01*
X92614Y-45302D01*
X92615Y-45197D01*
X92615Y-46295D01*
X86497Y-46295D01*
X85797Y-47045D01*
X80805Y-47045D01*
X80805Y-47029D01*
X80751Y-46899D01*
X80651Y-46799D01*
X80520Y-46745D01*
X80379Y-46744D01*
X80249Y-46798D01*
X80149Y-46898D01*
X80095Y-47029D01*
X80095Y-47045D01*
X75465Y-47045D01*
X75465Y-45297D01*
X75424Y-45200D01*
X75350Y-45125D01*
X75252Y-45085D01*
X75147Y-45084D01*
X75050Y-45125D01*
X74975Y-45199D01*
X74935Y-45297D01*
X74934Y-45402D01*
X74975Y-45499D01*
X75049Y-45574D01*
X75147Y-45614D01*
X75252Y-45615D01*
X75349Y-45574D01*
X75424Y-45500D01*
X75464Y-45402D01*
X75465Y-45297D01*
X75465Y-47045D01*
X73155Y-47045D01*
X73155Y-46900D01*
X73155Y-46829D01*
X73155Y-46829D01*
X73155Y-45802D01*
X73655Y-45302D01*
X73655Y-44747D01*
X72805Y-43897D01*
X72805Y-43550D01*
X72805Y-43479D01*
X72805Y-43479D01*
X72805Y-32302D01*
X74304Y-30802D01*
X74354Y-28152D01*
X74705Y-27802D01*
X74705Y-26197D01*
X74152Y-25645D01*
X72952Y-25645D01*
X72705Y-25397D01*
X72705Y-24352D01*
X73202Y-23855D01*
X75497Y-23855D01*
X76145Y-24502D01*
X76145Y-25747D01*
X75697Y-26195D01*
X75595Y-26195D01*
X75595Y-27258D01*
X75545Y-27379D01*
X75544Y-27520D01*
X75595Y-27641D01*
X75595Y-31547D01*
X74895Y-32247D01*
X74895Y-34899D01*
X74894Y-34970D01*
X74895Y-34970D01*
X74895Y-39099D01*
X74894Y-39170D01*
X74895Y-39170D01*
X74895Y-43552D01*
X76195Y-44852D01*
X76195Y-45302D01*
X77097Y-46205D01*
X78252Y-46205D01*
X79752Y-44655D01*
X84602Y-44655D01*
X85105Y-44152D01*
X85105Y-43702D01*
X85252Y-43555D01*
X89049Y-43555D01*
X89120Y-43555D01*
X89120Y-43555D01*
X90049Y-43555D01*
X90120Y-43555D01*
X90120Y-43555D01*
X94852Y-43555D01*
X94898Y-43600D01*
X95029Y-43654D01*
X95170Y-43655D01*
X95300Y-43601D01*
X95347Y-43555D01*
X99897Y-43555D01*
X100537Y-44194D01*
X93674Y-44081D01*
X93797Y-44205D01*
X100550Y-44205D01*
X105449Y-44205D01*
X111895Y-44265D01*
X111895Y-45197D01*
G54D10*
G36*
X112295Y-41397D02*
X111895Y-41797D01*
X111895Y-44257D01*
X110389Y-44240D01*
X110389Y-43422D01*
X110389Y-42422D01*
X110330Y-42279D01*
X110221Y-42169D01*
X110077Y-42110D01*
X109922Y-42110D01*
X109779Y-42169D01*
X109669Y-42278D01*
X109610Y-42422D01*
X109610Y-42577D01*
X109669Y-42720D01*
X109778Y-42830D01*
X109922Y-42889D01*
X110077Y-42889D01*
X110220Y-42830D01*
X110330Y-42721D01*
X110389Y-42577D01*
X110389Y-42422D01*
X110389Y-43422D01*
X110330Y-43279D01*
X110221Y-43169D01*
X110077Y-43110D01*
X109922Y-43110D01*
X109779Y-43169D01*
X109669Y-43278D01*
X109610Y-43422D01*
X109610Y-43577D01*
X109669Y-43720D01*
X109778Y-43830D01*
X109922Y-43889D01*
X110077Y-43889D01*
X110220Y-43830D01*
X110330Y-43721D01*
X110389Y-43577D01*
X110389Y-43422D01*
X110389Y-44240D01*
X109389Y-44229D01*
X109389Y-43422D01*
X109389Y-42422D01*
X109330Y-42279D01*
X109221Y-42169D01*
X109077Y-42110D01*
X108922Y-42110D01*
X108779Y-42169D01*
X108669Y-42278D01*
X108610Y-42422D01*
X108610Y-42577D01*
X108669Y-42720D01*
X108778Y-42830D01*
X108922Y-42889D01*
X109077Y-42889D01*
X109220Y-42830D01*
X109330Y-42721D01*
X109389Y-42577D01*
X109389Y-42422D01*
X109389Y-43422D01*
X109330Y-43279D01*
X109221Y-43169D01*
X109077Y-43110D01*
X108922Y-43110D01*
X108779Y-43169D01*
X108669Y-43278D01*
X108610Y-43422D01*
X108610Y-43577D01*
X108669Y-43720D01*
X108778Y-43830D01*
X108922Y-43889D01*
X109077Y-43889D01*
X109220Y-43830D01*
X109330Y-43721D01*
X109389Y-43577D01*
X109389Y-43422D01*
X109389Y-44229D01*
X108389Y-44217D01*
X108389Y-43422D01*
X108389Y-43422D01*
X108389Y-42837D01*
X108389Y-42811D01*
X108389Y-42162D01*
X108379Y-42138D01*
X108361Y-42120D01*
X108337Y-42110D01*
X108311Y-42110D01*
X107662Y-42110D01*
X107638Y-42120D01*
X107620Y-42138D01*
X107610Y-42162D01*
X107610Y-42188D01*
X107610Y-42837D01*
X107620Y-42861D01*
X107638Y-42879D01*
X107662Y-42889D01*
X107688Y-42889D01*
X108337Y-42889D01*
X108361Y-42879D01*
X108379Y-42861D01*
X108389Y-42837D01*
X108389Y-43422D01*
X108330Y-43279D01*
X108221Y-43169D01*
X108077Y-43110D01*
X107922Y-43110D01*
X107779Y-43169D01*
X107669Y-43278D01*
X107610Y-43422D01*
X107610Y-43577D01*
X107669Y-43720D01*
X107778Y-43830D01*
X107922Y-43889D01*
X108077Y-43889D01*
X108220Y-43830D01*
X108330Y-43721D01*
X108389Y-43577D01*
X108389Y-43422D01*
X108389Y-44217D01*
X106350Y-44195D01*
X105912Y-44195D01*
X106355Y-43752D01*
X106355Y-42052D01*
X106602Y-41805D01*
X107502Y-41805D01*
X108502Y-40805D01*
X111402Y-40805D01*
X111602Y-40605D01*
X112097Y-40605D01*
X112295Y-40802D01*
X112295Y-40823D01*
X112285Y-40847D01*
X112284Y-40952D01*
X112295Y-40976D01*
X112295Y-41397D01*
X112295Y-41397D01*
G37*
G54D22*
X112295Y-41397D02*
X111895Y-41797D01*
X111895Y-44257D01*
X110389Y-44240D01*
X110389Y-43422D01*
X110389Y-42422D01*
X110330Y-42279D01*
X110221Y-42169D01*
X110077Y-42110D01*
X109922Y-42110D01*
X109779Y-42169D01*
X109669Y-42278D01*
X109610Y-42422D01*
X109610Y-42577D01*
X109669Y-42720D01*
X109778Y-42830D01*
X109922Y-42889D01*
X110077Y-42889D01*
X110220Y-42830D01*
X110330Y-42721D01*
X110389Y-42577D01*
X110389Y-42422D01*
X110389Y-43422D01*
X110330Y-43279D01*
X110221Y-43169D01*
X110077Y-43110D01*
X109922Y-43110D01*
X109779Y-43169D01*
X109669Y-43278D01*
X109610Y-43422D01*
X109610Y-43577D01*
X109669Y-43720D01*
X109778Y-43830D01*
X109922Y-43889D01*
X110077Y-43889D01*
X110220Y-43830D01*
X110330Y-43721D01*
X110389Y-43577D01*
X110389Y-43422D01*
X110389Y-44240D01*
X109389Y-44229D01*
X109389Y-43422D01*
X109389Y-42422D01*
X109330Y-42279D01*
X109221Y-42169D01*
X109077Y-42110D01*
X108922Y-42110D01*
X108779Y-42169D01*
X108669Y-42278D01*
X108610Y-42422D01*
X108610Y-42577D01*
X108669Y-42720D01*
X108778Y-42830D01*
X108922Y-42889D01*
X109077Y-42889D01*
X109220Y-42830D01*
X109330Y-42721D01*
X109389Y-42577D01*
X109389Y-42422D01*
X109389Y-43422D01*
X109330Y-43279D01*
X109221Y-43169D01*
X109077Y-43110D01*
X108922Y-43110D01*
X108779Y-43169D01*
X108669Y-43278D01*
X108610Y-43422D01*
X108610Y-43577D01*
X108669Y-43720D01*
X108778Y-43830D01*
X108922Y-43889D01*
X109077Y-43889D01*
X109220Y-43830D01*
X109330Y-43721D01*
X109389Y-43577D01*
X109389Y-43422D01*
X109389Y-44229D01*
X108389Y-44217D01*
X108389Y-43422D01*
X108389Y-43422D01*
X108389Y-42837D01*
X108389Y-42811D01*
X108389Y-42162D01*
X108379Y-42138D01*
X108361Y-42120D01*
X108337Y-42110D01*
X108311Y-42110D01*
X107662Y-42110D01*
X107638Y-42120D01*
X107620Y-42138D01*
X107610Y-42162D01*
X107610Y-42188D01*
X107610Y-42837D01*
X107620Y-42861D01*
X107638Y-42879D01*
X107662Y-42889D01*
X107688Y-42889D01*
X108337Y-42889D01*
X108361Y-42879D01*
X108379Y-42861D01*
X108389Y-42837D01*
X108389Y-43422D01*
X108330Y-43279D01*
X108221Y-43169D01*
X108077Y-43110D01*
X107922Y-43110D01*
X107779Y-43169D01*
X107669Y-43278D01*
X107610Y-43422D01*
X107610Y-43577D01*
X107669Y-43720D01*
X107778Y-43830D01*
X107922Y-43889D01*
X108077Y-43889D01*
X108220Y-43830D01*
X108330Y-43721D01*
X108389Y-43577D01*
X108389Y-43422D01*
X108389Y-44217D01*
X106350Y-44195D01*
X105912Y-44195D01*
X106355Y-43752D01*
X106355Y-42052D01*
X106602Y-41805D01*
X107502Y-41805D01*
X108502Y-40805D01*
X111402Y-40805D01*
X111602Y-40605D01*
X112097Y-40605D01*
X112295Y-40802D01*
X112295Y-40823D01*
X112285Y-40847D01*
X112284Y-40952D01*
X112295Y-40976D01*
X112295Y-41397D01*
G54D10*
G36*
X121495Y-47997D02*
X121297Y-48195D01*
X119502Y-48195D01*
X119305Y-47997D01*
X119305Y-47747D01*
X119105Y-47547D01*
X119105Y-45547D01*
X118952Y-45395D01*
X117389Y-45395D01*
X117389Y-43422D01*
X117389Y-42422D01*
X117330Y-42279D01*
X117221Y-42169D01*
X117077Y-42110D01*
X116922Y-42110D01*
X116779Y-42169D01*
X116669Y-42278D01*
X116610Y-42422D01*
X116610Y-42577D01*
X116669Y-42720D01*
X116778Y-42830D01*
X116922Y-42889D01*
X117077Y-42889D01*
X117220Y-42830D01*
X117330Y-42721D01*
X117389Y-42577D01*
X117389Y-42422D01*
X117389Y-43422D01*
X117330Y-43279D01*
X117221Y-43169D01*
X117077Y-43110D01*
X116922Y-43110D01*
X116779Y-43169D01*
X116669Y-43278D01*
X116610Y-43422D01*
X116610Y-43577D01*
X116669Y-43720D01*
X116778Y-43830D01*
X116922Y-43889D01*
X117077Y-43889D01*
X117220Y-43830D01*
X117330Y-43721D01*
X117389Y-43577D01*
X117389Y-43422D01*
X117389Y-45395D01*
X116389Y-45395D01*
X116389Y-43422D01*
X116389Y-42422D01*
X116330Y-42279D01*
X116221Y-42169D01*
X116077Y-42110D01*
X115922Y-42110D01*
X115779Y-42169D01*
X115669Y-42278D01*
X115610Y-42422D01*
X115610Y-42577D01*
X115669Y-42720D01*
X115778Y-42830D01*
X115922Y-42889D01*
X116077Y-42889D01*
X116220Y-42830D01*
X116330Y-42721D01*
X116389Y-42577D01*
X116389Y-42422D01*
X116389Y-43422D01*
X116330Y-43279D01*
X116221Y-43169D01*
X116077Y-43110D01*
X115922Y-43110D01*
X115779Y-43169D01*
X115669Y-43278D01*
X115610Y-43422D01*
X115610Y-43577D01*
X115669Y-43720D01*
X115778Y-43830D01*
X115922Y-43889D01*
X116077Y-43889D01*
X116220Y-43830D01*
X116330Y-43721D01*
X116389Y-43577D01*
X116389Y-43422D01*
X116389Y-45395D01*
X115397Y-45395D01*
X113447Y-47345D01*
X103747Y-47345D01*
X103495Y-47597D01*
X103495Y-49513D01*
X103427Y-49541D01*
X103341Y-49627D01*
X103295Y-49739D01*
X103294Y-49860D01*
X103341Y-49972D01*
X103405Y-50037D01*
X103061Y-50381D01*
X100973Y-50379D01*
X101022Y-50358D01*
X101108Y-50272D01*
X101154Y-50160D01*
X101155Y-50039D01*
X101108Y-49927D01*
X101022Y-49841D01*
X100910Y-49795D01*
X100789Y-49794D01*
X100677Y-49841D01*
X100591Y-49927D01*
X100545Y-50039D01*
X100544Y-50160D01*
X100591Y-50272D01*
X100677Y-50358D01*
X100725Y-50378D01*
X97195Y-50374D01*
X97195Y-50362D01*
X97090Y-50106D01*
X96894Y-49910D01*
X96638Y-49804D01*
X96362Y-49804D01*
X96106Y-49909D01*
X95910Y-50105D01*
X95804Y-50361D01*
X95804Y-50372D01*
X82515Y-50357D01*
X82515Y-49147D01*
X82474Y-49050D01*
X82400Y-48975D01*
X82302Y-48935D01*
X82197Y-48934D01*
X82100Y-48975D01*
X82025Y-49049D01*
X81985Y-49147D01*
X81984Y-49252D01*
X82025Y-49349D01*
X82099Y-49424D01*
X82197Y-49464D01*
X82302Y-49465D01*
X82399Y-49424D01*
X82474Y-49350D01*
X82514Y-49252D01*
X82515Y-49147D01*
X82515Y-50357D01*
X80805Y-50355D01*
X80805Y-47979D01*
X80751Y-47849D01*
X80651Y-47749D01*
X80520Y-47695D01*
X80379Y-47694D01*
X80249Y-47748D01*
X80149Y-47848D01*
X80095Y-47979D01*
X80094Y-48120D01*
X80148Y-48250D01*
X80248Y-48350D01*
X80379Y-48404D01*
X80520Y-48405D01*
X80650Y-48351D01*
X80750Y-48251D01*
X80804Y-48120D01*
X80805Y-47979D01*
X80805Y-50355D01*
X78175Y-50352D01*
X78175Y-49005D01*
X78140Y-48922D01*
X78077Y-48859D01*
X77994Y-48825D01*
X77905Y-48824D01*
X77822Y-48859D01*
X77759Y-48922D01*
X77725Y-49005D01*
X77724Y-49094D01*
X77759Y-49177D01*
X77822Y-49240D01*
X77905Y-49274D01*
X77994Y-49275D01*
X78077Y-49240D01*
X78140Y-49177D01*
X78174Y-49094D01*
X78175Y-49005D01*
X78175Y-50352D01*
X77665Y-50351D01*
X77665Y-49147D01*
X77624Y-49050D01*
X77550Y-48975D01*
X77452Y-48935D01*
X77347Y-48934D01*
X77250Y-48975D01*
X77175Y-49049D01*
X77135Y-49147D01*
X77134Y-49252D01*
X77175Y-49349D01*
X77249Y-49424D01*
X77347Y-49464D01*
X77452Y-49465D01*
X77549Y-49424D01*
X77624Y-49350D01*
X77664Y-49252D01*
X77665Y-49147D01*
X77665Y-50351D01*
X77275Y-50351D01*
X77275Y-49555D01*
X77240Y-49472D01*
X77177Y-49409D01*
X77094Y-49375D01*
X77005Y-49374D01*
X76922Y-49409D01*
X76859Y-49472D01*
X76825Y-49555D01*
X76824Y-49644D01*
X76859Y-49727D01*
X76922Y-49790D01*
X77005Y-49824D01*
X77094Y-49825D01*
X77177Y-49790D01*
X77240Y-49727D01*
X77274Y-49644D01*
X77275Y-49555D01*
X77275Y-50351D01*
X76875Y-50350D01*
X76875Y-49905D01*
X76840Y-49822D01*
X76777Y-49759D01*
X76694Y-49725D01*
X76605Y-49724D01*
X76522Y-49759D01*
X76459Y-49822D01*
X76425Y-49905D01*
X76424Y-49994D01*
X76459Y-50077D01*
X76522Y-50140D01*
X76605Y-50174D01*
X76694Y-50175D01*
X76777Y-50140D01*
X76840Y-50077D01*
X76874Y-49994D01*
X76875Y-49905D01*
X76875Y-50350D01*
X76175Y-50349D01*
X76175Y-49905D01*
X76140Y-49822D01*
X76115Y-49796D01*
X76115Y-49147D01*
X76074Y-49050D01*
X76000Y-48975D01*
X75902Y-48935D01*
X75797Y-48934D01*
X75700Y-48975D01*
X75665Y-49010D01*
X75665Y-48847D01*
X75624Y-48750D01*
X75550Y-48675D01*
X75452Y-48635D01*
X75347Y-48634D01*
X75250Y-48675D01*
X75175Y-48749D01*
X75135Y-48847D01*
X75134Y-48952D01*
X75175Y-49049D01*
X75249Y-49124D01*
X75347Y-49164D01*
X75452Y-49165D01*
X75549Y-49124D01*
X75624Y-49050D01*
X75664Y-48952D01*
X75665Y-48847D01*
X75665Y-49010D01*
X75625Y-49049D01*
X75585Y-49147D01*
X75584Y-49252D01*
X75625Y-49349D01*
X75699Y-49424D01*
X75797Y-49464D01*
X75902Y-49465D01*
X75999Y-49424D01*
X76074Y-49350D01*
X76114Y-49252D01*
X76115Y-49147D01*
X76115Y-49796D01*
X76077Y-49759D01*
X75994Y-49725D01*
X75905Y-49724D01*
X75822Y-49759D01*
X75759Y-49822D01*
X75725Y-49905D01*
X75724Y-49994D01*
X75759Y-50077D01*
X75822Y-50140D01*
X75905Y-50174D01*
X75994Y-50175D01*
X76077Y-50140D01*
X76140Y-50077D01*
X76174Y-49994D01*
X76175Y-49905D01*
X76175Y-50349D01*
X72052Y-50345D01*
X69355Y-47647D01*
X69355Y-34846D01*
X69450Y-34751D01*
X69504Y-34620D01*
X69505Y-34479D01*
X69451Y-34349D01*
X69355Y-34252D01*
X69355Y-26852D01*
X69652Y-26555D01*
X71797Y-26555D01*
X72045Y-26802D01*
X72045Y-27597D01*
X71395Y-28247D01*
X71395Y-46252D01*
X72747Y-47605D01*
X99152Y-47605D01*
X100755Y-46002D01*
X100755Y-45802D01*
X100852Y-45705D01*
X111752Y-45705D01*
X113452Y-44005D01*
X114702Y-44005D01*
X114805Y-43902D01*
X114805Y-43841D01*
X114922Y-43889D01*
X115077Y-43889D01*
X115220Y-43830D01*
X115330Y-43721D01*
X115389Y-43577D01*
X115389Y-43422D01*
X115330Y-43279D01*
X115221Y-43169D01*
X115077Y-43110D01*
X114922Y-43110D01*
X114805Y-43158D01*
X114805Y-42841D01*
X114922Y-42889D01*
X115077Y-42889D01*
X115220Y-42830D01*
X115330Y-42721D01*
X115389Y-42577D01*
X115389Y-42422D01*
X115330Y-42279D01*
X115221Y-42169D01*
X115077Y-42110D01*
X114922Y-42110D01*
X114805Y-42158D01*
X114805Y-35797D01*
X114702Y-35695D01*
X107047Y-35695D01*
X103797Y-38945D01*
X103452Y-38945D01*
X103355Y-38847D01*
X103355Y-37902D01*
X108402Y-32855D01*
X116947Y-32855D01*
X117845Y-33752D01*
X117845Y-37597D01*
X117195Y-38247D01*
X117195Y-40352D01*
X117497Y-40655D01*
X118197Y-40655D01*
X120296Y-42753D01*
X120697Y-43205D01*
X121347Y-43205D01*
X121495Y-43352D01*
X121495Y-47997D01*
X121495Y-47997D01*
G37*
G54D22*
X121495Y-47997D02*
X121297Y-48195D01*
X119502Y-48195D01*
X119305Y-47997D01*
X119305Y-47747D01*
X119105Y-47547D01*
X119105Y-45547D01*
X118952Y-45395D01*
X117389Y-45395D01*
X117389Y-43422D01*
X117389Y-42422D01*
X117330Y-42279D01*
X117221Y-42169D01*
X117077Y-42110D01*
X116922Y-42110D01*
X116779Y-42169D01*
X116669Y-42278D01*
X116610Y-42422D01*
X116610Y-42577D01*
X116669Y-42720D01*
X116778Y-42830D01*
X116922Y-42889D01*
X117077Y-42889D01*
X117220Y-42830D01*
X117330Y-42721D01*
X117389Y-42577D01*
X117389Y-42422D01*
X117389Y-43422D01*
X117330Y-43279D01*
X117221Y-43169D01*
X117077Y-43110D01*
X116922Y-43110D01*
X116779Y-43169D01*
X116669Y-43278D01*
X116610Y-43422D01*
X116610Y-43577D01*
X116669Y-43720D01*
X116778Y-43830D01*
X116922Y-43889D01*
X117077Y-43889D01*
X117220Y-43830D01*
X117330Y-43721D01*
X117389Y-43577D01*
X117389Y-43422D01*
X117389Y-45395D01*
X116389Y-45395D01*
X116389Y-43422D01*
X116389Y-42422D01*
X116330Y-42279D01*
X116221Y-42169D01*
X116077Y-42110D01*
X115922Y-42110D01*
X115779Y-42169D01*
X115669Y-42278D01*
X115610Y-42422D01*
X115610Y-42577D01*
X115669Y-42720D01*
X115778Y-42830D01*
X115922Y-42889D01*
X116077Y-42889D01*
X116220Y-42830D01*
X116330Y-42721D01*
X116389Y-42577D01*
X116389Y-42422D01*
X116389Y-43422D01*
X116330Y-43279D01*
X116221Y-43169D01*
X116077Y-43110D01*
X115922Y-43110D01*
X115779Y-43169D01*
X115669Y-43278D01*
X115610Y-43422D01*
X115610Y-43577D01*
X115669Y-43720D01*
X115778Y-43830D01*
X115922Y-43889D01*
X116077Y-43889D01*
X116220Y-43830D01*
X116330Y-43721D01*
X116389Y-43577D01*
X116389Y-43422D01*
X116389Y-45395D01*
X115397Y-45395D01*
X113447Y-47345D01*
X103747Y-47345D01*
X103495Y-47597D01*
X103495Y-49513D01*
X103427Y-49541D01*
X103341Y-49627D01*
X103295Y-49739D01*
X103294Y-49860D01*
X103341Y-49972D01*
X103405Y-50037D01*
X103061Y-50381D01*
X100973Y-50379D01*
X101022Y-50358D01*
X101108Y-50272D01*
X101154Y-50160D01*
X101155Y-50039D01*
X101108Y-49927D01*
X101022Y-49841D01*
X100910Y-49795D01*
X100789Y-49794D01*
X100677Y-49841D01*
X100591Y-49927D01*
X100545Y-50039D01*
X100544Y-50160D01*
X100591Y-50272D01*
X100677Y-50358D01*
X100725Y-50378D01*
X97195Y-50374D01*
X97195Y-50362D01*
X97090Y-50106D01*
X96894Y-49910D01*
X96638Y-49804D01*
X96362Y-49804D01*
X96106Y-49909D01*
X95910Y-50105D01*
X95804Y-50361D01*
X95804Y-50372D01*
X82515Y-50357D01*
X82515Y-49147D01*
X82474Y-49050D01*
X82400Y-48975D01*
X82302Y-48935D01*
X82197Y-48934D01*
X82100Y-48975D01*
X82025Y-49049D01*
X81985Y-49147D01*
X81984Y-49252D01*
X82025Y-49349D01*
X82099Y-49424D01*
X82197Y-49464D01*
X82302Y-49465D01*
X82399Y-49424D01*
X82474Y-49350D01*
X82514Y-49252D01*
X82515Y-49147D01*
X82515Y-50357D01*
X80805Y-50355D01*
X80805Y-47979D01*
X80751Y-47849D01*
X80651Y-47749D01*
X80520Y-47695D01*
X80379Y-47694D01*
X80249Y-47748D01*
X80149Y-47848D01*
X80095Y-47979D01*
X80094Y-48120D01*
X80148Y-48250D01*
X80248Y-48350D01*
X80379Y-48404D01*
X80520Y-48405D01*
X80650Y-48351D01*
X80750Y-48251D01*
X80804Y-48120D01*
X80805Y-47979D01*
X80805Y-50355D01*
X78175Y-50352D01*
X78175Y-49005D01*
X78140Y-48922D01*
X78077Y-48859D01*
X77994Y-48825D01*
X77905Y-48824D01*
X77822Y-48859D01*
X77759Y-48922D01*
X77725Y-49005D01*
X77724Y-49094D01*
X77759Y-49177D01*
X77822Y-49240D01*
X77905Y-49274D01*
X77994Y-49275D01*
X78077Y-49240D01*
X78140Y-49177D01*
X78174Y-49094D01*
X78175Y-49005D01*
X78175Y-50352D01*
X77665Y-50351D01*
X77665Y-49147D01*
X77624Y-49050D01*
X77550Y-48975D01*
X77452Y-48935D01*
X77347Y-48934D01*
X77250Y-48975D01*
X77175Y-49049D01*
X77135Y-49147D01*
X77134Y-49252D01*
X77175Y-49349D01*
X77249Y-49424D01*
X77347Y-49464D01*
X77452Y-49465D01*
X77549Y-49424D01*
X77624Y-49350D01*
X77664Y-49252D01*
X77665Y-49147D01*
X77665Y-50351D01*
X77275Y-50351D01*
X77275Y-49555D01*
X77240Y-49472D01*
X77177Y-49409D01*
X77094Y-49375D01*
X77005Y-49374D01*
X76922Y-49409D01*
X76859Y-49472D01*
X76825Y-49555D01*
X76824Y-49644D01*
X76859Y-49727D01*
X76922Y-49790D01*
X77005Y-49824D01*
X77094Y-49825D01*
X77177Y-49790D01*
X77240Y-49727D01*
X77274Y-49644D01*
X77275Y-49555D01*
X77275Y-50351D01*
X76875Y-50350D01*
X76875Y-49905D01*
X76840Y-49822D01*
X76777Y-49759D01*
X76694Y-49725D01*
X76605Y-49724D01*
X76522Y-49759D01*
X76459Y-49822D01*
X76425Y-49905D01*
X76424Y-49994D01*
X76459Y-50077D01*
X76522Y-50140D01*
X76605Y-50174D01*
X76694Y-50175D01*
X76777Y-50140D01*
X76840Y-50077D01*
X76874Y-49994D01*
X76875Y-49905D01*
X76875Y-50350D01*
X76175Y-50349D01*
X76175Y-49905D01*
X76140Y-49822D01*
X76115Y-49796D01*
X76115Y-49147D01*
X76074Y-49050D01*
X76000Y-48975D01*
X75902Y-48935D01*
X75797Y-48934D01*
X75700Y-48975D01*
X75665Y-49010D01*
X75665Y-48847D01*
X75624Y-48750D01*
X75550Y-48675D01*
X75452Y-48635D01*
X75347Y-48634D01*
X75250Y-48675D01*
X75175Y-48749D01*
X75135Y-48847D01*
X75134Y-48952D01*
X75175Y-49049D01*
X75249Y-49124D01*
X75347Y-49164D01*
X75452Y-49165D01*
X75549Y-49124D01*
X75624Y-49050D01*
X75664Y-48952D01*
X75665Y-48847D01*
X75665Y-49010D01*
X75625Y-49049D01*
X75585Y-49147D01*
X75584Y-49252D01*
X75625Y-49349D01*
X75699Y-49424D01*
X75797Y-49464D01*
X75902Y-49465D01*
X75999Y-49424D01*
X76074Y-49350D01*
X76114Y-49252D01*
X76115Y-49147D01*
X76115Y-49796D01*
X76077Y-49759D01*
X75994Y-49725D01*
X75905Y-49724D01*
X75822Y-49759D01*
X75759Y-49822D01*
X75725Y-49905D01*
X75724Y-49994D01*
X75759Y-50077D01*
X75822Y-50140D01*
X75905Y-50174D01*
X75994Y-50175D01*
X76077Y-50140D01*
X76140Y-50077D01*
X76174Y-49994D01*
X76175Y-49905D01*
X76175Y-50349D01*
X72052Y-50345D01*
X69355Y-47647D01*
X69355Y-34846D01*
X69450Y-34751D01*
X69504Y-34620D01*
X69505Y-34479D01*
X69451Y-34349D01*
X69355Y-34252D01*
X69355Y-26852D01*
X69652Y-26555D01*
X71797Y-26555D01*
X72045Y-26802D01*
X72045Y-27597D01*
X71395Y-28247D01*
X71395Y-46252D01*
X72747Y-47605D01*
X99152Y-47605D01*
X100755Y-46002D01*
X100755Y-45802D01*
X100852Y-45705D01*
X111752Y-45705D01*
X113452Y-44005D01*
X114702Y-44005D01*
X114805Y-43902D01*
X114805Y-43841D01*
X114922Y-43889D01*
X115077Y-43889D01*
X115220Y-43830D01*
X115330Y-43721D01*
X115389Y-43577D01*
X115389Y-43422D01*
X115330Y-43279D01*
X115221Y-43169D01*
X115077Y-43110D01*
X114922Y-43110D01*
X114805Y-43158D01*
X114805Y-42841D01*
X114922Y-42889D01*
X115077Y-42889D01*
X115220Y-42830D01*
X115330Y-42721D01*
X115389Y-42577D01*
X115389Y-42422D01*
X115330Y-42279D01*
X115221Y-42169D01*
X115077Y-42110D01*
X114922Y-42110D01*
X114805Y-42158D01*
X114805Y-35797D01*
X114702Y-35695D01*
X107047Y-35695D01*
X103797Y-38945D01*
X103452Y-38945D01*
X103355Y-38847D01*
X103355Y-37902D01*
X108402Y-32855D01*
X116947Y-32855D01*
X117845Y-33752D01*
X117845Y-37597D01*
X117195Y-38247D01*
X117195Y-40352D01*
X117497Y-40655D01*
X118197Y-40655D01*
X120296Y-42753D01*
X120697Y-43205D01*
X121347Y-43205D01*
X121495Y-43352D01*
X121495Y-47997D01*
G54D10*
G36*
X121695Y-40047D02*
X121397Y-40345D01*
X118052Y-40345D01*
X117755Y-40047D01*
X117755Y-38452D01*
X118052Y-38155D01*
X121397Y-38155D01*
X121695Y-38452D01*
X121695Y-40047D01*
X121695Y-40047D01*
G37*
G54D22*
X121695Y-40047D02*
X121397Y-40345D01*
X118052Y-40345D01*
X117755Y-40047D01*
X117755Y-38452D01*
X118052Y-38155D01*
X121397Y-38155D01*
X121695Y-38452D01*
X121695Y-40047D01*
M02*
