G04 (created by PCBNEW (2013-mar-13)-testing) date Fri 28 Mar 2014 08:54:37 PM PDT*
%MOIN*%
G04 Gerber Fmt 3.4, Leading zero omitted, Abs format*
%FSLAX34Y34*%
G01*
G70*
G90*
G04 APERTURE LIST*
%ADD10C,0.005906*%
%ADD11C,0.055748*%
%ADD12R,0.080709X0.080709*%
%ADD13C,0.080709*%
%ADD14C,0.133858*%
%ADD15C,0.163748*%
%ADD16R,0.055118X0.059055*%
%ADD17R,0.059055X0.055118*%
%ADD18C,0.125984*%
%ADD19R,0.029528X0.055118*%
G04 APERTURE END LIST*
G54D10*
G54D11*
X69500Y-55250D03*
X69500Y-54250D03*
X70500Y-55250D03*
X70500Y-54250D03*
X71500Y-55250D03*
X71500Y-54250D03*
X72500Y-55250D03*
X72500Y-54250D03*
X73500Y-55250D03*
X73500Y-54250D03*
X74500Y-55250D03*
X74500Y-54250D03*
X75500Y-55250D03*
X75500Y-54250D03*
X76500Y-55250D03*
X76500Y-54250D03*
X77500Y-55250D03*
X77500Y-54250D03*
X78500Y-55250D03*
X78500Y-54250D03*
X79500Y-55250D03*
X79500Y-54250D03*
X80500Y-55250D03*
X80500Y-54250D03*
X81500Y-55250D03*
X81500Y-54250D03*
X82500Y-55250D03*
X82500Y-54250D03*
X83500Y-55250D03*
X83500Y-54250D03*
X84500Y-55250D03*
X84500Y-54250D03*
X85500Y-55250D03*
X85500Y-54250D03*
X86500Y-55250D03*
X86500Y-54250D03*
X87500Y-55250D03*
X87500Y-54250D03*
X88500Y-55250D03*
X88500Y-54250D03*
X89500Y-55250D03*
X89500Y-54250D03*
X90500Y-55250D03*
X90500Y-54250D03*
X91500Y-55250D03*
X91500Y-54250D03*
X92500Y-55250D03*
X92500Y-54250D03*
X93500Y-55250D03*
X93500Y-54250D03*
G54D12*
X101000Y-42500D03*
G54D13*
X101000Y-43500D03*
X102000Y-42500D03*
X102000Y-43500D03*
X103000Y-42500D03*
X103000Y-43500D03*
X104000Y-42500D03*
X104000Y-43500D03*
X105000Y-42500D03*
X105000Y-43500D03*
G54D12*
X113000Y-42500D03*
G54D13*
X113000Y-43500D03*
X114000Y-42500D03*
X114000Y-43500D03*
X115000Y-42500D03*
X115000Y-43500D03*
X116000Y-42500D03*
X116000Y-43500D03*
X117000Y-42500D03*
X117000Y-43500D03*
G54D12*
X108000Y-42500D03*
G54D13*
X109000Y-42500D03*
X108000Y-43500D03*
X109000Y-43500D03*
X110000Y-42500D03*
X110000Y-43500D03*
G54D12*
X118500Y-38750D03*
G54D13*
X118500Y-39750D03*
X119500Y-38750D03*
X119500Y-39750D03*
G54D12*
X118500Y-46250D03*
G54D13*
X118500Y-47250D03*
X119500Y-46250D03*
X119500Y-47250D03*
G54D14*
X96500Y-35500D03*
X121500Y-50500D03*
X121500Y-35500D03*
X96500Y-50500D03*
G54D15*
X102950Y-29790D03*
X105050Y-29790D03*
X120050Y-56210D03*
X117950Y-56210D03*
X110050Y-56210D03*
X107950Y-56210D03*
X105050Y-56210D03*
X102950Y-56210D03*
X117950Y-29790D03*
X120050Y-29790D03*
X112950Y-29790D03*
X115050Y-29790D03*
X115050Y-56210D03*
X112950Y-56210D03*
X107950Y-29790D03*
X110050Y-29790D03*
G54D16*
X81500Y-34334D03*
X81500Y-33665D03*
G54D17*
X82665Y-37000D03*
X83334Y-37000D03*
G54D16*
X80500Y-33665D03*
X80500Y-34334D03*
X79500Y-33665D03*
X79500Y-34334D03*
G54D17*
X82665Y-35900D03*
X83334Y-35900D03*
G54D16*
X82500Y-34165D03*
X82500Y-34834D03*
X83500Y-34165D03*
X83500Y-34834D03*
X80000Y-31165D03*
X80000Y-31834D03*
X79000Y-31165D03*
X79000Y-31834D03*
X74750Y-45665D03*
X74750Y-46334D03*
G54D17*
X76834Y-44250D03*
X76165Y-44250D03*
X76834Y-43250D03*
X76165Y-43250D03*
G54D16*
X74500Y-48834D03*
X74500Y-48165D03*
X77000Y-45665D03*
X77000Y-46334D03*
X76000Y-45665D03*
X76000Y-46334D03*
X86250Y-43334D03*
X86250Y-42665D03*
X85250Y-43334D03*
X85250Y-42665D03*
X84000Y-43334D03*
X84000Y-42665D03*
X83000Y-43334D03*
X83000Y-42665D03*
X80500Y-45665D03*
X80500Y-46334D03*
X82500Y-48584D03*
X82500Y-47915D03*
X91250Y-44684D03*
X91250Y-44015D03*
X90250Y-44684D03*
X90250Y-44015D03*
X91250Y-40915D03*
X91250Y-41584D03*
X90250Y-40915D03*
X90250Y-41584D03*
X97000Y-44834D03*
X97000Y-44165D03*
X98000Y-44834D03*
X98000Y-44165D03*
X97000Y-41165D03*
X97000Y-41834D03*
X98000Y-41165D03*
X98000Y-41834D03*
X110500Y-39834D03*
X110500Y-39165D03*
X111500Y-39834D03*
X111500Y-39165D03*
X111450Y-36665D03*
X111450Y-37334D03*
X110450Y-36665D03*
X110450Y-37334D03*
G54D18*
X71250Y-27244D03*
X71250Y-25000D03*
X71250Y-22755D03*
X73415Y-27244D03*
X73415Y-25000D03*
X73415Y-22755D03*
G54D14*
X68375Y-27244D03*
X68375Y-22755D03*
G54D19*
X102127Y-39181D03*
X102383Y-39181D03*
X102639Y-39181D03*
X102895Y-39181D03*
X103151Y-39181D03*
X101872Y-39181D03*
X101616Y-39181D03*
X101360Y-39181D03*
X101104Y-39181D03*
X100848Y-39181D03*
X100848Y-36818D03*
X101104Y-36818D03*
X101360Y-36818D03*
X101616Y-36818D03*
X101872Y-36818D03*
X102127Y-36818D03*
X102383Y-36818D03*
X102639Y-36818D03*
X102895Y-36818D03*
X103151Y-36818D03*
X101872Y-46818D03*
X101616Y-46818D03*
X101360Y-46818D03*
X101104Y-46818D03*
X100848Y-46818D03*
X102127Y-46818D03*
X102383Y-46818D03*
X102639Y-46818D03*
X102895Y-46818D03*
X103151Y-46818D03*
X103151Y-49181D03*
X102895Y-49181D03*
X102639Y-49181D03*
X102383Y-49181D03*
X102127Y-49181D03*
X101872Y-49181D03*
X101616Y-49181D03*
X101360Y-49181D03*
X101104Y-49181D03*
X100848Y-49181D03*
M02*
