M48
;DRILL file {Pcbnew (2013-mar-13)-testing} date Sun 30 Mar 2014 08:45:45 PM PDT
;FORMAT={-:-/ absolute / inch / decimal}
FMAT,2
INCH,TZ
T1C0.118
T2C0.134
%
G90
G05
M72
T1
X6.8376Y-2.2756
X6.8376Y-2.7244
X9.65Y-3.55
X9.65Y-5.05
X12.15Y-3.55
X12.15Y-5.05
T2
X10.295Y-2.979
X10.295Y-5.621
X10.505Y-2.979
X10.505Y-5.621
X10.795Y-2.979
X10.795Y-5.621
X11.005Y-2.979
X11.005Y-5.621
X11.295Y-2.979
X11.295Y-5.621
X11.505Y-2.979
X11.505Y-5.621
X11.795Y-2.979
X11.795Y-5.621
X12.005Y-2.979
X12.005Y-5.621
T0
M30
