G04 (created by PCBNEW (2013-mar-13)-testing) date Sun 30 Mar 2014 08:45:39 PM PDT*
%MOIN*%
G04 Gerber Fmt 3.4, Leading zero omitted, Abs format*
%FSLAX34Y34*%
G01*
G70*
G90*
G04 APERTURE LIST*
%ADD10C,0.005906*%
%ADD11C,0.055748*%
%ADD12R,0.080709X0.080709*%
%ADD13C,0.080709*%
%ADD14C,0.133858*%
%ADD15R,0.080748X0.225748*%
%ADD16C,0.163748*%
%ADD17R,0.055118X0.059055*%
%ADD18R,0.059055X0.055118*%
%ADD19C,0.125984*%
%ADD20R,0.078740X0.064961*%
%ADD21R,0.025591X0.086614*%
%ADD22R,0.066929X0.090551*%
%ADD23R,0.094488X0.090551*%
%ADD24R,0.029921X0.078740*%
%ADD25O,0.055118X0.025591*%
%ADD26O,0.025591X0.055118*%
%ADD27R,0.090551X0.090551*%
%ADD28R,0.031496X0.082677*%
%ADD29R,0.029528X0.055118*%
G04 APERTURE END LIST*
G54D10*
G54D11*
X69500Y-55250D03*
X69500Y-54250D03*
X70500Y-55250D03*
X70500Y-54250D03*
X71500Y-55250D03*
X71500Y-54250D03*
X72500Y-55250D03*
X72500Y-54250D03*
X73500Y-55250D03*
X73500Y-54250D03*
X74500Y-55250D03*
X74500Y-54250D03*
X75500Y-55250D03*
X75500Y-54250D03*
X76500Y-55250D03*
X76500Y-54250D03*
X77500Y-55250D03*
X77500Y-54250D03*
X78500Y-55250D03*
X78500Y-54250D03*
X79500Y-55250D03*
X79500Y-54250D03*
X80500Y-55250D03*
X80500Y-54250D03*
X81500Y-55250D03*
X81500Y-54250D03*
X82500Y-55250D03*
X82500Y-54250D03*
X83500Y-55250D03*
X83500Y-54250D03*
X84500Y-55250D03*
X84500Y-54250D03*
X85500Y-55250D03*
X85500Y-54250D03*
X86500Y-55250D03*
X86500Y-54250D03*
X87500Y-55250D03*
X87500Y-54250D03*
X88500Y-55250D03*
X88500Y-54250D03*
X89500Y-55250D03*
X89500Y-54250D03*
X90500Y-55250D03*
X90500Y-54250D03*
X91500Y-55250D03*
X91500Y-54250D03*
X92500Y-55250D03*
X92500Y-54250D03*
X93500Y-55250D03*
X93500Y-54250D03*
G54D12*
X101000Y-42500D03*
G54D13*
X101000Y-43500D03*
X102000Y-42500D03*
X102000Y-43500D03*
X103000Y-42500D03*
X103000Y-43500D03*
X104000Y-42500D03*
X104000Y-43500D03*
X105000Y-42500D03*
X105000Y-43500D03*
G54D12*
X113000Y-42500D03*
G54D13*
X113000Y-43500D03*
X114000Y-42500D03*
X114000Y-43500D03*
X115000Y-42500D03*
X115000Y-43500D03*
X116000Y-42500D03*
X116000Y-43500D03*
X117000Y-42500D03*
X117000Y-43500D03*
G54D12*
X108000Y-42500D03*
G54D13*
X109000Y-42500D03*
X108000Y-43500D03*
X109000Y-43500D03*
X110000Y-42500D03*
X110000Y-43500D03*
G54D12*
X118500Y-38750D03*
G54D13*
X118500Y-39750D03*
X119500Y-38750D03*
X119500Y-39750D03*
G54D12*
X118500Y-46250D03*
G54D13*
X118500Y-47250D03*
X119500Y-46250D03*
X119500Y-47250D03*
G54D14*
X96500Y-35500D03*
X121500Y-50500D03*
X121500Y-35500D03*
X96500Y-50500D03*
G54D15*
X103500Y-34000D03*
X104500Y-34000D03*
G54D16*
X102950Y-29790D03*
X105050Y-29790D03*
G54D15*
X119500Y-52000D03*
X118500Y-52000D03*
G54D16*
X120050Y-56210D03*
X117950Y-56210D03*
G54D15*
X109500Y-52000D03*
X108500Y-52000D03*
G54D16*
X110050Y-56210D03*
X107950Y-56210D03*
G54D15*
X104500Y-52000D03*
X103500Y-52000D03*
G54D16*
X105050Y-56210D03*
X102950Y-56210D03*
G54D15*
X118500Y-34000D03*
X119500Y-34000D03*
G54D16*
X117950Y-29790D03*
X120050Y-29790D03*
G54D15*
X113500Y-34000D03*
X114500Y-34000D03*
G54D16*
X112950Y-29790D03*
X115050Y-29790D03*
G54D15*
X114500Y-52000D03*
X113500Y-52000D03*
G54D16*
X115050Y-56210D03*
X112950Y-56210D03*
G54D15*
X108500Y-34000D03*
X109500Y-34000D03*
G54D16*
X107950Y-29790D03*
X110050Y-29790D03*
G54D17*
X83500Y-33165D03*
X83500Y-33834D03*
G54D18*
X81415Y-39850D03*
X82084Y-39850D03*
G54D17*
X83500Y-37765D03*
X83500Y-38434D03*
X103050Y-39134D03*
X103050Y-38465D03*
X101500Y-46165D03*
X101500Y-46834D03*
X102500Y-36165D03*
X102500Y-36834D03*
X101500Y-49834D03*
X101500Y-49165D03*
X82500Y-33834D03*
X82500Y-33165D03*
G54D18*
X82084Y-39050D03*
X81415Y-39050D03*
G54D17*
X82700Y-38434D03*
X82700Y-37765D03*
G54D18*
X81834Y-44250D03*
X81165Y-44250D03*
G54D17*
X94000Y-50165D03*
X94000Y-50834D03*
X91000Y-50165D03*
X91000Y-50834D03*
X88000Y-50165D03*
X88000Y-50834D03*
X85000Y-50165D03*
X85000Y-50834D03*
X85250Y-35834D03*
X85250Y-35165D03*
X88250Y-35834D03*
X88250Y-35165D03*
X91250Y-35834D03*
X91250Y-35165D03*
X94250Y-35834D03*
X94250Y-35165D03*
G54D19*
X71250Y-27244D03*
X71250Y-25000D03*
X71250Y-22755D03*
X73415Y-27244D03*
X73415Y-25000D03*
X73415Y-22755D03*
G54D14*
X68375Y-27244D03*
X68375Y-22755D03*
G54D20*
X80771Y-27566D03*
X80771Y-28433D03*
X82228Y-27566D03*
X82228Y-28433D03*
G54D21*
X79393Y-30883D03*
X79196Y-30883D03*
X79000Y-30883D03*
X78803Y-30883D03*
X78606Y-30883D03*
X78606Y-32616D03*
X78803Y-32616D03*
X79000Y-32616D03*
X79196Y-32616D03*
X79393Y-32616D03*
G54D22*
X84507Y-32003D03*
X85492Y-32003D03*
G54D23*
X85000Y-29996D03*
G54D22*
X77507Y-43303D03*
X78492Y-43303D03*
G54D23*
X78000Y-41296D03*
G54D22*
X95007Y-49003D03*
X95992Y-49003D03*
G54D23*
X95500Y-46996D03*
G54D22*
X92007Y-49003D03*
X92992Y-49003D03*
G54D23*
X92500Y-46996D03*
G54D22*
X89007Y-49003D03*
X89992Y-49003D03*
G54D23*
X89500Y-46996D03*
G54D22*
X86007Y-49003D03*
X86992Y-49003D03*
G54D23*
X86500Y-46996D03*
G54D22*
X87242Y-36996D03*
X86257Y-36996D03*
G54D23*
X86750Y-39003D03*
G54D22*
X90242Y-36996D03*
X89257Y-36996D03*
G54D23*
X89750Y-39003D03*
G54D22*
X93242Y-36996D03*
X92257Y-36996D03*
G54D23*
X92750Y-39003D03*
G54D22*
X96242Y-36996D03*
X95257Y-36996D03*
G54D23*
X95750Y-39003D03*
G54D24*
X111625Y-39643D03*
X112125Y-39643D03*
X111875Y-39643D03*
X112375Y-39643D03*
X111375Y-39643D03*
X110875Y-39643D03*
X111125Y-39643D03*
X110625Y-39643D03*
X110625Y-37556D03*
X111125Y-37556D03*
X110875Y-37556D03*
X111375Y-37556D03*
X112375Y-37556D03*
X111875Y-37556D03*
X112125Y-37556D03*
X111625Y-37556D03*
X98125Y-44043D03*
X98625Y-44043D03*
X98375Y-44043D03*
X98875Y-44043D03*
X97875Y-44043D03*
X97375Y-44043D03*
X97625Y-44043D03*
X97125Y-44043D03*
X97125Y-41956D03*
X97625Y-41956D03*
X97375Y-41956D03*
X97875Y-41956D03*
X98875Y-41956D03*
X98375Y-41956D03*
X98625Y-41956D03*
X98125Y-41956D03*
X91625Y-44043D03*
X92125Y-44043D03*
X91875Y-44043D03*
X92375Y-44043D03*
X91375Y-44043D03*
X90875Y-44043D03*
X91125Y-44043D03*
X90625Y-44043D03*
X90625Y-41956D03*
X91125Y-41956D03*
X90875Y-41956D03*
X91375Y-41956D03*
X92375Y-41956D03*
X91875Y-41956D03*
X92125Y-41956D03*
X91625Y-41956D03*
G54D25*
X79180Y-37346D03*
X79180Y-37150D03*
X79180Y-36756D03*
X79180Y-36953D03*
X79180Y-37543D03*
X80519Y-36756D03*
X80519Y-37346D03*
X80519Y-37543D03*
X80519Y-37150D03*
X80519Y-36953D03*
G54D26*
X80046Y-37819D03*
X79850Y-37819D03*
X79456Y-37819D03*
X79653Y-37819D03*
X80243Y-37819D03*
X79456Y-36480D03*
X80046Y-36480D03*
X80243Y-36480D03*
X79850Y-36480D03*
X79653Y-36480D03*
G54D27*
X79850Y-37150D03*
G54D28*
X81372Y-46542D03*
X81116Y-46542D03*
X81627Y-46542D03*
X81883Y-46542D03*
X81883Y-48157D03*
X81627Y-48157D03*
X81116Y-48157D03*
X81372Y-48157D03*
X84777Y-43157D03*
X85033Y-43157D03*
X84522Y-43157D03*
X84266Y-43157D03*
X84266Y-41542D03*
X84522Y-41542D03*
X85033Y-41542D03*
X84777Y-41542D03*
G54D29*
X76500Y-45868D03*
X76755Y-45868D03*
X77267Y-45868D03*
X77011Y-45868D03*
X75988Y-45868D03*
X76244Y-45868D03*
X75732Y-45868D03*
X77267Y-48231D03*
X76755Y-48231D03*
X77011Y-48231D03*
X75988Y-48231D03*
X75732Y-48231D03*
X76244Y-48231D03*
X76500Y-48231D03*
M02*
