<?xml version="1.0" encoding="UTF-8" standalone="no"?>
<svg
   xmlns:dc="http://purl.org/dc/elements/1.1/"
   xmlns:cc="http://creativecommons.org/ns#"
   xmlns:rdf="http://www.w3.org/1999/02/22-rdf-syntax-ns#"
   xmlns:svg="http://www.w3.org/2000/svg"
   xmlns="http://www.w3.org/2000/svg"
   xmlns:sodipodi="http://sodipodi.sourceforge.net/DTD/sodipodi-0.dtd"
   xmlns:inkscape="http://www.inkscape.org/namespaces/inkscape"
   version="1.1"
   width="275.66974"
   height="204.61479"
   viewBox="0 0 30629.992 22734.999"
   id="svg3582"
   inkscape:version="0.48.3.1 r9886"
   sodipodi:docname="clocksch.svg">
  <metadata
     id="metadata4158">
    <rdf:RDF>
      <cc:Work
         rdf:about="">
        <dc:format>image/svg+xml</dc:format>
        <dc:type
           rdf:resource="http://purl.org/dc/dcmitype/StillImage" />
        <dc:title>SVG Picture created as clocksch.svg date 2014/04/01 18:40:37 </dc:title>
      </cc:Work>
    </rdf:RDF>
  </metadata>
  <defs
     id="defs4156" />
  <sodipodi:namedview
     pagecolor="#ffffff"
     bordercolor="#666666"
     borderopacity="1"
     objecttolerance="10"
     gridtolerance="10"
     guidetolerance="10"
     inkscape:pageopacity="0"
     inkscape:pageshadow="2"
     inkscape:window-width="640"
     inkscape:window-height="480"
     id="namedview4154"
     showgrid="false"
     fit-margin-top="0"
     fit-margin-left="0"
     fit-margin-right="0"
     fit-margin-bottom="0"
     inkscape:zoom="0.31715346"
     inkscape:cx="143.95486"
     inkscape:cy="32.309968"
     inkscape:window-x="0"
     inkscape:window-y="27"
     inkscape:window-maximized="0"
     inkscape:current-layer="svg3582" />
  <title
     id="title3584">SVG Picture created as clocksch.svg date 2014/04/01 18:40:37 </title>
  <desc
     id="desc3586">Picture generated by Eeschema-SVG </desc>
  <g
     style="fill:#000000;fill-opacity:1;stroke:#000000;stroke-linecap:round;stroke-linejoin:round;stroke-opacity:1"
     id="g3588"
     transform="translate(-42470.017,-22195)" />
  <g
     style="fill:#000000;fill-opacity:0;stroke:#000000;stroke-width:0;stroke-linecap:round;stroke-linejoin:round;stroke-opacity:1"
     id="g3590"
     transform="translate(-42470.017,-22195)" />
  <g
     style="fill:#840000;fill-opacity:0;stroke:#840000;stroke-width:60;stroke-linecap:round;stroke-linejoin:round;stroke-opacity:1"
     id="g3592"
     transform="translate(-42470.017,-22195)">
    <circle
       cx="57500"
       cy="22900"
       r="200"
       id="circle3594"
       sodipodi:cx="57500"
       sodipodi:cy="22900"
       sodipodi:rx="200"
       sodipodi:ry="200"
       d="m 57700,22900 c 0,110.457 -89.543,200 -200,200 -110.457,0 -200,-89.543 -200,-200 0,-110.457 89.543,-200 200,-200 110.457,0 200,89.543 200,200 z" />
    <polyline
       fill="none;"
       points="57500,23500 57500,23100 57500,23100 "
       id="polyline3596" />
  </g>
  <g
     style="fill:#008484;fill-opacity:0;stroke:#008484;stroke-width:50;stroke-linecap:round;stroke-linejoin:round;stroke-opacity:1"
     id="g3598"
     transform="translate(-42470.017,-22195)">
    <path
       d="m 56460,22520 0,-300 70,0 50,10 20,30 20,30 10,50 0,50 -10,50 -20,30 -20,30 -50,20 -70,0"
       id="path3600"
       inkscape:connector-curvature="0" />
    <path
       d="m 56720,22220 100,300 100,-300"
       id="path3602"
       inkscape:connector-curvature="0" />
    <path
       d="m 57020,22520 0,-300 70,0 50,10 20,30 20,30 10,50 0,50 -10,50 -20,30 -20,30 -50,20 -70,0"
       id="path3604"
       inkscape:connector-curvature="0" />
    <path
       d="m 57320,22520 0,-300 70,0 50,10 20,30 20,30 10,50 0,50 -10,50 -20,30 -20,30 -50,20 -70,0"
       id="path3606"
       inkscape:connector-curvature="0" />
    <path
       d="m 57550,22540 230,0"
       id="path3608"
       inkscape:connector-curvature="0" />
    <path
       d="m 57820,22220 190,0 -100,110 40,0 30,10 10,20 20,30 0,70 -20,30 -10,10 -30,20 -80,0 -30,-20 -20,-10"
       id="path3610"
       inkscape:connector-curvature="0" />
    <path
       d="m 58100,22220 100,300 100,-300"
       id="path3612"
       inkscape:connector-curvature="0" />
    <path
       d="m 58370,22220 190,0 -100,110 40,0 30,10 10,20 20,30 0,70 -20,30 -10,10 -30,20 -80,0 -30,-20 -20,-10"
       id="path3614"
       inkscape:connector-curvature="0" />
  </g>
  <g
     style="fill:#008484;fill-opacity:0;stroke:#008484;stroke-width:0;stroke-linecap:round;stroke-linejoin:round;stroke-opacity:1"
     id="g3616"
     transform="translate(-42470.017,-22195)" />
  <g
     style="fill:#840000;fill-opacity:0;stroke:#840000;stroke-width:200;stroke-linecap:round;stroke-linejoin:round;stroke-opacity:1"
     id="g3618"
     transform="translate(-42470.017,-22195)">
    <polyline
       fill="none;"
       points="55200,29300 55200,27700 "
       id="polyline3620" />
    <polyline
       fill="none;"
       points="55800,29300 55800,27700 "
       id="polyline3622" />
  </g>
  <g
     style="fill:#840000;fill-opacity:0;stroke:#840000;stroke-width:60;stroke-linecap:round;stroke-linejoin:round;stroke-opacity:1"
     id="g3624"
     transform="translate(-42470.017,-22195)">
    <path
       d="m 55800,28500 1700,0"
       id="path3626"
       inkscape:connector-curvature="0" />
  </g>
  <g
     style="fill:#008484;fill-opacity:0;stroke:#008484;stroke-width:60;stroke-linecap:round;stroke-linejoin:round;stroke-opacity:1"
     id="g3628"
     transform="translate(-42470.017,-22195)">
    <path
       d="m 55200,28500 -1700,0"
       id="path3630"
       inkscape:connector-curvature="0" />
  </g>
  <g
     style="fill:#008484;fill-opacity:0;stroke:#008484;stroke-width:60;stroke-linecap:round;stroke-linejoin:round;stroke-opacity:1"
     id="g3632"
     transform="translate(-42470.017,-22195)">
    <path
       d="m 56710,27600 20,20 30,70 0,50 -30,70 -50,50 -40,20 -100,20 -70,0 -90,-20 -50,-20 -50,-50 -20,-70 0,-50 20,-70 20,-20"
       id="path3634"
       inkscape:connector-curvature="0" />
    <path
       d="m 56300,27400 -20,-20 -20,-50 0,-120 20,-40 20,-30 50,-20 50,0 70,20 290,290 0,-310"
       id="path3636"
       inkscape:connector-curvature="0" />
    <path
       d="m 54760,27620 0,280"
       id="path3638"
       inkscape:connector-curvature="0" />
    <path
       d="m 54760,27760 -500,0 70,50 50,50 20,40"
       id="path3640"
       inkscape:connector-curvature="0" />
    <path
       d="m 54420,27190 340,0"
       id="path3642"
       inkscape:connector-curvature="0" />
    <path
       d="m 54420,27400 260,0 50,-20 30,-50 0,-70 -30,-50 -20,-20"
       id="path3644"
       inkscape:connector-curvature="0" />
    <path
       d="m 54490,26780 0,170"
       id="path3646"
       inkscape:connector-curvature="0" />
    <path
       d="m 54760,26950 -500,0 0,-240"
       id="path3648"
       inkscape:connector-curvature="0" />
  </g>
  <g
     style="fill:#008484;fill-opacity:0;stroke:#008484;stroke-width:0;stroke-linecap:round;stroke-linejoin:round;stroke-opacity:1"
     id="g3650"
     transform="translate(-42470.017,-22195)" />
  <g
     style="fill:#840000;fill-opacity:0;stroke:#840000;stroke-width:200;stroke-linecap:round;stroke-linejoin:round;stroke-opacity:1"
     id="g3652"
     transform="translate(-42470.017,-22195)">
    <polyline
       fill="none;"
       points="55200,26300 55200,24700 "
       id="polyline3654" />
    <polyline
       fill="none;"
       points="55800,26300 55800,24700 "
       id="polyline3656" />
  </g>
  <g
     style="fill:#840000;fill-opacity:0;stroke:#840000;stroke-width:60;stroke-linecap:round;stroke-linejoin:round;stroke-opacity:1"
     id="g3658"
     transform="translate(-42470.017,-22195)">
    <path
       d="m 55800,25500 1700,0"
       id="path3660"
       inkscape:connector-curvature="0" />
  </g>
  <g
     style="fill:#008484;fill-opacity:0;stroke:#008484;stroke-width:60;stroke-linecap:round;stroke-linejoin:round;stroke-opacity:1"
     id="g3662"
     transform="translate(-42470.017,-22195)">
    <path
       d="m 55200,25500 -1700,0"
       id="path3664"
       inkscape:connector-curvature="0" />
  </g>
  <g
     style="fill:#008484;fill-opacity:0;stroke:#008484;stroke-width:60;stroke-linecap:round;stroke-linejoin:round;stroke-opacity:1"
     id="g3666"
     transform="translate(-42470.017,-22195)">
    <path
       d="m 56710,24600 20,20 30,70 0,50 -30,70 -50,50 -40,20 -100,20 -70,0 -90,-20 -50,-20 -50,-50 -20,-70 0,-50 20,-70 20,-20"
       id="path3668"
       inkscape:connector-curvature="0" />
    <path
       d="m 56760,24120 0,280"
       id="path3670"
       inkscape:connector-curvature="0" />
    <path
       d="m 56760,24260 -500,0 70,50 50,50 20,40"
       id="path3672"
       inkscape:connector-curvature="0" />
    <path
       d="m 54260,24790 0,-50 20,-50 20,-20 50,-30 100,-20 120,0 90,20 50,30 20,20 30,50 0,50 -30,40 -20,30 -50,20 -90,20 -120,0 -100,-20 -50,-20 -20,-30 -20,-40"
       id="path3674"
       inkscape:connector-curvature="0" />
    <path
       d="m 54710,24400 20,-20 30,20 -30,20 -20,-20 50,0"
       id="path3676"
       inkscape:connector-curvature="0" />
    <path
       d="m 54760,23900 0,280"
       id="path3678"
       inkscape:connector-curvature="0" />
    <path
       d="m 54760,24040 -500,0 70,50 50,50 20,40"
       id="path3680"
       inkscape:connector-curvature="0" />
    <path
       d="m 54420,23470 340,0"
       id="path3682"
       inkscape:connector-curvature="0" />
    <path
       d="m 54420,23680 260,0 50,-20 30,-50 0,-70 -30,-50 -20,-20"
       id="path3684"
       inkscape:connector-curvature="0" />
    <path
       d="m 54490,23060 0,170"
       id="path3686"
       inkscape:connector-curvature="0" />
    <path
       d="m 54760,23230 -500,0 0,-240"
       id="path3688"
       inkscape:connector-curvature="0" />
  </g>
  <g
     style="fill:#008484;fill-opacity:0;stroke:#008484;stroke-width:0;stroke-linecap:round;stroke-linejoin:round;stroke-opacity:1"
     id="g3690"
     transform="translate(-42470.017,-22195)" />
  <g
     style="fill:#840000;fill-opacity:0;stroke:#840000;stroke-width:60;stroke-linecap:round;stroke-linejoin:round;stroke-opacity:1"
     id="g3692"
     transform="translate(-42470.017,-22195)">
    <polyline
       fill="none;"
       points="52000,27400 52000,26600 51600,27000 52000,27400 "
       id="polyline3694" />
  </g>
  <g
     style="fill:#008484;fill-opacity:0;stroke:#008484;stroke-width:60;stroke-linecap:round;stroke-linejoin:round;stroke-opacity:1"
     id="g3696"
     transform="translate(-42470.017,-22195)">
    <path
       d="m 51410,27860 0,-230"
       id="path3698"
       inkscape:connector-curvature="0" />
    <path
       d="m 51560,27910 -500,-160 500,-170"
       id="path3700"
       inkscape:connector-curvature="0" />
    <path
       d="m 51080,27150 -20,50 0,70 20,70 50,50 50,20 90,20 70,0 100,-20 40,-20 50,-50 30,-70 0,-50 -30,-70 -20,-20 -170,0 0,90"
       id="path3702"
       inkscape:connector-curvature="0" />
    <path
       d="m 51560,26910 -500,0 500,-280 -500,0"
       id="path3704"
       inkscape:connector-curvature="0" />
    <path
       d="m 51560,26390 -500,0 0,-120 20,-70 50,-50 50,-20 90,-20 70,0 100,20 40,20 50,50 30,70 0,120"
       id="path3706"
       inkscape:connector-curvature="0" />
    <path
       d="m 51000,39500 1000,-1000"
       id="path3708"
       inkscape:connector-curvature="0" />
  </g>
  <g
     style="fill:#008400;fill-opacity:0;stroke:#008400;stroke-width:60;stroke-linecap:round;stroke-linejoin:round;stroke-opacity:1"
     id="g3710"
     transform="translate(-42470.017,-22195)">
    <path
       d="m 51000,38500 1000,-1000"
       id="path3712"
       inkscape:connector-curvature="0" />
  </g>
  <g
     style="fill:#008400;fill-opacity:0;stroke:#008400;stroke-width:0;stroke-linecap:round;stroke-linejoin:round;stroke-opacity:1"
     id="g3714"
     transform="translate(-42470.017,-22195)" />
  <g
     style="fill:#840000;fill-opacity:0;stroke:#840000;stroke-width:60;stroke-linecap:round;stroke-linejoin:round;stroke-opacity:1"
     id="g3716"
     transform="translate(-42470.017,-22195)">
    <polyline
       fill="none;"
       points="59100,44000 59900,44000 59500,44400 59100,44000 "
       id="polyline3718" />
  </g>
  <g
     style="fill:#008484;fill-opacity:0;stroke:#008484;stroke-width:60;stroke-linecap:round;stroke-linejoin:round;stroke-opacity:1"
     id="g3720"
     transform="translate(-42470.017,-22195)">
    <path
       d="m 58630,44750 230,0"
       id="path3722"
       inkscape:connector-curvature="0" />
    <path
       d="m 58580,44900 160,-500 170,500"
       id="path3724"
       inkscape:connector-curvature="0" />
    <path
       d="m 59340,44420 -50,-20 -70,0 -70,20 -50,50 -20,50 -20,90 0,70 20,100 20,40 50,50 70,30 50,0 70,-30 20,-20 0,-170 -90,0"
       id="path3726"
       inkscape:connector-curvature="0" />
    <path
       d="m 59580,44900 0,-500 280,500 0,-500"
       id="path3728"
       inkscape:connector-curvature="0" />
    <path
       d="m 60100,44900 0,-500 120,0 70,20 50,50 20,50 20,90 0,70 -20,100 -20,40 -50,50 -70,30 -120,0"
       id="path3730"
       inkscape:connector-curvature="0" />
  </g>
  <g
     style="fill:#008484;fill-opacity:0;stroke:#008484;stroke-width:0;stroke-linecap:round;stroke-linejoin:round;stroke-opacity:1"
     id="g3732"
     transform="translate(-42470.017,-22195)" />
  <g
     style="fill:#840000;fill-opacity:0;stroke:#840000;stroke-width:160;stroke-linecap:round;stroke-linejoin:round;stroke-opacity:1"
     id="g3734"
     transform="translate(-42470.017,-22195)">
    <polyline
       fill="none;"
       points="45500,35500 43500,35500 "
       id="polyline3736" />
    <polyline
       fill="none;"
       points="45500,33500 43500,33500 "
       id="polyline3738" />
  </g>
  <g
     style="fill:#ffffc2;fill-opacity:0.6;stroke:#ffffc2;stroke-width:0;stroke-linecap:round;stroke-linejoin:round;stroke-opacity:1"
     id="g3740"
     transform="translate(-42470.017,-22195)">
    <polyline
       style="fill-rule:evenodd"
       points="45000,35000 45000,34000 44000,34000 44000,35000 45000,35000 "
       id="polyline3742" />
  </g>
  <g
     style="fill:#840000;fill-opacity:0;stroke:#840000;stroke-width:120;stroke-linecap:round;stroke-linejoin:round;stroke-opacity:1"
     id="g3744"
     transform="translate(-42470.017,-22195)">
    <polyline
       fill="none;"
       points="45000,35000 45000,34000 44000,34000 44000,35000 45000,35000 "
       id="polyline3746" />
  </g>
  <g
     style="fill:#840000;fill-opacity:0;stroke:#840000;stroke-width:60;stroke-linecap:round;stroke-linejoin:round;stroke-opacity:1"
     id="g3748"
     transform="translate(-42470.017,-22195)">
    <path
       d="m 44500,35500 0,2000"
       id="path3750"
       inkscape:connector-curvature="0" />
    <path
       d="m 44500,33500 0,-2000"
       id="path3752"
       inkscape:connector-curvature="0" />
  </g>
  <g
     style="fill:#008484;fill-opacity:0;stroke:#008484;stroke-width:60;stroke-linecap:round;stroke-linejoin:round;stroke-opacity:1"
     id="g3754"
     transform="translate(-42470.017,-22195)">
    <path
       d="m 45700,34980 600,-400"
       id="path3756"
       inkscape:connector-curvature="0" />
    <path
       d="m 45700,34580 600,400"
       id="path3758"
       inkscape:connector-curvature="0" />
    <path
       d="m 46300,34040 0,350"
       id="path3760"
       inkscape:connector-curvature="0" />
    <path
       d="m 46300,34210 -600,0 90,60 50,60 30,60"
       id="path3762"
       inkscape:connector-curvature="0" />
    <path
       d="m 43460,30740 -30,30 -90,30 -60,0 -80,-30 -60,-50 -30,-60 -30,-120 0,-80 30,-120 30,-50 60,-60 80,-30 60,0 90,30 30,30"
       id="path3764"
       inkscape:connector-curvature="0" />
    <path
       d="m 44060,30800 -200,-280"
       id="path3766"
       inkscape:connector-curvature="0" />
    <path
       d="m 43710,30800 0,-600 230,0 60,30 30,30 30,60 0,80 -30,60 -30,30 -60,30 -230,0"
       id="path3768"
       inkscape:connector-curvature="0" />
    <path
       d="m 44430,30520 0,280"
       id="path3770"
       inkscape:connector-curvature="0" />
    <path
       d="m 44230,30200 200,320 200,-320"
       id="path3772"
       inkscape:connector-curvature="0" />
    <path
       d="m 44790,30770 90,30 140,0 60,-30 30,-30 30,-50 0,-60 -30,-60 -30,-30 -60,-20 -110,-30 -60,-30 -30,-30 -30,-60 0,-50 30,-60 30,-30 60,-30 140,0 90,30"
       id="path3774"
       inkscape:connector-curvature="0" />
    <path
       d="m 45310,30200 340,0"
       id="path3776"
       inkscape:connector-curvature="0" />
    <path
       d="m 45480,30800 0,-600"
       id="path3778"
       inkscape:connector-curvature="0" />
    <path
       d="m 45820,30630 290,0"
       id="path3780"
       inkscape:connector-curvature="0" />
    <path
       d="m 45770,30800 200,-600 200,600"
       id="path3782"
       inkscape:connector-curvature="0" />
    <path
       d="m 46650,30800 -290,0 0,-600"
       id="path3784"
       inkscape:connector-curvature="0" />
    <path
       d="m 47110,30200 -110,0 -60,30 -30,30 -60,80 -30,120 0,230 30,50 30,30 60,30 110,0 60,-30 30,-30 30,-50 0,-150 -30,-50 -30,-30 -60,-30 -110,0 -60,30 -30,30 -30,50"
       id="path3786"
       inkscape:connector-curvature="0" />
    <path
       d="m 47420,30570 460,0"
       id="path3788"
       inkscape:connector-curvature="0" />
    <path
       d="m 48480,30800 -350,0"
       id="path3790"
       inkscape:connector-curvature="0" />
    <path
       d="m 48310,30800 0,-600 -60,90 -60,50 -60,30"
       id="path3792"
       inkscape:connector-curvature="0" />
    <path
       d="m 48850,30200 50,0 60,30 30,30 30,60 30,110 0,140 -30,120 -30,50 -30,30 -60,30 -50,0 -60,-30 -30,-30 -30,-50 -30,-120 0,-140 30,-110 30,-60 30,-30 60,-30"
       id="path3794"
       inkscape:connector-curvature="0" />
    <path
       d="m 49300,30400 0,600"
       id="path3796"
       inkscape:connector-curvature="0" />
    <path
       d="m 49300,30430 60,-30 110,0 60,30 30,30 30,60 0,170 -30,50 -30,30 -60,30 -110,0 -60,-30"
       id="path3798"
       inkscape:connector-curvature="0" />
    <path
       d="m 49760,30400 230,0"
       id="path3800"
       inkscape:connector-curvature="0" />
    <path
       d="m 49840,30800 0,-510 30,-60 60,-30 60,0"
       id="path3802"
       inkscape:connector-curvature="0" />
  </g>
  <g
     style="fill:#008484;fill-opacity:0;stroke:#008484;stroke-width:0;stroke-linecap:round;stroke-linejoin:round;stroke-opacity:1"
     id="g3804"
     transform="translate(-42470.017,-22195)" />
  <g
     style="fill:#840000;fill-opacity:0;stroke:#840000;stroke-width:60;stroke-linecap:round;stroke-linejoin:round;stroke-opacity:1"
     id="g3806"
     transform="translate(-42470.017,-22195)">
    <rect
       x="55000"
       y="32000"
       width="9000"
       height="9000"
       rx="0"
       id="rect3808" />
    <path
       d="m 57500,32000 0,-3000"
       id="path3810"
       inkscape:connector-curvature="0" />
  </g>
  <g
     style="fill:#008484;fill-opacity:0;stroke:#008484;stroke-width:60;stroke-linecap:round;stroke-linejoin:round;stroke-opacity:1"
     id="g3812"
     transform="translate(-42470.017,-22195)">
    <path
       d="m 57230,33780 500,-160 -500,-170"
       id="path3814"
       inkscape:connector-curvature="0" />
    <path
       d="m 57730,33280 -500,0 0,-120 20,-70 50,-50 50,-20 90,-20 70,0 100,20 40,20 50,50 30,70 0,120"
       id="path3816"
       inkscape:connector-curvature="0" />
    <path
       d="m 57730,32780 -500,0 0,-120 20,-70 50,-50 50,-20 90,-20 70,0 100,20 40,20 50,50 30,70 0,120"
       id="path3818"
       inkscape:connector-curvature="0" />
  </g>
  <g
     style="fill:#840000;fill-opacity:0;stroke:#840000;stroke-width:60;stroke-linecap:round;stroke-linejoin:round;stroke-opacity:1"
     id="g3820"
     transform="translate(-42470.017,-22195)">
    <path
       d="m 57380,30360 0,280"
       id="path3822"
       inkscape:connector-curvature="0" />
    <path
       d="m 57380,30500 -500,0 70,50 50,50 20,40"
       id="path3824"
       inkscape:connector-curvature="0" />
    <path
       d="m 55000,34000 -3000,0"
       id="path3826"
       inkscape:connector-curvature="0" />
  </g>
  <g
     style="fill:#008484;fill-opacity:0;stroke:#008484;stroke-width:60;stroke-linecap:round;stroke-linejoin:round;stroke-opacity:1"
     id="g3828"
     transform="translate(-42470.017,-22195)">
    <path
       d="m 55470,33730 330,500"
       id="path3830"
       inkscape:connector-curvature="0" />
    <path
       d="m 55800,33730 -330,500"
       id="path3832"
       inkscape:connector-curvature="0" />
    <path
       d="m 55980,34080 230,0"
       id="path3834"
       inkscape:connector-curvature="0" />
    <path
       d="m 55930,34230 160,-500 170,500"
       id="path3836"
       inkscape:connector-curvature="0" />
  </g>
  <g
     style="fill:#840000;fill-opacity:0;stroke:#840000;stroke-width:60;stroke-linecap:round;stroke-linejoin:round;stroke-opacity:1"
     id="g3838"
     transform="translate(-42470.017,-22195)">
    <path
       d="m 53360,33420 20,-20 50,-20 120,0 40,20 30,20 20,50 0,50 -20,70 -290,290 310,0"
       id="path3840"
       inkscape:connector-curvature="0" />
    <path
       d="m 55000,35000 -3000,0"
       id="path3842"
       inkscape:connector-curvature="0" />
  </g>
  <g
     style="fill:#008484;fill-opacity:0;stroke:#008484;stroke-width:60;stroke-linecap:round;stroke-linejoin:round;stroke-opacity:1"
     id="g3844"
     transform="translate(-42470.017,-22195)">
    <path
       d="m 55470,34730 330,500"
       id="path3846"
       inkscape:connector-curvature="0" />
    <path
       d="m 55800,34730 -330,500"
       id="path3848"
       inkscape:connector-curvature="0" />
    <path
       d="m 56170,34960 70,30 20,20 20,50 0,70 -20,50 -20,20 -50,30 -190,0 0,-500 170,0 40,20 30,20 20,50 0,50 -20,50 -30,20 -40,20 -170,0"
       id="path3850"
       inkscape:connector-curvature="0" />
  </g>
  <g
     style="fill:#840000;fill-opacity:0;stroke:#840000;stroke-width:60;stroke-linecap:round;stroke-linejoin:round;stroke-opacity:1"
     id="g3852"
     transform="translate(-42470.017,-22195)">
    <path
       d="m 53330,34380 310,0 -170,190 80,0 40,20 30,20 20,50 0,120 -20,50 -30,20 -40,30 -150,0 -40,-30 -30,-20"
       id="path3854"
       inkscape:connector-curvature="0" />
    <path
       d="m 55000,37500 -3000,0"
       id="path3856"
       inkscape:connector-curvature="0" />
  </g>
  <g
     style="fill:#008484;fill-opacity:0;stroke:#008484;stroke-width:60;stroke-linecap:round;stroke-linejoin:round;stroke-opacity:1"
     id="g3858"
     transform="translate(-42470.017,-22195)">
    <path
       d="m 55500,37700 70,30 120,0 40,-30 30,-20 20,-50 0,-50 -20,-40 -30,-30 -40,-20 -100,-30 -50,-20 -20,-20 -20,-50 0,-50 20,-50 20,-20 50,-20 120,0 70,20"
       id="path3860"
       inkscape:connector-curvature="0" />
    <path
       d="m 56280,37680 -20,20 -70,30 -50,0 -70,-30 -50,-50 -20,-40 -20,-100 0,-70 20,-90 20,-50 50,-50 70,-20 50,0 70,20 20,20"
       id="path3862"
       inkscape:connector-curvature="0" />
    <path
       d="m 56740,37730 -240,0 0,-500"
       id="path3864"
       inkscape:connector-curvature="0" />
  </g>
  <g
     style="fill:#840000;fill-opacity:0;stroke:#840000;stroke-width:60;stroke-linecap:round;stroke-linejoin:round;stroke-opacity:1"
     id="g3866"
     transform="translate(-42470.017,-22195)">
    <path
       d="m 53590,37040 0,340"
       id="path3868"
       inkscape:connector-curvature="0" />
    <path
       d="m 53470,36850 -110,360 300,0"
       id="path3870"
       inkscape:connector-curvature="0" />
    <path
       d="m 55000,38500 -3000,0"
       id="path3872"
       inkscape:connector-curvature="0" />
  </g>
  <g
     style="fill:#008484;fill-opacity:0;stroke:#008484;stroke-width:60;stroke-linecap:round;stroke-linejoin:round;stroke-opacity:1"
     id="g3874"
     transform="translate(-42470.017,-22195)">
    <path
       d="m 55500,38700 70,30 120,0 40,-30 30,-20 20,-50 0,-50 -20,-40 -30,-30 -40,-20 -100,-30 -50,-20 -20,-20 -20,-50 0,-50 20,-50 20,-20 50,-20 120,0 70,20"
       id="path3876"
       inkscape:connector-curvature="0" />
    <path
       d="m 56000,38730 0,-500 120,0 70,20 50,50 20,50 20,90 0,70 -20,100 -20,40 -50,50 -70,30 -120,0"
       id="path3878"
       inkscape:connector-curvature="0" />
    <path
       d="m 56480,38580 230,0"
       id="path3880"
       inkscape:connector-curvature="0" />
    <path
       d="m 56430,38730 160,-500 170,500"
       id="path3882"
       inkscape:connector-curvature="0" />
  </g>
  <g
     style="fill:#840000;fill-opacity:0;stroke:#840000;stroke-width:60;stroke-linecap:round;stroke-linejoin:round;stroke-opacity:1"
     id="g3884"
     transform="translate(-42470.017,-22195)">
    <path
       d="m 53620,37880 -240,0 -20,230 20,-20 50,-20 120,0 40,20 30,20 20,50 0,120 -20,50 -30,20 -40,30 -120,0 -50,-30 -20,-20"
       id="path3886"
       inkscape:connector-curvature="0" />
    <path
       d="m 64000,37500 3000,0"
       id="path3888"
       inkscape:connector-curvature="0" />
  </g>
  <g
     style="fill:#008484;fill-opacity:0;stroke:#008484;stroke-width:60;stroke-linecap:round;stroke-linejoin:round;stroke-opacity:1"
     id="g3890"
     transform="translate(-42470.017,-22195)">
    <path
       d="m 62120,37680 -20,20 -70,30 -50,0 -70,-30 -50,-50 -20,-40 -20,-100 0,-70 20,-90 20,-50 50,-50 70,-20 50,0 70,20 20,20"
       id="path3892"
       inkscape:connector-curvature="0" />
    <path
       d="m 62580,37730 -240,0 0,-500"
       id="path3894"
       inkscape:connector-curvature="0" />
    <path
       d="m 62740,37730 0,-500"
       id="path3896"
       inkscape:connector-curvature="0" />
    <path
       d="m 63020,37730 -210,-290"
       id="path3898"
       inkscape:connector-curvature="0" />
    <path
       d="m 63020,37230 -280,280"
       id="path3900"
       inkscape:connector-curvature="0" />
    <path
       d="m 63220,37270 20,-20 50,-20 120,0 40,20 30,20 20,50 0,50 -20,70 -290,290 310,0"
       id="path3902"
       inkscape:connector-curvature="0" />
  </g>
  <g
     style="fill:#840000;fill-opacity:0;stroke:#840000;stroke-width:60;stroke-linecap:round;stroke-linejoin:round;stroke-opacity:1"
     id="g3904"
     transform="translate(-42470.017,-22195)">
    <path
       d="m 65590,36880 -90,0 -50,20 -20,20 -50,80 -20,90 0,190 20,50 20,20 50,30 100,0 40,-30 30,-20 20,-50 0,-120 -20,-50 -30,-20 -40,-20 -100,0 -50,20 -20,20 -20,50"
       id="path3906"
       inkscape:connector-curvature="0" />
    <path
       d="m 61000,32000 0,-3000"
       id="path3908"
       inkscape:connector-curvature="0" />
  </g>
  <g
     style="fill:#008484;fill-opacity:0;stroke:#008484;stroke-width:60;stroke-linecap:round;stroke-linejoin:round;stroke-opacity:1"
     id="g3910"
     transform="translate(-42470.017,-22195)">
    <path
       d="m 60730,34300 500,-160 -500,-170"
       id="path3912"
       inkscape:connector-curvature="0" />
    <path
       d="m 61230,33800 -500,0 0,-120 20,-70 50,-50 50,-20 90,-20 70,0 100,20 40,20 50,50 30,70 0,120"
       id="path3914"
       inkscape:connector-curvature="0" />
    <path
       d="m 61230,33300 -500,0 0,-120 20,-70 50,-50 50,-20 90,-20 70,0 100,20 40,20 50,50 30,70 0,120"
       id="path3916"
       inkscape:connector-curvature="0" />
    <path
       d="m 60730,32710 0,-100 20,-50 50,-40 90,-30 170,0 90,30 50,40 30,50 0,100 -30,40 -50,50 -90,20 -170,0 -90,-20 -50,-50 -20,-40"
       id="path3918"
       inkscape:connector-curvature="0" />
  </g>
  <g
     style="fill:#840000;fill-opacity:0;stroke:#840000;stroke-width:60;stroke-linecap:round;stroke-linejoin:round;stroke-opacity:1"
     id="g3920"
     transform="translate(-42470.017,-22195)">
    <path
       d="m 60380,30670 0,-330 500,210"
       id="path3922"
       inkscape:connector-curvature="0" />
    <path
       d="m 59500,41000 0,3000"
       id="path3924"
       inkscape:connector-curvature="0" />
  </g>
  <g
     style="fill:#008484;fill-opacity:0;stroke:#008484;stroke-width:60;stroke-linecap:round;stroke-linejoin:round;stroke-opacity:1"
     id="g3926"
     transform="translate(-42470.017,-22195)">
    <path
       d="m 59250,40220 -20,50 0,70 20,70 50,50 50,20 90,20 70,0 100,-20 40,-20 50,-50 30,-70 0,-50 -30,-70 -20,-20 -170,0 0,90"
       id="path3928"
       inkscape:connector-curvature="0" />
    <path
       d="m 59730,39980 -500,0 500,-280 -500,0"
       id="path3930"
       inkscape:connector-curvature="0" />
    <path
       d="m 59730,39460 -500,0 0,-120 20,-70 50,-50 50,-20 90,-20 70,0 100,20 40,20 50,50 30,70 0,120"
       id="path3932"
       inkscape:connector-curvature="0" />
  </g>
  <g
     style="fill:#840000;fill-opacity:0;stroke:#840000;stroke-width:60;stroke-linecap:round;stroke-linejoin:round;stroke-opacity:1"
     id="g3934"
     transform="translate(-42470.017,-22195)">
    <path
       d="m 59090,42550 -20,50 -30,20 -40,20 -30,0 -50,-20 -20,-20 -20,-50 0,-100 20,-40 20,-30 50,-20 30,0 40,20 30,30 20,40 0,100 20,50 30,20 50,20 90,0 50,-20 20,-20 30,-50 0,-100 -30,-40 -20,-30 -50,-20 -90,0 -50,20 -30,30 -20,40"
       id="path3936"
       inkscape:connector-curvature="0" />
    <path
       d="m 64000,36000 3000,0"
       id="path3938"
       inkscape:connector-curvature="0" />
  </g>
  <g
     style="fill:#008484;fill-opacity:0;stroke:#008484;stroke-width:60;stroke-linecap:round;stroke-linejoin:round;stroke-opacity:1"
     id="g3940"
     transform="translate(-42470.017,-22195)">
    <path
       d="m 62120,36180 -20,20 -70,30 -50,0 -70,-30 -50,-50 -20,-40 -20,-100 0,-70 20,-90 20,-50 50,-50 70,-20 50,0 70,20 20,20"
       id="path3942"
       inkscape:connector-curvature="0" />
    <path
       d="m 62580,36230 -240,0 0,-500"
       id="path3944"
       inkscape:connector-curvature="0" />
    <path
       d="m 62740,36230 0,-500"
       id="path3946"
       inkscape:connector-curvature="0" />
    <path
       d="m 63020,36230 -210,-290"
       id="path3948"
       inkscape:connector-curvature="0" />
    <path
       d="m 63020,35730 -280,280"
       id="path3950"
       inkscape:connector-curvature="0" />
    <path
       d="m 63500,36230 -280,0"
       id="path3952"
       inkscape:connector-curvature="0" />
    <path
       d="m 63360,36230 0,-500 -50,70 -50,50 -40,20"
       id="path3954"
       inkscape:connector-curvature="0" />
  </g>
  <g
     style="fill:#840000;fill-opacity:0;stroke:#840000;stroke-width:60;stroke-linecap:round;stroke-linejoin:round;stroke-opacity:1"
     id="g3956"
     transform="translate(-42470.017,-22195)">
    <path
       d="m 65400,35880 100,0 50,-30 20,-20 50,-70 20,-100 0,-190 -20,-50 -30,-20 -40,-20 -100,0 -50,20 -20,20 -20,50 0,120 20,50 20,20 50,30 100,0 40,-30 30,-20 20,-50"
       id="path3958"
       inkscape:connector-curvature="0" />
    <path
       d="m 64000,34500 3000,0"
       id="path3960"
       inkscape:connector-curvature="0" />
  </g>
  <g
     style="fill:#008484;fill-opacity:0;stroke:#008484;stroke-width:60;stroke-linecap:round;stroke-linejoin:round;stroke-opacity:1"
     id="g3962"
     transform="translate(-42470.017,-22195)">
    <path
       d="m 62120,34680 -20,20 -70,30 -50,0 -70,-30 -50,-50 -20,-40 -20,-100 0,-70 20,-90 20,-50 50,-50 70,-20 50,0 70,20 20,20"
       id="path3964"
       inkscape:connector-curvature="0" />
    <path
       d="m 62580,34730 -240,0 0,-500"
       id="path3966"
       inkscape:connector-curvature="0" />
    <path
       d="m 62740,34730 0,-500"
       id="path3968"
       inkscape:connector-curvature="0" />
    <path
       d="m 63020,34730 -210,-290"
       id="path3970"
       inkscape:connector-curvature="0" />
    <path
       d="m 63020,34230 -280,280"
       id="path3972"
       inkscape:connector-curvature="0" />
    <path
       d="m 63330,34230 50,0 50,20 20,20 30,50 20,100 0,120 -20,90 -30,50 -20,20 -50,30 -50,0 -40,-30 -30,-20 -20,-50 -20,-90 0,-120 20,-100 20,-50 30,-20 40,-20"
       id="path3974"
       inkscape:connector-curvature="0" />
  </g>
  <g
     style="fill:#840000;fill-opacity:0;stroke:#840000;stroke-width:60;stroke-linecap:round;stroke-linejoin:round;stroke-opacity:1"
     id="g3976"
     transform="translate(-42470.017,-22195)">
    <path
       d="m 65400,34380 -280,0"
       id="path3978"
       inkscape:connector-curvature="0" />
    <path
       d="m 65260,34380 0,-500 -50,70 -50,50 -40,20"
       id="path3980"
       inkscape:connector-curvature="0" />
    <path
       d="m 65710,33880 50,0 50,20 20,20 30,50 20,100 0,120 -20,90 -30,50 -20,20 -50,30 -50,0 -40,-30 -30,-20 -20,-50 -20,-90 0,-120 20,-100 20,-50 30,-20 40,-20"
       id="path3982"
       inkscape:connector-curvature="0" />
  </g>
  <g
     style="fill:#008484;fill-opacity:0;stroke:#008484;stroke-width:60;stroke-linecap:round;stroke-linejoin:round;stroke-opacity:1"
     id="g3984"
     transform="translate(-42470.017,-22195)">
    <path
       d="m 59040,34640 0,490 30,50 30,30 60,30 110,0 60,-30 30,-30 30,-50 0,-490"
       id="path3986"
       inkscape:connector-curvature="0" />
    <path
       d="m 59990,35240 -350,0"
       id="path3988"
       inkscape:connector-curvature="0" />
    <path
       d="m 59820,35240 0,-600 -60,90 -60,50 -60,30"
       id="path3990"
       inkscape:connector-curvature="0" />
    <path
       d="m 57790,37710 90,30 140,0 60,-30 30,-30 30,-50 0,-60 -30,-60 -30,-30 -60,-20 -110,-30 -60,-30 -30,-30 -30,-60 0,-50 30,-60 30,-30 60,-30 140,0 90,30"
       id="path3992"
       inkscape:connector-curvature="0" />
    <path
       d="m 58390,37740 0,-600"
       id="path3994"
       inkscape:connector-curvature="0" />
    <path
       d="m 58970,37140 -290,0 -30,290 30,-30 60,-30 140,0 60,30 30,30 30,50 0,150 -30,50 -30,30 -60,30 -140,0 -60,-30 -30,-30"
       id="path3996"
       inkscape:connector-curvature="0" />
    <path
       d="m 59200,37140 370,0 -200,230 80,0 60,30 30,30 30,50 0,150 -30,50 -30,30 -60,30 -170,0 -60,-30 -20,-30"
       id="path3998"
       inkscape:connector-curvature="0" />
    <path
       d="m 60110,37140 -290,0 -30,290 30,-30 60,-30 140,0 60,30 30,30 30,50 0,150 -30,50 -30,30 -60,30 -140,0 -60,-30 -30,-30"
       id="path4000"
       inkscape:connector-curvature="0" />
    <path
       d="m 60710,37740 -350,0"
       id="path4002"
       inkscape:connector-curvature="0" />
    <path
       d="m 60540,37740 0,-600 -60,90 -60,50 -60,30"
       id="path4004"
       inkscape:connector-curvature="0" />
    <path
       d="m 60930,37570 290,0"
       id="path4006"
       inkscape:connector-curvature="0" />
    <path
       d="m 60880,37740 200,-600 200,600"
       id="path4008"
       inkscape:connector-curvature="0" />
  </g>
  <g
     style="fill:#008484;fill-opacity:0;stroke:#008484;stroke-width:120;stroke-linecap:round;stroke-linejoin:round;stroke-opacity:1"
     id="g4010"
     transform="translate(-42470.017,-22195)" />
  <g
     style="fill:#000084;fill-opacity:0;stroke:#000084;stroke-width:120;stroke-linecap:round;stroke-linejoin:round;stroke-opacity:1"
     id="g4012"
     transform="translate(-42470.017,-22195)">
    <path
       d="m 51000,41500 0,-3000"
       id="path4014"
       inkscape:connector-curvature="0" />
  </g>
  <g
     style="fill:#000084;fill-opacity:0;stroke:#000084;stroke-width:60;stroke-linecap:round;stroke-linejoin:round;stroke-opacity:1"
     id="g4016"
     transform="translate(-42470.017,-22195)" />
  <g
     style="fill:#008400;fill-opacity:0;stroke:#008400;stroke-width:60;stroke-linecap:round;stroke-linejoin:round;stroke-opacity:1"
     id="g4018"
     transform="translate(-42470.017,-22195)">
    <path
       d="m 49000,31500 -4500,0"
       id="path4020"
       inkscape:connector-curvature="0" />
    <path
       d="m 49000,34000 0,-2500"
       id="path4022"
       inkscape:connector-curvature="0" />
    <path
       d="m 52000,34000 -3000,0"
       id="path4024"
       inkscape:connector-curvature="0" />
    <path
       d="m 67000,34500 1500,0"
       id="path4026"
       inkscape:connector-curvature="0" />
    <path
       d="m 48500,35000 3500,0"
       id="path4028"
       inkscape:connector-curvature="0" />
    <path
       d="m 48500,37500 0,-2500"
       id="path4030"
       inkscape:connector-curvature="0" />
    <path
       d="m 44500,37500 4000,0"
       id="path4032"
       inkscape:connector-curvature="0" />
    <path
       d="m 57500,23500 0,5500"
       id="path4034"
       inkscape:connector-curvature="0" />
  </g>
  <g
     style="fill:#848400;fill-opacity:0;stroke:#848400;stroke-width:60;stroke-linecap:round;stroke-linejoin:round;stroke-opacity:1"
     id="g4036"
     transform="translate(-42470.017,-22195)">
    <path
       d="m 69750,34710 -30,30 -90,30 -60,0 -80,-30 -60,-50 -30,-60 -30,-120 0,-80 30,-120 30,-50 60,-60 80,-30 60,0 90,30 30,30"
       id="path4038"
       inkscape:connector-curvature="0" />
    <path
       d="m 70290,34770 -290,0 0,-600"
       id="path4040"
       inkscape:connector-curvature="0" />
    <path
       d="m 70490,34770 0,-600"
       id="path4042"
       inkscape:connector-curvature="0" />
    <path
       d="m 70840,34770 -260,-340"
       id="path4044"
       inkscape:connector-curvature="0" />
    <path
       d="m 70840,34170 -350,340"
       id="path4046"
       inkscape:connector-curvature="0" />
    <path
       d="m 70950,34830 460,0"
       id="path4048"
       inkscape:connector-curvature="0" />
    <path
       d="m 71670,34170 110,0 60,30 60,60 20,110 0,200 -20,120 -60,50 -60,30 -110,0 -60,-30 -60,-50 -30,-120 0,-200 30,-110 60,-60 60,-30"
       id="path4050"
       inkscape:connector-curvature="0" />
    <path
       d="m 72180,34170 0,490 30,50 30,30 60,30 110,0 60,-30 30,-30 30,-50 0,-490"
       id="path4052"
       inkscape:connector-curvature="0" />
    <path
       d="m 72730,34170 340,0"
       id="path4054"
       inkscape:connector-curvature="0" />
    <path
       d="m 72900,34770 0,-600"
       id="path4056"
       inkscape:connector-curvature="0" />
  </g>
  <g
     style="fill:#848400;fill-opacity:0;stroke:#848400;stroke-width:100;stroke-linecap:round;stroke-linejoin:round;stroke-opacity:1"
     id="g4058"
     transform="translate(-42470.017,-22195)">
    <polyline
       fill="none;"
       points="68500,34500 68800,34800 69100,34800 69100,34200 68800,34200 68500,34500 "
       id="polyline4060" />
  </g>
  <g
     style="fill:#848400;fill-opacity:0;stroke:#848400;stroke-width:60;stroke-linecap:round;stroke-linejoin:round;stroke-opacity:1"
     id="g4062"
     transform="translate(-42470.017,-22195)">
    <path
       d="m 44620,41710 -30,30 -90,30 -60,0 -80,-30 -60,-50 -30,-60 -30,-120 0,-80 30,-120 30,-50 60,-60 80,-30 60,0 90,30 30,30"
       id="path4064"
       inkscape:connector-curvature="0" />
    <path
       d="m 45160,41770 -290,0 0,-600"
       id="path4066"
       inkscape:connector-curvature="0" />
    <path
       d="m 45360,41770 0,-600"
       id="path4068"
       inkscape:connector-curvature="0" />
    <path
       d="m 45710,41770 -260,-340"
       id="path4070"
       inkscape:connector-curvature="0" />
    <path
       d="m 45710,41170 -350,340"
       id="path4072"
       inkscape:connector-curvature="0" />
    <path
       d="m 45820,41830 460,0"
       id="path4074"
       inkscape:connector-curvature="0" />
    <path
       d="m 46340,41170 340,0"
       id="path4076"
       inkscape:connector-curvature="0" />
    <path
       d="m 46510,41770 0,-600"
       id="path4078"
       inkscape:connector-curvature="0" />
    <path
       d="m 46830,41170 140,600 110,-430 120,430 140,-600"
       id="path4080"
       inkscape:connector-curvature="0" />
    <path
       d="m 47570,41770 0,-600"
       id="path4082"
       inkscape:connector-curvature="0" />
    <path
       d="m 48030,41970 -140,0 0,-860 140,0"
       id="path4084"
       inkscape:connector-curvature="0" />
    <path
       d="m 48380,41170 50,0 60,30 30,30 30,60 30,110 0,140 -30,120 -30,50 -30,30 -60,30 -50,0 -60,-30 -30,-30 -30,-50 -30,-120 0,-140 30,-110 30,-60 30,-30 60,-30"
       id="path4086"
       inkscape:connector-curvature="0" />
    <path
       d="m 48830,41710 30,30 -30,30 -30,-30 30,-30 0,60"
       id="path4088"
       inkscape:connector-curvature="0" />
    <path
       d="m 49120,41710 30,30 -30,30 -30,-30 30,-30 0,60"
       id="path4090"
       inkscape:connector-curvature="0" />
    <path
       d="m 49730,41770 -350,0"
       id="path4092"
       inkscape:connector-curvature="0" />
    <path
       d="m 49560,41770 0,-600 -60,90 -60,50 -60,30"
       id="path4094"
       inkscape:connector-curvature="0" />
    <path
       d="m 49930,41970 140,0 0,-860 -140,0"
       id="path4096"
       inkscape:connector-curvature="0" />
  </g>
  <g
     style="fill:#848400;fill-opacity:0;stroke:#848400;stroke-width:100;stroke-linecap:round;stroke-linejoin:round;stroke-opacity:1"
     id="g4098"
     transform="translate(-42470.017,-22195)">
    <polyline
       fill="none;"
       points="51000,41500 50700,41200 50400,41200 50400,41800 50700,41800 51000,41500 "
       id="polyline4100" />
  </g>
  <g
     style="fill:#848400;fill-opacity:0;stroke:#848400;stroke-width:60;stroke-linecap:round;stroke-linejoin:round;stroke-opacity:1"
     id="g4102"
     transform="translate(-42470.017,-22195)">
    <path
       d="m 66760,35760 480,480"
       id="path4104"
       inkscape:connector-curvature="0" />
    <path
       d="m 67240,35760 -480,480"
       id="path4106"
       inkscape:connector-curvature="0" />
  </g>
  <g
     style="fill:#000084;fill-opacity:0;stroke:#000084;stroke-width:60;stroke-linecap:round;stroke-linejoin:round;stroke-opacity:1"
     id="g4108"
     transform="translate(-42470.017,-22195)">
    <path
       d="m 66760,37260 480,480"
       id="path4110"
       inkscape:connector-curvature="0" />
    <path
       d="m 67240,37260 -480,480"
       id="path4112"
       inkscape:connector-curvature="0" />
  </g>
  <g
     style="fill:#008400;fill-opacity:0;stroke:#008400;stroke-width:60;stroke-linecap:round;stroke-linejoin:round;stroke-opacity:1"
     id="g4114"
     transform="translate(-42470.017,-22195)">
    <path
       d="m 53500,25500 0,3000"
       id="path4116"
       inkscape:connector-curvature="0" />
    <path
       d="m 53500,27000 -1500,0"
       id="path4118"
       inkscape:connector-curvature="0" />
  </g>
  <g
     style="fill:#008400;fill-opacity:0;stroke:#008400;stroke-width:0;stroke-linecap:round;stroke-linejoin:round;stroke-opacity:1"
     id="g4120"
     transform="translate(-42470.017,-22195)" />
  <g
     style="fill:#008400;fill-opacity:1;stroke:#008400;stroke-width:100;stroke-linecap:round;stroke-linejoin:round;stroke-opacity:1"
     id="g4122"
     transform="translate(-42470.017,-22195)">
    <circle
       cx="53500"
       cy="27000"
       r="200"
       id="circle4124"
       sodipodi:cx="53500"
       sodipodi:cy="27000"
       sodipodi:rx="200"
       sodipodi:ry="200"
       d="m 53700,27000 c 0,110.457 -89.543,200 -200,200 -110.457,0 -200,-89.543 -200,-200 0,-110.457 89.543,-200 200,-200 110.457,0 200,89.543 200,200 z" />
  </g>
  <g
     style="fill:#008400;fill-opacity:1;stroke:#008400;stroke-width:60;stroke-linecap:round;stroke-linejoin:round;stroke-opacity:1"
     id="g4126"
     transform="translate(-42470.017,-22195)">
    <path
       d="m 57500,28500 0,-1500"
       id="path4128"
       inkscape:connector-curvature="0" />
    <path
       d="m 57500,27000 3500,0"
       id="path4130"
       inkscape:connector-curvature="0" />
    <path
       d="m 61000,27000 0,2000"
       id="path4132"
       inkscape:connector-curvature="0" />
  </g>
  <g
     style="fill:#008400;fill-opacity:1;stroke:#008400;stroke-width:0;stroke-linecap:round;stroke-linejoin:round;stroke-opacity:1"
     id="g4134"
     transform="translate(-42470.017,-22195)" />
  <g
     style="fill:#008400;fill-opacity:1;stroke:#008400;stroke-width:100;stroke-linecap:round;stroke-linejoin:round;stroke-opacity:1"
     id="g4136"
     transform="translate(-42470.017,-22195)">
    <circle
       cx="57500"
       cy="27000"
       r="200"
       id="circle4138"
       sodipodi:cx="57500"
       sodipodi:cy="27000"
       sodipodi:rx="200"
       sodipodi:ry="200"
       d="m 57700,27000 c 0,110.457 -89.543,200 -200,200 -110.457,0 -200,-89.543 -200,-200 0,-110.457 89.543,-200 200,-200 110.457,0 200,89.543 200,200 z" />
  </g>
  <g
     style="fill:#008400;fill-opacity:1;stroke:#008400;stroke-width:60;stroke-linecap:round;stroke-linejoin:round;stroke-opacity:1"
     id="g4140"
     transform="translate(-42470.017,-22195)" />
  <g
     style="fill:#0000c2;fill-opacity:1;stroke:#0000c2;stroke-width:60;stroke-linecap:round;stroke-linejoin:round;stroke-opacity:1"
     id="g4142"
     transform="translate(-42470.017,-22195)">
    <path
       d="m 43500,31000 -1000,0"
       id="path4144"
       inkscape:connector-curvature="0" />
    <path
       d="m 42500,31000 0,7500"
       id="path4146"
       inkscape:connector-curvature="0" />
    <path
       d="m 42500,38500 7500,0"
       id="path4148"
       inkscape:connector-curvature="0" />
    <path
       d="m 50000,38500 0,-7500"
       id="path4150"
       inkscape:connector-curvature="0" />
    <path
       d="m 50000,31000 -7000,0"
       id="path4152"
       inkscape:connector-curvature="0" />
  </g>
</svg>
