<?xml version="1.0" standalone="no"?>
 <!DOCTYPE svg PUBLIC "-//W3C//DTD SVG 1.1//EN" 
 "http://www.w3.org/Graphics/SVG/1.1/DTD/svg11.dtd"> 
<svg xmlns="http://www.w3.org/2000/svg" version="1.1" 
    width="29.7002cm" height="21.0007cm" viewBox="0 0 116930 82680 ">
<title>SVG Picture created as currentstage.svg date 2014/04/01 12:54:27 </title>
  <desc>Picture generated by Eeschema-SVG </desc>
<g style="fill:#000000; fill-opacity:1;stroke:#000000; stroke-opacity:1;
stroke-linecap:round; stroke-linejoin:round; "
 transform="translate(0 0) scale(1 1)">
</g>
<g style="fill:#000000; fill-opacity:0.0; 
stroke:#000000; stroke-width:0; stroke-opacity:1; 
stroke-linecap:round; stroke-linejoin:round;">
</g>
<g style="fill:#840000; fill-opacity:0.0; 
stroke:#840000; stroke-width:200; stroke-opacity:1; 
stroke-linecap:round; stroke-linejoin:round;">
<polyline fill="none;"
points="38300,25200
36700,25200
" /> 
<polyline fill="none;"
points="38300,25800
36700,25800
" /> 
</g>
<g style="fill:#840000; fill-opacity:0.0; 
stroke:#840000; stroke-width:60; stroke-opacity:1; 
stroke-linecap:round; stroke-linejoin:round;">
<path d="M37500 25800
L37500 27500
" />
</g>
<g style="fill:#008484; fill-opacity:0.0; 
stroke:#008484; stroke-width:60; stroke-opacity:1; 
stroke-linecap:round; stroke-linejoin:round;">
<path d="M37500 25200
L37500 23500
" />
</g>
<g style="fill:#008484; fill-opacity:0.0; 
stroke:#008484; stroke-width:60; stroke-opacity:1; 
stroke-linecap:round; stroke-linejoin:round;">
<path d="M36420 26710
L36400 26730
L36330 26760
L36280 26760
L36210 26730
L36160 26680
L36140 26640
L36120 26540
L36120 26470
L36140 26380
L36160 26330
L36210 26280
L36280 26260
L36330 26260
L36400 26280
L36420 26300
" />
<path d="M36900 26760
L36620 26760
" />
<path d="M36760 26760
L36760 26260
L36710 26330
L36660 26380
L36620 26400
" />
<path d="M35260 24300
L35280 24280
L35330 24260
L35450 24260
L35490 24280
L35520 24300
L35540 24350
L35540 24400
L35520 24470
L35230 24760
L35540 24760
" />
<path d="M35850 24260
L35900 24260
L35950 24280
L35970 24300
L36000 24350
L36020 24450
L36020 24570
L36000 24660
L35970 24710
L35950 24730
L35900 24760
L35850 24760
L35810 24730
L35780 24710
L35760 24660
L35740 24570
L35740 24450
L35760 24350
L35780 24300
L35810 24280
L35850 24260
" />
<path d="M36240 24420
L36240 24920
" />
<path d="M36240 24450
L36290 24420
L36380 24420
L36430 24450
L36450 24470
L36480 24520
L36480 24660
L36450 24710
L36430 24730
L36380 24760
L36290 24760
L36240 24730
" />
<path d="M36860 24490
L36690 24490
" />
<path d="M36690 24760
L36690 24260
L36930 24260
" />
</g>
<g style="fill:#008484; fill-opacity:0.0; 
stroke:#008484; stroke-width:0; stroke-opacity:1; 
stroke-linecap:round; stroke-linejoin:round;">
</g>
<g style="fill:#840000; fill-opacity:0.0; 
stroke:#840000; stroke-width:200; stroke-opacity:1; 
stroke-linecap:round; stroke-linejoin:round;">
<polyline fill="none;"
points="38300,45200
36700,45200
" /> 
<polyline fill="none;"
points="38300,45800
36700,45800
" /> 
</g>
<g style="fill:#840000; fill-opacity:0.0; 
stroke:#840000; stroke-width:60; stroke-opacity:1; 
stroke-linecap:round; stroke-linejoin:round;">
<path d="M37500 45800
L37500 47500
" />
</g>
<g style="fill:#008484; fill-opacity:0.0; 
stroke:#008484; stroke-width:60; stroke-opacity:1; 
stroke-linecap:round; stroke-linejoin:round;">
<path d="M37500 45200
L37500 43500
" />
</g>
<g style="fill:#008484; fill-opacity:0.0; 
stroke:#008484; stroke-width:60; stroke-opacity:1; 
stroke-linecap:round; stroke-linejoin:round;">
<path d="M36420 46710
L36400 46730
L36330 46760
L36280 46760
L36210 46730
L36160 46680
L36140 46640
L36120 46540
L36120 46470
L36140 46380
L36160 46330
L36210 46280
L36280 46260
L36330 46260
L36400 46280
L36420 46300
" />
<path d="M36620 46300
L36640 46280
L36690 46260
L36810 46260
L36850 46280
L36880 46300
L36900 46350
L36900 46400
L36880 46470
L36590 46760
L36900 46760
" />
<path d="M35260 44300
L35280 44280
L35330 44260
L35450 44260
L35490 44280
L35520 44300
L35540 44350
L35540 44400
L35520 44470
L35230 44760
L35540 44760
" />
<path d="M35850 44260
L35900 44260
L35950 44280
L35970 44300
L36000 44350
L36020 44450
L36020 44570
L36000 44660
L35970 44710
L35950 44730
L35900 44760
L35850 44760
L35810 44730
L35780 44710
L35760 44660
L35740 44570
L35740 44450
L35760 44350
L35780 44300
L35810 44280
L35850 44260
" />
<path d="M36240 44420
L36240 44920
" />
<path d="M36240 44450
L36290 44420
L36380 44420
L36430 44450
L36450 44470
L36480 44520
L36480 44660
L36450 44710
L36430 44730
L36380 44760
L36290 44760
L36240 44730
" />
<path d="M36860 44490
L36690 44490
" />
<path d="M36690 44760
L36690 44260
L36930 44260
" />
</g>
<g style="fill:#008484; fill-opacity:0.0; 
stroke:#008484; stroke-width:0; stroke-opacity:1; 
stroke-linecap:round; stroke-linejoin:round;">
</g>
<g style="fill:#840000; fill-opacity:0.0; 
stroke:#840000; stroke-width:200; stroke-opacity:1; 
stroke-linecap:round; stroke-linejoin:round;">
<polyline fill="none;"
points="66700,48700
66700,50300
" /> 
<polyline fill="none;"
points="67300,48700
67300,50300
" /> 
</g>
<g style="fill:#840000; fill-opacity:0.0; 
stroke:#840000; stroke-width:60; stroke-opacity:1; 
stroke-linecap:round; stroke-linejoin:round;">
<path d="M67300 49500
L69000 49500
" />
</g>
<g style="fill:#008484; fill-opacity:0.0; 
stroke:#008484; stroke-width:60; stroke-opacity:1; 
stroke-linecap:round; stroke-linejoin:round;">
<path d="M66700 49500
L65000 49500
" />
</g>
<g style="fill:#008484; fill-opacity:0.0; 
stroke:#008484; stroke-width:60; stroke-opacity:1; 
stroke-linecap:round; stroke-linejoin:round;">
<path d="M68210 50580
L68230 50600
L68260 50670
L68260 50720
L68230 50790
L68180 50840
L68140 50860
L68040 50880
L67970 50880
L67880 50860
L67830 50840
L67780 50790
L67760 50720
L67760 50670
L67780 50600
L67800 50580
" />
<path d="M67970 50290
L67950 50340
L67920 50360
L67880 50380
L67850 50380
L67800 50360
L67780 50340
L67760 50290
L67760 50190
L67780 50150
L67800 50120
L67850 50100
L67880 50100
L67920 50120
L67950 50150
L67970 50190
L67970 50290
L67990 50340
L68020 50360
L68070 50380
L68160 50380
L68210 50360
L68230 50340
L68260 50290
L68260 50190
L68230 50150
L68210 50120
L68160 50100
L68070 50100
L68020 50120
L67990 50150
L67970 50190
" />
<path d="M65760 51870
L65760 51820
L65780 51770
L65800 51750
L65850 51720
L65950 51700
L66070 51700
L66160 51720
L66210 51750
L66230 51770
L66260 51820
L66260 51870
L66230 51910
L66210 51940
L66160 51960
L66070 51980
L65950 51980
L65850 51960
L65800 51940
L65780 51910
L65760 51870
" />
<path d="M66210 51480
L66230 51460
L66260 51480
L66230 51500
L66210 51480
L66260 51480
" />
<path d="M66260 50980
L66260 51260
" />
<path d="M66260 51120
L65760 51120
L65830 51170
L65880 51220
L65900 51260
" />
<path d="M65920 50550
L66260 50550
" />
<path d="M65920 50760
L66180 50760
L66230 50740
L66260 50690
L66260 50620
L66230 50570
L66210 50550
" />
<path d="M65990 50140
L65990 50310
" />
<path d="M66260 50310
L65760 50310
L65760 50070
" />
</g>
<g style="fill:#008484; fill-opacity:0.0; 
stroke:#008484; stroke-width:0; stroke-opacity:1; 
stroke-linecap:round; stroke-linejoin:round;">
</g>
<g style="fill:#840000; fill-opacity:0.0; 
stroke:#840000; stroke-width:60; stroke-opacity:1; 
stroke-linecap:round; stroke-linejoin:round;">
<polyline fill="none;"
points="64000,49100
64000,49900
63600,49500
64000,49100
" /> 
</g>
<g style="fill:#008484; fill-opacity:0.0; 
stroke:#008484; stroke-width:60; stroke-opacity:1; 
stroke-linecap:round; stroke-linejoin:round;">
<path d="M63410 50370
L63410 50140
" />
<path d="M63560 50420
L63060 50260
L63560 50090
" />
<path d="M63080 49660
L63060 49710
L63060 49780
L63080 49850
L63130 49900
L63180 49920
L63270 49940
L63340 49940
L63440 49920
L63480 49900
L63530 49850
L63560 49780
L63560 49730
L63530 49660
L63510 49640
L63340 49640
L63340 49730
" />
<path d="M63560 49420
L63060 49420
L63560 49140
L63060 49140
" />
<path d="M63560 48900
L63060 48900
L63060 48780
L63080 48710
L63130 48660
L63180 48640
L63270 48620
L63340 48620
L63440 48640
L63480 48660
L63530 48710
L63560 48780
L63560 48900
" />
</g>
<g style="fill:#008484; fill-opacity:0.0; 
stroke:#008484; stroke-width:0; stroke-opacity:1; 
stroke-linecap:round; stroke-linejoin:round;">
</g>
<g style="fill:#840000; fill-opacity:0.0; 
stroke:#840000; stroke-width:200; stroke-opacity:1; 
stroke-linecap:round; stroke-linejoin:round;">
<polyline fill="none;"
points="66700,45300
66700,43700
" /> 
<polyline fill="none;"
points="67300,45300
67300,43700
" /> 
</g>
<g style="fill:#840000; fill-opacity:0.0; 
stroke:#840000; stroke-width:60; stroke-opacity:1; 
stroke-linecap:round; stroke-linejoin:round;">
<path d="M67300 44500
L69000 44500
" />
</g>
<g style="fill:#008484; fill-opacity:0.0; 
stroke:#008484; stroke-width:60; stroke-opacity:1; 
stroke-linecap:round; stroke-linejoin:round;">
<path d="M66700 44500
L65000 44500
" />
</g>
<g style="fill:#008484; fill-opacity:0.0; 
stroke:#008484; stroke-width:60; stroke-opacity:1; 
stroke-linecap:round; stroke-linejoin:round;">
<path d="M68210 43600
L68230 43620
L68260 43690
L68260 43740
L68230 43810
L68180 43860
L68140 43880
L68040 43900
L67970 43900
L67880 43880
L67830 43860
L67780 43810
L67760 43740
L67760 43690
L67780 43620
L67800 43600
" />
<path d="M67760 43430
L67760 43100
L68260 43310
" />
<path d="M65760 43790
L65760 43740
L65780 43690
L65800 43670
L65850 43640
L65950 43620
L66070 43620
L66160 43640
L66210 43670
L66230 43690
L66260 43740
L66260 43790
L66230 43830
L66210 43860
L66160 43880
L66070 43900
L65950 43900
L65850 43880
L65800 43860
L65780 43830
L65760 43790
" />
<path d="M66210 43400
L66230 43380
L66260 43400
L66230 43420
L66210 43400
L66260 43400
" />
<path d="M66260 42900
L66260 43180
" />
<path d="M66260 43040
L65760 43040
L65830 43090
L65880 43140
L65900 43180
" />
<path d="M65920 42470
L66260 42470
" />
<path d="M65920 42680
L66180 42680
L66230 42660
L66260 42610
L66260 42540
L66230 42490
L66210 42470
" />
<path d="M65990 42060
L65990 42230
" />
<path d="M66260 42230
L65760 42230
L65760 41990
" />
</g>
<g style="fill:#008484; fill-opacity:0.0; 
stroke:#008484; stroke-width:0; stroke-opacity:1; 
stroke-linecap:round; stroke-linejoin:round;">
</g>
<g style="fill:#840000; fill-opacity:0.0; 
stroke:#840000; stroke-width:60; stroke-opacity:1; 
stroke-linecap:round; stroke-linejoin:round;">
<polyline fill="none;"
points="64000,44900
64000,44100
63600,44500
64000,44900
" /> 
</g>
<g style="fill:#008484; fill-opacity:0.0; 
stroke:#008484; stroke-width:60; stroke-opacity:1; 
stroke-linecap:round; stroke-linejoin:round;">
<path d="M63410 45360
L63410 45130
" />
<path d="M63560 45410
L63060 45250
L63560 45080
" />
<path d="M63080 44650
L63060 44700
L63060 44770
L63080 44840
L63130 44890
L63180 44910
L63270 44930
L63340 44930
L63440 44910
L63480 44890
L63530 44840
L63560 44770
L63560 44720
L63530 44650
L63510 44630
L63340 44630
L63340 44720
" />
<path d="M63560 44410
L63060 44410
L63560 44130
L63060 44130
" />
<path d="M63560 43890
L63060 43890
L63060 43770
L63080 43700
L63130 43650
L63180 43630
L63270 43610
L63340 43610
L63440 43630
L63480 43650
L63530 43700
L63560 43770
L63560 43890
" />
</g>
<g style="fill:#008484; fill-opacity:0.0; 
stroke:#008484; stroke-width:0; stroke-opacity:1; 
stroke-linecap:round; stroke-linejoin:round;">
</g>
<g style="fill:#840000; fill-opacity:0.0; 
stroke:#840000; stroke-width:60; stroke-opacity:1; 
stroke-linecap:round; stroke-linejoin:round;">
<polyline fill="none;"
points="73000,44500
73000,49500
68000,47000
73000,44500
" /> 
<path d="M73000 45500
L74000 45500
" />
</g>
<g style="fill:#008484; fill-opacity:0.0; 
stroke:#008484; stroke-width:60; stroke-opacity:1; 
stroke-linecap:round; stroke-linejoin:round;">
</g>
<g style="fill:#008484; fill-opacity:0.0; 
stroke:#008484; stroke-width:50; stroke-opacity:1; 
stroke-linecap:round; stroke-linejoin:round;">
<path d="M72300 45520
L72530 45520
" />
</g>
<g style="fill:#008484; fill-opacity:0.0; 
stroke:#008484; stroke-width:60; stroke-opacity:1; 
stroke-linecap:round; stroke-linejoin:round;">
</g>
<g style="fill:#840000; fill-opacity:0.0; 
stroke:#840000; stroke-width:60; stroke-opacity:1; 
stroke-linecap:round; stroke-linejoin:round;">
</g>
<g style="fill:#840000; fill-opacity:0.0; 
stroke:#840000; stroke-width:50; stroke-opacity:1; 
stroke-linecap:round; stroke-linejoin:round;">
<path d="M73420 45110
L73430 45100
L73460 45090
L73530 45090
L73560 45100
L73570 45110
L73590 45140
L73590 45170
L73570 45210
L73400 45390
L73590 45390
" />
</g>
<g style="fill:#840000; fill-opacity:0.0; 
stroke:#840000; stroke-width:60; stroke-opacity:1; 
stroke-linecap:round; stroke-linejoin:round;">
<path d="M73000 48500
L74000 48500
" />
</g>
<g style="fill:#008484; fill-opacity:0.0; 
stroke:#008484; stroke-width:60; stroke-opacity:1; 
stroke-linecap:round; stroke-linejoin:round;">
</g>
<g style="fill:#008484; fill-opacity:0.0; 
stroke:#008484; stroke-width:50; stroke-opacity:1; 
stroke-linecap:round; stroke-linejoin:round;">
<path d="M72300 48520
L72530 48520
" />
<path d="M72420 48640
L72420 48410
" />
</g>
<g style="fill:#008484; fill-opacity:0.0; 
stroke:#008484; stroke-width:60; stroke-opacity:1; 
stroke-linecap:round; stroke-linejoin:round;">
</g>
<g style="fill:#840000; fill-opacity:0.0; 
stroke:#840000; stroke-width:60; stroke-opacity:1; 
stroke-linecap:round; stroke-linejoin:round;">
</g>
<g style="fill:#840000; fill-opacity:0.0; 
stroke:#840000; stroke-width:50; stroke-opacity:1; 
stroke-linecap:round; stroke-linejoin:round;">
<path d="M73400 48090
L73590 48090
L73490 48200
L73530 48200
L73560 48210
L73570 48230
L73590 48260
L73590 48330
L73570 48360
L73560 48370
L73530 48390
L73450 48390
L73420 48370
L73400 48360
" />
</g>
<g style="fill:#840000; fill-opacity:0.0; 
stroke:#840000; stroke-width:60; stroke-opacity:1; 
stroke-linecap:round; stroke-linejoin:round;">
<path d="M71000 48500
L71000 49500
" />
</g>
<g style="fill:#008484; fill-opacity:0.0; 
stroke:#008484; stroke-width:60; stroke-opacity:1; 
stroke-linecap:round; stroke-linejoin:round;">
</g>
<g style="fill:#008484; fill-opacity:0.0; 
stroke:#008484; stroke-width:50; stroke-opacity:1; 
stroke-linecap:round; stroke-linejoin:round;">
<path d="M70840 48070
L71140 47970
L70840 47870
" />
<path d="M71020 47770
L71020 47540
" />
</g>
<g style="fill:#008484; fill-opacity:0.0; 
stroke:#008484; stroke-width:60; stroke-opacity:1; 
stroke-linecap:round; stroke-linejoin:round;">
</g>
<g style="fill:#840000; fill-opacity:0.0; 
stroke:#840000; stroke-width:60; stroke-opacity:1; 
stroke-linecap:round; stroke-linejoin:round;">
</g>
<g style="fill:#840000; fill-opacity:0.0; 
stroke:#840000; stroke-width:50; stroke-opacity:1; 
stroke-linecap:round; stroke-linejoin:round;">
<path d="M70690 48940
L70890 48940
" />
<path d="M70570 49010
L70790 49080
L70790 48900
" />
</g>
<g style="fill:#840000; fill-opacity:0.0; 
stroke:#840000; stroke-width:60; stroke-opacity:1; 
stroke-linecap:round; stroke-linejoin:round;">
<path d="M68000 47000
L67000 47000
" />
</g>
<g style="fill:#008484; fill-opacity:0.0; 
stroke:#008484; stroke-width:60; stroke-opacity:1; 
stroke-linecap:round; stroke-linejoin:round;">
</g>
<g style="fill:#008484; fill-opacity:0.0; 
stroke:#008484; stroke-width:50; stroke-opacity:1; 
stroke-linecap:round; stroke-linejoin:round;">
<path d="M68530 46840
L68590 46840
L68610 46850
L68640 46880
L68660 46940
L68660 47040
L68640 47090
L68610 47120
L68590 47140
L68530 47140
L68500 47120
L68470 47090
L68460 47040
L68460 46940
L68470 46880
L68500 46850
L68530 46840
" />
<path d="M68780 46840
L68780 47080
L68800 47110
L68810 47120
L68840 47140
L68900 47140
L68920 47120
L68940 47110
L68950 47080
L68950 46840
" />
<path d="M69050 46840
L69220 46840
" />
<path d="M69130 47140
L69130 46840
" />
</g>
<g style="fill:#008484; fill-opacity:0.0; 
stroke:#008484; stroke-width:60; stroke-opacity:1; 
stroke-linecap:round; stroke-linejoin:round;">
</g>
<g style="fill:#840000; fill-opacity:0.0; 
stroke:#840000; stroke-width:60; stroke-opacity:1; 
stroke-linecap:round; stroke-linejoin:round;">
</g>
<g style="fill:#840000; fill-opacity:0.0; 
stroke:#840000; stroke-width:50; stroke-opacity:1; 
stroke-linecap:round; stroke-linejoin:round;">
<path d="M67560 46590
L67500 46590
L67470 46600
L67460 46610
L67430 46660
L67420 46710
L67420 46830
L67430 46860
L67450 46870
L67470 46890
L67530 46890
L67560 46870
L67570 46860
L67590 46830
L67590 46760
L67570 46730
L67560 46710
L67530 46700
L67470 46700
L67450 46710
L67430 46730
L67420 46760
" />
</g>
<g style="fill:#840000; fill-opacity:0.0; 
stroke:#840000; stroke-width:60; stroke-opacity:1; 
stroke-linecap:round; stroke-linejoin:round;">
<path d="M71000 45500
L71000 44500
" />
</g>
<g style="fill:#008484; fill-opacity:0.0; 
stroke:#008484; stroke-width:60; stroke-opacity:1; 
stroke-linecap:round; stroke-linejoin:round;">
</g>
<g style="fill:#008484; fill-opacity:0.0; 
stroke:#008484; stroke-width:50; stroke-opacity:1; 
stroke-linecap:round; stroke-linejoin:round;">
<path d="M70840 46500
L71140 46400
L70840 46300
" />
<path d="M71020 46200
L71020 45970
" />
<path d="M71140 46080
L70910 46080
" />
</g>
<g style="fill:#008484; fill-opacity:0.0; 
stroke:#008484; stroke-width:60; stroke-opacity:1; 
stroke-linecap:round; stroke-linejoin:round;">
</g>
<g style="fill:#840000; fill-opacity:0.0; 
stroke:#840000; stroke-width:60; stroke-opacity:1; 
stroke-linecap:round; stroke-linejoin:round;">
</g>
<g style="fill:#840000; fill-opacity:0.0; 
stroke:#840000; stroke-width:50; stroke-opacity:1; 
stroke-linecap:round; stroke-linejoin:round;">
<path d="M70590 45100
L70590 44900
L70890 45030
" />
</g>
<g style="fill:#840000; fill-opacity:0.0; 
stroke:#840000; stroke-width:60; stroke-opacity:1; 
stroke-linecap:round; stroke-linejoin:round;">
</g>
<g style="fill:#008484; fill-opacity:0.0; 
stroke:#008484; stroke-width:60; stroke-opacity:1; 
stroke-linecap:round; stroke-linejoin:round;">
<path d="M71540 46640
L71540 47130
L71570 47180
L71600 47210
L71660 47240
L71770 47240
L71830 47210
L71860 47180
L71890 47130
L71890 46640
" />
<path d="M72120 46640
L72490 46640
L72290 46870
L72370 46870
L72430 46900
L72460 46930
L72490 46980
L72490 47130
L72460 47180
L72430 47210
L72370 47240
L72200 47240
L72140 47210
L72120 47180
" />
<path d="M67000 45140
L67110 45140
L67170 45170
L67230 45230
L67250 45340
L67250 45540
L67230 45660
L67170 45710
L67110 45740
L67000 45740
L66940 45710
L66880 45660
L66850 45540
L66850 45340
L66880 45230
L66940 45170
L67000 45140
" />
<path d="M67510 45740
L67510 45140
L67740 45140
L67800 45170
L67830 45200
L67860 45260
L67860 45340
L67830 45400
L67800 45430
L67740 45460
L67510 45460
" />
<path d="M68430 45740
L68080 45740
" />
<path d="M68260 45740
L68260 45140
L68200 45230
L68140 45280
L68080 45310
" />
<path d="M69000 45740
L68650 45740
" />
<path d="M68830 45740
L68830 45140
L68770 45230
L68710 45280
L68650 45310
" />
<path d="M69200 45140
L69600 45140
L69340 45740
" />
<path d="M69770 45140
L70170 45140
L69910 45740
" />
</g>
<g style="fill:#008484; fill-opacity:0.0; 
stroke:#008484; stroke-width:0; stroke-opacity:1; 
stroke-linecap:round; stroke-linejoin:round;">
</g>
<g style="fill:#840000; fill-opacity:0.0; 
stroke:#840000; stroke-width:60; stroke-opacity:1; 
stroke-linecap:round; stroke-linejoin:round;">
<rect x="38000" y="34000" width="3000" height="1000" rx="0" />
</g>
<g style="fill:#840000; fill-opacity:1.0; 
stroke:#840000; stroke-width:60; stroke-opacity:1; 
stroke-linecap:round; stroke-linejoin:round;">
<polyline style="fill-rule:evenodd;"
points="39500,34000
39300,33800
39700,33800
" /> 
<path d="M38000 34500
L37000 34500
" />
</g>
<g style="fill:#840000; fill-opacity:0.0; 
stroke:#840000; stroke-width:60; stroke-opacity:1; 
stroke-linecap:round; stroke-linejoin:round;">
<path d="M37610 34380
L37390 34380
" />
<path d="M37500 34380
L37500 33980
L37460 34040
L37420 34080
L37390 34100
" />
<path d="M39500 33800
L39500 33000
" />
<path d="M39020 33510
L39000 33490
L38980 33460
L38980 33360
L39000 33320
L39020 33300
L39060 33290
L39100 33290
L39150 33300
L39380 33530
L39380 33290
" />
<path d="M41000 34500
L42000 34500
" />
<path d="M41370 33980
L41610 33980
L41480 34130
L41540 34130
L41580 34150
L41600 34170
L41610 34210
L41610 34300
L41600 34340
L41580 34360
L41540 34380
L41420 34380
L41390 34360
L41370 34340
" />
</g>
<g style="fill:#008484; fill-opacity:0.0; 
stroke:#008484; stroke-width:60; stroke-opacity:1; 
stroke-linecap:round; stroke-linejoin:round;">
<path d="M39200 35700
L39040 35460
" />
<path d="M38920 35700
L38920 35200
L39110 35200
L39160 35220
L39180 35240
L39200 35290
L39200 35360
L39180 35410
L39160 35430
L39110 35460
L38920 35460
" />
<path d="M39350 35200
L39510 35700
L39680 35200
" />
<path d="M40110 35700
L39830 35700
" />
<path d="M39970 35700
L39970 35200
L39920 35270
L39870 35320
L39830 35340
" />
<path d="M39390 34700
L39110 34700
" />
<path d="M39250 34700
L39250 34200
L39200 34270
L39150 34320
L39110 34340
" />
<path d="M39610 34700
L39610 34200
" />
<path d="M39890 34700
L39680 34410
" />
<path d="M39890 34200
L39610 34480
" />
</g>
<g style="fill:#008484; fill-opacity:0.0; 
stroke:#008484; stroke-width:0; stroke-opacity:1; 
stroke-linecap:round; stroke-linejoin:round;">
</g>
<g style="fill:#840000; fill-opacity:0.0; 
stroke:#840000; stroke-width:60; stroke-opacity:1; 
stroke-linecap:round; stroke-linejoin:round;">
<rect x="33000" y="34000" width="3000" height="1000" rx="0" />
<polyline fill="none;"
points="34500,34000
34000,33500
34500,34000
35000,33500
" /> 
<path d="M33000 34500
L32500 34500
" />
</g>
<g style="fill:#008484; fill-opacity:0.0; 
stroke:#008484; stroke-width:60; stroke-opacity:1; 
stroke-linecap:round; stroke-linejoin:round;">
</g>
<g style="fill:#008484; fill-opacity:0.0; 
stroke:#008484; stroke-width:50; stroke-opacity:1; 
stroke-linecap:round; stroke-linejoin:round;">
<path d="M33460 34550
L33600 34550
" />
<path d="M33430 34640
L33530 34340
L33630 34640
" />
</g>
<g style="fill:#008484; fill-opacity:0.0; 
stroke:#008484; stroke-width:60; stroke-opacity:1; 
stroke-linecap:round; stroke-linejoin:round;">
</g>
<g style="fill:#840000; fill-opacity:0.0; 
stroke:#840000; stroke-width:60; stroke-opacity:1; 
stroke-linecap:round; stroke-linejoin:round;">
</g>
<g style="fill:#840000; fill-opacity:0.0; 
stroke:#840000; stroke-width:50; stroke-opacity:1; 
stroke-linecap:round; stroke-linejoin:round;">
<path d="M32650 34090
L32840 34090
L32740 34200
L32780 34200
L32810 34210
L32820 34230
L32840 34260
L32840 34330
L32820 34360
L32810 34370
L32780 34390
L32700 34390
L32670 34370
L32650 34360
" />
</g>
<g style="fill:#840000; fill-opacity:0.0; 
stroke:#840000; stroke-width:60; stroke-opacity:1; 
stroke-linecap:round; stroke-linejoin:round;">
<path d="M34500 34000
L34500 33000
" />
</g>
<g style="fill:#008484; fill-opacity:0.0; 
stroke:#008484; stroke-width:60; stroke-opacity:1; 
stroke-linecap:round; stroke-linejoin:round;">
</g>
<g style="fill:#008484; fill-opacity:0.0; 
stroke:#008484; stroke-width:50; stroke-opacity:1; 
stroke-linecap:round; stroke-linejoin:round;">
<path d="M34340 34700
L34640 34630
L34420 34570
L34640 34510
L34340 34440
" />
</g>
<g style="fill:#008484; fill-opacity:0.0; 
stroke:#008484; stroke-width:60; stroke-opacity:1; 
stroke-linecap:round; stroke-linejoin:round;">
</g>
<g style="fill:#840000; fill-opacity:0.0; 
stroke:#840000; stroke-width:60; stroke-opacity:1; 
stroke-linecap:round; stroke-linejoin:round;">
</g>
<g style="fill:#840000; fill-opacity:0.0; 
stroke:#840000; stroke-width:50; stroke-opacity:1; 
stroke-linecap:round; stroke-linejoin:round;">
<path d="M34190 33440
L34390 33440
" />
<path d="M34070 33510
L34290 33580
L34290 33400
" />
</g>
<g style="fill:#840000; fill-opacity:0.0; 
stroke:#840000; stroke-width:60; stroke-opacity:1; 
stroke-linecap:round; stroke-linejoin:round;">
<path d="M36000 34500
L36500 34500
" />
</g>
<g style="fill:#008484; fill-opacity:0.0; 
stroke:#008484; stroke-width:60; stroke-opacity:1; 
stroke-linecap:round; stroke-linejoin:round;">
</g>
<g style="fill:#008484; fill-opacity:0.0; 
stroke:#008484; stroke-width:50; stroke-opacity:1; 
stroke-linecap:round; stroke-linejoin:round;">
<path d="M35470 34480
L35510 34490
L35530 34510
L35540 34540
L35540 34580
L35530 34610
L35510 34620
L35490 34640
L35370 34640
L35370 34340
L35470 34340
L35500 34350
L35510 34360
L35530 34390
L35530 34420
L35510 34450
L35500 34460
L35470 34480
L35370 34480
" />
</g>
<g style="fill:#008484; fill-opacity:0.0; 
stroke:#008484; stroke-width:60; stroke-opacity:1; 
stroke-linecap:round; stroke-linejoin:round;">
</g>
<g style="fill:#840000; fill-opacity:0.0; 
stroke:#840000; stroke-width:60; stroke-opacity:1; 
stroke-linecap:round; stroke-linejoin:round;">
</g>
<g style="fill:#840000; fill-opacity:0.0; 
stroke:#840000; stroke-width:50; stroke-opacity:1; 
stroke-linecap:round; stroke-linejoin:round;">
<path d="M36320 34090
L36180 34090
L36170 34230
L36180 34210
L36210 34200
L36280 34200
L36310 34210
L36320 34230
L36340 34260
L36340 34330
L36320 34360
L36310 34370
L36280 34390
L36210 34390
L36180 34370
L36170 34360
" />
</g>
<g style="fill:#840000; fill-opacity:0.0; 
stroke:#840000; stroke-width:60; stroke-opacity:1; 
stroke-linecap:round; stroke-linejoin:round;">
</g>
<g style="fill:#008484; fill-opacity:0.0; 
stroke:#008484; stroke-width:60; stroke-opacity:1; 
stroke-linecap:round; stroke-linejoin:round;">
<path d="M31960 33150
L31960 33640
L31990 33690
L32020 33720
L32080 33750
L32190 33750
L32250 33720
L32280 33690
L32310 33640
L32310 33150
" />
<path d="M32560 33210
L32590 33180
L32650 33150
L32790 33150
L32850 33180
L32880 33210
L32910 33270
L32910 33320
L32880 33410
L32540 33750
L32910 33750
" />
<path d="M33360 33440
L33450 33470
L33480 33490
L33510 33550
L33510 33640
L33480 33690
L33450 33720
L33390 33750
L33160 33750
L33160 33150
L33360 33150
L33420 33180
L33450 33210
L33480 33270
L33480 33320
L33450 33380
L33420 33410
L33360 33440
L33160 33440
" />
</g>
<g style="fill:#008484; fill-opacity:0.0; 
stroke:#008484; stroke-width:50; stroke-opacity:1; 
stroke-linecap:round; stroke-linejoin:round;">
<path d="M34560 35390
L34690 35390
" />
<path d="M34530 35480
L34620 35190
L34720 35480
" />
<path d="M34820 35480
L34820 35190
L34890 35190
L34930 35200
L34960 35230
L34970 35260
L34980 35310
L34980 35350
L34970 35410
L34960 35430
L34930 35460
L34890 35480
L34820 35480
" />
<path d="M35250 35190
L35110 35190
L35100 35320
L35110 35310
L35140 35300
L35210 35300
L35230 35310
L35250 35320
L35260 35350
L35260 35420
L35250 35450
L35230 35460
L35210 35480
L35140 35480
L35110 35460
L35100 35450
" />
<path d="M35380 35210
L35390 35200
L35420 35190
L35490 35190
L35510 35200
L35530 35210
L35540 35240
L35540 35270
L35530 35310
L35360 35480
L35540 35480
" />
<path d="M35680 35480
L35740 35480
L35770 35460
L35780 35450
L35810 35410
L35820 35350
L35820 35240
L35810 35210
L35790 35200
L35770 35190
L35710 35190
L35680 35200
L35670 35210
L35660 35240
L35660 35310
L35670 35340
L35680 35350
L35710 35370
L35770 35370
L35790 35350
L35810 35340
L35820 35310
" />
<path d="M35940 35210
L35950 35200
L35980 35190
L36050 35190
L36070 35200
L36090 35210
L36100 35240
L36100 35270
L36090 35310
L35920 35480
L36100 35480
" />
</g>
<g style="fill:#840084; fill-opacity:0.0; 
stroke:#840084; stroke-width:60; stroke-opacity:1; 
stroke-linecap:round; stroke-linejoin:round;">
<path d="M33810 34800
L33460 34800
" />
<path d="M33640 34800
L33640 34200
L33580 34290
L33520 34340
L33460 34370
" />
<path d="M34180 34200
L34230 34200
L34290 34230
L34320 34260
L34350 34320
L34380 34430
L34380 34570
L34350 34690
L34320 34740
L34290 34770
L34230 34800
L34180 34800
L34120 34770
L34090 34740
L34060 34690
L34030 34570
L34030 34430
L34060 34320
L34090 34260
L34120 34230
L34180 34200
" />
<path d="M34750 34200
L34800 34200
L34860 34230
L34890 34260
L34920 34320
L34950 34430
L34950 34570
L34920 34690
L34890 34740
L34860 34770
L34800 34800
L34750 34800
L34690 34770
L34660 34740
L34630 34690
L34600 34570
L34600 34430
L34630 34320
L34660 34260
L34690 34230
L34750 34200
" />
<path d="M35200 34800
L35200 34200
" />
<path d="M35550 34800
L35290 34460
" />
<path d="M35550 34200
L35200 34540
" />
</g>
<g style="fill:#840084; fill-opacity:0.0; 
stroke:#840084; stroke-width:0; stroke-opacity:1; 
stroke-linecap:round; stroke-linejoin:round;">
</g>
<g style="fill:#840000; fill-opacity:0.0; 
stroke:#840000; stroke-width:60; stroke-opacity:1; 
stroke-linecap:round; stroke-linejoin:round;">
<polyline fill="none;"
points="48500,32000
48500,39000
54500,35500
48500,32000
" /> 
<path d="M48500 38000
L45500 38000
" />
</g>
<g style="fill:#008484; fill-opacity:0.0; 
stroke:#008484; stroke-width:60; stroke-opacity:1; 
stroke-linecap:round; stroke-linejoin:round;">
<path d="M49020 38040
L49400 38040
" />
</g>
<g style="fill:#840000; fill-opacity:0.0; 
stroke:#840000; stroke-width:60; stroke-opacity:1; 
stroke-linecap:round; stroke-linejoin:round;">
<path d="M47140 37880
L46860 37880
" />
<path d="M47000 37880
L47000 37380
L46950 37450
L46900 37500
L46860 37520
" />
<path d="M48500 34500
L45500 34500
" />
</g>
<g style="fill:#008484; fill-opacity:0.0; 
stroke:#008484; stroke-width:60; stroke-opacity:1; 
stroke-linecap:round; stroke-linejoin:round;">
<path d="M49300 34730
L49140 34490
" />
<path d="M49020 34730
L49020 34230
L49210 34230
L49260 34250
L49280 34270
L49300 34320
L49300 34390
L49280 34440
L49260 34460
L49210 34490
L49020 34490
" />
<path d="M49730 34390
L49730 34800
L49710 34850
L49690 34870
L49640 34890
L49570 34890
L49520 34870
" />
<path d="M49730 34700
L49690 34730
L49590 34730
L49540 34700
L49520 34680
L49500 34630
L49500 34490
L49520 34440
L49540 34420
L49590 34390
L49690 34390
L49730 34420
" />
</g>
<g style="fill:#840000; fill-opacity:0.0; 
stroke:#840000; stroke-width:60; stroke-opacity:1; 
stroke-linecap:round; stroke-linejoin:round;">
<path d="M46860 33920
L46880 33900
L46930 33880
L47050 33880
L47090 33900
L47120 33920
L47140 33970
L47140 34020
L47120 34090
L46830 34380
L47140 34380
" />
<path d="M48500 36500
L45500 36500
" />
</g>
<g style="fill:#008484; fill-opacity:0.0; 
stroke:#008484; stroke-width:60; stroke-opacity:1; 
stroke-linecap:round; stroke-linejoin:round;">
<path d="M49300 36730
L49140 36490
" />
<path d="M49020 36730
L49020 36230
L49210 36230
L49260 36250
L49280 36270
L49300 36320
L49300 36390
L49280 36440
L49260 36460
L49210 36490
L49020 36490
" />
<path d="M49730 36390
L49730 36800
L49710 36850
L49690 36870
L49640 36890
L49570 36890
L49520 36870
" />
<path d="M49730 36700
L49690 36730
L49590 36730
L49540 36700
L49520 36680
L49500 36630
L49500 36490
L49520 36440
L49540 36420
L49590 36390
L49690 36390
L49730 36420
" />
</g>
<g style="fill:#840000; fill-opacity:0.0; 
stroke:#840000; stroke-width:60; stroke-opacity:1; 
stroke-linecap:round; stroke-linejoin:round;">
<path d="M46830 35880
L47140 35880
L46970 36070
L47050 36070
L47090 36090
L47120 36110
L47140 36160
L47140 36280
L47120 36330
L47090 36350
L47050 36380
L46900 36380
L46860 36350
L46830 36330
" />
<path d="M48500 33000
L45500 33000
" />
</g>
<g style="fill:#008484; fill-opacity:0.0; 
stroke:#008484; stroke-width:60; stroke-opacity:1; 
stroke-linecap:round; stroke-linejoin:round;">
<path d="M49020 33040
L49400 33040
" />
<path d="M49210 33230
L49210 32850
" />
</g>
<g style="fill:#840000; fill-opacity:0.0; 
stroke:#840000; stroke-width:60; stroke-opacity:1; 
stroke-linecap:round; stroke-linejoin:round;">
<path d="M47090 32540
L47090 32880
" />
<path d="M46970 32350
L46860 32710
L47160 32710
" />
<path d="M50500 38000
L50500 41000
" />
</g>
<g style="fill:#008484; fill-opacity:0.0; 
stroke:#008484; stroke-width:60; stroke-opacity:1; 
stroke-linecap:round; stroke-linejoin:round;">
<path d="M50230 37550
L50730 37390
L50230 37220
" />
<path d="M50540 37050
L50540 36670
" />
</g>
<g style="fill:#840000; fill-opacity:0.0; 
stroke:#840000; stroke-width:60; stroke-opacity:1; 
stroke-linecap:round; stroke-linejoin:round;">
<path d="M49880 39380
L49880 39620
L50110 39640
L50090 39620
L50070 39570
L50070 39450
L50090 39410
L50110 39380
L50160 39360
L50280 39360
L50330 39380
L50350 39410
L50380 39450
L50380 39570
L50350 39620
L50330 39640
" />
<path d="M52500 37000
L52500 40000
" />
</g>
<g style="fill:#008484; fill-opacity:0.0; 
stroke:#008484; stroke-width:60; stroke-opacity:1; 
stroke-linecap:round; stroke-linejoin:round;">
<path d="M52730 36200
L52490 36360
" />
<path d="M52730 36480
L52230 36480
L52230 36290
L52250 36240
L52270 36220
L52320 36200
L52390 36200
L52440 36220
L52460 36240
L52490 36290
L52490 36480
" />
<path d="M52460 35980
L52460 35810
" />
<path d="M52730 35740
L52730 35980
L52230 35980
L52230 35740
" />
<path d="M52460 35360
L52460 35530
" />
<path d="M52730 35530
L52230 35530
L52230 35290
" />
</g>
<g style="fill:#840000; fill-opacity:0.0; 
stroke:#840000; stroke-width:60; stroke-opacity:1; 
stroke-linecap:round; stroke-linejoin:round;">
<path d="M51880 38410
L51880 38500
L51900 38550
L51920 38570
L52000 38620
L52090 38640
L52280 38640
L52330 38620
L52350 38600
L52380 38550
L52380 38450
L52350 38410
L52330 38380
L52280 38360
L52160 38360
L52110 38380
L52090 38410
L52070 38450
L52070 38550
L52090 38600
L52110 38620
L52160 38640
" />
<path d="M54500 35500
L57500 35500
" />
</g>
<g style="fill:#008484; fill-opacity:0.0; 
stroke:#008484; stroke-width:60; stroke-opacity:1; 
stroke-linecap:round; stroke-linejoin:round;">
<path d="M52890 35230
L52990 35230
L53040 35250
L53080 35300
L53110 35390
L53110 35560
L53080 35650
L53040 35700
L52990 35730
L52890 35730
L52850 35700
L52800 35650
L52780 35560
L52780 35390
L52800 35300
L52850 35250
L52890 35230
" />
<path d="M53320 35230
L53320 35630
L53340 35680
L53370 35700
L53410 35730
L53510 35730
L53560 35700
L53580 35680
L53600 35630
L53600 35230
" />
<path d="M53770 35230
L54050 35230
" />
<path d="M53910 35730
L53910 35230
" />
</g>
<g style="fill:#840000; fill-opacity:0.0; 
stroke:#840000; stroke-width:60; stroke-opacity:1; 
stroke-linecap:round; stroke-linejoin:round;">
<path d="M55830 34880
L56160 34880
L55950 35380
" />
<path d="M50500 33000
L50500 30000
" />
</g>
<g style="fill:#008484; fill-opacity:0.0; 
stroke:#008484; stroke-width:60; stroke-opacity:1; 
stroke-linecap:round; stroke-linejoin:round;">
<path d="M50230 34400
L50730 34240
L50230 34070
" />
<path d="M50540 33900
L50540 33520
" />
<path d="M50730 33710
L50350 33710
" />
</g>
<g style="fill:#840000; fill-opacity:0.0; 
stroke:#840000; stroke-width:60; stroke-opacity:1; 
stroke-linecap:round; stroke-linejoin:round;">
<path d="M50090 31550
L50070 31600
L50040 31620
L50000 31640
L49970 31640
L49920 31620
L49900 31600
L49880 31550
L49880 31450
L49900 31410
L49920 31380
L49970 31360
L50000 31360
L50040 31380
L50070 31410
L50090 31450
L50090 31550
L50110 31600
L50140 31620
L50190 31640
L50280 31640
L50330 31620
L50350 31600
L50380 31550
L50380 31450
L50350 31410
L50330 31380
L50280 31360
L50190 31360
L50140 31380
L50110 31410
L50090 31450
" />
</g>
<g style="fill:#008484; fill-opacity:0.0; 
stroke:#008484; stroke-width:60; stroke-opacity:1; 
stroke-linecap:round; stroke-linejoin:round;">
<path d="M50040 35140
L50040 35630
L50070 35680
L50100 35710
L50160 35740
L50270 35740
L50330 35710
L50360 35680
L50390 35630
L50390 35140
" />
<path d="M50990 35740
L50640 35740
" />
<path d="M50820 35740
L50820 35140
L50760 35230
L50700 35280
L50640 35310
" />
<path d="M51420 33070
L51710 33070
" />
<path d="M51370 33240
L51570 32640
L51770 33240
" />
<path d="M51960 33240
L51960 32640
L52110 32640
L52190 32670
L52250 32730
L52280 32780
L52310 32900
L52310 32980
L52280 33100
L52250 33160
L52190 33210
L52110 33240
L51960 33240
" />
<path d="M52650 32900
L52590 32870
L52560 32840
L52530 32780
L52530 32760
L52560 32700
L52590 32670
L52650 32640
L52760 32640
L52820 32670
L52850 32700
L52880 32760
L52880 32780
L52850 32840
L52820 32870
L52760 32900
L52650 32900
L52590 32930
L52560 32960
L52530 33010
L52530 33130
L52560 33180
L52590 33210
L52650 33240
L52760 33240
L52820 33210
L52850 33180
L52880 33130
L52880 33010
L52850 32960
L52820 32930
L52760 32900
" />
<path d="M53100 32700
L53130 32670
L53190 32640
L53330 32640
L53390 32670
L53420 32700
L53450 32760
L53450 32810
L53420 32900
L53080 33240
L53450 33240
" />
<path d="M53670 32700
L53700 32670
L53760 32640
L53900 32640
L53960 32670
L53990 32700
L54020 32760
L54020 32810
L53990 32900
L53650 33240
L54020 33240
" />
<path d="M54590 33240
L54240 33240
" />
<path d="M54420 33240
L54420 32640
L54360 32730
L54300 32780
L54240 32810
" />
</g>
<g style="fill:#008484; fill-opacity:0.0; 
stroke:#008484; stroke-width:0; stroke-opacity:1; 
stroke-linecap:round; stroke-linejoin:round;">
</g>
<g style="fill:#840000; fill-opacity:0.0; 
stroke:#840000; stroke-width:200; stroke-opacity:1; 
stroke-linecap:round; stroke-linejoin:round;">
<polyline fill="none;"
points="48200,26300
48200,24700
" /> 
<polyline fill="none;"
points="48800,26300
48800,24700
" /> 
</g>
<g style="fill:#840000; fill-opacity:0.0; 
stroke:#840000; stroke-width:60; stroke-opacity:1; 
stroke-linecap:round; stroke-linejoin:round;">
<path d="M48800 25500
L50500 25500
" />
</g>
<g style="fill:#008484; fill-opacity:0.0; 
stroke:#008484; stroke-width:60; stroke-opacity:1; 
stroke-linecap:round; stroke-linejoin:round;">
<path d="M48200 25500
L46500 25500
" />
</g>
<g style="fill:#008484; fill-opacity:0.0; 
stroke:#008484; stroke-width:60; stroke-opacity:1; 
stroke-linecap:round; stroke-linejoin:round;">
<path d="M49710 24600
L49730 24620
L49760 24690
L49760 24740
L49730 24810
L49680 24860
L49640 24880
L49540 24900
L49470 24900
L49380 24880
L49330 24860
L49280 24810
L49260 24740
L49260 24690
L49280 24620
L49300 24600
" />
<path d="M49420 24170
L49760 24170
" />
<path d="M49230 24290
L49590 24400
L49590 24100
" />
<path d="M47760 24620
L47760 24900
" />
<path d="M47760 24760
L47260 24760
L47330 24810
L47380 24860
L47400 24900
" />
<path d="M47420 24190
L47760 24190
" />
<path d="M47420 24400
L47680 24400
L47730 24380
L47760 24330
L47760 24260
L47730 24210
L47710 24190
" />
<path d="M47490 23780
L47490 23950
" />
<path d="M47760 23950
L47260 23950
L47260 23710
" />
</g>
<g style="fill:#008484; fill-opacity:0.0; 
stroke:#008484; stroke-width:0; stroke-opacity:1; 
stroke-linecap:round; stroke-linejoin:round;">
</g>
<g style="fill:#840000; fill-opacity:0.0; 
stroke:#840000; stroke-width:200; stroke-opacity:1; 
stroke-linecap:round; stroke-linejoin:round;">
<polyline fill="none;"
points="48200,23800
48200,22200
" /> 
<polyline fill="none;"
points="48800,23800
48800,22200
" /> 
</g>
<g style="fill:#840000; fill-opacity:0.0; 
stroke:#840000; stroke-width:60; stroke-opacity:1; 
stroke-linecap:round; stroke-linejoin:round;">
<path d="M48800 23000
L50500 23000
" />
</g>
<g style="fill:#008484; fill-opacity:0.0; 
stroke:#008484; stroke-width:60; stroke-opacity:1; 
stroke-linecap:round; stroke-linejoin:round;">
<path d="M48200 23000
L46500 23000
" />
</g>
<g style="fill:#008484; fill-opacity:0.0; 
stroke:#008484; stroke-width:60; stroke-opacity:1; 
stroke-linecap:round; stroke-linejoin:round;">
<path d="M49710 22100
L49730 22120
L49760 22190
L49760 22240
L49730 22310
L49680 22360
L49640 22380
L49540 22400
L49470 22400
L49380 22380
L49330 22360
L49280 22310
L49260 22240
L49260 22190
L49280 22120
L49300 22100
" />
<path d="M49260 21930
L49260 21620
L49450 21790
L49450 21710
L49470 21670
L49490 21640
L49540 21620
L49660 21620
L49710 21640
L49730 21670
L49760 21710
L49760 21860
L49730 21900
L49710 21930
" />
<path d="M47260 22290
L47260 22240
L47280 22190
L47300 22170
L47350 22140
L47450 22120
L47570 22120
L47660 22140
L47710 22170
L47730 22190
L47760 22240
L47760 22290
L47730 22330
L47710 22360
L47660 22380
L47570 22400
L47450 22400
L47350 22380
L47300 22360
L47280 22330
L47260 22290
" />
<path d="M47710 21900
L47730 21880
L47760 21900
L47730 21920
L47710 21900
L47760 21900
" />
<path d="M47760 21400
L47760 21680
" />
<path d="M47760 21540
L47260 21540
L47330 21590
L47380 21640
L47400 21680
" />
<path d="M47420 20970
L47760 20970
" />
<path d="M47420 21180
L47680 21180
L47730 21160
L47760 21110
L47760 21040
L47730 20990
L47710 20970
" />
<path d="M47490 20560
L47490 20730
" />
<path d="M47760 20730
L47260 20730
L47260 20490
" />
</g>
<g style="fill:#008484; fill-opacity:0.0; 
stroke:#008484; stroke-width:0; stroke-opacity:1; 
stroke-linecap:round; stroke-linejoin:round;">
</g>
<g style="fill:#840000; fill-opacity:0.0; 
stroke:#840000; stroke-width:60; stroke-opacity:1; 
stroke-linecap:round; stroke-linejoin:round;">
<polyline fill="none;"
points="45500,24400
45500,23600
45100,24000
45500,24400
" /> 
</g>
<g style="fill:#008484; fill-opacity:0.0; 
stroke:#008484; stroke-width:60; stroke-opacity:1; 
stroke-linecap:round; stroke-linejoin:round;">
<path d="M44910 24860
L44910 24630
" />
<path d="M45060 24910
L44560 24750
L45060 24580
" />
<path d="M44580 24150
L44560 24200
L44560 24270
L44580 24340
L44630 24390
L44680 24410
L44770 24430
L44840 24430
L44940 24410
L44980 24390
L45030 24340
L45060 24270
L45060 24220
L45030 24150
L45010 24130
L44840 24130
L44840 24220
" />
<path d="M45060 23910
L44560 23910
L45060 23630
L44560 23630
" />
<path d="M45060 23390
L44560 23390
L44560 23270
L44580 23200
L44630 23150
L44680 23130
L44770 23110
L44840 23110
L44940 23130
L44980 23150
L45030 23200
L45060 23270
L45060 23390
" />
</g>
<g style="fill:#008484; fill-opacity:0.0; 
stroke:#008484; stroke-width:0; stroke-opacity:1; 
stroke-linecap:round; stroke-linejoin:round;">
</g>
<g style="fill:#840000; fill-opacity:0.0; 
stroke:#840000; stroke-width:60; stroke-opacity:1; 
stroke-linecap:round; stroke-linejoin:round;">
<polyline fill="none;"
points="45500,46600
45500,47400
45100,47000
45500,46600
" /> 
</g>
<g style="fill:#008484; fill-opacity:0.0; 
stroke:#008484; stroke-width:60; stroke-opacity:1; 
stroke-linecap:round; stroke-linejoin:round;">
<path d="M44910 47870
L44910 47640
" />
<path d="M45060 47920
L44560 47760
L45060 47590
" />
<path d="M44580 47160
L44560 47210
L44560 47280
L44580 47350
L44630 47400
L44680 47420
L44770 47440
L44840 47440
L44940 47420
L44980 47400
L45030 47350
L45060 47280
L45060 47230
L45030 47160
L45010 47140
L44840 47140
L44840 47230
" />
<path d="M45060 46920
L44560 46920
L45060 46640
L44560 46640
" />
<path d="M45060 46400
L44560 46400
L44560 46280
L44580 46210
L44630 46160
L44680 46140
L44770 46120
L44840 46120
L44940 46140
L44980 46160
L45030 46210
L45060 46280
L45060 46400
" />
</g>
<g style="fill:#008484; fill-opacity:0.0; 
stroke:#008484; stroke-width:0; stroke-opacity:1; 
stroke-linecap:round; stroke-linejoin:round;">
</g>
<g style="fill:#840000; fill-opacity:0.0; 
stroke:#840000; stroke-width:200; stroke-opacity:1; 
stroke-linecap:round; stroke-linejoin:round;">
<polyline fill="none;"
points="48200,47200
48200,48800
" /> 
<polyline fill="none;"
points="48800,47200
48800,48800
" /> 
</g>
<g style="fill:#840000; fill-opacity:0.0; 
stroke:#840000; stroke-width:60; stroke-opacity:1; 
stroke-linecap:round; stroke-linejoin:round;">
<path d="M48800 48000
L50500 48000
" />
</g>
<g style="fill:#008484; fill-opacity:0.0; 
stroke:#008484; stroke-width:60; stroke-opacity:1; 
stroke-linecap:round; stroke-linejoin:round;">
<path d="M48200 48000
L46500 48000
" />
</g>
<g style="fill:#008484; fill-opacity:0.0; 
stroke:#008484; stroke-width:60; stroke-opacity:1; 
stroke-linecap:round; stroke-linejoin:round;">
<path d="M49710 49080
L49730 49100
L49760 49170
L49760 49220
L49730 49290
L49680 49340
L49640 49360
L49540 49380
L49470 49380
L49380 49360
L49330 49340
L49280 49290
L49260 49220
L49260 49170
L49280 49100
L49300 49080
" />
<path d="M49260 48650
L49260 48740
L49280 48790
L49300 48810
L49380 48860
L49470 48880
L49660 48880
L49710 48860
L49730 48840
L49760 48790
L49760 48690
L49730 48650
L49710 48620
L49660 48600
L49540 48600
L49490 48620
L49470 48650
L49450 48690
L49450 48790
L49470 48840
L49490 48860
L49540 48880
" />
<path d="M47260 50370
L47260 50320
L47280 50270
L47300 50250
L47350 50220
L47450 50200
L47570 50200
L47660 50220
L47710 50250
L47730 50270
L47760 50320
L47760 50370
L47730 50410
L47710 50440
L47660 50460
L47570 50480
L47450 50480
L47350 50460
L47300 50440
L47280 50410
L47260 50370
" />
<path d="M47710 49980
L47730 49960
L47760 49980
L47730 50000
L47710 49980
L47760 49980
" />
<path d="M47760 49480
L47760 49760
" />
<path d="M47760 49620
L47260 49620
L47330 49670
L47380 49720
L47400 49760
" />
<path d="M47420 49050
L47760 49050
" />
<path d="M47420 49260
L47680 49260
L47730 49240
L47760 49190
L47760 49120
L47730 49070
L47710 49050
" />
<path d="M47490 48640
L47490 48810
" />
<path d="M47760 48810
L47260 48810
L47260 48570
" />
</g>
<g style="fill:#008484; fill-opacity:0.0; 
stroke:#008484; stroke-width:0; stroke-opacity:1; 
stroke-linecap:round; stroke-linejoin:round;">
</g>
<g style="fill:#840000; fill-opacity:0.0; 
stroke:#840000; stroke-width:200; stroke-opacity:1; 
stroke-linecap:round; stroke-linejoin:round;">
<polyline fill="none;"
points="48200,44700
48200,46300
" /> 
<polyline fill="none;"
points="48800,44700
48800,46300
" /> 
</g>
<g style="fill:#840000; fill-opacity:0.0; 
stroke:#840000; stroke-width:60; stroke-opacity:1; 
stroke-linecap:round; stroke-linejoin:round;">
<path d="M48800 45500
L50500 45500
" />
</g>
<g style="fill:#008484; fill-opacity:0.0; 
stroke:#008484; stroke-width:60; stroke-opacity:1; 
stroke-linecap:round; stroke-linejoin:round;">
<path d="M48200 45500
L46500 45500
" />
</g>
<g style="fill:#008484; fill-opacity:0.0; 
stroke:#008484; stroke-width:60; stroke-opacity:1; 
stroke-linecap:round; stroke-linejoin:round;">
<path d="M49710 46580
L49730 46600
L49760 46670
L49760 46720
L49730 46790
L49680 46840
L49640 46860
L49540 46880
L49470 46880
L49380 46860
L49330 46840
L49280 46790
L49260 46720
L49260 46670
L49280 46600
L49300 46580
" />
<path d="M49260 46120
L49260 46360
L49490 46380
L49470 46360
L49450 46310
L49450 46190
L49470 46150
L49490 46120
L49540 46100
L49660 46100
L49710 46120
L49730 46150
L49760 46190
L49760 46310
L49730 46360
L49710 46380
" />
<path d="M47760 46980
L47760 47260
" />
<path d="M47760 47120
L47260 47120
L47330 47170
L47380 47220
L47400 47260
" />
<path d="M47420 46550
L47760 46550
" />
<path d="M47420 46760
L47680 46760
L47730 46740
L47760 46690
L47760 46620
L47730 46570
L47710 46550
" />
<path d="M47490 46140
L47490 46310
" />
<path d="M47760 46310
L47260 46310
L47260 46070
" />
</g>
<g style="fill:#008484; fill-opacity:0.0; 
stroke:#008484; stroke-width:0; stroke-opacity:1; 
stroke-linecap:round; stroke-linejoin:round;">
</g>
<g style="fill:#840000; fill-opacity:0.0; 
stroke:#840000; stroke-width:60; stroke-opacity:1; 
stroke-linecap:round; stroke-linejoin:round;">
<circle cx="50500" cy="20900" r="200" /> 
<polyline fill="none;"
points="50500,21500
50500,21100
50500,21100
" /> 
</g>
<g style="fill:#008484; fill-opacity:0.0; 
stroke:#008484; stroke-width:50; stroke-opacity:1; 
stroke-linecap:round; stroke-linejoin:round;">
<path d="M50100 20220
L50200 20520
L50300 20220
" />
<path d="M50400 20520
L50400 20220
L50470 20220
L50520 20230
L50540 20260
L50560 20290
L50570 20340
L50570 20390
L50560 20440
L50540 20470
L50520 20500
L50470 20520
L50400 20520
" />
<path d="M50700 20520
L50700 20220
L50770 20220
L50820 20230
L50840 20260
L50860 20290
L50870 20340
L50870 20390
L50860 20440
L50840 20470
L50820 20500
L50770 20520
L50700 20520
" />
</g>
<g style="fill:#008484; fill-opacity:0.0; 
stroke:#008484; stroke-width:0; stroke-opacity:1; 
stroke-linecap:round; stroke-linejoin:round;">
</g>
<g style="fill:#840000; fill-opacity:0.0; 
stroke:#840000; stroke-width:60; stroke-opacity:1; 
stroke-linecap:round; stroke-linejoin:round;">
<polyline fill="none;"
points="50000,50000
50500,50500
51000,50000
50000,50000
" /> 
</g>
<g style="fill:#008484; fill-opacity:0.0; 
stroke:#008484; stroke-width:50; stroke-opacity:1; 
stroke-linecap:round; stroke-linejoin:round;">
<path d="M50110 50520
L50210 50820
L50310 50520
" />
<path d="M50400 50800
L50440 50820
L50510 50820
L50540 50800
L50550 50790
L50570 50760
L50570 50730
L50550 50700
L50540 50690
L50510 50670
L50450 50660
L50430 50640
L50410 50630
L50400 50600
L50400 50570
L50410 50540
L50430 50530
L50450 50520
L50530 50520
L50570 50530
" />
<path d="M50690 50800
L50730 50820
L50800 50820
L50830 50800
L50840 50790
L50860 50760
L50860 50730
L50840 50700
L50830 50690
L50800 50670
L50740 50660
L50720 50640
L50700 50630
L50690 50600
L50690 50570
L50700 50540
L50720 50530
L50740 50520
L50820 50520
L50860 50530
" />
</g>
<g style="fill:#008484; fill-opacity:0.0; 
stroke:#008484; stroke-width:0; stroke-opacity:1; 
stroke-linecap:round; stroke-linejoin:round;">
</g>
<g style="fill:#840000; fill-opacity:0.0; 
stroke:#840000; stroke-width:60; stroke-opacity:1; 
stroke-linecap:round; stroke-linejoin:round;">
<polyline fill="none;"
points="38100,50000
38900,50000
38500,50400
38100,50000
" /> 
</g>
<g style="fill:#008484; fill-opacity:0.0; 
stroke:#008484; stroke-width:60; stroke-opacity:1; 
stroke-linecap:round; stroke-linejoin:round;">
<path d="M37630 50750
L37860 50750
" />
<path d="M37580 50900
L37740 50400
L37910 50900
" />
<path d="M38340 50420
L38290 50400
L38220 50400
L38150 50420
L38100 50470
L38080 50520
L38060 50610
L38060 50680
L38080 50780
L38100 50820
L38150 50870
L38220 50900
L38270 50900
L38340 50870
L38360 50850
L38360 50680
L38270 50680
" />
<path d="M38580 50900
L38580 50400
L38860 50900
L38860 50400
" />
<path d="M39100 50900
L39100 50400
L39220 50400
L39290 50420
L39340 50470
L39360 50520
L39380 50610
L39380 50680
L39360 50780
L39340 50820
L39290 50870
L39220 50900
L39100 50900
" />
</g>
<g style="fill:#008484; fill-opacity:0.0; 
stroke:#008484; stroke-width:0; stroke-opacity:1; 
stroke-linecap:round; stroke-linejoin:round;">
</g>
<g style="fill:#840000; fill-opacity:0.0; 
stroke:#840000; stroke-width:60; stroke-opacity:1; 
stroke-linecap:round; stroke-linejoin:round;">
<polyline fill="none;"
points="38900,20500
38100,20500
38500,20100
38900,20500
" /> 
</g>
<g style="fill:#008484; fill-opacity:0.0; 
stroke:#008484; stroke-width:60; stroke-opacity:1; 
stroke-linecap:round; stroke-linejoin:round;">
<path d="M37620 19910
L37850 19910
" />
<path d="M37570 20060
L37730 19560
L37900 20060
" />
<path d="M38330 19580
L38280 19560
L38210 19560
L38140 19580
L38090 19630
L38070 19680
L38050 19770
L38050 19840
L38070 19940
L38090 19980
L38140 20030
L38210 20060
L38260 20060
L38330 20030
L38350 20010
L38350 19840
L38260 19840
" />
<path d="M38570 20060
L38570 19560
L38850 20060
L38850 19560
" />
<path d="M39090 20060
L39090 19560
L39210 19560
L39280 19580
L39330 19630
L39350 19680
L39370 19770
L39370 19840
L39350 19940
L39330 19980
L39280 20030
L39210 20060
L39090 20060
" />
</g>
<g style="fill:#008484; fill-opacity:0.0; 
stroke:#008484; stroke-width:0; stroke-opacity:1; 
stroke-linecap:round; stroke-linejoin:round;">
</g>
<g style="fill:#840000; fill-opacity:0.0; 
stroke:#840000; stroke-width:120; stroke-opacity:1; 
stroke-linecap:round; stroke-linejoin:round;">
<rect x="39100" y="44000" width="800" height="3000" rx="0" />
</g>
<g style="fill:#840000; fill-opacity:0.0; 
stroke:#840000; stroke-width:60; stroke-opacity:1; 
stroke-linecap:round; stroke-linejoin:round;">
<path d="M39500 44000
L39500 43000
" />
</g>
<g style="fill:#008484; fill-opacity:0.0; 
stroke:#008484; stroke-width:60; stroke-opacity:1; 
stroke-linecap:round; stroke-linejoin:round;">
<path d="M39500 47000
L39500 48000
" />
</g>
<g style="fill:#008484; fill-opacity:0.0; 
stroke:#008484; stroke-width:60; stroke-opacity:1; 
stroke-linecap:round; stroke-linejoin:round;">
<path d="M40500 45590
L40260 45750
" />
<path d="M40500 45870
L40000 45870
L40000 45680
L40020 45630
L40040 45610
L40090 45590
L40160 45590
L40210 45610
L40230 45630
L40260 45680
L40260 45870
" />
<path d="M40040 45390
L40020 45370
L40000 45320
L40000 45200
L40020 45160
L40040 45130
L40090 45110
L40140 45110
L40210 45130
L40500 45420
L40500 45110
" />
<path d="M39700 46090
L39700 46370
" />
<path d="M39700 46230
L39200 46230
L39270 46280
L39320 46330
L39340 46370
" />
<path d="M39200 45920
L39200 45610
L39390 45780
L39390 45700
L39410 45660
L39430 45630
L39480 45610
L39600 45610
L39650 45630
L39670 45660
L39700 45700
L39700 45850
L39670 45890
L39650 45920
" />
<path d="M39200 45440
L39200 45110
L39700 45320
" />
<path d="M39700 44630
L39460 44790
" />
<path d="M39700 44910
L39200 44910
L39200 44720
L39220 44670
L39240 44650
L39290 44630
L39360 44630
L39410 44650
L39430 44670
L39460 44720
L39460 44910
" />
</g>
<g style="fill:#008484; fill-opacity:0.0; 
stroke:#008484; stroke-width:0; stroke-opacity:1; 
stroke-linecap:round; stroke-linejoin:round;">
</g>
<g style="fill:#840000; fill-opacity:0.0; 
stroke:#840000; stroke-width:120; stroke-opacity:1; 
stroke-linecap:round; stroke-linejoin:round;">
<rect x="39100" y="24000" width="800" height="3000" rx="0" />
</g>
<g style="fill:#840000; fill-opacity:0.0; 
stroke:#840000; stroke-width:60; stroke-opacity:1; 
stroke-linecap:round; stroke-linejoin:round;">
<path d="M39500 24000
L39500 23000
" />
</g>
<g style="fill:#008484; fill-opacity:0.0; 
stroke:#008484; stroke-width:60; stroke-opacity:1; 
stroke-linecap:round; stroke-linejoin:round;">
<path d="M39500 27000
L39500 28000
" />
</g>
<g style="fill:#008484; fill-opacity:0.0; 
stroke:#008484; stroke-width:60; stroke-opacity:1; 
stroke-linecap:round; stroke-linejoin:round;">
<path d="M40500 25590
L40260 25750
" />
<path d="M40500 25870
L40000 25870
L40000 25680
L40020 25630
L40040 25610
L40090 25590
L40160 25590
L40210 25610
L40230 25630
L40260 25680
L40260 25870
" />
<path d="M40500 25110
L40500 25390
" />
<path d="M40500 25250
L40000 25250
L40070 25300
L40120 25350
L40140 25390
" />
<path d="M39700 26090
L39700 26370
" />
<path d="M39700 26230
L39200 26230
L39270 26280
L39320 26330
L39340 26370
" />
<path d="M39200 25920
L39200 25610
L39390 25780
L39390 25700
L39410 25660
L39430 25630
L39480 25610
L39600 25610
L39650 25630
L39670 25660
L39700 25700
L39700 25850
L39670 25890
L39650 25920
" />
<path d="M39200 25440
L39200 25110
L39700 25320
" />
<path d="M39700 24630
L39460 24790
" />
<path d="M39700 24910
L39200 24910
L39200 24720
L39220 24670
L39240 24650
L39290 24630
L39360 24630
L39410 24650
L39430 24670
L39460 24720
L39460 24910
" />
</g>
<g style="fill:#008484; fill-opacity:0.0; 
stroke:#008484; stroke-width:0; stroke-opacity:1; 
stroke-linecap:round; stroke-linejoin:round;">
</g>
<g style="fill:#840000; fill-opacity:0.0; 
stroke:#840000; stroke-width:120; stroke-opacity:1; 
stroke-linecap:round; stroke-linejoin:round;">
<rect x="28000" y="34100" width="3000" height="800" rx="0" />
</g>
<g style="fill:#840000; fill-opacity:0.0; 
stroke:#840000; stroke-width:60; stroke-opacity:1; 
stroke-linecap:round; stroke-linejoin:round;">
<path d="M28000 34500
L27000 34500
" />
</g>
<g style="fill:#008484; fill-opacity:0.0; 
stroke:#008484; stroke-width:60; stroke-opacity:1; 
stroke-linecap:round; stroke-linejoin:round;">
<path d="M31000 34500
L32000 34500
" />
</g>
<g style="fill:#008484; fill-opacity:0.0; 
stroke:#008484; stroke-width:60; stroke-opacity:1; 
stroke-linecap:round; stroke-linejoin:round;">
<path d="M29410 35500
L29250 35260
" />
<path d="M29130 35500
L29130 35000
L29320 35000
L29370 35020
L29390 35040
L29410 35090
L29410 35160
L29390 35210
L29370 35230
L29320 35260
L29130 35260
" />
<path d="M29610 35040
L29630 35020
L29680 35000
L29800 35000
L29840 35020
L29870 35040
L29890 35090
L29890 35140
L29870 35210
L29580 35500
L29890 35500
" />
<path d="M28870 34240
L28890 34220
L28940 34200
L29060 34200
L29100 34220
L29130 34240
L29150 34290
L29150 34340
L29130 34410
L28840 34700
L29150 34700
" />
<path d="M29580 34360
L29580 34700
" />
<path d="M29460 34170
L29350 34530
L29650 34530
" />
<path d="M29850 34700
L29850 34200
" />
<path d="M30130 34700
L29920 34410
" />
<path d="M30130 34200
L29850 34480
" />
</g>
<g style="fill:#008400; fill-opacity:0.0; 
stroke:#008400; stroke-width:60; stroke-opacity:1; 
stroke-linecap:round; stroke-linejoin:round;">
<path d="M65000 49500
L64000 49500
" />
</g>
<g style="fill:#008400; fill-opacity:0.0; 
stroke:#008400; stroke-width:0; stroke-opacity:1; 
stroke-linecap:round; stroke-linejoin:round;">
</g>
<g style="fill:#008400; fill-opacity:1.0; 
stroke:#008400; stroke-width:100; stroke-opacity:1; 
stroke-linecap:round; stroke-linejoin:round;">
<circle cx="65000" cy="49500" r="200" /> 
</g>
<g style="fill:#008400; fill-opacity:1.0; 
stroke:#008400; stroke-width:60; stroke-opacity:1; 
stroke-linecap:round; stroke-linejoin:round;">
<path d="M50500 21500
L50500 30000
" />
<path d="M45500 47000
L46500 47000
" />
<path d="M50500 41000
L50500 50000
" />
<path d="M46500 45500
L46500 48000
" />
</g>
<g style="fill:#008400; fill-opacity:1.0; 
stroke:#008400; stroke-width:0; stroke-opacity:1; 
stroke-linecap:round; stroke-linejoin:round;">
</g>
<g style="fill:#008400; fill-opacity:1.0; 
stroke:#008400; stroke-width:100; stroke-opacity:1; 
stroke-linecap:round; stroke-linejoin:round;">
<circle cx="46500" cy="47000" r="200" /> 
</g>
<g style="fill:#008400; fill-opacity:1.0; 
stroke:#008400; stroke-width:0; stroke-opacity:1; 
stroke-linecap:round; stroke-linejoin:round;">
</g>
<g style="fill:#008400; fill-opacity:1.0; 
stroke:#008400; stroke-width:100; stroke-opacity:1; 
stroke-linecap:round; stroke-linejoin:round;">
<circle cx="46500" cy="24000" r="200" /> 
</g>
<g style="fill:#008400; fill-opacity:1.0; 
stroke:#008400; stroke-width:60; stroke-opacity:1; 
stroke-linecap:round; stroke-linejoin:round;">
<path d="M46500 25500
L46500 23000
" />
<path d="M46500 24000
L45500 24000
" />
</g>
<g style="fill:#008400; fill-opacity:1.0; 
stroke:#008400; stroke-width:0; stroke-opacity:1; 
stroke-linecap:round; stroke-linejoin:round;">
</g>
<g style="fill:#008400; fill-opacity:1.0; 
stroke:#008400; stroke-width:100; stroke-opacity:1; 
stroke-linecap:round; stroke-linejoin:round;">
<circle cx="65000" cy="44500" r="200" /> 
</g>
<g style="fill:#008400; fill-opacity:1.0; 
stroke:#008400; stroke-width:60; stroke-opacity:1; 
stroke-linecap:round; stroke-linejoin:round;">
<path d="M65000 44500
L64000 44500
" />
<path d="M71000 49500
L69000 49500
" />
<path d="M69000 44500
L71000 44500
" />
<path d="M74000 45500
L74000 41500
" />
<path d="M52500 47000
L67000 47000
" />
<path d="M38500 29500
L38500 28000
" />
<path d="M37500 28000
L39500 28000
" />
<path d="M37500 28000
L37500 27500
" />
</g>
<g style="fill:#008400; fill-opacity:1.0; 
stroke:#008400; stroke-width:0; stroke-opacity:1; 
stroke-linecap:round; stroke-linejoin:round;">
</g>
<g style="fill:#008400; fill-opacity:1.0; 
stroke:#008400; stroke-width:100; stroke-opacity:1; 
stroke-linecap:round; stroke-linejoin:round;">
<circle cx="38500" cy="28000" r="200" /> 
</g>
<g style="fill:#008400; fill-opacity:1.0; 
stroke:#008400; stroke-width:60; stroke-opacity:1; 
stroke-linecap:round; stroke-linejoin:round;">
<path d="M37500 23500
L37500 23000
" />
<path d="M37500 23000
L39500 23000
" />
<path d="M38500 23000
L38500 20500
" />
</g>
<g style="fill:#008400; fill-opacity:1.0; 
stroke:#008400; stroke-width:0; stroke-opacity:1; 
stroke-linecap:round; stroke-linejoin:round;">
</g>
<g style="fill:#008400; fill-opacity:1.0; 
stroke:#008400; stroke-width:100; stroke-opacity:1; 
stroke-linecap:round; stroke-linejoin:round;">
<circle cx="38500" cy="23000" r="200" /> 
</g>
<g style="fill:#008400; fill-opacity:1.0; 
stroke:#008400; stroke-width:60; stroke-opacity:1; 
stroke-linecap:round; stroke-linejoin:round;">
<path d="M38500 41500
L38500 43000
" />
<path d="M37500 43000
L39500 43000
" />
<path d="M37500 43000
L37500 43500
" />
</g>
<g style="fill:#008400; fill-opacity:1.0; 
stroke:#008400; stroke-width:0; stroke-opacity:1; 
stroke-linecap:round; stroke-linejoin:round;">
</g>
<g style="fill:#008400; fill-opacity:1.0; 
stroke:#008400; stroke-width:100; stroke-opacity:1; 
stroke-linecap:round; stroke-linejoin:round;">
<circle cx="38500" cy="43000" r="200" /> 
</g>
<g style="fill:#008400; fill-opacity:1.0; 
stroke:#008400; stroke-width:60; stroke-opacity:1; 
stroke-linecap:round; stroke-linejoin:round;">
<path d="M37500 47500
L37500 48000
" />
<path d="M37500 48000
L39500 48000
" />
<path d="M38500 48000
L38500 50000
" />
</g>
<g style="fill:#008400; fill-opacity:1.0; 
stroke:#008400; stroke-width:0; stroke-opacity:1; 
stroke-linecap:round; stroke-linejoin:round;">
</g>
<g style="fill:#008400; fill-opacity:1.0; 
stroke:#008400; stroke-width:100; stroke-opacity:1; 
stroke-linecap:round; stroke-linejoin:round;">
<circle cx="38500" cy="48000" r="200" /> 
</g>
<g style="fill:#008400; fill-opacity:1.0; 
stroke:#008400; stroke-width:60; stroke-opacity:1; 
stroke-linecap:round; stroke-linejoin:round;">
<path d="M32000 34500
L32500 34500
" />
<path d="M37000 34500
L36500 34500
" />
<path d="M37000 34500
L37000 33000
" />
</g>
<g style="fill:#008400; fill-opacity:1.0; 
stroke:#008400; stroke-width:0; stroke-opacity:1; 
stroke-linecap:round; stroke-linejoin:round;">
</g>
<g style="fill:#008400; fill-opacity:1.0; 
stroke:#008400; stroke-width:100; stroke-opacity:1; 
stroke-linecap:round; stroke-linejoin:round;">
<circle cx="37000" cy="33000" r="200" /> 
</g>
<g style="fill:#008400; fill-opacity:1.0; 
stroke:#008400; stroke-width:60; stroke-opacity:1; 
stroke-linecap:round; stroke-linejoin:round;">
<path d="M34500 33000
L39500 33000
" />
<path d="M80000 48500
L74000 48500
" />
</g>
<g style="fill:#008400; fill-opacity:1.0; 
stroke:#008400; stroke-width:0; stroke-opacity:1; 
stroke-linecap:round; stroke-linejoin:round;">
</g>
<g style="fill:#008400; fill-opacity:1.0; 
stroke:#008400; stroke-width:100; stroke-opacity:1; 
stroke-linecap:round; stroke-linejoin:round;">
<circle cx="80000" cy="37500" r="200" /> 
</g>
<g style="fill:#008400; fill-opacity:1.0; 
stroke:#008400; stroke-width:60; stroke-opacity:1; 
stroke-linecap:round; stroke-linejoin:round;">
<path d="M62000 41500
L62000 47000
" />
</g>
<g style="fill:#008400; fill-opacity:1.0; 
stroke:#008400; stroke-width:0; stroke-opacity:1; 
stroke-linecap:round; stroke-linejoin:round;">
</g>
<g style="fill:#008400; fill-opacity:1.0; 
stroke:#008400; stroke-width:100; stroke-opacity:1; 
stroke-linecap:round; stroke-linejoin:round;">
<circle cx="62000" cy="47000" r="200" /> 
</g>
<g style="fill:#008400; fill-opacity:1.0; 
stroke:#008400; stroke-width:60; stroke-opacity:1; 
stroke-linecap:round; stroke-linejoin:round;">
<path d="M74000 41500
L62000 41500
" />
</g>
<g style="fill:#000000; fill-opacity:0.0; 
stroke:#000000; stroke-width:60; stroke-opacity:1; 
stroke-linecap:round; stroke-linejoin:round;">
<path d="M21060 39160
L21060 39360
" />
<path d="M21370 39360
L20770 39360
L20770 39070
" />
<path d="M21370 38500
L21090 38700
" />
<path d="M21370 38850
L20770 38850
L20770 38620
L20800 38560
L20830 38530
L20890 38500
L20970 38500
L21030 38530
L21060 38560
L21090 38620
L21090 38850
" />
<path d="M20770 38130
L20770 38020
L20800 37960
L20860 37900
L20970 37880
L21170 37880
L21290 37900
L21340 37960
L21370 38020
L21370 38130
L21340 38190
L21290 38250
L21170 38280
L20970 38280
L20860 38250
L20800 38190
L20770 38130
" />
<path d="M21370 37620
L20770 37620
L21200 37420
L20770 37220
L21370 37220
" />
<path d="M21370 36470
L20770 36470
L20770 36320
L20800 36240
L20860 36180
L20910 36150
L21030 36120
L21110 36120
L21230 36150
L21290 36180
L21340 36240
L21370 36320
L21370 36470
" />
<path d="M21370 35870
L20770 35870
L20770 35720
L20800 35640
L20860 35580
L20910 35550
L21030 35520
L21110 35520
L21230 35550
L21290 35580
L21340 35640
L21370 35720
L21370 35870
" />
<path d="M21340 35300
L21370 35210
L21370 35070
L21340 35010
L21310 34980
L21260 34950
L21200 34950
L21140 34980
L21110 35010
L21090 35070
L21060 35180
L21030 35240
L21000 35270
L20940 35300
L20890 35300
L20830 35270
L20800 35240
L20770 35180
L20770 35040
L20800 34950
" />
<path d="M20770 34120
L20770 34010
L20800 33950
L20860 33890
L20970 33870
L21170 33870
L21290 33890
L21340 33950
L21370 34010
L21370 34120
L21340 34180
L21290 34240
L21170 34270
L20970 34270
L20860 34240
L20800 34180
L20770 34120
" />
<path d="M20770 33610
L21260 33610
L21310 33580
L21340 33550
L21370 33490
L21370 33380
L21340 33320
L21310 33290
L21260 33260
L20770 33260
" />
<path d="M20770 33060
L20770 32720
" />
<path d="M21370 32890
L20770 32890
" />
<path d="M21370 32520
L20770 32520
L20770 32290
L20800 32230
L20830 32200
L20890 32170
L20970 32170
L21030 32200
L21060 32230
L21090 32290
L21090 32520
" />
<path d="M20770 31920
L21260 31920
L21310 31890
L21340 31860
L21370 31800
L21370 31690
L21340 31630
L21310 31600
L21260 31570
L20770 31570
" />
<path d="M20770 31370
L20770 31030
" />
<path d="M21370 31200
L20770 31200
" />
</g>
<g style="fill:#008400; fill-opacity:0.0; 
stroke:#008400; stroke-width:60; stroke-opacity:1; 
stroke-linecap:round; stroke-linejoin:round;">
<path d="M45500 38000
L45500 41500
" />
<path d="M45500 41500
L22000 41500
" />
</g>
<g style="fill:#008400; fill-opacity:0.0; 
stroke:#008400; stroke-width:0; stroke-opacity:1; 
stroke-linecap:round; stroke-linejoin:round;">
</g>
<g style="fill:#008400; fill-opacity:1.0; 
stroke:#008400; stroke-width:100; stroke-opacity:1; 
stroke-linecap:round; stroke-linejoin:round;">
<circle cx="38500" cy="41500" r="200" /> 
</g>
<g style="fill:#008400; fill-opacity:1.0; 
stroke:#008400; stroke-width:60; stroke-opacity:1; 
stroke-linecap:round; stroke-linejoin:round;">
<path d="M21000 29500
L45500 29500
" />
</g>
<g style="fill:#008400; fill-opacity:1.0; 
stroke:#008400; stroke-width:0; stroke-opacity:1; 
stroke-linecap:round; stroke-linejoin:round;">
</g>
<g style="fill:#008400; fill-opacity:1.0; 
stroke:#008400; stroke-width:100; stroke-opacity:1; 
stroke-linecap:round; stroke-linejoin:round;">
<circle cx="38500" cy="29500" r="200" /> 
</g>
<g style="fill:#008400; fill-opacity:1.0; 
stroke:#008400; stroke-width:0; stroke-opacity:1; 
stroke-linecap:round; stroke-linejoin:round;">
</g>
<g style="fill:#008400; fill-opacity:1.0; 
stroke:#008400; stroke-width:100; stroke-opacity:1; 
stroke-linecap:round; stroke-linejoin:round;">
<circle cx="50500" cy="45500" r="200" /> 
</g>
<g style="fill:#008400; fill-opacity:1.0; 
stroke:#008400; stroke-width:60; stroke-opacity:1; 
stroke-linecap:round; stroke-linejoin:round;">
<path d="M45500 29500
L45500 33000
" />
<path d="M45500 34500
L42000 34500
" />
<path d="M45500 36500
L27000 36500
" />
<path d="M27000 36500
L27000 34500
" />
</g>
<g style="fill:#0000C2; fill-opacity:1.0; 
stroke:#0000C2; stroke-width:60; stroke-opacity:1; 
stroke-linecap:round; stroke-linejoin:round;">
<path d="M43000 32000
L43000 37500
" />
<path d="M43000 37500
L26000 37500
" />
<path d="M26000 37500
L26000 32000
" />
<path d="M26000 32000
L43000 32000
" />
</g>
<g style="fill:#0000C2; fill-opacity:0.0; 
stroke:#0000C2; stroke-width:60; stroke-opacity:1; 
stroke-linecap:round; stroke-linejoin:round;">
<path d="M26460 30800
L26400 30770
L26310 30770
L26230 30800
L26170 30860
L26140 30910
L26110 31030
L26110 31110
L26140 31230
L26170 31290
L26230 31340
L26310 31370
L26370 31370
L26460 31340
L26490 31310
L26490 31110
L26370 31110
" />
<path d="M27000 31370
L27000 31060
L26970 31000
L26910 30970
L26800 30970
L26740 31000
" />
<path d="M27000 31340
L26940 31370
L26800 31370
L26740 31340
L26710 31290
L26710 31230
L26740 31170
L26800 31140
L26940 31140
L27000 31110
" />
<path d="M27280 31370
L27280 30970
" />
<path d="M27280 30770
L27250 30800
L27280 30830
L27310 30800
L27280 30770
L27280 30830
" />
<path d="M27570 30970
L27570 31370
" />
<path d="M27570 31030
L27600 31000
L27660 30970
L27740 30970
L27800 31000
L27830 31060
L27830 31370
" />
<path d="M28540 31340
L28630 31370
L28770 31370
L28830 31340
L28860 31310
L28890 31260
L28890 31200
L28860 31140
L28830 31110
L28770 31090
L28660 31060
L28600 31030
L28570 31000
L28540 30940
L28540 30890
L28570 30830
L28600 30800
L28660 30770
L28800 30770
L28890 30800
" />
<path d="M29370 31340
L29310 31370
L29200 31370
L29140 31340
L29110 31290
L29110 31060
L29140 31000
L29200 30970
L29310 30970
L29370 31000
L29400 31060
L29400 31110
L29110 31170
" />
<path d="M29740 31370
L29680 31340
L29650 31290
L29650 30770
" />
<path d="M30190 31340
L30130 31370
L30020 31370
L29960 31340
L29930 31290
L29930 31060
L29960 31000
L30020 30970
L30130 30970
L30190 31000
L30220 31060
L30220 31110
L29930 31170
" />
<path d="M30730 31340
L30670 31370
L30560 31370
L30500 31340
L30470 31310
L30440 31260
L30440 31090
L30470 31030
L30500 31000
L30560 30970
L30670 30970
L30730 31000
" />
<path d="M30900 30970
L31130 30970
" />
<path d="M30980 30770
L30980 31290
L31010 31340
L31070 31370
L31130 31370
" />
<path d="M44640 18370
L44640 17770
L44870 17770
L44930 17800
L44960 17830
L44990 17890
L44990 17970
L44960 18030
L44930 18060
L44870 18090
L44640 18090
" />
<path d="M45330 18370
L45270 18340
L45240 18310
L45210 18260
L45210 18090
L45240 18030
L45270 18000
L45330 17970
L45410 17970
L45470 18000
L45500 18030
L45530 18090
L45530 18260
L45500 18310
L45470 18340
L45410 18370
L45330 18370
" />
<path d="M45730 17970
L45840 18370
L45950 18090
L46070 18370
L46180 17970
" />
<path d="M46640 18340
L46580 18370
L46470 18370
L46410 18340
L46380 18290
L46380 18060
L46410 18000
L46470 17970
L46580 17970
L46640 18000
L46670 18060
L46670 18110
L46380 18170
" />
<path d="M46920 18370
L46920 17970
" />
<path d="M46920 18090
L46950 18030
L46980 18000
L47040 17970
L47090 17970
" />
<path d="M47720 18340
L47810 18370
L47950 18370
L48010 18340
L48040 18310
L48070 18260
L48070 18200
L48040 18140
L48010 18110
L47950 18090
L47840 18060
L47780 18030
L47750 18000
L47720 17940
L47720 17890
L47750 17830
L47780 17800
L47840 17770
L47980 17770
L48070 17800
" />
<path d="M48580 17970
L48580 18370
" />
<path d="M48320 17970
L48320 18290
L48350 18340
L48410 18370
L48490 18370
L48550 18340
L48580 18310
" />
<path d="M48860 17970
L48860 18570
" />
<path d="M48860 18000
L48920 17970
L49030 17970
L49090 18000
L49120 18030
L49150 18090
L49150 18260
L49120 18310
L49090 18340
L49030 18370
L48920 18370
L48860 18340
" />
<path d="M49400 17970
L49400 18570
" />
<path d="M49400 18000
L49460 17970
L49570 17970
L49630 18000
L49660 18030
L49690 18090
L49690 18260
L49660 18310
L49630 18340
L49570 18370
L49460 18370
L49400 18340
" />
<path d="M50030 18370
L49970 18340
L49940 18290
L49940 17770
" />
<path d="M50200 17970
L50340 18370
" />
<path d="M50480 17970
L50340 18370
L50280 18510
L50250 18540
L50200 18570
" />
<path d="M44640 19210
L44640 18610
L44790 18610
L44870 18640
L44930 18700
L44960 18750
L44990 18870
L44990 18950
L44960 19070
L44930 19130
L44870 19180
L44790 19210
L44640 19210
" />
<path d="M45470 19180
L45410 19210
L45300 19210
L45240 19180
L45210 19130
L45210 18900
L45240 18840
L45300 18810
L45410 18810
L45470 18840
L45500 18900
L45500 18950
L45210 19010
" />
<path d="M46010 19180
L45950 19210
L45840 19210
L45780 19180
L45750 19150
L45720 19100
L45720 18930
L45750 18870
L45780 18840
L45840 18810
L45950 18810
L46010 18840
" />
<path d="M46350 19210
L46290 19180
L46260 19150
L46230 19100
L46230 18930
L46260 18870
L46290 18840
L46350 18810
L46430 18810
L46490 18840
L46520 18870
L46550 18930
L46550 19100
L46520 19150
L46490 19180
L46430 19210
L46350 19210
" />
<path d="M47060 18810
L47060 19210
" />
<path d="M46800 18810
L46800 19130
L46830 19180
L46890 19210
L46970 19210
L47030 19180
L47060 19150
" />
<path d="M47340 18810
L47340 19410
" />
<path d="M47340 18840
L47400 18810
L47510 18810
L47570 18840
L47600 18870
L47630 18930
L47630 19100
L47600 19150
L47570 19180
L47510 19210
L47400 19210
L47340 19180
" />
<path d="M47970 19210
L47910 19180
L47880 19130
L47880 18610
" />
<path d="M48190 19210
L48190 18810
" />
<path d="M48190 18610
L48160 18640
L48190 18670
L48220 18640
L48190 18610
L48190 18670
" />
<path d="M48480 18810
L48480 19210
" />
<path d="M48480 18870
L48510 18840
L48570 18810
L48650 18810
L48710 18840
L48740 18900
L48740 19210
" />
<path d="M49280 18810
L49280 19300
L49250 19350
L49220 19380
L49170 19410
L49080 19410
L49020 19380
" />
<path d="M49280 19180
L49220 19210
L49110 19210
L49050 19180
L49020 19150
L48990 19100
L48990 18930
L49020 18870
L49050 18840
L49110 18810
L49220 18810
L49280 18840
" />
<path d="M46500 20000
L51500 20000
" />
<path d="M51500 20000
L51500 27000
" />
<path d="M51500 27000
L44000 27000
" />
<path d="M44000 27000
L44000 20000
" />
<path d="M44000 20000
L47000 20000
" />
<path d="M44000 44000
L51500 44000
" />
<path d="M51500 44000
L51500 51000
" />
<path d="M51500 51000
L44000 51000
" />
<path d="M44000 51000
L44000 44000
" />
<path d="M44140 52370
L44140 51770
L44370 51770
L44430 51800
L44460 51830
L44490 51890
L44490 51970
L44460 52030
L44430 52060
L44370 52090
L44140 52090
" />
<path d="M44830 52370
L44770 52340
L44740 52310
L44710 52260
L44710 52090
L44740 52030
L44770 52000
L44830 51970
L44910 51970
L44970 52000
L45000 52030
L45030 52090
L45030 52260
L45000 52310
L44970 52340
L44910 52370
L44830 52370
" />
<path d="M45230 51970
L45340 52370
L45450 52090
L45570 52370
L45680 51970
" />
<path d="M46140 52340
L46080 52370
L45970 52370
L45910 52340
L45880 52290
L45880 52060
L45910 52000
L45970 51970
L46080 51970
L46140 52000
L46170 52060
L46170 52110
L45880 52170
" />
<path d="M46420 52370
L46420 51970
" />
<path d="M46420 52090
L46450 52030
L46480 52000
L46540 51970
L46590 51970
" />
<path d="M47220 52340
L47310 52370
L47450 52370
L47510 52340
L47540 52310
L47570 52260
L47570 52200
L47540 52140
L47510 52110
L47450 52090
L47340 52060
L47280 52030
L47250 52000
L47220 51940
L47220 51890
L47250 51830
L47280 51800
L47340 51770
L47480 51770
L47570 51800
" />
<path d="M48080 51970
L48080 52370
" />
<path d="M47820 51970
L47820 52290
L47850 52340
L47910 52370
L47990 52370
L48050 52340
L48080 52310
" />
<path d="M48360 51970
L48360 52570
" />
<path d="M48360 52000
L48420 51970
L48530 51970
L48590 52000
L48620 52030
L48650 52090
L48650 52260
L48620 52310
L48590 52340
L48530 52370
L48420 52370
L48360 52340
" />
<path d="M48900 51970
L48900 52570
" />
<path d="M48900 52000
L48960 51970
L49070 51970
L49130 52000
L49160 52030
L49190 52090
L49190 52260
L49160 52310
L49130 52340
L49070 52370
L48960 52370
L48900 52340
" />
<path d="M49530 52370
L49470 52340
L49440 52290
L49440 51770
" />
<path d="M49700 51970
L49840 52370
" />
<path d="M49980 51970
L49840 52370
L49780 52510
L49750 52540
L49700 52570
" />
<path d="M44140 53210
L44140 52610
L44290 52610
L44370 52640
L44430 52700
L44460 52750
L44490 52870
L44490 52950
L44460 53070
L44430 53130
L44370 53180
L44290 53210
L44140 53210
" />
<path d="M44970 53180
L44910 53210
L44800 53210
L44740 53180
L44710 53130
L44710 52900
L44740 52840
L44800 52810
L44910 52810
L44970 52840
L45000 52900
L45000 52950
L44710 53010
" />
<path d="M45510 53180
L45450 53210
L45340 53210
L45280 53180
L45250 53150
L45220 53100
L45220 52930
L45250 52870
L45280 52840
L45340 52810
L45450 52810
L45510 52840
" />
<path d="M45850 53210
L45790 53180
L45760 53150
L45730 53100
L45730 52930
L45760 52870
L45790 52840
L45850 52810
L45930 52810
L45990 52840
L46020 52870
L46050 52930
L46050 53100
L46020 53150
L45990 53180
L45930 53210
L45850 53210
" />
<path d="M46560 52810
L46560 53210
" />
<path d="M46300 52810
L46300 53130
L46330 53180
L46390 53210
L46470 53210
L46530 53180
L46560 53150
" />
<path d="M46840 52810
L46840 53410
" />
<path d="M46840 52840
L46900 52810
L47010 52810
L47070 52840
L47100 52870
L47130 52930
L47130 53100
L47100 53150
L47070 53180
L47010 53210
L46900 53210
L46840 53180
" />
<path d="M47470 53210
L47410 53180
L47380 53130
L47380 52610
" />
<path d="M47690 53210
L47690 52810
" />
<path d="M47690 52610
L47660 52640
L47690 52670
L47720 52640
L47690 52610
L47690 52670
" />
<path d="M47980 52810
L47980 53210
" />
<path d="M47980 52870
L48010 52840
L48070 52810
L48150 52810
L48210 52840
L48240 52900
L48240 53210
" />
<path d="M48780 52810
L48780 53300
L48750 53350
L48720 53380
L48670 53410
L48580 53410
L48520 53380
" />
<path d="M48780 53180
L48720 53210
L48610 53210
L48550 53180
L48520 53150
L48490 53100
L48490 52930
L48520 52870
L48550 52840
L48610 52810
L48720 52810
L48780 52840
" />
<path d="M61000 40500
L61000 52500
" />
<path d="M61000 52500
L74500 52500
" />
<path d="M74500 52500
L74500 40500
" />
<path d="M74500 40500
L61000 40500
" />
<path d="M61490 39310
L61460 39340
L61370 39370
L61310 39370
L61230 39340
L61170 39290
L61140 39230
L61110 39110
L61110 39030
L61140 38910
L61170 38860
L61230 38800
L61310 38770
L61370 38770
L61460 38800
L61490 38830
" />
<path d="M62000 38970
L62000 39370
" />
<path d="M61740 38970
L61740 39290
L61770 39340
L61830 39370
L61910 39370
L61970 39340
L62000 39310
" />
<path d="M62280 39370
L62280 38970
" />
<path d="M62280 39090
L62310 39030
L62340 39000
L62400 38970
L62450 38970
" />
<path d="M62650 39370
L62650 38970
" />
<path d="M62650 39090
L62680 39030
L62710 39000
L62770 38970
L62820 38970
" />
<path d="M63250 39340
L63190 39370
L63080 39370
L63020 39340
L62990 39290
L62990 39060
L63020 39000
L63080 38970
L63190 38970
L63250 39000
L63280 39060
L63280 39110
L62990 39170
" />
<path d="M63530 38970
L63530 39370
" />
<path d="M63530 39030
L63560 39000
L63620 38970
L63700 38970
L63760 39000
L63790 39060
L63790 39370
" />
<path d="M63990 38970
L64220 38970
" />
<path d="M64070 38770
L64070 39290
L64100 39340
L64160 39370
L64220 39370
" />
<path d="M64870 39370
L64870 38770
L65020 38770
L65100 38800
L65160 38860
L65190 38910
L65220 39030
L65220 39110
L65190 39230
L65160 39290
L65100 39340
L65020 39370
L64870 39370
" />
<path d="M65470 39370
L65470 38970
" />
<path d="M65470 39090
L65500 39030
L65530 39000
L65590 38970
L65640 38970
" />
<path d="M65840 39370
L65840 38970
" />
<path d="M65840 38770
L65810 38800
L65840 38830
L65870 38800
L65840 38770
L65840 38830
" />
<path d="M66080 38970
L66220 39370
L66360 38970
" />
<path d="M66820 39340
L66760 39370
L66650 39370
L66590 39340
L66560 39290
L66560 39060
L66590 39000
L66650 38970
L66760 38970
L66820 39000
L66850 39060
L66850 39110
L66560 39170
" />
<path d="M67100 39370
L67100 38970
" />
<path d="M67100 39090
L67130 39030
L67160 39000
L67220 38970
L67270 38970
" />
<path d="M61340 39900
L61140 39900
" />
<path d="M61140 40210
L61140 39610
L61430 39610
" />
<path d="M61880 40180
L61820 40210
L61710 40210
L61650 40180
L61620 40130
L61620 39900
L61650 39840
L61710 39810
L61820 39810
L61880 39840
L61910 39900
L61910 39950
L61620 40010
" />
<path d="M62390 40180
L62330 40210
L62220 40210
L62160 40180
L62130 40130
L62130 39900
L62160 39840
L62220 39810
L62330 39810
L62390 39840
L62420 39900
L62420 39950
L62130 40010
" />
<path d="M62930 40210
L62930 39610
" />
<path d="M62930 40180
L62870 40210
L62760 40210
L62700 40180
L62670 40150
L62640 40100
L62640 39930
L62670 39870
L62700 39840
L62760 39810
L62870 39810
L62930 39840
" />
<path d="M63210 40210
L63210 39610
" />
<path d="M63210 39840
L63270 39810
L63380 39810
L63440 39840
L63470 39870
L63500 39930
L63500 40100
L63470 40150
L63440 40180
L63380 40210
L63270 40210
L63210 40180
" />
<path d="M64010 40210
L64010 39900
L63980 39840
L63920 39810
L63810 39810
L63750 39840
" />
<path d="M64010 40180
L63950 40210
L63810 40210
L63750 40180
L63720 40130
L63720 40070
L63750 40010
L63810 39980
L63950 39980
L64010 39950
" />
<path d="M64550 40180
L64490 40210
L64380 40210
L64320 40180
L64290 40150
L64260 40100
L64260 39930
L64290 39870
L64320 39840
L64380 39810
L64490 39810
L64550 39840
" />
<path d="M64800 40210
L64800 39610
" />
<path d="M64860 39980
L65030 40210
" />
<path d="M65030 39810
L64800 40040
" />
<path d="M65950 39900
L66040 39930
L66070 39950
L66100 40010
L66100 40100
L66070 40150
L66040 40180
L65980 40210
L65750 40210
L65750 39610
L65950 39610
L66010 39640
L66040 39670
L66070 39730
L66070 39780
L66040 39840
L66010 39870
L65950 39900
L65750 39900
" />
<path d="M66610 39810
L66610 40210
" />
<path d="M66350 39810
L66350 40130
L66380 40180
L66440 40210
L66520 40210
L66580 40180
L66610 40150
" />
<path d="M66810 39810
L67040 39810
" />
<path d="M66890 40210
L66890 39700
L66920 39640
L66980 39610
L67040 39610
" />
<path d="M67150 39810
L67380 39810
" />
<path d="M67230 40210
L67230 39700
L67260 39640
L67320 39610
L67380 39610
" />
<path d="M67800 40180
L67740 40210
L67630 40210
L67570 40180
L67540 40130
L67540 39900
L67570 39840
L67630 39810
L67740 39810
L67800 39840
L67830 39900
L67830 39950
L67540 40010
" />
<path d="M68080 40210
L68080 39810
" />
<path d="M68080 39930
L68110 39870
L68140 39840
L68200 39810
L68250 39810
" />
<path d="M37500 30000
L41000 30000
" />
<path d="M41000 30000
L41000 19000
" />
<path d="M41000 19000
L34500 19000
" />
<path d="M34500 19000
L34500 30000
" />
<path d="M34500 30000
L38000 30000
" />
<path d="M34640 17870
L34640 17270
" />
<path d="M34930 17470
L34930 17870
" />
<path d="M34930 17530
L34960 17500
L35020 17470
L35100 17470
L35160 17500
L35190 17560
L35190 17870
" />
<path d="M35470 17470
L35470 18070
" />
<path d="M35470 17500
L35530 17470
L35640 17470
L35700 17500
L35730 17530
L35760 17590
L35760 17760
L35730 17810
L35700 17840
L35640 17870
L35530 17870
L35470 17840
" />
<path d="M36270 17470
L36270 17870
" />
<path d="M36010 17470
L36010 17790
L36040 17840
L36100 17870
L36180 17870
L36240 17840
L36270 17810
" />
<path d="M36470 17470
L36700 17470
" />
<path d="M36550 17270
L36550 17790
L36580 17840
L36640 17870
L36700 17870
" />
<path d="M37270 17270
L37470 17870
L37670 17270
" />
<path d="M37950 17870
L37890 17840
L37860 17810
L37830 17760
L37830 17590
L37860 17530
L37890 17500
L37950 17470
L38030 17470
L38090 17500
L38120 17530
L38150 17590
L38150 17760
L38120 17810
L38090 17840
L38030 17870
L37950 17870
" />
<path d="M38490 17870
L38430 17840
L38400 17790
L38400 17270
" />
<path d="M38630 17470
L38860 17470
" />
<path d="M38710 17270
L38710 17790
L38740 17840
L38800 17870
L38860 17870
" />
<path d="M39310 17870
L39310 17560
L39280 17500
L39220 17470
L39110 17470
L39050 17500
" />
<path d="M39310 17840
L39250 17870
L39110 17870
L39050 17840
L39020 17790
L39020 17730
L39050 17670
L39110 17640
L39250 17640
L39310 17610
" />
<path d="M39850 17470
L39850 17960
L39820 18010
L39790 18040
L39740 18070
L39650 18070
L39590 18040
" />
<path d="M39850 17840
L39790 17870
L39680 17870
L39620 17840
L39590 17810
L39560 17760
L39560 17590
L39590 17530
L39620 17500
L39680 17470
L39790 17470
L39850 17500
" />
<path d="M40360 17840
L40300 17870
L40190 17870
L40130 17840
L40100 17790
L40100 17560
L40130 17500
L40190 17470
L40300 17470
L40360 17500
L40390 17560
L40390 17610
L40100 17670
" />
<path d="M34610 18680
L34700 18710
L34840 18710
L34900 18680
L34930 18650
L34960 18600
L34960 18540
L34930 18480
L34900 18450
L34840 18430
L34730 18400
L34670 18370
L34640 18340
L34610 18280
L34610 18230
L34640 18170
L34670 18140
L34730 18110
L34870 18110
L34960 18140
" />
<path d="M35440 18680
L35380 18710
L35270 18710
L35210 18680
L35180 18630
L35180 18400
L35210 18340
L35270 18310
L35380 18310
L35440 18340
L35470 18400
L35470 18450
L35180 18510
" />
<path d="M35640 18310
L35870 18310
" />
<path d="M35720 18110
L35720 18630
L35750 18680
L35810 18710
L35870 18710
" />
</g>
<g style="fill:#000000; fill-opacity:0.0; 
stroke:#000000; stroke-width:60; stroke-opacity:1; 
stroke-linecap:round; stroke-linejoin:round;">
<path d="M82060 36760
L82410 36760
" />
<path d="M82230 37370
L82230 36760
" />
<path d="M82690 37370
L82630 37340
L82610 37310
L82580 37250
L82580 37080
L82610 37020
L82630 36990
L82690 36960
L82780 36960
L82840 36990
L82870 37020
L82900 37080
L82900 37250
L82870 37310
L82840 37340
L82780 37370
L82690 37370
" />
<path d="M83730 36760
L83850 36760
L83910 36790
L83960 36850
L83990 36960
L83990 37170
L83960 37280
L83910 37340
L83850 37370
L83730 37370
L83670 37340
L83620 37280
L83590 37170
L83590 36960
L83620 36850
L83670 36790
L83730 36760
" />
<path d="M84520 36960
L84520 37370
" />
<path d="M84260 36960
L84260 37280
L84280 37340
L84340 37370
L84430 37370
L84490 37340
L84520 37310
" />
<path d="M84720 36960
L84950 36960
" />
<path d="M84810 36760
L84810 37280
L84830 37340
L84890 37370
L84950 37370
" />
<path d="M85160 36960
L85160 37570
" />
<path d="M85160 36990
L85210 36960
L85330 36960
L85390 36990
L85420 37020
L85450 37080
L85450 37250
L85420 37310
L85390 37340
L85330 37370
L85210 37370
L85160 37340
" />
<path d="M85970 36960
L85970 37370
" />
<path d="M85710 36960
L85710 37280
L85730 37340
L85790 37370
L85880 37370
L85940 37340
L85970 37310
" />
<path d="M86170 36960
L86400 36960
" />
<path d="M86260 36760
L86260 37280
L86280 37340
L86340 37370
L86400 37370
" />
<path d="M87070 37370
L87070 36760
L87270 37200
L87470 36760
L87470 37370
" />
<path d="M88030 36960
L88030 37370
" />
<path d="M87770 36960
L87770 37280
L87790 37340
L87850 37370
L87940 37370
L88000 37340
L88030 37310
" />
<path d="M88260 37370
L88580 36960
" />
<path d="M88260 36960
L88580 37370
" />
</g>
<g style="fill:#000000; fill-opacity:0.0; 
stroke:#000000; stroke-width:0; stroke-opacity:1; 
stroke-linecap:round; stroke-linejoin:round;">
</g>
<g style="fill:#840000; fill-opacity:0.0; 
stroke:#840000; stroke-width:120; stroke-opacity:1; 
stroke-linecap:round; stroke-linejoin:round;">
<rect x="63500" y="35100" width="3000" height="800" rx="0" />
</g>
<g style="fill:#840000; fill-opacity:0.0; 
stroke:#840000; stroke-width:60; stroke-opacity:1; 
stroke-linecap:round; stroke-linejoin:round;">
<path d="M63500 35500
L62500 35500
" />
</g>
<g style="fill:#008484; fill-opacity:0.0; 
stroke:#008484; stroke-width:60; stroke-opacity:1; 
stroke-linecap:round; stroke-linejoin:round;">
<path d="M66500 35500
L67500 35500
" />
</g>
<g style="fill:#008484; fill-opacity:0.0; 
stroke:#008484; stroke-width:60; stroke-opacity:1; 
stroke-linecap:round; stroke-linejoin:round;">
<path d="M64910 34960
L64750 34720
" />
<path d="M64630 34960
L64630 34460
L64820 34460
L64870 34480
L64890 34500
L64910 34550
L64910 34620
L64890 34670
L64870 34690
L64820 34720
L64630 34720
" />
<path d="M65080 34460
L65390 34460
L65220 34650
L65300 34650
L65340 34670
L65370 34690
L65390 34740
L65390 34860
L65370 34910
L65340 34930
L65300 34960
L65150 34960
L65110 34930
L65080 34910
" />
<path d="M64490 35760
L64330 35520
" />
<path d="M64210 35760
L64210 35260
L64400 35260
L64450 35280
L64470 35300
L64490 35350
L64490 35420
L64470 35470
L64450 35490
L64400 35520
L64210 35520
" />
<path d="M64690 35730
L64760 35760
L64880 35760
L64920 35730
L64950 35710
L64970 35660
L64970 35610
L64950 35570
L64920 35540
L64880 35520
L64780 35490
L64730 35470
L64710 35450
L64690 35400
L64690 35350
L64710 35300
L64730 35280
L64780 35260
L64900 35260
L64970 35280
" />
<path d="M65190 35490
L65360 35490
" />
<path d="M65430 35760
L65190 35760
L65190 35260
L65430 35260
" />
<path d="M65570 35260
L65850 35260
" />
<path d="M65710 35760
L65710 35260
" />
</g>
<g style="fill:#008400; fill-opacity:0.0; 
stroke:#008400; stroke-width:60; stroke-opacity:1; 
stroke-linecap:round; stroke-linejoin:round;">
<path d="M57500 35500
L62500 35500
" />
<path d="M67500 35500
L80000 35500
" />
<path d="M52500 40000
L52500 47000
" />
<path d="M80000 35500
L80000 48500
" />
<path d="M80000 37500
L82000 37500
" />
</g> 
</svg>
