<?xml version="1.0" standalone="no"?>
 <!DOCTYPE svg PUBLIC "-//W3C//DTD SVG 1.1//EN" 
 "http://www.w3.org/Graphics/SVG/1.1/DTD/svg11.dtd"> 
<svg xmlns="http://www.w3.org/2000/svg" version="1.1" 
    width="29.7002cm" height="21.0007cm" viewBox="0 0 116930 82680 ">
<title>SVG Picture created as range_select.svg date 2014/04/01 15:07:22 </title>
  <desc>Picture generated by Eeschema-SVG </desc>
<g style="fill:#000000; fill-opacity:1;stroke:#000000; stroke-opacity:1;
stroke-linecap:round; stroke-linejoin:round; "
 transform="translate(0 0) scale(1 1)">
</g>
<g style="fill:#000000; fill-opacity:0.0; 
stroke:#000000; stroke-width:0; stroke-opacity:1; 
stroke-linecap:round; stroke-linejoin:round;">
</g>
<g style="fill:#840000; fill-opacity:0.0; 
stroke:#840000; stroke-width:60; stroke-opacity:1; 
stroke-linecap:round; stroke-linejoin:round;">
<rect x="53000" y="36000" width="4000" height="8000" rx="0" />
<path d="M53500 36000
L53500 34000
" />
</g>
<g style="fill:#008484; fill-opacity:0.0; 
stroke:#008484; stroke-width:60; stroke-opacity:1; 
stroke-linecap:round; stroke-linejoin:round;">
<path d="M53230 38090
L53230 37990
L53250 37940
L53300 37900
L53390 37870
L53560 37870
L53650 37900
L53700 37940
L53730 37990
L53730 38090
L53700 38130
L53650 38180
L53560 38200
L53390 38200
L53300 38180
L53250 38130
L53230 38090
" />
<path d="M53230 37660
L53630 37660
L53680 37640
L53700 37610
L53730 37570
L53730 37470
L53700 37420
L53680 37400
L53630 37380
L53230 37380
" />
<path d="M53230 37210
L53230 36930
" />
<path d="M53730 37070
L53230 37070
" />
<path d="M53730 36500
L53730 36780
" />
<path d="M53730 36640
L53230 36640
L53300 36690
L53350 36740
L53370 36780
" />
</g>
<g style="fill:#840000; fill-opacity:0.0; 
stroke:#840000; stroke-width:60; stroke-opacity:1; 
stroke-linecap:round; stroke-linejoin:round;">
<path d="M53040 34910
L53380 34910
" />
<path d="M52850 35030
L53210 35140
L53210 34840
" />
<path d="M54500 36000
L54500 34000
" />
</g>
<g style="fill:#008484; fill-opacity:0.0; 
stroke:#008484; stroke-width:60; stroke-opacity:1; 
stroke-linecap:round; stroke-linejoin:round;">
<path d="M54230 38090
L54230 37990
L54250 37940
L54300 37900
L54390 37870
L54560 37870
L54650 37900
L54700 37940
L54730 37990
L54730 38090
L54700 38130
L54650 38180
L54560 38200
L54390 38200
L54300 38180
L54250 38130
L54230 38090
" />
<path d="M54230 37660
L54630 37660
L54680 37640
L54700 37610
L54730 37570
L54730 37470
L54700 37420
L54680 37400
L54630 37380
L54230 37380
" />
<path d="M54230 37210
L54230 36930
" />
<path d="M54730 37070
L54230 37070
" />
<path d="M54270 36780
L54250 36760
L54230 36710
L54230 36590
L54250 36550
L54270 36520
L54320 36500
L54370 36500
L54440 36520
L54730 36810
L54730 36500
" />
</g>
<g style="fill:#840000; fill-opacity:0.0; 
stroke:#840000; stroke-width:60; stroke-opacity:1; 
stroke-linecap:round; stroke-linejoin:round;">
<path d="M53880 34880
L53880 35120
L54110 35140
L54090 35120
L54070 35070
L54070 34950
L54090 34910
L54110 34880
L54160 34860
L54280 34860
L54330 34880
L54350 34910
L54380 34950
L54380 35070
L54350 35120
L54330 35140
" />
<path d="M55500 36000
L55500 34000
" />
</g>
<g style="fill:#008484; fill-opacity:0.0; 
stroke:#008484; stroke-width:60; stroke-opacity:1; 
stroke-linecap:round; stroke-linejoin:round;">
<path d="M55230 38090
L55230 37990
L55250 37940
L55300 37900
L55390 37870
L55560 37870
L55650 37900
L55700 37940
L55730 37990
L55730 38090
L55700 38130
L55650 38180
L55560 38200
L55390 38200
L55300 38180
L55250 38130
L55230 38090
" />
<path d="M55230 37660
L55630 37660
L55680 37640
L55700 37610
L55730 37570
L55730 37470
L55700 37420
L55680 37400
L55630 37380
L55230 37380
" />
<path d="M55230 37210
L55230 36930
" />
<path d="M55730 37070
L55230 37070
" />
<path d="M55230 36810
L55230 36500
L55420 36670
L55420 36590
L55440 36550
L55460 36520
L55510 36500
L55630 36500
L55680 36520
L55700 36550
L55730 36590
L55730 36740
L55700 36780
L55680 36810
" />
</g>
<g style="fill:#840000; fill-opacity:0.0; 
stroke:#840000; stroke-width:60; stroke-opacity:1; 
stroke-linecap:round; stroke-linejoin:round;">
<path d="M54880 34910
L54880 35000
L54900 35050
L54920 35070
L55000 35120
L55090 35140
L55280 35140
L55330 35120
L55350 35100
L55380 35050
L55380 34950
L55350 34910
L55330 34880
L55280 34860
L55160 34860
L55110 34880
L55090 34910
L55070 34950
L55070 35050
L55090 35100
L55110 35120
L55160 35140
" />
<path d="M56500 36000
L56500 34000
" />
</g>
<g style="fill:#008484; fill-opacity:0.0; 
stroke:#008484; stroke-width:60; stroke-opacity:1; 
stroke-linecap:round; stroke-linejoin:round;">
<path d="M56230 38090
L56230 37990
L56250 37940
L56300 37900
L56390 37870
L56560 37870
L56650 37900
L56700 37940
L56730 37990
L56730 38090
L56700 38130
L56650 38180
L56560 38200
L56390 38200
L56300 38180
L56250 38130
L56230 38090
" />
<path d="M56230 37660
L56630 37660
L56680 37640
L56700 37610
L56730 37570
L56730 37470
L56700 37420
L56680 37400
L56630 37380
L56230 37380
" />
<path d="M56230 37210
L56230 36930
" />
<path d="M56730 37070
L56230 37070
" />
<path d="M56390 36550
L56730 36550
" />
<path d="M56200 36670
L56560 36780
L56560 36480
" />
</g>
<g style="fill:#840000; fill-opacity:0.0; 
stroke:#840000; stroke-width:60; stroke-opacity:1; 
stroke-linecap:round; stroke-linejoin:round;">
<path d="M55880 35170
L55880 34840
L56380 35050
" />
<path d="M53000 40000
L51000 40000
" />
</g>
<g style="fill:#008484; fill-opacity:0.0; 
stroke:#008484; stroke-width:60; stroke-opacity:1; 
stroke-linecap:round; stroke-linejoin:round;">
<path d="M53800 40180
L53780 40200
L53710 40230
L53660 40230
L53590 40200
L53540 40150
L53520 40110
L53500 40010
L53500 39940
L53520 39850
L53540 39800
L53590 39750
L53660 39730
L53710 39730
L53780 39750
L53800 39770
" />
<path d="M54110 39730
L54210 39730
L54260 39750
L54300 39800
L54330 39890
L54330 40060
L54300 40150
L54260 40200
L54210 40230
L54110 40230
L54070 40200
L54020 40150
L54000 40060
L54000 39890
L54020 39800
L54070 39750
L54110 39730
" />
<path d="M54540 40230
L54540 39730
L54710 40080
L54870 39730
L54870 40230
" />
</g>
<g style="fill:#840000; fill-opacity:0.0; 
stroke:#840000; stroke-width:60; stroke-opacity:1; 
stroke-linecap:round; stroke-linejoin:round;">
<path d="M51950 39590
L51900 39570
L51880 39540
L51860 39500
L51860 39470
L51880 39420
L51900 39400
L51950 39380
L52050 39380
L52090 39400
L52120 39420
L52140 39470
L52140 39500
L52120 39540
L52090 39570
L52050 39590
L51950 39590
L51900 39610
L51880 39640
L51860 39690
L51860 39780
L51880 39830
L51900 39850
L51950 39880
L52050 39880
L52090 39850
L52120 39830
L52140 39780
L52140 39690
L52120 39640
L52090 39610
L52050 39590
" />
<path d="M56500 44000
L56500 46000
" />
</g>
<g style="fill:#008484; fill-opacity:0.0; 
stroke:#008484; stroke-width:60; stroke-opacity:1; 
stroke-linecap:round; stroke-linejoin:round;">
<path d="M56230 43390
L56230 43290
L56250 43240
L56300 43200
L56390 43170
L56560 43170
L56650 43200
L56700 43240
L56730 43290
L56730 43390
L56700 43430
L56650 43480
L56560 43500
L56390 43500
L56300 43480
L56250 43430
L56230 43390
" />
<path d="M56230 42960
L56630 42960
L56680 42940
L56700 42910
L56730 42870
L56730 42770
L56700 42720
L56680 42700
L56630 42680
L56230 42680
" />
<path d="M56230 42510
L56230 42230
" />
<path d="M56730 42370
L56230 42370
" />
<path d="M56440 41990
L56420 42040
L56390 42060
L56350 42080
L56320 42080
L56270 42060
L56250 42040
L56230 41990
L56230 41890
L56250 41850
L56270 41820
L56320 41800
L56350 41800
L56390 41820
L56420 41850
L56440 41890
L56440 41990
L56460 42040
L56490 42060
L56540 42080
L56630 42080
L56680 42060
L56700 42040
L56730 41990
L56730 41890
L56700 41850
L56680 41820
L56630 41800
L56540 41800
L56490 41820
L56460 41850
L56440 41890
" />
</g>
<g style="fill:#840000; fill-opacity:0.0; 
stroke:#840000; stroke-width:60; stroke-opacity:1; 
stroke-linecap:round; stroke-linejoin:round;">
<path d="M56380 45100
L56380 45000
L56350 44950
L56330 44930
L56260 44880
L56160 44860
L55970 44860
L55920 44880
L55900 44910
L55880 44950
L55880 45050
L55900 45100
L55920 45120
L55970 45140
L56090 45140
L56140 45120
L56160 45100
L56190 45050
L56190 44950
L56160 44910
L56140 44880
L56090 44860
" />
<path d="M55500 44000
L55500 46000
" />
</g>
<g style="fill:#008484; fill-opacity:0.0; 
stroke:#008484; stroke-width:60; stroke-opacity:1; 
stroke-linecap:round; stroke-linejoin:round;">
<path d="M55230 43390
L55230 43290
L55250 43240
L55300 43200
L55390 43170
L55560 43170
L55650 43200
L55700 43240
L55730 43290
L55730 43390
L55700 43430
L55650 43480
L55560 43500
L55390 43500
L55300 43480
L55250 43430
L55230 43390
" />
<path d="M55230 42960
L55630 42960
L55680 42940
L55700 42910
L55730 42870
L55730 42770
L55700 42720
L55680 42700
L55630 42680
L55230 42680
" />
<path d="M55230 42510
L55230 42230
" />
<path d="M55730 42370
L55230 42370
" />
<path d="M55230 42110
L55230 41780
L55730 41990
" />
</g>
<g style="fill:#840000; fill-opacity:0.0; 
stroke:#840000; stroke-width:60; stroke-opacity:1; 
stroke-linecap:round; stroke-linejoin:round;">
<path d="M55380 45100
L55380 45380
" />
<path d="M55380 45240
L54880 45240
L54950 45290
L55000 45340
L55020 45380
" />
<path d="M54880 44790
L54880 44740
L54900 44690
L54920 44670
L54970 44640
L55070 44620
L55190 44620
L55280 44640
L55330 44670
L55350 44690
L55380 44740
L55380 44790
L55350 44830
L55330 44860
L55280 44880
L55190 44900
L55070 44900
L54970 44880
L54920 44860
L54900 44830
L54880 44790
" />
<path d="M54500 44000
L54500 46000
" />
</g>
<g style="fill:#008484; fill-opacity:0.0; 
stroke:#008484; stroke-width:60; stroke-opacity:1; 
stroke-linecap:round; stroke-linejoin:round;">
<path d="M54230 43390
L54230 43290
L54250 43240
L54300 43200
L54390 43170
L54560 43170
L54650 43200
L54700 43240
L54730 43290
L54730 43390
L54700 43430
L54650 43480
L54560 43500
L54390 43500
L54300 43480
L54250 43430
L54230 43390
" />
<path d="M54230 42960
L54630 42960
L54680 42940
L54700 42910
L54730 42870
L54730 42770
L54700 42720
L54680 42700
L54630 42680
L54230 42680
" />
<path d="M54230 42510
L54230 42230
" />
<path d="M54730 42370
L54230 42370
" />
<path d="M54230 41850
L54230 41940
L54250 41990
L54270 42010
L54350 42060
L54440 42080
L54630 42080
L54680 42060
L54700 42040
L54730 41990
L54730 41890
L54700 41850
L54680 41820
L54630 41800
L54510 41800
L54460 41820
L54440 41850
L54420 41890
L54420 41990
L54440 42040
L54460 42060
L54510 42080
" />
</g>
<g style="fill:#840000; fill-opacity:0.0; 
stroke:#840000; stroke-width:60; stroke-opacity:1; 
stroke-linecap:round; stroke-linejoin:round;">
<path d="M54380 45100
L54380 45380
" />
<path d="M54380 45240
L53880 45240
L53950 45290
L54000 45340
L54020 45380
" />
<path d="M54380 44620
L54380 44900
" />
<path d="M54380 44760
L53880 44760
L53950 44810
L54000 44860
L54020 44900
" />
<path d="M53500 44000
L53500 46000
" />
</g>
<g style="fill:#008484; fill-opacity:0.0; 
stroke:#008484; stroke-width:60; stroke-opacity:1; 
stroke-linecap:round; stroke-linejoin:round;">
<path d="M53230 43390
L53230 43290
L53250 43240
L53300 43200
L53390 43170
L53560 43170
L53650 43200
L53700 43240
L53730 43290
L53730 43390
L53700 43430
L53650 43480
L53560 43500
L53390 43500
L53300 43480
L53250 43430
L53230 43390
" />
<path d="M53230 42960
L53630 42960
L53680 42940
L53700 42910
L53730 42870
L53730 42770
L53700 42720
L53680 42700
L53630 42680
L53230 42680
" />
<path d="M53230 42510
L53230 42230
" />
<path d="M53730 42370
L53230 42370
" />
<path d="M53230 41820
L53230 42060
L53460 42080
L53440 42060
L53420 42010
L53420 41890
L53440 41850
L53460 41820
L53510 41800
L53630 41800
L53680 41820
L53700 41850
L53730 41890
L53730 42010
L53700 42060
L53680 42080
" />
</g>
<g style="fill:#840000; fill-opacity:0.0; 
stroke:#840000; stroke-width:60; stroke-opacity:1; 
stroke-linecap:round; stroke-linejoin:round;">
<path d="M53380 45100
L53380 45380
" />
<path d="M53380 45240
L52880 45240
L52950 45290
L53000 45340
L53020 45380
" />
<path d="M52920 44900
L52900 44880
L52880 44830
L52880 44710
L52900 44670
L52920 44640
L52970 44620
L53020 44620
L53090 44640
L53380 44930
L53380 44620
" />
</g>
<g style="fill:#008484; fill-opacity:0.0; 
stroke:#008484; stroke-width:60; stroke-opacity:1; 
stroke-linecap:round; stroke-linejoin:round;">
<path d="M55140 40760
L55630 40760
L55680 40730
L55710 40700
L55740 40640
L55740 40530
L55710 40470
L55680 40440
L55630 40410
L55140 40410
" />
<path d="M55740 39810
L55740 40160
" />
<path d="M55740 39980
L55140 39980
L55230 40040
L55280 40100
L55310 40160
" />
<path d="M55430 39360
L55460 39270
L55480 39240
L55540 39210
L55630 39210
L55680 39240
L55710 39270
L55740 39330
L55740 39560
L55140 39560
L55140 39360
L55170 39300
L55200 39270
L55260 39240
L55310 39240
L55370 39270
L55400 39300
L55430 39360
L55430 39560
" />
<path d="M56740 41600
L56140 41600
L56570 41400
L56140 41200
L56740 41200
" />
<path d="M56570 40940
L56570 40650
" />
<path d="M56740 40990
L56140 40790
L56740 40590
" />
<path d="M56140 40450
L56740 40050
" />
<path d="M56140 40050
L56740 40450
" />
<path d="M56140 39880
L56140 39510
L56370 39710
L56370 39630
L56400 39570
L56430 39540
L56480 39510
L56630 39510
L56680 39540
L56710 39570
L56740 39630
L56740 39800
L56710 39860
L56680 39880
" />
<path d="M56140 39310
L56140 38940
L56370 39140
L56370 39060
L56400 39000
L56430 38970
L56480 38940
L56630 38940
L56680 38970
L56710 39000
L56740 39060
L56740 39230
L56710 39290
L56680 39310
" />
<path d="M56400 38600
L56370 38660
L56340 38690
L56280 38720
L56260 38720
L56200 38690
L56170 38660
L56140 38600
L56140 38490
L56170 38430
L56200 38400
L56260 38370
L56280 38370
L56340 38400
L56370 38430
L56400 38490
L56400 38600
L56430 38660
L56460 38690
L56510 38720
L56630 38720
L56680 38690
L56710 38660
L56740 38600
L56740 38490
L56710 38430
L56680 38400
L56630 38370
L56510 38370
L56460 38400
L56430 38430
L56400 38490
" />
</g>
<g style="fill:#008484; fill-opacity:0.0; 
stroke:#008484; stroke-width:0; stroke-opacity:1; 
stroke-linecap:round; stroke-linejoin:round;">
</g>
<g style="fill:#840000; fill-opacity:0.0; 
stroke:#840000; stroke-width:120; stroke-opacity:1; 
stroke-linecap:round; stroke-linejoin:round;">
<rect x="60000" y="30600" width="3000" height="800" rx="0" />
</g>
<g style="fill:#840000; fill-opacity:0.0; 
stroke:#840000; stroke-width:60; stroke-opacity:1; 
stroke-linecap:round; stroke-linejoin:round;">
<path d="M60000 31000
L59000 31000
" />
</g>
<g style="fill:#008484; fill-opacity:0.0; 
stroke:#008484; stroke-width:60; stroke-opacity:1; 
stroke-linecap:round; stroke-linejoin:round;">
<path d="M63000 31000
L64000 31000
" />
</g>
<g style="fill:#008484; fill-opacity:0.0; 
stroke:#008484; stroke-width:60; stroke-opacity:1; 
stroke-linecap:round; stroke-linejoin:round;">
<path d="M61410 30460
L61250 30220
" />
<path d="M61130 30460
L61130 29960
L61320 29960
L61370 29980
L61390 30000
L61410 30050
L61410 30120
L61390 30170
L61370 30190
L61320 30220
L61130 30220
" />
<path d="M61890 30460
L61610 30460
" />
<path d="M61750 30460
L61750 29960
L61700 30030
L61650 30080
L61610 30100
" />
<path d="M61110 30800
L61130 30780
L61180 30760
L61300 30760
L61340 30780
L61370 30800
L61390 30850
L61390 30900
L61370 30970
L61080 31260
L61390 31260
" />
<path d="M61610 31260
L61610 30760
" />
<path d="M61890 31260
L61680 30970
" />
<path d="M61890 30760
L61610 31040
" />
</g>
<g style="fill:#008484; fill-opacity:0.0; 
stroke:#008484; stroke-width:0; stroke-opacity:1; 
stroke-linecap:round; stroke-linejoin:round;">
</g>
<g style="fill:#840000; fill-opacity:0.0; 
stroke:#840000; stroke-width:120; stroke-opacity:1; 
stroke-linecap:round; stroke-linejoin:round;">
<rect x="60000" y="33600" width="3000" height="800" rx="0" />
</g>
<g style="fill:#840000; fill-opacity:0.0; 
stroke:#840000; stroke-width:60; stroke-opacity:1; 
stroke-linecap:round; stroke-linejoin:round;">
<path d="M60000 34000
L59000 34000
" />
</g>
<g style="fill:#008484; fill-opacity:0.0; 
stroke:#008484; stroke-width:60; stroke-opacity:1; 
stroke-linecap:round; stroke-linejoin:round;">
<path d="M63000 34000
L64000 34000
" />
</g>
<g style="fill:#008484; fill-opacity:0.0; 
stroke:#008484; stroke-width:60; stroke-opacity:1; 
stroke-linecap:round; stroke-linejoin:round;">
<path d="M61410 33460
L61250 33220
" />
<path d="M61130 33460
L61130 32960
L61320 32960
L61370 32980
L61390 33000
L61410 33050
L61410 33120
L61390 33170
L61370 33190
L61320 33220
L61130 33220
" />
<path d="M61610 33000
L61630 32980
L61680 32960
L61800 32960
L61840 32980
L61870 33000
L61890 33050
L61890 33100
L61870 33170
L61580 33460
L61890 33460
" />
<path d="M61370 33760
L61130 33760
L61110 33990
L61130 33970
L61180 33950
L61300 33950
L61340 33970
L61370 33990
L61390 34040
L61390 34160
L61370 34210
L61340 34230
L61300 34260
L61180 34260
L61130 34230
L61110 34210
" />
<path d="M61610 34260
L61610 33760
" />
<path d="M61890 34260
L61680 33970
" />
<path d="M61890 33760
L61610 34040
" />
</g>
<g style="fill:#008484; fill-opacity:0.0; 
stroke:#008484; stroke-width:0; stroke-opacity:1; 
stroke-linecap:round; stroke-linejoin:round;">
</g>
<g style="fill:#840000; fill-opacity:0.0; 
stroke:#840000; stroke-width:120; stroke-opacity:1; 
stroke-linecap:round; stroke-linejoin:round;">
<rect x="60000" y="36600" width="3000" height="800" rx="0" />
</g>
<g style="fill:#840000; fill-opacity:0.0; 
stroke:#840000; stroke-width:60; stroke-opacity:1; 
stroke-linecap:round; stroke-linejoin:round;">
<path d="M60000 37000
L59000 37000
" />
</g>
<g style="fill:#008484; fill-opacity:0.0; 
stroke:#008484; stroke-width:60; stroke-opacity:1; 
stroke-linecap:round; stroke-linejoin:round;">
<path d="M63000 37000
L64000 37000
" />
</g>
<g style="fill:#008484; fill-opacity:0.0; 
stroke:#008484; stroke-width:60; stroke-opacity:1; 
stroke-linecap:round; stroke-linejoin:round;">
<path d="M61410 36460
L61250 36220
" />
<path d="M61130 36460
L61130 35960
L61320 35960
L61370 35980
L61390 36000
L61410 36050
L61410 36120
L61390 36170
L61370 36190
L61320 36220
L61130 36220
" />
<path d="M61580 35960
L61890 35960
L61720 36150
L61800 36150
L61840 36170
L61870 36190
L61890 36240
L61890 36360
L61870 36410
L61840 36430
L61800 36460
L61650 36460
L61610 36430
L61580 36410
" />
<path d="M61150 37260
L60870 37260
" />
<path d="M61010 37260
L61010 36760
L60960 36830
L60910 36880
L60870 36900
" />
<path d="M61460 36760
L61510 36760
L61560 36780
L61580 36800
L61610 36850
L61630 36950
L61630 37070
L61610 37160
L61580 37210
L61560 37230
L61510 37260
L61460 37260
L61420 37230
L61390 37210
L61370 37160
L61350 37070
L61350 36950
L61370 36850
L61390 36800
L61420 36780
L61460 36760
" />
<path d="M61850 37260
L61850 36760
" />
<path d="M62130 37260
L61920 36970
" />
<path d="M62130 36760
L61850 37040
" />
</g>
<g style="fill:#008484; fill-opacity:0.0; 
stroke:#008484; stroke-width:0; stroke-opacity:1; 
stroke-linecap:round; stroke-linejoin:round;">
</g>
<g style="fill:#840000; fill-opacity:0.0; 
stroke:#840000; stroke-width:120; stroke-opacity:1; 
stroke-linecap:round; stroke-linejoin:round;">
<rect x="60000" y="39600" width="3000" height="800" rx="0" />
</g>
<g style="fill:#840000; fill-opacity:0.0; 
stroke:#840000; stroke-width:60; stroke-opacity:1; 
stroke-linecap:round; stroke-linejoin:round;">
<path d="M60000 40000
L59000 40000
" />
</g>
<g style="fill:#008484; fill-opacity:0.0; 
stroke:#008484; stroke-width:60; stroke-opacity:1; 
stroke-linecap:round; stroke-linejoin:round;">
<path d="M63000 40000
L64000 40000
" />
</g>
<g style="fill:#008484; fill-opacity:0.0; 
stroke:#008484; stroke-width:60; stroke-opacity:1; 
stroke-linecap:round; stroke-linejoin:round;">
<path d="M61410 39460
L61250 39220
" />
<path d="M61130 39460
L61130 38960
L61320 38960
L61370 38980
L61390 39000
L61410 39050
L61410 39120
L61390 39170
L61370 39190
L61320 39220
L61130 39220
" />
<path d="M61840 39120
L61840 39460
" />
<path d="M61720 38930
L61610 39290
L61910 39290
" />
<path d="M60870 39800
L60890 39780
L60940 39760
L61060 39760
L61100 39780
L61130 39800
L61150 39850
L61150 39900
L61130 39970
L60840 40260
L61150 40260
" />
<path d="M61350 39800
L61370 39780
L61420 39760
L61540 39760
L61580 39780
L61610 39800
L61630 39850
L61630 39900
L61610 39970
L61320 40260
L61630 40260
" />
<path d="M61850 40260
L61850 39760
" />
<path d="M62130 40260
L61920 39970
" />
<path d="M62130 39760
L61850 40040
" />
</g>
<g style="fill:#008484; fill-opacity:0.0; 
stroke:#008484; stroke-width:0; stroke-opacity:1; 
stroke-linecap:round; stroke-linejoin:round;">
</g>
<g style="fill:#840000; fill-opacity:0.0; 
stroke:#840000; stroke-width:60; stroke-opacity:1; 
stroke-linecap:round; stroke-linejoin:round;">
<rect x="65500" y="30500" width="3000" height="1000" rx="0" />
</g>
<g style="fill:#840000; fill-opacity:1.0; 
stroke:#840000; stroke-width:60; stroke-opacity:1; 
stroke-linecap:round; stroke-linejoin:round;">
<polyline style="fill-rule:evenodd;"
points="67000,30500
66800,30300
67200,30300
" /> 
<path d="M65500 31000
L64500 31000
" />
</g>
<g style="fill:#840000; fill-opacity:0.0; 
stroke:#840000; stroke-width:60; stroke-opacity:1; 
stroke-linecap:round; stroke-linejoin:round;">
<path d="M65110 30880
L64890 30880
" />
<path d="M65000 30880
L65000 30480
L64960 30540
L64920 30580
L64890 30600
" />
<path d="M67000 30300
L67000 29500
" />
<path d="M66520 30010
L66500 29990
L66480 29960
L66480 29860
L66500 29820
L66520 29800
L66560 29790
L66600 29790
L66650 29800
L66880 30030
L66880 29790
" />
<path d="M68500 31000
L69500 31000
" />
<path d="M68870 30480
L69110 30480
L68980 30630
L69040 30630
L69080 30650
L69100 30670
L69110 30710
L69110 30800
L69100 30840
L69080 30860
L69040 30880
L68920 30880
L68890 30860
L68870 30840
" />
</g>
<g style="fill:#008484; fill-opacity:0.0; 
stroke:#008484; stroke-width:60; stroke-opacity:1; 
stroke-linecap:round; stroke-linejoin:round;">
<path d="M66700 32200
L66540 31960
" />
<path d="M66420 32200
L66420 31700
L66610 31700
L66660 31720
L66680 31740
L66700 31790
L66700 31860
L66680 31910
L66660 31930
L66610 31960
L66420 31960
" />
<path d="M66850 31700
L67010 32200
L67180 31700
" />
<path d="M67610 32200
L67330 32200
" />
<path d="M67470 32200
L67470 31700
L67420 31770
L67370 31820
L67330 31840
" />
<path d="M66610 30740
L66630 30720
L66680 30700
L66800 30700
L66840 30720
L66870 30740
L66890 30790
L66890 30840
L66870 30910
L66580 31200
L66890 31200
" />
<path d="M67110 31200
L67110 30700
" />
<path d="M67390 31200
L67180 30910
" />
<path d="M67390 30700
L67110 30980
" />
</g>
<g style="fill:#008484; fill-opacity:0.0; 
stroke:#008484; stroke-width:0; stroke-opacity:1; 
stroke-linecap:round; stroke-linejoin:round;">
</g>
<g style="fill:#840000; fill-opacity:0.0; 
stroke:#840000; stroke-width:60; stroke-opacity:1; 
stroke-linecap:round; stroke-linejoin:round;">
<rect x="65500" y="33500" width="3000" height="1000" rx="0" />
</g>
<g style="fill:#840000; fill-opacity:1.0; 
stroke:#840000; stroke-width:60; stroke-opacity:1; 
stroke-linecap:round; stroke-linejoin:round;">
<polyline style="fill-rule:evenodd;"
points="67000,33500
66800,33300
67200,33300
" /> 
<path d="M65500 34000
L64500 34000
" />
</g>
<g style="fill:#840000; fill-opacity:0.0; 
stroke:#840000; stroke-width:60; stroke-opacity:1; 
stroke-linecap:round; stroke-linejoin:round;">
<path d="M65110 33880
L64890 33880
" />
<path d="M65000 33880
L65000 33480
L64960 33540
L64920 33580
L64890 33600
" />
<path d="M67000 33300
L67000 32500
" />
<path d="M66520 33010
L66500 32990
L66480 32960
L66480 32860
L66500 32820
L66520 32800
L66560 32790
L66600 32790
L66650 32800
L66880 33030
L66880 32790
" />
<path d="M68500 34000
L69500 34000
" />
<path d="M68870 33480
L69110 33480
L68980 33630
L69040 33630
L69080 33650
L69100 33670
L69110 33710
L69110 33800
L69100 33840
L69080 33860
L69040 33880
L68920 33880
L68890 33860
L68870 33840
" />
</g>
<g style="fill:#008484; fill-opacity:0.0; 
stroke:#008484; stroke-width:60; stroke-opacity:1; 
stroke-linecap:round; stroke-linejoin:round;">
<path d="M66700 35200
L66540 34960
" />
<path d="M66420 35200
L66420 34700
L66610 34700
L66660 34720
L66680 34740
L66700 34790
L66700 34860
L66680 34910
L66660 34930
L66610 34960
L66420 34960
" />
<path d="M66850 34700
L67010 35200
L67180 34700
" />
<path d="M67330 34740
L67350 34720
L67400 34700
L67520 34700
L67560 34720
L67590 34740
L67610 34790
L67610 34840
L67590 34910
L67300 35200
L67610 35200
" />
<path d="M66610 33740
L66630 33720
L66680 33700
L66800 33700
L66840 33720
L66870 33740
L66890 33790
L66890 33840
L66870 33910
L66580 34200
L66890 34200
" />
<path d="M67110 34200
L67110 33700
" />
<path d="M67390 34200
L67180 33910
" />
<path d="M67390 33700
L67110 33980
" />
</g>
<g style="fill:#008484; fill-opacity:0.0; 
stroke:#008484; stroke-width:0; stroke-opacity:1; 
stroke-linecap:round; stroke-linejoin:round;">
</g>
<g style="fill:#840000; fill-opacity:0.0; 
stroke:#840000; stroke-width:60; stroke-opacity:1; 
stroke-linecap:round; stroke-linejoin:round;">
<rect x="65500" y="36500" width="3000" height="1000" rx="0" />
</g>
<g style="fill:#840000; fill-opacity:1.0; 
stroke:#840000; stroke-width:60; stroke-opacity:1; 
stroke-linecap:round; stroke-linejoin:round;">
<polyline style="fill-rule:evenodd;"
points="67000,36500
66800,36300
67200,36300
" /> 
<path d="M65500 37000
L64500 37000
" />
</g>
<g style="fill:#840000; fill-opacity:0.0; 
stroke:#840000; stroke-width:60; stroke-opacity:1; 
stroke-linecap:round; stroke-linejoin:round;">
<path d="M65110 36880
L64890 36880
" />
<path d="M65000 36880
L65000 36480
L64960 36540
L64920 36580
L64890 36600
" />
<path d="M67000 36300
L67000 35500
" />
<path d="M66520 36010
L66500 35990
L66480 35960
L66480 35860
L66500 35820
L66520 35800
L66560 35790
L66600 35790
L66650 35800
L66880 36030
L66880 35790
" />
<path d="M68500 37000
L69500 37000
" />
<path d="M68870 36480
L69110 36480
L68980 36630
L69040 36630
L69080 36650
L69100 36670
L69110 36710
L69110 36800
L69100 36840
L69080 36860
L69040 36880
L68920 36880
L68890 36860
L68870 36840
" />
</g>
<g style="fill:#008484; fill-opacity:0.0; 
stroke:#008484; stroke-width:60; stroke-opacity:1; 
stroke-linecap:round; stroke-linejoin:round;">
<path d="M66700 38200
L66540 37960
" />
<path d="M66420 38200
L66420 37700
L66610 37700
L66660 37720
L66680 37740
L66700 37790
L66700 37860
L66680 37910
L66660 37930
L66610 37960
L66420 37960
" />
<path d="M66850 37700
L67010 38200
L67180 37700
" />
<path d="M67300 37700
L67610 37700
L67440 37890
L67520 37890
L67560 37910
L67590 37930
L67610 37980
L67610 38100
L67590 38150
L67560 38170
L67520 38200
L67370 38200
L67330 38170
L67300 38150
" />
<path d="M66870 36700
L66630 36700
L66610 36930
L66630 36910
L66680 36890
L66800 36890
L66840 36910
L66870 36930
L66890 36980
L66890 37100
L66870 37150
L66840 37170
L66800 37200
L66680 37200
L66630 37170
L66610 37150
" />
<path d="M67110 37200
L67110 36700
" />
<path d="M67390 37200
L67180 36910
" />
<path d="M67390 36700
L67110 36980
" />
</g>
<g style="fill:#008484; fill-opacity:0.0; 
stroke:#008484; stroke-width:0; stroke-opacity:1; 
stroke-linecap:round; stroke-linejoin:round;">
</g>
<g style="fill:#840000; fill-opacity:0.0; 
stroke:#840000; stroke-width:60; stroke-opacity:1; 
stroke-linecap:round; stroke-linejoin:round;">
<rect x="65500" y="39500" width="3000" height="1000" rx="0" />
</g>
<g style="fill:#840000; fill-opacity:1.0; 
stroke:#840000; stroke-width:60; stroke-opacity:1; 
stroke-linecap:round; stroke-linejoin:round;">
<polyline style="fill-rule:evenodd;"
points="67000,39500
66800,39300
67200,39300
" /> 
<path d="M65500 40000
L64500 40000
" />
</g>
<g style="fill:#840000; fill-opacity:0.0; 
stroke:#840000; stroke-width:60; stroke-opacity:1; 
stroke-linecap:round; stroke-linejoin:round;">
<path d="M65110 39880
L64890 39880
" />
<path d="M65000 39880
L65000 39480
L64960 39540
L64920 39580
L64890 39600
" />
<path d="M67000 39300
L67000 38500
" />
<path d="M66520 39010
L66500 38990
L66480 38960
L66480 38860
L66500 38820
L66520 38800
L66560 38790
L66600 38790
L66650 38800
L66880 39030
L66880 38790
" />
<path d="M68500 40000
L69500 40000
" />
<path d="M68870 39480
L69110 39480
L68980 39630
L69040 39630
L69080 39650
L69100 39670
L69110 39710
L69110 39800
L69100 39840
L69080 39860
L69040 39880
L68920 39880
L68890 39860
L68870 39840
" />
</g>
<g style="fill:#008484; fill-opacity:0.0; 
stroke:#008484; stroke-width:60; stroke-opacity:1; 
stroke-linecap:round; stroke-linejoin:round;">
<path d="M66700 41200
L66540 40960
" />
<path d="M66420 41200
L66420 40700
L66610 40700
L66660 40720
L66680 40740
L66700 40790
L66700 40860
L66680 40910
L66660 40930
L66610 40960
L66420 40960
" />
<path d="M66850 40700
L67010 41200
L67180 40700
" />
<path d="M67560 40860
L67560 41200
" />
<path d="M67440 40670
L67330 41030
L67630 41030
" />
<path d="M66870 39700
L66630 39700
L66610 39930
L66630 39910
L66680 39890
L66800 39890
L66840 39910
L66870 39930
L66890 39980
L66890 40100
L66870 40150
L66840 40170
L66800 40200
L66680 40200
L66630 40170
L66610 40150
" />
<path d="M67110 40200
L67110 39700
" />
<path d="M67390 40200
L67180 39910
" />
<path d="M67390 39700
L67110 39980
" />
</g>
<g style="fill:#008484; fill-opacity:0.0; 
stroke:#008484; stroke-width:0; stroke-opacity:1; 
stroke-linecap:round; stroke-linejoin:round;">
</g>
<g style="fill:#840000; fill-opacity:0.0; 
stroke:#840000; stroke-width:120; stroke-opacity:1; 
stroke-linecap:round; stroke-linejoin:round;">
<rect x="60000" y="42600" width="3000" height="800" rx="0" />
</g>
<g style="fill:#840000; fill-opacity:0.0; 
stroke:#840000; stroke-width:60; stroke-opacity:1; 
stroke-linecap:round; stroke-linejoin:round;">
<path d="M60000 43000
L59000 43000
" />
</g>
<g style="fill:#008484; fill-opacity:0.0; 
stroke:#008484; stroke-width:60; stroke-opacity:1; 
stroke-linecap:round; stroke-linejoin:round;">
<path d="M63000 43000
L64000 43000
" />
</g>
<g style="fill:#008484; fill-opacity:0.0; 
stroke:#008484; stroke-width:60; stroke-opacity:1; 
stroke-linecap:round; stroke-linejoin:round;">
<path d="M61410 42460
L61250 42220
" />
<path d="M61130 42460
L61130 41960
L61320 41960
L61370 41980
L61390 42000
L61410 42050
L61410 42120
L61390 42170
L61370 42190
L61320 42220
L61130 42220
" />
<path d="M61870 41960
L61630 41960
L61610 42190
L61630 42170
L61680 42150
L61800 42150
L61840 42170
L61870 42190
L61890 42240
L61890 42360
L61870 42410
L61840 42430
L61800 42460
L61680 42460
L61630 42430
L61610 42410
" />
<path d="M61100 42920
L61100 43260
" />
<path d="M60980 42730
L60870 43090
L61170 43090
" />
<path d="M61610 42760
L61370 42760
L61350 42990
L61370 42970
L61420 42950
L61540 42950
L61580 42970
L61610 42990
L61630 43040
L61630 43160
L61610 43210
L61580 43230
L61540 43260
L61420 43260
L61370 43230
L61350 43210
" />
<path d="M61850 43260
L61850 42760
" />
<path d="M62130 43260
L61920 42970
" />
<path d="M62130 42760
L61850 43040
" />
</g>
<g style="fill:#008484; fill-opacity:0.0; 
stroke:#008484; stroke-width:0; stroke-opacity:1; 
stroke-linecap:round; stroke-linejoin:round;">
</g>
<g style="fill:#840000; fill-opacity:0.0; 
stroke:#840000; stroke-width:120; stroke-opacity:1; 
stroke-linecap:round; stroke-linejoin:round;">
<rect x="60000" y="45600" width="3000" height="800" rx="0" />
</g>
<g style="fill:#840000; fill-opacity:0.0; 
stroke:#840000; stroke-width:60; stroke-opacity:1; 
stroke-linecap:round; stroke-linejoin:round;">
<path d="M60000 46000
L59000 46000
" />
</g>
<g style="fill:#008484; fill-opacity:0.0; 
stroke:#008484; stroke-width:60; stroke-opacity:1; 
stroke-linecap:round; stroke-linejoin:round;">
<path d="M63000 46000
L64000 46000
" />
</g>
<g style="fill:#008484; fill-opacity:0.0; 
stroke:#008484; stroke-width:60; stroke-opacity:1; 
stroke-linecap:round; stroke-linejoin:round;">
<path d="M61410 45460
L61250 45220
" />
<path d="M61130 45460
L61130 44960
L61320 44960
L61370 44980
L61390 45000
L61410 45050
L61410 45120
L61390 45170
L61370 45190
L61320 45220
L61130 45220
" />
<path d="M61840 44960
L61750 44960
L61700 44980
L61680 45000
L61630 45080
L61610 45170
L61610 45360
L61630 45410
L61650 45430
L61700 45460
L61800 45460
L61840 45430
L61870 45410
L61890 45360
L61890 45240
L61870 45190
L61840 45170
L61800 45150
L61700 45150
L61650 45170
L61630 45190
L61610 45240
" />
<path d="M60910 46260
L61010 46260
L61060 46230
L61080 46210
L61130 46140
L61150 46040
L61150 45850
L61130 45800
L61100 45780
L61060 45760
L60960 45760
L60910 45780
L60890 45800
L60870 45850
L60870 45970
L60890 46020
L60910 46040
L60960 46070
L61060 46070
L61100 46040
L61130 46020
L61150 45970
" />
<path d="M61630 46260
L61350 46260
" />
<path d="M61490 46260
L61490 45760
L61440 45830
L61390 45880
L61350 45900
" />
<path d="M61850 46260
L61850 45760
" />
<path d="M62130 46260
L61920 45970
" />
<path d="M62130 45760
L61850 46040
" />
</g>
<g style="fill:#008484; fill-opacity:0.0; 
stroke:#008484; stroke-width:0; stroke-opacity:1; 
stroke-linecap:round; stroke-linejoin:round;">
</g>
<g style="fill:#840000; fill-opacity:0.0; 
stroke:#840000; stroke-width:120; stroke-opacity:1; 
stroke-linecap:round; stroke-linejoin:round;">
<rect x="60000" y="48600" width="3000" height="800" rx="0" />
</g>
<g style="fill:#840000; fill-opacity:0.0; 
stroke:#840000; stroke-width:60; stroke-opacity:1; 
stroke-linecap:round; stroke-linejoin:round;">
<path d="M60000 49000
L59000 49000
" />
</g>
<g style="fill:#008484; fill-opacity:0.0; 
stroke:#008484; stroke-width:60; stroke-opacity:1; 
stroke-linecap:round; stroke-linejoin:round;">
<path d="M63000 49000
L64000 49000
" />
</g>
<g style="fill:#008484; fill-opacity:0.0; 
stroke:#008484; stroke-width:60; stroke-opacity:1; 
stroke-linecap:round; stroke-linejoin:round;">
<path d="M61410 48460
L61250 48220
" />
<path d="M61130 48460
L61130 47960
L61320 47960
L61370 47980
L61390 48000
L61410 48050
L61410 48120
L61390 48170
L61370 48190
L61320 48220
L61130 48220
" />
<path d="M61580 47960
L61910 47960
L61700 48460
" />
<path d="M60910 49260
L60630 49260
" />
<path d="M60770 49260
L60770 48760
L60720 48830
L60670 48880
L60630 48900
" />
<path d="M61200 48970
L61150 48950
L61130 48920
L61110 48880
L61110 48850
L61130 48800
L61150 48780
L61200 48760
L61300 48760
L61340 48780
L61370 48800
L61390 48850
L61390 48880
L61370 48920
L61340 48950
L61300 48970
L61200 48970
L61150 48990
L61130 49020
L61110 49070
L61110 49160
L61130 49210
L61150 49230
L61200 49260
L61300 49260
L61340 49230
L61370 49210
L61390 49160
L61390 49070
L61370 49020
L61340 48990
L61300 48970
" />
<path d="M61590 48800
L61610 48780
L61660 48760
L61780 48760
L61820 48780
L61850 48800
L61870 48850
L61870 48900
L61850 48970
L61560 49260
L61870 49260
" />
<path d="M62090 49260
L62090 48760
" />
<path d="M62370 49260
L62160 48970
" />
<path d="M62370 48760
L62090 49040
" />
</g>
<g style="fill:#008484; fill-opacity:0.0; 
stroke:#008484; stroke-width:0; stroke-opacity:1; 
stroke-linecap:round; stroke-linejoin:round;">
</g>
<g style="fill:#840000; fill-opacity:0.0; 
stroke:#840000; stroke-width:120; stroke-opacity:1; 
stroke-linecap:round; stroke-linejoin:round;">
<rect x="60000" y="51600" width="3000" height="800" rx="0" />
</g>
<g style="fill:#840000; fill-opacity:0.0; 
stroke:#840000; stroke-width:60; stroke-opacity:1; 
stroke-linecap:round; stroke-linejoin:round;">
<path d="M60000 52000
L59000 52000
" />
</g>
<g style="fill:#008484; fill-opacity:0.0; 
stroke:#008484; stroke-width:60; stroke-opacity:1; 
stroke-linecap:round; stroke-linejoin:round;">
<path d="M63000 52000
L64000 52000
" />
</g>
<g style="fill:#008484; fill-opacity:0.0; 
stroke:#008484; stroke-width:60; stroke-opacity:1; 
stroke-linecap:round; stroke-linejoin:round;">
<path d="M61410 51460
L61250 51220
" />
<path d="M61130 51460
L61130 50960
L61320 50960
L61370 50980
L61390 51000
L61410 51050
L61410 51120
L61390 51170
L61370 51190
L61320 51220
L61130 51220
" />
<path d="M61700 51170
L61650 51150
L61630 51120
L61610 51080
L61610 51050
L61630 51000
L61650 50980
L61700 50960
L61800 50960
L61840 50980
L61870 51000
L61890 51050
L61890 51080
L61870 51120
L61840 51150
L61800 51170
L61700 51170
L61650 51190
L61630 51220
L61610 51270
L61610 51360
L61630 51410
L61650 51430
L61700 51460
L61800 51460
L61840 51430
L61870 51410
L61890 51360
L61890 51270
L61870 51220
L61840 51190
L61800 51170
" />
<path d="M60600 51760
L60910 51760
L60740 51950
L60820 51950
L60860 51970
L60890 51990
L60910 52040
L60910 52160
L60890 52210
L60860 52230
L60820 52260
L60670 52260
L60630 52230
L60600 52210
" />
<path d="M61080 51760
L61410 51760
L61200 52260
" />
<path d="M61820 51920
L61820 52260
" />
<path d="M61700 51730
L61590 52090
L61890 52090
" />
<path d="M62090 52260
L62090 51760
" />
<path d="M62370 52260
L62160 51970
" />
<path d="M62370 51760
L62090 52040
" />
</g>
<g style="fill:#008484; fill-opacity:0.0; 
stroke:#008484; stroke-width:0; stroke-opacity:1; 
stroke-linecap:round; stroke-linejoin:round;">
</g>
<g style="fill:#840000; fill-opacity:0.0; 
stroke:#840000; stroke-width:60; stroke-opacity:1; 
stroke-linecap:round; stroke-linejoin:round;">
<rect x="65500" y="42500" width="3000" height="1000" rx="0" />
</g>
<g style="fill:#840000; fill-opacity:1.0; 
stroke:#840000; stroke-width:60; stroke-opacity:1; 
stroke-linecap:round; stroke-linejoin:round;">
<polyline style="fill-rule:evenodd;"
points="67000,42500
66800,42300
67200,42300
" /> 
<path d="M65500 43000
L64500 43000
" />
</g>
<g style="fill:#840000; fill-opacity:0.0; 
stroke:#840000; stroke-width:60; stroke-opacity:1; 
stroke-linecap:round; stroke-linejoin:round;">
<path d="M65110 42880
L64890 42880
" />
<path d="M65000 42880
L65000 42480
L64960 42540
L64920 42580
L64890 42600
" />
<path d="M67000 42300
L67000 41500
" />
<path d="M66520 42010
L66500 41990
L66480 41960
L66480 41860
L66500 41820
L66520 41800
L66560 41790
L66600 41790
L66650 41800
L66880 42030
L66880 41790
" />
<path d="M68500 43000
L69500 43000
" />
<path d="M68870 42480
L69110 42480
L68980 42630
L69040 42630
L69080 42650
L69100 42670
L69110 42710
L69110 42800
L69100 42840
L69080 42860
L69040 42880
L68920 42880
L68890 42860
L68870 42840
" />
</g>
<g style="fill:#008484; fill-opacity:0.0; 
stroke:#008484; stroke-width:60; stroke-opacity:1; 
stroke-linecap:round; stroke-linejoin:round;">
<path d="M66700 44200
L66540 43960
" />
<path d="M66420 44200
L66420 43700
L66610 43700
L66660 43720
L66680 43740
L66700 43790
L66700 43860
L66680 43910
L66660 43930
L66610 43960
L66420 43960
" />
<path d="M66850 43700
L67010 44200
L67180 43700
" />
<path d="M67590 43700
L67350 43700
L67330 43930
L67350 43910
L67400 43890
L67520 43890
L67560 43910
L67590 43930
L67610 43980
L67610 44100
L67590 44150
L67560 44170
L67520 44200
L67400 44200
L67350 44170
L67330 44150
" />
<path d="M66870 42700
L66630 42700
L66610 42930
L66630 42910
L66680 42890
L66800 42890
L66840 42910
L66870 42930
L66890 42980
L66890 43100
L66870 43150
L66840 43170
L66800 43200
L66680 43200
L66630 43170
L66610 43150
" />
<path d="M67110 43200
L67110 42700
" />
<path d="M67390 43200
L67180 42910
" />
<path d="M67390 42700
L67110 42980
" />
</g>
<g style="fill:#008484; fill-opacity:0.0; 
stroke:#008484; stroke-width:0; stroke-opacity:1; 
stroke-linecap:round; stroke-linejoin:round;">
</g>
<g style="fill:#840000; fill-opacity:0.0; 
stroke:#840000; stroke-width:60; stroke-opacity:1; 
stroke-linecap:round; stroke-linejoin:round;">
<rect x="65500" y="45500" width="3000" height="1000" rx="0" />
</g>
<g style="fill:#840000; fill-opacity:1.0; 
stroke:#840000; stroke-width:60; stroke-opacity:1; 
stroke-linecap:round; stroke-linejoin:round;">
<polyline style="fill-rule:evenodd;"
points="67000,45500
66800,45300
67200,45300
" /> 
<path d="M65500 46000
L64500 46000
" />
</g>
<g style="fill:#840000; fill-opacity:0.0; 
stroke:#840000; stroke-width:60; stroke-opacity:1; 
stroke-linecap:round; stroke-linejoin:round;">
<path d="M65110 45880
L64890 45880
" />
<path d="M65000 45880
L65000 45480
L64960 45540
L64920 45580
L64890 45600
" />
<path d="M67000 45300
L67000 44500
" />
<path d="M66520 45010
L66500 44990
L66480 44960
L66480 44860
L66500 44820
L66520 44800
L66560 44790
L66600 44790
L66650 44800
L66880 45030
L66880 44790
" />
<path d="M68500 46000
L69500 46000
" />
<path d="M68870 45480
L69110 45480
L68980 45630
L69040 45630
L69080 45650
L69100 45670
L69110 45710
L69110 45800
L69100 45840
L69080 45860
L69040 45880
L68920 45880
L68890 45860
L68870 45840
" />
</g>
<g style="fill:#008484; fill-opacity:0.0; 
stroke:#008484; stroke-width:60; stroke-opacity:1; 
stroke-linecap:round; stroke-linejoin:round;">
<path d="M66700 47200
L66540 46960
" />
<path d="M66420 47200
L66420 46700
L66610 46700
L66660 46720
L66680 46740
L66700 46790
L66700 46860
L66680 46910
L66660 46930
L66610 46960
L66420 46960
" />
<path d="M66850 46700
L67010 47200
L67180 46700
" />
<path d="M67560 46700
L67470 46700
L67420 46720
L67400 46740
L67350 46820
L67330 46910
L67330 47100
L67350 47150
L67370 47170
L67420 47200
L67520 47200
L67560 47170
L67590 47150
L67610 47100
L67610 46980
L67590 46930
L67560 46910
L67520 46890
L67420 46890
L67370 46910
L67350 46930
L67330 46980
" />
<path d="M66650 46200
L66370 46200
" />
<path d="M66510 46200
L66510 45700
L66460 45770
L66410 45820
L66370 45840
" />
<path d="M66960 45700
L67010 45700
L67060 45720
L67080 45740
L67110 45790
L67130 45890
L67130 46010
L67110 46100
L67080 46150
L67060 46170
L67010 46200
L66960 46200
L66920 46170
L66890 46150
L66870 46100
L66850 46010
L66850 45890
L66870 45790
L66890 45740
L66920 45720
L66960 45700
" />
<path d="M67350 46200
L67350 45700
" />
<path d="M67630 46200
L67420 45910
" />
<path d="M67630 45700
L67350 45980
" />
</g>
<g style="fill:#008484; fill-opacity:0.0; 
stroke:#008484; stroke-width:0; stroke-opacity:1; 
stroke-linecap:round; stroke-linejoin:round;">
</g>
<g style="fill:#840000; fill-opacity:0.0; 
stroke:#840000; stroke-width:60; stroke-opacity:1; 
stroke-linecap:round; stroke-linejoin:round;">
<rect x="65500" y="48500" width="3000" height="1000" rx="0" />
</g>
<g style="fill:#840000; fill-opacity:1.0; 
stroke:#840000; stroke-width:60; stroke-opacity:1; 
stroke-linecap:round; stroke-linejoin:round;">
<polyline style="fill-rule:evenodd;"
points="67000,48500
66800,48300
67200,48300
" /> 
<path d="M65500 49000
L64500 49000
" />
</g>
<g style="fill:#840000; fill-opacity:0.0; 
stroke:#840000; stroke-width:60; stroke-opacity:1; 
stroke-linecap:round; stroke-linejoin:round;">
<path d="M65110 48880
L64890 48880
" />
<path d="M65000 48880
L65000 48480
L64960 48540
L64920 48580
L64890 48600
" />
<path d="M67000 48300
L67000 47500
" />
<path d="M66520 48010
L66500 47990
L66480 47960
L66480 47860
L66500 47820
L66520 47800
L66560 47790
L66600 47790
L66650 47800
L66880 48030
L66880 47790
" />
<path d="M68500 49000
L69500 49000
" />
<path d="M68870 48480
L69110 48480
L68980 48630
L69040 48630
L69080 48650
L69100 48670
L69110 48710
L69110 48800
L69100 48840
L69080 48860
L69040 48880
L68920 48880
L68890 48860
L68870 48840
" />
</g>
<g style="fill:#008484; fill-opacity:0.0; 
stroke:#008484; stroke-width:60; stroke-opacity:1; 
stroke-linecap:round; stroke-linejoin:round;">
<path d="M66700 50200
L66540 49960
" />
<path d="M66420 50200
L66420 49700
L66610 49700
L66660 49720
L66680 49740
L66700 49790
L66700 49860
L66680 49910
L66660 49930
L66610 49960
L66420 49960
" />
<path d="M66850 49700
L67010 50200
L67180 49700
" />
<path d="M67300 49700
L67630 49700
L67420 50200
" />
<path d="M66370 48740
L66390 48720
L66440 48700
L66560 48700
L66600 48720
L66630 48740
L66650 48790
L66650 48840
L66630 48910
L66340 49200
L66650 49200
" />
<path d="M66960 48700
L67010 48700
L67060 48720
L67080 48740
L67110 48790
L67130 48890
L67130 49010
L67110 49100
L67080 49150
L67060 49170
L67010 49200
L66960 49200
L66920 49170
L66890 49150
L66870 49100
L66850 49010
L66850 48890
L66870 48790
L66890 48740
L66920 48720
L66960 48700
" />
<path d="M67350 49200
L67350 48700
" />
<path d="M67630 49200
L67420 48910
" />
<path d="M67630 48700
L67350 48980
" />
</g>
<g style="fill:#008484; fill-opacity:0.0; 
stroke:#008484; stroke-width:0; stroke-opacity:1; 
stroke-linecap:round; stroke-linejoin:round;">
</g>
<g style="fill:#840000; fill-opacity:0.0; 
stroke:#840000; stroke-width:60; stroke-opacity:1; 
stroke-linecap:round; stroke-linejoin:round;">
<rect x="65500" y="51500" width="3000" height="1000" rx="0" />
</g>
<g style="fill:#840000; fill-opacity:1.0; 
stroke:#840000; stroke-width:60; stroke-opacity:1; 
stroke-linecap:round; stroke-linejoin:round;">
<polyline style="fill-rule:evenodd;"
points="67000,51500
66800,51300
67200,51300
" /> 
<path d="M65500 52000
L64500 52000
" />
</g>
<g style="fill:#840000; fill-opacity:0.0; 
stroke:#840000; stroke-width:60; stroke-opacity:1; 
stroke-linecap:round; stroke-linejoin:round;">
<path d="M65110 51880
L64890 51880
" />
<path d="M65000 51880
L65000 51480
L64960 51540
L64920 51580
L64890 51600
" />
<path d="M67000 51300
L67000 50500
" />
<path d="M66520 51010
L66500 50990
L66480 50960
L66480 50860
L66500 50820
L66520 50800
L66560 50790
L66600 50790
L66650 50800
L66880 51030
L66880 50790
" />
<path d="M68500 52000
L69500 52000
" />
<path d="M68870 51480
L69110 51480
L68980 51630
L69040 51630
L69080 51650
L69100 51670
L69110 51710
L69110 51800
L69100 51840
L69080 51860
L69040 51880
L68920 51880
L68890 51860
L68870 51840
" />
</g>
<g style="fill:#008484; fill-opacity:0.0; 
stroke:#008484; stroke-width:60; stroke-opacity:1; 
stroke-linecap:round; stroke-linejoin:round;">
<path d="M66700 53200
L66540 52960
" />
<path d="M66420 53200
L66420 52700
L66610 52700
L66660 52720
L66680 52740
L66700 52790
L66700 52860
L66680 52910
L66660 52930
L66610 52960
L66420 52960
" />
<path d="M66850 52700
L67010 53200
L67180 52700
" />
<path d="M67420 52910
L67370 52890
L67350 52860
L67330 52820
L67330 52790
L67350 52740
L67370 52720
L67420 52700
L67520 52700
L67560 52720
L67590 52740
L67610 52790
L67610 52820
L67590 52860
L67560 52890
L67520 52910
L67420 52910
L67370 52930
L67350 52960
L67330 53010
L67330 53100
L67350 53150
L67370 53170
L67420 53200
L67520 53200
L67560 53170
L67590 53150
L67610 53100
L67610 53010
L67590 52960
L67560 52930
L67520 52910
" />
<path d="M66370 51740
L66390 51720
L66440 51700
L66560 51700
L66600 51720
L66630 51740
L66650 51790
L66650 51840
L66630 51910
L66340 52200
L66650 52200
" />
<path d="M66960 51700
L67010 51700
L67060 51720
L67080 51740
L67110 51790
L67130 51890
L67130 52010
L67110 52100
L67080 52150
L67060 52170
L67010 52200
L66960 52200
L66920 52170
L66890 52150
L66870 52100
L66850 52010
L66850 51890
L66870 51790
L66890 51740
L66920 51720
L66960 51700
" />
<path d="M67350 52200
L67350 51700
" />
<path d="M67630 52200
L67420 51910
" />
<path d="M67630 51700
L67350 51980
" />
</g>
<g style="fill:#008400; fill-opacity:0.0; 
stroke:#008400; stroke-width:60; stroke-opacity:1; 
stroke-linecap:round; stroke-linejoin:round;">
<path d="M64500 31000
L64500 29500
" />
<path d="M64500 29500
L67000 29500
" />
<path d="M64500 31000
L64000 31000
" />
<path d="M64500 34000
L64500 32500
" />
<path d="M64500 32500
L67000 32500
" />
<path d="M64500 34000
L64000 34000
" />
<path d="M64000 37000
L64500 37000
" />
<path d="M64500 37000
L64500 35500
" />
<path d="M64500 35500
L67000 35500
" />
<path d="M67000 38500
L64500 38500
" />
<path d="M64500 38500
L64500 40000
" />
<path d="M64500 40000
L64000 40000
" />
<path d="M64500 52000
L64000 52000
" />
<path d="M64500 52000
L64500 50500
" />
<path d="M64500 50500
L67000 50500
" />
<path d="M67000 47500
L64500 47500
" />
<path d="M64500 47500
L64500 49000
" />
<path d="M64500 49000
L64000 49000
" />
<path d="M64000 46000
L64500 46000
" />
<path d="M64500 46000
L64500 44500
" />
<path d="M64500 44500
L67000 44500
" />
<path d="M64500 43000
L64000 43000
" />
<path d="M64500 43000
L64500 41500
" />
<path d="M64500 41500
L67000 41500
" />
<path d="M53500 34000
L53500 31000
" />
<path d="M53500 31000
L59000 31000
" />
<path d="M54500 34000
L54500 31500
" />
<path d="M54500 31500
L59000 31500
" />
<path d="M59000 31500
L59000 34000
" />
<path d="M55500 34000
L55500 32000
" />
<path d="M55500 32000
L58500 32000
" />
<path d="M58500 32000
L58500 37000
" />
<path d="M58500 37000
L59000 37000
" />
<path d="M56500 34000
L56500 32500
" />
<path d="M56500 32500
L58000 32500
" />
<path d="M58000 32500
L58000 40000
" />
<path d="M58000 40000
L59000 40000
" />
<path d="M53500 52000
L53500 46000
" />
<path d="M53500 52000
L59000 52000
" />
<path d="M54500 46000
L54500 49000
" />
<path d="M54500 49000
L59000 49000
" />
<path d="M55500 46000
L55500 48000
" />
<path d="M55500 48000
L59000 48000
" />
<path d="M59000 48000
L59000 46000
" />
<path d="M56500 46000
L58000 46000
" />
<path d="M58000 46000
L58000 43000
" />
<path d="M58000 43000
L59000 43000
" />
<path d="M69500 52000
L69500 31000
" />
</g>
<g style="fill:#008400; fill-opacity:0.0; 
stroke:#008400; stroke-width:0; stroke-opacity:1; 
stroke-linecap:round; stroke-linejoin:round;">
</g>
<g style="fill:#008400; fill-opacity:1.0; 
stroke:#008400; stroke-width:100; stroke-opacity:1; 
stroke-linecap:round; stroke-linejoin:round;">
<circle cx="69500" cy="42000" r="200" /> 
</g>
<g style="fill:#008400; fill-opacity:1.0; 
stroke:#008400; stroke-width:60; stroke-opacity:1; 
stroke-linecap:round; stroke-linejoin:round;">
<path d="M71500 42000
L69500 42000
" />
</g>
<g style="fill:#0000C2; fill-opacity:1.0; 
stroke:#0000C2; stroke-width:60; stroke-opacity:1; 
stroke-linecap:round; stroke-linejoin:round;">
<path d="M50500 29500
L50500 54000
" />
<path d="M50500 54000
L70500 54000
" />
<path d="M70500 54000
L70500 28500
" />
<path d="M70500 28500
L50500 28500
" />
<path d="M50500 28500
L50500 30000
" />
</g>
<g style="fill:#0000C2; fill-opacity:0.0; 
stroke:#0000C2; stroke-width:60; stroke-opacity:1; 
stroke-linecap:round; stroke-linejoin:round;">
<path d="M51260 27270
L51370 27270
L51430 27300
L51490 27360
L51510 27470
L51510 27670
L51490 27790
L51430 27840
L51370 27870
L51260 27870
L51200 27840
L51140 27790
L51110 27670
L51110 27470
L51140 27360
L51200 27300
L51260 27270
" />
<path d="M52030 27470
L52030 27870
" />
<path d="M51770 27470
L51770 27790
L51800 27840
L51860 27870
L51940 27870
L52000 27840
L52030 27810
" />
<path d="M52230 27470
L52460 27470
" />
<path d="M52310 27270
L52310 27790
L52340 27840
L52400 27870
L52460 27870
" />
<path d="M52650 27470
L52650 28070
" />
<path d="M52650 27500
L52710 27470
L52820 27470
L52880 27500
L52910 27530
L52940 27590
L52940 27760
L52910 27810
L52880 27840
L52820 27870
L52710 27870
L52650 27840
" />
<path d="M53450 27470
L53450 27870
" />
<path d="M53190 27470
L53190 27790
L53220 27840
L53280 27870
L53360 27870
L53420 27840
L53450 27810
" />
<path d="M53650 27470
L53880 27470
" />
<path d="M53730 27270
L53730 27790
L53760 27840
L53820 27870
L53880 27870
" />
<path d="M54880 27870
L54680 27590
" />
<path d="M54530 27870
L54530 27270
L54760 27270
L54820 27300
L54850 27330
L54880 27390
L54880 27470
L54850 27530
L54820 27560
L54760 27590
L54530 27590
" />
<path d="M55390 27870
L55390 27560
L55360 27500
L55300 27470
L55190 27470
L55130 27500
" />
<path d="M55390 27840
L55330 27870
L55190 27870
L55130 27840
L55100 27790
L55100 27730
L55130 27670
L55190 27640
L55330 27640
L55390 27610
" />
<path d="M55670 27470
L55670 27870
" />
<path d="M55670 27530
L55700 27500
L55760 27470
L55840 27470
L55900 27500
L55930 27560
L55930 27870
" />
<path d="M56470 27470
L56470 27960
L56440 28010
L56410 28040
L56360 28070
L56270 28070
L56210 28040
" />
<path d="M56470 27840
L56410 27870
L56300 27870
L56240 27840
L56210 27810
L56180 27760
L56180 27590
L56210 27530
L56240 27500
L56300 27470
L56410 27470
L56470 27500
" />
<path d="M56980 27840
L56920 27870
L56810 27870
L56750 27840
L56720 27790
L56720 27560
L56750 27500
L56810 27470
L56920 27470
L56980 27500
L57010 27560
L57010 27610
L56720 27670
" />
<path d="M57690 27840
L57780 27870
L57920 27870
L57980 27840
L58010 27810
L58040 27760
L58040 27700
L58010 27640
L57980 27610
L57920 27590
L57810 27560
L57750 27530
L57720 27500
L57690 27440
L57690 27390
L57720 27330
L57750 27300
L57810 27270
L57950 27270
L58040 27300
" />
<path d="M58520 27840
L58460 27870
L58350 27870
L58290 27840
L58260 27790
L58260 27560
L58290 27500
L58350 27470
L58460 27470
L58520 27500
L58550 27560
L58550 27610
L58260 27670
" />
<path d="M58890 27870
L58830 27840
L58800 27790
L58800 27270
" />
<path d="M59340 27840
L59280 27870
L59170 27870
L59110 27840
L59080 27790
L59080 27560
L59110 27500
L59170 27470
L59280 27470
L59340 27500
L59370 27560
L59370 27610
L59080 27670
" />
<path d="M59880 27840
L59820 27870
L59710 27870
L59650 27840
L59620 27810
L59590 27760
L59590 27590
L59620 27530
L59650 27500
L59710 27470
L59820 27470
L59880 27500
" />
<path d="M60050 27470
L60280 27470
" />
<path d="M60130 27270
L60130 27790
L60160 27840
L60220 27870
L60280 27870
" />
<path d="M60560 27870
L60500 27840
L60470 27810
L60440 27760
L60440 27590
L60470 27530
L60500 27500
L60560 27470
L60640 27470
L60700 27500
L60730 27530
L60760 27590
L60760 27760
L60730 27810
L60700 27840
L60640 27870
L60560 27870
" />
<path d="M61010 27870
L61010 27470
" />
<path d="M61010 27590
L61040 27530
L61070 27500
L61130 27470
L61180 27470
" />
</g>
<g style="fill:#008400; fill-opacity:0.0; 
stroke:#008400; stroke-width:60; stroke-opacity:1; 
stroke-linecap:round; stroke-linejoin:round;">
<path d="M50000 40000
L51000 40000
" />
</g>
<g style="fill:#0000C2; fill-opacity:0.0; 
stroke:#0000C2; stroke-width:60; stroke-opacity:1; 
stroke-linecap:round; stroke-linejoin:round;">
<path d="M60070 46530
L60090 46510
L60130 46490
L60220 46490
L60260 46510
L60280 46530
L60300 46570
L60300 46600
L60280 46660
L60060 46880
L60300 46880
" />
<path d="M60630 46620
L60630 46880
" />
<path d="M60460 46620
L60460 46830
L60480 46860
L60520 46880
L60570 46880
L60610 46860
L60630 46840
" />
<path d="M60790 46770
L60980 46770
" />
<path d="M60760 46880
L60890 46490
L61020 46880
" />
<path d="M61140 46730
L61440 46730
" />
<path d="M61790 46620
L61790 46880
" />
<path d="M61700 46470
L61600 46750
L61850 46750
" />
<path d="M62160 46620
L62160 46880
" />
<path d="M61990 46620
L61990 46830
L62010 46860
L62050 46880
L62100 46880
L62140 46860
L62160 46840
" />
<path d="M62320 46770
L62510 46770
" />
<path d="M62290 46880
L62420 46490
L62550 46880
" />
<path d="M60300 49880
L60070 49880
" />
<path d="M60190 49880
L60190 49490
L60150 49550
L60110 49580
L60070 49600
" />
<path d="M60630 49620
L60630 49880
" />
<path d="M60460 49620
L60460 49830
L60480 49860
L60520 49880
L60570 49880
L60610 49860
L60630 49840
" />
<path d="M60790 49770
L60980 49770
" />
<path d="M60760 49880
L60890 49490
L61020 49880
" />
<path d="M61140 49730
L61440 49730
" />
<path d="M61600 49530
L61620 49510
L61660 49490
L61750 49490
L61790 49510
L61810 49530
L61830 49570
L61830 49600
L61810 49660
L61590 49880
L61830 49880
" />
<path d="M62160 49620
L62160 49880
" />
<path d="M61990 49620
L61990 49830
L62010 49860
L62050 49880
L62100 49880
L62140 49860
L62160 49840
" />
<path d="M62320 49770
L62510 49770
" />
<path d="M62290 49880
L62420 49490
L62550 49880
" />
<path d="M60170 52490
L60200 52490
L60240 52510
L60260 52530
L60280 52570
L60300 52640
L60300 52730
L60280 52810
L60260 52840
L60240 52860
L60200 52880
L60170 52880
L60130 52860
L60110 52840
L60090 52810
L60070 52730
L60070 52640
L60090 52570
L60110 52530
L60130 52510
L60170 52490
" />
<path d="M60460 52840
L60480 52860
L60460 52880
L60440 52860
L60460 52840
L60460 52880
" />
<path d="M60840 52490
L60650 52490
L60630 52680
L60650 52660
L60690 52640
L60780 52640
L60820 52660
L60840 52680
L60860 52710
L60860 52810
L60840 52840
L60820 52860
L60780 52880
L60690 52880
L60650 52860
L60630 52840
" />
<path d="M61190 52620
L61190 52880
" />
<path d="M61020 52620
L61020 52830
L61040 52860
L61080 52880
L61130 52880
L61170 52860
L61190 52840
" />
<path d="M61350 52770
L61540 52770
" />
<path d="M61320 52880
L61450 52490
L61580 52880
" />
<path d="M61700 52730
L62000 52730
" />
<path d="M62390 52880
L62160 52880
" />
<path d="M62280 52880
L62280 52490
L62240 52550
L62200 52580
L62160 52600
" />
<path d="M62720 52620
L62720 52880
" />
<path d="M62550 52620
L62550 52830
L62570 52860
L62610 52880
L62660 52880
L62700 52860
L62720 52840
" />
<path d="M62880 52770
L63070 52770
" />
<path d="M62850 52880
L62980 52490
L63110 52880
" />
<path d="M60260 43620
L60260 43880
" />
<path d="M60170 43470
L60070 43750
L60320 43750
" />
<path d="M60630 43620
L60630 43880
" />
<path d="M60460 43620
L60460 43830
L60480 43860
L60520 43880
L60570 43880
L60610 43860
L60630 43840
" />
<path d="M60790 43770
L60980 43770
" />
<path d="M60760 43880
L60890 43490
L61020 43880
" />
<path d="M61140 43730
L61440 43730
" />
<path d="M61680 43660
L61640 43640
L61620 43620
L61600 43580
L61600 43570
L61620 43530
L61640 43510
L61680 43490
L61750 43490
L61790 43510
L61810 43530
L61830 43570
L61830 43580
L61810 43620
L61790 43640
L61750 43660
L61680 43660
L61640 43680
L61620 43700
L61600 43730
L61600 43810
L61620 43840
L61640 43860
L61680 43880
L61750 43880
L61790 43860
L61810 43840
L61830 43810
L61830 43730
L61810 43700
L61790 43680
L61750 43660
" />
<path d="M62160 43620
L62160 43880
" />
<path d="M61990 43620
L61990 43830
L62010 43860
L62050 43880
L62100 43880
L62140 43860
L62160 43840
" />
<path d="M62320 43770
L62510 43770
" />
<path d="M62290 43880
L62420 43490
L62550 43880
" />
<path d="M60150 40660
L60110 40640
L60090 40620
L60070 40580
L60070 40570
L60090 40530
L60110 40510
L60150 40490
L60220 40490
L60260 40510
L60280 40530
L60300 40570
L60300 40580
L60280 40620
L60260 40640
L60220 40660
L60150 40660
L60110 40680
L60090 40700
L60070 40730
L60070 40810
L60090 40840
L60110 40860
L60150 40880
L60220 40880
L60260 40860
L60280 40840
L60300 40810
L60300 40730
L60280 40700
L60260 40680
L60220 40660
" />
<path d="M60630 40620
L60630 40880
" />
<path d="M60460 40620
L60460 40830
L60480 40860
L60520 40880
L60570 40880
L60610 40860
L60630 40840
" />
<path d="M60790 40770
L60980 40770
" />
<path d="M60760 40880
L60890 40490
L61020 40880
" />
<path d="M61140 40730
L61440 40730
" />
<path d="M61830 40880
L61600 40880
" />
<path d="M61720 40880
L61720 40490
L61680 40550
L61640 40580
L61600 40600
" />
<path d="M62160 40490
L62090 40490
L62050 40510
L62030 40530
L61990 40580
L61970 40660
L61970 40810
L61990 40840
L62010 40860
L62050 40880
L62120 40880
L62160 40860
L62180 40840
L62200 40810
L62200 40710
L62180 40680
L62160 40660
L62120 40640
L62050 40640
L62010 40660
L61990 40680
L61970 40710
" />
<path d="M62530 40620
L62530 40880
" />
<path d="M62360 40620
L62360 40830
L62380 40860
L62420 40880
L62470 40880
L62510 40860
L62530 40840
" />
<path d="M62690 40770
L62880 40770
" />
<path d="M62660 40880
L62790 40490
L62920 40880
" />
<path d="M60300 37880
L60070 37880
" />
<path d="M60190 37880
L60190 37490
L60150 37550
L60110 37580
L60070 37600
" />
<path d="M60630 37490
L60560 37490
L60520 37510
L60500 37530
L60460 37580
L60440 37660
L60440 37810
L60460 37840
L60480 37860
L60520 37880
L60590 37880
L60630 37860
L60650 37840
L60670 37810
L60670 37710
L60650 37680
L60630 37660
L60590 37640
L60520 37640
L60480 37660
L60460 37680
L60440 37710
" />
<path d="M61000 37620
L61000 37880
" />
<path d="M60830 37620
L60830 37830
L60850 37860
L60890 37880
L60940 37880
L60980 37860
L61000 37840
" />
<path d="M61160 37770
L61350 37770
" />
<path d="M61130 37880
L61260 37490
L61390 37880
" />
<path d="M61510 37730
L61810 37730
" />
<path d="M61960 37490
L62200 37490
L62070 37640
L62120 37640
L62160 37660
L62180 37680
L62200 37710
L62200 37810
L62180 37840
L62160 37860
L62120 37880
L62010 37880
L61970 37860
L61960 37840
" />
<path d="M62340 37530
L62360 37510
L62400 37490
L62490 37490
L62530 37510
L62550 37530
L62570 37570
L62570 37600
L62550 37660
L62330 37880
L62570 37880
" />
<path d="M62900 37620
L62900 37880
" />
<path d="M62730 37620
L62730 37830
L62750 37860
L62790 37880
L62840 37880
L62880 37860
L62900 37840
" />
<path d="M63060 37770
L63250 37770
" />
<path d="M63030 37880
L63160 37490
L63290 37880
" />
<path d="M60060 34490
L60300 34490
L60170 34640
L60220 34640
L60260 34660
L60280 34680
L60300 34710
L60300 34810
L60280 34840
L60260 34860
L60220 34880
L60110 34880
L60070 34860
L60060 34840
" />
<path d="M60440 34530
L60460 34510
L60500 34490
L60590 34490
L60630 34510
L60650 34530
L60670 34570
L60670 34600
L60650 34660
L60430 34880
L60670 34880
" />
<path d="M61000 34620
L61000 34880
" />
<path d="M60830 34620
L60830 34830
L60850 34860
L60890 34880
L60940 34880
L60980 34860
L61000 34840
" />
<path d="M61160 34770
L61350 34770
" />
<path d="M61130 34880
L61260 34490
L61390 34880
" />
<path d="M61510 34730
L61810 34730
" />
<path d="M62160 34490
L62090 34490
L62050 34510
L62030 34530
L61990 34580
L61970 34660
L61970 34810
L61990 34840
L62010 34860
L62050 34880
L62120 34880
L62160 34860
L62180 34840
L62200 34810
L62200 34710
L62180 34680
L62160 34660
L62120 34640
L62050 34640
L62010 34660
L61990 34680
L61970 34710
" />
<path d="M62530 34620
L62530 34880
" />
<path d="M62440 34470
L62340 34750
L62590 34750
" />
<path d="M62900 34620
L62900 34880
" />
<path d="M62730 34620
L62730 34830
L62750 34860
L62790 34880
L62840 34880
L62880 34860
L62900 34840
" />
<path d="M63060 34770
L63250 34770
" />
<path d="M63030 34880
L63160 34490
L63290 34880
" />
<path d="M60260 31490
L60190 31490
L60150 31510
L60130 31530
L60090 31580
L60070 31660
L60070 31810
L60090 31840
L60110 31860
L60150 31880
L60220 31880
L60260 31860
L60280 31840
L60300 31810
L60300 31710
L60280 31680
L60260 31660
L60220 31640
L60150 31640
L60110 31660
L60090 31680
L60070 31710
" />
<path d="M60630 31620
L60630 31880
" />
<path d="M60540 31470
L60440 31750
L60690 31750
" />
<path d="M61000 31620
L61000 31880
" />
<path d="M60830 31620
L60830 31830
L60850 31860
L60890 31880
L60940 31880
L60980 31860
L61000 31840
" />
<path d="M61160 31770
L61350 31770
" />
<path d="M61130 31880
L61260 31490
L61390 31880
" />
<path d="M61510 31730
L61810 31730
" />
<path d="M62200 31880
L61970 31880
" />
<path d="M62090 31880
L62090 31490
L62050 31550
L62010 31580
L61970 31600
" />
<path d="M62440 31490
L62470 31490
L62510 31510
L62530 31530
L62550 31570
L62570 31640
L62570 31730
L62550 31810
L62530 31840
L62510 31860
L62470 31880
L62440 31880
L62400 31860
L62380 31840
L62360 31810
L62340 31730
L62340 31640
L62360 31570
L62380 31530
L62400 31510
L62440 31490
" />
<path d="M62810 31490
L62840 31490
L62880 31510
L62900 31530
L62920 31570
L62940 31640
L62940 31730
L62920 31810
L62900 31840
L62880 31860
L62840 31880
L62810 31880
L62770 31860
L62750 31840
L62730 31810
L62710 31730
L62710 31640
L62730 31570
L62750 31530
L62770 31510
L62810 31490
" />
<path d="M63270 31620
L63270 31880
" />
<path d="M63100 31620
L63100 31830
L63120 31860
L63160 31880
L63210 31880
L63250 31860
L63270 31840
" />
<path d="M63430 31770
L63620 31770
" />
<path d="M63400 31880
L63530 31490
L63660 31880
" />
</g>
<g style="fill:#000000; fill-opacity:0.0; 
stroke:#000000; stroke-width:60; stroke-opacity:1; 
stroke-linecap:round; stroke-linejoin:round;">
<path d="M44270 39560
L44070 39560
" />
<path d="M44070 39870
L44070 39270
L44360 39270
" />
<path d="M44580 39870
L44580 39470
" />
<path d="M44580 39590
L44610 39530
L44640 39500
L44700 39470
L44750 39470
" />
<path d="M45040 39870
L44980 39840
L44950 39810
L44920 39760
L44920 39590
L44950 39530
L44980 39500
L45040 39470
L45120 39470
L45180 39500
L45210 39530
L45240 39590
L45240 39760
L45210 39810
L45180 39840
L45120 39870
L45040 39870
" />
<path d="M45490 39870
L45490 39470
" />
<path d="M45490 39530
L45520 39500
L45580 39470
L45660 39470
L45720 39500
L45750 39560
L45750 39870
" />
<path d="M45750 39560
L45780 39500
L45840 39470
L45920 39470
L45980 39500
L46010 39560
L46010 39870
" />
<path d="M46720 39700
L47010 39700
" />
<path d="M46670 39870
L46870 39270
L47070 39870
" />
<path d="M47260 39870
L47260 39270
L47410 39270
L47490 39300
L47550 39360
L47580 39410
L47610 39530
L47610 39610
L47580 39730
L47550 39790
L47490 39840
L47410 39870
L47260 39870
" />
<path d="M47950 39530
L47890 39500
L47860 39470
L47830 39410
L47830 39390
L47860 39330
L47890 39300
L47950 39270
L48060 39270
L48120 39300
L48150 39330
L48180 39390
L48180 39410
L48150 39470
L48120 39500
L48060 39530
L47950 39530
L47890 39560
L47860 39590
L47830 39640
L47830 39760
L47860 39810
L47890 39840
L47950 39870
L48060 39870
L48120 39840
L48150 39810
L48180 39760
L48180 39640
L48150 39590
L48120 39560
L48060 39530
" />
<path d="M48400 39330
L48430 39300
L48490 39270
L48630 39270
L48690 39300
L48720 39330
L48750 39390
L48750 39440
L48720 39530
L48380 39870
L48750 39870
" />
<path d="M48970 39330
L49000 39300
L49060 39270
L49200 39270
L49260 39300
L49290 39330
L49320 39390
L49320 39440
L49290 39530
L48950 39870
L49320 39870
" />
<path d="M49890 39870
L49540 39870
" />
<path d="M49720 39870
L49720 39270
L49660 39360
L49600 39410
L49540 39440
" />
<path d="M71560 41270
L71900 41270
" />
<path d="M71730 41870
L71730 41270
" />
<path d="M72190 41870
L72130 41840
L72100 41810
L72070 41760
L72070 41590
L72100 41530
L72130 41500
L72190 41470
L72270 41470
L72330 41500
L72360 41530
L72390 41590
L72390 41760
L72360 41810
L72330 41840
L72270 41870
L72190 41870
" />
<path d="M73220 41270
L73330 41270
L73390 41300
L73450 41360
L73470 41470
L73470 41670
L73450 41790
L73390 41840
L73330 41870
L73220 41870
L73160 41840
L73100 41790
L73070 41670
L73070 41470
L73100 41360
L73160 41300
L73220 41270
" />
<path d="M73990 41470
L73990 41870
" />
<path d="M73730 41470
L73730 41790
L73760 41840
L73820 41870
L73900 41870
L73960 41840
L73990 41810
" />
<path d="M74190 41470
L74420 41470
" />
<path d="M74270 41270
L74270 41790
L74300 41840
L74360 41870
L74420 41870
" />
<path d="M74610 41470
L74610 42070
" />
<path d="M74610 41500
L74670 41470
L74780 41470
L74840 41500
L74870 41530
L74900 41590
L74900 41760
L74870 41810
L74840 41840
L74780 41870
L74670 41870
L74610 41840
" />
<path d="M75410 41470
L75410 41870
" />
<path d="M75150 41470
L75150 41790
L75180 41840
L75240 41870
L75320 41870
L75380 41840
L75410 41810
" />
<path d="M75610 41470
L75840 41470
" />
<path d="M75690 41270
L75690 41790
L75720 41840
L75780 41870
L75840 41870
" />
<path d="M71900 42870
L71900 42560
L71870 42500
L71810 42470
L71700 42470
L71640 42500
" />
<path d="M71900 42840
L71840 42870
L71700 42870
L71640 42840
L71610 42790
L71610 42730
L71640 42670
L71700 42640
L71840 42640
L71900 42610
" />
<path d="M72180 42470
L72180 42870
" />
<path d="M72180 42530
L72210 42500
L72270 42470
L72350 42470
L72410 42500
L72440 42560
L72440 42870
" />
<path d="M72980 42870
L72980 42270
" />
<path d="M72980 42840
L72920 42870
L72810 42870
L72750 42840
L72720 42810
L72690 42760
L72690 42590
L72720 42530
L72750 42500
L72810 42470
L72920 42470
L72980 42500
" />
<path d="M73920 42560
L73720 42560
" />
<path d="M73720 42870
L73720 42270
L74010 42270
" />
<path d="M74460 42840
L74400 42870
L74290 42870
L74230 42840
L74200 42790
L74200 42560
L74230 42500
L74290 42470
L74400 42470
L74460 42500
L74490 42560
L74490 42610
L74200 42670
" />
<path d="M74970 42840
L74910 42870
L74800 42870
L74740 42840
L74710 42790
L74710 42560
L74740 42500
L74800 42470
L74910 42470
L74970 42500
L75000 42560
L75000 42610
L74710 42670
" />
<path d="M75510 42870
L75510 42270
" />
<path d="M75510 42840
L75450 42870
L75340 42870
L75280 42840
L75250 42810
L75220 42760
L75220 42590
L75250 42530
L75280 42500
L75340 42470
L75450 42470
L75510 42500
" />
<path d="M75790 42870
L75790 42270
" />
<path d="M75790 42500
L75850 42470
L75960 42470
L76020 42500
L76050 42530
L76080 42590
L76080 42760
L76050 42810
L76020 42840
L75960 42870
L75850 42870
L75790 42840
" />
<path d="M76590 42870
L76590 42560
L76560 42500
L76500 42470
L76390 42470
L76330 42500
" />
<path d="M76590 42840
L76530 42870
L76390 42870
L76330 42840
L76300 42790
L76300 42730
L76330 42670
L76390 42640
L76530 42640
L76590 42610
" />
<path d="M77130 42840
L77070 42870
L76960 42870
L76900 42840
L76870 42810
L76840 42760
L76840 42590
L76870 42530
L76900 42500
L76960 42470
L77070 42470
L77130 42500
" />
<path d="M77380 42870
L77380 42270
" />
<path d="M77440 42640
L77610 42870
" />
<path d="M77610 42470
L77380 42700
" />
<path d="M78530 42560
L78620 42590
L78650 42610
L78680 42670
L78680 42760
L78650 42810
L78620 42840
L78560 42870
L78330 42870
L78330 42270
L78530 42270
L78590 42300
L78620 42330
L78650 42390
L78650 42440
L78620 42500
L78590 42530
L78530 42560
L78330 42560
" />
<path d="M79190 42470
L79190 42870
" />
<path d="M78930 42470
L78930 42790
L78960 42840
L79020 42870
L79100 42870
L79160 42840
L79190 42810
" />
<path d="M79390 42470
L79620 42470
" />
<path d="M79470 42870
L79470 42360
L79500 42300
L79560 42270
L79620 42270
" />
<path d="M79730 42470
L79960 42470
" />
<path d="M79810 42870
L79810 42360
L79840 42300
L79900 42270
L79960 42270
" />
<path d="M80380 42840
L80320 42870
L80210 42870
L80150 42840
L80120 42790
L80120 42560
L80150 42500
L80210 42470
L80320 42470
L80380 42500
L80410 42560
L80410 42610
L80120 42670
" />
<path d="M80660 42870
L80660 42470
" />
<path d="M80660 42590
L80690 42530
L80720 42500
L80780 42470
L80830 42470
" />
</g> 
</svg>
