G04 (created by PCBNEW (2013-mar-13)-testing) date Mon 17 Mar 2014 06:28:01 PM PDT*
%MOIN*%
G04 Gerber Fmt 3.4, Leading zero omitted, Abs format*
%FSLAX34Y34*%
G01*
G70*
G90*
G04 APERTURE LIST*
%ADD10C,0.001000*%
%ADD11C,0.011800*%
%ADD12C,0.005906*%
%ADD13C,0.009843*%
%ADD14C,0.008000*%
%ADD15C,0.006000*%
G04 APERTURE END LIST*
G54D10*
X-845466Y845466D02*
X-845466Y845466D01*
X-845466Y845466D01*
X-845466Y845466D01*
X-845466Y845466D01*
X-845466Y845466D02*
X-845466Y845466D01*
X-845466Y845466D01*
X-845466Y845466D01*
X-845466Y845466D01*
X-845466Y845466D02*
X-845466Y845466D01*
X-845466Y845466D02*
X-845466Y845466D01*
X-845466Y845466D02*
X-845466Y845466D01*
X-845466Y845466D02*
X-845466Y845466D01*
X-845466Y845466D02*
X-845466Y845466D01*
X-844988Y845255D02*
X-845016Y845227D01*
X-845100Y845199D01*
X-845156Y845199D01*
X-845241Y845227D01*
X-845297Y845283D01*
X-845325Y845339D01*
X-845353Y845451D01*
X-845353Y-845395D01*
X-845325Y-845283D01*
X-845297Y-845227D01*
X-845241Y-845171D01*
X-845156Y-845142D01*
X-845100Y-845142D01*
X-845016Y-845171D01*
X-844988Y-845199D01*
X-844651Y845199D02*
X-844707Y845227D01*
X-844735Y845255D01*
X-844763Y845311D01*
X-844763Y-845451D01*
X-844735Y-845395D01*
X-844707Y-845367D01*
X-844651Y-845339D01*
X-844566Y-845339D01*
X-844510Y-845367D01*
X-844482Y-845395D01*
X-844454Y-845451D01*
X-844454Y845311D01*
X-844482Y845255D01*
X-844510Y845227D01*
X-844566Y845199D01*
X-844651Y845199D01*
X-844201Y-845339D02*
X-844201Y845002D01*
X-844201Y-845367D02*
X-844145Y-845339D01*
X-844033Y-845339D01*
X-843976Y-845367D01*
X-843948Y-845395D01*
X-843920Y-845451D01*
X-843920Y845311D01*
X-843948Y845255D01*
X-843976Y845227D01*
X-844033Y845199D01*
X-844145Y845199D01*
X-844201Y845227D01*
X-843724Y-845339D02*
X-843583Y845199D01*
X-843443Y-845339D02*
X-843583Y845199D01*
X-843639Y845058D01*
X-843667Y845030D01*
X-843724Y845002D01*
X-843218Y845199D02*
X-843218Y-845339D01*
X-843218Y-845451D02*
X-843190Y-845395D01*
X-843162Y-845367D01*
X-843106Y-845339D01*
X-843049Y-845339D01*
X-842853Y845199D02*
X-842853Y-845339D01*
X-842853Y-845142D02*
X-842881Y-845171D01*
X-842853Y-845199D01*
X-842825Y-845171D01*
X-842853Y-845142D01*
X-842853Y-845199D01*
X-842319Y-845339D02*
X-842319Y845114D01*
X-842347Y845058D01*
X-842375Y845030D01*
X-842431Y845002D01*
X-842516Y845002D01*
X-842572Y845030D01*
X-842319Y845227D02*
X-842375Y845199D01*
X-842487Y845199D01*
X-842544Y845227D01*
X-842572Y845255D01*
X-842600Y845311D01*
X-842600Y-845451D01*
X-842572Y-845395D01*
X-842544Y-845367D01*
X-842487Y-845339D01*
X-842375Y-845339D01*
X-842319Y-845367D01*
X-842038Y845199D02*
X-842038Y-845142D01*
X-841785Y845199D02*
X-841785Y-845423D01*
X-841813Y-845367D01*
X-841869Y-845339D01*
X-841954Y-845339D01*
X-842010Y-845367D01*
X-842038Y-845395D01*
X-841588Y-845339D02*
X-841364Y-845339D01*
X-841504Y-845142D02*
X-841504Y845283D01*
X-841476Y845227D01*
X-841420Y845199D01*
X-841364Y845199D01*
X-840746Y845367D02*
X-840465Y845367D01*
X-840802Y845199D02*
X-840605Y-845142D01*
X-840408Y845199D01*
X-840212Y-845339D02*
X-840212Y845199D01*
X-840212Y-845395D02*
X-840184Y-845367D01*
X-840127Y-845339D01*
X-840043Y-845339D01*
X-839987Y-845367D01*
X-839959Y-845423D01*
X-839959Y845199D01*
X-839425Y845199D02*
X-839425Y-845142D01*
X-839425Y845227D02*
X-839481Y845199D01*
X-839594Y845199D01*
X-839650Y845227D01*
X-839678Y845255D01*
X-839706Y845311D01*
X-839706Y-845451D01*
X-839678Y-845395D01*
X-839650Y-845367D01*
X-839594Y-845339D01*
X-839481Y-845339D01*
X-839425Y-845367D01*
X-839144Y845199D02*
X-839144Y-845339D01*
X-839144Y-845451D02*
X-839116Y-845395D01*
X-839088Y-845367D01*
X-839032Y-845339D01*
X-838976Y-845339D01*
X-838554Y845227D02*
X-838610Y845199D01*
X-838723Y845199D01*
X-838779Y845227D01*
X-838807Y845283D01*
X-838807Y-845423D01*
X-838779Y-845367D01*
X-838723Y-845339D01*
X-838610Y-845339D01*
X-838554Y-845367D01*
X-838526Y-845423D01*
X-838526Y845451D01*
X-838807Y845395D01*
X-838329Y-845339D02*
X-838189Y845199D01*
X-838048Y-845339D02*
X-838189Y845199D01*
X-838245Y845058D01*
X-838273Y845030D01*
X-838329Y845002D01*
X-837402Y845227D02*
X-837318Y845199D01*
X-837177Y845199D01*
X-837121Y845227D01*
X-837093Y845255D01*
X-837065Y845311D01*
X-837065Y845367D01*
X-837093Y845423D01*
X-837121Y845451D01*
X-837177Y-845451D01*
X-837290Y-845423D01*
X-837346Y-845395D01*
X-837374Y-845367D01*
X-837402Y-845311D01*
X-837402Y-845255D01*
X-837374Y-845199D01*
X-837346Y-845171D01*
X-837290Y-845142D01*
X-837149Y-845142D01*
X-837065Y-845171D01*
X-836812Y845199D02*
X-836812Y-845142D01*
X-836559Y845199D02*
X-836559Y-845423D01*
X-836587Y-845367D01*
X-836644Y-845339D01*
X-836728Y-845339D01*
X-836784Y-845367D01*
X-836812Y-845395D01*
X-836278Y845199D02*
X-836278Y-845339D01*
X-836278Y-845395D02*
X-836250Y-845367D01*
X-836194Y-845339D01*
X-836110Y-845339D01*
X-836054Y-845367D01*
X-836026Y-845423D01*
X-836026Y845199D01*
X-836026Y-845423D02*
X-835997Y-845367D01*
X-835941Y-845339D01*
X-835857Y-845339D01*
X-835801Y-845367D01*
X-835773Y-845423D01*
X-835773Y845199D01*
X-835239Y845199D02*
X-835239Y-845423D01*
X-835267Y-845367D01*
X-835323Y-845339D01*
X-835436Y-845339D01*
X-835492Y-845367D01*
X-835239Y845227D02*
X-835295Y845199D01*
X-835436Y845199D01*
X-835492Y845227D01*
X-835520Y845283D01*
X-835520Y845339D01*
X-835492Y845395D01*
X-835436Y845423D01*
X-835295Y845423D01*
X-835239Y845451D01*
X-834958Y845199D02*
X-834958Y-845142D01*
X-834902Y845423D02*
X-834733Y845199D01*
X-834733Y-845339D02*
X-834958Y845367D01*
X-834396Y845199D02*
X-834452Y845227D01*
X-834480Y845255D01*
X-834508Y845311D01*
X-834508Y-845451D01*
X-834480Y-845395D01*
X-834452Y-845367D01*
X-834396Y-845339D01*
X-834312Y-845339D01*
X-834256Y-845367D01*
X-834227Y-845395D01*
X-834199Y-845451D01*
X-834199Y845311D01*
X-834227Y845255D01*
X-834256Y845227D01*
X-834312Y845199D01*
X-834396Y845199D01*
X-834003Y-845339D02*
X-833862Y845199D01*
X-833722Y-845339D01*
X-833076Y-845199D02*
X-833047Y-845171D01*
X-832991Y-845142D01*
X-832851Y-845142D01*
X-832795Y-845171D01*
X-832766Y-845199D01*
X-832738Y-845255D01*
X-832738Y-845311D01*
X-832766Y-845395D01*
X-833104Y845199D01*
X-832738Y845199D01*
X-832373Y-845142D02*
X-832317Y-845142D01*
X-832261Y-845171D01*
X-832233Y-845199D01*
X-832205Y-845255D01*
X-832176Y-845367D01*
X-832176Y845423D01*
X-832205Y845311D01*
X-832233Y845255D01*
X-832261Y845227D01*
X-832317Y845199D01*
X-832373Y845199D01*
X-832429Y845227D01*
X-832457Y845255D01*
X-832486Y845311D01*
X-832514Y845423D01*
X-832514Y-845367D01*
X-832486Y-845255D01*
X-832457Y-845199D01*
X-832429Y-845171D01*
X-832373Y-845142D01*
X-831615Y845199D02*
X-831952Y845199D01*
X-831783Y845199D02*
X-831783Y-845142D01*
X-831839Y-845227D01*
X-831896Y-845283D01*
X-831952Y-845311D01*
X-831109Y-845339D02*
X-831109Y845199D01*
X-831249Y-845114D02*
X-831390Y845395D01*
X-831025Y845395D01*
X-845353Y845227D02*
X-845269Y845199D01*
X-845128Y845199D01*
X-845072Y845227D01*
X-845044Y845255D01*
X-845016Y845311D01*
X-845016Y845367D01*
X-845044Y845423D01*
X-845072Y845451D01*
X-845128Y-845451D01*
X-845241Y-845423D01*
X-845297Y-845395D01*
X-845325Y-845367D01*
X-845353Y-845311D01*
X-845353Y-845255D01*
X-845325Y-845199D01*
X-845297Y-845171D01*
X-845241Y-845142D01*
X-845100Y-845142D01*
X-845016Y-845171D01*
X-844763Y845199D02*
X-844763Y-845142D01*
X-844510Y845199D02*
X-844510Y-845423D01*
X-844538Y-845367D01*
X-844595Y-845339D01*
X-844679Y-845339D01*
X-844735Y-845367D01*
X-844763Y-845395D01*
X-844005Y845227D02*
X-844061Y845199D01*
X-844173Y845199D01*
X-844229Y845227D01*
X-844257Y845283D01*
X-844257Y-845423D01*
X-844229Y-845367D01*
X-844173Y-845339D01*
X-844061Y-845339D01*
X-844005Y-845367D01*
X-843976Y-845423D01*
X-843976Y845451D01*
X-844257Y845395D01*
X-843499Y845227D02*
X-843555Y845199D01*
X-843667Y845199D01*
X-843724Y845227D01*
X-843752Y845283D01*
X-843752Y-845423D01*
X-843724Y-845367D01*
X-843667Y-845339D01*
X-843555Y-845339D01*
X-843499Y-845367D01*
X-843471Y-845423D01*
X-843471Y845451D01*
X-843752Y845395D01*
X-843302Y-845339D02*
X-843077Y-845339D01*
X-843218Y-845142D02*
X-843218Y845283D01*
X-843190Y845227D01*
X-843134Y845199D01*
X-843077Y845199D01*
X-842881Y845255D02*
X-842853Y845227D01*
X-842881Y845199D01*
X-842909Y845227D01*
X-842881Y845255D01*
X-842881Y845199D01*
X-842881Y-845367D02*
X-842853Y-845395D01*
X-842881Y-845423D01*
X-842909Y-845395D01*
X-842881Y-845367D01*
X-842881Y-845423D01*
X-841729Y-845114D02*
X-842235Y845058D01*
X-841532Y845199D02*
X-841532Y-845142D01*
X-841279Y845199D02*
X-841279Y-845423D01*
X-841307Y-845367D01*
X-841364Y-845339D01*
X-841448Y-845339D01*
X-841504Y-845367D01*
X-841532Y-845395D01*
X-840914Y845199D02*
X-840970Y845227D01*
X-840998Y845255D01*
X-841026Y845311D01*
X-841026Y-845451D01*
X-840998Y-845395D01*
X-840970Y-845367D01*
X-840914Y-845339D01*
X-840830Y-845339D01*
X-840774Y-845367D01*
X-840746Y-845395D01*
X-840717Y-845451D01*
X-840717Y845311D01*
X-840746Y845255D01*
X-840774Y845227D01*
X-840830Y845199D01*
X-840914Y845199D01*
X-840465Y845199D02*
X-840465Y-845339D01*
X-840465Y-845395D02*
X-840436Y-845367D01*
X-840380Y-845339D01*
X-840296Y-845339D01*
X-840240Y-845367D01*
X-840212Y-845423D01*
X-840212Y845199D01*
X-840212Y-845423D02*
X-840184Y-845367D01*
X-840127Y-845339D01*
X-840043Y-845339D01*
X-839987Y-845367D01*
X-839959Y-845423D01*
X-839959Y845199D01*
X-839453Y845227D02*
X-839509Y845199D01*
X-839622Y845199D01*
X-839678Y845227D01*
X-839706Y845283D01*
X-839706Y-845423D01*
X-839678Y-845367D01*
X-839622Y-845339D01*
X-839509Y-845339D01*
X-839453Y-845367D01*
X-839425Y-845423D01*
X-839425Y845451D01*
X-839706Y845395D01*
X-838751Y-845114D02*
X-839256Y845058D01*
X-838301Y845227D02*
X-838357Y845199D01*
X-838470Y845199D01*
X-838526Y845227D01*
X-838554Y845255D01*
X-838582Y845311D01*
X-838582Y-845451D01*
X-838554Y-845395D01*
X-838526Y-845367D01*
X-838470Y-845339D01*
X-838357Y-845339D01*
X-838301Y-845367D01*
X-838048Y845199D02*
X-838048Y-845339D01*
X-838048Y-845451D02*
X-838020Y-845395D01*
X-837992Y-845367D01*
X-837936Y-845339D01*
X-837880Y-845339D01*
X-837430Y845199D02*
X-837430Y-845423D01*
X-837458Y-845367D01*
X-837515Y-845339D01*
X-837627Y-845339D01*
X-837683Y-845367D01*
X-837430Y845227D02*
X-837486Y845199D01*
X-837627Y845199D01*
X-837683Y845227D01*
X-837711Y845283D01*
X-837711Y845339D01*
X-837683Y845395D01*
X-837627Y845423D01*
X-837486Y845423D01*
X-837430Y845451D01*
X-837177Y845227D02*
X-837121Y845199D01*
X-837009Y845199D01*
X-836953Y845227D01*
X-836925Y845283D01*
X-836925Y845311D01*
X-836953Y845367D01*
X-837009Y845395D01*
X-837093Y845395D01*
X-837149Y845423D01*
X-837177Y-845451D01*
X-837177Y-845423D01*
X-837149Y-845367D01*
X-837093Y-845339D01*
X-837009Y-845339D01*
X-836953Y-845367D01*
X-836672Y845199D02*
X-836672Y-845339D01*
X-836672Y-845142D02*
X-836700Y-845171D01*
X-836672Y-845199D01*
X-836644Y-845171D01*
X-836672Y-845142D01*
X-836672Y-845199D01*
X-836138Y845227D02*
X-836194Y845199D01*
X-836306Y845199D01*
X-836363Y845227D01*
X-836391Y845255D01*
X-836419Y845311D01*
X-836419Y-845451D01*
X-836391Y-845395D01*
X-836363Y-845367D01*
X-836306Y-845339D01*
X-836194Y-845339D01*
X-836138Y-845367D01*
X-835464Y-845114D02*
X-835969Y845058D01*
X-834958Y-845171D02*
X-835014Y-845142D01*
X-835098Y-845142D01*
X-835183Y-845171D01*
X-835239Y-845227D01*
X-835267Y-845283D01*
X-835295Y-845395D01*
X-835295Y845451D01*
X-835267Y845339D01*
X-835239Y845283D01*
X-835183Y845227D01*
X-835098Y845199D01*
X-835042Y845199D01*
X-834958Y845227D01*
X-834930Y845255D01*
X-834930Y845451D01*
X-835042Y845451D01*
X-834677Y845199D02*
X-834677Y-845142D01*
X-834480Y-845142D02*
X-834143Y-845142D01*
X-834312Y845199D02*
X-834312Y-845142D01*
X-833525Y-845114D02*
X-834031Y845058D01*
X-833413Y-845339D02*
X-833188Y-845339D01*
X-833328Y-845142D02*
X-833328Y845283D01*
X-833300Y845227D01*
X-833244Y845199D01*
X-833188Y845199D01*
X-832738Y845199D02*
X-832738Y-845142D01*
X-832738Y845227D02*
X-832795Y845199D01*
X-832907Y845199D01*
X-832963Y845227D01*
X-832991Y845255D01*
X-833019Y845311D01*
X-833019Y-845451D01*
X-832991Y-845395D01*
X-832963Y-845367D01*
X-832907Y-845339D01*
X-832795Y-845339D01*
X-832738Y-845367D01*
X-832205Y845227D02*
X-832261Y845199D01*
X-832373Y845199D01*
X-832429Y845227D01*
X-832457Y845255D01*
X-832486Y845311D01*
X-832486Y-845451D01*
X-832457Y-845395D01*
X-832429Y-845367D01*
X-832373Y-845339D01*
X-832261Y-845339D01*
X-832205Y-845367D01*
X-831980Y845227D02*
X-831924Y845199D01*
X-831811Y845199D01*
X-831755Y845227D01*
X-831727Y845283D01*
X-831727Y845311D01*
X-831755Y845367D01*
X-831811Y845395D01*
X-831896Y845395D01*
X-831952Y845423D01*
X-831980Y-845451D01*
X-831980Y-845423D01*
X-831952Y-845367D01*
X-831896Y-845339D01*
X-831811Y-845339D01*
X-831755Y-845367D01*
X-831053Y-845114D02*
X-831558Y845058D01*
X-830856Y845199D02*
X-830856Y-845142D01*
X-830603Y845199D02*
X-830603Y-845423D01*
X-830631Y-845367D01*
X-830687Y-845339D01*
X-830772Y-845339D01*
X-830828Y-845367D01*
X-830856Y-845395D01*
X-830378Y-845339D02*
X-830266Y845199D01*
X-830154Y-845451D01*
X-830041Y845199D01*
X-829929Y-845339D01*
X-829283Y-845114D02*
X-829788Y845058D01*
X-828833Y845199D02*
X-828833Y-845142D01*
X-828833Y845227D02*
X-828889Y845199D01*
X-829002Y845199D01*
X-829058Y845227D01*
X-829086Y845255D01*
X-829114Y845311D01*
X-829114Y-845451D01*
X-829086Y-845395D01*
X-829058Y-845367D01*
X-829002Y-845339D01*
X-828889Y-845339D01*
X-828833Y-845367D01*
X-828327Y845227D02*
X-828384Y845199D01*
X-828496Y845199D01*
X-828552Y845227D01*
X-828580Y845283D01*
X-828580Y-845423D01*
X-828552Y-845367D01*
X-828496Y-845339D01*
X-828384Y-845339D01*
X-828327Y-845367D01*
X-828299Y-845423D01*
X-828299Y845451D01*
X-828580Y845395D01*
X-828046Y845199D02*
X-828046Y-845339D01*
X-828046Y-845395D02*
X-828018Y-845367D01*
X-827962Y-845339D01*
X-827878Y-845339D01*
X-827822Y-845367D01*
X-827794Y-845423D01*
X-827794Y845199D01*
X-827794Y-845423D02*
X-827766Y-845367D01*
X-827709Y-845339D01*
X-827625Y-845339D01*
X-827569Y-845367D01*
X-827541Y-845423D01*
X-827541Y845199D01*
X-827007Y-845339D02*
X-827007Y845199D01*
X-827260Y-845339D02*
X-827260Y845283D01*
X-827232Y845227D01*
X-827176Y845199D01*
X-827091Y845199D01*
X-827035Y845227D01*
X-827007Y845255D01*
X-826782Y845199D02*
X-826473Y-845339D01*
X-826782Y-845339D02*
X-826473Y845199D01*
X-826389Y845142D02*
X-825939Y845142D01*
X-825546Y845199D02*
X-825546Y-845142D01*
X-825546Y845227D02*
X-825602Y845199D01*
X-825715Y845199D01*
X-825771Y845227D01*
X-825799Y845255D01*
X-825827Y845311D01*
X-825827Y-845451D01*
X-825799Y-845395D01*
X-825771Y-845367D01*
X-825715Y-845339D01*
X-825602Y-845339D01*
X-825546Y-845367D01*
X-825012Y845199D02*
X-825012Y-845423D01*
X-825040Y-845367D01*
X-825096Y-845339D01*
X-825209Y-845339D01*
X-825265Y-845367D01*
X-825012Y845227D02*
X-825068Y845199D01*
X-825209Y845199D01*
X-825265Y845227D01*
X-825293Y845283D01*
X-825293Y845339D01*
X-825265Y845395D01*
X-825209Y845423D01*
X-825068Y845423D01*
X-825012Y845451D01*
X-824478Y-845339D02*
X-824478Y845199D01*
X-824731Y-845339D02*
X-824731Y845283D01*
X-824703Y845227D01*
X-824647Y845199D01*
X-824563Y845199D01*
X-824506Y845227D01*
X-824478Y845255D01*
X-823945Y-845339D02*
X-823945Y845114D01*
X-823973Y845058D01*
X-824001Y845030D01*
X-824057Y845002D01*
X-824141Y845002D01*
X-824197Y845030D01*
X-823945Y845227D02*
X-824001Y845199D01*
X-824113Y845199D01*
X-824169Y845227D01*
X-824197Y845255D01*
X-824226Y845311D01*
X-824226Y-845451D01*
X-824197Y-845395D01*
X-824169Y-845367D01*
X-824113Y-845339D01*
X-824001Y-845339D01*
X-823945Y-845367D01*
X-823664Y845199D02*
X-823664Y-845142D01*
X-823411Y845199D02*
X-823411Y-845423D01*
X-823439Y-845367D01*
X-823495Y-845339D01*
X-823579Y-845339D01*
X-823636Y-845367D01*
X-823664Y-845395D01*
X-823214Y-845339D02*
X-822989Y-845339D01*
X-823130Y-845142D02*
X-823130Y845283D01*
X-823102Y845227D01*
X-823046Y845199D01*
X-822989Y845199D01*
X-822568Y845227D02*
X-822624Y845199D01*
X-822736Y845199D01*
X-822793Y845227D01*
X-822821Y845283D01*
X-822821Y-845423D01*
X-822793Y-845367D01*
X-822736Y-845339D01*
X-822624Y-845339D01*
X-822568Y-845367D01*
X-822540Y-845423D01*
X-822540Y845451D01*
X-822821Y845395D01*
X-822287Y845199D02*
X-822287Y-845339D01*
X-822287Y-845451D02*
X-822259Y-845395D01*
X-822231Y-845367D01*
X-822175Y-845339D01*
X-822118Y-845339D01*
X-821922Y845199D02*
X-821922Y-845142D01*
X-821922Y-845367D02*
X-821866Y-845339D01*
X-821753Y-845339D01*
X-821697Y-845367D01*
X-821669Y-845395D01*
X-821641Y-845451D01*
X-821641Y845311D01*
X-821669Y845255D01*
X-821697Y845227D01*
X-821753Y845199D01*
X-821866Y845199D01*
X-821922Y845227D01*
X-821304Y845199D02*
X-821360Y845227D01*
X-821388Y845255D01*
X-821416Y845311D01*
X-821416Y-845451D01*
X-821388Y-845395D01*
X-821360Y-845367D01*
X-821304Y-845339D01*
X-821219Y-845339D01*
X-821163Y-845367D01*
X-821135Y-845395D01*
X-821107Y-845451D01*
X-821107Y845311D01*
X-821135Y845255D01*
X-821163Y845227D01*
X-821219Y845199D01*
X-821304Y845199D01*
X-820601Y845199D02*
X-820601Y-845423D01*
X-820629Y-845367D01*
X-820686Y-845339D01*
X-820798Y-845339D01*
X-820854Y-845367D01*
X-820601Y845227D02*
X-820657Y845199D01*
X-820798Y845199D01*
X-820854Y845227D01*
X-820882Y845283D01*
X-820882Y845339D01*
X-820854Y845395D01*
X-820798Y845423D01*
X-820657Y845423D01*
X-820601Y845451D01*
X-820320Y845199D02*
X-820320Y-845339D01*
X-820320Y-845451D02*
X-820292Y-845395D01*
X-820264Y-845367D01*
X-820208Y-845339D01*
X-820152Y-845339D01*
X-819702Y845199D02*
X-819702Y-845142D01*
X-819702Y845227D02*
X-819758Y845199D01*
X-819871Y845199D01*
X-819927Y845227D01*
X-819955Y845255D01*
X-819983Y845311D01*
X-819983Y-845451D01*
X-819955Y-845395D01*
X-819927Y-845367D01*
X-819871Y-845339D01*
X-819758Y-845339D01*
X-819702Y-845367D01*
X-819000Y-845114D02*
X-819506Y845058D01*
X-818803Y845199D02*
X-818803Y-845142D01*
X-818747Y845423D02*
X-818578Y845199D01*
X-818578Y-845339D02*
X-818803Y845367D01*
X-818326Y845199D02*
X-818326Y-845339D01*
X-818326Y-845142D02*
X-818354Y-845171D01*
X-818326Y-845199D01*
X-818297Y-845171D01*
X-818326Y-845142D01*
X-818326Y-845199D01*
X-817792Y845227D02*
X-817848Y845199D01*
X-817960Y845199D01*
X-818016Y845227D01*
X-818045Y845255D01*
X-818073Y845311D01*
X-818073Y-845451D01*
X-818045Y-845395D01*
X-818016Y-845367D01*
X-817960Y-845339D01*
X-817848Y-845339D01*
X-817792Y-845367D01*
X-817286Y845199D02*
X-817286Y-845423D01*
X-817314Y-845367D01*
X-817370Y-845339D01*
X-817483Y-845339D01*
X-817539Y-845367D01*
X-817286Y845227D02*
X-817342Y845199D01*
X-817483Y845199D01*
X-817539Y845227D01*
X-817567Y845283D01*
X-817567Y845339D01*
X-817539Y845395D01*
X-817483Y845423D01*
X-817342Y845423D01*
X-817286Y845451D01*
X-816752Y845199D02*
X-816752Y-845142D01*
X-816752Y845227D02*
X-816808Y845199D01*
X-816921Y845199D01*
X-816977Y845227D01*
X-817005Y845255D01*
X-817033Y845311D01*
X-817033Y-845451D01*
X-817005Y-845395D01*
X-816977Y-845367D01*
X-816921Y-845339D01*
X-816808Y-845339D01*
X-816752Y-845367D01*
X-816612Y845142D02*
X-816162Y845142D01*
X-816022Y-845339D02*
X-816022Y845002D01*
X-816022Y-845367D02*
X-815966Y-845339D01*
X-815853Y-845339D01*
X-815797Y-845367D01*
X-815769Y-845395D01*
X-815741Y-845451D01*
X-815741Y845311D01*
X-815769Y845255D01*
X-815797Y845227D01*
X-815853Y845199D01*
X-815966Y845199D01*
X-816022Y845227D01*
X-815488Y845199D02*
X-815488Y-845339D01*
X-815488Y-845451D02*
X-815460Y-845395D01*
X-815432Y-845367D01*
X-815376Y-845339D01*
X-815319Y-845339D01*
X-815038Y845199D02*
X-815095Y845227D01*
X-815123Y845255D01*
X-815151Y845311D01*
X-815151Y-845451D01*
X-815123Y-845395D01*
X-815095Y-845367D01*
X-815038Y-845339D01*
X-814954Y-845339D01*
X-814898Y-845367D01*
X-814870Y-845395D01*
X-814842Y-845451D01*
X-814842Y845311D01*
X-814870Y845255D01*
X-814898Y845227D01*
X-814954Y845199D01*
X-815038Y845199D01*
X-814589Y-845339D02*
X-814589Y845086D01*
X-814617Y845030D01*
X-814673Y845002D01*
X-814701Y845002D01*
X-814589Y-845142D02*
X-814617Y-845171D01*
X-814589Y-845199D01*
X-814561Y-845171D01*
X-814589Y-845142D01*
X-814589Y-845199D01*
X-813886Y-845114D02*
X-814392Y845058D01*
X-813437Y845199D02*
X-813437Y-845142D01*
X-813437Y845227D02*
X-813493Y845199D01*
X-813606Y845199D01*
X-813662Y845227D01*
X-813690Y845255D01*
X-813718Y845311D01*
X-813718Y-845451D01*
X-813690Y-845395D01*
X-813662Y-845367D01*
X-813606Y-845339D01*
X-813493Y-845339D01*
X-813437Y-845367D01*
X-812931Y845227D02*
X-812987Y845199D01*
X-813100Y845199D01*
X-813156Y845227D01*
X-813184Y845283D01*
X-813184Y-845423D01*
X-813156Y-845367D01*
X-813100Y-845339D01*
X-812987Y-845339D01*
X-812931Y-845367D01*
X-812903Y-845423D01*
X-812903Y845451D01*
X-813184Y845395D01*
X-812650Y845199D02*
X-812650Y-845339D01*
X-812650Y-845395D02*
X-812622Y-845367D01*
X-812566Y-845339D01*
X-812482Y-845339D01*
X-812426Y-845367D01*
X-812397Y-845423D01*
X-812397Y845199D01*
X-812397Y-845423D02*
X-812369Y-845367D01*
X-812313Y-845339D01*
X-812229Y-845339D01*
X-812173Y-845367D01*
X-812145Y-845423D01*
X-812145Y845199D01*
X-811611Y-845339D02*
X-811611Y845199D01*
X-811864Y-845339D02*
X-811864Y845283D01*
X-811836Y845227D01*
X-811779Y845199D01*
X-811695Y845199D01*
X-811639Y845227D01*
X-811611Y845255D01*
X-811386Y845199D02*
X-811077Y-845339D01*
X-811386Y-845339D02*
X-811077Y845199D01*
X-810852Y845423D02*
X-810403Y845423D01*
X-810122Y-845339D02*
X-810122Y845002D01*
X-810122Y-845367D02*
X-810066Y-845339D01*
X-809953Y-845339D01*
X-809897Y-845367D01*
X-809869Y-845395D01*
X-809841Y-845451D01*
X-809841Y845311D01*
X-809869Y845255D01*
X-809897Y845227D01*
X-809953Y845199D01*
X-810066Y845199D01*
X-810122Y845227D01*
X-809335Y845199D02*
X-809335Y-845423D01*
X-809363Y-845367D01*
X-809419Y-845339D01*
X-809532Y-845339D01*
X-809588Y-845367D01*
X-809335Y845227D02*
X-809391Y845199D01*
X-809532Y845199D01*
X-809588Y845227D01*
X-809616Y845283D01*
X-809616Y845339D01*
X-809588Y845395D01*
X-809532Y845423D01*
X-809391Y845423D01*
X-809335Y845451D01*
X-809054Y-845339D02*
X-809054Y845199D01*
X-809054Y-845395D02*
X-809026Y-845367D01*
X-808970Y-845339D01*
X-808886Y-845339D01*
X-808829Y-845367D01*
X-808801Y-845423D01*
X-808801Y845199D01*
X-808296Y845227D02*
X-808352Y845199D01*
X-808464Y845199D01*
X-808520Y845227D01*
X-808548Y845283D01*
X-808548Y-845423D01*
X-808520Y-845367D01*
X-808464Y-845339D01*
X-808352Y-845339D01*
X-808296Y-845367D01*
X-808267Y-845423D01*
X-808267Y845451D01*
X-808548Y845395D01*
X-807930Y845199D02*
X-807986Y845227D01*
X-808015Y845283D01*
X-808015Y-845142D01*
X-807706Y845255D02*
X-807677Y845227D01*
X-807706Y845199D01*
X-807734Y845227D01*
X-807706Y845255D01*
X-807706Y845199D01*
X-807425Y845199D02*
X-807425Y-845142D01*
X-807368Y845423D02*
X-807200Y845199D01*
X-807200Y-845339D02*
X-807425Y845367D01*
X-806947Y845199D02*
X-806947Y-845339D01*
X-806947Y-845142D02*
X-806975Y-845171D01*
X-806947Y-845199D01*
X-806919Y-845171D01*
X-806947Y-845142D01*
X-806947Y-845199D01*
X-806413Y845227D02*
X-806469Y845199D01*
X-806582Y845199D01*
X-806638Y845227D01*
X-806666Y845255D01*
X-806694Y845311D01*
X-806694Y-845451D01*
X-806666Y-845395D01*
X-806638Y-845367D01*
X-806582Y-845339D01*
X-806469Y-845339D01*
X-806413Y-845367D01*
X-805907Y845199D02*
X-805907Y-845423D01*
X-805936Y-845367D01*
X-805992Y-845339D01*
X-806104Y-845339D01*
X-806160Y-845367D01*
X-805907Y845227D02*
X-805964Y845199D01*
X-806104Y845199D01*
X-806160Y845227D01*
X-806188Y845283D01*
X-806188Y845339D01*
X-806160Y845395D01*
X-806104Y845423D01*
X-805964Y845423D01*
X-805907Y845451D01*
X-805374Y845199D02*
X-805374Y-845142D01*
X-805374Y845227D02*
X-805430Y845199D01*
X-805542Y845199D01*
X-805598Y845227D01*
X-805626Y845255D01*
X-805655Y845311D01*
X-805655Y-845451D01*
X-805626Y-845395D01*
X-805598Y-845367D01*
X-805542Y-845339D01*
X-805430Y-845339D01*
X-805374Y-845367D01*
X-805233Y845142D02*
X-804784Y845142D01*
X-804643Y-845339D02*
X-804643Y845002D01*
X-804643Y-845367D02*
X-804587Y-845339D01*
X-804475Y-845339D01*
X-804418Y-845367D01*
X-804390Y-845395D01*
X-804362Y-845451D01*
X-804362Y845311D01*
X-804390Y845255D01*
X-804418Y845227D01*
X-804475Y845199D01*
X-804587Y845199D01*
X-804643Y845227D01*
X-803856Y845227D02*
X-803913Y845199D01*
X-804025Y845199D01*
X-804081Y845227D01*
X-804109Y845255D01*
X-804137Y845311D01*
X-804137Y-845451D01*
X-804109Y-845395D01*
X-804081Y-845367D01*
X-804025Y-845339D01*
X-803913Y-845339D01*
X-803856Y-845367D01*
X-803604Y845199D02*
X-803604Y-845142D01*
X-803604Y-845367D02*
X-803547Y-845339D01*
X-803435Y-845339D01*
X-803379Y-845367D01*
X-803351Y-845395D01*
X-803323Y-845451D01*
X-803323Y845311D01*
X-803351Y845255D01*
X-803379Y845227D01*
X-803435Y845199D01*
X-803547Y845199D01*
X-803604Y845227D01*
X-845128Y-845423D02*
X-845325Y-845423D01*
X-845325Y845199D02*
X-845325Y-845142D01*
X-845044Y-845142D01*
X-844819Y845199D02*
X-844819Y-845339D01*
X-844819Y-845142D02*
X-844847Y-845171D01*
X-844819Y-845199D01*
X-844791Y-845171D01*
X-844819Y-845142D01*
X-844819Y-845199D01*
X-844454Y845199D02*
X-844510Y845227D01*
X-844538Y845283D01*
X-844538Y-845142D01*
X-844005Y845227D02*
X-844061Y845199D01*
X-844173Y845199D01*
X-844229Y845227D01*
X-844257Y845283D01*
X-844257Y-845423D01*
X-844229Y-845367D01*
X-844173Y-845339D01*
X-844061Y-845339D01*
X-844005Y-845367D01*
X-843976Y-845423D01*
X-843976Y845451D01*
X-844257Y845395D01*
X-843724Y845255D02*
X-843696Y845227D01*
X-843724Y845199D01*
X-843752Y845227D01*
X-843724Y845255D01*
X-843724Y845199D01*
X-843724Y-845367D02*
X-843696Y-845395D01*
X-843724Y-845423D01*
X-843752Y-845395D01*
X-843724Y-845367D01*
X-843724Y-845423D01*
G54D11*
X-845409Y-845142D02*
X-845072Y-845142D01*
X-845241Y845199D02*
X-845241Y-845142D01*
X-844876Y845199D02*
X-844876Y-845339D01*
X-844876Y-845142D02*
X-844904Y-845171D01*
X-844876Y-845199D01*
X-844847Y-845171D01*
X-844876Y-845142D01*
X-844876Y-845199D01*
X-844679Y-845339D02*
X-844454Y-845339D01*
X-844595Y-845142D02*
X-844595Y845283D01*
X-844566Y845227D01*
X-844510Y845199D01*
X-844454Y845199D01*
X-844173Y845199D02*
X-844229Y845227D01*
X-844257Y845283D01*
X-844257Y-845142D01*
X-843724Y845227D02*
X-843780Y845199D01*
X-843892Y845199D01*
X-843948Y845227D01*
X-843976Y845283D01*
X-843976Y-845423D01*
X-843948Y-845367D01*
X-843892Y-845339D01*
X-843780Y-845339D01*
X-843724Y-845367D01*
X-843696Y-845423D01*
X-843696Y845451D01*
X-843976Y845395D01*
X-843443Y845255D02*
X-843415Y845227D01*
X-843443Y845199D01*
X-843471Y845227D01*
X-843443Y845255D01*
X-843443Y845199D01*
X-843443Y-845367D02*
X-843415Y-845395D01*
X-843443Y-845423D01*
X-843471Y-845395D01*
X-843443Y-845367D01*
X-843443Y-845423D01*
X-842796Y-845142D02*
X-842459Y-845142D01*
X-842628Y845199D02*
X-842628Y-845142D01*
X-842263Y845199D02*
X-842263Y-845142D01*
X-842122Y-845142D01*
X-842038Y-845171D01*
X-841982Y-845227D01*
X-841954Y-845283D01*
X-841926Y-845395D01*
X-841926Y845451D01*
X-841954Y845339D01*
X-841982Y845283D01*
X-842038Y845227D01*
X-842122Y845199D01*
X-842263Y845199D01*
X-841336Y845255D02*
X-841364Y845227D01*
X-841448Y845199D01*
X-841504Y845199D01*
X-841588Y845227D01*
X-841645Y845283D01*
X-841673Y845339D01*
X-841701Y845451D01*
X-841701Y-845395D01*
X-841673Y-845283D01*
X-841645Y-845227D01*
X-841588Y-845171D01*
X-841504Y-845142D01*
X-841448Y-845142D01*
X-841364Y-845171D01*
X-841336Y-845199D01*
X-841111Y845227D02*
X-841026Y845199D01*
X-840886Y845199D01*
X-840830Y845227D01*
X-840802Y845255D01*
X-840774Y845311D01*
X-840774Y845367D01*
X-840802Y845423D01*
X-840830Y845451D01*
X-840886Y-845451D01*
X-840998Y-845423D01*
X-841055Y-845395D01*
X-841083Y-845367D01*
X-841111Y-845311D01*
X-841111Y-845255D01*
X-841083Y-845199D01*
X-841055Y-845171D01*
X-840998Y-845142D01*
X-840858Y-845142D01*
X-840774Y-845171D01*
X-840071Y845199D02*
X-840071Y-845142D01*
X-839931Y-845142D01*
X-839846Y-845171D01*
X-839790Y-845227D01*
X-839762Y-845283D01*
X-839734Y-845395D01*
X-839734Y845451D01*
X-839762Y845339D01*
X-839790Y845283D01*
X-839846Y845227D01*
X-839931Y845199D01*
X-840071Y845199D01*
X-839481Y845199D02*
X-839481Y-845339D01*
X-839481Y-845451D02*
X-839453Y-845395D01*
X-839425Y-845367D01*
X-839369Y-845339D01*
X-839313Y-845339D01*
X-839116Y845199D02*
X-839116Y-845339D01*
X-839116Y-845142D02*
X-839144Y-845171D01*
X-839116Y-845199D01*
X-839088Y-845171D01*
X-839116Y-845142D01*
X-839116Y-845199D01*
X-838891Y-845339D02*
X-838751Y845199D01*
X-838610Y-845339D01*
X-838161Y845227D02*
X-838217Y845199D01*
X-838329Y845199D01*
X-838386Y845227D01*
X-838414Y845283D01*
X-838414Y-845423D01*
X-838386Y-845367D01*
X-838329Y-845339D01*
X-838217Y-845339D01*
X-838161Y-845367D01*
X-838133Y-845423D01*
X-838133Y845451D01*
X-838414Y845395D01*
X-837880Y845199D02*
X-837880Y-845339D01*
X-837880Y-845451D02*
X-837852Y-845395D01*
X-837824Y-845367D01*
X-837767Y-845339D01*
X-837711Y-845339D01*
X-837486Y845227D02*
X-837486Y845199D01*
X-837515Y845142D01*
X-837543Y845114D01*
X-836784Y845199D02*
X-836784Y-845142D01*
X-836587Y845367D01*
X-836391Y-845142D01*
X-836391Y845199D01*
X-836110Y-845142D02*
X-836110Y845311D01*
X-836082Y845255D01*
X-836054Y845227D01*
X-835997Y845199D01*
X-835885Y845199D01*
X-835829Y845227D01*
X-835801Y845255D01*
X-835773Y845311D01*
X-835773Y-845142D01*
X-835548Y-845142D02*
X-835155Y845199D01*
X-835155Y-845142D02*
X-835548Y845199D01*
X-834227Y845199D02*
X-834227Y-845142D01*
X-834227Y845227D02*
X-834284Y845199D01*
X-834396Y845199D01*
X-834452Y845227D01*
X-834480Y845255D01*
X-834508Y845311D01*
X-834508Y-845451D01*
X-834480Y-845395D01*
X-834452Y-845367D01*
X-834396Y-845339D01*
X-834284Y-845339D01*
X-834227Y-845367D01*
X-833694Y845199D02*
X-833694Y-845423D01*
X-833722Y-845367D01*
X-833778Y-845339D01*
X-833890Y-845339D01*
X-833946Y-845367D01*
X-833694Y845227D02*
X-833750Y845199D01*
X-833890Y845199D01*
X-833946Y845227D01*
X-833975Y845283D01*
X-833975Y845339D01*
X-833946Y845395D01*
X-833890Y845423D01*
X-833750Y845423D01*
X-833694Y845451D01*
X-833160Y-845339D02*
X-833160Y845199D01*
X-833413Y-845339D02*
X-833413Y845283D01*
X-833385Y845227D01*
X-833328Y845199D01*
X-833244Y845199D01*
X-833188Y845227D01*
X-833160Y845255D01*
X-832626Y-845339D02*
X-832626Y845114D01*
X-832654Y845058D01*
X-832682Y845030D01*
X-832738Y845002D01*
X-832823Y845002D01*
X-832879Y845030D01*
X-832626Y845227D02*
X-832682Y845199D01*
X-832795Y845199D01*
X-832851Y845227D01*
X-832879Y845255D01*
X-832907Y845311D01*
X-832907Y-845451D01*
X-832879Y-845395D01*
X-832851Y-845367D01*
X-832795Y-845339D01*
X-832682Y-845339D01*
X-832626Y-845367D01*
X-832429Y-845339D02*
X-832205Y-845339D01*
X-832345Y-845142D02*
X-832345Y845283D01*
X-832317Y845227D01*
X-832261Y845199D01*
X-832205Y845199D01*
X-832008Y845199D02*
X-832008Y-845142D01*
X-831755Y845199D02*
X-831755Y-845423D01*
X-831783Y-845367D01*
X-831839Y-845339D01*
X-831924Y-845339D01*
X-831980Y-845367D01*
X-832008Y-845395D01*
X-831249Y845227D02*
X-831306Y845199D01*
X-831418Y845199D01*
X-831474Y845227D01*
X-831502Y845283D01*
X-831502Y-845423D01*
X-831474Y-845367D01*
X-831418Y-845339D01*
X-831306Y-845339D01*
X-831249Y-845367D01*
X-831221Y-845423D01*
X-831221Y845451D01*
X-831502Y845395D01*
X-830968Y845199D02*
X-830968Y-845339D01*
X-830968Y-845451D02*
X-830940Y-845395D01*
X-830912Y-845367D01*
X-830856Y-845339D01*
X-830800Y-845339D01*
X-830603Y845199D02*
X-830603Y-845142D01*
X-830603Y-845367D02*
X-830547Y-845339D01*
X-830435Y-845339D01*
X-830378Y-845367D01*
X-830350Y-845395D01*
X-830322Y-845451D01*
X-830322Y845311D01*
X-830350Y845255D01*
X-830378Y845227D01*
X-830435Y845199D01*
X-830547Y845199D01*
X-830603Y845227D01*
X-829985Y845199D02*
X-830041Y845227D01*
X-830069Y845255D01*
X-830097Y845311D01*
X-830097Y-845451D01*
X-830069Y-845395D01*
X-830041Y-845367D01*
X-829985Y-845339D01*
X-829901Y-845339D01*
X-829845Y-845367D01*
X-829816Y-845395D01*
X-829788Y-845451D01*
X-829788Y845311D01*
X-829816Y845255D01*
X-829845Y845227D01*
X-829901Y845199D01*
X-829985Y845199D01*
X-829283Y845199D02*
X-829283Y-845423D01*
X-829311Y-845367D01*
X-829367Y-845339D01*
X-829479Y-845339D01*
X-829536Y-845367D01*
X-829283Y845227D02*
X-829339Y845199D01*
X-829479Y845199D01*
X-829536Y845227D01*
X-829564Y845283D01*
X-829564Y845339D01*
X-829536Y845395D01*
X-829479Y845423D01*
X-829339Y845423D01*
X-829283Y845451D01*
X-829002Y845199D02*
X-829002Y-845339D01*
X-829002Y-845451D02*
X-828974Y-845395D01*
X-828946Y-845367D01*
X-828889Y-845339D01*
X-828833Y-845339D01*
X-828384Y845199D02*
X-828384Y-845142D01*
X-828384Y845227D02*
X-828440Y845199D01*
X-828552Y845199D01*
X-828608Y845227D01*
X-828636Y845255D01*
X-828665Y845311D01*
X-828665Y-845451D01*
X-828636Y-845395D01*
X-828608Y-845367D01*
X-828552Y-845339D01*
X-828440Y-845339D01*
X-828384Y-845367D01*
G54D10*
X-845325Y845199D02*
X-845325Y-845142D01*
X-844791Y845199D02*
X-844791Y-845142D01*
X-844791Y845227D02*
X-844847Y845199D01*
X-844960Y845199D01*
X-845016Y845227D01*
X-845044Y845255D01*
X-845072Y845311D01*
X-845072Y-845451D01*
X-845044Y-845395D01*
X-845016Y-845367D01*
X-844960Y-845339D01*
X-844847Y-845339D01*
X-844791Y-845367D01*
X-844510Y845255D02*
X-844482Y845227D01*
X-844510Y845199D01*
X-844538Y845227D01*
X-844510Y845255D01*
X-844510Y845199D01*
X-844510Y-845367D02*
X-844482Y-845395D01*
X-844510Y-845423D01*
X-844538Y-845395D01*
X-844510Y-845367D01*
X-844510Y-845423D01*
X-843471Y845199D02*
X-843808Y845199D01*
X-843639Y845199D02*
X-843639Y-845142D01*
X-843696Y-845227D01*
X-843752Y-845283D01*
X-843808Y-845311D01*
X-842796Y-845114D02*
X-843302Y845058D01*
X-842291Y845199D02*
X-842628Y845199D01*
X-842459Y845199D02*
X-842459Y-845142D01*
X-842516Y-845227D01*
X-842572Y-845283D01*
X-842628Y-845311D01*
X-845353Y845227D02*
X-845269Y845199D01*
X-845128Y845199D01*
X-845072Y845227D01*
X-845044Y845255D01*
X-845016Y845311D01*
X-845016Y845367D01*
X-845044Y845423D01*
X-845072Y845451D01*
X-845128Y-845451D01*
X-845241Y-845423D01*
X-845297Y-845395D01*
X-845325Y-845367D01*
X-845353Y-845311D01*
X-845353Y-845255D01*
X-845325Y-845199D01*
X-845297Y-845171D01*
X-845241Y-845142D01*
X-845100Y-845142D01*
X-845016Y-845171D01*
X-844763Y845199D02*
X-844763Y-845339D01*
X-844763Y-845142D02*
X-844791Y-845171D01*
X-844763Y-845199D01*
X-844735Y-845171D01*
X-844763Y-845142D01*
X-844763Y-845199D01*
X-844538Y-845339D02*
X-844229Y-845339D01*
X-844538Y845199D01*
X-844229Y845199D01*
X-843780Y845227D02*
X-843836Y845199D01*
X-843948Y845199D01*
X-844005Y845227D01*
X-844033Y845283D01*
X-844033Y-845423D01*
X-844005Y-845367D01*
X-843948Y-845339D01*
X-843836Y-845339D01*
X-843780Y-845367D01*
X-843752Y-845423D01*
X-843752Y845451D01*
X-844033Y845395D01*
X-843499Y845255D02*
X-843471Y845227D01*
X-843499Y845199D01*
X-843527Y845227D01*
X-843499Y845255D01*
X-843499Y845199D01*
X-843499Y-845367D02*
X-843471Y-845395D01*
X-843499Y-845423D01*
X-843527Y-845395D01*
X-843499Y-845367D01*
X-843499Y-845423D01*
X-842768Y-845142D02*
X-842768Y845311D01*
X-842740Y845255D01*
X-842712Y845227D01*
X-842656Y845199D01*
X-842544Y845199D01*
X-842487Y845227D01*
X-842459Y845255D01*
X-842431Y845311D01*
X-842431Y-845142D01*
X-842178Y845227D02*
X-842094Y845199D01*
X-841954Y845199D01*
X-841897Y845227D01*
X-841869Y845255D01*
X-841841Y845311D01*
X-841841Y845367D01*
X-841869Y845423D01*
X-841897Y845451D01*
X-841954Y-845451D01*
X-842066Y-845423D01*
X-842122Y-845395D01*
X-842150Y-845367D01*
X-842178Y-845311D01*
X-842178Y-845255D01*
X-842150Y-845199D01*
X-842122Y-845171D01*
X-842066Y-845142D01*
X-841926Y-845142D01*
X-841841Y-845171D01*
X-841307Y845199D02*
X-841588Y845199D01*
X-841588Y-845142D01*
X-840886Y845227D02*
X-840942Y845199D01*
X-841055Y845199D01*
X-841111Y845227D01*
X-841139Y845283D01*
X-841139Y-845423D01*
X-841111Y-845367D01*
X-841055Y-845339D01*
X-840942Y-845339D01*
X-840886Y-845367D01*
X-840858Y-845423D01*
X-840858Y845451D01*
X-841139Y845395D01*
X-840689Y-845339D02*
X-840465Y-845339D01*
X-840605Y-845142D02*
X-840605Y845283D01*
X-840577Y845227D01*
X-840521Y845199D01*
X-840465Y845199D01*
X-840352Y-845339D02*
X-840127Y-845339D01*
X-840268Y-845142D02*
X-840268Y845283D01*
X-840240Y845227D01*
X-840184Y845199D01*
X-840127Y845199D01*
X-839706Y845227D02*
X-839762Y845199D01*
X-839875Y845199D01*
X-839931Y845227D01*
X-839959Y845283D01*
X-839959Y-845423D01*
X-839931Y-845367D01*
X-839875Y-845339D01*
X-839762Y-845339D01*
X-839706Y-845367D01*
X-839678Y-845423D01*
X-839678Y845451D01*
X-839959Y845395D01*
X-839425Y845199D02*
X-839425Y-845339D01*
X-839425Y-845451D02*
X-839397Y-845395D01*
X-839369Y-845367D01*
X-839313Y-845339D01*
X-839256Y-845339D01*
G54D11*
X-844988Y845199D02*
X-845185Y-845451D01*
X-845325Y845199D02*
X-845325Y-845142D01*
X-845100Y-845142D01*
X-845044Y-845171D01*
X-845016Y-845199D01*
X-844988Y-845255D01*
X-844988Y-845339D01*
X-845016Y-845395D01*
X-845044Y-845423D01*
X-845100Y-845451D01*
X-845325Y-845451D01*
X-844510Y845227D02*
X-844566Y845199D01*
X-844679Y845199D01*
X-844735Y845227D01*
X-844763Y845283D01*
X-844763Y-845423D01*
X-844735Y-845367D01*
X-844679Y-845339D01*
X-844566Y-845339D01*
X-844510Y-845367D01*
X-844482Y-845423D01*
X-844482Y845451D01*
X-844763Y845395D01*
X-844286Y-845339D02*
X-844145Y845199D01*
X-844005Y-845339D01*
X-843780Y845255D02*
X-843752Y845227D01*
X-843780Y845199D01*
X-843808Y845227D01*
X-843780Y845255D01*
X-843780Y845199D01*
X-843780Y-845367D02*
X-843752Y-845395D01*
X-843780Y-845423D01*
X-843808Y-845395D01*
X-843780Y-845367D01*
X-843780Y-845423D01*
X-842740Y845199D02*
X-843077Y845199D01*
X-842909Y845199D02*
X-842909Y-845142D01*
X-842965Y-845227D01*
X-843021Y-845283D01*
X-843077Y-845311D01*
X-842487Y845255D02*
X-842459Y845227D01*
X-842487Y845199D01*
X-842516Y845227D01*
X-842487Y845255D01*
X-842487Y845199D01*
X-842235Y845367D02*
X-841954Y845367D01*
X-842291Y845199D02*
X-842094Y-845142D01*
X-841897Y845199D01*
G54D10*
X-845325Y845199D02*
X-845325Y-845142D01*
X-844988Y845199D02*
X-845241Y-845395D01*
X-844988Y-845142D02*
X-845325Y845451D01*
X-844735Y845199D02*
X-844735Y-845339D01*
X-844735Y-845142D02*
X-844763Y-845171D01*
X-844735Y-845199D01*
X-844707Y-845171D01*
X-844735Y-845142D01*
X-844735Y-845199D01*
X-844117Y845255D02*
X-844145Y845227D01*
X-844229Y845199D01*
X-844286Y845199D01*
X-844370Y845227D01*
X-844426Y845283D01*
X-844454Y845339D01*
X-844482Y845451D01*
X-844482Y-845395D01*
X-844454Y-845283D01*
X-844426Y-845227D01*
X-844370Y-845171D01*
X-844286Y-845142D01*
X-844229Y-845142D01*
X-844145Y-845171D01*
X-844117Y-845199D01*
X-843611Y845199D02*
X-843611Y-845423D01*
X-843639Y-845367D01*
X-843696Y-845339D01*
X-843808Y-845339D01*
X-843864Y-845367D01*
X-843611Y845227D02*
X-843667Y845199D01*
X-843808Y845199D01*
X-843864Y845227D01*
X-843892Y845283D01*
X-843892Y845339D01*
X-843864Y845395D01*
X-843808Y845423D01*
X-843667Y845423D01*
X-843611Y845451D01*
X-843077Y845199D02*
X-843077Y-845142D01*
X-843077Y845227D02*
X-843134Y845199D01*
X-843246Y845199D01*
X-843302Y845227D01*
X-843330Y845255D01*
X-843358Y845311D01*
X-843358Y-845451D01*
X-843330Y-845395D01*
X-843302Y-845367D01*
X-843246Y-845339D01*
X-843134Y-845339D01*
X-843077Y-845367D01*
X-842347Y-845423D02*
X-842150Y-845423D01*
X-842066Y845199D02*
X-842347Y845199D01*
X-842347Y-845142D01*
X-842066Y-845142D01*
X-841813Y845255D02*
X-841785Y845227D01*
X-841813Y845199D01*
X-841841Y845227D01*
X-841813Y845255D01*
X-841813Y845199D01*
X-841532Y845199D02*
X-841532Y-845142D01*
X-841392Y-845142D01*
X-841307Y-845171D01*
X-841251Y-845227D01*
X-841223Y-845283D01*
X-841195Y-845395D01*
X-841195Y845451D01*
X-841223Y845339D01*
X-841251Y845283D01*
X-841307Y845227D01*
X-841392Y845199D01*
X-841532Y845199D01*
X-840942Y845255D02*
X-840914Y845227D01*
X-840942Y845199D01*
X-840970Y845227D01*
X-840942Y845255D01*
X-840942Y845199D01*
X-840689Y845367D02*
X-840408Y845367D01*
X-840746Y845199D02*
X-840549Y-845142D01*
X-840352Y845199D01*
X-840156Y845255D02*
X-840127Y845227D01*
X-840156Y845199D01*
X-840184Y845227D01*
X-840156Y845255D01*
X-840156Y845199D01*
X-838976Y-845339D02*
X-838976Y845002D01*
X-838976Y-845367D02*
X-838919Y-845339D01*
X-838807Y-845339D01*
X-838751Y-845367D01*
X-838723Y-845395D01*
X-838695Y-845451D01*
X-838695Y845311D01*
X-838723Y845255D01*
X-838751Y845227D01*
X-838807Y845199D01*
X-838919Y845199D01*
X-838976Y845227D01*
X-838189Y845227D02*
X-838245Y845199D01*
X-838357Y845199D01*
X-838414Y845227D01*
X-838442Y845255D01*
X-838470Y845311D01*
X-838470Y-845451D01*
X-838442Y-845395D01*
X-838414Y-845367D01*
X-838357Y-845339D01*
X-838245Y-845339D01*
X-838189Y-845367D01*
X-837936Y845199D02*
X-837936Y-845142D01*
X-837936Y-845367D02*
X-837880Y-845339D01*
X-837767Y-845339D01*
X-837711Y-845367D01*
X-837683Y-845395D01*
X-837655Y-845451D01*
X-837655Y845311D01*
X-837683Y845255D01*
X-837711Y845227D01*
X-837767Y845199D01*
X-837880Y845199D01*
X-837936Y845227D01*
X-837402Y-845339D02*
X-837402Y845199D01*
X-837402Y-845395D02*
X-837374Y-845367D01*
X-837318Y-845339D01*
X-837234Y-845339D01*
X-837177Y-845367D01*
X-837149Y-845423D01*
X-837149Y845199D01*
X-836644Y845227D02*
X-836700Y845199D01*
X-836812Y845199D01*
X-836868Y845227D01*
X-836896Y845283D01*
X-836896Y-845423D01*
X-836868Y-845367D01*
X-836812Y-845339D01*
X-836700Y-845339D01*
X-836644Y-845367D01*
X-836616Y-845423D01*
X-836616Y845451D01*
X-836896Y845395D01*
X-836419Y-845339D02*
X-836306Y845199D01*
X-836194Y-845451D01*
X-836082Y845199D01*
X-835969Y-845339D01*
X-835126Y844974D02*
X-835155Y845002D01*
X-835211Y845086D01*
X-835239Y845142D01*
X-835267Y845227D01*
X-835295Y845367D01*
X-835295Y-845451D01*
X-835267Y-845311D01*
X-835239Y-845227D01*
X-835211Y-845171D01*
X-835155Y-845086D01*
X-835126Y-845058D01*
X-834930Y-845199D02*
X-834902Y-845171D01*
X-834846Y-845142D01*
X-834705Y-845142D01*
X-834649Y-845171D01*
X-834621Y-845199D01*
X-834593Y-845255D01*
X-834593Y-845311D01*
X-834621Y-845395D01*
X-834958Y845199D01*
X-834593Y845199D01*
X-834227Y-845142D02*
X-834171Y-845142D01*
X-834115Y-845171D01*
X-834087Y-845199D01*
X-834059Y-845255D01*
X-834031Y-845367D01*
X-834031Y845423D01*
X-834059Y845311D01*
X-834087Y845255D01*
X-834115Y845227D01*
X-834171Y845199D01*
X-834227Y845199D01*
X-834284Y845227D01*
X-834312Y845255D01*
X-834340Y845311D01*
X-834368Y845423D01*
X-834368Y-845367D01*
X-834340Y-845255D01*
X-834312Y-845199D01*
X-834284Y-845171D01*
X-834227Y-845142D01*
X-833469Y845199D02*
X-833806Y845199D01*
X-833637Y845199D02*
X-833637Y-845142D01*
X-833694Y-845227D01*
X-833750Y-845283D01*
X-833806Y-845311D01*
X-833272Y-845142D02*
X-832907Y-845142D01*
X-833104Y-845367D01*
X-833019Y-845367D01*
X-832963Y-845395D01*
X-832935Y-845423D01*
X-832907Y845451D01*
X-832907Y845311D01*
X-832935Y845255D01*
X-832963Y845227D01*
X-833019Y845199D01*
X-833188Y845199D01*
X-833244Y845227D01*
X-833272Y845255D01*
X-832654Y845423D02*
X-832205Y845423D01*
X-831924Y845199D02*
X-831924Y-845339D01*
X-831924Y-845395D02*
X-831896Y-845367D01*
X-831839Y-845339D01*
X-831755Y-845339D01*
X-831699Y-845367D01*
X-831671Y-845423D01*
X-831671Y845199D01*
X-831671Y-845423D02*
X-831643Y-845367D01*
X-831586Y-845339D01*
X-831502Y-845339D01*
X-831446Y-845367D01*
X-831418Y-845423D01*
X-831418Y845199D01*
X-830884Y845199D02*
X-830884Y-845423D01*
X-830912Y-845367D01*
X-830968Y-845339D01*
X-831081Y-845339D01*
X-831137Y-845367D01*
X-830884Y845227D02*
X-830940Y845199D01*
X-831081Y845199D01*
X-831137Y845227D01*
X-831165Y845283D01*
X-831165Y845339D01*
X-831137Y845395D01*
X-831081Y845423D01*
X-830940Y845423D01*
X-830884Y845451D01*
X-830603Y845199D02*
X-830603Y-845339D01*
X-830603Y-845451D02*
X-830575Y-845395D01*
X-830547Y-845367D01*
X-830491Y-845339D01*
X-830435Y-845339D01*
X-830238Y845423D02*
X-829788Y845423D01*
X-829198Y845199D02*
X-829536Y845199D01*
X-829367Y845199D02*
X-829367Y-845142D01*
X-829423Y-845227D01*
X-829479Y-845283D01*
X-829536Y-845311D01*
X-829002Y-845142D02*
X-828636Y-845142D01*
X-828833Y-845367D01*
X-828749Y-845367D01*
X-828693Y-845395D01*
X-828665Y-845423D01*
X-828636Y845451D01*
X-828636Y845311D01*
X-828665Y845255D01*
X-828693Y845227D01*
X-828749Y845199D01*
X-828917Y845199D01*
X-828974Y845227D01*
X-829002Y845255D01*
X-828440Y844974D02*
X-828412Y845002D01*
X-828356Y845086D01*
X-828327Y845142D01*
X-828299Y845227D01*
X-828271Y845367D01*
X-828271Y-845451D01*
X-828299Y-845311D01*
X-828327Y-845227D01*
X-828356Y-845171D01*
X-828412Y-845086D01*
X-828440Y-845058D01*
X-827990Y845423D02*
X-827541Y845423D01*
X-827344Y-845339D02*
X-827119Y-845339D01*
X-827260Y-845142D02*
X-827260Y845283D01*
X-827232Y845227D01*
X-827176Y845199D01*
X-827119Y845199D01*
X-826698Y845227D02*
X-826754Y845199D01*
X-826866Y845199D01*
X-826923Y845227D01*
X-826951Y845283D01*
X-826951Y-845423D01*
X-826923Y-845367D01*
X-826866Y-845339D01*
X-826754Y-845339D01*
X-826698Y-845367D01*
X-826670Y-845423D01*
X-826670Y845451D01*
X-826951Y845395D01*
X-826445Y845227D02*
X-826389Y845199D01*
X-826276Y845199D01*
X-826220Y845227D01*
X-826192Y845283D01*
X-826192Y845311D01*
X-826220Y845367D01*
X-826276Y845395D01*
X-826361Y845395D01*
X-826417Y845423D01*
X-826445Y-845451D01*
X-826445Y-845423D01*
X-826417Y-845367D01*
X-826361Y-845339D01*
X-826276Y-845339D01*
X-826220Y-845367D01*
X-826024Y-845339D02*
X-825799Y-845339D01*
X-825939Y-845142D02*
X-825939Y845283D01*
X-825911Y845227D01*
X-825855Y845199D01*
X-825799Y845199D01*
X-825602Y845199D02*
X-825602Y-845339D01*
X-825602Y-845142D02*
X-825630Y-845171D01*
X-825602Y-845199D01*
X-825574Y-845171D01*
X-825602Y-845142D01*
X-825602Y-845199D01*
X-825321Y-845339D02*
X-825321Y845199D01*
X-825321Y-845395D02*
X-825293Y-845367D01*
X-825237Y-845339D01*
X-825153Y-845339D01*
X-825096Y-845367D01*
X-825068Y-845423D01*
X-825068Y845199D01*
X-824535Y-845339D02*
X-824535Y845114D01*
X-824563Y845058D01*
X-824591Y845030D01*
X-824647Y845002D01*
X-824731Y845002D01*
X-824787Y845030D01*
X-824535Y845227D02*
X-824591Y845199D01*
X-824703Y845199D01*
X-824759Y845227D01*
X-824787Y845255D01*
X-824816Y845311D01*
X-824816Y-845451D01*
X-824787Y-845395D01*
X-824759Y-845367D01*
X-824703Y-845339D01*
X-824591Y-845339D01*
X-824535Y-845367D01*
X-845325Y845199D02*
X-845325Y-845142D01*
X-845185Y-845142D01*
X-845100Y-845171D01*
X-845044Y-845227D01*
X-845016Y-845283D01*
X-844988Y-845395D01*
X-844988Y845451D01*
X-845016Y845339D01*
X-845044Y845283D01*
X-845100Y845227D01*
X-845185Y845199D01*
X-845325Y845199D01*
X-844482Y845199D02*
X-844482Y-845423D01*
X-844510Y-845367D01*
X-844566Y-845339D01*
X-844679Y-845339D01*
X-844735Y-845367D01*
X-844482Y845227D02*
X-844538Y845199D01*
X-844679Y845199D01*
X-844735Y845227D01*
X-844763Y845283D01*
X-844763Y845339D01*
X-844735Y845395D01*
X-844679Y845423D01*
X-844538Y845423D01*
X-844482Y845451D01*
X-844286Y-845339D02*
X-844061Y-845339D01*
X-844201Y-845142D02*
X-844201Y845283D01*
X-844173Y845227D01*
X-844117Y845199D01*
X-844061Y845199D01*
X-843639Y845227D02*
X-843696Y845199D01*
X-843808Y845199D01*
X-843864Y845227D01*
X-843892Y845283D01*
X-843892Y-845423D01*
X-843864Y-845367D01*
X-843808Y-845339D01*
X-843696Y-845339D01*
X-843639Y-845367D01*
X-843611Y-845423D01*
X-843611Y845451D01*
X-843892Y845395D01*
X-843358Y845255D02*
X-843330Y845227D01*
X-843358Y845199D01*
X-843386Y845227D01*
X-843358Y845255D01*
X-843358Y845199D01*
X-843358Y-845367D02*
X-843330Y-845395D01*
X-843358Y-845423D01*
X-843386Y-845395D01*
X-843358Y-845367D01*
X-843358Y-845423D01*
X-842516Y-845142D02*
X-842459Y-845142D01*
X-842403Y-845171D01*
X-842375Y-845199D01*
X-842347Y-845255D01*
X-842319Y-845367D01*
X-842319Y845423D01*
X-842347Y845311D01*
X-842375Y845255D01*
X-842403Y845227D01*
X-842459Y845199D01*
X-842516Y845199D01*
X-842572Y845227D01*
X-842600Y845255D01*
X-842628Y845311D01*
X-842656Y845423D01*
X-842656Y-845367D01*
X-842628Y-845255D01*
X-842600Y-845199D01*
X-842572Y-845171D01*
X-842516Y-845142D01*
X-842122Y-845142D02*
X-841757Y-845142D01*
X-841954Y-845367D01*
X-841869Y-845367D01*
X-841813Y-845395D01*
X-841785Y-845423D01*
X-841757Y845451D01*
X-841757Y845311D01*
X-841785Y845255D01*
X-841813Y845227D01*
X-841869Y845199D01*
X-842038Y845199D01*
X-842094Y845227D01*
X-842122Y845255D01*
X-841083Y-845114D02*
X-841588Y845058D01*
X-840774Y-845142D02*
X-840717Y-845142D01*
X-840661Y-845171D01*
X-840633Y-845199D01*
X-840605Y-845255D01*
X-840577Y-845367D01*
X-840577Y845423D01*
X-840605Y845311D01*
X-840633Y845255D01*
X-840661Y845227D01*
X-840717Y845199D01*
X-840774Y845199D01*
X-840830Y845227D01*
X-840858Y845255D01*
X-840886Y845311D01*
X-840914Y845423D01*
X-840914Y-845367D01*
X-840886Y-845255D01*
X-840858Y-845199D01*
X-840830Y-845171D01*
X-840774Y-845142D01*
X-840015Y845199D02*
X-840352Y845199D01*
X-840184Y845199D02*
X-840184Y-845142D01*
X-840240Y-845227D01*
X-840296Y-845283D01*
X-840352Y-845311D01*
X-839341Y-845114D02*
X-839846Y845058D01*
X-839172Y-845199D02*
X-839144Y-845171D01*
X-839088Y-845142D01*
X-838947Y-845142D01*
X-838891Y-845171D01*
X-838863Y-845199D01*
X-838835Y-845255D01*
X-838835Y-845311D01*
X-838863Y-845395D01*
X-839200Y845199D01*
X-838835Y845199D01*
X-838470Y-845142D02*
X-838414Y-845142D01*
X-838357Y-845171D01*
X-838329Y-845199D01*
X-838301Y-845255D01*
X-838273Y-845367D01*
X-838273Y845423D01*
X-838301Y845311D01*
X-838329Y845255D01*
X-838357Y845227D01*
X-838414Y845199D01*
X-838470Y845199D01*
X-838526Y845227D01*
X-838554Y845255D01*
X-838582Y845311D01*
X-838610Y845423D01*
X-838610Y-845367D01*
X-838582Y-845255D01*
X-838554Y-845199D01*
X-838526Y-845171D01*
X-838470Y-845142D01*
X-837711Y845199D02*
X-838048Y845199D01*
X-837880Y845199D02*
X-837880Y-845142D01*
X-837936Y-845227D01*
X-837992Y-845283D01*
X-838048Y-845311D01*
X-837206Y-845339D02*
X-837206Y845199D01*
X-837346Y-845114D02*
X-837486Y845395D01*
X-837121Y845395D01*
X-845466Y845466D02*
X-845466Y845466D01*
X-845466Y845466D02*
X-845466Y845466D01*
X-845466Y845466D02*
X-845466Y845466D01*
G54D12*
X87303Y-45314D02*
X87696Y-45314D01*
X87303Y-44685D02*
X87696Y-44685D01*
X87696Y-50685D02*
X87303Y-50685D01*
X87696Y-51314D02*
X87303Y-51314D01*
X83196Y-50685D02*
X82803Y-50685D01*
X83196Y-51314D02*
X82803Y-51314D01*
X83196Y-44685D02*
X82803Y-44685D01*
X83196Y-45314D02*
X82803Y-45314D01*
G54D13*
X86529Y-52023D02*
X86726Y-52023D01*
X86726Y-52023D02*
X86726Y-52220D01*
X83970Y-52023D02*
X83773Y-52023D01*
X83773Y-52023D02*
X83773Y-52220D01*
X86726Y-54976D02*
X86844Y-55094D01*
X86529Y-54976D02*
X86726Y-54976D01*
X86726Y-54976D02*
X86726Y-54779D01*
X83970Y-54976D02*
X83773Y-54976D01*
X83773Y-54976D02*
X83773Y-54779D01*
X83970Y-43976D02*
X83773Y-43976D01*
X83773Y-43976D02*
X83773Y-43779D01*
X86529Y-43976D02*
X86726Y-43976D01*
X86726Y-43976D02*
X86726Y-43779D01*
X83773Y-41023D02*
X83655Y-40905D01*
X83970Y-41023D02*
X83773Y-41023D01*
X83773Y-41023D02*
X83773Y-41220D01*
X86529Y-41023D02*
X86726Y-41023D01*
X86726Y-41023D02*
X86726Y-41220D01*
X76550Y-46700D02*
X76350Y-46500D01*
X76550Y-47200D02*
X76550Y-46700D01*
X76550Y-46700D02*
X77050Y-46700D01*
X77050Y-49200D02*
X76550Y-49200D01*
X76550Y-49200D02*
X76550Y-48700D01*
X81950Y-48800D02*
X81950Y-49300D01*
X81950Y-49300D02*
X81450Y-49300D01*
X81450Y-46800D02*
X81950Y-46800D01*
X81950Y-46800D02*
X81950Y-47300D01*
X88550Y-46700D02*
X88350Y-46500D01*
X88550Y-47200D02*
X88550Y-46700D01*
X88550Y-46700D02*
X89050Y-46700D01*
X89050Y-49200D02*
X88550Y-49200D01*
X88550Y-49200D02*
X88550Y-48700D01*
X93950Y-48800D02*
X93950Y-49300D01*
X93950Y-49300D02*
X93450Y-49300D01*
X93450Y-46800D02*
X93950Y-46800D01*
X93950Y-46800D02*
X93950Y-47300D01*
X85053Y-46917D02*
X85446Y-46917D01*
X85053Y-49082D02*
X85446Y-49082D01*
X83557Y-46897D02*
X83399Y-46740D01*
X83576Y-47212D02*
X83576Y-46917D01*
X83576Y-46917D02*
X83872Y-46917D01*
X83872Y-49082D02*
X83576Y-49082D01*
X83576Y-49082D02*
X83576Y-48787D01*
X86923Y-48787D02*
X86923Y-49082D01*
X86923Y-49082D02*
X86627Y-49082D01*
X86923Y-46917D02*
X86923Y-47212D01*
X86627Y-46917D02*
X86923Y-46917D01*
X94100Y-43250D02*
X94000Y-43150D01*
X94100Y-43250D02*
X94300Y-43250D01*
X94100Y-43250D02*
X94100Y-43450D01*
X94100Y-45250D02*
X94100Y-45050D01*
X94100Y-45250D02*
X94300Y-45250D01*
X96400Y-45050D02*
X96400Y-45250D01*
X96400Y-45250D02*
X96200Y-45250D01*
X96400Y-43450D02*
X96400Y-43250D01*
X96400Y-43250D02*
X96200Y-43250D01*
X94100Y-50750D02*
X94000Y-50650D01*
X94100Y-50750D02*
X94300Y-50750D01*
X94100Y-50750D02*
X94100Y-50950D01*
X94100Y-52750D02*
X94100Y-52550D01*
X94100Y-52750D02*
X94300Y-52750D01*
X96400Y-52550D02*
X96400Y-52750D01*
X96400Y-52750D02*
X96200Y-52750D01*
X96400Y-50950D02*
X96400Y-50750D01*
X96400Y-50750D02*
X96200Y-50750D01*
X89108Y-58015D02*
X89108Y-63035D01*
X96391Y-59984D02*
X95309Y-59984D01*
X96391Y-58015D02*
X96391Y-63035D01*
X74108Y-58015D02*
X74108Y-63035D01*
X81391Y-59984D02*
X80309Y-59984D01*
X81391Y-58015D02*
X81391Y-63035D01*
X96391Y-37984D02*
X96391Y-32964D01*
X89108Y-36015D02*
X90190Y-36015D01*
X89108Y-37984D02*
X89108Y-32964D01*
X81391Y-37984D02*
X81391Y-32964D01*
X74108Y-36015D02*
X75190Y-36015D01*
X74108Y-37984D02*
X74108Y-32964D01*
X87000Y-37000D02*
X87000Y-38000D01*
X87000Y-38000D02*
X86500Y-38000D01*
X83900Y-38000D02*
X83900Y-38500D01*
X83400Y-38000D02*
X83400Y-37000D01*
X83400Y-38000D02*
X83900Y-38000D01*
X83400Y-33000D02*
X83400Y-34000D01*
X83400Y-33000D02*
X84400Y-33000D01*
X86000Y-33000D02*
X87000Y-33000D01*
X87000Y-33000D02*
X87000Y-34000D01*
X83450Y-59000D02*
X83450Y-58000D01*
X83450Y-58000D02*
X83950Y-58000D01*
X86550Y-58000D02*
X86550Y-57500D01*
X87050Y-58000D02*
X87050Y-59000D01*
X87050Y-58000D02*
X86550Y-58000D01*
X87050Y-63000D02*
X87050Y-62000D01*
X87050Y-63000D02*
X86050Y-63000D01*
X84450Y-63000D02*
X83450Y-63000D01*
X83450Y-63000D02*
X83450Y-62000D01*
X96397Y-47492D02*
G75*
G02X96265Y-47000I852J492D01*
G74*
G01*
X96397Y-46507D02*
G75*
G03X96265Y-47000I852J-492D01*
G74*
G01*
X98234Y-47000D02*
X98529Y-47000D01*
X98102Y-46507D02*
G75*
G02X98234Y-47000I-852J-492D01*
G74*
G01*
X98102Y-47492D02*
G75*
G03X98234Y-47000I-852J492D01*
G74*
G01*
X98102Y-48757D02*
G75*
G02X98234Y-49250I-852J-492D01*
G74*
G01*
X98102Y-49742D02*
G75*
G03X98234Y-49250I-852J492D01*
G74*
G01*
X96265Y-49250D02*
X95970Y-49250D01*
X96397Y-49742D02*
G75*
G02X96265Y-49250I852J492D01*
G74*
G01*
X96397Y-48757D02*
G75*
G03X96265Y-49250I852J-492D01*
G74*
G01*
G54D12*
X88683Y-45142D02*
X88664Y-45161D01*
X88607Y-45180D01*
X88569Y-45180D01*
X88511Y-45161D01*
X88473Y-45123D01*
X88454Y-45085D01*
X88435Y-45009D01*
X88435Y-44952D01*
X88454Y-44876D01*
X88473Y-44838D01*
X88511Y-44800D01*
X88569Y-44780D01*
X88607Y-44780D01*
X88664Y-44800D01*
X88683Y-44819D01*
X89064Y-45180D02*
X88835Y-45180D01*
X88950Y-45180D02*
X88950Y-44780D01*
X88911Y-44838D01*
X88873Y-44876D01*
X88835Y-44895D01*
X87111Y-45574D02*
X87141Y-45574D01*
X87172Y-45590D01*
X87187Y-45605D01*
X87202Y-45635D01*
X87218Y-45696D01*
X87218Y-45772D01*
X87202Y-45833D01*
X87187Y-45864D01*
X87172Y-45879D01*
X87141Y-45894D01*
X87111Y-45894D01*
X87080Y-45879D01*
X87065Y-45864D01*
X87050Y-45833D01*
X87035Y-45772D01*
X87035Y-45696D01*
X87050Y-45635D01*
X87065Y-45605D01*
X87080Y-45590D01*
X87111Y-45574D01*
X87355Y-45864D02*
X87370Y-45879D01*
X87355Y-45894D01*
X87340Y-45879D01*
X87355Y-45864D01*
X87355Y-45894D01*
X87675Y-45894D02*
X87492Y-45894D01*
X87583Y-45894D02*
X87583Y-45574D01*
X87553Y-45620D01*
X87522Y-45650D01*
X87492Y-45666D01*
X87949Y-45681D02*
X87949Y-45894D01*
X87812Y-45681D02*
X87812Y-45849D01*
X87827Y-45879D01*
X87858Y-45894D01*
X87903Y-45894D01*
X87934Y-45879D01*
X87949Y-45864D01*
X88742Y-51142D02*
X88723Y-51161D01*
X88666Y-51180D01*
X88628Y-51180D01*
X88571Y-51161D01*
X88533Y-51123D01*
X88514Y-51085D01*
X88495Y-51009D01*
X88495Y-50952D01*
X88514Y-50876D01*
X88533Y-50838D01*
X88571Y-50800D01*
X88628Y-50780D01*
X88666Y-50780D01*
X88723Y-50800D01*
X88742Y-50819D01*
X89123Y-51180D02*
X88895Y-51180D01*
X89009Y-51180D02*
X89009Y-50780D01*
X88971Y-50838D01*
X88933Y-50876D01*
X88895Y-50895D01*
X89371Y-50780D02*
X89409Y-50780D01*
X89447Y-50800D01*
X89466Y-50819D01*
X89485Y-50857D01*
X89504Y-50933D01*
X89504Y-51028D01*
X89485Y-51104D01*
X89466Y-51142D01*
X89447Y-51161D01*
X89409Y-51180D01*
X89371Y-51180D01*
X89333Y-51161D01*
X89314Y-51142D01*
X89295Y-51104D01*
X89276Y-51028D01*
X89276Y-50933D01*
X89295Y-50857D01*
X89314Y-50819D01*
X89333Y-50800D01*
X89371Y-50780D01*
X87111Y-50174D02*
X87141Y-50174D01*
X87172Y-50190D01*
X87187Y-50205D01*
X87202Y-50235D01*
X87218Y-50296D01*
X87218Y-50372D01*
X87202Y-50433D01*
X87187Y-50464D01*
X87172Y-50479D01*
X87141Y-50494D01*
X87111Y-50494D01*
X87080Y-50479D01*
X87065Y-50464D01*
X87050Y-50433D01*
X87035Y-50372D01*
X87035Y-50296D01*
X87050Y-50235D01*
X87065Y-50205D01*
X87080Y-50190D01*
X87111Y-50174D01*
X87355Y-50464D02*
X87370Y-50479D01*
X87355Y-50494D01*
X87340Y-50479D01*
X87355Y-50464D01*
X87355Y-50494D01*
X87675Y-50494D02*
X87492Y-50494D01*
X87583Y-50494D02*
X87583Y-50174D01*
X87553Y-50220D01*
X87522Y-50250D01*
X87492Y-50266D01*
X87949Y-50281D02*
X87949Y-50494D01*
X87812Y-50281D02*
X87812Y-50449D01*
X87827Y-50479D01*
X87858Y-50494D01*
X87903Y-50494D01*
X87934Y-50479D01*
X87949Y-50464D01*
X81683Y-51142D02*
X81664Y-51161D01*
X81607Y-51180D01*
X81569Y-51180D01*
X81511Y-51161D01*
X81473Y-51123D01*
X81454Y-51085D01*
X81435Y-51009D01*
X81435Y-50952D01*
X81454Y-50876D01*
X81473Y-50838D01*
X81511Y-50800D01*
X81569Y-50780D01*
X81607Y-50780D01*
X81664Y-50800D01*
X81683Y-50819D01*
X81816Y-50780D02*
X82083Y-50780D01*
X81911Y-51180D01*
X82611Y-50074D02*
X82641Y-50074D01*
X82672Y-50090D01*
X82687Y-50105D01*
X82702Y-50135D01*
X82718Y-50196D01*
X82718Y-50272D01*
X82702Y-50333D01*
X82687Y-50364D01*
X82672Y-50379D01*
X82641Y-50394D01*
X82611Y-50394D01*
X82580Y-50379D01*
X82565Y-50364D01*
X82550Y-50333D01*
X82535Y-50272D01*
X82535Y-50196D01*
X82550Y-50135D01*
X82565Y-50105D01*
X82580Y-50090D01*
X82611Y-50074D01*
X82855Y-50364D02*
X82870Y-50379D01*
X82855Y-50394D01*
X82840Y-50379D01*
X82855Y-50364D01*
X82855Y-50394D01*
X83175Y-50394D02*
X82992Y-50394D01*
X83083Y-50394D02*
X83083Y-50074D01*
X83053Y-50120D01*
X83022Y-50150D01*
X82992Y-50166D01*
X83449Y-50181D02*
X83449Y-50394D01*
X83312Y-50181D02*
X83312Y-50349D01*
X83327Y-50379D01*
X83358Y-50394D01*
X83403Y-50394D01*
X83434Y-50379D01*
X83449Y-50364D01*
X81683Y-45142D02*
X81664Y-45161D01*
X81607Y-45180D01*
X81569Y-45180D01*
X81511Y-45161D01*
X81473Y-45123D01*
X81454Y-45085D01*
X81435Y-45009D01*
X81435Y-44952D01*
X81454Y-44876D01*
X81473Y-44838D01*
X81511Y-44800D01*
X81569Y-44780D01*
X81607Y-44780D01*
X81664Y-44800D01*
X81683Y-44819D01*
X82026Y-44914D02*
X82026Y-45180D01*
X81930Y-44761D02*
X81835Y-45047D01*
X82083Y-45047D01*
X82611Y-45574D02*
X82641Y-45574D01*
X82672Y-45590D01*
X82687Y-45605D01*
X82702Y-45635D01*
X82718Y-45696D01*
X82718Y-45772D01*
X82702Y-45833D01*
X82687Y-45864D01*
X82672Y-45879D01*
X82641Y-45894D01*
X82611Y-45894D01*
X82580Y-45879D01*
X82565Y-45864D01*
X82550Y-45833D01*
X82535Y-45772D01*
X82535Y-45696D01*
X82550Y-45635D01*
X82565Y-45605D01*
X82580Y-45590D01*
X82611Y-45574D01*
X82855Y-45864D02*
X82870Y-45879D01*
X82855Y-45894D01*
X82840Y-45879D01*
X82855Y-45864D01*
X82855Y-45894D01*
X83175Y-45894D02*
X82992Y-45894D01*
X83083Y-45894D02*
X83083Y-45574D01*
X83053Y-45620D01*
X83022Y-45650D01*
X82992Y-45666D01*
X83449Y-45681D02*
X83449Y-45894D01*
X83312Y-45681D02*
X83312Y-45849D01*
X83327Y-45879D01*
X83358Y-45894D01*
X83403Y-45894D01*
X83434Y-45879D01*
X83449Y-45864D01*
G54D14*
X87026Y-55930D02*
X87026Y-55530D01*
X87159Y-55816D01*
X87292Y-55530D01*
X87292Y-55930D01*
X87483Y-55530D02*
X87483Y-55854D01*
X87502Y-55892D01*
X87521Y-55911D01*
X87559Y-55930D01*
X87635Y-55930D01*
X87673Y-55911D01*
X87692Y-55892D01*
X87711Y-55854D01*
X87711Y-55530D01*
X87864Y-55530D02*
X88130Y-55930D01*
X88130Y-55530D02*
X87864Y-55930D01*
X88245Y-55530D02*
X88492Y-55530D01*
X88359Y-55683D01*
X88416Y-55683D01*
X88454Y-55702D01*
X88473Y-55721D01*
X88492Y-55759D01*
X88492Y-55854D01*
X88473Y-55892D01*
X88454Y-55911D01*
X88416Y-55930D01*
X88302Y-55930D01*
X88264Y-55911D01*
X88245Y-55892D01*
X82026Y-40430D02*
X82026Y-40030D01*
X82159Y-40316D01*
X82292Y-40030D01*
X82292Y-40430D01*
X82483Y-40030D02*
X82483Y-40354D01*
X82502Y-40392D01*
X82521Y-40411D01*
X82559Y-40430D01*
X82635Y-40430D01*
X82673Y-40411D01*
X82692Y-40392D01*
X82711Y-40354D01*
X82711Y-40030D01*
X82864Y-40030D02*
X83130Y-40430D01*
X83130Y-40030D02*
X82864Y-40430D01*
X83492Y-40430D02*
X83264Y-40430D01*
X83378Y-40430D02*
X83378Y-40030D01*
X83340Y-40088D01*
X83302Y-40126D01*
X83264Y-40145D01*
X76704Y-46430D02*
X76704Y-46030D01*
X76857Y-46030D01*
X76895Y-46050D01*
X76914Y-46069D01*
X76933Y-46107D01*
X76933Y-46164D01*
X76914Y-46202D01*
X76895Y-46221D01*
X76857Y-46240D01*
X76704Y-46240D01*
X77276Y-46030D02*
X77200Y-46030D01*
X77161Y-46050D01*
X77142Y-46069D01*
X77104Y-46126D01*
X77085Y-46202D01*
X77085Y-46354D01*
X77104Y-46392D01*
X77123Y-46411D01*
X77161Y-46430D01*
X77238Y-46430D01*
X77276Y-46411D01*
X77295Y-46392D01*
X77314Y-46354D01*
X77314Y-46259D01*
X77295Y-46221D01*
X77276Y-46202D01*
X77238Y-46183D01*
X77161Y-46183D01*
X77123Y-46202D01*
X77104Y-46221D01*
X77085Y-46259D01*
X88704Y-46430D02*
X88704Y-46030D01*
X88857Y-46030D01*
X88895Y-46050D01*
X88914Y-46069D01*
X88933Y-46107D01*
X88933Y-46164D01*
X88914Y-46202D01*
X88895Y-46221D01*
X88857Y-46240D01*
X88704Y-46240D01*
X89295Y-46030D02*
X89104Y-46030D01*
X89085Y-46221D01*
X89104Y-46202D01*
X89142Y-46183D01*
X89238Y-46183D01*
X89276Y-46202D01*
X89295Y-46221D01*
X89314Y-46259D01*
X89314Y-46354D01*
X89295Y-46392D01*
X89276Y-46411D01*
X89238Y-46430D01*
X89142Y-46430D01*
X89104Y-46411D01*
X89085Y-46392D01*
X83704Y-46680D02*
X83704Y-46280D01*
X83857Y-46280D01*
X83895Y-46300D01*
X83914Y-46319D01*
X83933Y-46357D01*
X83933Y-46414D01*
X83914Y-46452D01*
X83895Y-46471D01*
X83857Y-46490D01*
X83704Y-46490D01*
X84276Y-46414D02*
X84276Y-46680D01*
X84180Y-46261D02*
X84085Y-46547D01*
X84333Y-46547D01*
X94354Y-43030D02*
X94354Y-42630D01*
X94507Y-42630D01*
X94545Y-42650D01*
X94564Y-42669D01*
X94583Y-42707D01*
X94583Y-42764D01*
X94564Y-42802D01*
X94545Y-42821D01*
X94507Y-42840D01*
X94354Y-42840D01*
X94716Y-42630D02*
X94983Y-42630D01*
X94811Y-43030D01*
X94164Y-50530D02*
X94164Y-50130D01*
X94316Y-50130D01*
X94354Y-50150D01*
X94373Y-50169D01*
X94392Y-50207D01*
X94392Y-50264D01*
X94373Y-50302D01*
X94354Y-50321D01*
X94316Y-50340D01*
X94164Y-50340D01*
X94773Y-50530D02*
X94545Y-50530D01*
X94659Y-50530D02*
X94659Y-50130D01*
X94621Y-50188D01*
X94583Y-50226D01*
X94545Y-50245D01*
X95154Y-50530D02*
X94926Y-50530D01*
X95040Y-50530D02*
X95040Y-50130D01*
X95002Y-50188D01*
X94964Y-50226D01*
X94926Y-50245D01*
X96954Y-60180D02*
X96954Y-59780D01*
X97107Y-59780D01*
X97145Y-59800D01*
X97164Y-59819D01*
X97183Y-59857D01*
X97183Y-59914D01*
X97164Y-59952D01*
X97145Y-59971D01*
X97107Y-59990D01*
X96954Y-59990D01*
X97373Y-60180D02*
X97450Y-60180D01*
X97488Y-60161D01*
X97507Y-60142D01*
X97545Y-60085D01*
X97564Y-60009D01*
X97564Y-59857D01*
X97545Y-59819D01*
X97526Y-59800D01*
X97488Y-59780D01*
X97411Y-59780D01*
X97373Y-59800D01*
X97354Y-59819D01*
X97335Y-59857D01*
X97335Y-59952D01*
X97354Y-59990D01*
X97373Y-60009D01*
X97411Y-60028D01*
X97488Y-60028D01*
X97526Y-60009D01*
X97545Y-59990D01*
X97564Y-59952D01*
X81954Y-60180D02*
X81954Y-59780D01*
X82107Y-59780D01*
X82145Y-59800D01*
X82164Y-59819D01*
X82183Y-59857D01*
X82183Y-59914D01*
X82164Y-59952D01*
X82145Y-59971D01*
X82107Y-59990D01*
X81954Y-59990D01*
X82411Y-59952D02*
X82373Y-59933D01*
X82354Y-59914D01*
X82335Y-59876D01*
X82335Y-59857D01*
X82354Y-59819D01*
X82373Y-59800D01*
X82411Y-59780D01*
X82488Y-59780D01*
X82526Y-59800D01*
X82545Y-59819D01*
X82564Y-59857D01*
X82564Y-59876D01*
X82545Y-59914D01*
X82526Y-59933D01*
X82488Y-59952D01*
X82411Y-59952D01*
X82373Y-59971D01*
X82354Y-59990D01*
X82335Y-60028D01*
X82335Y-60104D01*
X82354Y-60142D01*
X82373Y-60161D01*
X82411Y-60180D01*
X82488Y-60180D01*
X82526Y-60161D01*
X82545Y-60142D01*
X82564Y-60104D01*
X82564Y-60028D01*
X82545Y-59990D01*
X82526Y-59971D01*
X82488Y-59952D01*
X87954Y-36180D02*
X87954Y-35780D01*
X88107Y-35780D01*
X88145Y-35800D01*
X88164Y-35819D01*
X88183Y-35857D01*
X88183Y-35914D01*
X88164Y-35952D01*
X88145Y-35971D01*
X88107Y-35990D01*
X87954Y-35990D01*
X88316Y-35780D02*
X88564Y-35780D01*
X88430Y-35933D01*
X88488Y-35933D01*
X88526Y-35952D01*
X88545Y-35971D01*
X88564Y-36009D01*
X88564Y-36104D01*
X88545Y-36142D01*
X88526Y-36161D01*
X88488Y-36180D01*
X88373Y-36180D01*
X88335Y-36161D01*
X88316Y-36142D01*
X72954Y-36180D02*
X72954Y-35780D01*
X73107Y-35780D01*
X73145Y-35800D01*
X73164Y-35819D01*
X73183Y-35857D01*
X73183Y-35914D01*
X73164Y-35952D01*
X73145Y-35971D01*
X73107Y-35990D01*
X72954Y-35990D01*
X73335Y-35819D02*
X73354Y-35800D01*
X73392Y-35780D01*
X73488Y-35780D01*
X73526Y-35800D01*
X73545Y-35819D01*
X73564Y-35857D01*
X73564Y-35895D01*
X73545Y-35952D01*
X73316Y-36180D01*
X73564Y-36180D01*
X82904Y-38680D02*
X82904Y-38280D01*
X83057Y-38280D01*
X83095Y-38300D01*
X83114Y-38319D01*
X83133Y-38357D01*
X83133Y-38414D01*
X83114Y-38452D01*
X83095Y-38471D01*
X83057Y-38490D01*
X82904Y-38490D01*
X83514Y-38680D02*
X83285Y-38680D01*
X83400Y-38680D02*
X83400Y-38280D01*
X83361Y-38338D01*
X83323Y-38376D01*
X83285Y-38395D01*
X86764Y-57680D02*
X86764Y-57280D01*
X86916Y-57280D01*
X86954Y-57300D01*
X86973Y-57319D01*
X86992Y-57357D01*
X86992Y-57414D01*
X86973Y-57452D01*
X86954Y-57471D01*
X86916Y-57490D01*
X86764Y-57490D01*
X87373Y-57680D02*
X87145Y-57680D01*
X87259Y-57680D02*
X87259Y-57280D01*
X87221Y-57338D01*
X87183Y-57376D01*
X87145Y-57395D01*
X87621Y-57280D02*
X87659Y-57280D01*
X87697Y-57300D01*
X87716Y-57319D01*
X87735Y-57357D01*
X87754Y-57433D01*
X87754Y-57528D01*
X87735Y-57604D01*
X87716Y-57642D01*
X87697Y-57661D01*
X87659Y-57680D01*
X87621Y-57680D01*
X87583Y-57661D01*
X87564Y-57642D01*
X87545Y-57604D01*
X87526Y-57528D01*
X87526Y-57433D01*
X87545Y-57357D01*
X87564Y-57319D01*
X87583Y-57300D01*
X87621Y-57280D01*
X98433Y-46142D02*
X98414Y-46161D01*
X98357Y-46180D01*
X98319Y-46180D01*
X98261Y-46161D01*
X98223Y-46123D01*
X98204Y-46085D01*
X98185Y-46009D01*
X98185Y-45952D01*
X98204Y-45876D01*
X98223Y-45838D01*
X98261Y-45800D01*
X98319Y-45780D01*
X98357Y-45780D01*
X98414Y-45800D01*
X98433Y-45819D01*
X98776Y-45780D02*
X98700Y-45780D01*
X98661Y-45800D01*
X98642Y-45819D01*
X98604Y-45876D01*
X98585Y-45952D01*
X98585Y-46104D01*
X98604Y-46142D01*
X98623Y-46161D01*
X98661Y-46180D01*
X98738Y-46180D01*
X98776Y-46161D01*
X98795Y-46142D01*
X98814Y-46104D01*
X98814Y-46009D01*
X98795Y-45971D01*
X98776Y-45952D01*
X98738Y-45933D01*
X98661Y-45933D01*
X98623Y-45952D01*
X98604Y-45971D01*
X98585Y-46009D01*
G54D15*
X95242Y-47180D02*
X95014Y-47180D01*
X95128Y-47180D02*
X95128Y-46780D01*
X95090Y-46838D01*
X95052Y-46876D01*
X95014Y-46895D01*
X95490Y-46780D02*
X95528Y-46780D01*
X95566Y-46800D01*
X95585Y-46819D01*
X95604Y-46857D01*
X95623Y-46933D01*
X95623Y-47028D01*
X95604Y-47104D01*
X95585Y-47142D01*
X95566Y-47161D01*
X95528Y-47180D01*
X95490Y-47180D01*
X95452Y-47161D01*
X95433Y-47142D01*
X95414Y-47104D01*
X95395Y-47028D01*
X95395Y-46933D01*
X95414Y-46857D01*
X95433Y-46819D01*
X95452Y-46800D01*
X95490Y-46780D01*
X95966Y-46914D02*
X95966Y-47180D01*
X95795Y-46914D02*
X95795Y-47123D01*
X95814Y-47161D01*
X95852Y-47180D01*
X95909Y-47180D01*
X95947Y-47161D01*
X95966Y-47142D01*
G54D14*
X98433Y-48392D02*
X98414Y-48411D01*
X98357Y-48430D01*
X98319Y-48430D01*
X98261Y-48411D01*
X98223Y-48373D01*
X98204Y-48335D01*
X98185Y-48259D01*
X98185Y-48202D01*
X98204Y-48126D01*
X98223Y-48088D01*
X98261Y-48050D01*
X98319Y-48030D01*
X98357Y-48030D01*
X98414Y-48050D01*
X98433Y-48069D01*
X98795Y-48030D02*
X98604Y-48030D01*
X98585Y-48221D01*
X98604Y-48202D01*
X98642Y-48183D01*
X98738Y-48183D01*
X98776Y-48202D01*
X98795Y-48221D01*
X98814Y-48259D01*
X98814Y-48354D01*
X98795Y-48392D01*
X98776Y-48411D01*
X98738Y-48430D01*
X98642Y-48430D01*
X98604Y-48411D01*
X98585Y-48392D01*
G54D15*
X95242Y-48930D02*
X95014Y-48930D01*
X95128Y-48930D02*
X95128Y-48530D01*
X95090Y-48588D01*
X95052Y-48626D01*
X95014Y-48645D01*
X95490Y-48530D02*
X95528Y-48530D01*
X95566Y-48550D01*
X95585Y-48569D01*
X95604Y-48607D01*
X95623Y-48683D01*
X95623Y-48778D01*
X95604Y-48854D01*
X95585Y-48892D01*
X95566Y-48911D01*
X95528Y-48930D01*
X95490Y-48930D01*
X95452Y-48911D01*
X95433Y-48892D01*
X95414Y-48854D01*
X95395Y-48778D01*
X95395Y-48683D01*
X95414Y-48607D01*
X95433Y-48569D01*
X95452Y-48550D01*
X95490Y-48530D01*
X95966Y-48664D02*
X95966Y-48930D01*
X95795Y-48664D02*
X95795Y-48873D01*
X95814Y-48911D01*
X95852Y-48930D01*
X95909Y-48930D01*
X95947Y-48911D01*
X95966Y-48892D01*
M02*
