G04 (created by PCBNEW (2013-mar-13)-testing) date Mon 17 Mar 2014 06:28:00 PM PDT*
%MOIN*%
G04 Gerber Fmt 3.4, Leading zero omitted, Abs format*
%FSLAX34Y34*%
G01*
G70*
G90*
G04 APERTURE LIST*
%ADD10C,0.001000*%
%ADD11C,0.011800*%
%ADD12R,0.064961X0.064961*%
%ADD13C,0.064961*%
%ADD14C,0.055118*%
%ADD15C,0.066929*%
%ADD16C,0.050000*%
%ADD17C,0.040000*%
%ADD18C,0.010000*%
G04 APERTURE END LIST*
G54D10*
X-845466Y845466D02*
X-845466Y845466D01*
X-845466Y845466D01*
X-845466Y845466D01*
X-845466Y845466D01*
X-845466Y845466D02*
X-845466Y845466D01*
X-845466Y845466D01*
X-845466Y845466D01*
X-845466Y845466D01*
X-845466Y845466D02*
X-845466Y845466D01*
X-845466Y845466D02*
X-845466Y845466D01*
X-845466Y845466D02*
X-845466Y845466D01*
X-845466Y845466D02*
X-845466Y845466D01*
X-845466Y845466D02*
X-845466Y845466D01*
X-844988Y845255D02*
X-845016Y845227D01*
X-845100Y845199D01*
X-845156Y845199D01*
X-845241Y845227D01*
X-845297Y845283D01*
X-845325Y845339D01*
X-845353Y845451D01*
X-845353Y-845395D01*
X-845325Y-845283D01*
X-845297Y-845227D01*
X-845241Y-845171D01*
X-845156Y-845142D01*
X-845100Y-845142D01*
X-845016Y-845171D01*
X-844988Y-845199D01*
X-844651Y845199D02*
X-844707Y845227D01*
X-844735Y845255D01*
X-844763Y845311D01*
X-844763Y-845451D01*
X-844735Y-845395D01*
X-844707Y-845367D01*
X-844651Y-845339D01*
X-844566Y-845339D01*
X-844510Y-845367D01*
X-844482Y-845395D01*
X-844454Y-845451D01*
X-844454Y845311D01*
X-844482Y845255D01*
X-844510Y845227D01*
X-844566Y845199D01*
X-844651Y845199D01*
X-844201Y-845339D02*
X-844201Y845002D01*
X-844201Y-845367D02*
X-844145Y-845339D01*
X-844033Y-845339D01*
X-843976Y-845367D01*
X-843948Y-845395D01*
X-843920Y-845451D01*
X-843920Y845311D01*
X-843948Y845255D01*
X-843976Y845227D01*
X-844033Y845199D01*
X-844145Y845199D01*
X-844201Y845227D01*
X-843724Y-845339D02*
X-843583Y845199D01*
X-843443Y-845339D02*
X-843583Y845199D01*
X-843639Y845058D01*
X-843667Y845030D01*
X-843724Y845002D01*
X-843218Y845199D02*
X-843218Y-845339D01*
X-843218Y-845451D02*
X-843190Y-845395D01*
X-843162Y-845367D01*
X-843106Y-845339D01*
X-843049Y-845339D01*
X-842853Y845199D02*
X-842853Y-845339D01*
X-842853Y-845142D02*
X-842881Y-845171D01*
X-842853Y-845199D01*
X-842825Y-845171D01*
X-842853Y-845142D01*
X-842853Y-845199D01*
X-842319Y-845339D02*
X-842319Y845114D01*
X-842347Y845058D01*
X-842375Y845030D01*
X-842431Y845002D01*
X-842516Y845002D01*
X-842572Y845030D01*
X-842319Y845227D02*
X-842375Y845199D01*
X-842487Y845199D01*
X-842544Y845227D01*
X-842572Y845255D01*
X-842600Y845311D01*
X-842600Y-845451D01*
X-842572Y-845395D01*
X-842544Y-845367D01*
X-842487Y-845339D01*
X-842375Y-845339D01*
X-842319Y-845367D01*
X-842038Y845199D02*
X-842038Y-845142D01*
X-841785Y845199D02*
X-841785Y-845423D01*
X-841813Y-845367D01*
X-841869Y-845339D01*
X-841954Y-845339D01*
X-842010Y-845367D01*
X-842038Y-845395D01*
X-841588Y-845339D02*
X-841364Y-845339D01*
X-841504Y-845142D02*
X-841504Y845283D01*
X-841476Y845227D01*
X-841420Y845199D01*
X-841364Y845199D01*
X-840746Y845367D02*
X-840465Y845367D01*
X-840802Y845199D02*
X-840605Y-845142D01*
X-840408Y845199D01*
X-840212Y-845339D02*
X-840212Y845199D01*
X-840212Y-845395D02*
X-840184Y-845367D01*
X-840127Y-845339D01*
X-840043Y-845339D01*
X-839987Y-845367D01*
X-839959Y-845423D01*
X-839959Y845199D01*
X-839425Y845199D02*
X-839425Y-845142D01*
X-839425Y845227D02*
X-839481Y845199D01*
X-839594Y845199D01*
X-839650Y845227D01*
X-839678Y845255D01*
X-839706Y845311D01*
X-839706Y-845451D01*
X-839678Y-845395D01*
X-839650Y-845367D01*
X-839594Y-845339D01*
X-839481Y-845339D01*
X-839425Y-845367D01*
X-839144Y845199D02*
X-839144Y-845339D01*
X-839144Y-845451D02*
X-839116Y-845395D01*
X-839088Y-845367D01*
X-839032Y-845339D01*
X-838976Y-845339D01*
X-838554Y845227D02*
X-838610Y845199D01*
X-838723Y845199D01*
X-838779Y845227D01*
X-838807Y845283D01*
X-838807Y-845423D01*
X-838779Y-845367D01*
X-838723Y-845339D01*
X-838610Y-845339D01*
X-838554Y-845367D01*
X-838526Y-845423D01*
X-838526Y845451D01*
X-838807Y845395D01*
X-838329Y-845339D02*
X-838189Y845199D01*
X-838048Y-845339D02*
X-838189Y845199D01*
X-838245Y845058D01*
X-838273Y845030D01*
X-838329Y845002D01*
X-837402Y845227D02*
X-837318Y845199D01*
X-837177Y845199D01*
X-837121Y845227D01*
X-837093Y845255D01*
X-837065Y845311D01*
X-837065Y845367D01*
X-837093Y845423D01*
X-837121Y845451D01*
X-837177Y-845451D01*
X-837290Y-845423D01*
X-837346Y-845395D01*
X-837374Y-845367D01*
X-837402Y-845311D01*
X-837402Y-845255D01*
X-837374Y-845199D01*
X-837346Y-845171D01*
X-837290Y-845142D01*
X-837149Y-845142D01*
X-837065Y-845171D01*
X-836812Y845199D02*
X-836812Y-845142D01*
X-836559Y845199D02*
X-836559Y-845423D01*
X-836587Y-845367D01*
X-836644Y-845339D01*
X-836728Y-845339D01*
X-836784Y-845367D01*
X-836812Y-845395D01*
X-836278Y845199D02*
X-836278Y-845339D01*
X-836278Y-845395D02*
X-836250Y-845367D01*
X-836194Y-845339D01*
X-836110Y-845339D01*
X-836054Y-845367D01*
X-836026Y-845423D01*
X-836026Y845199D01*
X-836026Y-845423D02*
X-835997Y-845367D01*
X-835941Y-845339D01*
X-835857Y-845339D01*
X-835801Y-845367D01*
X-835773Y-845423D01*
X-835773Y845199D01*
X-835239Y845199D02*
X-835239Y-845423D01*
X-835267Y-845367D01*
X-835323Y-845339D01*
X-835436Y-845339D01*
X-835492Y-845367D01*
X-835239Y845227D02*
X-835295Y845199D01*
X-835436Y845199D01*
X-835492Y845227D01*
X-835520Y845283D01*
X-835520Y845339D01*
X-835492Y845395D01*
X-835436Y845423D01*
X-835295Y845423D01*
X-835239Y845451D01*
X-834958Y845199D02*
X-834958Y-845142D01*
X-834902Y845423D02*
X-834733Y845199D01*
X-834733Y-845339D02*
X-834958Y845367D01*
X-834396Y845199D02*
X-834452Y845227D01*
X-834480Y845255D01*
X-834508Y845311D01*
X-834508Y-845451D01*
X-834480Y-845395D01*
X-834452Y-845367D01*
X-834396Y-845339D01*
X-834312Y-845339D01*
X-834256Y-845367D01*
X-834227Y-845395D01*
X-834199Y-845451D01*
X-834199Y845311D01*
X-834227Y845255D01*
X-834256Y845227D01*
X-834312Y845199D01*
X-834396Y845199D01*
X-834003Y-845339D02*
X-833862Y845199D01*
X-833722Y-845339D01*
X-833076Y-845199D02*
X-833047Y-845171D01*
X-832991Y-845142D01*
X-832851Y-845142D01*
X-832795Y-845171D01*
X-832766Y-845199D01*
X-832738Y-845255D01*
X-832738Y-845311D01*
X-832766Y-845395D01*
X-833104Y845199D01*
X-832738Y845199D01*
X-832373Y-845142D02*
X-832317Y-845142D01*
X-832261Y-845171D01*
X-832233Y-845199D01*
X-832205Y-845255D01*
X-832176Y-845367D01*
X-832176Y845423D01*
X-832205Y845311D01*
X-832233Y845255D01*
X-832261Y845227D01*
X-832317Y845199D01*
X-832373Y845199D01*
X-832429Y845227D01*
X-832457Y845255D01*
X-832486Y845311D01*
X-832514Y845423D01*
X-832514Y-845367D01*
X-832486Y-845255D01*
X-832457Y-845199D01*
X-832429Y-845171D01*
X-832373Y-845142D01*
X-831615Y845199D02*
X-831952Y845199D01*
X-831783Y845199D02*
X-831783Y-845142D01*
X-831839Y-845227D01*
X-831896Y-845283D01*
X-831952Y-845311D01*
X-831109Y-845339D02*
X-831109Y845199D01*
X-831249Y-845114D02*
X-831390Y845395D01*
X-831025Y845395D01*
X-845353Y845227D02*
X-845269Y845199D01*
X-845128Y845199D01*
X-845072Y845227D01*
X-845044Y845255D01*
X-845016Y845311D01*
X-845016Y845367D01*
X-845044Y845423D01*
X-845072Y845451D01*
X-845128Y-845451D01*
X-845241Y-845423D01*
X-845297Y-845395D01*
X-845325Y-845367D01*
X-845353Y-845311D01*
X-845353Y-845255D01*
X-845325Y-845199D01*
X-845297Y-845171D01*
X-845241Y-845142D01*
X-845100Y-845142D01*
X-845016Y-845171D01*
X-844763Y845199D02*
X-844763Y-845142D01*
X-844510Y845199D02*
X-844510Y-845423D01*
X-844538Y-845367D01*
X-844595Y-845339D01*
X-844679Y-845339D01*
X-844735Y-845367D01*
X-844763Y-845395D01*
X-844005Y845227D02*
X-844061Y845199D01*
X-844173Y845199D01*
X-844229Y845227D01*
X-844257Y845283D01*
X-844257Y-845423D01*
X-844229Y-845367D01*
X-844173Y-845339D01*
X-844061Y-845339D01*
X-844005Y-845367D01*
X-843976Y-845423D01*
X-843976Y845451D01*
X-844257Y845395D01*
X-843499Y845227D02*
X-843555Y845199D01*
X-843667Y845199D01*
X-843724Y845227D01*
X-843752Y845283D01*
X-843752Y-845423D01*
X-843724Y-845367D01*
X-843667Y-845339D01*
X-843555Y-845339D01*
X-843499Y-845367D01*
X-843471Y-845423D01*
X-843471Y845451D01*
X-843752Y845395D01*
X-843302Y-845339D02*
X-843077Y-845339D01*
X-843218Y-845142D02*
X-843218Y845283D01*
X-843190Y845227D01*
X-843134Y845199D01*
X-843077Y845199D01*
X-842881Y845255D02*
X-842853Y845227D01*
X-842881Y845199D01*
X-842909Y845227D01*
X-842881Y845255D01*
X-842881Y845199D01*
X-842881Y-845367D02*
X-842853Y-845395D01*
X-842881Y-845423D01*
X-842909Y-845395D01*
X-842881Y-845367D01*
X-842881Y-845423D01*
X-841729Y-845114D02*
X-842235Y845058D01*
X-841532Y845199D02*
X-841532Y-845142D01*
X-841279Y845199D02*
X-841279Y-845423D01*
X-841307Y-845367D01*
X-841364Y-845339D01*
X-841448Y-845339D01*
X-841504Y-845367D01*
X-841532Y-845395D01*
X-840914Y845199D02*
X-840970Y845227D01*
X-840998Y845255D01*
X-841026Y845311D01*
X-841026Y-845451D01*
X-840998Y-845395D01*
X-840970Y-845367D01*
X-840914Y-845339D01*
X-840830Y-845339D01*
X-840774Y-845367D01*
X-840746Y-845395D01*
X-840717Y-845451D01*
X-840717Y845311D01*
X-840746Y845255D01*
X-840774Y845227D01*
X-840830Y845199D01*
X-840914Y845199D01*
X-840465Y845199D02*
X-840465Y-845339D01*
X-840465Y-845395D02*
X-840436Y-845367D01*
X-840380Y-845339D01*
X-840296Y-845339D01*
X-840240Y-845367D01*
X-840212Y-845423D01*
X-840212Y845199D01*
X-840212Y-845423D02*
X-840184Y-845367D01*
X-840127Y-845339D01*
X-840043Y-845339D01*
X-839987Y-845367D01*
X-839959Y-845423D01*
X-839959Y845199D01*
X-839453Y845227D02*
X-839509Y845199D01*
X-839622Y845199D01*
X-839678Y845227D01*
X-839706Y845283D01*
X-839706Y-845423D01*
X-839678Y-845367D01*
X-839622Y-845339D01*
X-839509Y-845339D01*
X-839453Y-845367D01*
X-839425Y-845423D01*
X-839425Y845451D01*
X-839706Y845395D01*
X-838751Y-845114D02*
X-839256Y845058D01*
X-838301Y845227D02*
X-838357Y845199D01*
X-838470Y845199D01*
X-838526Y845227D01*
X-838554Y845255D01*
X-838582Y845311D01*
X-838582Y-845451D01*
X-838554Y-845395D01*
X-838526Y-845367D01*
X-838470Y-845339D01*
X-838357Y-845339D01*
X-838301Y-845367D01*
X-838048Y845199D02*
X-838048Y-845339D01*
X-838048Y-845451D02*
X-838020Y-845395D01*
X-837992Y-845367D01*
X-837936Y-845339D01*
X-837880Y-845339D01*
X-837430Y845199D02*
X-837430Y-845423D01*
X-837458Y-845367D01*
X-837515Y-845339D01*
X-837627Y-845339D01*
X-837683Y-845367D01*
X-837430Y845227D02*
X-837486Y845199D01*
X-837627Y845199D01*
X-837683Y845227D01*
X-837711Y845283D01*
X-837711Y845339D01*
X-837683Y845395D01*
X-837627Y845423D01*
X-837486Y845423D01*
X-837430Y845451D01*
X-837177Y845227D02*
X-837121Y845199D01*
X-837009Y845199D01*
X-836953Y845227D01*
X-836925Y845283D01*
X-836925Y845311D01*
X-836953Y845367D01*
X-837009Y845395D01*
X-837093Y845395D01*
X-837149Y845423D01*
X-837177Y-845451D01*
X-837177Y-845423D01*
X-837149Y-845367D01*
X-837093Y-845339D01*
X-837009Y-845339D01*
X-836953Y-845367D01*
X-836672Y845199D02*
X-836672Y-845339D01*
X-836672Y-845142D02*
X-836700Y-845171D01*
X-836672Y-845199D01*
X-836644Y-845171D01*
X-836672Y-845142D01*
X-836672Y-845199D01*
X-836138Y845227D02*
X-836194Y845199D01*
X-836306Y845199D01*
X-836363Y845227D01*
X-836391Y845255D01*
X-836419Y845311D01*
X-836419Y-845451D01*
X-836391Y-845395D01*
X-836363Y-845367D01*
X-836306Y-845339D01*
X-836194Y-845339D01*
X-836138Y-845367D01*
X-835464Y-845114D02*
X-835969Y845058D01*
X-834958Y-845171D02*
X-835014Y-845142D01*
X-835098Y-845142D01*
X-835183Y-845171D01*
X-835239Y-845227D01*
X-835267Y-845283D01*
X-835295Y-845395D01*
X-835295Y845451D01*
X-835267Y845339D01*
X-835239Y845283D01*
X-835183Y845227D01*
X-835098Y845199D01*
X-835042Y845199D01*
X-834958Y845227D01*
X-834930Y845255D01*
X-834930Y845451D01*
X-835042Y845451D01*
X-834677Y845199D02*
X-834677Y-845142D01*
X-834480Y-845142D02*
X-834143Y-845142D01*
X-834312Y845199D02*
X-834312Y-845142D01*
X-833525Y-845114D02*
X-834031Y845058D01*
X-833413Y-845339D02*
X-833188Y-845339D01*
X-833328Y-845142D02*
X-833328Y845283D01*
X-833300Y845227D01*
X-833244Y845199D01*
X-833188Y845199D01*
X-832738Y845199D02*
X-832738Y-845142D01*
X-832738Y845227D02*
X-832795Y845199D01*
X-832907Y845199D01*
X-832963Y845227D01*
X-832991Y845255D01*
X-833019Y845311D01*
X-833019Y-845451D01*
X-832991Y-845395D01*
X-832963Y-845367D01*
X-832907Y-845339D01*
X-832795Y-845339D01*
X-832738Y-845367D01*
X-832205Y845227D02*
X-832261Y845199D01*
X-832373Y845199D01*
X-832429Y845227D01*
X-832457Y845255D01*
X-832486Y845311D01*
X-832486Y-845451D01*
X-832457Y-845395D01*
X-832429Y-845367D01*
X-832373Y-845339D01*
X-832261Y-845339D01*
X-832205Y-845367D01*
X-831980Y845227D02*
X-831924Y845199D01*
X-831811Y845199D01*
X-831755Y845227D01*
X-831727Y845283D01*
X-831727Y845311D01*
X-831755Y845367D01*
X-831811Y845395D01*
X-831896Y845395D01*
X-831952Y845423D01*
X-831980Y-845451D01*
X-831980Y-845423D01*
X-831952Y-845367D01*
X-831896Y-845339D01*
X-831811Y-845339D01*
X-831755Y-845367D01*
X-831053Y-845114D02*
X-831558Y845058D01*
X-830856Y845199D02*
X-830856Y-845142D01*
X-830603Y845199D02*
X-830603Y-845423D01*
X-830631Y-845367D01*
X-830687Y-845339D01*
X-830772Y-845339D01*
X-830828Y-845367D01*
X-830856Y-845395D01*
X-830378Y-845339D02*
X-830266Y845199D01*
X-830154Y-845451D01*
X-830041Y845199D01*
X-829929Y-845339D01*
X-829283Y-845114D02*
X-829788Y845058D01*
X-828833Y845199D02*
X-828833Y-845142D01*
X-828833Y845227D02*
X-828889Y845199D01*
X-829002Y845199D01*
X-829058Y845227D01*
X-829086Y845255D01*
X-829114Y845311D01*
X-829114Y-845451D01*
X-829086Y-845395D01*
X-829058Y-845367D01*
X-829002Y-845339D01*
X-828889Y-845339D01*
X-828833Y-845367D01*
X-828327Y845227D02*
X-828384Y845199D01*
X-828496Y845199D01*
X-828552Y845227D01*
X-828580Y845283D01*
X-828580Y-845423D01*
X-828552Y-845367D01*
X-828496Y-845339D01*
X-828384Y-845339D01*
X-828327Y-845367D01*
X-828299Y-845423D01*
X-828299Y845451D01*
X-828580Y845395D01*
X-828046Y845199D02*
X-828046Y-845339D01*
X-828046Y-845395D02*
X-828018Y-845367D01*
X-827962Y-845339D01*
X-827878Y-845339D01*
X-827822Y-845367D01*
X-827794Y-845423D01*
X-827794Y845199D01*
X-827794Y-845423D02*
X-827766Y-845367D01*
X-827709Y-845339D01*
X-827625Y-845339D01*
X-827569Y-845367D01*
X-827541Y-845423D01*
X-827541Y845199D01*
X-827007Y-845339D02*
X-827007Y845199D01*
X-827260Y-845339D02*
X-827260Y845283D01*
X-827232Y845227D01*
X-827176Y845199D01*
X-827091Y845199D01*
X-827035Y845227D01*
X-827007Y845255D01*
X-826782Y845199D02*
X-826473Y-845339D01*
X-826782Y-845339D02*
X-826473Y845199D01*
X-826389Y845142D02*
X-825939Y845142D01*
X-825546Y845199D02*
X-825546Y-845142D01*
X-825546Y845227D02*
X-825602Y845199D01*
X-825715Y845199D01*
X-825771Y845227D01*
X-825799Y845255D01*
X-825827Y845311D01*
X-825827Y-845451D01*
X-825799Y-845395D01*
X-825771Y-845367D01*
X-825715Y-845339D01*
X-825602Y-845339D01*
X-825546Y-845367D01*
X-825012Y845199D02*
X-825012Y-845423D01*
X-825040Y-845367D01*
X-825096Y-845339D01*
X-825209Y-845339D01*
X-825265Y-845367D01*
X-825012Y845227D02*
X-825068Y845199D01*
X-825209Y845199D01*
X-825265Y845227D01*
X-825293Y845283D01*
X-825293Y845339D01*
X-825265Y845395D01*
X-825209Y845423D01*
X-825068Y845423D01*
X-825012Y845451D01*
X-824478Y-845339D02*
X-824478Y845199D01*
X-824731Y-845339D02*
X-824731Y845283D01*
X-824703Y845227D01*
X-824647Y845199D01*
X-824563Y845199D01*
X-824506Y845227D01*
X-824478Y845255D01*
X-823945Y-845339D02*
X-823945Y845114D01*
X-823973Y845058D01*
X-824001Y845030D01*
X-824057Y845002D01*
X-824141Y845002D01*
X-824197Y845030D01*
X-823945Y845227D02*
X-824001Y845199D01*
X-824113Y845199D01*
X-824169Y845227D01*
X-824197Y845255D01*
X-824226Y845311D01*
X-824226Y-845451D01*
X-824197Y-845395D01*
X-824169Y-845367D01*
X-824113Y-845339D01*
X-824001Y-845339D01*
X-823945Y-845367D01*
X-823664Y845199D02*
X-823664Y-845142D01*
X-823411Y845199D02*
X-823411Y-845423D01*
X-823439Y-845367D01*
X-823495Y-845339D01*
X-823579Y-845339D01*
X-823636Y-845367D01*
X-823664Y-845395D01*
X-823214Y-845339D02*
X-822989Y-845339D01*
X-823130Y-845142D02*
X-823130Y845283D01*
X-823102Y845227D01*
X-823046Y845199D01*
X-822989Y845199D01*
X-822568Y845227D02*
X-822624Y845199D01*
X-822736Y845199D01*
X-822793Y845227D01*
X-822821Y845283D01*
X-822821Y-845423D01*
X-822793Y-845367D01*
X-822736Y-845339D01*
X-822624Y-845339D01*
X-822568Y-845367D01*
X-822540Y-845423D01*
X-822540Y845451D01*
X-822821Y845395D01*
X-822287Y845199D02*
X-822287Y-845339D01*
X-822287Y-845451D02*
X-822259Y-845395D01*
X-822231Y-845367D01*
X-822175Y-845339D01*
X-822118Y-845339D01*
X-821922Y845199D02*
X-821922Y-845142D01*
X-821922Y-845367D02*
X-821866Y-845339D01*
X-821753Y-845339D01*
X-821697Y-845367D01*
X-821669Y-845395D01*
X-821641Y-845451D01*
X-821641Y845311D01*
X-821669Y845255D01*
X-821697Y845227D01*
X-821753Y845199D01*
X-821866Y845199D01*
X-821922Y845227D01*
X-821304Y845199D02*
X-821360Y845227D01*
X-821388Y845255D01*
X-821416Y845311D01*
X-821416Y-845451D01*
X-821388Y-845395D01*
X-821360Y-845367D01*
X-821304Y-845339D01*
X-821219Y-845339D01*
X-821163Y-845367D01*
X-821135Y-845395D01*
X-821107Y-845451D01*
X-821107Y845311D01*
X-821135Y845255D01*
X-821163Y845227D01*
X-821219Y845199D01*
X-821304Y845199D01*
X-820601Y845199D02*
X-820601Y-845423D01*
X-820629Y-845367D01*
X-820686Y-845339D01*
X-820798Y-845339D01*
X-820854Y-845367D01*
X-820601Y845227D02*
X-820657Y845199D01*
X-820798Y845199D01*
X-820854Y845227D01*
X-820882Y845283D01*
X-820882Y845339D01*
X-820854Y845395D01*
X-820798Y845423D01*
X-820657Y845423D01*
X-820601Y845451D01*
X-820320Y845199D02*
X-820320Y-845339D01*
X-820320Y-845451D02*
X-820292Y-845395D01*
X-820264Y-845367D01*
X-820208Y-845339D01*
X-820152Y-845339D01*
X-819702Y845199D02*
X-819702Y-845142D01*
X-819702Y845227D02*
X-819758Y845199D01*
X-819871Y845199D01*
X-819927Y845227D01*
X-819955Y845255D01*
X-819983Y845311D01*
X-819983Y-845451D01*
X-819955Y-845395D01*
X-819927Y-845367D01*
X-819871Y-845339D01*
X-819758Y-845339D01*
X-819702Y-845367D01*
X-819000Y-845114D02*
X-819506Y845058D01*
X-818803Y845199D02*
X-818803Y-845142D01*
X-818747Y845423D02*
X-818578Y845199D01*
X-818578Y-845339D02*
X-818803Y845367D01*
X-818326Y845199D02*
X-818326Y-845339D01*
X-818326Y-845142D02*
X-818354Y-845171D01*
X-818326Y-845199D01*
X-818297Y-845171D01*
X-818326Y-845142D01*
X-818326Y-845199D01*
X-817792Y845227D02*
X-817848Y845199D01*
X-817960Y845199D01*
X-818016Y845227D01*
X-818045Y845255D01*
X-818073Y845311D01*
X-818073Y-845451D01*
X-818045Y-845395D01*
X-818016Y-845367D01*
X-817960Y-845339D01*
X-817848Y-845339D01*
X-817792Y-845367D01*
X-817286Y845199D02*
X-817286Y-845423D01*
X-817314Y-845367D01*
X-817370Y-845339D01*
X-817483Y-845339D01*
X-817539Y-845367D01*
X-817286Y845227D02*
X-817342Y845199D01*
X-817483Y845199D01*
X-817539Y845227D01*
X-817567Y845283D01*
X-817567Y845339D01*
X-817539Y845395D01*
X-817483Y845423D01*
X-817342Y845423D01*
X-817286Y845451D01*
X-816752Y845199D02*
X-816752Y-845142D01*
X-816752Y845227D02*
X-816808Y845199D01*
X-816921Y845199D01*
X-816977Y845227D01*
X-817005Y845255D01*
X-817033Y845311D01*
X-817033Y-845451D01*
X-817005Y-845395D01*
X-816977Y-845367D01*
X-816921Y-845339D01*
X-816808Y-845339D01*
X-816752Y-845367D01*
X-816612Y845142D02*
X-816162Y845142D01*
X-816022Y-845339D02*
X-816022Y845002D01*
X-816022Y-845367D02*
X-815966Y-845339D01*
X-815853Y-845339D01*
X-815797Y-845367D01*
X-815769Y-845395D01*
X-815741Y-845451D01*
X-815741Y845311D01*
X-815769Y845255D01*
X-815797Y845227D01*
X-815853Y845199D01*
X-815966Y845199D01*
X-816022Y845227D01*
X-815488Y845199D02*
X-815488Y-845339D01*
X-815488Y-845451D02*
X-815460Y-845395D01*
X-815432Y-845367D01*
X-815376Y-845339D01*
X-815319Y-845339D01*
X-815038Y845199D02*
X-815095Y845227D01*
X-815123Y845255D01*
X-815151Y845311D01*
X-815151Y-845451D01*
X-815123Y-845395D01*
X-815095Y-845367D01*
X-815038Y-845339D01*
X-814954Y-845339D01*
X-814898Y-845367D01*
X-814870Y-845395D01*
X-814842Y-845451D01*
X-814842Y845311D01*
X-814870Y845255D01*
X-814898Y845227D01*
X-814954Y845199D01*
X-815038Y845199D01*
X-814589Y-845339D02*
X-814589Y845086D01*
X-814617Y845030D01*
X-814673Y845002D01*
X-814701Y845002D01*
X-814589Y-845142D02*
X-814617Y-845171D01*
X-814589Y-845199D01*
X-814561Y-845171D01*
X-814589Y-845142D01*
X-814589Y-845199D01*
X-813886Y-845114D02*
X-814392Y845058D01*
X-813437Y845199D02*
X-813437Y-845142D01*
X-813437Y845227D02*
X-813493Y845199D01*
X-813606Y845199D01*
X-813662Y845227D01*
X-813690Y845255D01*
X-813718Y845311D01*
X-813718Y-845451D01*
X-813690Y-845395D01*
X-813662Y-845367D01*
X-813606Y-845339D01*
X-813493Y-845339D01*
X-813437Y-845367D01*
X-812931Y845227D02*
X-812987Y845199D01*
X-813100Y845199D01*
X-813156Y845227D01*
X-813184Y845283D01*
X-813184Y-845423D01*
X-813156Y-845367D01*
X-813100Y-845339D01*
X-812987Y-845339D01*
X-812931Y-845367D01*
X-812903Y-845423D01*
X-812903Y845451D01*
X-813184Y845395D01*
X-812650Y845199D02*
X-812650Y-845339D01*
X-812650Y-845395D02*
X-812622Y-845367D01*
X-812566Y-845339D01*
X-812482Y-845339D01*
X-812426Y-845367D01*
X-812397Y-845423D01*
X-812397Y845199D01*
X-812397Y-845423D02*
X-812369Y-845367D01*
X-812313Y-845339D01*
X-812229Y-845339D01*
X-812173Y-845367D01*
X-812145Y-845423D01*
X-812145Y845199D01*
X-811611Y-845339D02*
X-811611Y845199D01*
X-811864Y-845339D02*
X-811864Y845283D01*
X-811836Y845227D01*
X-811779Y845199D01*
X-811695Y845199D01*
X-811639Y845227D01*
X-811611Y845255D01*
X-811386Y845199D02*
X-811077Y-845339D01*
X-811386Y-845339D02*
X-811077Y845199D01*
X-810852Y845423D02*
X-810403Y845423D01*
X-810122Y-845339D02*
X-810122Y845002D01*
X-810122Y-845367D02*
X-810066Y-845339D01*
X-809953Y-845339D01*
X-809897Y-845367D01*
X-809869Y-845395D01*
X-809841Y-845451D01*
X-809841Y845311D01*
X-809869Y845255D01*
X-809897Y845227D01*
X-809953Y845199D01*
X-810066Y845199D01*
X-810122Y845227D01*
X-809335Y845199D02*
X-809335Y-845423D01*
X-809363Y-845367D01*
X-809419Y-845339D01*
X-809532Y-845339D01*
X-809588Y-845367D01*
X-809335Y845227D02*
X-809391Y845199D01*
X-809532Y845199D01*
X-809588Y845227D01*
X-809616Y845283D01*
X-809616Y845339D01*
X-809588Y845395D01*
X-809532Y845423D01*
X-809391Y845423D01*
X-809335Y845451D01*
X-809054Y-845339D02*
X-809054Y845199D01*
X-809054Y-845395D02*
X-809026Y-845367D01*
X-808970Y-845339D01*
X-808886Y-845339D01*
X-808829Y-845367D01*
X-808801Y-845423D01*
X-808801Y845199D01*
X-808296Y845227D02*
X-808352Y845199D01*
X-808464Y845199D01*
X-808520Y845227D01*
X-808548Y845283D01*
X-808548Y-845423D01*
X-808520Y-845367D01*
X-808464Y-845339D01*
X-808352Y-845339D01*
X-808296Y-845367D01*
X-808267Y-845423D01*
X-808267Y845451D01*
X-808548Y845395D01*
X-807930Y845199D02*
X-807986Y845227D01*
X-808015Y845283D01*
X-808015Y-845142D01*
X-807706Y845255D02*
X-807677Y845227D01*
X-807706Y845199D01*
X-807734Y845227D01*
X-807706Y845255D01*
X-807706Y845199D01*
X-807425Y845199D02*
X-807425Y-845142D01*
X-807368Y845423D02*
X-807200Y845199D01*
X-807200Y-845339D02*
X-807425Y845367D01*
X-806947Y845199D02*
X-806947Y-845339D01*
X-806947Y-845142D02*
X-806975Y-845171D01*
X-806947Y-845199D01*
X-806919Y-845171D01*
X-806947Y-845142D01*
X-806947Y-845199D01*
X-806413Y845227D02*
X-806469Y845199D01*
X-806582Y845199D01*
X-806638Y845227D01*
X-806666Y845255D01*
X-806694Y845311D01*
X-806694Y-845451D01*
X-806666Y-845395D01*
X-806638Y-845367D01*
X-806582Y-845339D01*
X-806469Y-845339D01*
X-806413Y-845367D01*
X-805907Y845199D02*
X-805907Y-845423D01*
X-805936Y-845367D01*
X-805992Y-845339D01*
X-806104Y-845339D01*
X-806160Y-845367D01*
X-805907Y845227D02*
X-805964Y845199D01*
X-806104Y845199D01*
X-806160Y845227D01*
X-806188Y845283D01*
X-806188Y845339D01*
X-806160Y845395D01*
X-806104Y845423D01*
X-805964Y845423D01*
X-805907Y845451D01*
X-805374Y845199D02*
X-805374Y-845142D01*
X-805374Y845227D02*
X-805430Y845199D01*
X-805542Y845199D01*
X-805598Y845227D01*
X-805626Y845255D01*
X-805655Y845311D01*
X-805655Y-845451D01*
X-805626Y-845395D01*
X-805598Y-845367D01*
X-805542Y-845339D01*
X-805430Y-845339D01*
X-805374Y-845367D01*
X-805233Y845142D02*
X-804784Y845142D01*
X-804643Y-845339D02*
X-804643Y845002D01*
X-804643Y-845367D02*
X-804587Y-845339D01*
X-804475Y-845339D01*
X-804418Y-845367D01*
X-804390Y-845395D01*
X-804362Y-845451D01*
X-804362Y845311D01*
X-804390Y845255D01*
X-804418Y845227D01*
X-804475Y845199D01*
X-804587Y845199D01*
X-804643Y845227D01*
X-803856Y845227D02*
X-803913Y845199D01*
X-804025Y845199D01*
X-804081Y845227D01*
X-804109Y845255D01*
X-804137Y845311D01*
X-804137Y-845451D01*
X-804109Y-845395D01*
X-804081Y-845367D01*
X-804025Y-845339D01*
X-803913Y-845339D01*
X-803856Y-845367D01*
X-803604Y845199D02*
X-803604Y-845142D01*
X-803604Y-845367D02*
X-803547Y-845339D01*
X-803435Y-845339D01*
X-803379Y-845367D01*
X-803351Y-845395D01*
X-803323Y-845451D01*
X-803323Y845311D01*
X-803351Y845255D01*
X-803379Y845227D01*
X-803435Y845199D01*
X-803547Y845199D01*
X-803604Y845227D01*
X-845128Y-845423D02*
X-845325Y-845423D01*
X-845325Y845199D02*
X-845325Y-845142D01*
X-845044Y-845142D01*
X-844819Y845199D02*
X-844819Y-845339D01*
X-844819Y-845142D02*
X-844847Y-845171D01*
X-844819Y-845199D01*
X-844791Y-845171D01*
X-844819Y-845142D01*
X-844819Y-845199D01*
X-844454Y845199D02*
X-844510Y845227D01*
X-844538Y845283D01*
X-844538Y-845142D01*
X-844005Y845227D02*
X-844061Y845199D01*
X-844173Y845199D01*
X-844229Y845227D01*
X-844257Y845283D01*
X-844257Y-845423D01*
X-844229Y-845367D01*
X-844173Y-845339D01*
X-844061Y-845339D01*
X-844005Y-845367D01*
X-843976Y-845423D01*
X-843976Y845451D01*
X-844257Y845395D01*
X-843724Y845255D02*
X-843696Y845227D01*
X-843724Y845199D01*
X-843752Y845227D01*
X-843724Y845255D01*
X-843724Y845199D01*
X-843724Y-845367D02*
X-843696Y-845395D01*
X-843724Y-845423D01*
X-843752Y-845395D01*
X-843724Y-845367D01*
X-843724Y-845423D01*
G54D11*
X-845409Y-845142D02*
X-845072Y-845142D01*
X-845241Y845199D02*
X-845241Y-845142D01*
X-844876Y845199D02*
X-844876Y-845339D01*
X-844876Y-845142D02*
X-844904Y-845171D01*
X-844876Y-845199D01*
X-844847Y-845171D01*
X-844876Y-845142D01*
X-844876Y-845199D01*
X-844679Y-845339D02*
X-844454Y-845339D01*
X-844595Y-845142D02*
X-844595Y845283D01*
X-844566Y845227D01*
X-844510Y845199D01*
X-844454Y845199D01*
X-844173Y845199D02*
X-844229Y845227D01*
X-844257Y845283D01*
X-844257Y-845142D01*
X-843724Y845227D02*
X-843780Y845199D01*
X-843892Y845199D01*
X-843948Y845227D01*
X-843976Y845283D01*
X-843976Y-845423D01*
X-843948Y-845367D01*
X-843892Y-845339D01*
X-843780Y-845339D01*
X-843724Y-845367D01*
X-843696Y-845423D01*
X-843696Y845451D01*
X-843976Y845395D01*
X-843443Y845255D02*
X-843415Y845227D01*
X-843443Y845199D01*
X-843471Y845227D01*
X-843443Y845255D01*
X-843443Y845199D01*
X-843443Y-845367D02*
X-843415Y-845395D01*
X-843443Y-845423D01*
X-843471Y-845395D01*
X-843443Y-845367D01*
X-843443Y-845423D01*
X-842796Y-845142D02*
X-842459Y-845142D01*
X-842628Y845199D02*
X-842628Y-845142D01*
X-842263Y845199D02*
X-842263Y-845142D01*
X-842122Y-845142D01*
X-842038Y-845171D01*
X-841982Y-845227D01*
X-841954Y-845283D01*
X-841926Y-845395D01*
X-841926Y845451D01*
X-841954Y845339D01*
X-841982Y845283D01*
X-842038Y845227D01*
X-842122Y845199D01*
X-842263Y845199D01*
X-841336Y845255D02*
X-841364Y845227D01*
X-841448Y845199D01*
X-841504Y845199D01*
X-841588Y845227D01*
X-841645Y845283D01*
X-841673Y845339D01*
X-841701Y845451D01*
X-841701Y-845395D01*
X-841673Y-845283D01*
X-841645Y-845227D01*
X-841588Y-845171D01*
X-841504Y-845142D01*
X-841448Y-845142D01*
X-841364Y-845171D01*
X-841336Y-845199D01*
X-841111Y845227D02*
X-841026Y845199D01*
X-840886Y845199D01*
X-840830Y845227D01*
X-840802Y845255D01*
X-840774Y845311D01*
X-840774Y845367D01*
X-840802Y845423D01*
X-840830Y845451D01*
X-840886Y-845451D01*
X-840998Y-845423D01*
X-841055Y-845395D01*
X-841083Y-845367D01*
X-841111Y-845311D01*
X-841111Y-845255D01*
X-841083Y-845199D01*
X-841055Y-845171D01*
X-840998Y-845142D01*
X-840858Y-845142D01*
X-840774Y-845171D01*
X-840071Y845199D02*
X-840071Y-845142D01*
X-839931Y-845142D01*
X-839846Y-845171D01*
X-839790Y-845227D01*
X-839762Y-845283D01*
X-839734Y-845395D01*
X-839734Y845451D01*
X-839762Y845339D01*
X-839790Y845283D01*
X-839846Y845227D01*
X-839931Y845199D01*
X-840071Y845199D01*
X-839481Y845199D02*
X-839481Y-845339D01*
X-839481Y-845451D02*
X-839453Y-845395D01*
X-839425Y-845367D01*
X-839369Y-845339D01*
X-839313Y-845339D01*
X-839116Y845199D02*
X-839116Y-845339D01*
X-839116Y-845142D02*
X-839144Y-845171D01*
X-839116Y-845199D01*
X-839088Y-845171D01*
X-839116Y-845142D01*
X-839116Y-845199D01*
X-838891Y-845339D02*
X-838751Y845199D01*
X-838610Y-845339D01*
X-838161Y845227D02*
X-838217Y845199D01*
X-838329Y845199D01*
X-838386Y845227D01*
X-838414Y845283D01*
X-838414Y-845423D01*
X-838386Y-845367D01*
X-838329Y-845339D01*
X-838217Y-845339D01*
X-838161Y-845367D01*
X-838133Y-845423D01*
X-838133Y845451D01*
X-838414Y845395D01*
X-837880Y845199D02*
X-837880Y-845339D01*
X-837880Y-845451D02*
X-837852Y-845395D01*
X-837824Y-845367D01*
X-837767Y-845339D01*
X-837711Y-845339D01*
X-837486Y845227D02*
X-837486Y845199D01*
X-837515Y845142D01*
X-837543Y845114D01*
X-836784Y845199D02*
X-836784Y-845142D01*
X-836587Y845367D01*
X-836391Y-845142D01*
X-836391Y845199D01*
X-836110Y-845142D02*
X-836110Y845311D01*
X-836082Y845255D01*
X-836054Y845227D01*
X-835997Y845199D01*
X-835885Y845199D01*
X-835829Y845227D01*
X-835801Y845255D01*
X-835773Y845311D01*
X-835773Y-845142D01*
X-835548Y-845142D02*
X-835155Y845199D01*
X-835155Y-845142D02*
X-835548Y845199D01*
X-834227Y845199D02*
X-834227Y-845142D01*
X-834227Y845227D02*
X-834284Y845199D01*
X-834396Y845199D01*
X-834452Y845227D01*
X-834480Y845255D01*
X-834508Y845311D01*
X-834508Y-845451D01*
X-834480Y-845395D01*
X-834452Y-845367D01*
X-834396Y-845339D01*
X-834284Y-845339D01*
X-834227Y-845367D01*
X-833694Y845199D02*
X-833694Y-845423D01*
X-833722Y-845367D01*
X-833778Y-845339D01*
X-833890Y-845339D01*
X-833946Y-845367D01*
X-833694Y845227D02*
X-833750Y845199D01*
X-833890Y845199D01*
X-833946Y845227D01*
X-833975Y845283D01*
X-833975Y845339D01*
X-833946Y845395D01*
X-833890Y845423D01*
X-833750Y845423D01*
X-833694Y845451D01*
X-833160Y-845339D02*
X-833160Y845199D01*
X-833413Y-845339D02*
X-833413Y845283D01*
X-833385Y845227D01*
X-833328Y845199D01*
X-833244Y845199D01*
X-833188Y845227D01*
X-833160Y845255D01*
X-832626Y-845339D02*
X-832626Y845114D01*
X-832654Y845058D01*
X-832682Y845030D01*
X-832738Y845002D01*
X-832823Y845002D01*
X-832879Y845030D01*
X-832626Y845227D02*
X-832682Y845199D01*
X-832795Y845199D01*
X-832851Y845227D01*
X-832879Y845255D01*
X-832907Y845311D01*
X-832907Y-845451D01*
X-832879Y-845395D01*
X-832851Y-845367D01*
X-832795Y-845339D01*
X-832682Y-845339D01*
X-832626Y-845367D01*
X-832429Y-845339D02*
X-832205Y-845339D01*
X-832345Y-845142D02*
X-832345Y845283D01*
X-832317Y845227D01*
X-832261Y845199D01*
X-832205Y845199D01*
X-832008Y845199D02*
X-832008Y-845142D01*
X-831755Y845199D02*
X-831755Y-845423D01*
X-831783Y-845367D01*
X-831839Y-845339D01*
X-831924Y-845339D01*
X-831980Y-845367D01*
X-832008Y-845395D01*
X-831249Y845227D02*
X-831306Y845199D01*
X-831418Y845199D01*
X-831474Y845227D01*
X-831502Y845283D01*
X-831502Y-845423D01*
X-831474Y-845367D01*
X-831418Y-845339D01*
X-831306Y-845339D01*
X-831249Y-845367D01*
X-831221Y-845423D01*
X-831221Y845451D01*
X-831502Y845395D01*
X-830968Y845199D02*
X-830968Y-845339D01*
X-830968Y-845451D02*
X-830940Y-845395D01*
X-830912Y-845367D01*
X-830856Y-845339D01*
X-830800Y-845339D01*
X-830603Y845199D02*
X-830603Y-845142D01*
X-830603Y-845367D02*
X-830547Y-845339D01*
X-830435Y-845339D01*
X-830378Y-845367D01*
X-830350Y-845395D01*
X-830322Y-845451D01*
X-830322Y845311D01*
X-830350Y845255D01*
X-830378Y845227D01*
X-830435Y845199D01*
X-830547Y845199D01*
X-830603Y845227D01*
X-829985Y845199D02*
X-830041Y845227D01*
X-830069Y845255D01*
X-830097Y845311D01*
X-830097Y-845451D01*
X-830069Y-845395D01*
X-830041Y-845367D01*
X-829985Y-845339D01*
X-829901Y-845339D01*
X-829845Y-845367D01*
X-829816Y-845395D01*
X-829788Y-845451D01*
X-829788Y845311D01*
X-829816Y845255D01*
X-829845Y845227D01*
X-829901Y845199D01*
X-829985Y845199D01*
X-829283Y845199D02*
X-829283Y-845423D01*
X-829311Y-845367D01*
X-829367Y-845339D01*
X-829479Y-845339D01*
X-829536Y-845367D01*
X-829283Y845227D02*
X-829339Y845199D01*
X-829479Y845199D01*
X-829536Y845227D01*
X-829564Y845283D01*
X-829564Y845339D01*
X-829536Y845395D01*
X-829479Y845423D01*
X-829339Y845423D01*
X-829283Y845451D01*
X-829002Y845199D02*
X-829002Y-845339D01*
X-829002Y-845451D02*
X-828974Y-845395D01*
X-828946Y-845367D01*
X-828889Y-845339D01*
X-828833Y-845339D01*
X-828384Y845199D02*
X-828384Y-845142D01*
X-828384Y845227D02*
X-828440Y845199D01*
X-828552Y845199D01*
X-828608Y845227D01*
X-828636Y845255D01*
X-828665Y845311D01*
X-828665Y-845451D01*
X-828636Y-845395D01*
X-828608Y-845367D01*
X-828552Y-845339D01*
X-828440Y-845339D01*
X-828384Y-845367D01*
G54D10*
X-845325Y845199D02*
X-845325Y-845142D01*
X-844791Y845199D02*
X-844791Y-845142D01*
X-844791Y845227D02*
X-844847Y845199D01*
X-844960Y845199D01*
X-845016Y845227D01*
X-845044Y845255D01*
X-845072Y845311D01*
X-845072Y-845451D01*
X-845044Y-845395D01*
X-845016Y-845367D01*
X-844960Y-845339D01*
X-844847Y-845339D01*
X-844791Y-845367D01*
X-844510Y845255D02*
X-844482Y845227D01*
X-844510Y845199D01*
X-844538Y845227D01*
X-844510Y845255D01*
X-844510Y845199D01*
X-844510Y-845367D02*
X-844482Y-845395D01*
X-844510Y-845423D01*
X-844538Y-845395D01*
X-844510Y-845367D01*
X-844510Y-845423D01*
X-843471Y845199D02*
X-843808Y845199D01*
X-843639Y845199D02*
X-843639Y-845142D01*
X-843696Y-845227D01*
X-843752Y-845283D01*
X-843808Y-845311D01*
X-842796Y-845114D02*
X-843302Y845058D01*
X-842291Y845199D02*
X-842628Y845199D01*
X-842459Y845199D02*
X-842459Y-845142D01*
X-842516Y-845227D01*
X-842572Y-845283D01*
X-842628Y-845311D01*
X-845353Y845227D02*
X-845269Y845199D01*
X-845128Y845199D01*
X-845072Y845227D01*
X-845044Y845255D01*
X-845016Y845311D01*
X-845016Y845367D01*
X-845044Y845423D01*
X-845072Y845451D01*
X-845128Y-845451D01*
X-845241Y-845423D01*
X-845297Y-845395D01*
X-845325Y-845367D01*
X-845353Y-845311D01*
X-845353Y-845255D01*
X-845325Y-845199D01*
X-845297Y-845171D01*
X-845241Y-845142D01*
X-845100Y-845142D01*
X-845016Y-845171D01*
X-844763Y845199D02*
X-844763Y-845339D01*
X-844763Y-845142D02*
X-844791Y-845171D01*
X-844763Y-845199D01*
X-844735Y-845171D01*
X-844763Y-845142D01*
X-844763Y-845199D01*
X-844538Y-845339D02*
X-844229Y-845339D01*
X-844538Y845199D01*
X-844229Y845199D01*
X-843780Y845227D02*
X-843836Y845199D01*
X-843948Y845199D01*
X-844005Y845227D01*
X-844033Y845283D01*
X-844033Y-845423D01*
X-844005Y-845367D01*
X-843948Y-845339D01*
X-843836Y-845339D01*
X-843780Y-845367D01*
X-843752Y-845423D01*
X-843752Y845451D01*
X-844033Y845395D01*
X-843499Y845255D02*
X-843471Y845227D01*
X-843499Y845199D01*
X-843527Y845227D01*
X-843499Y845255D01*
X-843499Y845199D01*
X-843499Y-845367D02*
X-843471Y-845395D01*
X-843499Y-845423D01*
X-843527Y-845395D01*
X-843499Y-845367D01*
X-843499Y-845423D01*
X-842768Y-845142D02*
X-842768Y845311D01*
X-842740Y845255D01*
X-842712Y845227D01*
X-842656Y845199D01*
X-842544Y845199D01*
X-842487Y845227D01*
X-842459Y845255D01*
X-842431Y845311D01*
X-842431Y-845142D01*
X-842178Y845227D02*
X-842094Y845199D01*
X-841954Y845199D01*
X-841897Y845227D01*
X-841869Y845255D01*
X-841841Y845311D01*
X-841841Y845367D01*
X-841869Y845423D01*
X-841897Y845451D01*
X-841954Y-845451D01*
X-842066Y-845423D01*
X-842122Y-845395D01*
X-842150Y-845367D01*
X-842178Y-845311D01*
X-842178Y-845255D01*
X-842150Y-845199D01*
X-842122Y-845171D01*
X-842066Y-845142D01*
X-841926Y-845142D01*
X-841841Y-845171D01*
X-841307Y845199D02*
X-841588Y845199D01*
X-841588Y-845142D01*
X-840886Y845227D02*
X-840942Y845199D01*
X-841055Y845199D01*
X-841111Y845227D01*
X-841139Y845283D01*
X-841139Y-845423D01*
X-841111Y-845367D01*
X-841055Y-845339D01*
X-840942Y-845339D01*
X-840886Y-845367D01*
X-840858Y-845423D01*
X-840858Y845451D01*
X-841139Y845395D01*
X-840689Y-845339D02*
X-840465Y-845339D01*
X-840605Y-845142D02*
X-840605Y845283D01*
X-840577Y845227D01*
X-840521Y845199D01*
X-840465Y845199D01*
X-840352Y-845339D02*
X-840127Y-845339D01*
X-840268Y-845142D02*
X-840268Y845283D01*
X-840240Y845227D01*
X-840184Y845199D01*
X-840127Y845199D01*
X-839706Y845227D02*
X-839762Y845199D01*
X-839875Y845199D01*
X-839931Y845227D01*
X-839959Y845283D01*
X-839959Y-845423D01*
X-839931Y-845367D01*
X-839875Y-845339D01*
X-839762Y-845339D01*
X-839706Y-845367D01*
X-839678Y-845423D01*
X-839678Y845451D01*
X-839959Y845395D01*
X-839425Y845199D02*
X-839425Y-845339D01*
X-839425Y-845451D02*
X-839397Y-845395D01*
X-839369Y-845367D01*
X-839313Y-845339D01*
X-839256Y-845339D01*
G54D11*
X-844988Y845199D02*
X-845185Y-845451D01*
X-845325Y845199D02*
X-845325Y-845142D01*
X-845100Y-845142D01*
X-845044Y-845171D01*
X-845016Y-845199D01*
X-844988Y-845255D01*
X-844988Y-845339D01*
X-845016Y-845395D01*
X-845044Y-845423D01*
X-845100Y-845451D01*
X-845325Y-845451D01*
X-844510Y845227D02*
X-844566Y845199D01*
X-844679Y845199D01*
X-844735Y845227D01*
X-844763Y845283D01*
X-844763Y-845423D01*
X-844735Y-845367D01*
X-844679Y-845339D01*
X-844566Y-845339D01*
X-844510Y-845367D01*
X-844482Y-845423D01*
X-844482Y845451D01*
X-844763Y845395D01*
X-844286Y-845339D02*
X-844145Y845199D01*
X-844005Y-845339D01*
X-843780Y845255D02*
X-843752Y845227D01*
X-843780Y845199D01*
X-843808Y845227D01*
X-843780Y845255D01*
X-843780Y845199D01*
X-843780Y-845367D02*
X-843752Y-845395D01*
X-843780Y-845423D01*
X-843808Y-845395D01*
X-843780Y-845367D01*
X-843780Y-845423D01*
X-842740Y845199D02*
X-843077Y845199D01*
X-842909Y845199D02*
X-842909Y-845142D01*
X-842965Y-845227D01*
X-843021Y-845283D01*
X-843077Y-845311D01*
X-842487Y845255D02*
X-842459Y845227D01*
X-842487Y845199D01*
X-842516Y845227D01*
X-842487Y845255D01*
X-842487Y845199D01*
X-842235Y845367D02*
X-841954Y845367D01*
X-842291Y845199D02*
X-842094Y-845142D01*
X-841897Y845199D01*
G54D10*
X-845325Y845199D02*
X-845325Y-845142D01*
X-844988Y845199D02*
X-845241Y-845395D01*
X-844988Y-845142D02*
X-845325Y845451D01*
X-844735Y845199D02*
X-844735Y-845339D01*
X-844735Y-845142D02*
X-844763Y-845171D01*
X-844735Y-845199D01*
X-844707Y-845171D01*
X-844735Y-845142D01*
X-844735Y-845199D01*
X-844117Y845255D02*
X-844145Y845227D01*
X-844229Y845199D01*
X-844286Y845199D01*
X-844370Y845227D01*
X-844426Y845283D01*
X-844454Y845339D01*
X-844482Y845451D01*
X-844482Y-845395D01*
X-844454Y-845283D01*
X-844426Y-845227D01*
X-844370Y-845171D01*
X-844286Y-845142D01*
X-844229Y-845142D01*
X-844145Y-845171D01*
X-844117Y-845199D01*
X-843611Y845199D02*
X-843611Y-845423D01*
X-843639Y-845367D01*
X-843696Y-845339D01*
X-843808Y-845339D01*
X-843864Y-845367D01*
X-843611Y845227D02*
X-843667Y845199D01*
X-843808Y845199D01*
X-843864Y845227D01*
X-843892Y845283D01*
X-843892Y845339D01*
X-843864Y845395D01*
X-843808Y845423D01*
X-843667Y845423D01*
X-843611Y845451D01*
X-843077Y845199D02*
X-843077Y-845142D01*
X-843077Y845227D02*
X-843134Y845199D01*
X-843246Y845199D01*
X-843302Y845227D01*
X-843330Y845255D01*
X-843358Y845311D01*
X-843358Y-845451D01*
X-843330Y-845395D01*
X-843302Y-845367D01*
X-843246Y-845339D01*
X-843134Y-845339D01*
X-843077Y-845367D01*
X-842347Y-845423D02*
X-842150Y-845423D01*
X-842066Y845199D02*
X-842347Y845199D01*
X-842347Y-845142D01*
X-842066Y-845142D01*
X-841813Y845255D02*
X-841785Y845227D01*
X-841813Y845199D01*
X-841841Y845227D01*
X-841813Y845255D01*
X-841813Y845199D01*
X-841532Y845199D02*
X-841532Y-845142D01*
X-841392Y-845142D01*
X-841307Y-845171D01*
X-841251Y-845227D01*
X-841223Y-845283D01*
X-841195Y-845395D01*
X-841195Y845451D01*
X-841223Y845339D01*
X-841251Y845283D01*
X-841307Y845227D01*
X-841392Y845199D01*
X-841532Y845199D01*
X-840942Y845255D02*
X-840914Y845227D01*
X-840942Y845199D01*
X-840970Y845227D01*
X-840942Y845255D01*
X-840942Y845199D01*
X-840689Y845367D02*
X-840408Y845367D01*
X-840746Y845199D02*
X-840549Y-845142D01*
X-840352Y845199D01*
X-840156Y845255D02*
X-840127Y845227D01*
X-840156Y845199D01*
X-840184Y845227D01*
X-840156Y845255D01*
X-840156Y845199D01*
X-838976Y-845339D02*
X-838976Y845002D01*
X-838976Y-845367D02*
X-838919Y-845339D01*
X-838807Y-845339D01*
X-838751Y-845367D01*
X-838723Y-845395D01*
X-838695Y-845451D01*
X-838695Y845311D01*
X-838723Y845255D01*
X-838751Y845227D01*
X-838807Y845199D01*
X-838919Y845199D01*
X-838976Y845227D01*
X-838189Y845227D02*
X-838245Y845199D01*
X-838357Y845199D01*
X-838414Y845227D01*
X-838442Y845255D01*
X-838470Y845311D01*
X-838470Y-845451D01*
X-838442Y-845395D01*
X-838414Y-845367D01*
X-838357Y-845339D01*
X-838245Y-845339D01*
X-838189Y-845367D01*
X-837936Y845199D02*
X-837936Y-845142D01*
X-837936Y-845367D02*
X-837880Y-845339D01*
X-837767Y-845339D01*
X-837711Y-845367D01*
X-837683Y-845395D01*
X-837655Y-845451D01*
X-837655Y845311D01*
X-837683Y845255D01*
X-837711Y845227D01*
X-837767Y845199D01*
X-837880Y845199D01*
X-837936Y845227D01*
X-837402Y-845339D02*
X-837402Y845199D01*
X-837402Y-845395D02*
X-837374Y-845367D01*
X-837318Y-845339D01*
X-837234Y-845339D01*
X-837177Y-845367D01*
X-837149Y-845423D01*
X-837149Y845199D01*
X-836644Y845227D02*
X-836700Y845199D01*
X-836812Y845199D01*
X-836868Y845227D01*
X-836896Y845283D01*
X-836896Y-845423D01*
X-836868Y-845367D01*
X-836812Y-845339D01*
X-836700Y-845339D01*
X-836644Y-845367D01*
X-836616Y-845423D01*
X-836616Y845451D01*
X-836896Y845395D01*
X-836419Y-845339D02*
X-836306Y845199D01*
X-836194Y-845451D01*
X-836082Y845199D01*
X-835969Y-845339D01*
X-835126Y844974D02*
X-835155Y845002D01*
X-835211Y845086D01*
X-835239Y845142D01*
X-835267Y845227D01*
X-835295Y845367D01*
X-835295Y-845451D01*
X-835267Y-845311D01*
X-835239Y-845227D01*
X-835211Y-845171D01*
X-835155Y-845086D01*
X-835126Y-845058D01*
X-834930Y-845199D02*
X-834902Y-845171D01*
X-834846Y-845142D01*
X-834705Y-845142D01*
X-834649Y-845171D01*
X-834621Y-845199D01*
X-834593Y-845255D01*
X-834593Y-845311D01*
X-834621Y-845395D01*
X-834958Y845199D01*
X-834593Y845199D01*
X-834227Y-845142D02*
X-834171Y-845142D01*
X-834115Y-845171D01*
X-834087Y-845199D01*
X-834059Y-845255D01*
X-834031Y-845367D01*
X-834031Y845423D01*
X-834059Y845311D01*
X-834087Y845255D01*
X-834115Y845227D01*
X-834171Y845199D01*
X-834227Y845199D01*
X-834284Y845227D01*
X-834312Y845255D01*
X-834340Y845311D01*
X-834368Y845423D01*
X-834368Y-845367D01*
X-834340Y-845255D01*
X-834312Y-845199D01*
X-834284Y-845171D01*
X-834227Y-845142D01*
X-833469Y845199D02*
X-833806Y845199D01*
X-833637Y845199D02*
X-833637Y-845142D01*
X-833694Y-845227D01*
X-833750Y-845283D01*
X-833806Y-845311D01*
X-833272Y-845142D02*
X-832907Y-845142D01*
X-833104Y-845367D01*
X-833019Y-845367D01*
X-832963Y-845395D01*
X-832935Y-845423D01*
X-832907Y845451D01*
X-832907Y845311D01*
X-832935Y845255D01*
X-832963Y845227D01*
X-833019Y845199D01*
X-833188Y845199D01*
X-833244Y845227D01*
X-833272Y845255D01*
X-832654Y845423D02*
X-832205Y845423D01*
X-831924Y845199D02*
X-831924Y-845339D01*
X-831924Y-845395D02*
X-831896Y-845367D01*
X-831839Y-845339D01*
X-831755Y-845339D01*
X-831699Y-845367D01*
X-831671Y-845423D01*
X-831671Y845199D01*
X-831671Y-845423D02*
X-831643Y-845367D01*
X-831586Y-845339D01*
X-831502Y-845339D01*
X-831446Y-845367D01*
X-831418Y-845423D01*
X-831418Y845199D01*
X-830884Y845199D02*
X-830884Y-845423D01*
X-830912Y-845367D01*
X-830968Y-845339D01*
X-831081Y-845339D01*
X-831137Y-845367D01*
X-830884Y845227D02*
X-830940Y845199D01*
X-831081Y845199D01*
X-831137Y845227D01*
X-831165Y845283D01*
X-831165Y845339D01*
X-831137Y845395D01*
X-831081Y845423D01*
X-830940Y845423D01*
X-830884Y845451D01*
X-830603Y845199D02*
X-830603Y-845339D01*
X-830603Y-845451D02*
X-830575Y-845395D01*
X-830547Y-845367D01*
X-830491Y-845339D01*
X-830435Y-845339D01*
X-830238Y845423D02*
X-829788Y845423D01*
X-829198Y845199D02*
X-829536Y845199D01*
X-829367Y845199D02*
X-829367Y-845142D01*
X-829423Y-845227D01*
X-829479Y-845283D01*
X-829536Y-845311D01*
X-829002Y-845142D02*
X-828636Y-845142D01*
X-828833Y-845367D01*
X-828749Y-845367D01*
X-828693Y-845395D01*
X-828665Y-845423D01*
X-828636Y845451D01*
X-828636Y845311D01*
X-828665Y845255D01*
X-828693Y845227D01*
X-828749Y845199D01*
X-828917Y845199D01*
X-828974Y845227D01*
X-829002Y845255D01*
X-828440Y844974D02*
X-828412Y845002D01*
X-828356Y845086D01*
X-828327Y845142D01*
X-828299Y845227D01*
X-828271Y845367D01*
X-828271Y-845451D01*
X-828299Y-845311D01*
X-828327Y-845227D01*
X-828356Y-845171D01*
X-828412Y-845086D01*
X-828440Y-845058D01*
X-827990Y845423D02*
X-827541Y845423D01*
X-827344Y-845339D02*
X-827119Y-845339D01*
X-827260Y-845142D02*
X-827260Y845283D01*
X-827232Y845227D01*
X-827176Y845199D01*
X-827119Y845199D01*
X-826698Y845227D02*
X-826754Y845199D01*
X-826866Y845199D01*
X-826923Y845227D01*
X-826951Y845283D01*
X-826951Y-845423D01*
X-826923Y-845367D01*
X-826866Y-845339D01*
X-826754Y-845339D01*
X-826698Y-845367D01*
X-826670Y-845423D01*
X-826670Y845451D01*
X-826951Y845395D01*
X-826445Y845227D02*
X-826389Y845199D01*
X-826276Y845199D01*
X-826220Y845227D01*
X-826192Y845283D01*
X-826192Y845311D01*
X-826220Y845367D01*
X-826276Y845395D01*
X-826361Y845395D01*
X-826417Y845423D01*
X-826445Y-845451D01*
X-826445Y-845423D01*
X-826417Y-845367D01*
X-826361Y-845339D01*
X-826276Y-845339D01*
X-826220Y-845367D01*
X-826024Y-845339D02*
X-825799Y-845339D01*
X-825939Y-845142D02*
X-825939Y845283D01*
X-825911Y845227D01*
X-825855Y845199D01*
X-825799Y845199D01*
X-825602Y845199D02*
X-825602Y-845339D01*
X-825602Y-845142D02*
X-825630Y-845171D01*
X-825602Y-845199D01*
X-825574Y-845171D01*
X-825602Y-845142D01*
X-825602Y-845199D01*
X-825321Y-845339D02*
X-825321Y845199D01*
X-825321Y-845395D02*
X-825293Y-845367D01*
X-825237Y-845339D01*
X-825153Y-845339D01*
X-825096Y-845367D01*
X-825068Y-845423D01*
X-825068Y845199D01*
X-824535Y-845339D02*
X-824535Y845114D01*
X-824563Y845058D01*
X-824591Y845030D01*
X-824647Y845002D01*
X-824731Y845002D01*
X-824787Y845030D01*
X-824535Y845227D02*
X-824591Y845199D01*
X-824703Y845199D01*
X-824759Y845227D01*
X-824787Y845255D01*
X-824816Y845311D01*
X-824816Y-845451D01*
X-824787Y-845395D01*
X-824759Y-845367D01*
X-824703Y-845339D01*
X-824591Y-845339D01*
X-824535Y-845367D01*
X-845325Y845199D02*
X-845325Y-845142D01*
X-845185Y-845142D01*
X-845100Y-845171D01*
X-845044Y-845227D01*
X-845016Y-845283D01*
X-844988Y-845395D01*
X-844988Y845451D01*
X-845016Y845339D01*
X-845044Y845283D01*
X-845100Y845227D01*
X-845185Y845199D01*
X-845325Y845199D01*
X-844482Y845199D02*
X-844482Y-845423D01*
X-844510Y-845367D01*
X-844566Y-845339D01*
X-844679Y-845339D01*
X-844735Y-845367D01*
X-844482Y845227D02*
X-844538Y845199D01*
X-844679Y845199D01*
X-844735Y845227D01*
X-844763Y845283D01*
X-844763Y845339D01*
X-844735Y845395D01*
X-844679Y845423D01*
X-844538Y845423D01*
X-844482Y845451D01*
X-844286Y-845339D02*
X-844061Y-845339D01*
X-844201Y-845142D02*
X-844201Y845283D01*
X-844173Y845227D01*
X-844117Y845199D01*
X-844061Y845199D01*
X-843639Y845227D02*
X-843696Y845199D01*
X-843808Y845199D01*
X-843864Y845227D01*
X-843892Y845283D01*
X-843892Y-845423D01*
X-843864Y-845367D01*
X-843808Y-845339D01*
X-843696Y-845339D01*
X-843639Y-845367D01*
X-843611Y-845423D01*
X-843611Y845451D01*
X-843892Y845395D01*
X-843358Y845255D02*
X-843330Y845227D01*
X-843358Y845199D01*
X-843386Y845227D01*
X-843358Y845255D01*
X-843358Y845199D01*
X-843358Y-845367D02*
X-843330Y-845395D01*
X-843358Y-845423D01*
X-843386Y-845395D01*
X-843358Y-845367D01*
X-843358Y-845423D01*
X-842516Y-845142D02*
X-842459Y-845142D01*
X-842403Y-845171D01*
X-842375Y-845199D01*
X-842347Y-845255D01*
X-842319Y-845367D01*
X-842319Y845423D01*
X-842347Y845311D01*
X-842375Y845255D01*
X-842403Y845227D01*
X-842459Y845199D01*
X-842516Y845199D01*
X-842572Y845227D01*
X-842600Y845255D01*
X-842628Y845311D01*
X-842656Y845423D01*
X-842656Y-845367D01*
X-842628Y-845255D01*
X-842600Y-845199D01*
X-842572Y-845171D01*
X-842516Y-845142D01*
X-842122Y-845142D02*
X-841757Y-845142D01*
X-841954Y-845367D01*
X-841869Y-845367D01*
X-841813Y-845395D01*
X-841785Y-845423D01*
X-841757Y845451D01*
X-841757Y845311D01*
X-841785Y845255D01*
X-841813Y845227D01*
X-841869Y845199D01*
X-842038Y845199D01*
X-842094Y845227D01*
X-842122Y845255D01*
X-841083Y-845114D02*
X-841588Y845058D01*
X-840774Y-845142D02*
X-840717Y-845142D01*
X-840661Y-845171D01*
X-840633Y-845199D01*
X-840605Y-845255D01*
X-840577Y-845367D01*
X-840577Y845423D01*
X-840605Y845311D01*
X-840633Y845255D01*
X-840661Y845227D01*
X-840717Y845199D01*
X-840774Y845199D01*
X-840830Y845227D01*
X-840858Y845255D01*
X-840886Y845311D01*
X-840914Y845423D01*
X-840914Y-845367D01*
X-840886Y-845255D01*
X-840858Y-845199D01*
X-840830Y-845171D01*
X-840774Y-845142D01*
X-840015Y845199D02*
X-840352Y845199D01*
X-840184Y845199D02*
X-840184Y-845142D01*
X-840240Y-845227D01*
X-840296Y-845283D01*
X-840352Y-845311D01*
X-839341Y-845114D02*
X-839846Y845058D01*
X-839172Y-845199D02*
X-839144Y-845171D01*
X-839088Y-845142D01*
X-838947Y-845142D01*
X-838891Y-845171D01*
X-838863Y-845199D01*
X-838835Y-845255D01*
X-838835Y-845311D01*
X-838863Y-845395D01*
X-839200Y845199D01*
X-838835Y845199D01*
X-838470Y-845142D02*
X-838414Y-845142D01*
X-838357Y-845171D01*
X-838329Y-845199D01*
X-838301Y-845255D01*
X-838273Y-845367D01*
X-838273Y845423D01*
X-838301Y845311D01*
X-838329Y845255D01*
X-838357Y845227D01*
X-838414Y845199D01*
X-838470Y845199D01*
X-838526Y845227D01*
X-838554Y845255D01*
X-838582Y845311D01*
X-838610Y845423D01*
X-838610Y-845367D01*
X-838582Y-845255D01*
X-838554Y-845199D01*
X-838526Y-845171D01*
X-838470Y-845142D01*
X-837711Y845199D02*
X-838048Y845199D01*
X-837880Y845199D02*
X-837880Y-845142D01*
X-837936Y-845227D01*
X-837992Y-845283D01*
X-838048Y-845311D01*
X-837206Y-845339D02*
X-837206Y845199D01*
X-837346Y-845114D02*
X-837486Y845395D01*
X-837121Y845395D01*
X-845466Y845466D02*
X-845466Y845466D01*
X-845466Y845466D02*
X-845466Y845466D01*
X-845466Y845466D02*
X-845466Y845466D01*
G54D12*
X77250Y-47500D03*
G54D13*
X77250Y-48500D03*
X78250Y-47500D03*
X78250Y-48500D03*
X79250Y-47500D03*
X79250Y-48500D03*
X80250Y-47500D03*
X80250Y-48500D03*
X81250Y-47500D03*
X81250Y-48500D03*
G54D12*
X89250Y-47500D03*
G54D13*
X89250Y-48500D03*
X90250Y-47500D03*
X90250Y-48500D03*
X91250Y-47500D03*
X91250Y-48500D03*
X92250Y-47500D03*
X92250Y-48500D03*
X93250Y-47500D03*
X93250Y-48500D03*
G54D12*
X84250Y-47500D03*
G54D13*
X85250Y-47500D03*
X84250Y-48500D03*
X85250Y-48500D03*
X86250Y-47500D03*
X86250Y-48500D03*
G54D12*
X94750Y-43750D03*
G54D13*
X94750Y-44750D03*
X95750Y-43750D03*
X95750Y-44750D03*
G54D12*
X94750Y-51250D03*
G54D13*
X94750Y-52250D03*
X95750Y-51250D03*
X95750Y-52250D03*
G54D14*
X95505Y-59393D03*
X95505Y-58606D03*
X94718Y-59393D03*
X94718Y-58606D03*
X93931Y-59393D03*
X93931Y-58606D03*
X93143Y-59393D03*
X93143Y-58606D03*
X92356Y-59393D03*
X92356Y-58606D03*
X91568Y-59393D03*
X91568Y-58606D03*
X90781Y-59393D03*
X90781Y-58606D03*
X89994Y-59393D03*
X89994Y-58606D03*
X80505Y-59393D03*
X80505Y-58606D03*
X79718Y-59393D03*
X79718Y-58606D03*
X78931Y-59393D03*
X78931Y-58606D03*
X78143Y-59393D03*
X78143Y-58606D03*
X77356Y-59393D03*
X77356Y-58606D03*
X76568Y-59393D03*
X76568Y-58606D03*
X75781Y-59393D03*
X75781Y-58606D03*
X74994Y-59393D03*
X74994Y-58606D03*
X89994Y-36606D03*
X89994Y-37393D03*
X90781Y-36606D03*
X90781Y-37393D03*
X91568Y-36606D03*
X91568Y-37393D03*
X92356Y-36606D03*
X92356Y-37393D03*
X93143Y-36606D03*
X93143Y-37393D03*
X93931Y-36606D03*
X93931Y-37393D03*
X94718Y-36606D03*
X94718Y-37393D03*
X95505Y-36606D03*
X95505Y-37393D03*
X74994Y-36606D03*
X74994Y-37393D03*
X75781Y-36606D03*
X75781Y-37393D03*
X76568Y-36606D03*
X76568Y-37393D03*
X77356Y-36606D03*
X77356Y-37393D03*
X78143Y-36606D03*
X78143Y-37393D03*
X78931Y-36606D03*
X78931Y-37393D03*
X79718Y-36606D03*
X79718Y-37393D03*
X80505Y-36606D03*
X80505Y-37393D03*
G54D15*
X84700Y-38000D03*
X85700Y-38000D03*
X85750Y-58000D03*
X84750Y-58000D03*
G54D14*
X97643Y-47000D03*
X96856Y-47000D03*
X96856Y-49250D03*
X97643Y-49250D03*
G54D16*
X74100Y-62100D03*
X77750Y-60850D03*
X81400Y-62100D03*
X89050Y-62200D03*
X92800Y-60900D03*
X97200Y-61450D03*
X97300Y-57400D03*
X96950Y-42900D03*
X95150Y-41750D03*
X96350Y-33950D03*
X92750Y-35200D03*
X89100Y-33950D03*
X81400Y-33900D03*
X77750Y-35050D03*
X74900Y-33950D03*
X74100Y-48100D03*
X78850Y-44400D03*
X74950Y-45250D03*
X73950Y-50400D03*
X75950Y-51050D03*
X75950Y-52450D03*
X73950Y-51800D03*
X74950Y-43150D03*
X73950Y-53200D03*
G54D17*
X84200Y-50600D03*
X82200Y-51450D03*
X82200Y-44550D03*
X84200Y-45400D03*
X86300Y-45400D03*
X88300Y-44550D03*
X88300Y-51450D03*
X86300Y-50600D03*
G54D16*
X97750Y-51250D03*
X97750Y-52250D03*
G54D17*
X83400Y-51650D03*
X83400Y-44350D03*
X87100Y-44350D03*
X87100Y-51650D03*
G54D16*
X96750Y-51750D03*
X81000Y-50700D03*
X81000Y-45000D03*
X93250Y-51750D03*
X92250Y-51250D03*
X92250Y-52250D03*
G54D10*
G36*
X98675Y-62675D02*
X98590Y-62675D01*
X98590Y-55333D01*
X98590Y-40333D01*
X98463Y-40024D01*
X98226Y-39787D01*
X97917Y-39659D01*
X97583Y-39659D01*
X97274Y-39787D01*
X97037Y-40023D01*
X96909Y-40332D01*
X96909Y-40666D01*
X97037Y-40975D01*
X97273Y-41212D01*
X97582Y-41340D01*
X97916Y-41340D01*
X98225Y-41213D01*
X98462Y-40976D01*
X98590Y-40667D01*
X98590Y-40333D01*
X98590Y-55333D01*
X98463Y-55024D01*
X98250Y-54811D01*
X98250Y-52150D01*
X98174Y-51967D01*
X98033Y-51826D01*
X97849Y-51750D01*
X97849Y-51750D01*
X98032Y-51674D01*
X98173Y-51533D01*
X98249Y-51349D01*
X98250Y-51150D01*
X98174Y-50967D01*
X98033Y-50826D01*
X97849Y-50750D01*
X97650Y-50749D01*
X97467Y-50825D01*
X97450Y-50842D01*
X97450Y-42800D01*
X97374Y-42617D01*
X97233Y-42476D01*
X97049Y-42400D01*
X96850Y-42399D01*
X96850Y-42400D01*
X96850Y-33850D01*
X96774Y-33667D01*
X96633Y-33526D01*
X96449Y-33450D01*
X96250Y-33449D01*
X96067Y-33525D01*
X95926Y-33666D01*
X95850Y-33850D01*
X95849Y-34049D01*
X95925Y-34232D01*
X96066Y-34373D01*
X96250Y-34449D01*
X96449Y-34450D01*
X96632Y-34374D01*
X96773Y-34233D01*
X96849Y-34049D01*
X96850Y-33850D01*
X96850Y-42400D01*
X96667Y-42475D01*
X96526Y-42616D01*
X96450Y-42800D01*
X96449Y-42999D01*
X96525Y-43182D01*
X96666Y-43323D01*
X96850Y-43399D01*
X97049Y-43400D01*
X97232Y-43324D01*
X97373Y-43183D01*
X97449Y-42999D01*
X97450Y-42800D01*
X97450Y-50842D01*
X97381Y-50910D01*
X97381Y-49145D01*
X97381Y-46895D01*
X97302Y-46702D01*
X97154Y-46554D01*
X96961Y-46474D01*
X96752Y-46474D01*
X96558Y-46554D01*
X96410Y-46701D01*
X96330Y-46894D01*
X96330Y-47104D01*
X96410Y-47297D01*
X96558Y-47445D01*
X96751Y-47525D01*
X96960Y-47525D01*
X97153Y-47445D01*
X97301Y-47298D01*
X97381Y-47105D01*
X97381Y-46895D01*
X97381Y-49145D01*
X97302Y-48952D01*
X97154Y-48804D01*
X96961Y-48724D01*
X96752Y-48724D01*
X96558Y-48804D01*
X96410Y-48951D01*
X96330Y-49144D01*
X96330Y-49354D01*
X96410Y-49547D01*
X96558Y-49695D01*
X96751Y-49775D01*
X96960Y-49775D01*
X97153Y-49695D01*
X97301Y-49548D01*
X97381Y-49355D01*
X97381Y-49145D01*
X97381Y-50910D01*
X97326Y-50966D01*
X97250Y-51150D01*
X97249Y-51349D01*
X97325Y-51532D01*
X97466Y-51673D01*
X97650Y-51749D01*
X97650Y-51749D01*
X97467Y-51825D01*
X97326Y-51966D01*
X97250Y-52150D01*
X97250Y-52150D01*
X97250Y-51650D01*
X97174Y-51467D01*
X97033Y-51326D01*
X96849Y-51250D01*
X96650Y-51249D01*
X96467Y-51325D01*
X96326Y-51466D01*
X96250Y-51650D01*
X96249Y-51849D01*
X96325Y-52032D01*
X96466Y-52173D01*
X96650Y-52249D01*
X96849Y-52250D01*
X97032Y-52174D01*
X97173Y-52033D01*
X97249Y-51849D01*
X97250Y-51650D01*
X97250Y-52150D01*
X97249Y-52349D01*
X97325Y-52532D01*
X97466Y-52673D01*
X97650Y-52749D01*
X97849Y-52750D01*
X98032Y-52674D01*
X98173Y-52533D01*
X98249Y-52349D01*
X98250Y-52150D01*
X98250Y-54811D01*
X98226Y-54787D01*
X97917Y-54659D01*
X97583Y-54659D01*
X97274Y-54787D01*
X97037Y-55023D01*
X96909Y-55332D01*
X96909Y-55666D01*
X97037Y-55975D01*
X97273Y-56212D01*
X97582Y-56340D01*
X97916Y-56340D01*
X98225Y-56213D01*
X98462Y-55976D01*
X98590Y-55667D01*
X98590Y-55333D01*
X98590Y-62675D01*
X97800Y-62675D01*
X97800Y-57300D01*
X97724Y-57117D01*
X97583Y-56976D01*
X97399Y-56900D01*
X97200Y-56899D01*
X97017Y-56975D01*
X96876Y-57116D01*
X96800Y-57300D01*
X96799Y-57499D01*
X96875Y-57682D01*
X97016Y-57823D01*
X97200Y-57899D01*
X97399Y-57900D01*
X97582Y-57824D01*
X97723Y-57683D01*
X97799Y-57499D01*
X97800Y-57300D01*
X97800Y-62675D01*
X97700Y-62675D01*
X97700Y-61350D01*
X97624Y-61167D01*
X97483Y-61026D01*
X97299Y-60950D01*
X97100Y-60949D01*
X96917Y-61025D01*
X96776Y-61166D01*
X96700Y-61350D01*
X96699Y-61549D01*
X96775Y-61732D01*
X96916Y-61873D01*
X97100Y-61949D01*
X97299Y-61950D01*
X97482Y-61874D01*
X97623Y-61733D01*
X97699Y-61549D01*
X97700Y-61350D01*
X97700Y-62675D01*
X96324Y-62675D01*
X96324Y-52136D01*
X96237Y-51924D01*
X96076Y-51762D01*
X96044Y-51750D01*
X96075Y-51737D01*
X96237Y-51576D01*
X96324Y-51364D01*
X96324Y-51136D01*
X96237Y-50924D01*
X96076Y-50762D01*
X96031Y-50744D01*
X96031Y-37289D01*
X95951Y-37096D01*
X95855Y-36999D01*
X95951Y-36904D01*
X96031Y-36711D01*
X96031Y-36502D01*
X95951Y-36308D01*
X95804Y-36160D01*
X95610Y-36080D01*
X95401Y-36080D01*
X95208Y-36160D01*
X95112Y-36256D01*
X95016Y-36160D01*
X94823Y-36080D01*
X94614Y-36080D01*
X94421Y-36160D01*
X94324Y-36256D01*
X94229Y-36160D01*
X94036Y-36080D01*
X93827Y-36080D01*
X93633Y-36160D01*
X93537Y-36256D01*
X93441Y-36160D01*
X93250Y-36081D01*
X93250Y-35100D01*
X93174Y-34917D01*
X93033Y-34776D01*
X92849Y-34700D01*
X92650Y-34699D01*
X92467Y-34775D01*
X92326Y-34916D01*
X92250Y-35100D01*
X92249Y-35299D01*
X92325Y-35482D01*
X92466Y-35623D01*
X92650Y-35699D01*
X92849Y-35700D01*
X93032Y-35624D01*
X93173Y-35483D01*
X93249Y-35299D01*
X93250Y-35100D01*
X93250Y-36081D01*
X93248Y-36080D01*
X93039Y-36080D01*
X92846Y-36160D01*
X92749Y-36256D01*
X92654Y-36160D01*
X92461Y-36080D01*
X92252Y-36080D01*
X92058Y-36160D01*
X91962Y-36256D01*
X91867Y-36160D01*
X91673Y-36080D01*
X91464Y-36080D01*
X91271Y-36160D01*
X91175Y-36256D01*
X91079Y-36160D01*
X90886Y-36080D01*
X90677Y-36080D01*
X90484Y-36160D01*
X90387Y-36256D01*
X90292Y-36160D01*
X90099Y-36080D01*
X89890Y-36080D01*
X89696Y-36160D01*
X89600Y-36256D01*
X89600Y-33850D01*
X89524Y-33667D01*
X89383Y-33526D01*
X89199Y-33450D01*
X89000Y-33449D01*
X88817Y-33525D01*
X88676Y-33666D01*
X88600Y-33850D01*
X88599Y-34049D01*
X88675Y-34232D01*
X88816Y-34373D01*
X89000Y-34449D01*
X89199Y-34450D01*
X89382Y-34374D01*
X89523Y-34233D01*
X89599Y-34049D01*
X89600Y-33850D01*
X89600Y-36256D01*
X89548Y-36308D01*
X89468Y-36501D01*
X89468Y-36710D01*
X89548Y-36903D01*
X89644Y-37000D01*
X89548Y-37095D01*
X89468Y-37288D01*
X89468Y-37497D01*
X89548Y-37691D01*
X89695Y-37839D01*
X89889Y-37919D01*
X90098Y-37919D01*
X90291Y-37839D01*
X90387Y-37743D01*
X90483Y-37839D01*
X90676Y-37919D01*
X90885Y-37919D01*
X91078Y-37839D01*
X91175Y-37743D01*
X91270Y-37839D01*
X91463Y-37919D01*
X91672Y-37919D01*
X91866Y-37839D01*
X91962Y-37743D01*
X92058Y-37839D01*
X92251Y-37919D01*
X92460Y-37919D01*
X92653Y-37839D01*
X92750Y-37743D01*
X92845Y-37839D01*
X93038Y-37919D01*
X93247Y-37919D01*
X93441Y-37839D01*
X93537Y-37743D01*
X93632Y-37839D01*
X93826Y-37919D01*
X94035Y-37919D01*
X94228Y-37839D01*
X94324Y-37743D01*
X94420Y-37839D01*
X94613Y-37919D01*
X94822Y-37919D01*
X95015Y-37839D01*
X95112Y-37743D01*
X95207Y-37839D01*
X95400Y-37919D01*
X95609Y-37919D01*
X95803Y-37839D01*
X95951Y-37691D01*
X96031Y-37498D01*
X96031Y-37289D01*
X96031Y-50744D01*
X95864Y-50675D01*
X95650Y-50675D01*
X95650Y-41650D01*
X95574Y-41467D01*
X95433Y-41326D01*
X95249Y-41250D01*
X95050Y-41249D01*
X94867Y-41325D01*
X94726Y-41466D01*
X94650Y-41650D01*
X94649Y-41849D01*
X94725Y-42032D01*
X94866Y-42173D01*
X95050Y-42249D01*
X95249Y-42250D01*
X95432Y-42174D01*
X95573Y-42033D01*
X95649Y-41849D01*
X95650Y-41650D01*
X95650Y-50675D01*
X95636Y-50675D01*
X95424Y-50762D01*
X95320Y-50866D01*
X95286Y-50783D01*
X95216Y-50713D01*
X95124Y-50675D01*
X95025Y-50675D01*
X94375Y-50675D01*
X94283Y-50713D01*
X94213Y-50783D01*
X94175Y-50875D01*
X94175Y-50974D01*
X94175Y-51624D01*
X94213Y-51716D01*
X94283Y-51786D01*
X94366Y-51820D01*
X94262Y-51923D01*
X94175Y-52135D01*
X94175Y-52363D01*
X94262Y-52575D01*
X94423Y-52737D01*
X94635Y-52824D01*
X94863Y-52824D01*
X95075Y-52737D01*
X95237Y-52576D01*
X95249Y-52544D01*
X95262Y-52575D01*
X95423Y-52737D01*
X95635Y-52824D01*
X95863Y-52824D01*
X96075Y-52737D01*
X96237Y-52576D01*
X96324Y-52364D01*
X96324Y-52136D01*
X96324Y-62675D01*
X96031Y-62675D01*
X96031Y-59289D01*
X95951Y-59096D01*
X95855Y-58999D01*
X95951Y-58904D01*
X96031Y-58711D01*
X96031Y-58502D01*
X95951Y-58308D01*
X95804Y-58160D01*
X95610Y-58080D01*
X95401Y-58080D01*
X95208Y-58160D01*
X95112Y-58256D01*
X95016Y-58160D01*
X94823Y-58080D01*
X94614Y-58080D01*
X94421Y-58160D01*
X94324Y-58256D01*
X94229Y-58160D01*
X94036Y-58080D01*
X93827Y-58080D01*
X93824Y-58081D01*
X93824Y-48386D01*
X93737Y-48174D01*
X93576Y-48012D01*
X93544Y-48000D01*
X93575Y-47987D01*
X93737Y-47826D01*
X93824Y-47614D01*
X93824Y-47386D01*
X93737Y-47174D01*
X93576Y-47012D01*
X93364Y-46925D01*
X93136Y-46925D01*
X92924Y-47012D01*
X92762Y-47173D01*
X92750Y-47205D01*
X92737Y-47174D01*
X92576Y-47012D01*
X92364Y-46925D01*
X92136Y-46925D01*
X91924Y-47012D01*
X91762Y-47173D01*
X91750Y-47205D01*
X91737Y-47174D01*
X91576Y-47012D01*
X91364Y-46925D01*
X91136Y-46925D01*
X90924Y-47012D01*
X90762Y-47173D01*
X90750Y-47205D01*
X90737Y-47174D01*
X90576Y-47012D01*
X90364Y-46925D01*
X90136Y-46925D01*
X89924Y-47012D01*
X89820Y-47116D01*
X89786Y-47033D01*
X89716Y-46963D01*
X89624Y-46925D01*
X89525Y-46925D01*
X88875Y-46925D01*
X88783Y-46963D01*
X88713Y-47033D01*
X88675Y-47125D01*
X88675Y-47224D01*
X88675Y-47874D01*
X88713Y-47966D01*
X88783Y-48036D01*
X88866Y-48070D01*
X88762Y-48173D01*
X88675Y-48385D01*
X88675Y-48613D01*
X88762Y-48825D01*
X88923Y-48987D01*
X89135Y-49074D01*
X89363Y-49074D01*
X89575Y-48987D01*
X89737Y-48826D01*
X89749Y-48794D01*
X89762Y-48825D01*
X89923Y-48987D01*
X90135Y-49074D01*
X90363Y-49074D01*
X90575Y-48987D01*
X90737Y-48826D01*
X90749Y-48794D01*
X90762Y-48825D01*
X90923Y-48987D01*
X91135Y-49074D01*
X91363Y-49074D01*
X91575Y-48987D01*
X91737Y-48826D01*
X91749Y-48794D01*
X91762Y-48825D01*
X91923Y-48987D01*
X92135Y-49074D01*
X92363Y-49074D01*
X92575Y-48987D01*
X92737Y-48826D01*
X92749Y-48794D01*
X92762Y-48825D01*
X92923Y-48987D01*
X93135Y-49074D01*
X93363Y-49074D01*
X93575Y-48987D01*
X93737Y-48826D01*
X93824Y-48614D01*
X93824Y-48386D01*
X93824Y-58081D01*
X93750Y-58112D01*
X93750Y-51650D01*
X93674Y-51467D01*
X93533Y-51326D01*
X93349Y-51250D01*
X93150Y-51249D01*
X92967Y-51325D01*
X92826Y-51466D01*
X92750Y-51650D01*
X92749Y-51849D01*
X92825Y-52032D01*
X92966Y-52173D01*
X93150Y-52249D01*
X93349Y-52250D01*
X93532Y-52174D01*
X93673Y-52033D01*
X93749Y-51849D01*
X93750Y-51650D01*
X93750Y-58112D01*
X93633Y-58160D01*
X93537Y-58256D01*
X93441Y-58160D01*
X93248Y-58080D01*
X93039Y-58080D01*
X92846Y-58160D01*
X92750Y-58256D01*
X92750Y-52150D01*
X92674Y-51967D01*
X92533Y-51826D01*
X92349Y-51750D01*
X92349Y-51750D01*
X92532Y-51674D01*
X92673Y-51533D01*
X92749Y-51349D01*
X92750Y-51150D01*
X92674Y-50967D01*
X92533Y-50826D01*
X92349Y-50750D01*
X92150Y-50749D01*
X91967Y-50825D01*
X91826Y-50966D01*
X91750Y-51150D01*
X91749Y-51349D01*
X91825Y-51532D01*
X91966Y-51673D01*
X92150Y-51749D01*
X92150Y-51749D01*
X91967Y-51825D01*
X91826Y-51966D01*
X91750Y-52150D01*
X91749Y-52349D01*
X91825Y-52532D01*
X91966Y-52673D01*
X92150Y-52749D01*
X92349Y-52750D01*
X92532Y-52674D01*
X92673Y-52533D01*
X92749Y-52349D01*
X92750Y-52150D01*
X92750Y-58256D01*
X92749Y-58256D01*
X92654Y-58160D01*
X92461Y-58080D01*
X92252Y-58080D01*
X92058Y-58160D01*
X91962Y-58256D01*
X91867Y-58160D01*
X91673Y-58080D01*
X91464Y-58080D01*
X91271Y-58160D01*
X91175Y-58256D01*
X91079Y-58160D01*
X90886Y-58080D01*
X90677Y-58080D01*
X90484Y-58160D01*
X90387Y-58256D01*
X90292Y-58160D01*
X90099Y-58080D01*
X89890Y-58080D01*
X89696Y-58160D01*
X89548Y-58308D01*
X89468Y-58501D01*
X89468Y-58710D01*
X89548Y-58903D01*
X89644Y-59000D01*
X89548Y-59095D01*
X89468Y-59288D01*
X89468Y-59497D01*
X89548Y-59691D01*
X89695Y-59839D01*
X89889Y-59919D01*
X90098Y-59919D01*
X90291Y-59839D01*
X90387Y-59743D01*
X90483Y-59839D01*
X90676Y-59919D01*
X90885Y-59919D01*
X91078Y-59839D01*
X91175Y-59743D01*
X91270Y-59839D01*
X91463Y-59919D01*
X91672Y-59919D01*
X91866Y-59839D01*
X91962Y-59743D01*
X92058Y-59839D01*
X92251Y-59919D01*
X92460Y-59919D01*
X92653Y-59839D01*
X92750Y-59743D01*
X92845Y-59839D01*
X93038Y-59919D01*
X93247Y-59919D01*
X93441Y-59839D01*
X93537Y-59743D01*
X93632Y-59839D01*
X93826Y-59919D01*
X94035Y-59919D01*
X94228Y-59839D01*
X94324Y-59743D01*
X94420Y-59839D01*
X94613Y-59919D01*
X94822Y-59919D01*
X95015Y-59839D01*
X95112Y-59743D01*
X95207Y-59839D01*
X95400Y-59919D01*
X95609Y-59919D01*
X95803Y-59839D01*
X95951Y-59691D01*
X96031Y-59498D01*
X96031Y-59289D01*
X96031Y-62675D01*
X93300Y-62675D01*
X93300Y-60800D01*
X93224Y-60617D01*
X93083Y-60476D01*
X92899Y-60400D01*
X92700Y-60399D01*
X92517Y-60475D01*
X92376Y-60616D01*
X92300Y-60800D01*
X92299Y-60999D01*
X92375Y-61182D01*
X92516Y-61323D01*
X92700Y-61399D01*
X92899Y-61400D01*
X93082Y-61324D01*
X93223Y-61183D01*
X93299Y-60999D01*
X93300Y-60800D01*
X93300Y-62675D01*
X89209Y-62675D01*
X89332Y-62624D01*
X89473Y-62483D01*
X89549Y-62299D01*
X89550Y-62100D01*
X89474Y-61917D01*
X89333Y-61776D01*
X89149Y-61700D01*
X88950Y-61699D01*
X88767Y-61775D01*
X88626Y-61916D01*
X88550Y-62100D01*
X88549Y-62299D01*
X88625Y-62482D01*
X88766Y-62623D01*
X88890Y-62675D01*
X87550Y-62675D01*
X87550Y-51560D01*
X87550Y-44260D01*
X87481Y-44095D01*
X87355Y-43968D01*
X87189Y-43900D01*
X87120Y-43900D01*
X87120Y-34417D01*
X86980Y-34079D01*
X86721Y-33820D01*
X86383Y-33680D01*
X86017Y-33679D01*
X85679Y-33819D01*
X85420Y-34078D01*
X85280Y-34416D01*
X85279Y-34782D01*
X85419Y-35120D01*
X85678Y-35379D01*
X86016Y-35519D01*
X86382Y-35520D01*
X86720Y-35380D01*
X86979Y-35121D01*
X87119Y-34783D01*
X87120Y-34417D01*
X87120Y-43900D01*
X87010Y-43899D01*
X86845Y-43968D01*
X86718Y-44094D01*
X86650Y-44260D01*
X86649Y-44439D01*
X86718Y-44604D01*
X86844Y-44731D01*
X87010Y-44799D01*
X87189Y-44800D01*
X87354Y-44731D01*
X87481Y-44605D01*
X87549Y-44439D01*
X87550Y-44260D01*
X87550Y-51560D01*
X87481Y-51395D01*
X87355Y-51268D01*
X87189Y-51200D01*
X87010Y-51199D01*
X86845Y-51268D01*
X86824Y-51288D01*
X86824Y-48386D01*
X86737Y-48174D01*
X86576Y-48012D01*
X86544Y-48000D01*
X86575Y-47987D01*
X86737Y-47826D01*
X86824Y-47614D01*
X86824Y-47386D01*
X86737Y-47174D01*
X86576Y-47012D01*
X86364Y-46925D01*
X86284Y-46925D01*
X86284Y-37884D01*
X86195Y-37669D01*
X86031Y-37504D01*
X85816Y-37415D01*
X85584Y-37415D01*
X85369Y-37504D01*
X85204Y-37668D01*
X85200Y-37679D01*
X85195Y-37669D01*
X85120Y-37593D01*
X85120Y-34417D01*
X84980Y-34079D01*
X84721Y-33820D01*
X84383Y-33680D01*
X84017Y-33679D01*
X83679Y-33819D01*
X83420Y-34078D01*
X83280Y-34416D01*
X83279Y-34782D01*
X83419Y-35120D01*
X83678Y-35379D01*
X84016Y-35519D01*
X84382Y-35520D01*
X84720Y-35380D01*
X84979Y-35121D01*
X85119Y-34783D01*
X85120Y-34417D01*
X85120Y-37593D01*
X85031Y-37504D01*
X84816Y-37415D01*
X84584Y-37415D01*
X84369Y-37504D01*
X84204Y-37668D01*
X84115Y-37883D01*
X84115Y-38115D01*
X84204Y-38330D01*
X84368Y-38495D01*
X84583Y-38584D01*
X84815Y-38584D01*
X85030Y-38495D01*
X85195Y-38331D01*
X85199Y-38320D01*
X85204Y-38330D01*
X85368Y-38495D01*
X85583Y-38584D01*
X85815Y-38584D01*
X86030Y-38495D01*
X86195Y-38331D01*
X86284Y-38116D01*
X86284Y-37884D01*
X86284Y-46925D01*
X86136Y-46925D01*
X85924Y-47012D01*
X85762Y-47173D01*
X85750Y-47205D01*
X85737Y-47174D01*
X85576Y-47012D01*
X85364Y-46925D01*
X85136Y-46925D01*
X84924Y-47012D01*
X84820Y-47116D01*
X84786Y-47033D01*
X84716Y-46963D01*
X84624Y-46925D01*
X84525Y-46925D01*
X83875Y-46925D01*
X83850Y-46935D01*
X83850Y-44260D01*
X83781Y-44095D01*
X83655Y-43968D01*
X83489Y-43900D01*
X83310Y-43899D01*
X83145Y-43968D01*
X83018Y-44094D01*
X82950Y-44260D01*
X82949Y-44439D01*
X83018Y-44604D01*
X83144Y-44731D01*
X83310Y-44799D01*
X83489Y-44800D01*
X83654Y-44731D01*
X83781Y-44605D01*
X83849Y-44439D01*
X83850Y-44260D01*
X83850Y-46935D01*
X83783Y-46963D01*
X83713Y-47033D01*
X83675Y-47125D01*
X83675Y-47224D01*
X83675Y-47874D01*
X83713Y-47966D01*
X83783Y-48036D01*
X83866Y-48070D01*
X83762Y-48173D01*
X83675Y-48385D01*
X83675Y-48613D01*
X83762Y-48825D01*
X83923Y-48987D01*
X84135Y-49074D01*
X84363Y-49074D01*
X84575Y-48987D01*
X84737Y-48826D01*
X84749Y-48794D01*
X84762Y-48825D01*
X84923Y-48987D01*
X85135Y-49074D01*
X85363Y-49074D01*
X85575Y-48987D01*
X85737Y-48826D01*
X85749Y-48794D01*
X85762Y-48825D01*
X85923Y-48987D01*
X86135Y-49074D01*
X86363Y-49074D01*
X86575Y-48987D01*
X86737Y-48826D01*
X86824Y-48614D01*
X86824Y-48386D01*
X86824Y-51288D01*
X86718Y-51394D01*
X86650Y-51560D01*
X86649Y-51739D01*
X86718Y-51904D01*
X86844Y-52031D01*
X87010Y-52099D01*
X87189Y-52100D01*
X87354Y-52031D01*
X87481Y-51905D01*
X87549Y-51739D01*
X87550Y-51560D01*
X87550Y-62675D01*
X87170Y-62675D01*
X87170Y-61217D01*
X87030Y-60879D01*
X86771Y-60620D01*
X86433Y-60480D01*
X86334Y-60480D01*
X86334Y-57884D01*
X86245Y-57669D01*
X86081Y-57504D01*
X85866Y-57415D01*
X85634Y-57415D01*
X85419Y-57504D01*
X85254Y-57668D01*
X85250Y-57679D01*
X85245Y-57669D01*
X85081Y-57504D01*
X84866Y-57415D01*
X84634Y-57415D01*
X84419Y-57504D01*
X84254Y-57668D01*
X84165Y-57883D01*
X84165Y-58115D01*
X84254Y-58330D01*
X84418Y-58495D01*
X84633Y-58584D01*
X84865Y-58584D01*
X85080Y-58495D01*
X85245Y-58331D01*
X85249Y-58320D01*
X85254Y-58330D01*
X85418Y-58495D01*
X85633Y-58584D01*
X85865Y-58584D01*
X86080Y-58495D01*
X86245Y-58331D01*
X86334Y-58116D01*
X86334Y-57884D01*
X86334Y-60480D01*
X86067Y-60479D01*
X85729Y-60619D01*
X85470Y-60878D01*
X85330Y-61216D01*
X85329Y-61582D01*
X85469Y-61920D01*
X85728Y-62179D01*
X86066Y-62319D01*
X86432Y-62320D01*
X86770Y-62180D01*
X87029Y-61921D01*
X87169Y-61583D01*
X87170Y-61217D01*
X87170Y-62675D01*
X85170Y-62675D01*
X85170Y-61217D01*
X85030Y-60879D01*
X84771Y-60620D01*
X84433Y-60480D01*
X84067Y-60479D01*
X83850Y-60569D01*
X83850Y-51560D01*
X83781Y-51395D01*
X83655Y-51268D01*
X83489Y-51200D01*
X83310Y-51199D01*
X83145Y-51268D01*
X83018Y-51394D01*
X82950Y-51560D01*
X82949Y-51739D01*
X83018Y-51904D01*
X83144Y-52031D01*
X83310Y-52099D01*
X83489Y-52100D01*
X83654Y-52031D01*
X83781Y-51905D01*
X83849Y-51739D01*
X83850Y-51560D01*
X83850Y-60569D01*
X83729Y-60619D01*
X83470Y-60878D01*
X83330Y-61216D01*
X83329Y-61582D01*
X83469Y-61920D01*
X83728Y-62179D01*
X84066Y-62319D01*
X84432Y-62320D01*
X84770Y-62180D01*
X85029Y-61921D01*
X85169Y-61583D01*
X85170Y-61217D01*
X85170Y-62675D01*
X81900Y-62675D01*
X81900Y-62000D01*
X81900Y-33800D01*
X81824Y-33617D01*
X81683Y-33476D01*
X81499Y-33400D01*
X81300Y-33399D01*
X81117Y-33475D01*
X80976Y-33616D01*
X80900Y-33800D01*
X80899Y-33999D01*
X80975Y-34182D01*
X81116Y-34323D01*
X81300Y-34399D01*
X81499Y-34400D01*
X81682Y-34324D01*
X81823Y-34183D01*
X81899Y-33999D01*
X81900Y-33800D01*
X81900Y-62000D01*
X81824Y-61819D01*
X81824Y-48386D01*
X81737Y-48174D01*
X81576Y-48012D01*
X81544Y-48000D01*
X81575Y-47987D01*
X81737Y-47826D01*
X81824Y-47614D01*
X81824Y-47386D01*
X81737Y-47174D01*
X81576Y-47012D01*
X81500Y-46981D01*
X81500Y-44900D01*
X81424Y-44717D01*
X81283Y-44576D01*
X81099Y-44500D01*
X81031Y-44500D01*
X81031Y-37289D01*
X80951Y-37096D01*
X80855Y-36999D01*
X80951Y-36904D01*
X81031Y-36711D01*
X81031Y-36502D01*
X80951Y-36308D01*
X80804Y-36160D01*
X80610Y-36080D01*
X80401Y-36080D01*
X80208Y-36160D01*
X80112Y-36256D01*
X80016Y-36160D01*
X79823Y-36080D01*
X79614Y-36080D01*
X79421Y-36160D01*
X79324Y-36256D01*
X79229Y-36160D01*
X79036Y-36080D01*
X78827Y-36080D01*
X78633Y-36160D01*
X78537Y-36256D01*
X78441Y-36160D01*
X78250Y-36081D01*
X78250Y-34950D01*
X78174Y-34767D01*
X78033Y-34626D01*
X77849Y-34550D01*
X77650Y-34549D01*
X77467Y-34625D01*
X77326Y-34766D01*
X77250Y-34950D01*
X77249Y-35149D01*
X77325Y-35332D01*
X77466Y-35473D01*
X77650Y-35549D01*
X77849Y-35550D01*
X78032Y-35474D01*
X78173Y-35333D01*
X78249Y-35149D01*
X78250Y-34950D01*
X78250Y-36081D01*
X78248Y-36080D01*
X78039Y-36080D01*
X77846Y-36160D01*
X77749Y-36256D01*
X77654Y-36160D01*
X77461Y-36080D01*
X77252Y-36080D01*
X77058Y-36160D01*
X76962Y-36256D01*
X76867Y-36160D01*
X76673Y-36080D01*
X76464Y-36080D01*
X76271Y-36160D01*
X76175Y-36256D01*
X76079Y-36160D01*
X75886Y-36080D01*
X75677Y-36080D01*
X75484Y-36160D01*
X75400Y-36244D01*
X75400Y-33850D01*
X75324Y-33667D01*
X75183Y-33526D01*
X74999Y-33450D01*
X74800Y-33449D01*
X74617Y-33525D01*
X74476Y-33666D01*
X74400Y-33850D01*
X74399Y-34049D01*
X74475Y-34232D01*
X74616Y-34373D01*
X74800Y-34449D01*
X74999Y-34450D01*
X75182Y-34374D01*
X75323Y-34233D01*
X75399Y-34049D01*
X75400Y-33850D01*
X75400Y-36244D01*
X75387Y-36256D01*
X75292Y-36160D01*
X75099Y-36080D01*
X74890Y-36080D01*
X74696Y-36160D01*
X74548Y-36308D01*
X74468Y-36501D01*
X74468Y-36710D01*
X74548Y-36903D01*
X74644Y-37000D01*
X74548Y-37095D01*
X74468Y-37288D01*
X74468Y-37497D01*
X74548Y-37691D01*
X74695Y-37839D01*
X74889Y-37919D01*
X75098Y-37919D01*
X75291Y-37839D01*
X75387Y-37743D01*
X75483Y-37839D01*
X75676Y-37919D01*
X75885Y-37919D01*
X76078Y-37839D01*
X76175Y-37743D01*
X76270Y-37839D01*
X76463Y-37919D01*
X76672Y-37919D01*
X76866Y-37839D01*
X76962Y-37743D01*
X77058Y-37839D01*
X77251Y-37919D01*
X77460Y-37919D01*
X77653Y-37839D01*
X77750Y-37743D01*
X77845Y-37839D01*
X78038Y-37919D01*
X78247Y-37919D01*
X78441Y-37839D01*
X78537Y-37743D01*
X78632Y-37839D01*
X78826Y-37919D01*
X79035Y-37919D01*
X79228Y-37839D01*
X79324Y-37743D01*
X79420Y-37839D01*
X79613Y-37919D01*
X79822Y-37919D01*
X80015Y-37839D01*
X80112Y-37743D01*
X80207Y-37839D01*
X80400Y-37919D01*
X80609Y-37919D01*
X80803Y-37839D01*
X80951Y-37691D01*
X81031Y-37498D01*
X81031Y-37289D01*
X81031Y-44500D01*
X80900Y-44499D01*
X80717Y-44575D01*
X80576Y-44716D01*
X80500Y-44900D01*
X80499Y-45099D01*
X80575Y-45282D01*
X80716Y-45423D01*
X80900Y-45499D01*
X81099Y-45500D01*
X81282Y-45424D01*
X81423Y-45283D01*
X81499Y-45099D01*
X81500Y-44900D01*
X81500Y-46981D01*
X81364Y-46925D01*
X81136Y-46925D01*
X80924Y-47012D01*
X80762Y-47173D01*
X80750Y-47205D01*
X80737Y-47174D01*
X80576Y-47012D01*
X80364Y-46925D01*
X80136Y-46925D01*
X79924Y-47012D01*
X79762Y-47173D01*
X79750Y-47205D01*
X79737Y-47174D01*
X79576Y-47012D01*
X79364Y-46925D01*
X79350Y-46925D01*
X79350Y-44300D01*
X79274Y-44117D01*
X79133Y-43976D01*
X78949Y-43900D01*
X78750Y-43899D01*
X78567Y-43975D01*
X78426Y-44116D01*
X78350Y-44300D01*
X78349Y-44499D01*
X78425Y-44682D01*
X78566Y-44823D01*
X78750Y-44899D01*
X78949Y-44900D01*
X79132Y-44824D01*
X79273Y-44683D01*
X79349Y-44499D01*
X79350Y-44300D01*
X79350Y-46925D01*
X79136Y-46925D01*
X78924Y-47012D01*
X78762Y-47173D01*
X78750Y-47205D01*
X78737Y-47174D01*
X78576Y-47012D01*
X78364Y-46925D01*
X78136Y-46925D01*
X77924Y-47012D01*
X77820Y-47116D01*
X77786Y-47033D01*
X77716Y-46963D01*
X77624Y-46925D01*
X77525Y-46925D01*
X76875Y-46925D01*
X76783Y-46963D01*
X76713Y-47033D01*
X76675Y-47125D01*
X76675Y-47224D01*
X76675Y-47874D01*
X76713Y-47966D01*
X76783Y-48036D01*
X76866Y-48070D01*
X76762Y-48173D01*
X76675Y-48385D01*
X76675Y-48613D01*
X76762Y-48825D01*
X76923Y-48987D01*
X77135Y-49074D01*
X77363Y-49074D01*
X77575Y-48987D01*
X77737Y-48826D01*
X77749Y-48794D01*
X77762Y-48825D01*
X77923Y-48987D01*
X78135Y-49074D01*
X78363Y-49074D01*
X78575Y-48987D01*
X78737Y-48826D01*
X78749Y-48794D01*
X78762Y-48825D01*
X78923Y-48987D01*
X79135Y-49074D01*
X79363Y-49074D01*
X79575Y-48987D01*
X79737Y-48826D01*
X79749Y-48794D01*
X79762Y-48825D01*
X79923Y-48987D01*
X80135Y-49074D01*
X80363Y-49074D01*
X80575Y-48987D01*
X80737Y-48826D01*
X80749Y-48794D01*
X80762Y-48825D01*
X80923Y-48987D01*
X81135Y-49074D01*
X81363Y-49074D01*
X81575Y-48987D01*
X81737Y-48826D01*
X81824Y-48614D01*
X81824Y-48386D01*
X81824Y-61819D01*
X81824Y-61817D01*
X81683Y-61676D01*
X81500Y-61600D01*
X81500Y-50600D01*
X81424Y-50417D01*
X81283Y-50276D01*
X81099Y-50200D01*
X80900Y-50199D01*
X80717Y-50275D01*
X80576Y-50416D01*
X80500Y-50600D01*
X80499Y-50799D01*
X80575Y-50982D01*
X80716Y-51123D01*
X80900Y-51199D01*
X81099Y-51200D01*
X81282Y-51124D01*
X81423Y-50983D01*
X81499Y-50799D01*
X81500Y-50600D01*
X81500Y-61600D01*
X81499Y-61600D01*
X81300Y-61599D01*
X81117Y-61675D01*
X81031Y-61761D01*
X81031Y-59289D01*
X80951Y-59096D01*
X80855Y-58999D01*
X80951Y-58904D01*
X81031Y-58711D01*
X81031Y-58502D01*
X80951Y-58308D01*
X80804Y-58160D01*
X80610Y-58080D01*
X80401Y-58080D01*
X80208Y-58160D01*
X80112Y-58256D01*
X80016Y-58160D01*
X79823Y-58080D01*
X79614Y-58080D01*
X79421Y-58160D01*
X79324Y-58256D01*
X79229Y-58160D01*
X79036Y-58080D01*
X78827Y-58080D01*
X78633Y-58160D01*
X78537Y-58256D01*
X78441Y-58160D01*
X78248Y-58080D01*
X78039Y-58080D01*
X77846Y-58160D01*
X77749Y-58256D01*
X77654Y-58160D01*
X77461Y-58080D01*
X77252Y-58080D01*
X77058Y-58160D01*
X76962Y-58256D01*
X76867Y-58160D01*
X76673Y-58080D01*
X76464Y-58080D01*
X76450Y-58086D01*
X76450Y-52350D01*
X76450Y-50950D01*
X76374Y-50767D01*
X76233Y-50626D01*
X76049Y-50550D01*
X75850Y-50549D01*
X75667Y-50625D01*
X75526Y-50766D01*
X75450Y-50950D01*
X75450Y-50950D01*
X75450Y-45150D01*
X75450Y-43050D01*
X75374Y-42867D01*
X75233Y-42726D01*
X75049Y-42650D01*
X74850Y-42649D01*
X74667Y-42725D01*
X74526Y-42866D01*
X74450Y-43050D01*
X74449Y-43249D01*
X74525Y-43432D01*
X74666Y-43573D01*
X74850Y-43649D01*
X75049Y-43650D01*
X75232Y-43574D01*
X75373Y-43433D01*
X75449Y-43249D01*
X75450Y-43050D01*
X75450Y-45150D01*
X75374Y-44967D01*
X75233Y-44826D01*
X75049Y-44750D01*
X74850Y-44749D01*
X74667Y-44825D01*
X74526Y-44966D01*
X74450Y-45150D01*
X74449Y-45349D01*
X74525Y-45532D01*
X74666Y-45673D01*
X74850Y-45749D01*
X75049Y-45750D01*
X75232Y-45674D01*
X75373Y-45533D01*
X75449Y-45349D01*
X75450Y-45150D01*
X75450Y-50950D01*
X75449Y-51149D01*
X75525Y-51332D01*
X75666Y-51473D01*
X75850Y-51549D01*
X76049Y-51550D01*
X76232Y-51474D01*
X76373Y-51333D01*
X76449Y-51149D01*
X76450Y-50950D01*
X76450Y-52350D01*
X76374Y-52167D01*
X76233Y-52026D01*
X76049Y-51950D01*
X75850Y-51949D01*
X75667Y-52025D01*
X75526Y-52166D01*
X75450Y-52350D01*
X75449Y-52549D01*
X75525Y-52732D01*
X75666Y-52873D01*
X75850Y-52949D01*
X76049Y-52950D01*
X76232Y-52874D01*
X76373Y-52733D01*
X76449Y-52549D01*
X76450Y-52350D01*
X76450Y-58086D01*
X76271Y-58160D01*
X76175Y-58256D01*
X76079Y-58160D01*
X75886Y-58080D01*
X75677Y-58080D01*
X75484Y-58160D01*
X75387Y-58256D01*
X75292Y-58160D01*
X75099Y-58080D01*
X74890Y-58080D01*
X74696Y-58160D01*
X74600Y-58256D01*
X74600Y-48000D01*
X74524Y-47817D01*
X74383Y-47676D01*
X74199Y-47600D01*
X74000Y-47599D01*
X73817Y-47675D01*
X73676Y-47816D01*
X73600Y-48000D01*
X73599Y-48199D01*
X73675Y-48382D01*
X73816Y-48523D01*
X74000Y-48599D01*
X74199Y-48600D01*
X74382Y-48524D01*
X74523Y-48383D01*
X74599Y-48199D01*
X74600Y-48000D01*
X74600Y-58256D01*
X74548Y-58308D01*
X74468Y-58501D01*
X74468Y-58710D01*
X74548Y-58903D01*
X74644Y-59000D01*
X74548Y-59095D01*
X74468Y-59288D01*
X74468Y-59497D01*
X74548Y-59691D01*
X74695Y-59839D01*
X74889Y-59919D01*
X75098Y-59919D01*
X75291Y-59839D01*
X75387Y-59743D01*
X75483Y-59839D01*
X75676Y-59919D01*
X75885Y-59919D01*
X76078Y-59839D01*
X76175Y-59743D01*
X76270Y-59839D01*
X76463Y-59919D01*
X76672Y-59919D01*
X76866Y-59839D01*
X76962Y-59743D01*
X77058Y-59839D01*
X77251Y-59919D01*
X77460Y-59919D01*
X77653Y-59839D01*
X77750Y-59743D01*
X77845Y-59839D01*
X78038Y-59919D01*
X78247Y-59919D01*
X78441Y-59839D01*
X78537Y-59743D01*
X78632Y-59839D01*
X78826Y-59919D01*
X79035Y-59919D01*
X79228Y-59839D01*
X79324Y-59743D01*
X79420Y-59839D01*
X79613Y-59919D01*
X79822Y-59919D01*
X80015Y-59839D01*
X80112Y-59743D01*
X80207Y-59839D01*
X80400Y-59919D01*
X80609Y-59919D01*
X80803Y-59839D01*
X80951Y-59691D01*
X81031Y-59498D01*
X81031Y-59289D01*
X81031Y-61761D01*
X80976Y-61816D01*
X80900Y-62000D01*
X80899Y-62199D01*
X80975Y-62382D01*
X81116Y-62523D01*
X81300Y-62599D01*
X81499Y-62600D01*
X81682Y-62524D01*
X81823Y-62383D01*
X81899Y-62199D01*
X81900Y-62000D01*
X81900Y-62675D01*
X78250Y-62675D01*
X78250Y-60750D01*
X78174Y-60567D01*
X78033Y-60426D01*
X77849Y-60350D01*
X77650Y-60349D01*
X77467Y-60425D01*
X77326Y-60566D01*
X77250Y-60750D01*
X77249Y-60949D01*
X77325Y-61132D01*
X77466Y-61273D01*
X77650Y-61349D01*
X77849Y-61350D01*
X78032Y-61274D01*
X78173Y-61133D01*
X78249Y-60949D01*
X78250Y-60750D01*
X78250Y-62675D01*
X74600Y-62675D01*
X74600Y-62000D01*
X74524Y-61817D01*
X74450Y-61742D01*
X74450Y-53100D01*
X74450Y-51700D01*
X74450Y-50300D01*
X74374Y-50117D01*
X74233Y-49976D01*
X74049Y-49900D01*
X73850Y-49899D01*
X73667Y-49975D01*
X73590Y-50052D01*
X73590Y-40333D01*
X73463Y-40024D01*
X73226Y-39787D01*
X72917Y-39659D01*
X72583Y-39659D01*
X72274Y-39787D01*
X72037Y-40023D01*
X71909Y-40332D01*
X71909Y-40666D01*
X72037Y-40975D01*
X72273Y-41212D01*
X72582Y-41340D01*
X72916Y-41340D01*
X73225Y-41213D01*
X73462Y-40976D01*
X73590Y-40667D01*
X73590Y-40333D01*
X73590Y-50052D01*
X73526Y-50116D01*
X73450Y-50300D01*
X73449Y-50499D01*
X73525Y-50682D01*
X73666Y-50823D01*
X73850Y-50899D01*
X74049Y-50900D01*
X74232Y-50824D01*
X74373Y-50683D01*
X74449Y-50499D01*
X74450Y-50300D01*
X74450Y-51700D01*
X74374Y-51517D01*
X74233Y-51376D01*
X74049Y-51300D01*
X73850Y-51299D01*
X73667Y-51375D01*
X73526Y-51516D01*
X73450Y-51700D01*
X73449Y-51899D01*
X73525Y-52082D01*
X73666Y-52223D01*
X73850Y-52299D01*
X74049Y-52300D01*
X74232Y-52224D01*
X74373Y-52083D01*
X74449Y-51899D01*
X74450Y-51700D01*
X74450Y-53100D01*
X74374Y-52917D01*
X74233Y-52776D01*
X74049Y-52700D01*
X73850Y-52699D01*
X73667Y-52775D01*
X73526Y-52916D01*
X73450Y-53100D01*
X73449Y-53299D01*
X73525Y-53482D01*
X73666Y-53623D01*
X73850Y-53699D01*
X74049Y-53700D01*
X74232Y-53624D01*
X74373Y-53483D01*
X74449Y-53299D01*
X74450Y-53100D01*
X74450Y-61742D01*
X74383Y-61676D01*
X74199Y-61600D01*
X74000Y-61599D01*
X73817Y-61675D01*
X73676Y-61816D01*
X73600Y-62000D01*
X73599Y-62199D01*
X73675Y-62382D01*
X73816Y-62523D01*
X74000Y-62599D01*
X74199Y-62600D01*
X74382Y-62524D01*
X74523Y-62383D01*
X74599Y-62199D01*
X74600Y-62000D01*
X74600Y-62675D01*
X73590Y-62675D01*
X73590Y-55333D01*
X73463Y-55024D01*
X73226Y-54787D01*
X72917Y-54659D01*
X72583Y-54659D01*
X72274Y-54787D01*
X72037Y-55023D01*
X71909Y-55332D01*
X71909Y-55666D01*
X72037Y-55975D01*
X72273Y-56212D01*
X72582Y-56340D01*
X72916Y-56340D01*
X73225Y-56213D01*
X73462Y-55976D01*
X73590Y-55667D01*
X73590Y-55333D01*
X73590Y-62675D01*
X71825Y-62675D01*
X71825Y-33325D01*
X98675Y-33325D01*
X98675Y-62675D01*
X98675Y-62675D01*
G37*
G54D18*
X98675Y-62675D02*
X98590Y-62675D01*
X98590Y-55333D01*
X98590Y-40333D01*
X98463Y-40024D01*
X98226Y-39787D01*
X97917Y-39659D01*
X97583Y-39659D01*
X97274Y-39787D01*
X97037Y-40023D01*
X96909Y-40332D01*
X96909Y-40666D01*
X97037Y-40975D01*
X97273Y-41212D01*
X97582Y-41340D01*
X97916Y-41340D01*
X98225Y-41213D01*
X98462Y-40976D01*
X98590Y-40667D01*
X98590Y-40333D01*
X98590Y-55333D01*
X98463Y-55024D01*
X98250Y-54811D01*
X98250Y-52150D01*
X98174Y-51967D01*
X98033Y-51826D01*
X97849Y-51750D01*
X97849Y-51750D01*
X98032Y-51674D01*
X98173Y-51533D01*
X98249Y-51349D01*
X98250Y-51150D01*
X98174Y-50967D01*
X98033Y-50826D01*
X97849Y-50750D01*
X97650Y-50749D01*
X97467Y-50825D01*
X97450Y-50842D01*
X97450Y-42800D01*
X97374Y-42617D01*
X97233Y-42476D01*
X97049Y-42400D01*
X96850Y-42399D01*
X96850Y-42400D01*
X96850Y-33850D01*
X96774Y-33667D01*
X96633Y-33526D01*
X96449Y-33450D01*
X96250Y-33449D01*
X96067Y-33525D01*
X95926Y-33666D01*
X95850Y-33850D01*
X95849Y-34049D01*
X95925Y-34232D01*
X96066Y-34373D01*
X96250Y-34449D01*
X96449Y-34450D01*
X96632Y-34374D01*
X96773Y-34233D01*
X96849Y-34049D01*
X96850Y-33850D01*
X96850Y-42400D01*
X96667Y-42475D01*
X96526Y-42616D01*
X96450Y-42800D01*
X96449Y-42999D01*
X96525Y-43182D01*
X96666Y-43323D01*
X96850Y-43399D01*
X97049Y-43400D01*
X97232Y-43324D01*
X97373Y-43183D01*
X97449Y-42999D01*
X97450Y-42800D01*
X97450Y-50842D01*
X97381Y-50910D01*
X97381Y-49145D01*
X97381Y-46895D01*
X97302Y-46702D01*
X97154Y-46554D01*
X96961Y-46474D01*
X96752Y-46474D01*
X96558Y-46554D01*
X96410Y-46701D01*
X96330Y-46894D01*
X96330Y-47104D01*
X96410Y-47297D01*
X96558Y-47445D01*
X96751Y-47525D01*
X96960Y-47525D01*
X97153Y-47445D01*
X97301Y-47298D01*
X97381Y-47105D01*
X97381Y-46895D01*
X97381Y-49145D01*
X97302Y-48952D01*
X97154Y-48804D01*
X96961Y-48724D01*
X96752Y-48724D01*
X96558Y-48804D01*
X96410Y-48951D01*
X96330Y-49144D01*
X96330Y-49354D01*
X96410Y-49547D01*
X96558Y-49695D01*
X96751Y-49775D01*
X96960Y-49775D01*
X97153Y-49695D01*
X97301Y-49548D01*
X97381Y-49355D01*
X97381Y-49145D01*
X97381Y-50910D01*
X97326Y-50966D01*
X97250Y-51150D01*
X97249Y-51349D01*
X97325Y-51532D01*
X97466Y-51673D01*
X97650Y-51749D01*
X97650Y-51749D01*
X97467Y-51825D01*
X97326Y-51966D01*
X97250Y-52150D01*
X97250Y-52150D01*
X97250Y-51650D01*
X97174Y-51467D01*
X97033Y-51326D01*
X96849Y-51250D01*
X96650Y-51249D01*
X96467Y-51325D01*
X96326Y-51466D01*
X96250Y-51650D01*
X96249Y-51849D01*
X96325Y-52032D01*
X96466Y-52173D01*
X96650Y-52249D01*
X96849Y-52250D01*
X97032Y-52174D01*
X97173Y-52033D01*
X97249Y-51849D01*
X97250Y-51650D01*
X97250Y-52150D01*
X97249Y-52349D01*
X97325Y-52532D01*
X97466Y-52673D01*
X97650Y-52749D01*
X97849Y-52750D01*
X98032Y-52674D01*
X98173Y-52533D01*
X98249Y-52349D01*
X98250Y-52150D01*
X98250Y-54811D01*
X98226Y-54787D01*
X97917Y-54659D01*
X97583Y-54659D01*
X97274Y-54787D01*
X97037Y-55023D01*
X96909Y-55332D01*
X96909Y-55666D01*
X97037Y-55975D01*
X97273Y-56212D01*
X97582Y-56340D01*
X97916Y-56340D01*
X98225Y-56213D01*
X98462Y-55976D01*
X98590Y-55667D01*
X98590Y-55333D01*
X98590Y-62675D01*
X97800Y-62675D01*
X97800Y-57300D01*
X97724Y-57117D01*
X97583Y-56976D01*
X97399Y-56900D01*
X97200Y-56899D01*
X97017Y-56975D01*
X96876Y-57116D01*
X96800Y-57300D01*
X96799Y-57499D01*
X96875Y-57682D01*
X97016Y-57823D01*
X97200Y-57899D01*
X97399Y-57900D01*
X97582Y-57824D01*
X97723Y-57683D01*
X97799Y-57499D01*
X97800Y-57300D01*
X97800Y-62675D01*
X97700Y-62675D01*
X97700Y-61350D01*
X97624Y-61167D01*
X97483Y-61026D01*
X97299Y-60950D01*
X97100Y-60949D01*
X96917Y-61025D01*
X96776Y-61166D01*
X96700Y-61350D01*
X96699Y-61549D01*
X96775Y-61732D01*
X96916Y-61873D01*
X97100Y-61949D01*
X97299Y-61950D01*
X97482Y-61874D01*
X97623Y-61733D01*
X97699Y-61549D01*
X97700Y-61350D01*
X97700Y-62675D01*
X96324Y-62675D01*
X96324Y-52136D01*
X96237Y-51924D01*
X96076Y-51762D01*
X96044Y-51750D01*
X96075Y-51737D01*
X96237Y-51576D01*
X96324Y-51364D01*
X96324Y-51136D01*
X96237Y-50924D01*
X96076Y-50762D01*
X96031Y-50744D01*
X96031Y-37289D01*
X95951Y-37096D01*
X95855Y-36999D01*
X95951Y-36904D01*
X96031Y-36711D01*
X96031Y-36502D01*
X95951Y-36308D01*
X95804Y-36160D01*
X95610Y-36080D01*
X95401Y-36080D01*
X95208Y-36160D01*
X95112Y-36256D01*
X95016Y-36160D01*
X94823Y-36080D01*
X94614Y-36080D01*
X94421Y-36160D01*
X94324Y-36256D01*
X94229Y-36160D01*
X94036Y-36080D01*
X93827Y-36080D01*
X93633Y-36160D01*
X93537Y-36256D01*
X93441Y-36160D01*
X93250Y-36081D01*
X93250Y-35100D01*
X93174Y-34917D01*
X93033Y-34776D01*
X92849Y-34700D01*
X92650Y-34699D01*
X92467Y-34775D01*
X92326Y-34916D01*
X92250Y-35100D01*
X92249Y-35299D01*
X92325Y-35482D01*
X92466Y-35623D01*
X92650Y-35699D01*
X92849Y-35700D01*
X93032Y-35624D01*
X93173Y-35483D01*
X93249Y-35299D01*
X93250Y-35100D01*
X93250Y-36081D01*
X93248Y-36080D01*
X93039Y-36080D01*
X92846Y-36160D01*
X92749Y-36256D01*
X92654Y-36160D01*
X92461Y-36080D01*
X92252Y-36080D01*
X92058Y-36160D01*
X91962Y-36256D01*
X91867Y-36160D01*
X91673Y-36080D01*
X91464Y-36080D01*
X91271Y-36160D01*
X91175Y-36256D01*
X91079Y-36160D01*
X90886Y-36080D01*
X90677Y-36080D01*
X90484Y-36160D01*
X90387Y-36256D01*
X90292Y-36160D01*
X90099Y-36080D01*
X89890Y-36080D01*
X89696Y-36160D01*
X89600Y-36256D01*
X89600Y-33850D01*
X89524Y-33667D01*
X89383Y-33526D01*
X89199Y-33450D01*
X89000Y-33449D01*
X88817Y-33525D01*
X88676Y-33666D01*
X88600Y-33850D01*
X88599Y-34049D01*
X88675Y-34232D01*
X88816Y-34373D01*
X89000Y-34449D01*
X89199Y-34450D01*
X89382Y-34374D01*
X89523Y-34233D01*
X89599Y-34049D01*
X89600Y-33850D01*
X89600Y-36256D01*
X89548Y-36308D01*
X89468Y-36501D01*
X89468Y-36710D01*
X89548Y-36903D01*
X89644Y-37000D01*
X89548Y-37095D01*
X89468Y-37288D01*
X89468Y-37497D01*
X89548Y-37691D01*
X89695Y-37839D01*
X89889Y-37919D01*
X90098Y-37919D01*
X90291Y-37839D01*
X90387Y-37743D01*
X90483Y-37839D01*
X90676Y-37919D01*
X90885Y-37919D01*
X91078Y-37839D01*
X91175Y-37743D01*
X91270Y-37839D01*
X91463Y-37919D01*
X91672Y-37919D01*
X91866Y-37839D01*
X91962Y-37743D01*
X92058Y-37839D01*
X92251Y-37919D01*
X92460Y-37919D01*
X92653Y-37839D01*
X92750Y-37743D01*
X92845Y-37839D01*
X93038Y-37919D01*
X93247Y-37919D01*
X93441Y-37839D01*
X93537Y-37743D01*
X93632Y-37839D01*
X93826Y-37919D01*
X94035Y-37919D01*
X94228Y-37839D01*
X94324Y-37743D01*
X94420Y-37839D01*
X94613Y-37919D01*
X94822Y-37919D01*
X95015Y-37839D01*
X95112Y-37743D01*
X95207Y-37839D01*
X95400Y-37919D01*
X95609Y-37919D01*
X95803Y-37839D01*
X95951Y-37691D01*
X96031Y-37498D01*
X96031Y-37289D01*
X96031Y-50744D01*
X95864Y-50675D01*
X95650Y-50675D01*
X95650Y-41650D01*
X95574Y-41467D01*
X95433Y-41326D01*
X95249Y-41250D01*
X95050Y-41249D01*
X94867Y-41325D01*
X94726Y-41466D01*
X94650Y-41650D01*
X94649Y-41849D01*
X94725Y-42032D01*
X94866Y-42173D01*
X95050Y-42249D01*
X95249Y-42250D01*
X95432Y-42174D01*
X95573Y-42033D01*
X95649Y-41849D01*
X95650Y-41650D01*
X95650Y-50675D01*
X95636Y-50675D01*
X95424Y-50762D01*
X95320Y-50866D01*
X95286Y-50783D01*
X95216Y-50713D01*
X95124Y-50675D01*
X95025Y-50675D01*
X94375Y-50675D01*
X94283Y-50713D01*
X94213Y-50783D01*
X94175Y-50875D01*
X94175Y-50974D01*
X94175Y-51624D01*
X94213Y-51716D01*
X94283Y-51786D01*
X94366Y-51820D01*
X94262Y-51923D01*
X94175Y-52135D01*
X94175Y-52363D01*
X94262Y-52575D01*
X94423Y-52737D01*
X94635Y-52824D01*
X94863Y-52824D01*
X95075Y-52737D01*
X95237Y-52576D01*
X95249Y-52544D01*
X95262Y-52575D01*
X95423Y-52737D01*
X95635Y-52824D01*
X95863Y-52824D01*
X96075Y-52737D01*
X96237Y-52576D01*
X96324Y-52364D01*
X96324Y-52136D01*
X96324Y-62675D01*
X96031Y-62675D01*
X96031Y-59289D01*
X95951Y-59096D01*
X95855Y-58999D01*
X95951Y-58904D01*
X96031Y-58711D01*
X96031Y-58502D01*
X95951Y-58308D01*
X95804Y-58160D01*
X95610Y-58080D01*
X95401Y-58080D01*
X95208Y-58160D01*
X95112Y-58256D01*
X95016Y-58160D01*
X94823Y-58080D01*
X94614Y-58080D01*
X94421Y-58160D01*
X94324Y-58256D01*
X94229Y-58160D01*
X94036Y-58080D01*
X93827Y-58080D01*
X93824Y-58081D01*
X93824Y-48386D01*
X93737Y-48174D01*
X93576Y-48012D01*
X93544Y-48000D01*
X93575Y-47987D01*
X93737Y-47826D01*
X93824Y-47614D01*
X93824Y-47386D01*
X93737Y-47174D01*
X93576Y-47012D01*
X93364Y-46925D01*
X93136Y-46925D01*
X92924Y-47012D01*
X92762Y-47173D01*
X92750Y-47205D01*
X92737Y-47174D01*
X92576Y-47012D01*
X92364Y-46925D01*
X92136Y-46925D01*
X91924Y-47012D01*
X91762Y-47173D01*
X91750Y-47205D01*
X91737Y-47174D01*
X91576Y-47012D01*
X91364Y-46925D01*
X91136Y-46925D01*
X90924Y-47012D01*
X90762Y-47173D01*
X90750Y-47205D01*
X90737Y-47174D01*
X90576Y-47012D01*
X90364Y-46925D01*
X90136Y-46925D01*
X89924Y-47012D01*
X89820Y-47116D01*
X89786Y-47033D01*
X89716Y-46963D01*
X89624Y-46925D01*
X89525Y-46925D01*
X88875Y-46925D01*
X88783Y-46963D01*
X88713Y-47033D01*
X88675Y-47125D01*
X88675Y-47224D01*
X88675Y-47874D01*
X88713Y-47966D01*
X88783Y-48036D01*
X88866Y-48070D01*
X88762Y-48173D01*
X88675Y-48385D01*
X88675Y-48613D01*
X88762Y-48825D01*
X88923Y-48987D01*
X89135Y-49074D01*
X89363Y-49074D01*
X89575Y-48987D01*
X89737Y-48826D01*
X89749Y-48794D01*
X89762Y-48825D01*
X89923Y-48987D01*
X90135Y-49074D01*
X90363Y-49074D01*
X90575Y-48987D01*
X90737Y-48826D01*
X90749Y-48794D01*
X90762Y-48825D01*
X90923Y-48987D01*
X91135Y-49074D01*
X91363Y-49074D01*
X91575Y-48987D01*
X91737Y-48826D01*
X91749Y-48794D01*
X91762Y-48825D01*
X91923Y-48987D01*
X92135Y-49074D01*
X92363Y-49074D01*
X92575Y-48987D01*
X92737Y-48826D01*
X92749Y-48794D01*
X92762Y-48825D01*
X92923Y-48987D01*
X93135Y-49074D01*
X93363Y-49074D01*
X93575Y-48987D01*
X93737Y-48826D01*
X93824Y-48614D01*
X93824Y-48386D01*
X93824Y-58081D01*
X93750Y-58112D01*
X93750Y-51650D01*
X93674Y-51467D01*
X93533Y-51326D01*
X93349Y-51250D01*
X93150Y-51249D01*
X92967Y-51325D01*
X92826Y-51466D01*
X92750Y-51650D01*
X92749Y-51849D01*
X92825Y-52032D01*
X92966Y-52173D01*
X93150Y-52249D01*
X93349Y-52250D01*
X93532Y-52174D01*
X93673Y-52033D01*
X93749Y-51849D01*
X93750Y-51650D01*
X93750Y-58112D01*
X93633Y-58160D01*
X93537Y-58256D01*
X93441Y-58160D01*
X93248Y-58080D01*
X93039Y-58080D01*
X92846Y-58160D01*
X92750Y-58256D01*
X92750Y-52150D01*
X92674Y-51967D01*
X92533Y-51826D01*
X92349Y-51750D01*
X92349Y-51750D01*
X92532Y-51674D01*
X92673Y-51533D01*
X92749Y-51349D01*
X92750Y-51150D01*
X92674Y-50967D01*
X92533Y-50826D01*
X92349Y-50750D01*
X92150Y-50749D01*
X91967Y-50825D01*
X91826Y-50966D01*
X91750Y-51150D01*
X91749Y-51349D01*
X91825Y-51532D01*
X91966Y-51673D01*
X92150Y-51749D01*
X92150Y-51749D01*
X91967Y-51825D01*
X91826Y-51966D01*
X91750Y-52150D01*
X91749Y-52349D01*
X91825Y-52532D01*
X91966Y-52673D01*
X92150Y-52749D01*
X92349Y-52750D01*
X92532Y-52674D01*
X92673Y-52533D01*
X92749Y-52349D01*
X92750Y-52150D01*
X92750Y-58256D01*
X92749Y-58256D01*
X92654Y-58160D01*
X92461Y-58080D01*
X92252Y-58080D01*
X92058Y-58160D01*
X91962Y-58256D01*
X91867Y-58160D01*
X91673Y-58080D01*
X91464Y-58080D01*
X91271Y-58160D01*
X91175Y-58256D01*
X91079Y-58160D01*
X90886Y-58080D01*
X90677Y-58080D01*
X90484Y-58160D01*
X90387Y-58256D01*
X90292Y-58160D01*
X90099Y-58080D01*
X89890Y-58080D01*
X89696Y-58160D01*
X89548Y-58308D01*
X89468Y-58501D01*
X89468Y-58710D01*
X89548Y-58903D01*
X89644Y-59000D01*
X89548Y-59095D01*
X89468Y-59288D01*
X89468Y-59497D01*
X89548Y-59691D01*
X89695Y-59839D01*
X89889Y-59919D01*
X90098Y-59919D01*
X90291Y-59839D01*
X90387Y-59743D01*
X90483Y-59839D01*
X90676Y-59919D01*
X90885Y-59919D01*
X91078Y-59839D01*
X91175Y-59743D01*
X91270Y-59839D01*
X91463Y-59919D01*
X91672Y-59919D01*
X91866Y-59839D01*
X91962Y-59743D01*
X92058Y-59839D01*
X92251Y-59919D01*
X92460Y-59919D01*
X92653Y-59839D01*
X92750Y-59743D01*
X92845Y-59839D01*
X93038Y-59919D01*
X93247Y-59919D01*
X93441Y-59839D01*
X93537Y-59743D01*
X93632Y-59839D01*
X93826Y-59919D01*
X94035Y-59919D01*
X94228Y-59839D01*
X94324Y-59743D01*
X94420Y-59839D01*
X94613Y-59919D01*
X94822Y-59919D01*
X95015Y-59839D01*
X95112Y-59743D01*
X95207Y-59839D01*
X95400Y-59919D01*
X95609Y-59919D01*
X95803Y-59839D01*
X95951Y-59691D01*
X96031Y-59498D01*
X96031Y-59289D01*
X96031Y-62675D01*
X93300Y-62675D01*
X93300Y-60800D01*
X93224Y-60617D01*
X93083Y-60476D01*
X92899Y-60400D01*
X92700Y-60399D01*
X92517Y-60475D01*
X92376Y-60616D01*
X92300Y-60800D01*
X92299Y-60999D01*
X92375Y-61182D01*
X92516Y-61323D01*
X92700Y-61399D01*
X92899Y-61400D01*
X93082Y-61324D01*
X93223Y-61183D01*
X93299Y-60999D01*
X93300Y-60800D01*
X93300Y-62675D01*
X89209Y-62675D01*
X89332Y-62624D01*
X89473Y-62483D01*
X89549Y-62299D01*
X89550Y-62100D01*
X89474Y-61917D01*
X89333Y-61776D01*
X89149Y-61700D01*
X88950Y-61699D01*
X88767Y-61775D01*
X88626Y-61916D01*
X88550Y-62100D01*
X88549Y-62299D01*
X88625Y-62482D01*
X88766Y-62623D01*
X88890Y-62675D01*
X87550Y-62675D01*
X87550Y-51560D01*
X87550Y-44260D01*
X87481Y-44095D01*
X87355Y-43968D01*
X87189Y-43900D01*
X87120Y-43900D01*
X87120Y-34417D01*
X86980Y-34079D01*
X86721Y-33820D01*
X86383Y-33680D01*
X86017Y-33679D01*
X85679Y-33819D01*
X85420Y-34078D01*
X85280Y-34416D01*
X85279Y-34782D01*
X85419Y-35120D01*
X85678Y-35379D01*
X86016Y-35519D01*
X86382Y-35520D01*
X86720Y-35380D01*
X86979Y-35121D01*
X87119Y-34783D01*
X87120Y-34417D01*
X87120Y-43900D01*
X87010Y-43899D01*
X86845Y-43968D01*
X86718Y-44094D01*
X86650Y-44260D01*
X86649Y-44439D01*
X86718Y-44604D01*
X86844Y-44731D01*
X87010Y-44799D01*
X87189Y-44800D01*
X87354Y-44731D01*
X87481Y-44605D01*
X87549Y-44439D01*
X87550Y-44260D01*
X87550Y-51560D01*
X87481Y-51395D01*
X87355Y-51268D01*
X87189Y-51200D01*
X87010Y-51199D01*
X86845Y-51268D01*
X86824Y-51288D01*
X86824Y-48386D01*
X86737Y-48174D01*
X86576Y-48012D01*
X86544Y-48000D01*
X86575Y-47987D01*
X86737Y-47826D01*
X86824Y-47614D01*
X86824Y-47386D01*
X86737Y-47174D01*
X86576Y-47012D01*
X86364Y-46925D01*
X86284Y-46925D01*
X86284Y-37884D01*
X86195Y-37669D01*
X86031Y-37504D01*
X85816Y-37415D01*
X85584Y-37415D01*
X85369Y-37504D01*
X85204Y-37668D01*
X85200Y-37679D01*
X85195Y-37669D01*
X85120Y-37593D01*
X85120Y-34417D01*
X84980Y-34079D01*
X84721Y-33820D01*
X84383Y-33680D01*
X84017Y-33679D01*
X83679Y-33819D01*
X83420Y-34078D01*
X83280Y-34416D01*
X83279Y-34782D01*
X83419Y-35120D01*
X83678Y-35379D01*
X84016Y-35519D01*
X84382Y-35520D01*
X84720Y-35380D01*
X84979Y-35121D01*
X85119Y-34783D01*
X85120Y-34417D01*
X85120Y-37593D01*
X85031Y-37504D01*
X84816Y-37415D01*
X84584Y-37415D01*
X84369Y-37504D01*
X84204Y-37668D01*
X84115Y-37883D01*
X84115Y-38115D01*
X84204Y-38330D01*
X84368Y-38495D01*
X84583Y-38584D01*
X84815Y-38584D01*
X85030Y-38495D01*
X85195Y-38331D01*
X85199Y-38320D01*
X85204Y-38330D01*
X85368Y-38495D01*
X85583Y-38584D01*
X85815Y-38584D01*
X86030Y-38495D01*
X86195Y-38331D01*
X86284Y-38116D01*
X86284Y-37884D01*
X86284Y-46925D01*
X86136Y-46925D01*
X85924Y-47012D01*
X85762Y-47173D01*
X85750Y-47205D01*
X85737Y-47174D01*
X85576Y-47012D01*
X85364Y-46925D01*
X85136Y-46925D01*
X84924Y-47012D01*
X84820Y-47116D01*
X84786Y-47033D01*
X84716Y-46963D01*
X84624Y-46925D01*
X84525Y-46925D01*
X83875Y-46925D01*
X83850Y-46935D01*
X83850Y-44260D01*
X83781Y-44095D01*
X83655Y-43968D01*
X83489Y-43900D01*
X83310Y-43899D01*
X83145Y-43968D01*
X83018Y-44094D01*
X82950Y-44260D01*
X82949Y-44439D01*
X83018Y-44604D01*
X83144Y-44731D01*
X83310Y-44799D01*
X83489Y-44800D01*
X83654Y-44731D01*
X83781Y-44605D01*
X83849Y-44439D01*
X83850Y-44260D01*
X83850Y-46935D01*
X83783Y-46963D01*
X83713Y-47033D01*
X83675Y-47125D01*
X83675Y-47224D01*
X83675Y-47874D01*
X83713Y-47966D01*
X83783Y-48036D01*
X83866Y-48070D01*
X83762Y-48173D01*
X83675Y-48385D01*
X83675Y-48613D01*
X83762Y-48825D01*
X83923Y-48987D01*
X84135Y-49074D01*
X84363Y-49074D01*
X84575Y-48987D01*
X84737Y-48826D01*
X84749Y-48794D01*
X84762Y-48825D01*
X84923Y-48987D01*
X85135Y-49074D01*
X85363Y-49074D01*
X85575Y-48987D01*
X85737Y-48826D01*
X85749Y-48794D01*
X85762Y-48825D01*
X85923Y-48987D01*
X86135Y-49074D01*
X86363Y-49074D01*
X86575Y-48987D01*
X86737Y-48826D01*
X86824Y-48614D01*
X86824Y-48386D01*
X86824Y-51288D01*
X86718Y-51394D01*
X86650Y-51560D01*
X86649Y-51739D01*
X86718Y-51904D01*
X86844Y-52031D01*
X87010Y-52099D01*
X87189Y-52100D01*
X87354Y-52031D01*
X87481Y-51905D01*
X87549Y-51739D01*
X87550Y-51560D01*
X87550Y-62675D01*
X87170Y-62675D01*
X87170Y-61217D01*
X87030Y-60879D01*
X86771Y-60620D01*
X86433Y-60480D01*
X86334Y-60480D01*
X86334Y-57884D01*
X86245Y-57669D01*
X86081Y-57504D01*
X85866Y-57415D01*
X85634Y-57415D01*
X85419Y-57504D01*
X85254Y-57668D01*
X85250Y-57679D01*
X85245Y-57669D01*
X85081Y-57504D01*
X84866Y-57415D01*
X84634Y-57415D01*
X84419Y-57504D01*
X84254Y-57668D01*
X84165Y-57883D01*
X84165Y-58115D01*
X84254Y-58330D01*
X84418Y-58495D01*
X84633Y-58584D01*
X84865Y-58584D01*
X85080Y-58495D01*
X85245Y-58331D01*
X85249Y-58320D01*
X85254Y-58330D01*
X85418Y-58495D01*
X85633Y-58584D01*
X85865Y-58584D01*
X86080Y-58495D01*
X86245Y-58331D01*
X86334Y-58116D01*
X86334Y-57884D01*
X86334Y-60480D01*
X86067Y-60479D01*
X85729Y-60619D01*
X85470Y-60878D01*
X85330Y-61216D01*
X85329Y-61582D01*
X85469Y-61920D01*
X85728Y-62179D01*
X86066Y-62319D01*
X86432Y-62320D01*
X86770Y-62180D01*
X87029Y-61921D01*
X87169Y-61583D01*
X87170Y-61217D01*
X87170Y-62675D01*
X85170Y-62675D01*
X85170Y-61217D01*
X85030Y-60879D01*
X84771Y-60620D01*
X84433Y-60480D01*
X84067Y-60479D01*
X83850Y-60569D01*
X83850Y-51560D01*
X83781Y-51395D01*
X83655Y-51268D01*
X83489Y-51200D01*
X83310Y-51199D01*
X83145Y-51268D01*
X83018Y-51394D01*
X82950Y-51560D01*
X82949Y-51739D01*
X83018Y-51904D01*
X83144Y-52031D01*
X83310Y-52099D01*
X83489Y-52100D01*
X83654Y-52031D01*
X83781Y-51905D01*
X83849Y-51739D01*
X83850Y-51560D01*
X83850Y-60569D01*
X83729Y-60619D01*
X83470Y-60878D01*
X83330Y-61216D01*
X83329Y-61582D01*
X83469Y-61920D01*
X83728Y-62179D01*
X84066Y-62319D01*
X84432Y-62320D01*
X84770Y-62180D01*
X85029Y-61921D01*
X85169Y-61583D01*
X85170Y-61217D01*
X85170Y-62675D01*
X81900Y-62675D01*
X81900Y-62000D01*
X81900Y-33800D01*
X81824Y-33617D01*
X81683Y-33476D01*
X81499Y-33400D01*
X81300Y-33399D01*
X81117Y-33475D01*
X80976Y-33616D01*
X80900Y-33800D01*
X80899Y-33999D01*
X80975Y-34182D01*
X81116Y-34323D01*
X81300Y-34399D01*
X81499Y-34400D01*
X81682Y-34324D01*
X81823Y-34183D01*
X81899Y-33999D01*
X81900Y-33800D01*
X81900Y-62000D01*
X81824Y-61819D01*
X81824Y-48386D01*
X81737Y-48174D01*
X81576Y-48012D01*
X81544Y-48000D01*
X81575Y-47987D01*
X81737Y-47826D01*
X81824Y-47614D01*
X81824Y-47386D01*
X81737Y-47174D01*
X81576Y-47012D01*
X81500Y-46981D01*
X81500Y-44900D01*
X81424Y-44717D01*
X81283Y-44576D01*
X81099Y-44500D01*
X81031Y-44500D01*
X81031Y-37289D01*
X80951Y-37096D01*
X80855Y-36999D01*
X80951Y-36904D01*
X81031Y-36711D01*
X81031Y-36502D01*
X80951Y-36308D01*
X80804Y-36160D01*
X80610Y-36080D01*
X80401Y-36080D01*
X80208Y-36160D01*
X80112Y-36256D01*
X80016Y-36160D01*
X79823Y-36080D01*
X79614Y-36080D01*
X79421Y-36160D01*
X79324Y-36256D01*
X79229Y-36160D01*
X79036Y-36080D01*
X78827Y-36080D01*
X78633Y-36160D01*
X78537Y-36256D01*
X78441Y-36160D01*
X78250Y-36081D01*
X78250Y-34950D01*
X78174Y-34767D01*
X78033Y-34626D01*
X77849Y-34550D01*
X77650Y-34549D01*
X77467Y-34625D01*
X77326Y-34766D01*
X77250Y-34950D01*
X77249Y-35149D01*
X77325Y-35332D01*
X77466Y-35473D01*
X77650Y-35549D01*
X77849Y-35550D01*
X78032Y-35474D01*
X78173Y-35333D01*
X78249Y-35149D01*
X78250Y-34950D01*
X78250Y-36081D01*
X78248Y-36080D01*
X78039Y-36080D01*
X77846Y-36160D01*
X77749Y-36256D01*
X77654Y-36160D01*
X77461Y-36080D01*
X77252Y-36080D01*
X77058Y-36160D01*
X76962Y-36256D01*
X76867Y-36160D01*
X76673Y-36080D01*
X76464Y-36080D01*
X76271Y-36160D01*
X76175Y-36256D01*
X76079Y-36160D01*
X75886Y-36080D01*
X75677Y-36080D01*
X75484Y-36160D01*
X75400Y-36244D01*
X75400Y-33850D01*
X75324Y-33667D01*
X75183Y-33526D01*
X74999Y-33450D01*
X74800Y-33449D01*
X74617Y-33525D01*
X74476Y-33666D01*
X74400Y-33850D01*
X74399Y-34049D01*
X74475Y-34232D01*
X74616Y-34373D01*
X74800Y-34449D01*
X74999Y-34450D01*
X75182Y-34374D01*
X75323Y-34233D01*
X75399Y-34049D01*
X75400Y-33850D01*
X75400Y-36244D01*
X75387Y-36256D01*
X75292Y-36160D01*
X75099Y-36080D01*
X74890Y-36080D01*
X74696Y-36160D01*
X74548Y-36308D01*
X74468Y-36501D01*
X74468Y-36710D01*
X74548Y-36903D01*
X74644Y-37000D01*
X74548Y-37095D01*
X74468Y-37288D01*
X74468Y-37497D01*
X74548Y-37691D01*
X74695Y-37839D01*
X74889Y-37919D01*
X75098Y-37919D01*
X75291Y-37839D01*
X75387Y-37743D01*
X75483Y-37839D01*
X75676Y-37919D01*
X75885Y-37919D01*
X76078Y-37839D01*
X76175Y-37743D01*
X76270Y-37839D01*
X76463Y-37919D01*
X76672Y-37919D01*
X76866Y-37839D01*
X76962Y-37743D01*
X77058Y-37839D01*
X77251Y-37919D01*
X77460Y-37919D01*
X77653Y-37839D01*
X77750Y-37743D01*
X77845Y-37839D01*
X78038Y-37919D01*
X78247Y-37919D01*
X78441Y-37839D01*
X78537Y-37743D01*
X78632Y-37839D01*
X78826Y-37919D01*
X79035Y-37919D01*
X79228Y-37839D01*
X79324Y-37743D01*
X79420Y-37839D01*
X79613Y-37919D01*
X79822Y-37919D01*
X80015Y-37839D01*
X80112Y-37743D01*
X80207Y-37839D01*
X80400Y-37919D01*
X80609Y-37919D01*
X80803Y-37839D01*
X80951Y-37691D01*
X81031Y-37498D01*
X81031Y-37289D01*
X81031Y-44500D01*
X80900Y-44499D01*
X80717Y-44575D01*
X80576Y-44716D01*
X80500Y-44900D01*
X80499Y-45099D01*
X80575Y-45282D01*
X80716Y-45423D01*
X80900Y-45499D01*
X81099Y-45500D01*
X81282Y-45424D01*
X81423Y-45283D01*
X81499Y-45099D01*
X81500Y-44900D01*
X81500Y-46981D01*
X81364Y-46925D01*
X81136Y-46925D01*
X80924Y-47012D01*
X80762Y-47173D01*
X80750Y-47205D01*
X80737Y-47174D01*
X80576Y-47012D01*
X80364Y-46925D01*
X80136Y-46925D01*
X79924Y-47012D01*
X79762Y-47173D01*
X79750Y-47205D01*
X79737Y-47174D01*
X79576Y-47012D01*
X79364Y-46925D01*
X79350Y-46925D01*
X79350Y-44300D01*
X79274Y-44117D01*
X79133Y-43976D01*
X78949Y-43900D01*
X78750Y-43899D01*
X78567Y-43975D01*
X78426Y-44116D01*
X78350Y-44300D01*
X78349Y-44499D01*
X78425Y-44682D01*
X78566Y-44823D01*
X78750Y-44899D01*
X78949Y-44900D01*
X79132Y-44824D01*
X79273Y-44683D01*
X79349Y-44499D01*
X79350Y-44300D01*
X79350Y-46925D01*
X79136Y-46925D01*
X78924Y-47012D01*
X78762Y-47173D01*
X78750Y-47205D01*
X78737Y-47174D01*
X78576Y-47012D01*
X78364Y-46925D01*
X78136Y-46925D01*
X77924Y-47012D01*
X77820Y-47116D01*
X77786Y-47033D01*
X77716Y-46963D01*
X77624Y-46925D01*
X77525Y-46925D01*
X76875Y-46925D01*
X76783Y-46963D01*
X76713Y-47033D01*
X76675Y-47125D01*
X76675Y-47224D01*
X76675Y-47874D01*
X76713Y-47966D01*
X76783Y-48036D01*
X76866Y-48070D01*
X76762Y-48173D01*
X76675Y-48385D01*
X76675Y-48613D01*
X76762Y-48825D01*
X76923Y-48987D01*
X77135Y-49074D01*
X77363Y-49074D01*
X77575Y-48987D01*
X77737Y-48826D01*
X77749Y-48794D01*
X77762Y-48825D01*
X77923Y-48987D01*
X78135Y-49074D01*
X78363Y-49074D01*
X78575Y-48987D01*
X78737Y-48826D01*
X78749Y-48794D01*
X78762Y-48825D01*
X78923Y-48987D01*
X79135Y-49074D01*
X79363Y-49074D01*
X79575Y-48987D01*
X79737Y-48826D01*
X79749Y-48794D01*
X79762Y-48825D01*
X79923Y-48987D01*
X80135Y-49074D01*
X80363Y-49074D01*
X80575Y-48987D01*
X80737Y-48826D01*
X80749Y-48794D01*
X80762Y-48825D01*
X80923Y-48987D01*
X81135Y-49074D01*
X81363Y-49074D01*
X81575Y-48987D01*
X81737Y-48826D01*
X81824Y-48614D01*
X81824Y-48386D01*
X81824Y-61819D01*
X81824Y-61817D01*
X81683Y-61676D01*
X81500Y-61600D01*
X81500Y-50600D01*
X81424Y-50417D01*
X81283Y-50276D01*
X81099Y-50200D01*
X80900Y-50199D01*
X80717Y-50275D01*
X80576Y-50416D01*
X80500Y-50600D01*
X80499Y-50799D01*
X80575Y-50982D01*
X80716Y-51123D01*
X80900Y-51199D01*
X81099Y-51200D01*
X81282Y-51124D01*
X81423Y-50983D01*
X81499Y-50799D01*
X81500Y-50600D01*
X81500Y-61600D01*
X81499Y-61600D01*
X81300Y-61599D01*
X81117Y-61675D01*
X81031Y-61761D01*
X81031Y-59289D01*
X80951Y-59096D01*
X80855Y-58999D01*
X80951Y-58904D01*
X81031Y-58711D01*
X81031Y-58502D01*
X80951Y-58308D01*
X80804Y-58160D01*
X80610Y-58080D01*
X80401Y-58080D01*
X80208Y-58160D01*
X80112Y-58256D01*
X80016Y-58160D01*
X79823Y-58080D01*
X79614Y-58080D01*
X79421Y-58160D01*
X79324Y-58256D01*
X79229Y-58160D01*
X79036Y-58080D01*
X78827Y-58080D01*
X78633Y-58160D01*
X78537Y-58256D01*
X78441Y-58160D01*
X78248Y-58080D01*
X78039Y-58080D01*
X77846Y-58160D01*
X77749Y-58256D01*
X77654Y-58160D01*
X77461Y-58080D01*
X77252Y-58080D01*
X77058Y-58160D01*
X76962Y-58256D01*
X76867Y-58160D01*
X76673Y-58080D01*
X76464Y-58080D01*
X76450Y-58086D01*
X76450Y-52350D01*
X76450Y-50950D01*
X76374Y-50767D01*
X76233Y-50626D01*
X76049Y-50550D01*
X75850Y-50549D01*
X75667Y-50625D01*
X75526Y-50766D01*
X75450Y-50950D01*
X75450Y-50950D01*
X75450Y-45150D01*
X75450Y-43050D01*
X75374Y-42867D01*
X75233Y-42726D01*
X75049Y-42650D01*
X74850Y-42649D01*
X74667Y-42725D01*
X74526Y-42866D01*
X74450Y-43050D01*
X74449Y-43249D01*
X74525Y-43432D01*
X74666Y-43573D01*
X74850Y-43649D01*
X75049Y-43650D01*
X75232Y-43574D01*
X75373Y-43433D01*
X75449Y-43249D01*
X75450Y-43050D01*
X75450Y-45150D01*
X75374Y-44967D01*
X75233Y-44826D01*
X75049Y-44750D01*
X74850Y-44749D01*
X74667Y-44825D01*
X74526Y-44966D01*
X74450Y-45150D01*
X74449Y-45349D01*
X74525Y-45532D01*
X74666Y-45673D01*
X74850Y-45749D01*
X75049Y-45750D01*
X75232Y-45674D01*
X75373Y-45533D01*
X75449Y-45349D01*
X75450Y-45150D01*
X75450Y-50950D01*
X75449Y-51149D01*
X75525Y-51332D01*
X75666Y-51473D01*
X75850Y-51549D01*
X76049Y-51550D01*
X76232Y-51474D01*
X76373Y-51333D01*
X76449Y-51149D01*
X76450Y-50950D01*
X76450Y-52350D01*
X76374Y-52167D01*
X76233Y-52026D01*
X76049Y-51950D01*
X75850Y-51949D01*
X75667Y-52025D01*
X75526Y-52166D01*
X75450Y-52350D01*
X75449Y-52549D01*
X75525Y-52732D01*
X75666Y-52873D01*
X75850Y-52949D01*
X76049Y-52950D01*
X76232Y-52874D01*
X76373Y-52733D01*
X76449Y-52549D01*
X76450Y-52350D01*
X76450Y-58086D01*
X76271Y-58160D01*
X76175Y-58256D01*
X76079Y-58160D01*
X75886Y-58080D01*
X75677Y-58080D01*
X75484Y-58160D01*
X75387Y-58256D01*
X75292Y-58160D01*
X75099Y-58080D01*
X74890Y-58080D01*
X74696Y-58160D01*
X74600Y-58256D01*
X74600Y-48000D01*
X74524Y-47817D01*
X74383Y-47676D01*
X74199Y-47600D01*
X74000Y-47599D01*
X73817Y-47675D01*
X73676Y-47816D01*
X73600Y-48000D01*
X73599Y-48199D01*
X73675Y-48382D01*
X73816Y-48523D01*
X74000Y-48599D01*
X74199Y-48600D01*
X74382Y-48524D01*
X74523Y-48383D01*
X74599Y-48199D01*
X74600Y-48000D01*
X74600Y-58256D01*
X74548Y-58308D01*
X74468Y-58501D01*
X74468Y-58710D01*
X74548Y-58903D01*
X74644Y-59000D01*
X74548Y-59095D01*
X74468Y-59288D01*
X74468Y-59497D01*
X74548Y-59691D01*
X74695Y-59839D01*
X74889Y-59919D01*
X75098Y-59919D01*
X75291Y-59839D01*
X75387Y-59743D01*
X75483Y-59839D01*
X75676Y-59919D01*
X75885Y-59919D01*
X76078Y-59839D01*
X76175Y-59743D01*
X76270Y-59839D01*
X76463Y-59919D01*
X76672Y-59919D01*
X76866Y-59839D01*
X76962Y-59743D01*
X77058Y-59839D01*
X77251Y-59919D01*
X77460Y-59919D01*
X77653Y-59839D01*
X77750Y-59743D01*
X77845Y-59839D01*
X78038Y-59919D01*
X78247Y-59919D01*
X78441Y-59839D01*
X78537Y-59743D01*
X78632Y-59839D01*
X78826Y-59919D01*
X79035Y-59919D01*
X79228Y-59839D01*
X79324Y-59743D01*
X79420Y-59839D01*
X79613Y-59919D01*
X79822Y-59919D01*
X80015Y-59839D01*
X80112Y-59743D01*
X80207Y-59839D01*
X80400Y-59919D01*
X80609Y-59919D01*
X80803Y-59839D01*
X80951Y-59691D01*
X81031Y-59498D01*
X81031Y-59289D01*
X81031Y-61761D01*
X80976Y-61816D01*
X80900Y-62000D01*
X80899Y-62199D01*
X80975Y-62382D01*
X81116Y-62523D01*
X81300Y-62599D01*
X81499Y-62600D01*
X81682Y-62524D01*
X81823Y-62383D01*
X81899Y-62199D01*
X81900Y-62000D01*
X81900Y-62675D01*
X78250Y-62675D01*
X78250Y-60750D01*
X78174Y-60567D01*
X78033Y-60426D01*
X77849Y-60350D01*
X77650Y-60349D01*
X77467Y-60425D01*
X77326Y-60566D01*
X77250Y-60750D01*
X77249Y-60949D01*
X77325Y-61132D01*
X77466Y-61273D01*
X77650Y-61349D01*
X77849Y-61350D01*
X78032Y-61274D01*
X78173Y-61133D01*
X78249Y-60949D01*
X78250Y-60750D01*
X78250Y-62675D01*
X74600Y-62675D01*
X74600Y-62000D01*
X74524Y-61817D01*
X74450Y-61742D01*
X74450Y-53100D01*
X74450Y-51700D01*
X74450Y-50300D01*
X74374Y-50117D01*
X74233Y-49976D01*
X74049Y-49900D01*
X73850Y-49899D01*
X73667Y-49975D01*
X73590Y-50052D01*
X73590Y-40333D01*
X73463Y-40024D01*
X73226Y-39787D01*
X72917Y-39659D01*
X72583Y-39659D01*
X72274Y-39787D01*
X72037Y-40023D01*
X71909Y-40332D01*
X71909Y-40666D01*
X72037Y-40975D01*
X72273Y-41212D01*
X72582Y-41340D01*
X72916Y-41340D01*
X73225Y-41213D01*
X73462Y-40976D01*
X73590Y-40667D01*
X73590Y-40333D01*
X73590Y-50052D01*
X73526Y-50116D01*
X73450Y-50300D01*
X73449Y-50499D01*
X73525Y-50682D01*
X73666Y-50823D01*
X73850Y-50899D01*
X74049Y-50900D01*
X74232Y-50824D01*
X74373Y-50683D01*
X74449Y-50499D01*
X74450Y-50300D01*
X74450Y-51700D01*
X74374Y-51517D01*
X74233Y-51376D01*
X74049Y-51300D01*
X73850Y-51299D01*
X73667Y-51375D01*
X73526Y-51516D01*
X73450Y-51700D01*
X73449Y-51899D01*
X73525Y-52082D01*
X73666Y-52223D01*
X73850Y-52299D01*
X74049Y-52300D01*
X74232Y-52224D01*
X74373Y-52083D01*
X74449Y-51899D01*
X74450Y-51700D01*
X74450Y-53100D01*
X74374Y-52917D01*
X74233Y-52776D01*
X74049Y-52700D01*
X73850Y-52699D01*
X73667Y-52775D01*
X73526Y-52916D01*
X73450Y-53100D01*
X73449Y-53299D01*
X73525Y-53482D01*
X73666Y-53623D01*
X73850Y-53699D01*
X74049Y-53700D01*
X74232Y-53624D01*
X74373Y-53483D01*
X74449Y-53299D01*
X74450Y-53100D01*
X74450Y-61742D01*
X74383Y-61676D01*
X74199Y-61600D01*
X74000Y-61599D01*
X73817Y-61675D01*
X73676Y-61816D01*
X73600Y-62000D01*
X73599Y-62199D01*
X73675Y-62382D01*
X73816Y-62523D01*
X74000Y-62599D01*
X74199Y-62600D01*
X74382Y-62524D01*
X74523Y-62383D01*
X74599Y-62199D01*
X74600Y-62000D01*
X74600Y-62675D01*
X73590Y-62675D01*
X73590Y-55333D01*
X73463Y-55024D01*
X73226Y-54787D01*
X72917Y-54659D01*
X72583Y-54659D01*
X72274Y-54787D01*
X72037Y-55023D01*
X71909Y-55332D01*
X71909Y-55666D01*
X72037Y-55975D01*
X72273Y-56212D01*
X72582Y-56340D01*
X72916Y-56340D01*
X73225Y-56213D01*
X73462Y-55976D01*
X73590Y-55667D01*
X73590Y-55333D01*
X73590Y-62675D01*
X71825Y-62675D01*
X71825Y-33325D01*
X98675Y-33325D01*
X98675Y-62675D01*
M02*
