G04 (created by PCBNEW (2013-mar-13)-testing) date Mon 31 Mar 2014 04:14:24 PM PDT*
%MOIN*%
G04 Gerber Fmt 3.4, Leading zero omitted, Abs format*
%FSLAX34Y34*%
G01*
G70*
G90*
G04 APERTURE LIST*
%ADD10C,0.001000*%
%ADD11R,0.064961X0.064961*%
%ADD12C,0.064961*%
%ADD13C,0.055118*%
%ADD14C,0.066929*%
%ADD15C,0.050000*%
%ADD16C,0.040000*%
%ADD17C,0.050000*%
G04 APERTURE END LIST*
G54D10*
G54D11*
X77250Y-47500D03*
G54D12*
X77250Y-48500D03*
X78250Y-47500D03*
X78250Y-48500D03*
X79250Y-47500D03*
X79250Y-48500D03*
X80250Y-47500D03*
X80250Y-48500D03*
X81250Y-47500D03*
X81250Y-48500D03*
G54D11*
X89250Y-47500D03*
G54D12*
X89250Y-48500D03*
X90250Y-47500D03*
X90250Y-48500D03*
X91250Y-47500D03*
X91250Y-48500D03*
X92250Y-47500D03*
X92250Y-48500D03*
X93250Y-47500D03*
X93250Y-48500D03*
G54D11*
X84250Y-47500D03*
G54D12*
X85250Y-47500D03*
X84250Y-48500D03*
X85250Y-48500D03*
X86250Y-47500D03*
X86250Y-48500D03*
G54D11*
X94750Y-43750D03*
G54D12*
X94750Y-44750D03*
X95750Y-43750D03*
X95750Y-44750D03*
G54D11*
X94750Y-51250D03*
G54D12*
X94750Y-52250D03*
X95750Y-51250D03*
X95750Y-52250D03*
G54D13*
X95505Y-59393D03*
X95505Y-58606D03*
X94718Y-59393D03*
X94718Y-58606D03*
X93931Y-59393D03*
X93931Y-58606D03*
X93143Y-59393D03*
X93143Y-58606D03*
X92356Y-59393D03*
X92356Y-58606D03*
X91568Y-59393D03*
X91568Y-58606D03*
X90781Y-59393D03*
X90781Y-58606D03*
X89994Y-59393D03*
X89994Y-58606D03*
X80505Y-59393D03*
X80505Y-58606D03*
X79718Y-59393D03*
X79718Y-58606D03*
X78931Y-59393D03*
X78931Y-58606D03*
X78143Y-59393D03*
X78143Y-58606D03*
X77356Y-59393D03*
X77356Y-58606D03*
X76568Y-59393D03*
X76568Y-58606D03*
X75781Y-59393D03*
X75781Y-58606D03*
X74994Y-59393D03*
X74994Y-58606D03*
X89994Y-36606D03*
X89994Y-37393D03*
X90781Y-36606D03*
X90781Y-37393D03*
X91568Y-36606D03*
X91568Y-37393D03*
X92356Y-36606D03*
X92356Y-37393D03*
X93143Y-36606D03*
X93143Y-37393D03*
X93931Y-36606D03*
X93931Y-37393D03*
X94718Y-36606D03*
X94718Y-37393D03*
X95505Y-36606D03*
X95505Y-37393D03*
X74994Y-36606D03*
X74994Y-37393D03*
X75781Y-36606D03*
X75781Y-37393D03*
X76568Y-36606D03*
X76568Y-37393D03*
X77356Y-36606D03*
X77356Y-37393D03*
X78143Y-36606D03*
X78143Y-37393D03*
X78931Y-36606D03*
X78931Y-37393D03*
X79718Y-36606D03*
X79718Y-37393D03*
X80505Y-36606D03*
X80505Y-37393D03*
G54D14*
X84700Y-38000D03*
X85700Y-38000D03*
X85750Y-58000D03*
X84750Y-58000D03*
G54D13*
X97643Y-47000D03*
X96856Y-47000D03*
X96856Y-49250D03*
X97643Y-49250D03*
G54D15*
X74100Y-62100D03*
X77750Y-60850D03*
X81400Y-62100D03*
X89050Y-62200D03*
X92800Y-60900D03*
X97200Y-61450D03*
X97300Y-57400D03*
X96950Y-42900D03*
X95150Y-41750D03*
X96350Y-33950D03*
X92750Y-35200D03*
X89100Y-33950D03*
X81400Y-33900D03*
X77750Y-35050D03*
X74900Y-33950D03*
X74100Y-48100D03*
X78850Y-44400D03*
X74950Y-45250D03*
X73950Y-50400D03*
X75950Y-51050D03*
X75950Y-52450D03*
X73950Y-51800D03*
X74950Y-43150D03*
X73950Y-53200D03*
G54D16*
X84200Y-50600D03*
X82200Y-51450D03*
X82200Y-44550D03*
X84200Y-45400D03*
X86300Y-45400D03*
X88300Y-44550D03*
X88300Y-51450D03*
X86300Y-50600D03*
G54D15*
X97750Y-51250D03*
X97750Y-52250D03*
G54D16*
X83400Y-51650D03*
X83400Y-44350D03*
X87100Y-44350D03*
X87100Y-51650D03*
G54D15*
X96750Y-51750D03*
X81000Y-50700D03*
X81000Y-45000D03*
X93250Y-51750D03*
X92250Y-51250D03*
X92250Y-52250D03*
G54D17*
X83000Y-49000D02*
X83500Y-49500D01*
X83000Y-49000D02*
X83000Y-47000D01*
X83000Y-47000D02*
X81000Y-45000D01*
X83500Y-49500D02*
X83000Y-50000D01*
X81000Y-50250D02*
X81000Y-51500D01*
X81250Y-50000D02*
X81000Y-50250D01*
X83000Y-50000D02*
X81250Y-50000D01*
X92250Y-51250D02*
X92000Y-51250D01*
X90250Y-49500D02*
X83500Y-49500D01*
X92000Y-51250D02*
X90250Y-49500D01*
G54D10*
G36*
X98910Y-62910D02*
X98445Y-62910D01*
X98445Y-55362D01*
X98445Y-40362D01*
X98340Y-40106D01*
X98144Y-39910D01*
X97888Y-39804D01*
X97612Y-39804D01*
X97356Y-39909D01*
X97160Y-40105D01*
X97054Y-40361D01*
X97054Y-40637D01*
X97159Y-40893D01*
X97355Y-41089D01*
X97611Y-41195D01*
X97887Y-41195D01*
X98143Y-41090D01*
X98339Y-40894D01*
X98445Y-40638D01*
X98445Y-40362D01*
X98445Y-55362D01*
X98340Y-55106D01*
X98144Y-54910D01*
X97984Y-54844D01*
X97984Y-49182D01*
X97984Y-46932D01*
X97932Y-46807D01*
X97836Y-46711D01*
X97711Y-46659D01*
X97576Y-46659D01*
X97451Y-46711D01*
X97355Y-46806D01*
X97305Y-46927D01*
X97305Y-42829D01*
X97251Y-42699D01*
X97151Y-42599D01*
X97020Y-42545D01*
X96879Y-42544D01*
X96749Y-42598D01*
X96705Y-42642D01*
X96705Y-33879D01*
X96651Y-33749D01*
X96551Y-33649D01*
X96420Y-33595D01*
X96279Y-33594D01*
X96149Y-33648D01*
X96049Y-33748D01*
X95995Y-33879D01*
X95994Y-34020D01*
X96048Y-34150D01*
X96148Y-34250D01*
X96279Y-34304D01*
X96420Y-34305D01*
X96550Y-34251D01*
X96650Y-34151D01*
X96704Y-34020D01*
X96705Y-33879D01*
X96705Y-42642D01*
X96649Y-42698D01*
X96595Y-42829D01*
X96594Y-42970D01*
X96648Y-43100D01*
X96748Y-43200D01*
X96879Y-43254D01*
X97020Y-43255D01*
X97150Y-43201D01*
X97250Y-43101D01*
X97304Y-42970D01*
X97305Y-42829D01*
X97305Y-46927D01*
X97303Y-46931D01*
X97303Y-47067D01*
X97354Y-47192D01*
X97450Y-47288D01*
X97575Y-47340D01*
X97711Y-47340D01*
X97836Y-47288D01*
X97932Y-47193D01*
X97984Y-47068D01*
X97984Y-46932D01*
X97984Y-49182D01*
X97932Y-49057D01*
X97836Y-48961D01*
X97711Y-48909D01*
X97576Y-48909D01*
X97451Y-48961D01*
X97355Y-49056D01*
X97303Y-49181D01*
X97303Y-49317D01*
X97354Y-49442D01*
X97450Y-49538D01*
X97575Y-49590D01*
X97711Y-49590D01*
X97836Y-49538D01*
X97932Y-49443D01*
X97984Y-49318D01*
X97984Y-49182D01*
X97984Y-54844D01*
X97888Y-54804D01*
X97612Y-54804D01*
X97356Y-54909D01*
X97196Y-55069D01*
X97196Y-46932D01*
X97145Y-46807D01*
X97049Y-46711D01*
X96924Y-46659D01*
X96788Y-46659D01*
X96663Y-46711D01*
X96567Y-46806D01*
X96515Y-46931D01*
X96515Y-47067D01*
X96567Y-47192D01*
X96663Y-47288D01*
X96788Y-47340D01*
X96923Y-47340D01*
X97048Y-47288D01*
X97144Y-47193D01*
X97196Y-47068D01*
X97196Y-46932D01*
X97196Y-55069D01*
X97160Y-55105D01*
X97054Y-55361D01*
X97054Y-55637D01*
X97159Y-55893D01*
X97355Y-56089D01*
X97611Y-56195D01*
X97887Y-56195D01*
X98143Y-56090D01*
X98339Y-55894D01*
X98445Y-55638D01*
X98445Y-55362D01*
X98445Y-62910D01*
X97655Y-62910D01*
X97655Y-57329D01*
X97601Y-57199D01*
X97501Y-57099D01*
X97370Y-57045D01*
X97229Y-57044D01*
X97099Y-57098D01*
X96999Y-57198D01*
X96945Y-57329D01*
X96944Y-57470D01*
X96998Y-57600D01*
X97098Y-57700D01*
X97229Y-57754D01*
X97370Y-57755D01*
X97500Y-57701D01*
X97600Y-57601D01*
X97654Y-57470D01*
X97655Y-57329D01*
X97655Y-62910D01*
X97555Y-62910D01*
X97555Y-61379D01*
X97501Y-61249D01*
X97401Y-61149D01*
X97270Y-61095D01*
X97129Y-61094D01*
X96999Y-61148D01*
X96899Y-61248D01*
X96845Y-61379D01*
X96844Y-61520D01*
X96898Y-61650D01*
X96998Y-61750D01*
X97129Y-61804D01*
X97270Y-61805D01*
X97400Y-61751D01*
X97500Y-61651D01*
X97554Y-61520D01*
X97555Y-61379D01*
X97555Y-62910D01*
X96139Y-62910D01*
X96139Y-44672D01*
X96139Y-43672D01*
X96080Y-43529D01*
X95971Y-43419D01*
X95845Y-43367D01*
X95845Y-37326D01*
X95845Y-36539D01*
X95794Y-36414D01*
X95698Y-36318D01*
X95573Y-36266D01*
X95438Y-36266D01*
X95313Y-36318D01*
X95218Y-36413D01*
X95166Y-36538D01*
X95166Y-36673D01*
X95217Y-36798D01*
X95313Y-36894D01*
X95438Y-36945D01*
X95573Y-36946D01*
X95698Y-36894D01*
X95793Y-36798D01*
X95845Y-36674D01*
X95845Y-36539D01*
X95845Y-37326D01*
X95794Y-37201D01*
X95698Y-37105D01*
X95573Y-37054D01*
X95438Y-37053D01*
X95313Y-37105D01*
X95218Y-37201D01*
X95166Y-37325D01*
X95166Y-37460D01*
X95217Y-37585D01*
X95313Y-37681D01*
X95438Y-37733D01*
X95573Y-37733D01*
X95698Y-37681D01*
X95793Y-37586D01*
X95845Y-37461D01*
X95845Y-37326D01*
X95845Y-43367D01*
X95827Y-43360D01*
X95672Y-43360D01*
X95529Y-43419D01*
X95505Y-43443D01*
X95505Y-41679D01*
X95451Y-41549D01*
X95351Y-41449D01*
X95220Y-41395D01*
X95079Y-41394D01*
X95058Y-41403D01*
X95058Y-37326D01*
X95058Y-36539D01*
X95006Y-36414D01*
X94911Y-36318D01*
X94786Y-36266D01*
X94651Y-36266D01*
X94526Y-36318D01*
X94430Y-36413D01*
X94378Y-36538D01*
X94378Y-36673D01*
X94430Y-36798D01*
X94525Y-36894D01*
X94650Y-36945D01*
X94785Y-36946D01*
X94910Y-36894D01*
X95006Y-36798D01*
X95058Y-36674D01*
X95058Y-36539D01*
X95058Y-37326D01*
X95006Y-37201D01*
X94911Y-37105D01*
X94786Y-37054D01*
X94651Y-37053D01*
X94526Y-37105D01*
X94430Y-37201D01*
X94378Y-37325D01*
X94378Y-37460D01*
X94430Y-37585D01*
X94525Y-37681D01*
X94650Y-37733D01*
X94785Y-37733D01*
X94910Y-37681D01*
X95006Y-37586D01*
X95058Y-37461D01*
X95058Y-37326D01*
X95058Y-41403D01*
X94949Y-41448D01*
X94849Y-41548D01*
X94795Y-41679D01*
X94794Y-41820D01*
X94848Y-41950D01*
X94948Y-42050D01*
X95079Y-42104D01*
X95220Y-42105D01*
X95350Y-42051D01*
X95450Y-41951D01*
X95504Y-41820D01*
X95505Y-41679D01*
X95505Y-43443D01*
X95419Y-43528D01*
X95360Y-43672D01*
X95360Y-43827D01*
X95419Y-43970D01*
X95528Y-44080D01*
X95672Y-44139D01*
X95827Y-44139D01*
X95970Y-44080D01*
X96080Y-43971D01*
X96139Y-43827D01*
X96139Y-43672D01*
X96139Y-44672D01*
X96080Y-44529D01*
X95971Y-44419D01*
X95827Y-44360D01*
X95672Y-44360D01*
X95529Y-44419D01*
X95419Y-44528D01*
X95360Y-44672D01*
X95360Y-44827D01*
X95419Y-44970D01*
X95528Y-45080D01*
X95672Y-45139D01*
X95827Y-45139D01*
X95970Y-45080D01*
X96080Y-44971D01*
X96139Y-44827D01*
X96139Y-44672D01*
X96139Y-62910D01*
X95845Y-62910D01*
X95845Y-59326D01*
X95845Y-58539D01*
X95794Y-58414D01*
X95698Y-58318D01*
X95573Y-58266D01*
X95505Y-58266D01*
X95505Y-53005D01*
X95505Y-52750D01*
X95505Y-50500D01*
X95505Y-49197D01*
X95139Y-48832D01*
X95139Y-44672D01*
X95139Y-44672D01*
X95139Y-44087D01*
X95139Y-44061D01*
X95139Y-43412D01*
X95129Y-43388D01*
X95111Y-43370D01*
X95087Y-43360D01*
X95061Y-43360D01*
X94412Y-43360D01*
X94388Y-43370D01*
X94370Y-43388D01*
X94360Y-43412D01*
X94360Y-43438D01*
X94360Y-44087D01*
X94370Y-44111D01*
X94388Y-44129D01*
X94412Y-44139D01*
X94438Y-44139D01*
X95087Y-44139D01*
X95111Y-44129D01*
X95129Y-44111D01*
X95139Y-44087D01*
X95139Y-44672D01*
X95080Y-44529D01*
X94971Y-44419D01*
X94827Y-44360D01*
X94672Y-44360D01*
X94529Y-44419D01*
X94419Y-44528D01*
X94360Y-44672D01*
X94360Y-44827D01*
X94419Y-44970D01*
X94528Y-45080D01*
X94672Y-45139D01*
X94827Y-45139D01*
X94970Y-45080D01*
X95080Y-44971D01*
X95139Y-44827D01*
X95139Y-44672D01*
X95139Y-48832D01*
X94902Y-48595D01*
X94270Y-48595D01*
X94270Y-37326D01*
X94270Y-36539D01*
X94219Y-36414D01*
X94123Y-36318D01*
X93998Y-36266D01*
X93863Y-36266D01*
X93738Y-36318D01*
X93643Y-36413D01*
X93591Y-36538D01*
X93591Y-36673D01*
X93642Y-36798D01*
X93738Y-36894D01*
X93863Y-36945D01*
X93998Y-36946D01*
X94123Y-36894D01*
X94218Y-36798D01*
X94270Y-36674D01*
X94270Y-36539D01*
X94270Y-37326D01*
X94219Y-37201D01*
X94123Y-37105D01*
X93998Y-37054D01*
X93863Y-37053D01*
X93738Y-37105D01*
X93643Y-37201D01*
X93591Y-37325D01*
X93591Y-37460D01*
X93642Y-37585D01*
X93738Y-37681D01*
X93863Y-37733D01*
X93998Y-37733D01*
X94123Y-37681D01*
X94218Y-37586D01*
X94270Y-37461D01*
X94270Y-37326D01*
X94270Y-48595D01*
X94152Y-48595D01*
X93639Y-48082D01*
X93639Y-47422D01*
X93580Y-47279D01*
X93483Y-47182D01*
X93483Y-37326D01*
X93483Y-36539D01*
X93431Y-36414D01*
X93336Y-36318D01*
X93211Y-36266D01*
X93105Y-36266D01*
X93105Y-35129D01*
X93051Y-34999D01*
X92951Y-34899D01*
X92820Y-34845D01*
X92679Y-34844D01*
X92549Y-34898D01*
X92449Y-34998D01*
X92395Y-35129D01*
X92394Y-35270D01*
X92448Y-35400D01*
X92548Y-35500D01*
X92679Y-35554D01*
X92820Y-35555D01*
X92950Y-35501D01*
X93050Y-35401D01*
X93104Y-35270D01*
X93105Y-35129D01*
X93105Y-36266D01*
X93076Y-36266D01*
X92951Y-36318D01*
X92855Y-36413D01*
X92804Y-36538D01*
X92803Y-36673D01*
X92855Y-36798D01*
X92951Y-36894D01*
X93075Y-36945D01*
X93210Y-36946D01*
X93335Y-36894D01*
X93431Y-36798D01*
X93483Y-36674D01*
X93483Y-36539D01*
X93483Y-37326D01*
X93431Y-37201D01*
X93336Y-37105D01*
X93211Y-37054D01*
X93076Y-37053D01*
X92951Y-37105D01*
X92855Y-37201D01*
X92804Y-37325D01*
X92803Y-37460D01*
X92855Y-37585D01*
X92951Y-37681D01*
X93075Y-37733D01*
X93210Y-37733D01*
X93335Y-37681D01*
X93431Y-37586D01*
X93483Y-37461D01*
X93483Y-37326D01*
X93483Y-47182D01*
X93471Y-47169D01*
X93327Y-47110D01*
X93172Y-47110D01*
X93029Y-47169D01*
X92919Y-47278D01*
X92860Y-47422D01*
X92860Y-47577D01*
X92919Y-47720D01*
X93028Y-47830D01*
X93172Y-47889D01*
X93327Y-47889D01*
X93470Y-47830D01*
X93580Y-47721D01*
X93639Y-47577D01*
X93639Y-47422D01*
X93639Y-48082D01*
X93552Y-47995D01*
X92696Y-47995D01*
X92696Y-37326D01*
X92696Y-36539D01*
X92644Y-36414D01*
X92548Y-36318D01*
X92424Y-36266D01*
X92289Y-36266D01*
X92164Y-36318D01*
X92068Y-36413D01*
X92016Y-36538D01*
X92016Y-36673D01*
X92068Y-36798D01*
X92163Y-36894D01*
X92288Y-36945D01*
X92423Y-36946D01*
X92548Y-36894D01*
X92644Y-36798D01*
X92695Y-36674D01*
X92696Y-36539D01*
X92696Y-37326D01*
X92644Y-37201D01*
X92548Y-37105D01*
X92424Y-37054D01*
X92289Y-37053D01*
X92164Y-37105D01*
X92068Y-37201D01*
X92016Y-37325D01*
X92016Y-37460D01*
X92068Y-37585D01*
X92163Y-37681D01*
X92288Y-37733D01*
X92423Y-37733D01*
X92548Y-37681D01*
X92644Y-37586D01*
X92695Y-37461D01*
X92696Y-37326D01*
X92696Y-47995D01*
X92639Y-47995D01*
X92639Y-47422D01*
X92580Y-47279D01*
X92471Y-47169D01*
X92327Y-47110D01*
X92172Y-47110D01*
X92029Y-47169D01*
X91919Y-47278D01*
X91908Y-47305D01*
X91908Y-37326D01*
X91908Y-36539D01*
X91857Y-36414D01*
X91761Y-36318D01*
X91636Y-36266D01*
X91501Y-36266D01*
X91376Y-36318D01*
X91281Y-36413D01*
X91229Y-36538D01*
X91229Y-36673D01*
X91280Y-36798D01*
X91376Y-36894D01*
X91501Y-36945D01*
X91636Y-36946D01*
X91761Y-36894D01*
X91856Y-36798D01*
X91908Y-36674D01*
X91908Y-36539D01*
X91908Y-37326D01*
X91857Y-37201D01*
X91761Y-37105D01*
X91636Y-37054D01*
X91501Y-37053D01*
X91376Y-37105D01*
X91281Y-37201D01*
X91229Y-37325D01*
X91229Y-37460D01*
X91280Y-37585D01*
X91376Y-37681D01*
X91501Y-37733D01*
X91636Y-37733D01*
X91761Y-37681D01*
X91856Y-37586D01*
X91908Y-37461D01*
X91908Y-37326D01*
X91908Y-47305D01*
X91860Y-47422D01*
X91860Y-47577D01*
X91919Y-47720D01*
X92028Y-47830D01*
X92172Y-47889D01*
X92327Y-47889D01*
X92470Y-47830D01*
X92580Y-47721D01*
X92639Y-47577D01*
X92639Y-47422D01*
X92639Y-47995D01*
X91639Y-47995D01*
X91639Y-47422D01*
X91580Y-47279D01*
X91471Y-47169D01*
X91327Y-47110D01*
X91172Y-47110D01*
X91121Y-47131D01*
X91121Y-37326D01*
X91121Y-36539D01*
X91069Y-36414D01*
X90974Y-36318D01*
X90849Y-36266D01*
X90714Y-36266D01*
X90589Y-36318D01*
X90493Y-36413D01*
X90441Y-36538D01*
X90441Y-36673D01*
X90493Y-36798D01*
X90588Y-36894D01*
X90713Y-36945D01*
X90848Y-36946D01*
X90973Y-36894D01*
X91069Y-36798D01*
X91121Y-36674D01*
X91121Y-36539D01*
X91121Y-37326D01*
X91069Y-37201D01*
X90974Y-37105D01*
X90849Y-37054D01*
X90714Y-37053D01*
X90589Y-37105D01*
X90493Y-37201D01*
X90441Y-37325D01*
X90441Y-37460D01*
X90493Y-37585D01*
X90588Y-37681D01*
X90713Y-37733D01*
X90848Y-37733D01*
X90973Y-37681D01*
X91069Y-37586D01*
X91121Y-37461D01*
X91121Y-37326D01*
X91121Y-47131D01*
X91029Y-47169D01*
X90919Y-47278D01*
X90860Y-47422D01*
X90860Y-47577D01*
X90919Y-47720D01*
X91028Y-47830D01*
X91172Y-47889D01*
X91327Y-47889D01*
X91470Y-47830D01*
X91580Y-47721D01*
X91639Y-47577D01*
X91639Y-47422D01*
X91639Y-47995D01*
X90639Y-47995D01*
X90639Y-47422D01*
X90580Y-47279D01*
X90471Y-47169D01*
X90333Y-47112D01*
X90333Y-37326D01*
X90333Y-36539D01*
X90282Y-36414D01*
X90186Y-36318D01*
X90061Y-36266D01*
X89926Y-36266D01*
X89801Y-36318D01*
X89706Y-36413D01*
X89654Y-36538D01*
X89654Y-36673D01*
X89705Y-36798D01*
X89801Y-36894D01*
X89926Y-36945D01*
X90061Y-36946D01*
X90186Y-36894D01*
X90281Y-36798D01*
X90333Y-36674D01*
X90333Y-36539D01*
X90333Y-37326D01*
X90282Y-37201D01*
X90186Y-37105D01*
X90061Y-37054D01*
X89926Y-37053D01*
X89801Y-37105D01*
X89706Y-37201D01*
X89654Y-37325D01*
X89654Y-37460D01*
X89705Y-37585D01*
X89801Y-37681D01*
X89926Y-37733D01*
X90061Y-37733D01*
X90186Y-37681D01*
X90281Y-37586D01*
X90333Y-37461D01*
X90333Y-37326D01*
X90333Y-47112D01*
X90327Y-47110D01*
X90172Y-47110D01*
X90029Y-47169D01*
X89919Y-47278D01*
X89860Y-47422D01*
X89860Y-47577D01*
X89919Y-47720D01*
X90028Y-47830D01*
X90172Y-47889D01*
X90327Y-47889D01*
X90470Y-47830D01*
X90580Y-47721D01*
X90639Y-47577D01*
X90639Y-47422D01*
X90639Y-47995D01*
X89639Y-47995D01*
X89639Y-47837D01*
X89639Y-47811D01*
X89639Y-47162D01*
X89629Y-47138D01*
X89611Y-47120D01*
X89587Y-47110D01*
X89561Y-47110D01*
X89455Y-47110D01*
X89455Y-33879D01*
X89401Y-33749D01*
X89301Y-33649D01*
X89170Y-33595D01*
X89029Y-33594D01*
X88899Y-33648D01*
X88799Y-33748D01*
X88745Y-33879D01*
X88744Y-34020D01*
X88798Y-34150D01*
X88898Y-34250D01*
X89029Y-34304D01*
X89170Y-34305D01*
X89300Y-34251D01*
X89400Y-34151D01*
X89454Y-34020D01*
X89455Y-33879D01*
X89455Y-47110D01*
X88912Y-47110D01*
X88888Y-47120D01*
X88870Y-47138D01*
X88860Y-47162D01*
X88860Y-47188D01*
X88860Y-47837D01*
X88870Y-47861D01*
X88888Y-47879D01*
X88912Y-47889D01*
X88938Y-47889D01*
X89587Y-47889D01*
X89611Y-47879D01*
X89629Y-47861D01*
X89639Y-47837D01*
X89639Y-47995D01*
X88565Y-47995D01*
X88565Y-44497D01*
X88524Y-44400D01*
X88450Y-44325D01*
X88352Y-44285D01*
X88247Y-44284D01*
X88150Y-44325D01*
X88075Y-44399D01*
X88035Y-44497D01*
X88034Y-44602D01*
X88075Y-44699D01*
X88149Y-44774D01*
X88247Y-44814D01*
X88352Y-44815D01*
X88449Y-44774D01*
X88524Y-44700D01*
X88564Y-44602D01*
X88565Y-44497D01*
X88565Y-47995D01*
X88402Y-47995D01*
X87352Y-46945D01*
X86975Y-46945D01*
X86975Y-34446D01*
X86857Y-34161D01*
X86639Y-33943D01*
X86354Y-33825D01*
X86046Y-33824D01*
X85761Y-33942D01*
X85543Y-34160D01*
X85425Y-34445D01*
X85424Y-34753D01*
X85542Y-35038D01*
X85760Y-35256D01*
X86045Y-35374D01*
X86353Y-35375D01*
X86638Y-35257D01*
X86856Y-35039D01*
X86974Y-34754D01*
X86975Y-34446D01*
X86975Y-46945D01*
X86565Y-46945D01*
X86565Y-45347D01*
X86524Y-45250D01*
X86450Y-45175D01*
X86352Y-45135D01*
X86247Y-45134D01*
X86150Y-45175D01*
X86099Y-45225D01*
X86099Y-37920D01*
X86039Y-37773D01*
X85926Y-37661D01*
X85779Y-37600D01*
X85620Y-37600D01*
X85473Y-37660D01*
X85361Y-37773D01*
X85300Y-37920D01*
X85300Y-38079D01*
X85360Y-38226D01*
X85473Y-38338D01*
X85620Y-38399D01*
X85779Y-38399D01*
X85926Y-38339D01*
X86038Y-38226D01*
X86099Y-38079D01*
X86099Y-37920D01*
X86099Y-45225D01*
X86075Y-45249D01*
X86035Y-45347D01*
X86034Y-45452D01*
X86075Y-45549D01*
X86149Y-45624D01*
X86247Y-45664D01*
X86352Y-45665D01*
X86449Y-45624D01*
X86524Y-45550D01*
X86564Y-45452D01*
X86565Y-45347D01*
X86565Y-46945D01*
X85099Y-46945D01*
X85099Y-37920D01*
X85039Y-37773D01*
X84975Y-37709D01*
X84975Y-34446D01*
X84857Y-34161D01*
X84639Y-33943D01*
X84354Y-33825D01*
X84046Y-33824D01*
X83761Y-33942D01*
X83543Y-34160D01*
X83425Y-34445D01*
X83424Y-34753D01*
X83542Y-35038D01*
X83760Y-35256D01*
X84045Y-35374D01*
X84353Y-35375D01*
X84638Y-35257D01*
X84856Y-35039D01*
X84974Y-34754D01*
X84975Y-34446D01*
X84975Y-37709D01*
X84926Y-37661D01*
X84779Y-37600D01*
X84620Y-37600D01*
X84473Y-37660D01*
X84361Y-37773D01*
X84300Y-37920D01*
X84300Y-38079D01*
X84360Y-38226D01*
X84473Y-38338D01*
X84620Y-38399D01*
X84779Y-38399D01*
X84926Y-38339D01*
X85038Y-38226D01*
X85099Y-38079D01*
X85099Y-37920D01*
X85099Y-46945D01*
X84465Y-46945D01*
X84465Y-45347D01*
X84424Y-45250D01*
X84350Y-45175D01*
X84252Y-45135D01*
X84147Y-45134D01*
X84050Y-45175D01*
X83975Y-45249D01*
X83935Y-45347D01*
X83934Y-45452D01*
X83975Y-45549D01*
X84049Y-45624D01*
X84147Y-45664D01*
X84252Y-45665D01*
X84349Y-45624D01*
X84424Y-45550D01*
X84464Y-45452D01*
X84465Y-45347D01*
X84465Y-46945D01*
X84002Y-46945D01*
X82705Y-45548D01*
X82705Y-44397D01*
X82552Y-44245D01*
X81755Y-44245D01*
X81755Y-33829D01*
X81701Y-33699D01*
X81601Y-33599D01*
X81470Y-33545D01*
X81329Y-33544D01*
X81199Y-33598D01*
X81099Y-33698D01*
X81045Y-33829D01*
X81044Y-33970D01*
X81098Y-34100D01*
X81198Y-34200D01*
X81329Y-34254D01*
X81470Y-34255D01*
X81600Y-34201D01*
X81700Y-34101D01*
X81754Y-33970D01*
X81755Y-33829D01*
X81755Y-44245D01*
X81500Y-44245D01*
X80845Y-44245D01*
X80845Y-37326D01*
X80845Y-36539D01*
X80794Y-36414D01*
X80698Y-36318D01*
X80573Y-36266D01*
X80438Y-36266D01*
X80313Y-36318D01*
X80218Y-36413D01*
X80166Y-36538D01*
X80166Y-36673D01*
X80217Y-36798D01*
X80313Y-36894D01*
X80438Y-36945D01*
X80573Y-36946D01*
X80698Y-36894D01*
X80793Y-36798D01*
X80845Y-36674D01*
X80845Y-36539D01*
X80845Y-37326D01*
X80794Y-37201D01*
X80698Y-37105D01*
X80573Y-37054D01*
X80438Y-37053D01*
X80313Y-37105D01*
X80218Y-37201D01*
X80166Y-37325D01*
X80166Y-37460D01*
X80217Y-37585D01*
X80313Y-37681D01*
X80438Y-37733D01*
X80573Y-37733D01*
X80698Y-37681D01*
X80793Y-37586D01*
X80845Y-37461D01*
X80845Y-37326D01*
X80845Y-44245D01*
X80147Y-44245D01*
X80058Y-44334D01*
X80058Y-37326D01*
X80058Y-36539D01*
X80006Y-36414D01*
X79911Y-36318D01*
X79786Y-36266D01*
X79651Y-36266D01*
X79526Y-36318D01*
X79430Y-36413D01*
X79378Y-36538D01*
X79378Y-36673D01*
X79430Y-36798D01*
X79525Y-36894D01*
X79650Y-36945D01*
X79785Y-36946D01*
X79910Y-36894D01*
X80006Y-36798D01*
X80058Y-36674D01*
X80058Y-36539D01*
X80058Y-37326D01*
X80006Y-37201D01*
X79911Y-37105D01*
X79786Y-37054D01*
X79651Y-37053D01*
X79526Y-37105D01*
X79430Y-37201D01*
X79378Y-37325D01*
X79378Y-37460D01*
X79430Y-37585D01*
X79525Y-37681D01*
X79650Y-37733D01*
X79785Y-37733D01*
X79910Y-37681D01*
X80006Y-37586D01*
X80058Y-37461D01*
X80058Y-37326D01*
X80058Y-44334D01*
X79995Y-44397D01*
X79995Y-46705D01*
X81997Y-46705D01*
X82345Y-47052D01*
X82345Y-48897D01*
X82047Y-49195D01*
X81639Y-49195D01*
X81639Y-48422D01*
X81639Y-47422D01*
X81580Y-47279D01*
X81471Y-47169D01*
X81327Y-47110D01*
X81172Y-47110D01*
X81029Y-47169D01*
X80919Y-47278D01*
X80860Y-47422D01*
X80860Y-47577D01*
X80919Y-47720D01*
X81028Y-47830D01*
X81172Y-47889D01*
X81327Y-47889D01*
X81470Y-47830D01*
X81580Y-47721D01*
X81639Y-47577D01*
X81639Y-47422D01*
X81639Y-48422D01*
X81580Y-48279D01*
X81471Y-48169D01*
X81327Y-48110D01*
X81172Y-48110D01*
X81029Y-48169D01*
X80919Y-48278D01*
X80860Y-48422D01*
X80860Y-48577D01*
X80919Y-48720D01*
X81028Y-48830D01*
X81172Y-48889D01*
X81327Y-48889D01*
X81470Y-48830D01*
X81580Y-48721D01*
X81639Y-48577D01*
X81639Y-48422D01*
X81639Y-49195D01*
X80639Y-49195D01*
X80639Y-48422D01*
X80639Y-47422D01*
X80580Y-47279D01*
X80471Y-47169D01*
X80327Y-47110D01*
X80172Y-47110D01*
X80029Y-47169D01*
X79919Y-47278D01*
X79860Y-47422D01*
X79860Y-47577D01*
X79919Y-47720D01*
X80028Y-47830D01*
X80172Y-47889D01*
X80327Y-47889D01*
X80470Y-47830D01*
X80580Y-47721D01*
X80639Y-47577D01*
X80639Y-47422D01*
X80639Y-48422D01*
X80580Y-48279D01*
X80471Y-48169D01*
X80327Y-48110D01*
X80172Y-48110D01*
X80029Y-48169D01*
X79919Y-48278D01*
X79860Y-48422D01*
X79860Y-48577D01*
X79919Y-48720D01*
X80028Y-48830D01*
X80172Y-48889D01*
X80327Y-48889D01*
X80470Y-48830D01*
X80580Y-48721D01*
X80639Y-48577D01*
X80639Y-48422D01*
X80639Y-49195D01*
X80147Y-49195D01*
X79995Y-49347D01*
X79995Y-51852D01*
X80147Y-52005D01*
X82905Y-52005D01*
X82905Y-51702D01*
X83202Y-51405D01*
X84000Y-51405D01*
X87247Y-51405D01*
X87847Y-52005D01*
X90048Y-52005D01*
X91498Y-53005D01*
X95505Y-53005D01*
X95505Y-58266D01*
X95438Y-58266D01*
X95313Y-58318D01*
X95218Y-58413D01*
X95166Y-58538D01*
X95166Y-58673D01*
X95217Y-58798D01*
X95313Y-58894D01*
X95438Y-58945D01*
X95505Y-58945D01*
X95573Y-58946D01*
X95698Y-58894D01*
X95793Y-58798D01*
X95845Y-58674D01*
X95845Y-58539D01*
X95845Y-59326D01*
X95794Y-59201D01*
X95698Y-59105D01*
X95573Y-59054D01*
X95505Y-59054D01*
X95438Y-59053D01*
X95313Y-59105D01*
X95218Y-59201D01*
X95166Y-59325D01*
X95166Y-59460D01*
X95217Y-59585D01*
X95313Y-59681D01*
X95438Y-59733D01*
X95505Y-59733D01*
X95573Y-59733D01*
X95698Y-59681D01*
X95793Y-59586D01*
X95845Y-59461D01*
X95845Y-59326D01*
X95845Y-62910D01*
X95505Y-62910D01*
X95058Y-62910D01*
X95058Y-59326D01*
X95058Y-58539D01*
X95006Y-58414D01*
X94911Y-58318D01*
X94786Y-58266D01*
X94651Y-58266D01*
X94526Y-58318D01*
X94430Y-58413D01*
X94378Y-58538D01*
X94378Y-58673D01*
X94430Y-58798D01*
X94525Y-58894D01*
X94650Y-58945D01*
X94785Y-58946D01*
X94910Y-58894D01*
X95006Y-58798D01*
X95058Y-58674D01*
X95058Y-58539D01*
X95058Y-59326D01*
X95006Y-59201D01*
X94911Y-59105D01*
X94786Y-59054D01*
X94651Y-59053D01*
X94526Y-59105D01*
X94430Y-59201D01*
X94378Y-59325D01*
X94378Y-59460D01*
X94430Y-59585D01*
X94525Y-59681D01*
X94650Y-59733D01*
X94785Y-59733D01*
X94910Y-59681D01*
X95006Y-59586D01*
X95058Y-59461D01*
X95058Y-59326D01*
X95058Y-62910D01*
X94270Y-62910D01*
X94270Y-59326D01*
X94270Y-58539D01*
X94219Y-58414D01*
X94123Y-58318D01*
X93998Y-58266D01*
X93863Y-58266D01*
X93738Y-58318D01*
X93643Y-58413D01*
X93591Y-58538D01*
X93591Y-58673D01*
X93642Y-58798D01*
X93738Y-58894D01*
X93863Y-58945D01*
X93998Y-58946D01*
X94123Y-58894D01*
X94218Y-58798D01*
X94270Y-58674D01*
X94270Y-58539D01*
X94270Y-59326D01*
X94219Y-59201D01*
X94123Y-59105D01*
X93998Y-59054D01*
X93863Y-59053D01*
X93738Y-59105D01*
X93643Y-59201D01*
X93591Y-59325D01*
X93591Y-59460D01*
X93642Y-59585D01*
X93738Y-59681D01*
X93863Y-59733D01*
X93998Y-59733D01*
X94123Y-59681D01*
X94218Y-59586D01*
X94270Y-59461D01*
X94270Y-59326D01*
X94270Y-62910D01*
X93483Y-62910D01*
X93483Y-59326D01*
X93483Y-58539D01*
X93431Y-58414D01*
X93336Y-58318D01*
X93211Y-58266D01*
X93076Y-58266D01*
X92951Y-58318D01*
X92855Y-58413D01*
X92804Y-58538D01*
X92803Y-58673D01*
X92855Y-58798D01*
X92951Y-58894D01*
X93075Y-58945D01*
X93210Y-58946D01*
X93335Y-58894D01*
X93431Y-58798D01*
X93483Y-58674D01*
X93483Y-58539D01*
X93483Y-59326D01*
X93431Y-59201D01*
X93336Y-59105D01*
X93211Y-59054D01*
X93076Y-59053D01*
X92951Y-59105D01*
X92855Y-59201D01*
X92804Y-59325D01*
X92803Y-59460D01*
X92855Y-59585D01*
X92951Y-59681D01*
X93075Y-59733D01*
X93210Y-59733D01*
X93335Y-59681D01*
X93431Y-59586D01*
X93483Y-59461D01*
X93483Y-59326D01*
X93483Y-62910D01*
X93155Y-62910D01*
X93155Y-60829D01*
X93101Y-60699D01*
X93001Y-60599D01*
X92870Y-60545D01*
X92729Y-60544D01*
X92696Y-60558D01*
X92696Y-59326D01*
X92696Y-58539D01*
X92644Y-58414D01*
X92548Y-58318D01*
X92424Y-58266D01*
X92289Y-58266D01*
X92164Y-58318D01*
X92068Y-58413D01*
X92016Y-58538D01*
X92016Y-58673D01*
X92068Y-58798D01*
X92163Y-58894D01*
X92288Y-58945D01*
X92423Y-58946D01*
X92548Y-58894D01*
X92644Y-58798D01*
X92695Y-58674D01*
X92696Y-58539D01*
X92696Y-59326D01*
X92644Y-59201D01*
X92548Y-59105D01*
X92424Y-59054D01*
X92289Y-59053D01*
X92164Y-59105D01*
X92068Y-59201D01*
X92016Y-59325D01*
X92016Y-59460D01*
X92068Y-59585D01*
X92163Y-59681D01*
X92288Y-59733D01*
X92423Y-59733D01*
X92548Y-59681D01*
X92644Y-59586D01*
X92695Y-59461D01*
X92696Y-59326D01*
X92696Y-60558D01*
X92599Y-60598D01*
X92499Y-60698D01*
X92445Y-60829D01*
X92444Y-60970D01*
X92498Y-61100D01*
X92598Y-61200D01*
X92729Y-61254D01*
X92870Y-61255D01*
X93000Y-61201D01*
X93100Y-61101D01*
X93154Y-60970D01*
X93155Y-60829D01*
X93155Y-62910D01*
X91908Y-62910D01*
X91908Y-59326D01*
X91908Y-58539D01*
X91857Y-58414D01*
X91761Y-58318D01*
X91636Y-58266D01*
X91501Y-58266D01*
X91376Y-58318D01*
X91281Y-58413D01*
X91229Y-58538D01*
X91229Y-58673D01*
X91280Y-58798D01*
X91376Y-58894D01*
X91501Y-58945D01*
X91636Y-58946D01*
X91761Y-58894D01*
X91856Y-58798D01*
X91908Y-58674D01*
X91908Y-58539D01*
X91908Y-59326D01*
X91857Y-59201D01*
X91761Y-59105D01*
X91636Y-59054D01*
X91501Y-59053D01*
X91376Y-59105D01*
X91281Y-59201D01*
X91229Y-59325D01*
X91229Y-59460D01*
X91280Y-59585D01*
X91376Y-59681D01*
X91501Y-59733D01*
X91636Y-59733D01*
X91761Y-59681D01*
X91856Y-59586D01*
X91908Y-59461D01*
X91908Y-59326D01*
X91908Y-62910D01*
X91121Y-62910D01*
X91121Y-59326D01*
X91121Y-58539D01*
X91069Y-58414D01*
X90974Y-58318D01*
X90849Y-58266D01*
X90714Y-58266D01*
X90589Y-58318D01*
X90493Y-58413D01*
X90441Y-58538D01*
X90441Y-58673D01*
X90493Y-58798D01*
X90588Y-58894D01*
X90713Y-58945D01*
X90848Y-58946D01*
X90973Y-58894D01*
X91069Y-58798D01*
X91121Y-58674D01*
X91121Y-58539D01*
X91121Y-59326D01*
X91069Y-59201D01*
X90974Y-59105D01*
X90849Y-59054D01*
X90714Y-59053D01*
X90589Y-59105D01*
X90493Y-59201D01*
X90441Y-59325D01*
X90441Y-59460D01*
X90493Y-59585D01*
X90588Y-59681D01*
X90713Y-59733D01*
X90848Y-59733D01*
X90973Y-59681D01*
X91069Y-59586D01*
X91121Y-59461D01*
X91121Y-59326D01*
X91121Y-62910D01*
X90333Y-62910D01*
X90333Y-59326D01*
X90333Y-58539D01*
X90282Y-58414D01*
X90186Y-58318D01*
X90061Y-58266D01*
X89926Y-58266D01*
X89801Y-58318D01*
X89706Y-58413D01*
X89654Y-58538D01*
X89654Y-58673D01*
X89705Y-58798D01*
X89801Y-58894D01*
X89926Y-58945D01*
X90061Y-58946D01*
X90186Y-58894D01*
X90281Y-58798D01*
X90333Y-58674D01*
X90333Y-58539D01*
X90333Y-59326D01*
X90282Y-59201D01*
X90186Y-59105D01*
X90061Y-59054D01*
X89926Y-59053D01*
X89801Y-59105D01*
X89706Y-59201D01*
X89654Y-59325D01*
X89654Y-59460D01*
X89705Y-59585D01*
X89801Y-59681D01*
X89926Y-59733D01*
X90061Y-59733D01*
X90186Y-59681D01*
X90281Y-59586D01*
X90333Y-59461D01*
X90333Y-59326D01*
X90333Y-62910D01*
X89405Y-62910D01*
X89405Y-62129D01*
X89351Y-61999D01*
X89251Y-61899D01*
X89120Y-61845D01*
X88979Y-61844D01*
X88849Y-61898D01*
X88749Y-61998D01*
X88695Y-62129D01*
X88694Y-62270D01*
X88748Y-62400D01*
X88848Y-62500D01*
X88979Y-62554D01*
X89120Y-62555D01*
X89250Y-62501D01*
X89350Y-62401D01*
X89404Y-62270D01*
X89405Y-62129D01*
X89405Y-62910D01*
X87025Y-62910D01*
X87025Y-61246D01*
X86907Y-60961D01*
X86689Y-60743D01*
X86404Y-60625D01*
X86149Y-60624D01*
X86149Y-57920D01*
X86089Y-57773D01*
X85976Y-57661D01*
X85829Y-57600D01*
X85670Y-57600D01*
X85523Y-57660D01*
X85411Y-57773D01*
X85350Y-57920D01*
X85350Y-58079D01*
X85410Y-58226D01*
X85523Y-58338D01*
X85670Y-58399D01*
X85829Y-58399D01*
X85976Y-58339D01*
X86088Y-58226D01*
X86149Y-58079D01*
X86149Y-57920D01*
X86149Y-60624D01*
X86096Y-60624D01*
X85811Y-60742D01*
X85593Y-60960D01*
X85475Y-61245D01*
X85474Y-61553D01*
X85592Y-61838D01*
X85810Y-62056D01*
X86095Y-62174D01*
X86403Y-62175D01*
X86688Y-62057D01*
X86906Y-61839D01*
X87024Y-61554D01*
X87025Y-61246D01*
X87025Y-62910D01*
X85149Y-62910D01*
X85149Y-57920D01*
X85089Y-57773D01*
X84976Y-57661D01*
X84829Y-57600D01*
X84670Y-57600D01*
X84523Y-57660D01*
X84411Y-57773D01*
X84350Y-57920D01*
X84350Y-58079D01*
X84410Y-58226D01*
X84523Y-58338D01*
X84670Y-58399D01*
X84829Y-58399D01*
X84976Y-58339D01*
X85088Y-58226D01*
X85149Y-58079D01*
X85149Y-57920D01*
X85149Y-62910D01*
X85025Y-62910D01*
X85025Y-61246D01*
X84907Y-60961D01*
X84689Y-60743D01*
X84404Y-60625D01*
X84096Y-60624D01*
X83811Y-60742D01*
X83593Y-60960D01*
X83475Y-61245D01*
X83474Y-61553D01*
X83592Y-61838D01*
X83810Y-62056D01*
X84095Y-62174D01*
X84403Y-62175D01*
X84688Y-62057D01*
X84906Y-61839D01*
X85024Y-61554D01*
X85025Y-61246D01*
X85025Y-62910D01*
X81755Y-62910D01*
X81755Y-62029D01*
X81701Y-61899D01*
X81601Y-61799D01*
X81470Y-61745D01*
X81329Y-61744D01*
X81199Y-61798D01*
X81099Y-61898D01*
X81045Y-62029D01*
X81044Y-62170D01*
X81098Y-62300D01*
X81198Y-62400D01*
X81329Y-62454D01*
X81470Y-62455D01*
X81600Y-62401D01*
X81700Y-62301D01*
X81754Y-62170D01*
X81755Y-62029D01*
X81755Y-62910D01*
X80845Y-62910D01*
X80845Y-59326D01*
X80845Y-58539D01*
X80794Y-58414D01*
X80698Y-58318D01*
X80573Y-58266D01*
X80438Y-58266D01*
X80313Y-58318D01*
X80218Y-58413D01*
X80166Y-58538D01*
X80166Y-58673D01*
X80217Y-58798D01*
X80313Y-58894D01*
X80438Y-58945D01*
X80573Y-58946D01*
X80698Y-58894D01*
X80793Y-58798D01*
X80845Y-58674D01*
X80845Y-58539D01*
X80845Y-59326D01*
X80794Y-59201D01*
X80698Y-59105D01*
X80573Y-59054D01*
X80438Y-59053D01*
X80313Y-59105D01*
X80218Y-59201D01*
X80166Y-59325D01*
X80166Y-59460D01*
X80217Y-59585D01*
X80313Y-59681D01*
X80438Y-59733D01*
X80573Y-59733D01*
X80698Y-59681D01*
X80793Y-59586D01*
X80845Y-59461D01*
X80845Y-59326D01*
X80845Y-62910D01*
X80058Y-62910D01*
X80058Y-59326D01*
X80058Y-58539D01*
X80006Y-58414D01*
X79911Y-58318D01*
X79786Y-58266D01*
X79651Y-58266D01*
X79639Y-58271D01*
X79639Y-48422D01*
X79639Y-47422D01*
X79580Y-47279D01*
X79471Y-47169D01*
X79327Y-47110D01*
X79270Y-47110D01*
X79270Y-37326D01*
X79270Y-36539D01*
X79219Y-36414D01*
X79123Y-36318D01*
X78998Y-36266D01*
X78863Y-36266D01*
X78738Y-36318D01*
X78643Y-36413D01*
X78591Y-36538D01*
X78591Y-36673D01*
X78642Y-36798D01*
X78738Y-36894D01*
X78863Y-36945D01*
X78998Y-36946D01*
X79123Y-36894D01*
X79218Y-36798D01*
X79270Y-36674D01*
X79270Y-36539D01*
X79270Y-37326D01*
X79219Y-37201D01*
X79123Y-37105D01*
X78998Y-37054D01*
X78863Y-37053D01*
X78738Y-37105D01*
X78643Y-37201D01*
X78591Y-37325D01*
X78591Y-37460D01*
X78642Y-37585D01*
X78738Y-37681D01*
X78863Y-37733D01*
X78998Y-37733D01*
X79123Y-37681D01*
X79218Y-37586D01*
X79270Y-37461D01*
X79270Y-37326D01*
X79270Y-47110D01*
X79205Y-47110D01*
X79205Y-44329D01*
X79151Y-44199D01*
X79051Y-44099D01*
X78920Y-44045D01*
X78779Y-44044D01*
X78649Y-44098D01*
X78549Y-44198D01*
X78495Y-44329D01*
X78494Y-44470D01*
X78548Y-44600D01*
X78648Y-44700D01*
X78779Y-44754D01*
X78920Y-44755D01*
X79050Y-44701D01*
X79150Y-44601D01*
X79204Y-44470D01*
X79205Y-44329D01*
X79205Y-47110D01*
X79172Y-47110D01*
X79029Y-47169D01*
X78919Y-47278D01*
X78860Y-47422D01*
X78860Y-47577D01*
X78919Y-47720D01*
X79028Y-47830D01*
X79172Y-47889D01*
X79327Y-47889D01*
X79470Y-47830D01*
X79580Y-47721D01*
X79639Y-47577D01*
X79639Y-47422D01*
X79639Y-48422D01*
X79580Y-48279D01*
X79471Y-48169D01*
X79327Y-48110D01*
X79172Y-48110D01*
X79029Y-48169D01*
X78919Y-48278D01*
X78860Y-48422D01*
X78860Y-48577D01*
X78919Y-48720D01*
X79028Y-48830D01*
X79172Y-48889D01*
X79327Y-48889D01*
X79470Y-48830D01*
X79580Y-48721D01*
X79639Y-48577D01*
X79639Y-48422D01*
X79639Y-58271D01*
X79526Y-58318D01*
X79430Y-58413D01*
X79378Y-58538D01*
X79378Y-58673D01*
X79430Y-58798D01*
X79525Y-58894D01*
X79650Y-58945D01*
X79785Y-58946D01*
X79910Y-58894D01*
X80006Y-58798D01*
X80058Y-58674D01*
X80058Y-58539D01*
X80058Y-59326D01*
X80006Y-59201D01*
X79911Y-59105D01*
X79786Y-59054D01*
X79651Y-59053D01*
X79526Y-59105D01*
X79430Y-59201D01*
X79378Y-59325D01*
X79378Y-59460D01*
X79430Y-59585D01*
X79525Y-59681D01*
X79650Y-59733D01*
X79785Y-59733D01*
X79910Y-59681D01*
X80006Y-59586D01*
X80058Y-59461D01*
X80058Y-59326D01*
X80058Y-62910D01*
X79270Y-62910D01*
X79270Y-59326D01*
X79270Y-58539D01*
X79219Y-58414D01*
X79123Y-58318D01*
X78998Y-58266D01*
X78863Y-58266D01*
X78738Y-58318D01*
X78643Y-58413D01*
X78639Y-58421D01*
X78639Y-48422D01*
X78639Y-47422D01*
X78580Y-47279D01*
X78483Y-47182D01*
X78483Y-37326D01*
X78483Y-36539D01*
X78431Y-36414D01*
X78336Y-36318D01*
X78211Y-36266D01*
X78105Y-36266D01*
X78105Y-34979D01*
X78051Y-34849D01*
X77951Y-34749D01*
X77820Y-34695D01*
X77679Y-34694D01*
X77549Y-34748D01*
X77449Y-34848D01*
X77395Y-34979D01*
X77394Y-35120D01*
X77448Y-35250D01*
X77548Y-35350D01*
X77679Y-35404D01*
X77820Y-35405D01*
X77950Y-35351D01*
X78050Y-35251D01*
X78104Y-35120D01*
X78105Y-34979D01*
X78105Y-36266D01*
X78076Y-36266D01*
X77951Y-36318D01*
X77855Y-36413D01*
X77804Y-36538D01*
X77803Y-36673D01*
X77855Y-36798D01*
X77951Y-36894D01*
X78075Y-36945D01*
X78210Y-36946D01*
X78335Y-36894D01*
X78431Y-36798D01*
X78483Y-36674D01*
X78483Y-36539D01*
X78483Y-37326D01*
X78431Y-37201D01*
X78336Y-37105D01*
X78211Y-37054D01*
X78076Y-37053D01*
X77951Y-37105D01*
X77855Y-37201D01*
X77804Y-37325D01*
X77803Y-37460D01*
X77855Y-37585D01*
X77951Y-37681D01*
X78075Y-37733D01*
X78210Y-37733D01*
X78335Y-37681D01*
X78431Y-37586D01*
X78483Y-37461D01*
X78483Y-37326D01*
X78483Y-47182D01*
X78471Y-47169D01*
X78327Y-47110D01*
X78172Y-47110D01*
X78029Y-47169D01*
X77919Y-47278D01*
X77860Y-47422D01*
X77860Y-47577D01*
X77919Y-47720D01*
X78028Y-47830D01*
X78172Y-47889D01*
X78327Y-47889D01*
X78470Y-47830D01*
X78580Y-47721D01*
X78639Y-47577D01*
X78639Y-47422D01*
X78639Y-48422D01*
X78580Y-48279D01*
X78471Y-48169D01*
X78327Y-48110D01*
X78172Y-48110D01*
X78029Y-48169D01*
X77919Y-48278D01*
X77860Y-48422D01*
X77860Y-48577D01*
X77919Y-48720D01*
X78028Y-48830D01*
X78172Y-48889D01*
X78327Y-48889D01*
X78470Y-48830D01*
X78580Y-48721D01*
X78639Y-48577D01*
X78639Y-48422D01*
X78639Y-58421D01*
X78591Y-58538D01*
X78591Y-58673D01*
X78642Y-58798D01*
X78738Y-58894D01*
X78863Y-58945D01*
X78998Y-58946D01*
X79123Y-58894D01*
X79218Y-58798D01*
X79270Y-58674D01*
X79270Y-58539D01*
X79270Y-59326D01*
X79219Y-59201D01*
X79123Y-59105D01*
X78998Y-59054D01*
X78863Y-59053D01*
X78738Y-59105D01*
X78643Y-59201D01*
X78591Y-59325D01*
X78591Y-59460D01*
X78642Y-59585D01*
X78738Y-59681D01*
X78863Y-59733D01*
X78998Y-59733D01*
X79123Y-59681D01*
X79218Y-59586D01*
X79270Y-59461D01*
X79270Y-59326D01*
X79270Y-62910D01*
X78483Y-62910D01*
X78483Y-59326D01*
X78483Y-58539D01*
X78431Y-58414D01*
X78336Y-58318D01*
X78211Y-58266D01*
X78076Y-58266D01*
X77951Y-58318D01*
X77855Y-58413D01*
X77804Y-58538D01*
X77803Y-58673D01*
X77855Y-58798D01*
X77951Y-58894D01*
X78075Y-58945D01*
X78210Y-58946D01*
X78335Y-58894D01*
X78431Y-58798D01*
X78483Y-58674D01*
X78483Y-58539D01*
X78483Y-59326D01*
X78431Y-59201D01*
X78336Y-59105D01*
X78211Y-59054D01*
X78076Y-59053D01*
X77951Y-59105D01*
X77855Y-59201D01*
X77804Y-59325D01*
X77803Y-59460D01*
X77855Y-59585D01*
X77951Y-59681D01*
X78075Y-59733D01*
X78210Y-59733D01*
X78335Y-59681D01*
X78431Y-59586D01*
X78483Y-59461D01*
X78483Y-59326D01*
X78483Y-62910D01*
X78105Y-62910D01*
X78105Y-60779D01*
X78051Y-60649D01*
X77951Y-60549D01*
X77820Y-60495D01*
X77696Y-60494D01*
X77696Y-59326D01*
X77696Y-58539D01*
X77696Y-37326D01*
X77696Y-36539D01*
X77644Y-36414D01*
X77548Y-36318D01*
X77424Y-36266D01*
X77289Y-36266D01*
X77164Y-36318D01*
X77068Y-36413D01*
X77016Y-36538D01*
X77016Y-36673D01*
X77068Y-36798D01*
X77163Y-36894D01*
X77288Y-36945D01*
X77423Y-36946D01*
X77548Y-36894D01*
X77644Y-36798D01*
X77695Y-36674D01*
X77696Y-36539D01*
X77696Y-37326D01*
X77644Y-37201D01*
X77548Y-37105D01*
X77424Y-37054D01*
X77289Y-37053D01*
X77164Y-37105D01*
X77068Y-37201D01*
X77016Y-37325D01*
X77016Y-37460D01*
X77068Y-37585D01*
X77163Y-37681D01*
X77288Y-37733D01*
X77423Y-37733D01*
X77548Y-37681D01*
X77644Y-37586D01*
X77695Y-37461D01*
X77696Y-37326D01*
X77696Y-58539D01*
X77644Y-58414D01*
X77639Y-58409D01*
X77639Y-48422D01*
X77639Y-48422D01*
X77639Y-47837D01*
X77639Y-47811D01*
X77639Y-47162D01*
X77629Y-47138D01*
X77611Y-47120D01*
X77587Y-47110D01*
X77561Y-47110D01*
X76912Y-47110D01*
X76908Y-47111D01*
X76908Y-37326D01*
X76908Y-36539D01*
X76857Y-36414D01*
X76761Y-36318D01*
X76636Y-36266D01*
X76501Y-36266D01*
X76376Y-36318D01*
X76281Y-36413D01*
X76229Y-36538D01*
X76229Y-36673D01*
X76280Y-36798D01*
X76376Y-36894D01*
X76501Y-36945D01*
X76636Y-36946D01*
X76761Y-36894D01*
X76856Y-36798D01*
X76908Y-36674D01*
X76908Y-36539D01*
X76908Y-37326D01*
X76857Y-37201D01*
X76761Y-37105D01*
X76636Y-37054D01*
X76501Y-37053D01*
X76376Y-37105D01*
X76281Y-37201D01*
X76229Y-37325D01*
X76229Y-37460D01*
X76280Y-37585D01*
X76376Y-37681D01*
X76501Y-37733D01*
X76636Y-37733D01*
X76761Y-37681D01*
X76856Y-37586D01*
X76908Y-37461D01*
X76908Y-37326D01*
X76908Y-47111D01*
X76888Y-47120D01*
X76870Y-47138D01*
X76860Y-47162D01*
X76860Y-47188D01*
X76860Y-47837D01*
X76870Y-47861D01*
X76888Y-47879D01*
X76912Y-47889D01*
X76938Y-47889D01*
X77587Y-47889D01*
X77611Y-47879D01*
X77629Y-47861D01*
X77639Y-47837D01*
X77639Y-48422D01*
X77580Y-48279D01*
X77471Y-48169D01*
X77327Y-48110D01*
X77172Y-48110D01*
X77029Y-48169D01*
X76919Y-48278D01*
X76860Y-48422D01*
X76860Y-48577D01*
X76919Y-48720D01*
X77028Y-48830D01*
X77172Y-48889D01*
X77327Y-48889D01*
X77470Y-48830D01*
X77580Y-48721D01*
X77639Y-48577D01*
X77639Y-48422D01*
X77639Y-58409D01*
X77548Y-58318D01*
X77424Y-58266D01*
X77289Y-58266D01*
X77164Y-58318D01*
X77068Y-58413D01*
X77016Y-58538D01*
X77016Y-58673D01*
X77068Y-58798D01*
X77163Y-58894D01*
X77288Y-58945D01*
X77423Y-58946D01*
X77548Y-58894D01*
X77644Y-58798D01*
X77695Y-58674D01*
X77696Y-58539D01*
X77696Y-59326D01*
X77644Y-59201D01*
X77548Y-59105D01*
X77424Y-59054D01*
X77289Y-59053D01*
X77164Y-59105D01*
X77068Y-59201D01*
X77016Y-59325D01*
X77016Y-59460D01*
X77068Y-59585D01*
X77163Y-59681D01*
X77288Y-59733D01*
X77423Y-59733D01*
X77548Y-59681D01*
X77644Y-59586D01*
X77695Y-59461D01*
X77696Y-59326D01*
X77696Y-60494D01*
X77679Y-60494D01*
X77549Y-60548D01*
X77449Y-60648D01*
X77395Y-60779D01*
X77394Y-60920D01*
X77448Y-61050D01*
X77548Y-61150D01*
X77679Y-61204D01*
X77820Y-61205D01*
X77950Y-61151D01*
X78050Y-61051D01*
X78104Y-60920D01*
X78105Y-60779D01*
X78105Y-62910D01*
X76908Y-62910D01*
X76908Y-59326D01*
X76908Y-58539D01*
X76857Y-58414D01*
X76761Y-58318D01*
X76636Y-58266D01*
X76501Y-58266D01*
X76376Y-58318D01*
X76305Y-58389D01*
X76305Y-52379D01*
X76305Y-50979D01*
X76251Y-50849D01*
X76151Y-50749D01*
X76121Y-50736D01*
X76121Y-37326D01*
X76121Y-36539D01*
X76069Y-36414D01*
X75974Y-36318D01*
X75849Y-36266D01*
X75714Y-36266D01*
X75589Y-36318D01*
X75493Y-36413D01*
X75441Y-36538D01*
X75441Y-36673D01*
X75493Y-36798D01*
X75588Y-36894D01*
X75713Y-36945D01*
X75848Y-36946D01*
X75973Y-36894D01*
X76069Y-36798D01*
X76121Y-36674D01*
X76121Y-36539D01*
X76121Y-37326D01*
X76069Y-37201D01*
X75974Y-37105D01*
X75849Y-37054D01*
X75714Y-37053D01*
X75589Y-37105D01*
X75493Y-37201D01*
X75441Y-37325D01*
X75441Y-37460D01*
X75493Y-37585D01*
X75588Y-37681D01*
X75713Y-37733D01*
X75848Y-37733D01*
X75973Y-37681D01*
X76069Y-37586D01*
X76121Y-37461D01*
X76121Y-37326D01*
X76121Y-50736D01*
X76020Y-50695D01*
X75879Y-50694D01*
X75749Y-50748D01*
X75649Y-50848D01*
X75595Y-50979D01*
X75594Y-51120D01*
X75648Y-51250D01*
X75748Y-51350D01*
X75879Y-51404D01*
X76020Y-51405D01*
X76150Y-51351D01*
X76250Y-51251D01*
X76304Y-51120D01*
X76305Y-50979D01*
X76305Y-52379D01*
X76251Y-52249D01*
X76151Y-52149D01*
X76020Y-52095D01*
X75879Y-52094D01*
X75749Y-52148D01*
X75649Y-52248D01*
X75595Y-52379D01*
X75594Y-52520D01*
X75648Y-52650D01*
X75748Y-52750D01*
X75879Y-52804D01*
X76020Y-52805D01*
X76150Y-52751D01*
X76250Y-52651D01*
X76304Y-52520D01*
X76305Y-52379D01*
X76305Y-58389D01*
X76281Y-58413D01*
X76229Y-58538D01*
X76229Y-58673D01*
X76280Y-58798D01*
X76376Y-58894D01*
X76501Y-58945D01*
X76636Y-58946D01*
X76761Y-58894D01*
X76856Y-58798D01*
X76908Y-58674D01*
X76908Y-58539D01*
X76908Y-59326D01*
X76857Y-59201D01*
X76761Y-59105D01*
X76636Y-59054D01*
X76501Y-59053D01*
X76376Y-59105D01*
X76281Y-59201D01*
X76229Y-59325D01*
X76229Y-59460D01*
X76280Y-59585D01*
X76376Y-59681D01*
X76501Y-59733D01*
X76636Y-59733D01*
X76761Y-59681D01*
X76856Y-59586D01*
X76908Y-59461D01*
X76908Y-59326D01*
X76908Y-62910D01*
X76121Y-62910D01*
X76121Y-59326D01*
X76121Y-58539D01*
X76069Y-58414D01*
X75974Y-58318D01*
X75849Y-58266D01*
X75714Y-58266D01*
X75589Y-58318D01*
X75493Y-58413D01*
X75441Y-58538D01*
X75441Y-58673D01*
X75493Y-58798D01*
X75588Y-58894D01*
X75713Y-58945D01*
X75848Y-58946D01*
X75973Y-58894D01*
X76069Y-58798D01*
X76121Y-58674D01*
X76121Y-58539D01*
X76121Y-59326D01*
X76069Y-59201D01*
X75974Y-59105D01*
X75849Y-59054D01*
X75714Y-59053D01*
X75589Y-59105D01*
X75493Y-59201D01*
X75441Y-59325D01*
X75441Y-59460D01*
X75493Y-59585D01*
X75588Y-59681D01*
X75713Y-59733D01*
X75848Y-59733D01*
X75973Y-59681D01*
X76069Y-59586D01*
X76121Y-59461D01*
X76121Y-59326D01*
X76121Y-62910D01*
X75333Y-62910D01*
X75333Y-59326D01*
X75333Y-58539D01*
X75333Y-37326D01*
X75333Y-36539D01*
X75282Y-36414D01*
X75255Y-36386D01*
X75255Y-33879D01*
X75201Y-33749D01*
X75101Y-33649D01*
X74970Y-33595D01*
X74829Y-33594D01*
X74699Y-33648D01*
X74599Y-33748D01*
X74545Y-33879D01*
X74544Y-34020D01*
X74598Y-34150D01*
X74698Y-34250D01*
X74829Y-34304D01*
X74970Y-34305D01*
X75100Y-34251D01*
X75200Y-34151D01*
X75254Y-34020D01*
X75255Y-33879D01*
X75255Y-36386D01*
X75186Y-36318D01*
X75061Y-36266D01*
X74926Y-36266D01*
X74801Y-36318D01*
X74706Y-36413D01*
X74654Y-36538D01*
X74654Y-36673D01*
X74705Y-36798D01*
X74801Y-36894D01*
X74926Y-36945D01*
X75061Y-36946D01*
X75186Y-36894D01*
X75281Y-36798D01*
X75333Y-36674D01*
X75333Y-36539D01*
X75333Y-37326D01*
X75282Y-37201D01*
X75186Y-37105D01*
X75061Y-37054D01*
X74926Y-37053D01*
X74801Y-37105D01*
X74706Y-37201D01*
X74654Y-37325D01*
X74654Y-37460D01*
X74705Y-37585D01*
X74801Y-37681D01*
X74926Y-37733D01*
X75061Y-37733D01*
X75186Y-37681D01*
X75281Y-37586D01*
X75333Y-37461D01*
X75333Y-37326D01*
X75333Y-58539D01*
X75305Y-58469D01*
X75305Y-45179D01*
X75305Y-43079D01*
X75251Y-42949D01*
X75151Y-42849D01*
X75020Y-42795D01*
X74879Y-42794D01*
X74749Y-42848D01*
X74649Y-42948D01*
X74595Y-43079D01*
X74594Y-43220D01*
X74648Y-43350D01*
X74748Y-43450D01*
X74879Y-43504D01*
X75020Y-43505D01*
X75150Y-43451D01*
X75250Y-43351D01*
X75304Y-43220D01*
X75305Y-43079D01*
X75305Y-45179D01*
X75251Y-45049D01*
X75151Y-44949D01*
X75020Y-44895D01*
X74879Y-44894D01*
X74749Y-44948D01*
X74649Y-45048D01*
X74595Y-45179D01*
X74594Y-45320D01*
X74648Y-45450D01*
X74748Y-45550D01*
X74879Y-45604D01*
X75020Y-45605D01*
X75150Y-45551D01*
X75250Y-45451D01*
X75304Y-45320D01*
X75305Y-45179D01*
X75305Y-58469D01*
X75282Y-58414D01*
X75186Y-58318D01*
X75061Y-58266D01*
X74926Y-58266D01*
X74801Y-58318D01*
X74706Y-58413D01*
X74654Y-58538D01*
X74654Y-58673D01*
X74705Y-58798D01*
X74801Y-58894D01*
X74926Y-58945D01*
X75061Y-58946D01*
X75186Y-58894D01*
X75281Y-58798D01*
X75333Y-58674D01*
X75333Y-58539D01*
X75333Y-59326D01*
X75282Y-59201D01*
X75186Y-59105D01*
X75061Y-59054D01*
X74926Y-59053D01*
X74801Y-59105D01*
X74706Y-59201D01*
X74654Y-59325D01*
X74654Y-59460D01*
X74705Y-59585D01*
X74801Y-59681D01*
X74926Y-59733D01*
X75061Y-59733D01*
X75186Y-59681D01*
X75281Y-59586D01*
X75333Y-59461D01*
X75333Y-59326D01*
X75333Y-62910D01*
X74455Y-62910D01*
X74455Y-62029D01*
X74455Y-48029D01*
X74401Y-47899D01*
X74301Y-47799D01*
X74170Y-47745D01*
X74029Y-47744D01*
X73899Y-47798D01*
X73799Y-47898D01*
X73745Y-48029D01*
X73744Y-48170D01*
X73798Y-48300D01*
X73898Y-48400D01*
X74029Y-48454D01*
X74170Y-48455D01*
X74300Y-48401D01*
X74400Y-48301D01*
X74454Y-48170D01*
X74455Y-48029D01*
X74455Y-62029D01*
X74401Y-61899D01*
X74305Y-61802D01*
X74305Y-53129D01*
X74305Y-51729D01*
X74305Y-50329D01*
X74251Y-50199D01*
X74151Y-50099D01*
X74020Y-50045D01*
X73879Y-50044D01*
X73749Y-50098D01*
X73649Y-50198D01*
X73595Y-50329D01*
X73594Y-50470D01*
X73648Y-50600D01*
X73748Y-50700D01*
X73879Y-50754D01*
X74020Y-50755D01*
X74150Y-50701D01*
X74250Y-50601D01*
X74304Y-50470D01*
X74305Y-50329D01*
X74305Y-51729D01*
X74251Y-51599D01*
X74151Y-51499D01*
X74020Y-51445D01*
X73879Y-51444D01*
X73749Y-51498D01*
X73649Y-51598D01*
X73595Y-51729D01*
X73594Y-51870D01*
X73648Y-52000D01*
X73748Y-52100D01*
X73879Y-52154D01*
X74020Y-52155D01*
X74150Y-52101D01*
X74250Y-52001D01*
X74304Y-51870D01*
X74305Y-51729D01*
X74305Y-53129D01*
X74251Y-52999D01*
X74151Y-52899D01*
X74020Y-52845D01*
X73879Y-52844D01*
X73749Y-52898D01*
X73649Y-52998D01*
X73595Y-53129D01*
X73594Y-53270D01*
X73648Y-53400D01*
X73748Y-53500D01*
X73879Y-53554D01*
X74020Y-53555D01*
X74150Y-53501D01*
X74250Y-53401D01*
X74304Y-53270D01*
X74305Y-53129D01*
X74305Y-61802D01*
X74301Y-61799D01*
X74170Y-61745D01*
X74029Y-61744D01*
X73899Y-61798D01*
X73799Y-61898D01*
X73745Y-62029D01*
X73744Y-62170D01*
X73798Y-62300D01*
X73898Y-62400D01*
X74029Y-62454D01*
X74170Y-62455D01*
X74300Y-62401D01*
X74400Y-62301D01*
X74454Y-62170D01*
X74455Y-62029D01*
X74455Y-62910D01*
X73445Y-62910D01*
X73445Y-55362D01*
X73445Y-40362D01*
X73340Y-40106D01*
X73144Y-39910D01*
X72888Y-39804D01*
X72612Y-39804D01*
X72356Y-39909D01*
X72160Y-40105D01*
X72054Y-40361D01*
X72054Y-40637D01*
X72159Y-40893D01*
X72355Y-41089D01*
X72611Y-41195D01*
X72887Y-41195D01*
X73143Y-41090D01*
X73339Y-40894D01*
X73445Y-40638D01*
X73445Y-40362D01*
X73445Y-55362D01*
X73340Y-55106D01*
X73144Y-54910D01*
X72888Y-54804D01*
X72612Y-54804D01*
X72356Y-54909D01*
X72160Y-55105D01*
X72054Y-55361D01*
X72054Y-55637D01*
X72159Y-55893D01*
X72355Y-56089D01*
X72611Y-56195D01*
X72887Y-56195D01*
X73143Y-56090D01*
X73339Y-55894D01*
X73445Y-55638D01*
X73445Y-55362D01*
X73445Y-62910D01*
X71590Y-62910D01*
X71590Y-33090D01*
X98910Y-33090D01*
X98910Y-62910D01*
X98910Y-62910D01*
G37*
X98910Y-62910D02*
X98445Y-62910D01*
X98445Y-55362D01*
X98445Y-40362D01*
X98340Y-40106D01*
X98144Y-39910D01*
X97888Y-39804D01*
X97612Y-39804D01*
X97356Y-39909D01*
X97160Y-40105D01*
X97054Y-40361D01*
X97054Y-40637D01*
X97159Y-40893D01*
X97355Y-41089D01*
X97611Y-41195D01*
X97887Y-41195D01*
X98143Y-41090D01*
X98339Y-40894D01*
X98445Y-40638D01*
X98445Y-40362D01*
X98445Y-55362D01*
X98340Y-55106D01*
X98144Y-54910D01*
X97984Y-54844D01*
X97984Y-49182D01*
X97984Y-46932D01*
X97932Y-46807D01*
X97836Y-46711D01*
X97711Y-46659D01*
X97576Y-46659D01*
X97451Y-46711D01*
X97355Y-46806D01*
X97305Y-46927D01*
X97305Y-42829D01*
X97251Y-42699D01*
X97151Y-42599D01*
X97020Y-42545D01*
X96879Y-42544D01*
X96749Y-42598D01*
X96705Y-42642D01*
X96705Y-33879D01*
X96651Y-33749D01*
X96551Y-33649D01*
X96420Y-33595D01*
X96279Y-33594D01*
X96149Y-33648D01*
X96049Y-33748D01*
X95995Y-33879D01*
X95994Y-34020D01*
X96048Y-34150D01*
X96148Y-34250D01*
X96279Y-34304D01*
X96420Y-34305D01*
X96550Y-34251D01*
X96650Y-34151D01*
X96704Y-34020D01*
X96705Y-33879D01*
X96705Y-42642D01*
X96649Y-42698D01*
X96595Y-42829D01*
X96594Y-42970D01*
X96648Y-43100D01*
X96748Y-43200D01*
X96879Y-43254D01*
X97020Y-43255D01*
X97150Y-43201D01*
X97250Y-43101D01*
X97304Y-42970D01*
X97305Y-42829D01*
X97305Y-46927D01*
X97303Y-46931D01*
X97303Y-47067D01*
X97354Y-47192D01*
X97450Y-47288D01*
X97575Y-47340D01*
X97711Y-47340D01*
X97836Y-47288D01*
X97932Y-47193D01*
X97984Y-47068D01*
X97984Y-46932D01*
X97984Y-49182D01*
X97932Y-49057D01*
X97836Y-48961D01*
X97711Y-48909D01*
X97576Y-48909D01*
X97451Y-48961D01*
X97355Y-49056D01*
X97303Y-49181D01*
X97303Y-49317D01*
X97354Y-49442D01*
X97450Y-49538D01*
X97575Y-49590D01*
X97711Y-49590D01*
X97836Y-49538D01*
X97932Y-49443D01*
X97984Y-49318D01*
X97984Y-49182D01*
X97984Y-54844D01*
X97888Y-54804D01*
X97612Y-54804D01*
X97356Y-54909D01*
X97196Y-55069D01*
X97196Y-46932D01*
X97145Y-46807D01*
X97049Y-46711D01*
X96924Y-46659D01*
X96788Y-46659D01*
X96663Y-46711D01*
X96567Y-46806D01*
X96515Y-46931D01*
X96515Y-47067D01*
X96567Y-47192D01*
X96663Y-47288D01*
X96788Y-47340D01*
X96923Y-47340D01*
X97048Y-47288D01*
X97144Y-47193D01*
X97196Y-47068D01*
X97196Y-46932D01*
X97196Y-55069D01*
X97160Y-55105D01*
X97054Y-55361D01*
X97054Y-55637D01*
X97159Y-55893D01*
X97355Y-56089D01*
X97611Y-56195D01*
X97887Y-56195D01*
X98143Y-56090D01*
X98339Y-55894D01*
X98445Y-55638D01*
X98445Y-55362D01*
X98445Y-62910D01*
X97655Y-62910D01*
X97655Y-57329D01*
X97601Y-57199D01*
X97501Y-57099D01*
X97370Y-57045D01*
X97229Y-57044D01*
X97099Y-57098D01*
X96999Y-57198D01*
X96945Y-57329D01*
X96944Y-57470D01*
X96998Y-57600D01*
X97098Y-57700D01*
X97229Y-57754D01*
X97370Y-57755D01*
X97500Y-57701D01*
X97600Y-57601D01*
X97654Y-57470D01*
X97655Y-57329D01*
X97655Y-62910D01*
X97555Y-62910D01*
X97555Y-61379D01*
X97501Y-61249D01*
X97401Y-61149D01*
X97270Y-61095D01*
X97129Y-61094D01*
X96999Y-61148D01*
X96899Y-61248D01*
X96845Y-61379D01*
X96844Y-61520D01*
X96898Y-61650D01*
X96998Y-61750D01*
X97129Y-61804D01*
X97270Y-61805D01*
X97400Y-61751D01*
X97500Y-61651D01*
X97554Y-61520D01*
X97555Y-61379D01*
X97555Y-62910D01*
X96139Y-62910D01*
X96139Y-44672D01*
X96139Y-43672D01*
X96080Y-43529D01*
X95971Y-43419D01*
X95845Y-43367D01*
X95845Y-37326D01*
X95845Y-36539D01*
X95794Y-36414D01*
X95698Y-36318D01*
X95573Y-36266D01*
X95438Y-36266D01*
X95313Y-36318D01*
X95218Y-36413D01*
X95166Y-36538D01*
X95166Y-36673D01*
X95217Y-36798D01*
X95313Y-36894D01*
X95438Y-36945D01*
X95573Y-36946D01*
X95698Y-36894D01*
X95793Y-36798D01*
X95845Y-36674D01*
X95845Y-36539D01*
X95845Y-37326D01*
X95794Y-37201D01*
X95698Y-37105D01*
X95573Y-37054D01*
X95438Y-37053D01*
X95313Y-37105D01*
X95218Y-37201D01*
X95166Y-37325D01*
X95166Y-37460D01*
X95217Y-37585D01*
X95313Y-37681D01*
X95438Y-37733D01*
X95573Y-37733D01*
X95698Y-37681D01*
X95793Y-37586D01*
X95845Y-37461D01*
X95845Y-37326D01*
X95845Y-43367D01*
X95827Y-43360D01*
X95672Y-43360D01*
X95529Y-43419D01*
X95505Y-43443D01*
X95505Y-41679D01*
X95451Y-41549D01*
X95351Y-41449D01*
X95220Y-41395D01*
X95079Y-41394D01*
X95058Y-41403D01*
X95058Y-37326D01*
X95058Y-36539D01*
X95006Y-36414D01*
X94911Y-36318D01*
X94786Y-36266D01*
X94651Y-36266D01*
X94526Y-36318D01*
X94430Y-36413D01*
X94378Y-36538D01*
X94378Y-36673D01*
X94430Y-36798D01*
X94525Y-36894D01*
X94650Y-36945D01*
X94785Y-36946D01*
X94910Y-36894D01*
X95006Y-36798D01*
X95058Y-36674D01*
X95058Y-36539D01*
X95058Y-37326D01*
X95006Y-37201D01*
X94911Y-37105D01*
X94786Y-37054D01*
X94651Y-37053D01*
X94526Y-37105D01*
X94430Y-37201D01*
X94378Y-37325D01*
X94378Y-37460D01*
X94430Y-37585D01*
X94525Y-37681D01*
X94650Y-37733D01*
X94785Y-37733D01*
X94910Y-37681D01*
X95006Y-37586D01*
X95058Y-37461D01*
X95058Y-37326D01*
X95058Y-41403D01*
X94949Y-41448D01*
X94849Y-41548D01*
X94795Y-41679D01*
X94794Y-41820D01*
X94848Y-41950D01*
X94948Y-42050D01*
X95079Y-42104D01*
X95220Y-42105D01*
X95350Y-42051D01*
X95450Y-41951D01*
X95504Y-41820D01*
X95505Y-41679D01*
X95505Y-43443D01*
X95419Y-43528D01*
X95360Y-43672D01*
X95360Y-43827D01*
X95419Y-43970D01*
X95528Y-44080D01*
X95672Y-44139D01*
X95827Y-44139D01*
X95970Y-44080D01*
X96080Y-43971D01*
X96139Y-43827D01*
X96139Y-43672D01*
X96139Y-44672D01*
X96080Y-44529D01*
X95971Y-44419D01*
X95827Y-44360D01*
X95672Y-44360D01*
X95529Y-44419D01*
X95419Y-44528D01*
X95360Y-44672D01*
X95360Y-44827D01*
X95419Y-44970D01*
X95528Y-45080D01*
X95672Y-45139D01*
X95827Y-45139D01*
X95970Y-45080D01*
X96080Y-44971D01*
X96139Y-44827D01*
X96139Y-44672D01*
X96139Y-62910D01*
X95845Y-62910D01*
X95845Y-59326D01*
X95845Y-58539D01*
X95794Y-58414D01*
X95698Y-58318D01*
X95573Y-58266D01*
X95505Y-58266D01*
X95505Y-53005D01*
X95505Y-52750D01*
X95505Y-50500D01*
X95505Y-49197D01*
X95139Y-48832D01*
X95139Y-44672D01*
X95139Y-44672D01*
X95139Y-44087D01*
X95139Y-44061D01*
X95139Y-43412D01*
X95129Y-43388D01*
X95111Y-43370D01*
X95087Y-43360D01*
X95061Y-43360D01*
X94412Y-43360D01*
X94388Y-43370D01*
X94370Y-43388D01*
X94360Y-43412D01*
X94360Y-43438D01*
X94360Y-44087D01*
X94370Y-44111D01*
X94388Y-44129D01*
X94412Y-44139D01*
X94438Y-44139D01*
X95087Y-44139D01*
X95111Y-44129D01*
X95129Y-44111D01*
X95139Y-44087D01*
X95139Y-44672D01*
X95080Y-44529D01*
X94971Y-44419D01*
X94827Y-44360D01*
X94672Y-44360D01*
X94529Y-44419D01*
X94419Y-44528D01*
X94360Y-44672D01*
X94360Y-44827D01*
X94419Y-44970D01*
X94528Y-45080D01*
X94672Y-45139D01*
X94827Y-45139D01*
X94970Y-45080D01*
X95080Y-44971D01*
X95139Y-44827D01*
X95139Y-44672D01*
X95139Y-48832D01*
X94902Y-48595D01*
X94270Y-48595D01*
X94270Y-37326D01*
X94270Y-36539D01*
X94219Y-36414D01*
X94123Y-36318D01*
X93998Y-36266D01*
X93863Y-36266D01*
X93738Y-36318D01*
X93643Y-36413D01*
X93591Y-36538D01*
X93591Y-36673D01*
X93642Y-36798D01*
X93738Y-36894D01*
X93863Y-36945D01*
X93998Y-36946D01*
X94123Y-36894D01*
X94218Y-36798D01*
X94270Y-36674D01*
X94270Y-36539D01*
X94270Y-37326D01*
X94219Y-37201D01*
X94123Y-37105D01*
X93998Y-37054D01*
X93863Y-37053D01*
X93738Y-37105D01*
X93643Y-37201D01*
X93591Y-37325D01*
X93591Y-37460D01*
X93642Y-37585D01*
X93738Y-37681D01*
X93863Y-37733D01*
X93998Y-37733D01*
X94123Y-37681D01*
X94218Y-37586D01*
X94270Y-37461D01*
X94270Y-37326D01*
X94270Y-48595D01*
X94152Y-48595D01*
X93639Y-48082D01*
X93639Y-47422D01*
X93580Y-47279D01*
X93483Y-47182D01*
X93483Y-37326D01*
X93483Y-36539D01*
X93431Y-36414D01*
X93336Y-36318D01*
X93211Y-36266D01*
X93105Y-36266D01*
X93105Y-35129D01*
X93051Y-34999D01*
X92951Y-34899D01*
X92820Y-34845D01*
X92679Y-34844D01*
X92549Y-34898D01*
X92449Y-34998D01*
X92395Y-35129D01*
X92394Y-35270D01*
X92448Y-35400D01*
X92548Y-35500D01*
X92679Y-35554D01*
X92820Y-35555D01*
X92950Y-35501D01*
X93050Y-35401D01*
X93104Y-35270D01*
X93105Y-35129D01*
X93105Y-36266D01*
X93076Y-36266D01*
X92951Y-36318D01*
X92855Y-36413D01*
X92804Y-36538D01*
X92803Y-36673D01*
X92855Y-36798D01*
X92951Y-36894D01*
X93075Y-36945D01*
X93210Y-36946D01*
X93335Y-36894D01*
X93431Y-36798D01*
X93483Y-36674D01*
X93483Y-36539D01*
X93483Y-37326D01*
X93431Y-37201D01*
X93336Y-37105D01*
X93211Y-37054D01*
X93076Y-37053D01*
X92951Y-37105D01*
X92855Y-37201D01*
X92804Y-37325D01*
X92803Y-37460D01*
X92855Y-37585D01*
X92951Y-37681D01*
X93075Y-37733D01*
X93210Y-37733D01*
X93335Y-37681D01*
X93431Y-37586D01*
X93483Y-37461D01*
X93483Y-37326D01*
X93483Y-47182D01*
X93471Y-47169D01*
X93327Y-47110D01*
X93172Y-47110D01*
X93029Y-47169D01*
X92919Y-47278D01*
X92860Y-47422D01*
X92860Y-47577D01*
X92919Y-47720D01*
X93028Y-47830D01*
X93172Y-47889D01*
X93327Y-47889D01*
X93470Y-47830D01*
X93580Y-47721D01*
X93639Y-47577D01*
X93639Y-47422D01*
X93639Y-48082D01*
X93552Y-47995D01*
X92696Y-47995D01*
X92696Y-37326D01*
X92696Y-36539D01*
X92644Y-36414D01*
X92548Y-36318D01*
X92424Y-36266D01*
X92289Y-36266D01*
X92164Y-36318D01*
X92068Y-36413D01*
X92016Y-36538D01*
X92016Y-36673D01*
X92068Y-36798D01*
X92163Y-36894D01*
X92288Y-36945D01*
X92423Y-36946D01*
X92548Y-36894D01*
X92644Y-36798D01*
X92695Y-36674D01*
X92696Y-36539D01*
X92696Y-37326D01*
X92644Y-37201D01*
X92548Y-37105D01*
X92424Y-37054D01*
X92289Y-37053D01*
X92164Y-37105D01*
X92068Y-37201D01*
X92016Y-37325D01*
X92016Y-37460D01*
X92068Y-37585D01*
X92163Y-37681D01*
X92288Y-37733D01*
X92423Y-37733D01*
X92548Y-37681D01*
X92644Y-37586D01*
X92695Y-37461D01*
X92696Y-37326D01*
X92696Y-47995D01*
X92639Y-47995D01*
X92639Y-47422D01*
X92580Y-47279D01*
X92471Y-47169D01*
X92327Y-47110D01*
X92172Y-47110D01*
X92029Y-47169D01*
X91919Y-47278D01*
X91908Y-47305D01*
X91908Y-37326D01*
X91908Y-36539D01*
X91857Y-36414D01*
X91761Y-36318D01*
X91636Y-36266D01*
X91501Y-36266D01*
X91376Y-36318D01*
X91281Y-36413D01*
X91229Y-36538D01*
X91229Y-36673D01*
X91280Y-36798D01*
X91376Y-36894D01*
X91501Y-36945D01*
X91636Y-36946D01*
X91761Y-36894D01*
X91856Y-36798D01*
X91908Y-36674D01*
X91908Y-36539D01*
X91908Y-37326D01*
X91857Y-37201D01*
X91761Y-37105D01*
X91636Y-37054D01*
X91501Y-37053D01*
X91376Y-37105D01*
X91281Y-37201D01*
X91229Y-37325D01*
X91229Y-37460D01*
X91280Y-37585D01*
X91376Y-37681D01*
X91501Y-37733D01*
X91636Y-37733D01*
X91761Y-37681D01*
X91856Y-37586D01*
X91908Y-37461D01*
X91908Y-37326D01*
X91908Y-47305D01*
X91860Y-47422D01*
X91860Y-47577D01*
X91919Y-47720D01*
X92028Y-47830D01*
X92172Y-47889D01*
X92327Y-47889D01*
X92470Y-47830D01*
X92580Y-47721D01*
X92639Y-47577D01*
X92639Y-47422D01*
X92639Y-47995D01*
X91639Y-47995D01*
X91639Y-47422D01*
X91580Y-47279D01*
X91471Y-47169D01*
X91327Y-47110D01*
X91172Y-47110D01*
X91121Y-47131D01*
X91121Y-37326D01*
X91121Y-36539D01*
X91069Y-36414D01*
X90974Y-36318D01*
X90849Y-36266D01*
X90714Y-36266D01*
X90589Y-36318D01*
X90493Y-36413D01*
X90441Y-36538D01*
X90441Y-36673D01*
X90493Y-36798D01*
X90588Y-36894D01*
X90713Y-36945D01*
X90848Y-36946D01*
X90973Y-36894D01*
X91069Y-36798D01*
X91121Y-36674D01*
X91121Y-36539D01*
X91121Y-37326D01*
X91069Y-37201D01*
X90974Y-37105D01*
X90849Y-37054D01*
X90714Y-37053D01*
X90589Y-37105D01*
X90493Y-37201D01*
X90441Y-37325D01*
X90441Y-37460D01*
X90493Y-37585D01*
X90588Y-37681D01*
X90713Y-37733D01*
X90848Y-37733D01*
X90973Y-37681D01*
X91069Y-37586D01*
X91121Y-37461D01*
X91121Y-37326D01*
X91121Y-47131D01*
X91029Y-47169D01*
X90919Y-47278D01*
X90860Y-47422D01*
X90860Y-47577D01*
X90919Y-47720D01*
X91028Y-47830D01*
X91172Y-47889D01*
X91327Y-47889D01*
X91470Y-47830D01*
X91580Y-47721D01*
X91639Y-47577D01*
X91639Y-47422D01*
X91639Y-47995D01*
X90639Y-47995D01*
X90639Y-47422D01*
X90580Y-47279D01*
X90471Y-47169D01*
X90333Y-47112D01*
X90333Y-37326D01*
X90333Y-36539D01*
X90282Y-36414D01*
X90186Y-36318D01*
X90061Y-36266D01*
X89926Y-36266D01*
X89801Y-36318D01*
X89706Y-36413D01*
X89654Y-36538D01*
X89654Y-36673D01*
X89705Y-36798D01*
X89801Y-36894D01*
X89926Y-36945D01*
X90061Y-36946D01*
X90186Y-36894D01*
X90281Y-36798D01*
X90333Y-36674D01*
X90333Y-36539D01*
X90333Y-37326D01*
X90282Y-37201D01*
X90186Y-37105D01*
X90061Y-37054D01*
X89926Y-37053D01*
X89801Y-37105D01*
X89706Y-37201D01*
X89654Y-37325D01*
X89654Y-37460D01*
X89705Y-37585D01*
X89801Y-37681D01*
X89926Y-37733D01*
X90061Y-37733D01*
X90186Y-37681D01*
X90281Y-37586D01*
X90333Y-37461D01*
X90333Y-37326D01*
X90333Y-47112D01*
X90327Y-47110D01*
X90172Y-47110D01*
X90029Y-47169D01*
X89919Y-47278D01*
X89860Y-47422D01*
X89860Y-47577D01*
X89919Y-47720D01*
X90028Y-47830D01*
X90172Y-47889D01*
X90327Y-47889D01*
X90470Y-47830D01*
X90580Y-47721D01*
X90639Y-47577D01*
X90639Y-47422D01*
X90639Y-47995D01*
X89639Y-47995D01*
X89639Y-47837D01*
X89639Y-47811D01*
X89639Y-47162D01*
X89629Y-47138D01*
X89611Y-47120D01*
X89587Y-47110D01*
X89561Y-47110D01*
X89455Y-47110D01*
X89455Y-33879D01*
X89401Y-33749D01*
X89301Y-33649D01*
X89170Y-33595D01*
X89029Y-33594D01*
X88899Y-33648D01*
X88799Y-33748D01*
X88745Y-33879D01*
X88744Y-34020D01*
X88798Y-34150D01*
X88898Y-34250D01*
X89029Y-34304D01*
X89170Y-34305D01*
X89300Y-34251D01*
X89400Y-34151D01*
X89454Y-34020D01*
X89455Y-33879D01*
X89455Y-47110D01*
X88912Y-47110D01*
X88888Y-47120D01*
X88870Y-47138D01*
X88860Y-47162D01*
X88860Y-47188D01*
X88860Y-47837D01*
X88870Y-47861D01*
X88888Y-47879D01*
X88912Y-47889D01*
X88938Y-47889D01*
X89587Y-47889D01*
X89611Y-47879D01*
X89629Y-47861D01*
X89639Y-47837D01*
X89639Y-47995D01*
X88565Y-47995D01*
X88565Y-44497D01*
X88524Y-44400D01*
X88450Y-44325D01*
X88352Y-44285D01*
X88247Y-44284D01*
X88150Y-44325D01*
X88075Y-44399D01*
X88035Y-44497D01*
X88034Y-44602D01*
X88075Y-44699D01*
X88149Y-44774D01*
X88247Y-44814D01*
X88352Y-44815D01*
X88449Y-44774D01*
X88524Y-44700D01*
X88564Y-44602D01*
X88565Y-44497D01*
X88565Y-47995D01*
X88402Y-47995D01*
X87352Y-46945D01*
X86975Y-46945D01*
X86975Y-34446D01*
X86857Y-34161D01*
X86639Y-33943D01*
X86354Y-33825D01*
X86046Y-33824D01*
X85761Y-33942D01*
X85543Y-34160D01*
X85425Y-34445D01*
X85424Y-34753D01*
X85542Y-35038D01*
X85760Y-35256D01*
X86045Y-35374D01*
X86353Y-35375D01*
X86638Y-35257D01*
X86856Y-35039D01*
X86974Y-34754D01*
X86975Y-34446D01*
X86975Y-46945D01*
X86565Y-46945D01*
X86565Y-45347D01*
X86524Y-45250D01*
X86450Y-45175D01*
X86352Y-45135D01*
X86247Y-45134D01*
X86150Y-45175D01*
X86099Y-45225D01*
X86099Y-37920D01*
X86039Y-37773D01*
X85926Y-37661D01*
X85779Y-37600D01*
X85620Y-37600D01*
X85473Y-37660D01*
X85361Y-37773D01*
X85300Y-37920D01*
X85300Y-38079D01*
X85360Y-38226D01*
X85473Y-38338D01*
X85620Y-38399D01*
X85779Y-38399D01*
X85926Y-38339D01*
X86038Y-38226D01*
X86099Y-38079D01*
X86099Y-37920D01*
X86099Y-45225D01*
X86075Y-45249D01*
X86035Y-45347D01*
X86034Y-45452D01*
X86075Y-45549D01*
X86149Y-45624D01*
X86247Y-45664D01*
X86352Y-45665D01*
X86449Y-45624D01*
X86524Y-45550D01*
X86564Y-45452D01*
X86565Y-45347D01*
X86565Y-46945D01*
X85099Y-46945D01*
X85099Y-37920D01*
X85039Y-37773D01*
X84975Y-37709D01*
X84975Y-34446D01*
X84857Y-34161D01*
X84639Y-33943D01*
X84354Y-33825D01*
X84046Y-33824D01*
X83761Y-33942D01*
X83543Y-34160D01*
X83425Y-34445D01*
X83424Y-34753D01*
X83542Y-35038D01*
X83760Y-35256D01*
X84045Y-35374D01*
X84353Y-35375D01*
X84638Y-35257D01*
X84856Y-35039D01*
X84974Y-34754D01*
X84975Y-34446D01*
X84975Y-37709D01*
X84926Y-37661D01*
X84779Y-37600D01*
X84620Y-37600D01*
X84473Y-37660D01*
X84361Y-37773D01*
X84300Y-37920D01*
X84300Y-38079D01*
X84360Y-38226D01*
X84473Y-38338D01*
X84620Y-38399D01*
X84779Y-38399D01*
X84926Y-38339D01*
X85038Y-38226D01*
X85099Y-38079D01*
X85099Y-37920D01*
X85099Y-46945D01*
X84465Y-46945D01*
X84465Y-45347D01*
X84424Y-45250D01*
X84350Y-45175D01*
X84252Y-45135D01*
X84147Y-45134D01*
X84050Y-45175D01*
X83975Y-45249D01*
X83935Y-45347D01*
X83934Y-45452D01*
X83975Y-45549D01*
X84049Y-45624D01*
X84147Y-45664D01*
X84252Y-45665D01*
X84349Y-45624D01*
X84424Y-45550D01*
X84464Y-45452D01*
X84465Y-45347D01*
X84465Y-46945D01*
X84002Y-46945D01*
X82705Y-45548D01*
X82705Y-44397D01*
X82552Y-44245D01*
X81755Y-44245D01*
X81755Y-33829D01*
X81701Y-33699D01*
X81601Y-33599D01*
X81470Y-33545D01*
X81329Y-33544D01*
X81199Y-33598D01*
X81099Y-33698D01*
X81045Y-33829D01*
X81044Y-33970D01*
X81098Y-34100D01*
X81198Y-34200D01*
X81329Y-34254D01*
X81470Y-34255D01*
X81600Y-34201D01*
X81700Y-34101D01*
X81754Y-33970D01*
X81755Y-33829D01*
X81755Y-44245D01*
X81500Y-44245D01*
X80845Y-44245D01*
X80845Y-37326D01*
X80845Y-36539D01*
X80794Y-36414D01*
X80698Y-36318D01*
X80573Y-36266D01*
X80438Y-36266D01*
X80313Y-36318D01*
X80218Y-36413D01*
X80166Y-36538D01*
X80166Y-36673D01*
X80217Y-36798D01*
X80313Y-36894D01*
X80438Y-36945D01*
X80573Y-36946D01*
X80698Y-36894D01*
X80793Y-36798D01*
X80845Y-36674D01*
X80845Y-36539D01*
X80845Y-37326D01*
X80794Y-37201D01*
X80698Y-37105D01*
X80573Y-37054D01*
X80438Y-37053D01*
X80313Y-37105D01*
X80218Y-37201D01*
X80166Y-37325D01*
X80166Y-37460D01*
X80217Y-37585D01*
X80313Y-37681D01*
X80438Y-37733D01*
X80573Y-37733D01*
X80698Y-37681D01*
X80793Y-37586D01*
X80845Y-37461D01*
X80845Y-37326D01*
X80845Y-44245D01*
X80147Y-44245D01*
X80058Y-44334D01*
X80058Y-37326D01*
X80058Y-36539D01*
X80006Y-36414D01*
X79911Y-36318D01*
X79786Y-36266D01*
X79651Y-36266D01*
X79526Y-36318D01*
X79430Y-36413D01*
X79378Y-36538D01*
X79378Y-36673D01*
X79430Y-36798D01*
X79525Y-36894D01*
X79650Y-36945D01*
X79785Y-36946D01*
X79910Y-36894D01*
X80006Y-36798D01*
X80058Y-36674D01*
X80058Y-36539D01*
X80058Y-37326D01*
X80006Y-37201D01*
X79911Y-37105D01*
X79786Y-37054D01*
X79651Y-37053D01*
X79526Y-37105D01*
X79430Y-37201D01*
X79378Y-37325D01*
X79378Y-37460D01*
X79430Y-37585D01*
X79525Y-37681D01*
X79650Y-37733D01*
X79785Y-37733D01*
X79910Y-37681D01*
X80006Y-37586D01*
X80058Y-37461D01*
X80058Y-37326D01*
X80058Y-44334D01*
X79995Y-44397D01*
X79995Y-46705D01*
X81997Y-46705D01*
X82345Y-47052D01*
X82345Y-48897D01*
X82047Y-49195D01*
X81639Y-49195D01*
X81639Y-48422D01*
X81639Y-47422D01*
X81580Y-47279D01*
X81471Y-47169D01*
X81327Y-47110D01*
X81172Y-47110D01*
X81029Y-47169D01*
X80919Y-47278D01*
X80860Y-47422D01*
X80860Y-47577D01*
X80919Y-47720D01*
X81028Y-47830D01*
X81172Y-47889D01*
X81327Y-47889D01*
X81470Y-47830D01*
X81580Y-47721D01*
X81639Y-47577D01*
X81639Y-47422D01*
X81639Y-48422D01*
X81580Y-48279D01*
X81471Y-48169D01*
X81327Y-48110D01*
X81172Y-48110D01*
X81029Y-48169D01*
X80919Y-48278D01*
X80860Y-48422D01*
X80860Y-48577D01*
X80919Y-48720D01*
X81028Y-48830D01*
X81172Y-48889D01*
X81327Y-48889D01*
X81470Y-48830D01*
X81580Y-48721D01*
X81639Y-48577D01*
X81639Y-48422D01*
X81639Y-49195D01*
X80639Y-49195D01*
X80639Y-48422D01*
X80639Y-47422D01*
X80580Y-47279D01*
X80471Y-47169D01*
X80327Y-47110D01*
X80172Y-47110D01*
X80029Y-47169D01*
X79919Y-47278D01*
X79860Y-47422D01*
X79860Y-47577D01*
X79919Y-47720D01*
X80028Y-47830D01*
X80172Y-47889D01*
X80327Y-47889D01*
X80470Y-47830D01*
X80580Y-47721D01*
X80639Y-47577D01*
X80639Y-47422D01*
X80639Y-48422D01*
X80580Y-48279D01*
X80471Y-48169D01*
X80327Y-48110D01*
X80172Y-48110D01*
X80029Y-48169D01*
X79919Y-48278D01*
X79860Y-48422D01*
X79860Y-48577D01*
X79919Y-48720D01*
X80028Y-48830D01*
X80172Y-48889D01*
X80327Y-48889D01*
X80470Y-48830D01*
X80580Y-48721D01*
X80639Y-48577D01*
X80639Y-48422D01*
X80639Y-49195D01*
X80147Y-49195D01*
X79995Y-49347D01*
X79995Y-51852D01*
X80147Y-52005D01*
X82905Y-52005D01*
X82905Y-51702D01*
X83202Y-51405D01*
X84000Y-51405D01*
X87247Y-51405D01*
X87847Y-52005D01*
X90048Y-52005D01*
X91498Y-53005D01*
X95505Y-53005D01*
X95505Y-58266D01*
X95438Y-58266D01*
X95313Y-58318D01*
X95218Y-58413D01*
X95166Y-58538D01*
X95166Y-58673D01*
X95217Y-58798D01*
X95313Y-58894D01*
X95438Y-58945D01*
X95505Y-58945D01*
X95573Y-58946D01*
X95698Y-58894D01*
X95793Y-58798D01*
X95845Y-58674D01*
X95845Y-58539D01*
X95845Y-59326D01*
X95794Y-59201D01*
X95698Y-59105D01*
X95573Y-59054D01*
X95505Y-59054D01*
X95438Y-59053D01*
X95313Y-59105D01*
X95218Y-59201D01*
X95166Y-59325D01*
X95166Y-59460D01*
X95217Y-59585D01*
X95313Y-59681D01*
X95438Y-59733D01*
X95505Y-59733D01*
X95573Y-59733D01*
X95698Y-59681D01*
X95793Y-59586D01*
X95845Y-59461D01*
X95845Y-59326D01*
X95845Y-62910D01*
X95505Y-62910D01*
X95058Y-62910D01*
X95058Y-59326D01*
X95058Y-58539D01*
X95006Y-58414D01*
X94911Y-58318D01*
X94786Y-58266D01*
X94651Y-58266D01*
X94526Y-58318D01*
X94430Y-58413D01*
X94378Y-58538D01*
X94378Y-58673D01*
X94430Y-58798D01*
X94525Y-58894D01*
X94650Y-58945D01*
X94785Y-58946D01*
X94910Y-58894D01*
X95006Y-58798D01*
X95058Y-58674D01*
X95058Y-58539D01*
X95058Y-59326D01*
X95006Y-59201D01*
X94911Y-59105D01*
X94786Y-59054D01*
X94651Y-59053D01*
X94526Y-59105D01*
X94430Y-59201D01*
X94378Y-59325D01*
X94378Y-59460D01*
X94430Y-59585D01*
X94525Y-59681D01*
X94650Y-59733D01*
X94785Y-59733D01*
X94910Y-59681D01*
X95006Y-59586D01*
X95058Y-59461D01*
X95058Y-59326D01*
X95058Y-62910D01*
X94270Y-62910D01*
X94270Y-59326D01*
X94270Y-58539D01*
X94219Y-58414D01*
X94123Y-58318D01*
X93998Y-58266D01*
X93863Y-58266D01*
X93738Y-58318D01*
X93643Y-58413D01*
X93591Y-58538D01*
X93591Y-58673D01*
X93642Y-58798D01*
X93738Y-58894D01*
X93863Y-58945D01*
X93998Y-58946D01*
X94123Y-58894D01*
X94218Y-58798D01*
X94270Y-58674D01*
X94270Y-58539D01*
X94270Y-59326D01*
X94219Y-59201D01*
X94123Y-59105D01*
X93998Y-59054D01*
X93863Y-59053D01*
X93738Y-59105D01*
X93643Y-59201D01*
X93591Y-59325D01*
X93591Y-59460D01*
X93642Y-59585D01*
X93738Y-59681D01*
X93863Y-59733D01*
X93998Y-59733D01*
X94123Y-59681D01*
X94218Y-59586D01*
X94270Y-59461D01*
X94270Y-59326D01*
X94270Y-62910D01*
X93483Y-62910D01*
X93483Y-59326D01*
X93483Y-58539D01*
X93431Y-58414D01*
X93336Y-58318D01*
X93211Y-58266D01*
X93076Y-58266D01*
X92951Y-58318D01*
X92855Y-58413D01*
X92804Y-58538D01*
X92803Y-58673D01*
X92855Y-58798D01*
X92951Y-58894D01*
X93075Y-58945D01*
X93210Y-58946D01*
X93335Y-58894D01*
X93431Y-58798D01*
X93483Y-58674D01*
X93483Y-58539D01*
X93483Y-59326D01*
X93431Y-59201D01*
X93336Y-59105D01*
X93211Y-59054D01*
X93076Y-59053D01*
X92951Y-59105D01*
X92855Y-59201D01*
X92804Y-59325D01*
X92803Y-59460D01*
X92855Y-59585D01*
X92951Y-59681D01*
X93075Y-59733D01*
X93210Y-59733D01*
X93335Y-59681D01*
X93431Y-59586D01*
X93483Y-59461D01*
X93483Y-59326D01*
X93483Y-62910D01*
X93155Y-62910D01*
X93155Y-60829D01*
X93101Y-60699D01*
X93001Y-60599D01*
X92870Y-60545D01*
X92729Y-60544D01*
X92696Y-60558D01*
X92696Y-59326D01*
X92696Y-58539D01*
X92644Y-58414D01*
X92548Y-58318D01*
X92424Y-58266D01*
X92289Y-58266D01*
X92164Y-58318D01*
X92068Y-58413D01*
X92016Y-58538D01*
X92016Y-58673D01*
X92068Y-58798D01*
X92163Y-58894D01*
X92288Y-58945D01*
X92423Y-58946D01*
X92548Y-58894D01*
X92644Y-58798D01*
X92695Y-58674D01*
X92696Y-58539D01*
X92696Y-59326D01*
X92644Y-59201D01*
X92548Y-59105D01*
X92424Y-59054D01*
X92289Y-59053D01*
X92164Y-59105D01*
X92068Y-59201D01*
X92016Y-59325D01*
X92016Y-59460D01*
X92068Y-59585D01*
X92163Y-59681D01*
X92288Y-59733D01*
X92423Y-59733D01*
X92548Y-59681D01*
X92644Y-59586D01*
X92695Y-59461D01*
X92696Y-59326D01*
X92696Y-60558D01*
X92599Y-60598D01*
X92499Y-60698D01*
X92445Y-60829D01*
X92444Y-60970D01*
X92498Y-61100D01*
X92598Y-61200D01*
X92729Y-61254D01*
X92870Y-61255D01*
X93000Y-61201D01*
X93100Y-61101D01*
X93154Y-60970D01*
X93155Y-60829D01*
X93155Y-62910D01*
X91908Y-62910D01*
X91908Y-59326D01*
X91908Y-58539D01*
X91857Y-58414D01*
X91761Y-58318D01*
X91636Y-58266D01*
X91501Y-58266D01*
X91376Y-58318D01*
X91281Y-58413D01*
X91229Y-58538D01*
X91229Y-58673D01*
X91280Y-58798D01*
X91376Y-58894D01*
X91501Y-58945D01*
X91636Y-58946D01*
X91761Y-58894D01*
X91856Y-58798D01*
X91908Y-58674D01*
X91908Y-58539D01*
X91908Y-59326D01*
X91857Y-59201D01*
X91761Y-59105D01*
X91636Y-59054D01*
X91501Y-59053D01*
X91376Y-59105D01*
X91281Y-59201D01*
X91229Y-59325D01*
X91229Y-59460D01*
X91280Y-59585D01*
X91376Y-59681D01*
X91501Y-59733D01*
X91636Y-59733D01*
X91761Y-59681D01*
X91856Y-59586D01*
X91908Y-59461D01*
X91908Y-59326D01*
X91908Y-62910D01*
X91121Y-62910D01*
X91121Y-59326D01*
X91121Y-58539D01*
X91069Y-58414D01*
X90974Y-58318D01*
X90849Y-58266D01*
X90714Y-58266D01*
X90589Y-58318D01*
X90493Y-58413D01*
X90441Y-58538D01*
X90441Y-58673D01*
X90493Y-58798D01*
X90588Y-58894D01*
X90713Y-58945D01*
X90848Y-58946D01*
X90973Y-58894D01*
X91069Y-58798D01*
X91121Y-58674D01*
X91121Y-58539D01*
X91121Y-59326D01*
X91069Y-59201D01*
X90974Y-59105D01*
X90849Y-59054D01*
X90714Y-59053D01*
X90589Y-59105D01*
X90493Y-59201D01*
X90441Y-59325D01*
X90441Y-59460D01*
X90493Y-59585D01*
X90588Y-59681D01*
X90713Y-59733D01*
X90848Y-59733D01*
X90973Y-59681D01*
X91069Y-59586D01*
X91121Y-59461D01*
X91121Y-59326D01*
X91121Y-62910D01*
X90333Y-62910D01*
X90333Y-59326D01*
X90333Y-58539D01*
X90282Y-58414D01*
X90186Y-58318D01*
X90061Y-58266D01*
X89926Y-58266D01*
X89801Y-58318D01*
X89706Y-58413D01*
X89654Y-58538D01*
X89654Y-58673D01*
X89705Y-58798D01*
X89801Y-58894D01*
X89926Y-58945D01*
X90061Y-58946D01*
X90186Y-58894D01*
X90281Y-58798D01*
X90333Y-58674D01*
X90333Y-58539D01*
X90333Y-59326D01*
X90282Y-59201D01*
X90186Y-59105D01*
X90061Y-59054D01*
X89926Y-59053D01*
X89801Y-59105D01*
X89706Y-59201D01*
X89654Y-59325D01*
X89654Y-59460D01*
X89705Y-59585D01*
X89801Y-59681D01*
X89926Y-59733D01*
X90061Y-59733D01*
X90186Y-59681D01*
X90281Y-59586D01*
X90333Y-59461D01*
X90333Y-59326D01*
X90333Y-62910D01*
X89405Y-62910D01*
X89405Y-62129D01*
X89351Y-61999D01*
X89251Y-61899D01*
X89120Y-61845D01*
X88979Y-61844D01*
X88849Y-61898D01*
X88749Y-61998D01*
X88695Y-62129D01*
X88694Y-62270D01*
X88748Y-62400D01*
X88848Y-62500D01*
X88979Y-62554D01*
X89120Y-62555D01*
X89250Y-62501D01*
X89350Y-62401D01*
X89404Y-62270D01*
X89405Y-62129D01*
X89405Y-62910D01*
X87025Y-62910D01*
X87025Y-61246D01*
X86907Y-60961D01*
X86689Y-60743D01*
X86404Y-60625D01*
X86149Y-60624D01*
X86149Y-57920D01*
X86089Y-57773D01*
X85976Y-57661D01*
X85829Y-57600D01*
X85670Y-57600D01*
X85523Y-57660D01*
X85411Y-57773D01*
X85350Y-57920D01*
X85350Y-58079D01*
X85410Y-58226D01*
X85523Y-58338D01*
X85670Y-58399D01*
X85829Y-58399D01*
X85976Y-58339D01*
X86088Y-58226D01*
X86149Y-58079D01*
X86149Y-57920D01*
X86149Y-60624D01*
X86096Y-60624D01*
X85811Y-60742D01*
X85593Y-60960D01*
X85475Y-61245D01*
X85474Y-61553D01*
X85592Y-61838D01*
X85810Y-62056D01*
X86095Y-62174D01*
X86403Y-62175D01*
X86688Y-62057D01*
X86906Y-61839D01*
X87024Y-61554D01*
X87025Y-61246D01*
X87025Y-62910D01*
X85149Y-62910D01*
X85149Y-57920D01*
X85089Y-57773D01*
X84976Y-57661D01*
X84829Y-57600D01*
X84670Y-57600D01*
X84523Y-57660D01*
X84411Y-57773D01*
X84350Y-57920D01*
X84350Y-58079D01*
X84410Y-58226D01*
X84523Y-58338D01*
X84670Y-58399D01*
X84829Y-58399D01*
X84976Y-58339D01*
X85088Y-58226D01*
X85149Y-58079D01*
X85149Y-57920D01*
X85149Y-62910D01*
X85025Y-62910D01*
X85025Y-61246D01*
X84907Y-60961D01*
X84689Y-60743D01*
X84404Y-60625D01*
X84096Y-60624D01*
X83811Y-60742D01*
X83593Y-60960D01*
X83475Y-61245D01*
X83474Y-61553D01*
X83592Y-61838D01*
X83810Y-62056D01*
X84095Y-62174D01*
X84403Y-62175D01*
X84688Y-62057D01*
X84906Y-61839D01*
X85024Y-61554D01*
X85025Y-61246D01*
X85025Y-62910D01*
X81755Y-62910D01*
X81755Y-62029D01*
X81701Y-61899D01*
X81601Y-61799D01*
X81470Y-61745D01*
X81329Y-61744D01*
X81199Y-61798D01*
X81099Y-61898D01*
X81045Y-62029D01*
X81044Y-62170D01*
X81098Y-62300D01*
X81198Y-62400D01*
X81329Y-62454D01*
X81470Y-62455D01*
X81600Y-62401D01*
X81700Y-62301D01*
X81754Y-62170D01*
X81755Y-62029D01*
X81755Y-62910D01*
X80845Y-62910D01*
X80845Y-59326D01*
X80845Y-58539D01*
X80794Y-58414D01*
X80698Y-58318D01*
X80573Y-58266D01*
X80438Y-58266D01*
X80313Y-58318D01*
X80218Y-58413D01*
X80166Y-58538D01*
X80166Y-58673D01*
X80217Y-58798D01*
X80313Y-58894D01*
X80438Y-58945D01*
X80573Y-58946D01*
X80698Y-58894D01*
X80793Y-58798D01*
X80845Y-58674D01*
X80845Y-58539D01*
X80845Y-59326D01*
X80794Y-59201D01*
X80698Y-59105D01*
X80573Y-59054D01*
X80438Y-59053D01*
X80313Y-59105D01*
X80218Y-59201D01*
X80166Y-59325D01*
X80166Y-59460D01*
X80217Y-59585D01*
X80313Y-59681D01*
X80438Y-59733D01*
X80573Y-59733D01*
X80698Y-59681D01*
X80793Y-59586D01*
X80845Y-59461D01*
X80845Y-59326D01*
X80845Y-62910D01*
X80058Y-62910D01*
X80058Y-59326D01*
X80058Y-58539D01*
X80006Y-58414D01*
X79911Y-58318D01*
X79786Y-58266D01*
X79651Y-58266D01*
X79639Y-58271D01*
X79639Y-48422D01*
X79639Y-47422D01*
X79580Y-47279D01*
X79471Y-47169D01*
X79327Y-47110D01*
X79270Y-47110D01*
X79270Y-37326D01*
X79270Y-36539D01*
X79219Y-36414D01*
X79123Y-36318D01*
X78998Y-36266D01*
X78863Y-36266D01*
X78738Y-36318D01*
X78643Y-36413D01*
X78591Y-36538D01*
X78591Y-36673D01*
X78642Y-36798D01*
X78738Y-36894D01*
X78863Y-36945D01*
X78998Y-36946D01*
X79123Y-36894D01*
X79218Y-36798D01*
X79270Y-36674D01*
X79270Y-36539D01*
X79270Y-37326D01*
X79219Y-37201D01*
X79123Y-37105D01*
X78998Y-37054D01*
X78863Y-37053D01*
X78738Y-37105D01*
X78643Y-37201D01*
X78591Y-37325D01*
X78591Y-37460D01*
X78642Y-37585D01*
X78738Y-37681D01*
X78863Y-37733D01*
X78998Y-37733D01*
X79123Y-37681D01*
X79218Y-37586D01*
X79270Y-37461D01*
X79270Y-37326D01*
X79270Y-47110D01*
X79205Y-47110D01*
X79205Y-44329D01*
X79151Y-44199D01*
X79051Y-44099D01*
X78920Y-44045D01*
X78779Y-44044D01*
X78649Y-44098D01*
X78549Y-44198D01*
X78495Y-44329D01*
X78494Y-44470D01*
X78548Y-44600D01*
X78648Y-44700D01*
X78779Y-44754D01*
X78920Y-44755D01*
X79050Y-44701D01*
X79150Y-44601D01*
X79204Y-44470D01*
X79205Y-44329D01*
X79205Y-47110D01*
X79172Y-47110D01*
X79029Y-47169D01*
X78919Y-47278D01*
X78860Y-47422D01*
X78860Y-47577D01*
X78919Y-47720D01*
X79028Y-47830D01*
X79172Y-47889D01*
X79327Y-47889D01*
X79470Y-47830D01*
X79580Y-47721D01*
X79639Y-47577D01*
X79639Y-47422D01*
X79639Y-48422D01*
X79580Y-48279D01*
X79471Y-48169D01*
X79327Y-48110D01*
X79172Y-48110D01*
X79029Y-48169D01*
X78919Y-48278D01*
X78860Y-48422D01*
X78860Y-48577D01*
X78919Y-48720D01*
X79028Y-48830D01*
X79172Y-48889D01*
X79327Y-48889D01*
X79470Y-48830D01*
X79580Y-48721D01*
X79639Y-48577D01*
X79639Y-48422D01*
X79639Y-58271D01*
X79526Y-58318D01*
X79430Y-58413D01*
X79378Y-58538D01*
X79378Y-58673D01*
X79430Y-58798D01*
X79525Y-58894D01*
X79650Y-58945D01*
X79785Y-58946D01*
X79910Y-58894D01*
X80006Y-58798D01*
X80058Y-58674D01*
X80058Y-58539D01*
X80058Y-59326D01*
X80006Y-59201D01*
X79911Y-59105D01*
X79786Y-59054D01*
X79651Y-59053D01*
X79526Y-59105D01*
X79430Y-59201D01*
X79378Y-59325D01*
X79378Y-59460D01*
X79430Y-59585D01*
X79525Y-59681D01*
X79650Y-59733D01*
X79785Y-59733D01*
X79910Y-59681D01*
X80006Y-59586D01*
X80058Y-59461D01*
X80058Y-59326D01*
X80058Y-62910D01*
X79270Y-62910D01*
X79270Y-59326D01*
X79270Y-58539D01*
X79219Y-58414D01*
X79123Y-58318D01*
X78998Y-58266D01*
X78863Y-58266D01*
X78738Y-58318D01*
X78643Y-58413D01*
X78639Y-58421D01*
X78639Y-48422D01*
X78639Y-47422D01*
X78580Y-47279D01*
X78483Y-47182D01*
X78483Y-37326D01*
X78483Y-36539D01*
X78431Y-36414D01*
X78336Y-36318D01*
X78211Y-36266D01*
X78105Y-36266D01*
X78105Y-34979D01*
X78051Y-34849D01*
X77951Y-34749D01*
X77820Y-34695D01*
X77679Y-34694D01*
X77549Y-34748D01*
X77449Y-34848D01*
X77395Y-34979D01*
X77394Y-35120D01*
X77448Y-35250D01*
X77548Y-35350D01*
X77679Y-35404D01*
X77820Y-35405D01*
X77950Y-35351D01*
X78050Y-35251D01*
X78104Y-35120D01*
X78105Y-34979D01*
X78105Y-36266D01*
X78076Y-36266D01*
X77951Y-36318D01*
X77855Y-36413D01*
X77804Y-36538D01*
X77803Y-36673D01*
X77855Y-36798D01*
X77951Y-36894D01*
X78075Y-36945D01*
X78210Y-36946D01*
X78335Y-36894D01*
X78431Y-36798D01*
X78483Y-36674D01*
X78483Y-36539D01*
X78483Y-37326D01*
X78431Y-37201D01*
X78336Y-37105D01*
X78211Y-37054D01*
X78076Y-37053D01*
X77951Y-37105D01*
X77855Y-37201D01*
X77804Y-37325D01*
X77803Y-37460D01*
X77855Y-37585D01*
X77951Y-37681D01*
X78075Y-37733D01*
X78210Y-37733D01*
X78335Y-37681D01*
X78431Y-37586D01*
X78483Y-37461D01*
X78483Y-37326D01*
X78483Y-47182D01*
X78471Y-47169D01*
X78327Y-47110D01*
X78172Y-47110D01*
X78029Y-47169D01*
X77919Y-47278D01*
X77860Y-47422D01*
X77860Y-47577D01*
X77919Y-47720D01*
X78028Y-47830D01*
X78172Y-47889D01*
X78327Y-47889D01*
X78470Y-47830D01*
X78580Y-47721D01*
X78639Y-47577D01*
X78639Y-47422D01*
X78639Y-48422D01*
X78580Y-48279D01*
X78471Y-48169D01*
X78327Y-48110D01*
X78172Y-48110D01*
X78029Y-48169D01*
X77919Y-48278D01*
X77860Y-48422D01*
X77860Y-48577D01*
X77919Y-48720D01*
X78028Y-48830D01*
X78172Y-48889D01*
X78327Y-48889D01*
X78470Y-48830D01*
X78580Y-48721D01*
X78639Y-48577D01*
X78639Y-48422D01*
X78639Y-58421D01*
X78591Y-58538D01*
X78591Y-58673D01*
X78642Y-58798D01*
X78738Y-58894D01*
X78863Y-58945D01*
X78998Y-58946D01*
X79123Y-58894D01*
X79218Y-58798D01*
X79270Y-58674D01*
X79270Y-58539D01*
X79270Y-59326D01*
X79219Y-59201D01*
X79123Y-59105D01*
X78998Y-59054D01*
X78863Y-59053D01*
X78738Y-59105D01*
X78643Y-59201D01*
X78591Y-59325D01*
X78591Y-59460D01*
X78642Y-59585D01*
X78738Y-59681D01*
X78863Y-59733D01*
X78998Y-59733D01*
X79123Y-59681D01*
X79218Y-59586D01*
X79270Y-59461D01*
X79270Y-59326D01*
X79270Y-62910D01*
X78483Y-62910D01*
X78483Y-59326D01*
X78483Y-58539D01*
X78431Y-58414D01*
X78336Y-58318D01*
X78211Y-58266D01*
X78076Y-58266D01*
X77951Y-58318D01*
X77855Y-58413D01*
X77804Y-58538D01*
X77803Y-58673D01*
X77855Y-58798D01*
X77951Y-58894D01*
X78075Y-58945D01*
X78210Y-58946D01*
X78335Y-58894D01*
X78431Y-58798D01*
X78483Y-58674D01*
X78483Y-58539D01*
X78483Y-59326D01*
X78431Y-59201D01*
X78336Y-59105D01*
X78211Y-59054D01*
X78076Y-59053D01*
X77951Y-59105D01*
X77855Y-59201D01*
X77804Y-59325D01*
X77803Y-59460D01*
X77855Y-59585D01*
X77951Y-59681D01*
X78075Y-59733D01*
X78210Y-59733D01*
X78335Y-59681D01*
X78431Y-59586D01*
X78483Y-59461D01*
X78483Y-59326D01*
X78483Y-62910D01*
X78105Y-62910D01*
X78105Y-60779D01*
X78051Y-60649D01*
X77951Y-60549D01*
X77820Y-60495D01*
X77696Y-60494D01*
X77696Y-59326D01*
X77696Y-58539D01*
X77696Y-37326D01*
X77696Y-36539D01*
X77644Y-36414D01*
X77548Y-36318D01*
X77424Y-36266D01*
X77289Y-36266D01*
X77164Y-36318D01*
X77068Y-36413D01*
X77016Y-36538D01*
X77016Y-36673D01*
X77068Y-36798D01*
X77163Y-36894D01*
X77288Y-36945D01*
X77423Y-36946D01*
X77548Y-36894D01*
X77644Y-36798D01*
X77695Y-36674D01*
X77696Y-36539D01*
X77696Y-37326D01*
X77644Y-37201D01*
X77548Y-37105D01*
X77424Y-37054D01*
X77289Y-37053D01*
X77164Y-37105D01*
X77068Y-37201D01*
X77016Y-37325D01*
X77016Y-37460D01*
X77068Y-37585D01*
X77163Y-37681D01*
X77288Y-37733D01*
X77423Y-37733D01*
X77548Y-37681D01*
X77644Y-37586D01*
X77695Y-37461D01*
X77696Y-37326D01*
X77696Y-58539D01*
X77644Y-58414D01*
X77639Y-58409D01*
X77639Y-48422D01*
X77639Y-48422D01*
X77639Y-47837D01*
X77639Y-47811D01*
X77639Y-47162D01*
X77629Y-47138D01*
X77611Y-47120D01*
X77587Y-47110D01*
X77561Y-47110D01*
X76912Y-47110D01*
X76908Y-47111D01*
X76908Y-37326D01*
X76908Y-36539D01*
X76857Y-36414D01*
X76761Y-36318D01*
X76636Y-36266D01*
X76501Y-36266D01*
X76376Y-36318D01*
X76281Y-36413D01*
X76229Y-36538D01*
X76229Y-36673D01*
X76280Y-36798D01*
X76376Y-36894D01*
X76501Y-36945D01*
X76636Y-36946D01*
X76761Y-36894D01*
X76856Y-36798D01*
X76908Y-36674D01*
X76908Y-36539D01*
X76908Y-37326D01*
X76857Y-37201D01*
X76761Y-37105D01*
X76636Y-37054D01*
X76501Y-37053D01*
X76376Y-37105D01*
X76281Y-37201D01*
X76229Y-37325D01*
X76229Y-37460D01*
X76280Y-37585D01*
X76376Y-37681D01*
X76501Y-37733D01*
X76636Y-37733D01*
X76761Y-37681D01*
X76856Y-37586D01*
X76908Y-37461D01*
X76908Y-37326D01*
X76908Y-47111D01*
X76888Y-47120D01*
X76870Y-47138D01*
X76860Y-47162D01*
X76860Y-47188D01*
X76860Y-47837D01*
X76870Y-47861D01*
X76888Y-47879D01*
X76912Y-47889D01*
X76938Y-47889D01*
X77587Y-47889D01*
X77611Y-47879D01*
X77629Y-47861D01*
X77639Y-47837D01*
X77639Y-48422D01*
X77580Y-48279D01*
X77471Y-48169D01*
X77327Y-48110D01*
X77172Y-48110D01*
X77029Y-48169D01*
X76919Y-48278D01*
X76860Y-48422D01*
X76860Y-48577D01*
X76919Y-48720D01*
X77028Y-48830D01*
X77172Y-48889D01*
X77327Y-48889D01*
X77470Y-48830D01*
X77580Y-48721D01*
X77639Y-48577D01*
X77639Y-48422D01*
X77639Y-58409D01*
X77548Y-58318D01*
X77424Y-58266D01*
X77289Y-58266D01*
X77164Y-58318D01*
X77068Y-58413D01*
X77016Y-58538D01*
X77016Y-58673D01*
X77068Y-58798D01*
X77163Y-58894D01*
X77288Y-58945D01*
X77423Y-58946D01*
X77548Y-58894D01*
X77644Y-58798D01*
X77695Y-58674D01*
X77696Y-58539D01*
X77696Y-59326D01*
X77644Y-59201D01*
X77548Y-59105D01*
X77424Y-59054D01*
X77289Y-59053D01*
X77164Y-59105D01*
X77068Y-59201D01*
X77016Y-59325D01*
X77016Y-59460D01*
X77068Y-59585D01*
X77163Y-59681D01*
X77288Y-59733D01*
X77423Y-59733D01*
X77548Y-59681D01*
X77644Y-59586D01*
X77695Y-59461D01*
X77696Y-59326D01*
X77696Y-60494D01*
X77679Y-60494D01*
X77549Y-60548D01*
X77449Y-60648D01*
X77395Y-60779D01*
X77394Y-60920D01*
X77448Y-61050D01*
X77548Y-61150D01*
X77679Y-61204D01*
X77820Y-61205D01*
X77950Y-61151D01*
X78050Y-61051D01*
X78104Y-60920D01*
X78105Y-60779D01*
X78105Y-62910D01*
X76908Y-62910D01*
X76908Y-59326D01*
X76908Y-58539D01*
X76857Y-58414D01*
X76761Y-58318D01*
X76636Y-58266D01*
X76501Y-58266D01*
X76376Y-58318D01*
X76305Y-58389D01*
X76305Y-52379D01*
X76305Y-50979D01*
X76251Y-50849D01*
X76151Y-50749D01*
X76121Y-50736D01*
X76121Y-37326D01*
X76121Y-36539D01*
X76069Y-36414D01*
X75974Y-36318D01*
X75849Y-36266D01*
X75714Y-36266D01*
X75589Y-36318D01*
X75493Y-36413D01*
X75441Y-36538D01*
X75441Y-36673D01*
X75493Y-36798D01*
X75588Y-36894D01*
X75713Y-36945D01*
X75848Y-36946D01*
X75973Y-36894D01*
X76069Y-36798D01*
X76121Y-36674D01*
X76121Y-36539D01*
X76121Y-37326D01*
X76069Y-37201D01*
X75974Y-37105D01*
X75849Y-37054D01*
X75714Y-37053D01*
X75589Y-37105D01*
X75493Y-37201D01*
X75441Y-37325D01*
X75441Y-37460D01*
X75493Y-37585D01*
X75588Y-37681D01*
X75713Y-37733D01*
X75848Y-37733D01*
X75973Y-37681D01*
X76069Y-37586D01*
X76121Y-37461D01*
X76121Y-37326D01*
X76121Y-50736D01*
X76020Y-50695D01*
X75879Y-50694D01*
X75749Y-50748D01*
X75649Y-50848D01*
X75595Y-50979D01*
X75594Y-51120D01*
X75648Y-51250D01*
X75748Y-51350D01*
X75879Y-51404D01*
X76020Y-51405D01*
X76150Y-51351D01*
X76250Y-51251D01*
X76304Y-51120D01*
X76305Y-50979D01*
X76305Y-52379D01*
X76251Y-52249D01*
X76151Y-52149D01*
X76020Y-52095D01*
X75879Y-52094D01*
X75749Y-52148D01*
X75649Y-52248D01*
X75595Y-52379D01*
X75594Y-52520D01*
X75648Y-52650D01*
X75748Y-52750D01*
X75879Y-52804D01*
X76020Y-52805D01*
X76150Y-52751D01*
X76250Y-52651D01*
X76304Y-52520D01*
X76305Y-52379D01*
X76305Y-58389D01*
X76281Y-58413D01*
X76229Y-58538D01*
X76229Y-58673D01*
X76280Y-58798D01*
X76376Y-58894D01*
X76501Y-58945D01*
X76636Y-58946D01*
X76761Y-58894D01*
X76856Y-58798D01*
X76908Y-58674D01*
X76908Y-58539D01*
X76908Y-59326D01*
X76857Y-59201D01*
X76761Y-59105D01*
X76636Y-59054D01*
X76501Y-59053D01*
X76376Y-59105D01*
X76281Y-59201D01*
X76229Y-59325D01*
X76229Y-59460D01*
X76280Y-59585D01*
X76376Y-59681D01*
X76501Y-59733D01*
X76636Y-59733D01*
X76761Y-59681D01*
X76856Y-59586D01*
X76908Y-59461D01*
X76908Y-59326D01*
X76908Y-62910D01*
X76121Y-62910D01*
X76121Y-59326D01*
X76121Y-58539D01*
X76069Y-58414D01*
X75974Y-58318D01*
X75849Y-58266D01*
X75714Y-58266D01*
X75589Y-58318D01*
X75493Y-58413D01*
X75441Y-58538D01*
X75441Y-58673D01*
X75493Y-58798D01*
X75588Y-58894D01*
X75713Y-58945D01*
X75848Y-58946D01*
X75973Y-58894D01*
X76069Y-58798D01*
X76121Y-58674D01*
X76121Y-58539D01*
X76121Y-59326D01*
X76069Y-59201D01*
X75974Y-59105D01*
X75849Y-59054D01*
X75714Y-59053D01*
X75589Y-59105D01*
X75493Y-59201D01*
X75441Y-59325D01*
X75441Y-59460D01*
X75493Y-59585D01*
X75588Y-59681D01*
X75713Y-59733D01*
X75848Y-59733D01*
X75973Y-59681D01*
X76069Y-59586D01*
X76121Y-59461D01*
X76121Y-59326D01*
X76121Y-62910D01*
X75333Y-62910D01*
X75333Y-59326D01*
X75333Y-58539D01*
X75333Y-37326D01*
X75333Y-36539D01*
X75282Y-36414D01*
X75255Y-36386D01*
X75255Y-33879D01*
X75201Y-33749D01*
X75101Y-33649D01*
X74970Y-33595D01*
X74829Y-33594D01*
X74699Y-33648D01*
X74599Y-33748D01*
X74545Y-33879D01*
X74544Y-34020D01*
X74598Y-34150D01*
X74698Y-34250D01*
X74829Y-34304D01*
X74970Y-34305D01*
X75100Y-34251D01*
X75200Y-34151D01*
X75254Y-34020D01*
X75255Y-33879D01*
X75255Y-36386D01*
X75186Y-36318D01*
X75061Y-36266D01*
X74926Y-36266D01*
X74801Y-36318D01*
X74706Y-36413D01*
X74654Y-36538D01*
X74654Y-36673D01*
X74705Y-36798D01*
X74801Y-36894D01*
X74926Y-36945D01*
X75061Y-36946D01*
X75186Y-36894D01*
X75281Y-36798D01*
X75333Y-36674D01*
X75333Y-36539D01*
X75333Y-37326D01*
X75282Y-37201D01*
X75186Y-37105D01*
X75061Y-37054D01*
X74926Y-37053D01*
X74801Y-37105D01*
X74706Y-37201D01*
X74654Y-37325D01*
X74654Y-37460D01*
X74705Y-37585D01*
X74801Y-37681D01*
X74926Y-37733D01*
X75061Y-37733D01*
X75186Y-37681D01*
X75281Y-37586D01*
X75333Y-37461D01*
X75333Y-37326D01*
X75333Y-58539D01*
X75305Y-58469D01*
X75305Y-45179D01*
X75305Y-43079D01*
X75251Y-42949D01*
X75151Y-42849D01*
X75020Y-42795D01*
X74879Y-42794D01*
X74749Y-42848D01*
X74649Y-42948D01*
X74595Y-43079D01*
X74594Y-43220D01*
X74648Y-43350D01*
X74748Y-43450D01*
X74879Y-43504D01*
X75020Y-43505D01*
X75150Y-43451D01*
X75250Y-43351D01*
X75304Y-43220D01*
X75305Y-43079D01*
X75305Y-45179D01*
X75251Y-45049D01*
X75151Y-44949D01*
X75020Y-44895D01*
X74879Y-44894D01*
X74749Y-44948D01*
X74649Y-45048D01*
X74595Y-45179D01*
X74594Y-45320D01*
X74648Y-45450D01*
X74748Y-45550D01*
X74879Y-45604D01*
X75020Y-45605D01*
X75150Y-45551D01*
X75250Y-45451D01*
X75304Y-45320D01*
X75305Y-45179D01*
X75305Y-58469D01*
X75282Y-58414D01*
X75186Y-58318D01*
X75061Y-58266D01*
X74926Y-58266D01*
X74801Y-58318D01*
X74706Y-58413D01*
X74654Y-58538D01*
X74654Y-58673D01*
X74705Y-58798D01*
X74801Y-58894D01*
X74926Y-58945D01*
X75061Y-58946D01*
X75186Y-58894D01*
X75281Y-58798D01*
X75333Y-58674D01*
X75333Y-58539D01*
X75333Y-59326D01*
X75282Y-59201D01*
X75186Y-59105D01*
X75061Y-59054D01*
X74926Y-59053D01*
X74801Y-59105D01*
X74706Y-59201D01*
X74654Y-59325D01*
X74654Y-59460D01*
X74705Y-59585D01*
X74801Y-59681D01*
X74926Y-59733D01*
X75061Y-59733D01*
X75186Y-59681D01*
X75281Y-59586D01*
X75333Y-59461D01*
X75333Y-59326D01*
X75333Y-62910D01*
X74455Y-62910D01*
X74455Y-62029D01*
X74455Y-48029D01*
X74401Y-47899D01*
X74301Y-47799D01*
X74170Y-47745D01*
X74029Y-47744D01*
X73899Y-47798D01*
X73799Y-47898D01*
X73745Y-48029D01*
X73744Y-48170D01*
X73798Y-48300D01*
X73898Y-48400D01*
X74029Y-48454D01*
X74170Y-48455D01*
X74300Y-48401D01*
X74400Y-48301D01*
X74454Y-48170D01*
X74455Y-48029D01*
X74455Y-62029D01*
X74401Y-61899D01*
X74305Y-61802D01*
X74305Y-53129D01*
X74305Y-51729D01*
X74305Y-50329D01*
X74251Y-50199D01*
X74151Y-50099D01*
X74020Y-50045D01*
X73879Y-50044D01*
X73749Y-50098D01*
X73649Y-50198D01*
X73595Y-50329D01*
X73594Y-50470D01*
X73648Y-50600D01*
X73748Y-50700D01*
X73879Y-50754D01*
X74020Y-50755D01*
X74150Y-50701D01*
X74250Y-50601D01*
X74304Y-50470D01*
X74305Y-50329D01*
X74305Y-51729D01*
X74251Y-51599D01*
X74151Y-51499D01*
X74020Y-51445D01*
X73879Y-51444D01*
X73749Y-51498D01*
X73649Y-51598D01*
X73595Y-51729D01*
X73594Y-51870D01*
X73648Y-52000D01*
X73748Y-52100D01*
X73879Y-52154D01*
X74020Y-52155D01*
X74150Y-52101D01*
X74250Y-52001D01*
X74304Y-51870D01*
X74305Y-51729D01*
X74305Y-53129D01*
X74251Y-52999D01*
X74151Y-52899D01*
X74020Y-52845D01*
X73879Y-52844D01*
X73749Y-52898D01*
X73649Y-52998D01*
X73595Y-53129D01*
X73594Y-53270D01*
X73648Y-53400D01*
X73748Y-53500D01*
X73879Y-53554D01*
X74020Y-53555D01*
X74150Y-53501D01*
X74250Y-53401D01*
X74304Y-53270D01*
X74305Y-53129D01*
X74305Y-61802D01*
X74301Y-61799D01*
X74170Y-61745D01*
X74029Y-61744D01*
X73899Y-61798D01*
X73799Y-61898D01*
X73745Y-62029D01*
X73744Y-62170D01*
X73798Y-62300D01*
X73898Y-62400D01*
X74029Y-62454D01*
X74170Y-62455D01*
X74300Y-62401D01*
X74400Y-62301D01*
X74454Y-62170D01*
X74455Y-62029D01*
X74455Y-62910D01*
X73445Y-62910D01*
X73445Y-55362D01*
X73445Y-40362D01*
X73340Y-40106D01*
X73144Y-39910D01*
X72888Y-39804D01*
X72612Y-39804D01*
X72356Y-39909D01*
X72160Y-40105D01*
X72054Y-40361D01*
X72054Y-40637D01*
X72159Y-40893D01*
X72355Y-41089D01*
X72611Y-41195D01*
X72887Y-41195D01*
X73143Y-41090D01*
X73339Y-40894D01*
X73445Y-40638D01*
X73445Y-40362D01*
X73445Y-55362D01*
X73340Y-55106D01*
X73144Y-54910D01*
X72888Y-54804D01*
X72612Y-54804D01*
X72356Y-54909D01*
X72160Y-55105D01*
X72054Y-55361D01*
X72054Y-55637D01*
X72159Y-55893D01*
X72355Y-56089D01*
X72611Y-56195D01*
X72887Y-56195D01*
X73143Y-56090D01*
X73339Y-55894D01*
X73445Y-55638D01*
X73445Y-55362D01*
X73445Y-62910D01*
X71590Y-62910D01*
X71590Y-33090D01*
X98910Y-33090D01*
X98910Y-62910D01*
G36*
X94945Y-52597D02*
X94797Y-52745D01*
X91752Y-52745D01*
X90502Y-51495D01*
X89552Y-51495D01*
X88352Y-50295D01*
X83797Y-50295D01*
X83497Y-50595D01*
X82397Y-50595D01*
X81247Y-51745D01*
X80755Y-51745D01*
X80755Y-49902D01*
X81202Y-49455D01*
X82402Y-49455D01*
X82755Y-49102D01*
X82755Y-47097D01*
X82152Y-46495D01*
X80305Y-46495D01*
X80305Y-44505D01*
X81845Y-44505D01*
X81845Y-45502D01*
X83595Y-47252D01*
X83645Y-48852D01*
X84047Y-49255D01*
X93650Y-49255D01*
X94147Y-49255D01*
X94945Y-50052D01*
X94945Y-50500D01*
X94945Y-52597D01*
X94945Y-52597D01*
G37*
X94945Y-52597D02*
X94797Y-52745D01*
X91752Y-52745D01*
X90502Y-51495D01*
X89552Y-51495D01*
X88352Y-50295D01*
X83797Y-50295D01*
X83497Y-50595D01*
X82397Y-50595D01*
X81247Y-51745D01*
X80755Y-51745D01*
X80755Y-49902D01*
X81202Y-49455D01*
X82402Y-49455D01*
X82755Y-49102D01*
X82755Y-47097D01*
X82152Y-46495D01*
X80305Y-46495D01*
X80305Y-44505D01*
X81845Y-44505D01*
X81845Y-45502D01*
X83595Y-47252D01*
X83645Y-48852D01*
X84047Y-49255D01*
X93650Y-49255D01*
X94147Y-49255D01*
X94945Y-50052D01*
X94945Y-50500D01*
X94945Y-52597D01*
M02*
