M48
;DRILL file {Pcbnew (2013-mar-13)-testing} date Mon 31 Mar 2014 04:14:30 PM PDT
;FORMAT={-:-/ absolute / inch / decimal}
FMAT,2
INCH,TZ
T1C0.020
T2C0.031
T3C0.032
T4C0.039
T5C0.043
%
G90
G05
M72
T1
X8.22Y-4.455
X8.22Y-5.145
X8.34Y-4.435
X8.34Y-5.165
X8.42Y-4.54
X8.42Y-5.06
X8.63Y-4.54
X8.63Y-5.06
X8.71Y-4.435
X8.71Y-5.165
X8.83Y-4.455
X8.83Y-5.145
T2
X7.4994Y-3.6606
X7.4994Y-3.7394
X7.4994Y-5.8606
X7.4994Y-5.9394
X7.5781Y-3.6606
X7.5781Y-3.7394
X7.5781Y-5.8606
X7.5781Y-5.9394
X7.6569Y-3.6606
X7.6569Y-3.7394
X7.6569Y-5.8606
X7.6569Y-5.9394
X7.7356Y-3.6606
X7.7356Y-3.7394
X7.7356Y-5.8606
X7.7356Y-5.9394
X7.8144Y-3.6606
X7.8144Y-3.7394
X7.8144Y-5.8606
X7.8144Y-5.9394
X7.8931Y-3.6606
X7.8931Y-3.7394
X7.8931Y-5.8606
X7.8931Y-5.9394
X7.9719Y-3.6606
X7.9719Y-3.7394
X7.9719Y-5.8606
X7.9719Y-5.9394
X8.0506Y-3.6606
X8.0506Y-3.7394
X8.0506Y-5.8606
X8.0506Y-5.9394
X8.9994Y-3.6606
X8.9994Y-3.7394
X8.9994Y-5.8606
X8.9994Y-5.9394
X9.0781Y-3.6606
X9.0781Y-3.7394
X9.0781Y-5.8606
X9.0781Y-5.9394
X9.1569Y-3.6606
X9.1569Y-3.7394
X9.1569Y-5.8606
X9.1569Y-5.9394
X9.2356Y-3.6606
X9.2356Y-3.7394
X9.2356Y-5.8606
X9.2356Y-5.9394
X9.3144Y-3.6606
X9.3144Y-3.7394
X9.3144Y-5.8606
X9.3144Y-5.9394
X9.3931Y-3.6606
X9.3931Y-3.7394
X9.3931Y-5.8606
X9.3931Y-5.9394
X9.4719Y-3.6606
X9.4719Y-3.7394
X9.4719Y-5.8606
X9.4719Y-5.9394
X9.5506Y-3.6606
X9.5506Y-3.7394
X9.5506Y-5.8606
X9.5506Y-5.9394
X9.6856Y-4.7
X9.6856Y-4.925
X9.7644Y-4.7
X9.7644Y-4.925
T3
X7.395Y-5.04
X7.395Y-5.18
X7.395Y-5.32
X7.41Y-4.81
X7.41Y-6.21
X7.49Y-3.395
X7.495Y-4.315
X7.495Y-4.525
X7.595Y-5.105
X7.595Y-5.245
X7.775Y-3.505
X7.775Y-6.085
X7.885Y-4.44
X8.1Y-4.5
X8.1Y-5.07
X8.14Y-3.39
X8.14Y-6.21
X8.905Y-6.22
X8.91Y-3.395
X9.225Y-5.125
X9.225Y-5.225
X9.275Y-3.52
X9.28Y-6.09
X9.325Y-5.175
X9.515Y-4.175
X9.635Y-3.395
X9.675Y-5.175
X9.695Y-4.29
X9.72Y-6.145
X9.73Y-5.74
X9.775Y-5.125
X9.775Y-5.225
T4
X7.725Y-4.75
X7.725Y-4.85
X7.825Y-4.75
X7.825Y-4.85
X7.925Y-4.75
X7.925Y-4.85
X8.025Y-4.75
X8.025Y-4.85
X8.125Y-4.75
X8.125Y-4.85
X8.425Y-4.75
X8.425Y-4.85
X8.525Y-4.75
X8.525Y-4.85
X8.625Y-4.75
X8.625Y-4.85
X8.925Y-4.75
X8.925Y-4.85
X9.025Y-4.75
X9.025Y-4.85
X9.125Y-4.75
X9.125Y-4.85
X9.225Y-4.75
X9.225Y-4.85
X9.325Y-4.75
X9.325Y-4.85
X9.475Y-4.375
X9.475Y-4.475
X9.475Y-5.125
X9.475Y-5.225
X9.575Y-4.375
X9.575Y-4.475
X9.575Y-5.125
X9.575Y-5.225
T5
X8.47Y-3.8
X8.475Y-5.8
X8.57Y-3.8
X8.575Y-5.8
T0
M30
