<?xml version="1.0" standalone="no"?>
 <!DOCTYPE svg PUBLIC "-//W3C//DTD SVG 1.1//EN" 
 "http://www.w3.org/Graphics/SVG/1.1/DTD/svg11.dtd"> 
<svg xmlns="http://www.w3.org/2000/svg" version="1.1" 
    width="9.75868cm" height="10.1397cm" viewBox="0 0 38420 39920 ">
<title>SVG Picture created as board_layout--brd.svg date 2014/03/17 16:01:37 </title>
  <desc>Picture generated by PCBNEW </desc>
<g style="fill:#000000; fill-opacity:1;stroke:#000000; stroke-opacity:1;
stroke-linecap:round; stroke-linejoin:round; "
 transform="translate(0 0) scale(1 1)">
</g>
<g style="fill:#000000; fill-opacity:0.0; 
stroke:#000000; stroke-width:120; stroke-opacity:1; 
stroke-linecap:round; stroke-linejoin:round;">
<path d="M13946 378
L13974 340
L14032 301
L14174 301
L14232 340
L14260 378
L14289 454
L14289 530
L14260 644
L13917 1101
L14289 1101
" />
<path d="M14546 1025
L14574 1063
L14546 1101
L14517 1063
L14546 1025
L14546 1101
" />
<path d="M14774 301
L15174 301
L14917 1101
" />
<path d="M15689 301
L15403 301
L15374 682
L15403 644
L15460 606
L15603 606
L15660 644
L15689 682
L15717 759
L15717 949
L15689 1025
L15660 1063
L15603 1101
L15460 1101
L15403 1063
L15374 1025
" />
<path d="M16089 301
L16146 301
L16203 340
L16232 378
L16260 454
L16289 606
L16289 797
L16260 949
L16232 1025
L16203 1063
L16146 1101
L16089 1101
L16032 1063
L16003 1025
L15974 949
L15946 797
L15946 606
L15974 454
L16003 378
L16032 340
L16089 301
" />
<path d="M16517 301
L16517 454
" />
<path d="M16746 301
L16746 454
" />
<path d="M1596 1740
L29096 1740
" />
<path d="M1596 9740
L1596 460
" />
<path d="M29096 9740
L29096 460
" />
<path d="M29096 1740
L28652 1970
" />
<path d="M29096 1740
L28652 1509
" />
<path d="M1596 1740
L2039 1970
" />
<path d="M1596 1740
L2039 1509
" />
<path d="M8039 3101
L7696 3101
" />
<path d="M7867 3101
L7867 2301
L7810 2416
L7753 2492
L7696 2530
" />
<path d="M8296 3025
L8324 3063
L8296 3101
L8267 3063
L8296 3025
L8296 3101
" />
<path d="M8553 2378
L8582 2340
L8639 2301
L8782 2301
L8839 2340
L8867 2378
L8896 2454
L8896 2530
L8867 2644
L8524 3101
L8896 3101
" />
<path d="M9439 2301
L9153 2301
L9124 2682
L9153 2644
L9210 2606
L9353 2606
L9410 2644
L9439 2682
L9467 2759
L9467 2949
L9439 3025
L9410 3063
L9353 3101
L9210 3101
L9153 3063
L9124 3025
" />
<path d="M9839 2301
L9896 2301
L9953 2340
L9982 2378
L10010 2454
L10039 2606
L10039 2797
L10010 2949
L9982 3025
L9953 3063
L9896 3101
L9839 3101
L9782 3063
L9753 3025
L9724 2949
L9696 2797
L9696 2606
L9724 2454
L9753 2378
L9782 2340
L9839 2301
" />
<path d="M10267 2301
L10267 2454
" />
<path d="M10496 2301
L10496 2454
" />
<path d="M2846 3740
L15346 3740
" />
<path d="M2846 32240
L2846 2460
" />
<path d="M15346 32240
L15346 2460
" />
<path d="M15346 3740
L14902 3970
" />
<path d="M15346 3740
L14902 3509
" />
<path d="M2846 3740
L3289 3970
" />
<path d="M2846 3740
L3289 3509
" />
<path d="M20539 3101
L20196 3101
" />
<path d="M20367 3101
L20367 2301
L20310 2416
L20253 2492
L20196 2530
" />
<path d="M20796 3025
L20824 3063
L20796 3101
L20767 3063
L20796 3025
L20796 3101
" />
<path d="M21053 2378
L21082 2340
L21139 2301
L21282 2301
L21339 2340
L21367 2378
L21396 2454
L21396 2530
L21367 2644
L21024 3101
L21396 3101
" />
<path d="M21939 2301
L21653 2301
L21624 2682
L21653 2644
L21710 2606
L21853 2606
L21910 2644
L21939 2682
L21967 2759
L21967 2949
L21939 3025
L21910 3063
L21853 3101
L21710 3101
L21653 3063
L21624 3025
" />
<path d="M22339 2301
L22396 2301
L22453 2340
L22482 2378
L22510 2454
L22539 2606
L22539 2797
L22510 2949
L22482 3025
L22453 3063
L22396 3101
L22339 3101
L22282 3063
L22253 3025
L22224 2949
L22196 2797
L22196 2606
L22224 2454
L22253 2378
L22282 2340
L22339 2301
" />
<path d="M22767 2301
L22767 2454
" />
<path d="M22996 2301
L22996 2454
" />
<path d="M15346 3740
L27846 3740
" />
<path d="M15346 32240
L15346 2460
" />
<path d="M27846 32240
L27846 2460
" />
<path d="M27846 3740
L27402 3970
" />
<path d="M27846 3740
L27402 3509
" />
<path d="M15346 3740
L15789 3970
" />
<path d="M15346 3740
L15789 3509
" />
<path d="M19289 5101
L18946 5101
" />
<path d="M19117 5101
L19117 4301
L19060 4416
L19003 4492
L18946 4530
" />
<path d="M19546 5025
L19574 5063
L19546 5101
L19517 5063
L19546 5025
L19546 5101
" />
<path d="M19946 4301
L20003 4301
L20060 4340
L20089 4378
L20117 4454
L20146 4606
L20146 4797
L20117 4949
L20089 5025
L20060 5063
L20003 5101
L19946 5101
L19889 5063
L19860 5025
L19832 4949
L19803 4797
L19803 4606
L19832 4454
L19860 4378
L19889 4340
L19946 4301
" />
<path d="M20517 4301
L20574 4301
L20632 4340
L20660 4378
L20689 4454
L20717 4606
L20717 4797
L20689 4949
L20660 5025
L20632 5063
L20574 5101
L20517 5101
L20460 5063
L20432 5025
L20403 4949
L20374 4797
L20374 4606
L20403 4454
L20432 4378
L20460 4340
L20517 4301
" />
<path d="M21089 4301
L21146 4301
L21203 4340
L21232 4378
L21260 4454
L21289 4606
L21289 4797
L21260 4949
L21232 5025
L21203 5063
L21146 5101
L21089 5101
L21032 5063
L21003 5025
L20974 4949
L20946 4797
L20946 4606
L20974 4454
L21003 4378
L21032 4340
L21089 4301
" />
<path d="M21517 4301
L21517 4454
" />
<path d="M21746 4301
L21746 4454
" />
<path d="M15346 5740
L25346 5740
" />
<path d="M15346 28490
L15346 4460
" />
<path d="M25346 28490
L25346 4460
" />
<path d="M25346 5740
L24902 5970
" />
<path d="M25346 5740
L24902 5509
" />
<path d="M15346 5740
L15789 5970
" />
<path d="M15346 5740
L15789 5509
" />
<path d="M11089 6301
L11146 6301
L11203 6340
L11232 6378
L11260 6454
L11289 6606
L11289 6797
L11260 6949
L11232 7025
L11203 7063
L11146 7101
L11089 7101
L11032 7063
L11003 7025
L10974 6949
L10946 6797
L10946 6606
L10974 6454
L11003 6378
L11032 6340
L11089 6301
" />
<path d="M11546 7025
L11574 7063
L11546 7101
L11517 7063
L11546 7025
L11546 7101
" />
<path d="M12089 6301
L11974 6301
L11917 6340
L11889 6378
L11832 6492
L11803 6644
L11803 6949
L11832 7025
L11860 7063
L11917 7101
L12032 7101
L12089 7063
L12117 7025
L12146 6949
L12146 6759
L12117 6682
L12089 6644
L12032 6606
L11917 6606
L11860 6644
L11832 6682
L11803 6759
" />
<path d="M12517 6301
L12574 6301
L12632 6340
L12660 6378
L12689 6454
L12717 6606
L12717 6797
L12689 6949
L12660 7025
L12632 7063
L12574 7101
L12517 7101
L12460 7063
L12432 7025
L12403 6949
L12374 6797
L12374 6606
L12403 6454
L12432 6378
L12460 6340
L12517 6301
" />
<path d="M13089 6301
L13146 6301
L13203 6340
L13232 6378
L13260 6454
L13289 6606
L13289 6797
L13260 6949
L13232 7025
L13203 7063
L13146 7101
L13089 7101
L13032 7063
L13003 7025
L12974 6949
L12946 6797
L12946 6606
L12974 6454
L13003 6378
L13032 6340
L13089 6301
" />
<path d="M13517 6301
L13517 6454
" />
<path d="M13746 6301
L13746 6454
" />
<path d="M9346 7740
L15346 7740
" />
<path d="M9346 24740
L9346 6460
" />
<path d="M15346 24740
L15346 6460
" />
<path d="M15346 7740
L14902 7970
" />
<path d="M15346 7740
L14902 7509
" />
<path d="M9346 7740
L9789 7970
" />
<path d="M9346 7740
L9789 7509
" />
<path d="M17089 6301
L17146 6301
L17203 6340
L17232 6378
L17260 6454
L17289 6606
L17289 6797
L17260 6949
L17232 7025
L17203 7063
L17146 7101
L17089 7101
L17032 7063
L17003 7025
L16974 6949
L16946 6797
L16946 6606
L16974 6454
L17003 6378
L17032 6340
L17089 6301
" />
<path d="M17546 7025
L17574 7063
L17546 7101
L17517 7063
L17546 7025
L17546 7101
" />
<path d="M18089 6301
L17974 6301
L17917 6340
L17889 6378
L17832 6492
L17803 6644
L17803 6949
L17832 7025
L17860 7063
L17917 7101
L18032 7101
L18089 7063
L18117 7025
L18146 6949
L18146 6759
L18117 6682
L18089 6644
L18032 6606
L17917 6606
L17860 6644
L17832 6682
L17803 6759
" />
<path d="M18517 6301
L18574 6301
L18632 6340
L18660 6378
L18689 6454
L18717 6606
L18717 6797
L18689 6949
L18660 7025
L18632 7063
L18574 7101
L18517 7101
L18460 7063
L18432 7025
L18403 6949
L18374 6797
L18374 6606
L18403 6454
L18432 6378
L18460 6340
L18517 6301
" />
<path d="M19089 6301
L19146 6301
L19203 6340
L19232 6378
L19260 6454
L19289 6606
L19289 6797
L19260 6949
L19232 7025
L19203 7063
L19146 7101
L19089 7101
L19032 7063
L19003 7025
L18974 6949
L18946 6797
L18946 6606
L18974 6454
L19003 6378
L19032 6340
L19089 6301
" />
<path d="M19517 6301
L19517 6454
" />
<path d="M19746 6301
L19746 6454
" />
<path d="M15346 7740
L21346 7740
" />
<path d="M15346 24740
L15346 6460
" />
<path d="M21346 24740
L21346 6460
" />
<path d="M21346 7740
L20902 7970
" />
<path d="M21346 7740
L20902 7509
" />
<path d="M15346 7740
L15789 7970
" />
<path d="M15346 7740
L15789 7509
" />
<path d="M36408 26168
L36408 25797
L36713 25997
L36713 25911
L36751 25854
L36789 25825
L36865 25797
L37055 25797
L37132 25825
L37170 25854
L37208 25911
L37208 26082
L37170 26140
L37132 26168
" />
<path d="M37132 25540
L37170 25511
L37208 25540
L37170 25568
L37132 25540
L37208 25540
" />
<path d="M36408 25140
L36408 25082
L36446 25025
L36484 24997
L36560 24968
L36713 24940
L36903 24940
L37055 24968
L37132 24997
L37170 25025
L37208 25082
L37208 25140
L37170 25197
L37132 25225
L37055 25254
L36903 25282
L36713 25282
L36560 25254
L36484 25225
L36446 25197
L36408 25140
" />
<path d="M36408 24568
L36408 24511
L36446 24454
L36484 24425
L36560 24397
L36713 24368
L36903 24368
L37055 24397
L37132 24425
L37170 24454
L37208 24511
L37208 24568
L37170 24625
L37132 24654
L37055 24682
L36903 24711
L36713 24711
L36560 24682
L36484 24654
L36446 24625
L36408 24568
" />
<path d="M36408 23997
L36408 23939
L36446 23882
L36484 23854
L36560 23825
L36713 23797
L36903 23797
L37055 23825
L37132 23854
L37170 23882
L37208 23939
L37208 23997
L37170 24054
L37132 24082
L37055 24111
L36903 24139
L36713 24139
L36560 24111
L36484 24082
L36446 24054
L36408 23997
" />
<path d="M36408 23568
L36560 23568
" />
<path d="M36408 23339
L36560 23339
" />
<path d="M35596 39740
L35596 9740
" />
<path d="M29096 39740
L36876 39740
" />
<path d="M29096 9740
L36876 9740
" />
<path d="M35596 9740
L35827 10183
" />
<path d="M35596 9740
L35365 10183
" />
<path d="M35596 39740
L35827 39296
" />
<path d="M35596 39740
L35365 39296
" />
<path d="M34158 22247
L34158 22190
L34196 22132
L34234 22104
L34310 22075
L34463 22047
L34653 22047
L34805 22075
L34882 22104
L34920 22132
L34958 22190
L34958 22247
L34920 22304
L34882 22332
L34805 22361
L34653 22390
L34463 22390
L34310 22361
L34234 22332
L34196 22304
L34158 22247
" />
<path d="M34882 21790
L34920 21761
L34958 21790
L34920 21818
L34882 21790
L34958 21790
" />
<path d="M34158 21561
L34158 21161
L34958 21418
" />
<path d="M34158 20647
L34158 20932
L34539 20961
L34501 20932
L34463 20875
L34463 20732
L34501 20675
L34539 20647
L34615 20618
L34805 20618
L34882 20647
L34920 20675
L34958 20732
L34958 20875
L34920 20932
L34882 20961
" />
<path d="M34158 20247
L34158 20189
L34196 20132
L34234 20104
L34310 20075
L34463 20047
L34653 20047
L34805 20075
L34882 20104
L34920 20132
L34958 20189
L34958 20247
L34920 20304
L34882 20332
L34805 20361
L34653 20389
L34463 20389
L34310 20361
L34234 20332
L34196 20304
L34158 20247
" />
<path d="M34158 19818
L34310 19818
" />
<path d="M34158 19589
L34310 19589
" />
<path d="M33346 24740
L33346 17240
" />
<path d="M27846 24740
L34626 24740
" />
<path d="M27846 17240
L34626 17240
" />
<path d="M33346 17240
L33577 17683
" />
<path d="M33346 17240
L33115 17683
" />
<path d="M33346 24740
L33577 24296
" />
<path d="M33346 24740
L33115 24296
" />
<path d="M34158 29747
L34158 29690
L34196 29632
L34234 29604
L34310 29575
L34463 29547
L34653 29547
L34805 29575
L34882 29604
L34920 29632
L34958 29690
L34958 29747
L34920 29804
L34882 29832
L34805 29861
L34653 29890
L34463 29890
L34310 29861
L34234 29832
L34196 29804
L34158 29747
" />
<path d="M34882 29290
L34920 29261
L34958 29290
L34920 29318
L34882 29290
L34958 29290
" />
<path d="M34158 29061
L34158 28661
L34958 28918
" />
<path d="M34158 28147
L34158 28432
L34539 28461
L34501 28432
L34463 28375
L34463 28232
L34501 28175
L34539 28147
L34615 28118
L34805 28118
L34882 28147
L34920 28175
L34958 28232
L34958 28375
L34920 28432
L34882 28461
" />
<path d="M34158 27747
L34158 27689
L34196 27632
L34234 27604
L34310 27575
L34463 27547
L34653 27547
L34805 27575
L34882 27604
L34920 27632
L34958 27689
L34958 27747
L34920 27804
L34882 27832
L34805 27861
L34653 27889
L34463 27889
L34310 27861
L34234 27832
L34196 27804
L34158 27747
" />
<path d="M34158 27318
L34310 27318
" />
<path d="M34158 27089
L34310 27089
" />
<path d="M33346 32240
L33346 24740
" />
<path d="M27846 32240
L34626 32240
" />
<path d="M27846 24740
L34626 24740
" />
<path d="M33346 24740
L33577 25183
" />
<path d="M33346 24740
L33115 25183
" />
<path d="M33346 32240
L33577 31796
" />
<path d="M33346 32240
L33115 31796
" />
<path d="M31908 27747
L31908 27690
L31946 27632
L31984 27604
L32060 27575
L32213 27547
L32403 27547
L32555 27575
L32632 27604
L32670 27632
L32708 27690
L32708 27747
L32670 27804
L32632 27832
L32555 27861
L32403 27890
L32213 27890
L32060 27861
L31984 27832
L31946 27804
L31908 27747
" />
<path d="M32632 27290
L32670 27261
L32708 27290
L32670 27318
L32632 27290
L32708 27290
" />
<path d="M31908 27061
L31908 26690
L32213 26890
L32213 26804
L32251 26747
L32289 26718
L32365 26690
L32555 26690
L32632 26718
L32670 26747
L32708 26804
L32708 26975
L32670 27032
L32632 27061
" />
<path d="M31908 26490
L31908 26090
L32708 26347
" />
<path d="M31908 25575
L31908 25861
L32289 25889
L32251 25861
L32213 25804
L32213 25661
L32251 25604
L32289 25575
L32365 25547
L32555 25547
L32632 25575
L32670 25604
L32708 25661
L32708 25804
L32670 25861
L32632 25889
" />
<path d="M31908 25318
L32060 25318
" />
<path d="M31908 25089
L32060 25089
" />
<path d="M31096 28490
L31096 24740
" />
<path d="M25096 28490
L32376 28490
" />
<path d="M25096 24740
L32376 24740
" />
<path d="M31096 24740
L31327 25183
" />
<path d="M31096 24740
L30865 25183
" />
<path d="M31096 28490
L31327 28046
" />
<path d="M31096 28490
L30865 28046
" />
<path d="M31908 23997
L31908 23940
L31946 23882
L31984 23854
L32060 23825
L32213 23797
L32403 23797
L32555 23825
L32632 23854
L32670 23882
L32708 23940
L32708 23997
L32670 24054
L32632 24082
L32555 24111
L32403 24140
L32213 24140
L32060 24111
L31984 24082
L31946 24054
L31908 23997
" />
<path d="M32632 23540
L32670 23511
L32708 23540
L32670 23568
L32632 23540
L32708 23540
" />
<path d="M31908 23311
L31908 22940
L32213 23140
L32213 23054
L32251 22997
L32289 22968
L32365 22940
L32555 22940
L32632 22968
L32670 22997
L32708 23054
L32708 23225
L32670 23282
L32632 23311
" />
<path d="M31908 22740
L31908 22340
L32708 22597
" />
<path d="M31908 21825
L31908 22111
L32289 22139
L32251 22111
L32213 22054
L32213 21911
L32251 21854
L32289 21825
L32365 21797
L32555 21797
L32632 21825
L32670 21854
L32708 21911
L32708 22054
L32670 22111
L32632 22139
" />
<path d="M31908 21568
L32060 21568
" />
<path d="M31908 21339
L32060 21339
" />
<path d="M31096 24740
L31096 20990
" />
<path d="M25096 24740
L32376 24740
" />
<path d="M25096 20990
L32376 20990
" />
<path d="M31096 20990
L31327 21433
" />
<path d="M31096 20990
L30865 21433
" />
<path d="M31096 24740
L31327 24296
" />
<path d="M31096 24740
L30865 24296
" />
</g>
<g style="fill:#000000; fill-opacity:0.0; 
stroke:#000000; stroke-width:150; stroke-opacity:1; 
stroke-linecap:round; stroke-linejoin:round;">
<path d="M1596 39740
L1596 9740
" />
<path d="M29096 39740
L1596 39740
" />
<path d="M29096 9740
L29096 39740
" />
<path d="M1596 9740
L29096 9740
" />
</g>
<g style="fill:#000000; fill-opacity:0.0; 
stroke:#000000; stroke-width:80; stroke-opacity:1; 
stroke-linecap:round; stroke-linejoin:round;">
<path d="M6801 23170
L6801 22770
L6953 22770
L6991 22790
L7010 22809
L7029 22847
L7029 22904
L7010 22942
L6991 22961
L6953 22980
L6801 22980
" />
<path d="M7372 22770
L7296 22770
L7258 22790
L7239 22809
L7201 22866
L7182 22942
L7182 23094
L7201 23132
L7220 23151
L7258 23170
L7334 23170
L7372 23151
L7391 23132
L7410 23094
L7410 22999
L7391 22961
L7372 22942
L7334 22923
L7258 22923
L7220 22942
L7201 22961
L7182 22999
" />
<path d="M18801 23170
L18801 22770
L18953 22770
L18991 22790
L19010 22809
L19029 22847
L19029 22904
L19010 22942
L18991 22961
L18953 22980
L18801 22980
" />
<path d="M19391 22770
L19201 22770
L19182 22961
L19201 22942
L19239 22923
L19334 22923
L19372 22942
L19391 22961
L19410 22999
L19410 23094
L19391 23132
L19372 23151
L19334 23170
L19239 23170
L19201 23151
L19182 23132
" />
<path d="M13801 23420
L13801 23020
L13953 23020
L13991 23040
L14010 23059
L14029 23097
L14029 23154
L14010 23192
L13991 23211
L13953 23230
L13801 23230
" />
<path d="M14372 23154
L14372 23420
" />
<path d="M14277 23001
L14182 23287
L14429 23287
" />
<path d="M24451 19770
L24451 19370
L24603 19370
L24641 19390
L24660 19409
L24679 19447
L24679 19504
L24660 19542
L24641 19561
L24603 19580
L24451 19580
" />
<path d="M24813 19370
L25079 19370
L24908 19770
" />
<path d="M24260 27270
L24260 26870
L24413 26870
L24451 26890
L24470 26909
L24489 26947
L24489 27004
L24470 27042
L24451 27061
L24413 27080
L24260 27080
" />
<path d="M24870 27270
L24641 27270
" />
<path d="M24755 27270
L24755 26870
L24717 26928
L24679 26966
L24641 26985
" />
<path d="M25251 27270
L25022 27270
" />
<path d="M25136 27270
L25136 26870
L25098 26928
L25060 26966
L25022 26985
" />
<path d="M27051 36920
L27051 36520
L27203 36520
L27241 36540
L27260 36559
L27279 36597
L27279 36654
L27260 36692
L27241 36711
L27203 36730
L27051 36730
" />
<path d="M27470 36920
L27546 36920
L27584 36901
L27603 36882
L27641 36825
L27660 36749
L27660 36597
L27641 36559
L27622 36540
L27584 36520
L27508 36520
L27470 36540
L27451 36559
L27432 36597
L27432 36692
L27451 36730
L27470 36749
L27508 36768
L27584 36768
L27622 36749
L27641 36730
L27660 36692
" />
<path d="M12051 36920
L12051 36520
L12203 36520
L12241 36540
L12260 36559
L12279 36597
L12279 36654
L12260 36692
L12241 36711
L12203 36730
L12051 36730
" />
<path d="M12508 36692
L12470 36673
L12451 36654
L12432 36616
L12432 36597
L12451 36559
L12470 36540
L12508 36520
L12584 36520
L12622 36540
L12641 36559
L12660 36597
L12660 36616
L12641 36654
L12622 36673
L12584 36692
L12508 36692
L12470 36711
L12451 36730
L12432 36768
L12432 36844
L12451 36882
L12470 36901
L12508 36920
L12584 36920
L12622 36901
L12641 36882
L12660 36844
L12660 36768
L12641 36730
L12622 36711
L12584 36692
" />
<path d="M18051 12920
L18051 12520
L18203 12520
L18241 12540
L18260 12559
L18279 12597
L18279 12654
L18260 12692
L18241 12711
L18203 12730
L18051 12730
" />
<path d="M18413 12520
L18660 12520
L18527 12673
L18584 12673
L18622 12692
L18641 12711
L18660 12749
L18660 12844
L18641 12882
L18622 12901
L18584 12920
L18470 12920
L18432 12901
L18413 12882
" />
<path d="M3051 12920
L3051 12520
L3203 12520
L3241 12540
L3260 12559
L3279 12597
L3279 12654
L3260 12692
L3241 12711
L3203 12730
L3051 12730
" />
<path d="M3432 12559
L3451 12540
L3489 12520
L3584 12520
L3622 12540
L3641 12559
L3660 12597
L3660 12635
L3641 12692
L3413 12920
L3660 12920
" />
<path d="M13001 15420
L13001 15020
L13153 15020
L13191 15040
L13210 15059
L13229 15097
L13229 15154
L13210 15192
L13191 15211
L13153 15230
L13001 15230
" />
<path d="M13610 15420
L13382 15420
" />
<path d="M13496 15420
L13496 15020
L13458 15078
L13420 15116
L13382 15135
" />
<path d="M16860 34420
L16860 34020
L17013 34020
L17051 34040
L17070 34059
L17089 34097
L17089 34154
L17070 34192
L17051 34211
L17013 34230
L16860 34230
" />
<path d="M17470 34420
L17241 34420
" />
<path d="M17355 34420
L17355 34020
L17317 34078
L17279 34116
L17241 34135
" />
<path d="M17717 34020
L17755 34020
L17793 34040
L17813 34059
L17832 34097
L17851 34173
L17851 34268
L17832 34344
L17813 34382
L17793 34401
L17755 34420
L17717 34420
L17679 34401
L17660 34382
L17641 34344
L17622 34268
L17622 34173
L17641 34097
L17660 34059
L17679 34040
L17717 34020
" />
</g>
<g style="fill:#000000; fill-opacity:0.0; 
stroke:#000000; stroke-width:98.4252; stroke-opacity:1; 
stroke-linecap:round; stroke-linejoin:round;">
<path d="M6646 23440
L6446 23240
" />
<path d="M6646 23940
L6646 23440
" />
<path d="M6646 23440
L7146 23440
" />
<path d="M7146 25940
L6646 25940
" />
<path d="M6646 25940
L6646 25440
" />
<path d="M12046 25540
L12046 26040
" />
<path d="M12046 26040
L11546 26040
" />
<path d="M11546 23540
L12046 23540
" />
<path d="M12046 23540
L12046 24040
" />
<path d="M18646 23440
L18446 23240
" />
<path d="M18646 23940
L18646 23440
" />
<path d="M18646 23440
L19146 23440
" />
<path d="M19146 25940
L18646 25940
" />
<path d="M18646 25940
L18646 25440
" />
<path d="M24046 25540
L24046 26040
" />
<path d="M24046 26040
L23546 26040
" />
<path d="M23546 23540
L24046 23540
" />
<path d="M24046 23540
L24046 24040
" />
<path d="M15149 23657
L15543 23657
" />
<path d="M15149 25822
L15543 25822
" />
<path d="M13653 23637
L13495 23480
" />
<path d="M13673 23952
L13673 23657
" />
<path d="M13673 23657
L13968 23657
" />
<path d="M13968 25822
L13673 25822
" />
<path d="M13673 25822
L13673 25527
" />
<path d="M17019 25527
L17019 25822
" />
<path d="M17019 25822
L16724 25822
" />
<path d="M17019 23657
L17019 23952
" />
<path d="M16724 23657
L17019 23657
" />
<path d="M24196 19990
L24096 19890
" />
<path d="M24196 19990
L24396 19990
" />
<path d="M24196 19990
L24196 20190
" />
<path d="M24196 21990
L24196 21790
" />
<path d="M24196 21990
L24396 21990
" />
<path d="M26496 21790
L26496 21990
" />
<path d="M26496 21990
L26296 21990
" />
<path d="M26496 20190
L26496 19990
" />
<path d="M26496 19990
L26296 19990
" />
<path d="M24196 27490
L24096 27390
" />
<path d="M24196 27490
L24396 27490
" />
<path d="M24196 27490
L24196 27690
" />
<path d="M24196 29490
L24196 29290
" />
<path d="M24196 29490
L24396 29490
" />
<path d="M26496 29290
L26496 29490
" />
<path d="M26496 29490
L26296 29490
" />
<path d="M26496 27690
L26496 27490
" />
<path d="M26496 27490
L26296 27490
" />
<path d="M19204 34755
L19204 39775
" />
<path d="M26488 36724
L25405 36724
" />
<path d="M26488 34755
L26488 39775
" />
<path d="M4204 34755
L4204 39775
" />
<path d="M11488 36724
L10405 36724
" />
<path d="M11488 34755
L11488 39775
" />
<path d="M26488 14724
L26488 9704
" />
<path d="M19204 12755
L20287 12755
" />
<path d="M19204 14724
L19204 9704
" />
<path d="M11488 14724
L11488 9704
" />
<path d="M4204 12755
L5287 12755
" />
<path d="M4204 14724
L4204 9704
" />
<path d="M17096 13740
L17096 14740
" />
<path d="M17096 14740
L16596 14740
" />
<path d="M13996 14740
L13996 15240
" />
<path d="M13496 14740
L13496 13740
" />
<path d="M13496 14740
L13996 14740
" />
<path d="M13496 9740
L13496 10740
" />
<path d="M13496 9740
L14496 9740
" />
<path d="M16096 9740
L17096 9740
" />
<path d="M17096 9740
L17096 10740
" />
<path d="M13546 35740
L13546 34740
" />
<path d="M13546 34740
L14046 34740
" />
<path d="M16646 34740
L16646 34240
" />
<path d="M17146 34740
L17146 35740
" />
<path d="M17146 34740
L16646 34740
" />
<path d="M17146 39740
L17146 38740
" />
<path d="M17146 39740
L16146 39740
" />
<path d="M14546 39740
L13546 39740
" />
<path d="M13546 39740
L13546 38740
" />
</g>
<g style="fill:#000000; fill-opacity:0.0; 
stroke:#000000; stroke-width:39.3701; stroke-opacity:1; 
stroke-linecap:round; stroke-linejoin:round;">
</g>
<g style="fill:#000000; fill-opacity:1.0; 
stroke:#000000; stroke-width:39.3701; stroke-opacity:1; 
stroke-linecap:round; stroke-linejoin:round;">
<circle cx="2846.35" cy="17240" r="670.866" /> 
<circle cx="2846.35" cy="32240" r="670.866" /> 
<circle cx="27846.4" cy="17240" r="670.866" /> 
<circle cx="27846.4" cy="32240" r="670.866" /> 
<polyline style="fill-rule:evenodd;"
points="6941,24645
6941,23834
7751,23834
7751,24645
6941,24645
" /> 
<circle cx="7346.35" cy="25240" r="405.118" /> 
<circle cx="8346.35" cy="24240" r="405.118" /> 
<circle cx="8346.35" cy="25240" r="405.118" /> 
<circle cx="9346.35" cy="24240" r="405.118" /> 
<circle cx="9346.35" cy="25240" r="405.118" /> 
<circle cx="10346.4" cy="24240" r="405.118" /> 
<circle cx="10346.4" cy="25240" r="405.118" /> 
<circle cx="11346.4" cy="24240" r="405.118" /> 
<circle cx="11346.4" cy="25240" r="405.118" /> 
<polyline style="fill-rule:evenodd;"
points="18941,24645
18941,23834
19751,23834
19751,24645
18941,24645
" /> 
<circle cx="19346.4" cy="25240" r="405.118" /> 
<circle cx="20346.4" cy="24240" r="405.118" /> 
<circle cx="20346.4" cy="25240" r="405.118" /> 
<circle cx="21346.4" cy="24240" r="405.118" /> 
<circle cx="21346.4" cy="25240" r="405.118" /> 
<circle cx="22346.4" cy="24240" r="405.118" /> 
<circle cx="22346.4" cy="25240" r="405.118" /> 
<circle cx="23346.4" cy="24240" r="405.118" /> 
<circle cx="23346.4" cy="25240" r="405.118" /> 
<polyline style="fill-rule:evenodd;"
points="13941,24645
13941,23834
14751,23834
14751,24645
13941,24645
" /> 
<circle cx="15346.4" cy="24240" r="405.118" /> 
<circle cx="14346.4" cy="25240" r="405.118" /> 
<circle cx="15346.4" cy="25240" r="405.118" /> 
<circle cx="16346.4" cy="24240" r="405.118" /> 
<circle cx="16346.4" cy="25240" r="405.118" /> 
<polyline style="fill-rule:evenodd;"
points="24441,20895
24441,20084
25251,20084
25251,20895
24441,20895
" /> 
<circle cx="24846.4" cy="21490" r="405.118" /> 
<circle cx="25846.4" cy="20490" r="405.118" /> 
<circle cx="25846.4" cy="21490" r="405.118" /> 
<polyline style="fill-rule:evenodd;"
points="24441,28395
24441,27584
25251,27584
25251,28395
24441,28395
" /> 
<circle cx="24846.4" cy="28990" r="405.118" /> 
<circle cx="25846.4" cy="27990" r="405.118" /> 
<circle cx="25846.4" cy="28990" r="405.118" /> 
<circle cx="25602.3" cy="36133.7" r="355.906" /> 
<circle cx="25602.3" cy="35346.3" r="355.906" /> 
<circle cx="24814.9" cy="36133.7" r="355.906" /> 
<circle cx="24814.9" cy="35346.3" r="355.906" /> 
<circle cx="24027.5" cy="36133.7" r="355.906" /> 
<circle cx="24027.5" cy="35346.3" r="355.906" /> 
<circle cx="23240.1" cy="36133.7" r="355.906" /> 
<circle cx="23240.1" cy="35346.3" r="355.906" /> 
<circle cx="22452.7" cy="36133.7" r="355.906" /> 
<circle cx="22452.7" cy="35346.3" r="355.906" /> 
<circle cx="21665.2" cy="36133.7" r="355.906" /> 
<circle cx="21665.2" cy="35346.3" r="355.906" /> 
<circle cx="20877.8" cy="36133.7" r="355.906" /> 
<circle cx="20877.8" cy="35346.3" r="355.906" /> 
<circle cx="20090.4" cy="36133.7" r="355.906" /> 
<circle cx="20090.4" cy="35346.3" r="355.906" /> 
<circle cx="10602.3" cy="36133.7" r="355.906" /> 
<circle cx="10602.3" cy="35346.3" r="355.906" /> 
<circle cx="9814.86" cy="36133.7" r="355.906" /> 
<circle cx="9814.86" cy="35346.3" r="355.906" /> 
<circle cx="9027.45" cy="36133.7" r="355.906" /> 
<circle cx="9027.45" cy="35346.3" r="355.906" /> 
<circle cx="8240.05" cy="36133.7" r="355.906" /> 
<circle cx="8240.05" cy="35346.3" r="355.906" /> 
<circle cx="7452.65" cy="36133.7" r="355.906" /> 
<circle cx="7452.65" cy="35346.3" r="355.906" /> 
<circle cx="6665.25" cy="36133.7" r="355.906" /> 
<circle cx="6665.25" cy="35346.3" r="355.906" /> 
<circle cx="5877.85" cy="36133.7" r="355.906" /> 
<circle cx="5877.85" cy="35346.3" r="355.906" /> 
<circle cx="5090.45" cy="36133.7" r="355.906" /> 
<circle cx="5090.45" cy="35346.3" r="355.906" /> 
<circle cx="20090.4" cy="13346.3" r="355.906" /> 
<circle cx="20090.4" cy="14133.7" r="355.906" /> 
<circle cx="20877.8" cy="13346.3" r="355.906" /> 
<circle cx="20877.8" cy="14133.7" r="355.906" /> 
<circle cx="21665.2" cy="13346.3" r="355.906" /> 
<circle cx="21665.2" cy="14133.7" r="355.906" /> 
<circle cx="22452.7" cy="13346.3" r="355.906" /> 
<circle cx="22452.7" cy="14133.7" r="355.906" /> 
<circle cx="23240.1" cy="13346.3" r="355.906" /> 
<circle cx="23240.1" cy="14133.7" r="355.906" /> 
<circle cx="24027.5" cy="13346.3" r="355.906" /> 
<circle cx="24027.5" cy="14133.7" r="355.906" /> 
<circle cx="24814.9" cy="13346.3" r="355.906" /> 
<circle cx="24814.9" cy="14133.7" r="355.906" /> 
<circle cx="25602.3" cy="13346.3" r="355.906" /> 
<circle cx="25602.3" cy="14133.7" r="355.906" /> 
<circle cx="5090.45" cy="13346.3" r="355.906" /> 
<circle cx="5090.45" cy="14133.7" r="355.906" /> 
<circle cx="5877.85" cy="13346.3" r="355.906" /> 
<circle cx="5877.85" cy="14133.7" r="355.906" /> 
<circle cx="6665.25" cy="13346.3" r="355.906" /> 
<circle cx="6665.25" cy="14133.7" r="355.906" /> 
<circle cx="7452.65" cy="13346.3" r="355.906" /> 
<circle cx="7452.65" cy="14133.7" r="355.906" /> 
<circle cx="8240.05" cy="13346.3" r="355.906" /> 
<circle cx="8240.05" cy="14133.7" r="355.906" /> 
<circle cx="9027.45" cy="13346.3" r="355.906" /> 
<circle cx="9027.45" cy="14133.7" r="355.906" /> 
<circle cx="9814.86" cy="13346.3" r="355.906" /> 
<circle cx="9814.86" cy="14133.7" r="355.906" /> 
<circle cx="10602.3" cy="13346.3" r="355.906" /> 
<circle cx="10602.3" cy="14133.7" r="355.906" /> 
<circle cx="14796.4" cy="14740" r="414.961" /> 
<circle cx="15796.4" cy="14740" r="414.961" /> 
<circle cx="16296.4" cy="11340" r="750.315" /> 
<circle cx="14296.4" cy="11340" r="750.315" /> 
<circle cx="15846.4" cy="34740" r="414.961" /> 
<circle cx="14846.4" cy="34740" r="414.961" /> 
<circle cx="14346.4" cy="38140" r="750.315" /> 
<circle cx="16346.4" cy="38140" r="750.315" /> 
</g> 
</svg>
