<?xml version="1.0" encoding="UTF-8" standalone="no"?>
<svg
   xmlns:dc="http://purl.org/dc/elements/1.1/"
   xmlns:cc="http://creativecommons.org/ns#"
   xmlns:rdf="http://www.w3.org/1999/02/22-rdf-syntax-ns#"
   xmlns:svg="http://www.w3.org/2000/svg"
   xmlns="http://www.w3.org/2000/svg"
   xmlns:sodipodi="http://sodipodi.sourceforge.net/DTD/sodipodi-0.dtd"
   xmlns:inkscape="http://www.inkscape.org/namespaces/inkscape"
   version="1.1"
   width="765"
   height="990"
   viewBox="0 0 85000 109999.79"
   id="svg32063"
   inkscape:version="0.48.3.1 r9886"
   sodipodi:docname="board_layout--full.svg">
  <metadata
     id="metadata32841">
    <rdf:RDF>
      <cc:Work
         rdf:about="">
        <dc:format>image/svg+xml</dc:format>
        <dc:type
           rdf:resource="http://purl.org/dc/dcmitype/StillImage" />
        <dc:title>SVG Picture created as board_layout--brd.svg date 2014/03/17 16:01:37 </dc:title>
      </cc:Work>
    </rdf:RDF>
  </metadata>
  <defs
     id="defs32839" />
  <sodipodi:namedview
     pagecolor="#ffffff"
     bordercolor="#666666"
     borderopacity="1"
     objecttolerance="10"
     gridtolerance="10"
     guidetolerance="10"
     inkscape:pageopacity="0"
     inkscape:pageshadow="2"
     inkscape:window-width="1422"
     inkscape:window-height="878"
     id="namedview32837"
     showgrid="false"
     inkscape:zoom="0.35132149"
     inkscape:cx="-243.98679"
     inkscape:cy="101.41957"
     inkscape:window-x="0"
     inkscape:window-y="27"
     inkscape:window-maximized="0"
     inkscape:current-layer="svg32063" />
  <title
     id="title32065">SVG Picture created as board_layout--brd.svg date 2014/03/17 16:01:37 </title>
  <desc
     id="desc32067">Picture generated by PCBNEW </desc>
  <g
     style="fill:#000000;fill-opacity:1;stroke:#000000;stroke-linecap:round;stroke-linejoin:round;stroke-opacity:1"
     id="g32069"
     transform="translate(0,70079.922)" />
  <g
     style="fill:#000000;fill-opacity:0;stroke:#000000;stroke-width:39.37009811;stroke-linecap:round;stroke-linejoin:round;stroke-opacity:1"
     id="g32613"
     transform="translate(0,70079.922)" />
  <g
     id="g32843"
     transform="matrix(2,0,0,2,5291.3333,-126475.04)">
    <g
       transform="translate(0,70079.922)"
       id="g32071"
       style="fill:#000000;fill-opacity:0;stroke:#000000;stroke-width:120;stroke-linecap:round;stroke-linejoin:round;stroke-opacity:1">
      <path
         inkscape:connector-curvature="0"
         id="path32073"
         d="m 13946,378 28,-38 58,-39 142,0 58,39 28,38 29,76 0,76 -29,114 -343,457 372,0" />
      <path
         inkscape:connector-curvature="0"
         id="path32075"
         d="m 14546,1025 28,38 -28,38 -29,-38 29,-38 0,76" />
      <path
         inkscape:connector-curvature="0"
         id="path32077"
         d="m 14774,301 400,0 -257,800" />
      <path
         inkscape:connector-curvature="0"
         id="path32079"
         d="m 15689,301 -286,0 -29,381 29,-38 57,-38 143,0 57,38 29,38 28,77 0,190 -28,76 -29,38 -57,38 -143,0 -57,-38 -29,-38" />
      <path
         inkscape:connector-curvature="0"
         id="path32081"
         d="m 16089,301 57,0 57,39 29,38 28,76 29,152 0,191 -29,152 -28,76 -29,38 -57,38 -57,0 -57,-38 -29,-38 -29,-76 -28,-152 0,-191 28,-152 29,-76 29,-38 57,-39" />
      <path
         inkscape:connector-curvature="0"
         id="path32083"
         d="m 16517,301 0,153" />
      <path
         inkscape:connector-curvature="0"
         id="path32085"
         d="m 16746,301 0,153" />
      <path
         inkscape:connector-curvature="0"
         id="path32087"
         d="m 1596,1740 27500,0" />
      <path
         inkscape:connector-curvature="0"
         id="path32089"
         d="m 1596,9740 0,-9280" />
      <path
         inkscape:connector-curvature="0"
         id="path32091"
         d="m 29096,9740 0,-9280" />
      <path
         inkscape:connector-curvature="0"
         id="path32093"
         d="m 29096,1740 -444,230" />
      <path
         inkscape:connector-curvature="0"
         id="path32095"
         d="m 29096,1740 -444,-231" />
      <path
         inkscape:connector-curvature="0"
         id="path32097"
         d="m 1596,1740 443,230" />
      <path
         inkscape:connector-curvature="0"
         id="path32099"
         d="m 1596,1740 443,-231" />
      <path
         inkscape:connector-curvature="0"
         id="path32101"
         d="m 8039,3101 -343,0" />
      <path
         inkscape:connector-curvature="0"
         id="path32103"
         d="m 7867,3101 0,-800 -57,115 -57,76 -57,38" />
      <path
         inkscape:connector-curvature="0"
         id="path32105"
         d="m 8296,3025 28,38 -28,38 -29,-38 29,-38 0,76" />
      <path
         inkscape:connector-curvature="0"
         id="path32107"
         d="m 8553,2378 29,-38 57,-39 143,0 57,39 28,38 29,76 0,76 -29,114 -343,457 372,0" />
      <path
         inkscape:connector-curvature="0"
         id="path32109"
         d="m 9439,2301 -286,0 -29,381 29,-38 57,-38 143,0 57,38 29,38 28,77 0,190 -28,76 -29,38 -57,38 -143,0 -57,-38 -29,-38" />
      <path
         inkscape:connector-curvature="0"
         id="path32111"
         d="m 9839,2301 57,0 57,39 29,38 28,76 29,152 0,191 -29,152 -28,76 -29,38 -57,38 -57,0 -57,-38 -29,-38 -29,-76 -28,-152 0,-191 28,-152 29,-76 29,-38 57,-39" />
      <path
         inkscape:connector-curvature="0"
         id="path32113"
         d="m 10267,2301 0,153" />
      <path
         inkscape:connector-curvature="0"
         id="path32115"
         d="m 10496,2301 0,153" />
      <path
         inkscape:connector-curvature="0"
         id="path32117"
         d="m 2846,3740 12500,0" />
      <path
         inkscape:connector-curvature="0"
         id="path32119"
         d="m 2846,32240 0,-29780" />
      <path
         inkscape:connector-curvature="0"
         id="path32121"
         d="m 15346,32240 0,-29780" />
      <path
         inkscape:connector-curvature="0"
         id="path32123"
         d="m 15346,3740 -444,230" />
      <path
         inkscape:connector-curvature="0"
         id="path32125"
         d="m 15346,3740 -444,-231" />
      <path
         inkscape:connector-curvature="0"
         id="path32127"
         d="m 2846,3740 443,230" />
      <path
         inkscape:connector-curvature="0"
         id="path32129"
         d="m 2846,3740 443,-231" />
      <path
         inkscape:connector-curvature="0"
         id="path32131"
         d="m 20539,3101 -343,0" />
      <path
         inkscape:connector-curvature="0"
         id="path32133"
         d="m 20367,3101 0,-800 -57,115 -57,76 -57,38" />
      <path
         inkscape:connector-curvature="0"
         id="path32135"
         d="m 20796,3025 28,38 -28,38 -29,-38 29,-38 0,76" />
      <path
         inkscape:connector-curvature="0"
         id="path32137"
         d="m 21053,2378 29,-38 57,-39 143,0 57,39 28,38 29,76 0,76 -29,114 -343,457 372,0" />
      <path
         inkscape:connector-curvature="0"
         id="path32139"
         d="m 21939,2301 -286,0 -29,381 29,-38 57,-38 143,0 57,38 29,38 28,77 0,190 -28,76 -29,38 -57,38 -143,0 -57,-38 -29,-38" />
      <path
         inkscape:connector-curvature="0"
         id="path32141"
         d="m 22339,2301 57,0 57,39 29,38 28,76 29,152 0,191 -29,152 -28,76 -29,38 -57,38 -57,0 -57,-38 -29,-38 -29,-76 -28,-152 0,-191 28,-152 29,-76 29,-38 57,-39" />
      <path
         inkscape:connector-curvature="0"
         id="path32143"
         d="m 22767,2301 0,153" />
      <path
         inkscape:connector-curvature="0"
         id="path32145"
         d="m 22996,2301 0,153" />
      <path
         inkscape:connector-curvature="0"
         id="path32147"
         d="m 15346,3740 12500,0" />
      <path
         inkscape:connector-curvature="0"
         id="path32149"
         d="m 15346,32240 0,-29780" />
      <path
         inkscape:connector-curvature="0"
         id="path32151"
         d="m 27846,32240 0,-29780" />
      <path
         inkscape:connector-curvature="0"
         id="path32153"
         d="m 27846,3740 -444,230" />
      <path
         inkscape:connector-curvature="0"
         id="path32155"
         d="m 27846,3740 -444,-231" />
      <path
         inkscape:connector-curvature="0"
         id="path32157"
         d="m 15346,3740 443,230" />
      <path
         inkscape:connector-curvature="0"
         id="path32159"
         d="m 15346,3740 443,-231" />
      <path
         inkscape:connector-curvature="0"
         id="path32161"
         d="m 19289,5101 -343,0" />
      <path
         inkscape:connector-curvature="0"
         id="path32163"
         d="m 19117,5101 0,-800 -57,115 -57,76 -57,38" />
      <path
         inkscape:connector-curvature="0"
         id="path32165"
         d="m 19546,5025 28,38 -28,38 -29,-38 29,-38 0,76" />
      <path
         inkscape:connector-curvature="0"
         id="path32167"
         d="m 19946,4301 57,0 57,39 29,38 28,76 29,152 0,191 -29,152 -28,76 -29,38 -57,38 -57,0 -57,-38 -29,-38 -28,-76 -29,-152 0,-191 29,-152 28,-76 29,-38 57,-39" />
      <path
         inkscape:connector-curvature="0"
         id="path32169"
         d="m 20517,4301 57,0 58,39 28,38 29,76 28,152 0,191 -28,152 -29,76 -28,38 -58,38 -57,0 -57,-38 -28,-38 -29,-76 -29,-152 0,-191 29,-152 29,-76 28,-38 57,-39" />
      <path
         inkscape:connector-curvature="0"
         id="path32171"
         d="m 21089,4301 57,0 57,39 29,38 28,76 29,152 0,191 -29,152 -28,76 -29,38 -57,38 -57,0 -57,-38 -29,-38 -29,-76 -28,-152 0,-191 28,-152 29,-76 29,-38 57,-39" />
      <path
         inkscape:connector-curvature="0"
         id="path32173"
         d="m 21517,4301 0,153" />
      <path
         inkscape:connector-curvature="0"
         id="path32175"
         d="m 21746,4301 0,153" />
      <path
         inkscape:connector-curvature="0"
         id="path32177"
         d="m 15346,5740 10000,0" />
      <path
         inkscape:connector-curvature="0"
         id="path32179"
         d="m 15346,28490 0,-24030" />
      <path
         inkscape:connector-curvature="0"
         id="path32181"
         d="m 25346,28490 0,-24030" />
      <path
         inkscape:connector-curvature="0"
         id="path32183"
         d="m 25346,5740 -444,230" />
      <path
         inkscape:connector-curvature="0"
         id="path32185"
         d="m 25346,5740 -444,-231" />
      <path
         inkscape:connector-curvature="0"
         id="path32187"
         d="m 15346,5740 443,230" />
      <path
         inkscape:connector-curvature="0"
         id="path32189"
         d="m 15346,5740 443,-231" />
      <path
         inkscape:connector-curvature="0"
         id="path32191"
         d="m 11089,6301 57,0 57,39 29,38 28,76 29,152 0,191 -29,152 -28,76 -29,38 -57,38 -57,0 -57,-38 -29,-38 -29,-76 -28,-152 0,-191 28,-152 29,-76 29,-38 57,-39" />
      <path
         inkscape:connector-curvature="0"
         id="path32193"
         d="m 11546,7025 28,38 -28,38 -29,-38 29,-38 0,76" />
      <path
         inkscape:connector-curvature="0"
         id="path32195"
         d="m 12089,6301 -115,0 -57,39 -28,38 -57,114 -29,152 0,305 29,76 28,38 57,38 115,0 57,-38 28,-38 29,-76 0,-190 -29,-77 -28,-38 -57,-38 -115,0 -57,38 -28,38 -29,77" />
      <path
         inkscape:connector-curvature="0"
         id="path32197"
         d="m 12517,6301 57,0 58,39 28,38 29,76 28,152 0,191 -28,152 -29,76 -28,38 -58,38 -57,0 -57,-38 -28,-38 -29,-76 -29,-152 0,-191 29,-152 29,-76 28,-38 57,-39" />
      <path
         inkscape:connector-curvature="0"
         id="path32199"
         d="m 13089,6301 57,0 57,39 29,38 28,76 29,152 0,191 -29,152 -28,76 -29,38 -57,38 -57,0 -57,-38 -29,-38 -29,-76 -28,-152 0,-191 28,-152 29,-76 29,-38 57,-39" />
      <path
         inkscape:connector-curvature="0"
         id="path32201"
         d="m 13517,6301 0,153" />
      <path
         inkscape:connector-curvature="0"
         id="path32203"
         d="m 13746,6301 0,153" />
      <path
         inkscape:connector-curvature="0"
         id="path32205"
         d="m 9346,7740 6000,0" />
      <path
         inkscape:connector-curvature="0"
         id="path32207"
         d="m 9346,24740 0,-18280" />
      <path
         inkscape:connector-curvature="0"
         id="path32209"
         d="m 15346,24740 0,-18280" />
      <path
         inkscape:connector-curvature="0"
         id="path32211"
         d="m 15346,7740 -444,230" />
      <path
         inkscape:connector-curvature="0"
         id="path32213"
         d="m 15346,7740 -444,-231" />
      <path
         inkscape:connector-curvature="0"
         id="path32215"
         d="m 9346,7740 443,230" />
      <path
         inkscape:connector-curvature="0"
         id="path32217"
         d="m 9346,7740 443,-231" />
      <path
         inkscape:connector-curvature="0"
         id="path32219"
         d="m 17089,6301 57,0 57,39 29,38 28,76 29,152 0,191 -29,152 -28,76 -29,38 -57,38 -57,0 -57,-38 -29,-38 -29,-76 -28,-152 0,-191 28,-152 29,-76 29,-38 57,-39" />
      <path
         inkscape:connector-curvature="0"
         id="path32221"
         d="m 17546,7025 28,38 -28,38 -29,-38 29,-38 0,76" />
      <path
         inkscape:connector-curvature="0"
         id="path32223"
         d="m 18089,6301 -115,0 -57,39 -28,38 -57,114 -29,152 0,305 29,76 28,38 57,38 115,0 57,-38 28,-38 29,-76 0,-190 -29,-77 -28,-38 -57,-38 -115,0 -57,38 -28,38 -29,77" />
      <path
         inkscape:connector-curvature="0"
         id="path32225"
         d="m 18517,6301 57,0 58,39 28,38 29,76 28,152 0,191 -28,152 -29,76 -28,38 -58,38 -57,0 -57,-38 -28,-38 -29,-76 -29,-152 0,-191 29,-152 29,-76 28,-38 57,-39" />
      <path
         inkscape:connector-curvature="0"
         id="path32227"
         d="m 19089,6301 57,0 57,39 29,38 28,76 29,152 0,191 -29,152 -28,76 -29,38 -57,38 -57,0 -57,-38 -29,-38 -29,-76 -28,-152 0,-191 28,-152 29,-76 29,-38 57,-39" />
      <path
         inkscape:connector-curvature="0"
         id="path32229"
         d="m 19517,6301 0,153" />
      <path
         inkscape:connector-curvature="0"
         id="path32231"
         d="m 19746,6301 0,153" />
      <path
         inkscape:connector-curvature="0"
         id="path32233"
         d="m 15346,7740 6000,0" />
      <path
         inkscape:connector-curvature="0"
         id="path32235"
         d="m 15346,24740 0,-18280" />
      <path
         inkscape:connector-curvature="0"
         id="path32237"
         d="m 21346,24740 0,-18280" />
      <path
         inkscape:connector-curvature="0"
         id="path32239"
         d="m 21346,7740 -444,230" />
      <path
         inkscape:connector-curvature="0"
         id="path32241"
         d="m 21346,7740 -444,-231" />
      <path
         inkscape:connector-curvature="0"
         id="path32243"
         d="m 15346,7740 443,230" />
      <path
         inkscape:connector-curvature="0"
         id="path32245"
         d="m 15346,7740 443,-231" />
      <path
         inkscape:connector-curvature="0"
         id="path32247"
         d="m 36408,26168 0,-371 305,200 0,-86 38,-57 38,-29 76,-28 190,0 77,28 38,29 38,57 0,171 -38,58 -38,28" />
      <path
         inkscape:connector-curvature="0"
         id="path32249"
         d="m 37132,25540 38,-29 38,29 -38,28 -38,-28 76,0" />
      <path
         inkscape:connector-curvature="0"
         id="path32251"
         d="m 36408,25140 0,-58 38,-57 38,-28 76,-29 153,-28 190,0 152,28 77,29 38,28 38,57 0,58 -38,57 -38,28 -77,29 -152,28 -190,0 -153,-28 -76,-29 -38,-28 -38,-57" />
      <path
         inkscape:connector-curvature="0"
         id="path32253"
         d="m 36408,24568 0,-57 38,-57 38,-29 76,-28 153,-29 190,0 152,29 77,28 38,29 38,57 0,57 -38,57 -38,29 -77,28 -152,29 -190,0 -153,-29 -76,-28 -38,-29 -38,-57" />
      <path
         inkscape:connector-curvature="0"
         id="path32255"
         d="m 36408,23997 0,-58 38,-57 38,-28 76,-29 153,-28 190,0 152,28 77,29 38,28 38,57 0,58 -38,57 -38,28 -77,29 -152,28 -190,0 -153,-28 -76,-29 -38,-28 -38,-57" />
      <path
         inkscape:connector-curvature="0"
         id="path32257"
         d="m 36408,23568 152,0" />
      <path
         inkscape:connector-curvature="0"
         id="path32259"
         d="m 36408,23339 152,0" />
      <path
         inkscape:connector-curvature="0"
         id="path32261"
         d="m 35596,39740 0,-30000" />
      <path
         inkscape:connector-curvature="0"
         id="path32263"
         d="m 29096,39740 7780,0" />
      <path
         inkscape:connector-curvature="0"
         id="path32265"
         d="m 29096,9740 7780,0" />
      <path
         inkscape:connector-curvature="0"
         id="path32267"
         d="m 35596,9740 231,443" />
      <path
         inkscape:connector-curvature="0"
         id="path32269"
         d="m 35596,9740 -231,443" />
      <path
         inkscape:connector-curvature="0"
         id="path32271"
         d="m 35596,39740 231,-444" />
      <path
         inkscape:connector-curvature="0"
         id="path32273"
         d="m 35596,39740 -231,-444" />
      <path
         inkscape:connector-curvature="0"
         id="path32275"
         d="m 34158,22247 0,-57 38,-58 38,-28 76,-29 153,-28 190,0 152,28 77,29 38,28 38,58 0,57 -38,57 -38,28 -77,29 -152,29 -190,0 -153,-29 -76,-29 -38,-28 -38,-57" />
      <path
         inkscape:connector-curvature="0"
         id="path32277"
         d="m 34882,21790 38,-29 38,29 -38,28 -38,-28 76,0" />
      <path
         inkscape:connector-curvature="0"
         id="path32279"
         d="m 34158,21561 0,-400 800,257" />
      <path
         inkscape:connector-curvature="0"
         id="path32281"
         d="m 34158,20647 0,285 381,29 -38,-29 -38,-57 0,-143 38,-57 38,-28 76,-29 190,0 77,29 38,28 38,57 0,143 -38,57 -38,29" />
      <path
         inkscape:connector-curvature="0"
         id="path32283"
         d="m 34158,20247 0,-58 38,-57 38,-28 76,-29 153,-28 190,0 152,28 77,29 38,28 38,57 0,58 -38,57 -38,28 -77,29 -152,28 -190,0 -153,-28 -76,-29 -38,-28 -38,-57" />
      <path
         inkscape:connector-curvature="0"
         id="path32285"
         d="m 34158,19818 152,0" />
      <path
         inkscape:connector-curvature="0"
         id="path32287"
         d="m 34158,19589 152,0" />
      <path
         inkscape:connector-curvature="0"
         id="path32289"
         d="m 33346,24740 0,-7500" />
      <path
         inkscape:connector-curvature="0"
         id="path32291"
         d="m 27846,24740 6780,0" />
      <path
         inkscape:connector-curvature="0"
         id="path32293"
         d="m 27846,17240 6780,0" />
      <path
         inkscape:connector-curvature="0"
         id="path32295"
         d="m 33346,17240 231,443" />
      <path
         inkscape:connector-curvature="0"
         id="path32297"
         d="m 33346,17240 -231,443" />
      <path
         inkscape:connector-curvature="0"
         id="path32299"
         d="m 33346,24740 231,-444" />
      <path
         inkscape:connector-curvature="0"
         id="path32301"
         d="m 33346,24740 -231,-444" />
      <path
         inkscape:connector-curvature="0"
         id="path32303"
         d="m 34158,29747 0,-57 38,-58 38,-28 76,-29 153,-28 190,0 152,28 77,29 38,28 38,58 0,57 -38,57 -38,28 -77,29 -152,29 -190,0 -153,-29 -76,-29 -38,-28 -38,-57" />
      <path
         inkscape:connector-curvature="0"
         id="path32305"
         d="m 34882,29290 38,-29 38,29 -38,28 -38,-28 76,0" />
      <path
         inkscape:connector-curvature="0"
         id="path32307"
         d="m 34158,29061 0,-400 800,257" />
      <path
         inkscape:connector-curvature="0"
         id="path32309"
         d="m 34158,28147 0,285 381,29 -38,-29 -38,-57 0,-143 38,-57 38,-28 76,-29 190,0 77,29 38,28 38,57 0,143 -38,57 -38,29" />
      <path
         inkscape:connector-curvature="0"
         id="path32311"
         d="m 34158,27747 0,-58 38,-57 38,-28 76,-29 153,-28 190,0 152,28 77,29 38,28 38,57 0,58 -38,57 -38,28 -77,29 -152,28 -190,0 -153,-28 -76,-29 -38,-28 -38,-57" />
      <path
         inkscape:connector-curvature="0"
         id="path32313"
         d="m 34158,27318 152,0" />
      <path
         inkscape:connector-curvature="0"
         id="path32315"
         d="m 34158,27089 152,0" />
      <path
         inkscape:connector-curvature="0"
         id="path32317"
         d="m 33346,32240 0,-7500" />
      <path
         inkscape:connector-curvature="0"
         id="path32319"
         d="m 27846,32240 6780,0" />
      <path
         inkscape:connector-curvature="0"
         id="path32321"
         d="m 27846,24740 6780,0" />
      <path
         inkscape:connector-curvature="0"
         id="path32323"
         d="m 33346,24740 231,443" />
      <path
         inkscape:connector-curvature="0"
         id="path32325"
         d="m 33346,24740 -231,443" />
      <path
         inkscape:connector-curvature="0"
         id="path32327"
         d="m 33346,32240 231,-444" />
      <path
         inkscape:connector-curvature="0"
         id="path32329"
         d="m 33346,32240 -231,-444" />
      <path
         inkscape:connector-curvature="0"
         id="path32331"
         d="m 31908,27747 0,-57 38,-58 38,-28 76,-29 153,-28 190,0 152,28 77,29 38,28 38,58 0,57 -38,57 -38,28 -77,29 -152,29 -190,0 -153,-29 -76,-29 -38,-28 -38,-57" />
      <path
         inkscape:connector-curvature="0"
         id="path32333"
         d="m 32632,27290 38,-29 38,29 -38,28 -38,-28 76,0" />
      <path
         inkscape:connector-curvature="0"
         id="path32335"
         d="m 31908,27061 0,-371 305,200 0,-86 38,-57 38,-29 76,-28 190,0 77,28 38,29 38,57 0,171 -38,57 -38,29" />
      <path
         inkscape:connector-curvature="0"
         id="path32337"
         d="m 31908,26490 0,-400 800,257" />
      <path
         inkscape:connector-curvature="0"
         id="path32339"
         d="m 31908,25575 0,286 381,28 -38,-28 -38,-57 0,-143 38,-57 38,-29 76,-28 190,0 77,28 38,29 38,57 0,143 -38,57 -38,28" />
      <path
         inkscape:connector-curvature="0"
         id="path32341"
         d="m 31908,25318 152,0" />
      <path
         inkscape:connector-curvature="0"
         id="path32343"
         d="m 31908,25089 152,0" />
      <path
         inkscape:connector-curvature="0"
         id="path32345"
         d="m 31096,28490 0,-3750" />
      <path
         inkscape:connector-curvature="0"
         id="path32347"
         d="m 25096,28490 7280,0" />
      <path
         inkscape:connector-curvature="0"
         id="path32349"
         d="m 25096,24740 7280,0" />
      <path
         inkscape:connector-curvature="0"
         id="path32351"
         d="m 31096,24740 231,443" />
      <path
         inkscape:connector-curvature="0"
         id="path32353"
         d="m 31096,24740 -231,443" />
      <path
         inkscape:connector-curvature="0"
         id="path32355"
         d="m 31096,28490 231,-444" />
      <path
         inkscape:connector-curvature="0"
         id="path32357"
         d="m 31096,28490 -231,-444" />
      <path
         inkscape:connector-curvature="0"
         id="path32359"
         d="m 31908,23997 0,-57 38,-58 38,-28 76,-29 153,-28 190,0 152,28 77,29 38,28 38,58 0,57 -38,57 -38,28 -77,29 -152,29 -190,0 -153,-29 -76,-29 -38,-28 -38,-57" />
      <path
         inkscape:connector-curvature="0"
         id="path32361"
         d="m 32632,23540 38,-29 38,29 -38,28 -38,-28 76,0" />
      <path
         inkscape:connector-curvature="0"
         id="path32363"
         d="m 31908,23311 0,-371 305,200 0,-86 38,-57 38,-29 76,-28 190,0 77,28 38,29 38,57 0,171 -38,57 -38,29" />
      <path
         inkscape:connector-curvature="0"
         id="path32365"
         d="m 31908,22740 0,-400 800,257" />
      <path
         inkscape:connector-curvature="0"
         id="path32367"
         d="m 31908,21825 0,286 381,28 -38,-28 -38,-57 0,-143 38,-57 38,-29 76,-28 190,0 77,28 38,29 38,57 0,143 -38,57 -38,28" />
      <path
         inkscape:connector-curvature="0"
         id="path32369"
         d="m 31908,21568 152,0" />
      <path
         inkscape:connector-curvature="0"
         id="path32371"
         d="m 31908,21339 152,0" />
      <path
         inkscape:connector-curvature="0"
         id="path32373"
         d="m 31096,24740 0,-3750" />
      <path
         inkscape:connector-curvature="0"
         id="path32375"
         d="m 25096,24740 7280,0" />
      <path
         inkscape:connector-curvature="0"
         id="path32377"
         d="m 25096,20990 7280,0" />
      <path
         inkscape:connector-curvature="0"
         id="path32379"
         d="m 31096,20990 231,443" />
      <path
         inkscape:connector-curvature="0"
         id="path32381"
         d="m 31096,20990 -231,443" />
      <path
         inkscape:connector-curvature="0"
         id="path32383"
         d="m 31096,24740 231,-444" />
      <path
         inkscape:connector-curvature="0"
         id="path32385"
         d="m 31096,24740 -231,-444" />
    </g>
    <g
       transform="translate(0,70079.922)"
       id="g32387"
       style="fill:#000000;fill-opacity:0;stroke:#000000;stroke-width:150;stroke-linecap:round;stroke-linejoin:round;stroke-opacity:1">
      <path
         inkscape:connector-curvature="0"
         id="path32389"
         d="m 1596,39740 0,-30000" />
      <path
         inkscape:connector-curvature="0"
         id="path32391"
         d="m 29096,39740 -27500,0" />
      <path
         inkscape:connector-curvature="0"
         id="path32393"
         d="m 29096,9740 0,30000" />
      <path
         inkscape:connector-curvature="0"
         id="path32395"
         d="m 1596,9740 27500,0" />
    </g>
    <g
       transform="translate(0,70079.922)"
       id="g32397"
       style="fill:#000000;fill-opacity:0;stroke:#000000;stroke-width:80;stroke-linecap:round;stroke-linejoin:round;stroke-opacity:1">
      <path
         inkscape:connector-curvature="0"
         id="path32399"
         d="m 6801,23170 0,-400 152,0 38,20 19,19 19,38 0,57 -19,38 -19,19 -38,19 -152,0" />
      <path
         inkscape:connector-curvature="0"
         id="path32401"
         d="m 7372,22770 -76,0 -38,20 -19,19 -38,57 -19,76 0,152 19,38 19,19 38,19 76,0 38,-19 19,-19 19,-38 0,-95 -19,-38 -19,-19 -38,-19 -76,0 -38,19 -19,19 -19,38" />
      <path
         inkscape:connector-curvature="0"
         id="path32403"
         d="m 18801,23170 0,-400 152,0 38,20 19,19 19,38 0,57 -19,38 -19,19 -38,19 -152,0" />
      <path
         inkscape:connector-curvature="0"
         id="path32405"
         d="m 19391,22770 -190,0 -19,191 19,-19 38,-19 95,0 38,19 19,19 19,38 0,95 -19,38 -19,19 -38,19 -95,0 -38,-19 -19,-19" />
      <path
         inkscape:connector-curvature="0"
         id="path32407"
         d="m 13801,23420 0,-400 152,0 38,20 19,19 19,38 0,57 -19,38 -19,19 -38,19 -152,0" />
      <path
         inkscape:connector-curvature="0"
         id="path32409"
         d="m 14372,23154 0,266" />
      <path
         inkscape:connector-curvature="0"
         id="path32411"
         d="m 14277,23001 -95,286 247,0" />
      <path
         inkscape:connector-curvature="0"
         id="path32413"
         d="m 24451,19770 0,-400 152,0 38,20 19,19 19,38 0,57 -19,38 -19,19 -38,19 -152,0" />
      <path
         inkscape:connector-curvature="0"
         id="path32415"
         d="m 24813,19370 266,0 -171,400" />
      <path
         inkscape:connector-curvature="0"
         id="path32417"
         d="m 24260,27270 0,-400 153,0 38,20 19,19 19,38 0,57 -19,38 -19,19 -38,19 -153,0" />
      <path
         inkscape:connector-curvature="0"
         id="path32419"
         d="m 24870,27270 -229,0" />
      <path
         inkscape:connector-curvature="0"
         id="path32421"
         d="m 24755,27270 0,-400 -38,58 -38,38 -38,19" />
      <path
         inkscape:connector-curvature="0"
         id="path32423"
         d="m 25251,27270 -229,0" />
      <path
         inkscape:connector-curvature="0"
         id="path32425"
         d="m 25136,27270 0,-400 -38,58 -38,38 -38,19" />
      <path
         inkscape:connector-curvature="0"
         id="path32427"
         d="m 27051,36920 0,-400 152,0 38,20 19,19 19,38 0,57 -19,38 -19,19 -38,19 -152,0" />
      <path
         inkscape:connector-curvature="0"
         id="path32429"
         d="m 27470,36920 76,0 38,-19 19,-19 38,-57 19,-76 0,-152 -19,-38 -19,-19 -38,-20 -76,0 -38,20 -19,19 -19,38 0,95 19,38 19,19 38,19 76,0 38,-19 19,-19 19,-38" />
      <path
         inkscape:connector-curvature="0"
         id="path32431"
         d="m 12051,36920 0,-400 152,0 38,20 19,19 19,38 0,57 -19,38 -19,19 -38,19 -152,0" />
      <path
         inkscape:connector-curvature="0"
         id="path32433"
         d="m 12508,36692 -38,-19 -19,-19 -19,-38 0,-19 19,-38 19,-19 38,-20 76,0 38,20 19,19 19,38 0,19 -19,38 -19,19 -38,19 -76,0 -38,19 -19,19 -19,38 0,76 19,38 19,19 38,19 76,0 38,-19 19,-19 19,-38 0,-76 -19,-38 -19,-19 -38,-19" />
      <path
         inkscape:connector-curvature="0"
         id="path32435"
         d="m 18051,12920 0,-400 152,0 38,20 19,19 19,38 0,57 -19,38 -19,19 -38,19 -152,0" />
      <path
         inkscape:connector-curvature="0"
         id="path32437"
         d="m 18413,12520 247,0 -133,153 57,0 38,19 19,19 19,38 0,95 -19,38 -19,19 -38,19 -114,0 -38,-19 -19,-19" />
      <path
         inkscape:connector-curvature="0"
         id="path32439"
         d="m 3051,12920 0,-400 152,0 38,20 19,19 19,38 0,57 -19,38 -19,19 -38,19 -152,0" />
      <path
         inkscape:connector-curvature="0"
         id="path32441"
         d="m 3432,12559 19,-19 38,-20 95,0 38,20 19,19 19,38 0,38 -19,57 -228,228 247,0" />
      <path
         inkscape:connector-curvature="0"
         id="path32443"
         d="m 13001,15420 0,-400 152,0 38,20 19,19 19,38 0,57 -19,38 -19,19 -38,19 -152,0" />
      <path
         inkscape:connector-curvature="0"
         id="path32445"
         d="m 13610,15420 -228,0" />
      <path
         inkscape:connector-curvature="0"
         id="path32447"
         d="m 13496,15420 0,-400 -38,58 -38,38 -38,19" />
      <path
         inkscape:connector-curvature="0"
         id="path32449"
         d="m 16860,34420 0,-400 153,0 38,20 19,19 19,38 0,57 -19,38 -19,19 -38,19 -153,0" />
      <path
         inkscape:connector-curvature="0"
         id="path32451"
         d="m 17470,34420 -229,0" />
      <path
         inkscape:connector-curvature="0"
         id="path32453"
         d="m 17355,34420 0,-400 -38,58 -38,38 -38,19" />
      <path
         inkscape:connector-curvature="0"
         id="path32455"
         d="m 17717,34020 38,0 38,20 20,19 19,38 19,76 0,95 -19,76 -19,38 -20,19 -38,19 -38,0 -38,-19 -19,-19 -19,-38 -19,-76 0,-95 19,-76 19,-38 19,-19 38,-20" />
    </g>
    <g
       transform="translate(0,70079.922)"
       id="g32457"
       style="fill:#000000;fill-opacity:0;stroke:#000000;stroke-width:98.42520142;stroke-linecap:round;stroke-linejoin:round;stroke-opacity:1">
      <path
         inkscape:connector-curvature="0"
         id="path32459"
         d="m 6646,23440 -200,-200" />
      <path
         inkscape:connector-curvature="0"
         id="path32461"
         d="m 6646,23940 0,-500" />
      <path
         inkscape:connector-curvature="0"
         id="path32463"
         d="m 6646,23440 500,0" />
      <path
         inkscape:connector-curvature="0"
         id="path32465"
         d="m 7146,25940 -500,0" />
      <path
         inkscape:connector-curvature="0"
         id="path32467"
         d="m 6646,25940 0,-500" />
      <path
         inkscape:connector-curvature="0"
         id="path32469"
         d="m 12046,25540 0,500" />
      <path
         inkscape:connector-curvature="0"
         id="path32471"
         d="m 12046,26040 -500,0" />
      <path
         inkscape:connector-curvature="0"
         id="path32473"
         d="m 11546,23540 500,0" />
      <path
         inkscape:connector-curvature="0"
         id="path32475"
         d="m 12046,23540 0,500" />
      <path
         inkscape:connector-curvature="0"
         id="path32477"
         d="m 18646,23440 -200,-200" />
      <path
         inkscape:connector-curvature="0"
         id="path32479"
         d="m 18646,23940 0,-500" />
      <path
         inkscape:connector-curvature="0"
         id="path32481"
         d="m 18646,23440 500,0" />
      <path
         inkscape:connector-curvature="0"
         id="path32483"
         d="m 19146,25940 -500,0" />
      <path
         inkscape:connector-curvature="0"
         id="path32485"
         d="m 18646,25940 0,-500" />
      <path
         inkscape:connector-curvature="0"
         id="path32487"
         d="m 24046,25540 0,500" />
      <path
         inkscape:connector-curvature="0"
         id="path32489"
         d="m 24046,26040 -500,0" />
      <path
         inkscape:connector-curvature="0"
         id="path32491"
         d="m 23546,23540 500,0" />
      <path
         inkscape:connector-curvature="0"
         id="path32493"
         d="m 24046,23540 0,500" />
      <path
         inkscape:connector-curvature="0"
         id="path32495"
         d="m 15149,23657 394,0" />
      <path
         inkscape:connector-curvature="0"
         id="path32497"
         d="m 15149,25822 394,0" />
      <path
         inkscape:connector-curvature="0"
         id="path32499"
         d="m 13653,23637 -158,-157" />
      <path
         inkscape:connector-curvature="0"
         id="path32501"
         d="m 13673,23952 0,-295" />
      <path
         inkscape:connector-curvature="0"
         id="path32503"
         d="m 13673,23657 295,0" />
      <path
         inkscape:connector-curvature="0"
         id="path32505"
         d="m 13968,25822 -295,0" />
      <path
         inkscape:connector-curvature="0"
         id="path32507"
         d="m 13673,25822 0,-295" />
      <path
         inkscape:connector-curvature="0"
         id="path32509"
         d="m 17019,25527 0,295" />
      <path
         inkscape:connector-curvature="0"
         id="path32511"
         d="m 17019,25822 -295,0" />
      <path
         inkscape:connector-curvature="0"
         id="path32513"
         d="m 17019,23657 0,295" />
      <path
         inkscape:connector-curvature="0"
         id="path32515"
         d="m 16724,23657 295,0" />
      <path
         inkscape:connector-curvature="0"
         id="path32517"
         d="m 24196,19990 -100,-100" />
      <path
         inkscape:connector-curvature="0"
         id="path32519"
         d="m 24196,19990 200,0" />
      <path
         inkscape:connector-curvature="0"
         id="path32521"
         d="m 24196,19990 0,200" />
      <path
         inkscape:connector-curvature="0"
         id="path32523"
         d="m 24196,21990 0,-200" />
      <path
         inkscape:connector-curvature="0"
         id="path32525"
         d="m 24196,21990 200,0" />
      <path
         inkscape:connector-curvature="0"
         id="path32527"
         d="m 26496,21790 0,200" />
      <path
         inkscape:connector-curvature="0"
         id="path32529"
         d="m 26496,21990 -200,0" />
      <path
         inkscape:connector-curvature="0"
         id="path32531"
         d="m 26496,20190 0,-200" />
      <path
         inkscape:connector-curvature="0"
         id="path32533"
         d="m 26496,19990 -200,0" />
      <path
         inkscape:connector-curvature="0"
         id="path32535"
         d="m 24196,27490 -100,-100" />
      <path
         inkscape:connector-curvature="0"
         id="path32537"
         d="m 24196,27490 200,0" />
      <path
         inkscape:connector-curvature="0"
         id="path32539"
         d="m 24196,27490 0,200" />
      <path
         inkscape:connector-curvature="0"
         id="path32541"
         d="m 24196,29490 0,-200" />
      <path
         inkscape:connector-curvature="0"
         id="path32543"
         d="m 24196,29490 200,0" />
      <path
         inkscape:connector-curvature="0"
         id="path32545"
         d="m 26496,29290 0,200" />
      <path
         inkscape:connector-curvature="0"
         id="path32547"
         d="m 26496,29490 -200,0" />
      <path
         inkscape:connector-curvature="0"
         id="path32549"
         d="m 26496,27690 0,-200" />
      <path
         inkscape:connector-curvature="0"
         id="path32551"
         d="m 26496,27490 -200,0" />
      <path
         inkscape:connector-curvature="0"
         id="path32553"
         d="m 19204,34755 0,5020" />
      <path
         inkscape:connector-curvature="0"
         id="path32555"
         d="m 26488,36724 -1083,0" />
      <path
         inkscape:connector-curvature="0"
         id="path32557"
         d="m 26488,34755 0,5020" />
      <path
         inkscape:connector-curvature="0"
         id="path32559"
         d="m 4204,34755 0,5020" />
      <path
         inkscape:connector-curvature="0"
         id="path32561"
         d="m 11488,36724 -1083,0" />
      <path
         inkscape:connector-curvature="0"
         id="path32563"
         d="m 11488,34755 0,5020" />
      <path
         inkscape:connector-curvature="0"
         id="path32565"
         d="m 26488,14724 0,-5020" />
      <path
         inkscape:connector-curvature="0"
         id="path32567"
         d="m 19204,12755 1083,0" />
      <path
         inkscape:connector-curvature="0"
         id="path32569"
         d="m 19204,14724 0,-5020" />
      <path
         inkscape:connector-curvature="0"
         id="path32571"
         d="m 11488,14724 0,-5020" />
      <path
         inkscape:connector-curvature="0"
         id="path32573"
         d="m 4204,12755 1083,0" />
      <path
         inkscape:connector-curvature="0"
         id="path32575"
         d="m 4204,14724 0,-5020" />
      <path
         inkscape:connector-curvature="0"
         id="path32577"
         d="m 17096,13740 0,1000" />
      <path
         inkscape:connector-curvature="0"
         id="path32579"
         d="m 17096,14740 -500,0" />
      <path
         inkscape:connector-curvature="0"
         id="path32581"
         d="m 13996,14740 0,500" />
      <path
         inkscape:connector-curvature="0"
         id="path32583"
         d="m 13496,14740 0,-1000" />
      <path
         inkscape:connector-curvature="0"
         id="path32585"
         d="m 13496,14740 500,0" />
      <path
         inkscape:connector-curvature="0"
         id="path32587"
         d="m 13496,9740 0,1000" />
      <path
         inkscape:connector-curvature="0"
         id="path32589"
         d="m 13496,9740 1000,0" />
      <path
         inkscape:connector-curvature="0"
         id="path32591"
         d="m 16096,9740 1000,0" />
      <path
         inkscape:connector-curvature="0"
         id="path32593"
         d="m 17096,9740 0,1000" />
      <path
         inkscape:connector-curvature="0"
         id="path32595"
         d="m 13546,35740 0,-1000" />
      <path
         inkscape:connector-curvature="0"
         id="path32597"
         d="m 13546,34740 500,0" />
      <path
         inkscape:connector-curvature="0"
         id="path32599"
         d="m 16646,34740 0,-500" />
      <path
         inkscape:connector-curvature="0"
         id="path32601"
         d="m 17146,34740 0,1000" />
      <path
         inkscape:connector-curvature="0"
         id="path32603"
         d="m 17146,34740 -500,0" />
      <path
         inkscape:connector-curvature="0"
         id="path32605"
         d="m 17146,39740 0,-1000" />
      <path
         inkscape:connector-curvature="0"
         id="path32607"
         d="m 17146,39740 -1000,0" />
      <path
         inkscape:connector-curvature="0"
         id="path32609"
         d="m 14546,39740 -1000,0" />
      <path
         inkscape:connector-curvature="0"
         id="path32611"
         d="m 13546,39740 0,-1000" />
    </g>
    <g
       transform="translate(0,70079.922)"
       id="g32615"
       style="fill:#000000;fill-opacity:1;stroke:#000000;stroke-width:39.37009811;stroke-linecap:round;stroke-linejoin:round;stroke-opacity:1">
      <circle
         d="m 3517.2161,17240 c 0,370.509 -300.3569,670.866 -670.866,670.866 -370.5091,0 -670.866,-300.357 -670.866,-670.866 0,-370.509 300.3569,-670.866 670.866,-670.866 370.5091,0 670.866,300.357 670.866,670.866 z"
         sodipodi:ry="670.86603"
         sodipodi:rx="670.86603"
         sodipodi:cy="17240"
         sodipodi:cx="2846.3501"
         id="circle32617"
         r="670.86603"
         cy="17240"
         cx="2846.3501" />
      <circle
         d="m 3517.2161,32240 c 0,370.509 -300.3569,670.866 -670.866,670.866 -370.5091,0 -670.866,-300.357 -670.866,-670.866 0,-370.509 300.3569,-670.866 670.866,-670.866 370.5091,0 670.866,300.357 670.866,670.866 z"
         sodipodi:ry="670.86603"
         sodipodi:rx="670.86603"
         sodipodi:cy="32240"
         sodipodi:cx="2846.3501"
         id="circle32619"
         r="670.86603"
         cy="32240"
         cx="2846.3501" />
      <circle
         d="m 28517.266,17240 c 0,370.509 -300.357,670.866 -670.866,670.866 -370.509,0 -670.866,-300.357 -670.866,-670.866 0,-370.509 300.357,-670.866 670.866,-670.866 370.509,0 670.866,300.357 670.866,670.866 z"
         sodipodi:ry="670.86603"
         sodipodi:rx="670.86603"
         sodipodi:cy="17240"
         sodipodi:cx="27846.4"
         id="circle32621"
         r="670.86603"
         cy="17240"
         cx="27846.4" />
      <circle
         d="m 28517.266,32240 c 0,370.509 -300.357,670.866 -670.866,670.866 -370.509,0 -670.866,-300.357 -670.866,-670.866 0,-370.509 300.357,-670.866 670.866,-670.866 370.509,0 670.866,300.357 670.866,670.866 z"
         sodipodi:ry="670.86603"
         sodipodi:rx="670.86603"
         sodipodi:cy="32240"
         sodipodi:cx="27846.4"
         id="circle32623"
         r="670.86603"
         cy="32240"
         cx="27846.4" />
      <polyline
         id="polyline32625"
         points="6941,24645 6941,23834 7751,23834 7751,24645 6941,24645 "
         style="fill-rule:evenodd" />
      <circle
         d="m 7751.4681,25240 c 0,223.74 -181.3775,405.118 -405.118,405.118 -223.7405,0 -405.118,-181.378 -405.118,-405.118 0,-223.74 181.3775,-405.118 405.118,-405.118 223.7405,0 405.118,181.378 405.118,405.118 z"
         sodipodi:ry="405.11801"
         sodipodi:rx="405.11801"
         sodipodi:cy="25240"
         sodipodi:cx="7346.3501"
         id="circle32627"
         r="405.11801"
         cy="25240"
         cx="7346.3501" />
      <circle
         d="m 8751.4676,24240 c 0,223.74 -181.3775,405.118 -405.118,405.118 -223.7405,0 -405.118,-181.378 -405.118,-405.118 0,-223.74 181.3775,-405.118 405.118,-405.118 223.7405,0 405.118,181.378 405.118,405.118 z"
         sodipodi:ry="405.11801"
         sodipodi:rx="405.11801"
         sodipodi:cy="24240"
         sodipodi:cx="8346.3496"
         id="circle32629"
         r="405.11801"
         cy="24240"
         cx="8346.3496" />
      <circle
         d="m 8751.4676,25240 c 0,223.74 -181.3775,405.118 -405.118,405.118 -223.7405,0 -405.118,-181.378 -405.118,-405.118 0,-223.74 181.3775,-405.118 405.118,-405.118 223.7405,0 405.118,181.378 405.118,405.118 z"
         sodipodi:ry="405.11801"
         sodipodi:rx="405.11801"
         sodipodi:cy="25240"
         sodipodi:cx="8346.3496"
         id="circle32631"
         r="405.11801"
         cy="25240"
         cx="8346.3496" />
      <circle
         d="m 9751.4676,24240 c 0,223.74 -181.3775,405.118 -405.118,405.118 -223.7405,0 -405.118,-181.378 -405.118,-405.118 0,-223.74 181.3775,-405.118 405.118,-405.118 223.7405,0 405.118,181.378 405.118,405.118 z"
         sodipodi:ry="405.11801"
         sodipodi:rx="405.11801"
         sodipodi:cy="24240"
         sodipodi:cx="9346.3496"
         id="circle32633"
         r="405.11801"
         cy="24240"
         cx="9346.3496" />
      <circle
         d="m 9751.4676,25240 c 0,223.74 -181.3775,405.118 -405.118,405.118 -223.7405,0 -405.118,-181.378 -405.118,-405.118 0,-223.74 181.3775,-405.118 405.118,-405.118 223.7405,0 405.118,181.378 405.118,405.118 z"
         sodipodi:ry="405.11801"
         sodipodi:rx="405.11801"
         sodipodi:cy="25240"
         sodipodi:cx="9346.3496"
         id="circle32635"
         r="405.11801"
         cy="25240"
         cx="9346.3496" />
      <circle
         d="m 10751.518,24240 c 0,223.74 -181.377,405.118 -405.118,405.118 -223.74,0 -405.1176,-181.378 -405.1176,-405.118 0,-223.74 181.3776,-405.118 405.1176,-405.118 223.741,0 405.118,181.378 405.118,405.118 z"
         sodipodi:ry="405.11801"
         sodipodi:rx="405.11801"
         sodipodi:cy="24240"
         sodipodi:cx="10346.4"
         id="circle32637"
         r="405.11801"
         cy="24240"
         cx="10346.4" />
      <circle
         d="m 10751.518,25240 c 0,223.74 -181.377,405.118 -405.118,405.118 -223.74,0 -405.1176,-181.378 -405.1176,-405.118 0,-223.74 181.3776,-405.118 405.1176,-405.118 223.741,0 405.118,181.378 405.118,405.118 z"
         sodipodi:ry="405.11801"
         sodipodi:rx="405.11801"
         sodipodi:cy="25240"
         sodipodi:cx="10346.4"
         id="circle32639"
         r="405.11801"
         cy="25240"
         cx="10346.4" />
      <circle
         d="m 11751.518,24240 c 0,223.74 -181.377,405.118 -405.118,405.118 -223.74,0 -405.118,-181.378 -405.118,-405.118 0,-223.74 181.378,-405.118 405.118,-405.118 223.741,0 405.118,181.378 405.118,405.118 z"
         sodipodi:ry="405.11801"
         sodipodi:rx="405.11801"
         sodipodi:cy="24240"
         sodipodi:cx="11346.4"
         id="circle32641"
         r="405.11801"
         cy="24240"
         cx="11346.4" />
      <circle
         d="m 11751.518,25240 c 0,223.74 -181.377,405.118 -405.118,405.118 -223.74,0 -405.118,-181.378 -405.118,-405.118 0,-223.74 181.378,-405.118 405.118,-405.118 223.741,0 405.118,181.378 405.118,405.118 z"
         sodipodi:ry="405.11801"
         sodipodi:rx="405.11801"
         sodipodi:cy="25240"
         sodipodi:cx="11346.4"
         id="circle32643"
         r="405.11801"
         cy="25240"
         cx="11346.4" />
      <polyline
         id="polyline32645"
         points="18941,24645 18941,23834 19751,23834 19751,24645 18941,24645 "
         style="fill-rule:evenodd" />
      <circle
         d="m 19751.518,25240 c 0,223.74 -181.377,405.118 -405.118,405.118 -223.74,0 -405.118,-181.378 -405.118,-405.118 0,-223.74 181.378,-405.118 405.118,-405.118 223.741,0 405.118,181.378 405.118,405.118 z"
         sodipodi:ry="405.11801"
         sodipodi:rx="405.11801"
         sodipodi:cy="25240"
         sodipodi:cx="19346.4"
         id="circle32647"
         r="405.11801"
         cy="25240"
         cx="19346.4" />
      <circle
         d="m 20751.518,24240 c 0,223.74 -181.377,405.118 -405.118,405.118 -223.74,0 -405.118,-181.378 -405.118,-405.118 0,-223.74 181.378,-405.118 405.118,-405.118 223.741,0 405.118,181.378 405.118,405.118 z"
         sodipodi:ry="405.11801"
         sodipodi:rx="405.11801"
         sodipodi:cy="24240"
         sodipodi:cx="20346.4"
         id="circle32649"
         r="405.11801"
         cy="24240"
         cx="20346.4" />
      <circle
         d="m 20751.518,25240 c 0,223.74 -181.377,405.118 -405.118,405.118 -223.74,0 -405.118,-181.378 -405.118,-405.118 0,-223.74 181.378,-405.118 405.118,-405.118 223.741,0 405.118,181.378 405.118,405.118 z"
         sodipodi:ry="405.11801"
         sodipodi:rx="405.11801"
         sodipodi:cy="25240"
         sodipodi:cx="20346.4"
         id="circle32651"
         r="405.11801"
         cy="25240"
         cx="20346.4" />
      <circle
         d="m 21751.518,24240 c 0,223.74 -181.377,405.118 -405.118,405.118 -223.74,0 -405.118,-181.378 -405.118,-405.118 0,-223.74 181.378,-405.118 405.118,-405.118 223.741,0 405.118,181.378 405.118,405.118 z"
         sodipodi:ry="405.11801"
         sodipodi:rx="405.11801"
         sodipodi:cy="24240"
         sodipodi:cx="21346.4"
         id="circle32653"
         r="405.11801"
         cy="24240"
         cx="21346.4" />
      <circle
         d="m 21751.518,25240 c 0,223.74 -181.377,405.118 -405.118,405.118 -223.74,0 -405.118,-181.378 -405.118,-405.118 0,-223.74 181.378,-405.118 405.118,-405.118 223.741,0 405.118,181.378 405.118,405.118 z"
         sodipodi:ry="405.11801"
         sodipodi:rx="405.11801"
         sodipodi:cy="25240"
         sodipodi:cx="21346.4"
         id="circle32655"
         r="405.11801"
         cy="25240"
         cx="21346.4" />
      <circle
         d="m 22751.518,24240 c 0,223.74 -181.377,405.118 -405.118,405.118 -223.74,0 -405.118,-181.378 -405.118,-405.118 0,-223.74 181.378,-405.118 405.118,-405.118 223.741,0 405.118,181.378 405.118,405.118 z"
         sodipodi:ry="405.11801"
         sodipodi:rx="405.11801"
         sodipodi:cy="24240"
         sodipodi:cx="22346.4"
         id="circle32657"
         r="405.11801"
         cy="24240"
         cx="22346.4" />
      <circle
         d="m 22751.518,25240 c 0,223.74 -181.377,405.118 -405.118,405.118 -223.74,0 -405.118,-181.378 -405.118,-405.118 0,-223.74 181.378,-405.118 405.118,-405.118 223.741,0 405.118,181.378 405.118,405.118 z"
         sodipodi:ry="405.11801"
         sodipodi:rx="405.11801"
         sodipodi:cy="25240"
         sodipodi:cx="22346.4"
         id="circle32659"
         r="405.11801"
         cy="25240"
         cx="22346.4" />
      <circle
         d="m 23751.518,24240 c 0,223.74 -181.377,405.118 -405.118,405.118 -223.74,0 -405.118,-181.378 -405.118,-405.118 0,-223.74 181.378,-405.118 405.118,-405.118 223.741,0 405.118,181.378 405.118,405.118 z"
         sodipodi:ry="405.11801"
         sodipodi:rx="405.11801"
         sodipodi:cy="24240"
         sodipodi:cx="23346.4"
         id="circle32661"
         r="405.11801"
         cy="24240"
         cx="23346.4" />
      <circle
         d="m 23751.518,25240 c 0,223.74 -181.377,405.118 -405.118,405.118 -223.74,0 -405.118,-181.378 -405.118,-405.118 0,-223.74 181.378,-405.118 405.118,-405.118 223.741,0 405.118,181.378 405.118,405.118 z"
         sodipodi:ry="405.11801"
         sodipodi:rx="405.11801"
         sodipodi:cy="25240"
         sodipodi:cx="23346.4"
         id="circle32663"
         r="405.11801"
         cy="25240"
         cx="23346.4" />
      <polyline
         id="polyline32665"
         points="13941,24645 13941,23834 14751,23834 14751,24645 13941,24645 "
         style="fill-rule:evenodd" />
      <circle
         d="m 15751.518,24240 c 0,223.74 -181.377,405.118 -405.118,405.118 -223.74,0 -405.118,-181.378 -405.118,-405.118 0,-223.74 181.378,-405.118 405.118,-405.118 223.741,0 405.118,181.378 405.118,405.118 z"
         sodipodi:ry="405.11801"
         sodipodi:rx="405.11801"
         sodipodi:cy="24240"
         sodipodi:cx="15346.4"
         id="circle32667"
         r="405.11801"
         cy="24240"
         cx="15346.4" />
      <circle
         d="m 14751.518,25240 c 0,223.74 -181.377,405.118 -405.118,405.118 -223.74,0 -405.118,-181.378 -405.118,-405.118 0,-223.74 181.378,-405.118 405.118,-405.118 223.741,0 405.118,181.378 405.118,405.118 z"
         sodipodi:ry="405.11801"
         sodipodi:rx="405.11801"
         sodipodi:cy="25240"
         sodipodi:cx="14346.4"
         id="circle32669"
         r="405.11801"
         cy="25240"
         cx="14346.4" />
      <circle
         d="m 15751.518,25240 c 0,223.74 -181.377,405.118 -405.118,405.118 -223.74,0 -405.118,-181.378 -405.118,-405.118 0,-223.74 181.378,-405.118 405.118,-405.118 223.741,0 405.118,181.378 405.118,405.118 z"
         sodipodi:ry="405.11801"
         sodipodi:rx="405.11801"
         sodipodi:cy="25240"
         sodipodi:cx="15346.4"
         id="circle32671"
         r="405.11801"
         cy="25240"
         cx="15346.4" />
      <circle
         d="m 16751.518,24240 c 0,223.74 -181.377,405.118 -405.118,405.118 -223.74,0 -405.118,-181.378 -405.118,-405.118 0,-223.74 181.378,-405.118 405.118,-405.118 223.741,0 405.118,181.378 405.118,405.118 z"
         sodipodi:ry="405.11801"
         sodipodi:rx="405.11801"
         sodipodi:cy="24240"
         sodipodi:cx="16346.4"
         id="circle32673"
         r="405.11801"
         cy="24240"
         cx="16346.4" />
      <circle
         d="m 16751.518,25240 c 0,223.74 -181.377,405.118 -405.118,405.118 -223.74,0 -405.118,-181.378 -405.118,-405.118 0,-223.74 181.378,-405.118 405.118,-405.118 223.741,0 405.118,181.378 405.118,405.118 z"
         sodipodi:ry="405.11801"
         sodipodi:rx="405.11801"
         sodipodi:cy="25240"
         sodipodi:cx="16346.4"
         id="circle32675"
         r="405.11801"
         cy="25240"
         cx="16346.4" />
      <polyline
         id="polyline32677"
         points="24441,20895 24441,20084 25251,20084 25251,20895 24441,20895 "
         style="fill-rule:evenodd" />
      <circle
         d="m 25251.518,21490 c 0,223.74 -181.377,405.118 -405.118,405.118 -223.74,0 -405.118,-181.378 -405.118,-405.118 0,-223.74 181.378,-405.118 405.118,-405.118 223.741,0 405.118,181.378 405.118,405.118 z"
         sodipodi:ry="405.11801"
         sodipodi:rx="405.11801"
         sodipodi:cy="21490"
         sodipodi:cx="24846.4"
         id="circle32679"
         r="405.11801"
         cy="21490"
         cx="24846.4" />
      <circle
         d="m 26251.518,20490 c 0,223.74 -181.377,405.118 -405.118,405.118 -223.74,0 -405.118,-181.378 -405.118,-405.118 0,-223.74 181.378,-405.118 405.118,-405.118 223.741,0 405.118,181.378 405.118,405.118 z"
         sodipodi:ry="405.11801"
         sodipodi:rx="405.11801"
         sodipodi:cy="20490"
         sodipodi:cx="25846.4"
         id="circle32681"
         r="405.11801"
         cy="20490"
         cx="25846.4" />
      <circle
         d="m 26251.518,21490 c 0,223.74 -181.377,405.118 -405.118,405.118 -223.74,0 -405.118,-181.378 -405.118,-405.118 0,-223.74 181.378,-405.118 405.118,-405.118 223.741,0 405.118,181.378 405.118,405.118 z"
         sodipodi:ry="405.11801"
         sodipodi:rx="405.11801"
         sodipodi:cy="21490"
         sodipodi:cx="25846.4"
         id="circle32683"
         r="405.11801"
         cy="21490"
         cx="25846.4" />
      <polyline
         id="polyline32685"
         points="24441,28395 24441,27584 25251,27584 25251,28395 24441,28395 "
         style="fill-rule:evenodd" />
      <circle
         d="m 25251.518,28990 c 0,223.74 -181.377,405.118 -405.118,405.118 -223.74,0 -405.118,-181.378 -405.118,-405.118 0,-223.74 181.378,-405.118 405.118,-405.118 223.741,0 405.118,181.378 405.118,405.118 z"
         sodipodi:ry="405.11801"
         sodipodi:rx="405.11801"
         sodipodi:cy="28990"
         sodipodi:cx="24846.4"
         id="circle32687"
         r="405.11801"
         cy="28990"
         cx="24846.4" />
      <circle
         d="m 26251.518,27990 c 0,223.74 -181.377,405.118 -405.118,405.118 -223.74,0 -405.118,-181.378 -405.118,-405.118 0,-223.74 181.378,-405.118 405.118,-405.118 223.741,0 405.118,181.378 405.118,405.118 z"
         sodipodi:ry="405.11801"
         sodipodi:rx="405.11801"
         sodipodi:cy="27990"
         sodipodi:cx="25846.4"
         id="circle32689"
         r="405.11801"
         cy="27990"
         cx="25846.4" />
      <circle
         d="m 26251.518,28990 c 0,223.74 -181.377,405.118 -405.118,405.118 -223.74,0 -405.118,-181.378 -405.118,-405.118 0,-223.74 181.378,-405.118 405.118,-405.118 223.741,0 405.118,181.378 405.118,405.118 z"
         sodipodi:ry="405.11801"
         sodipodi:rx="405.11801"
         sodipodi:cy="28990"
         sodipodi:cx="25846.4"
         id="circle32691"
         r="405.11801"
         cy="28990"
         cx="25846.4" />
      <circle
         d="m 25958.207,36133.699 c 0,196.562 -159.345,355.906 -355.906,355.906 -196.562,0 -355.906,-159.344 -355.906,-355.906 0,-196.561 159.344,-355.906 355.906,-355.906 196.561,0 355.906,159.345 355.906,355.906 z"
         sodipodi:ry="355.90601"
         sodipodi:rx="355.90601"
         sodipodi:cy="36133.699"
         sodipodi:cx="25602.301"
         id="circle32693"
         r="355.90601"
         cy="36133.699"
         cx="25602.301" />
      <circle
         d="m 25958.207,35346.301 c 0,196.561 -159.345,355.906 -355.906,355.906 -196.562,0 -355.906,-159.345 -355.906,-355.906 0,-196.562 159.344,-355.906 355.906,-355.906 196.561,0 355.906,159.344 355.906,355.906 z"
         sodipodi:ry="355.90601"
         sodipodi:rx="355.90601"
         sodipodi:cy="35346.301"
         sodipodi:cx="25602.301"
         id="circle32695"
         r="355.90601"
         cy="35346.301"
         cx="25602.301" />
      <circle
         d="m 25170.806,36133.699 c 0,196.562 -159.344,355.906 -355.906,355.906 -196.561,0 -355.906,-159.344 -355.906,-355.906 0,-196.561 159.345,-355.906 355.906,-355.906 196.562,0 355.906,159.345 355.906,355.906 z"
         sodipodi:ry="355.90601"
         sodipodi:rx="355.90601"
         sodipodi:cy="36133.699"
         sodipodi:cx="24814.9"
         id="circle32697"
         r="355.90601"
         cy="36133.699"
         cx="24814.9" />
      <circle
         d="m 25170.806,35346.301 c 0,196.561 -159.344,355.906 -355.906,355.906 -196.561,0 -355.906,-159.345 -355.906,-355.906 0,-196.562 159.345,-355.906 355.906,-355.906 196.562,0 355.906,159.344 355.906,355.906 z"
         sodipodi:ry="355.90601"
         sodipodi:rx="355.90601"
         sodipodi:cy="35346.301"
         sodipodi:cx="24814.9"
         id="circle32699"
         r="355.90601"
         cy="35346.301"
         cx="24814.9" />
      <circle
         d="m 24383.406,36133.699 c 0,196.562 -159.345,355.906 -355.906,355.906 -196.561,0 -355.906,-159.344 -355.906,-355.906 0,-196.561 159.345,-355.906 355.906,-355.906 196.561,0 355.906,159.345 355.906,355.906 z"
         sodipodi:ry="355.90601"
         sodipodi:rx="355.90601"
         sodipodi:cy="36133.699"
         sodipodi:cx="24027.5"
         id="circle32701"
         r="355.90601"
         cy="36133.699"
         cx="24027.5" />
      <circle
         d="m 24383.406,35346.301 c 0,196.561 -159.345,355.906 -355.906,355.906 -196.561,0 -355.906,-159.345 -355.906,-355.906 0,-196.562 159.345,-355.906 355.906,-355.906 196.561,0 355.906,159.344 355.906,355.906 z"
         sodipodi:ry="355.90601"
         sodipodi:rx="355.90601"
         sodipodi:cy="35346.301"
         sodipodi:cx="24027.5"
         id="circle32703"
         r="355.90601"
         cy="35346.301"
         cx="24027.5" />
      <circle
         d="m 23596.006,36133.699 c 0,196.562 -159.345,355.906 -355.906,355.906 -196.562,0 -355.906,-159.344 -355.906,-355.906 0,-196.561 159.344,-355.906 355.906,-355.906 196.561,0 355.906,159.345 355.906,355.906 z"
         sodipodi:ry="355.90601"
         sodipodi:rx="355.90601"
         sodipodi:cy="36133.699"
         sodipodi:cx="23240.1"
         id="circle32705"
         r="355.90601"
         cy="36133.699"
         cx="23240.1" />
      <circle
         d="m 23596.006,35346.301 c 0,196.561 -159.345,355.906 -355.906,355.906 -196.562,0 -355.906,-159.345 -355.906,-355.906 0,-196.562 159.344,-355.906 355.906,-355.906 196.561,0 355.906,159.344 355.906,355.906 z"
         sodipodi:ry="355.90601"
         sodipodi:rx="355.90601"
         sodipodi:cy="35346.301"
         sodipodi:cx="23240.1"
         id="circle32707"
         r="355.90601"
         cy="35346.301"
         cx="23240.1" />
      <circle
         d="m 22808.605,36133.699 c 0,196.562 -159.344,355.906 -355.906,355.906 -196.561,0 -355.906,-159.344 -355.906,-355.906 0,-196.561 159.345,-355.906 355.906,-355.906 196.562,0 355.906,159.345 355.906,355.906 z"
         sodipodi:ry="355.90601"
         sodipodi:rx="355.90601"
         sodipodi:cy="36133.699"
         sodipodi:cx="22452.699"
         id="circle32709"
         r="355.90601"
         cy="36133.699"
         cx="22452.699" />
      <circle
         d="m 22808.605,35346.301 c 0,196.561 -159.344,355.906 -355.906,355.906 -196.561,0 -355.906,-159.345 -355.906,-355.906 0,-196.562 159.345,-355.906 355.906,-355.906 196.562,0 355.906,159.344 355.906,355.906 z"
         sodipodi:ry="355.90601"
         sodipodi:rx="355.90601"
         sodipodi:cy="35346.301"
         sodipodi:cx="22452.699"
         id="circle32711"
         r="355.90601"
         cy="35346.301"
         cx="22452.699" />
      <circle
         d="m 22021.105,36133.699 c 0,196.562 -159.344,355.906 -355.906,355.906 -196.561,0 -355.906,-159.344 -355.906,-355.906 0,-196.561 159.345,-355.906 355.906,-355.906 196.562,0 355.906,159.345 355.906,355.906 z"
         sodipodi:ry="355.90601"
         sodipodi:rx="355.90601"
         sodipodi:cy="36133.699"
         sodipodi:cx="21665.199"
         id="circle32713"
         r="355.90601"
         cy="36133.699"
         cx="21665.199" />
      <circle
         d="m 22021.105,35346.301 c 0,196.561 -159.344,355.906 -355.906,355.906 -196.561,0 -355.906,-159.345 -355.906,-355.906 0,-196.562 159.345,-355.906 355.906,-355.906 196.562,0 355.906,159.344 355.906,355.906 z"
         sodipodi:ry="355.90601"
         sodipodi:rx="355.90601"
         sodipodi:cy="35346.301"
         sodipodi:cx="21665.199"
         id="circle32715"
         r="355.90601"
         cy="35346.301"
         cx="21665.199" />
      <circle
         d="m 21233.707,36133.699 c 0,196.562 -159.345,355.906 -355.906,355.906 -196.562,0 -355.906,-159.344 -355.906,-355.906 0,-196.561 159.344,-355.906 355.906,-355.906 196.561,0 355.906,159.345 355.906,355.906 z"
         sodipodi:ry="355.90601"
         sodipodi:rx="355.90601"
         sodipodi:cy="36133.699"
         sodipodi:cx="20877.801"
         id="circle32717"
         r="355.90601"
         cy="36133.699"
         cx="20877.801" />
      <circle
         d="m 21233.707,35346.301 c 0,196.561 -159.345,355.906 -355.906,355.906 -196.562,0 -355.906,-159.345 -355.906,-355.906 0,-196.562 159.344,-355.906 355.906,-355.906 196.561,0 355.906,159.344 355.906,355.906 z"
         sodipodi:ry="355.90601"
         sodipodi:rx="355.90601"
         sodipodi:cy="35346.301"
         sodipodi:cx="20877.801"
         id="circle32719"
         r="355.90601"
         cy="35346.301"
         cx="20877.801" />
      <circle
         d="m 20446.306,36133.699 c 0,196.562 -159.344,355.906 -355.906,355.906 -196.561,0 -355.906,-159.344 -355.906,-355.906 0,-196.561 159.345,-355.906 355.906,-355.906 196.562,0 355.906,159.345 355.906,355.906 z"
         sodipodi:ry="355.90601"
         sodipodi:rx="355.90601"
         sodipodi:cy="36133.699"
         sodipodi:cx="20090.4"
         id="circle32721"
         r="355.90601"
         cy="36133.699"
         cx="20090.4" />
      <circle
         d="m 20446.306,35346.301 c 0,196.561 -159.344,355.906 -355.906,355.906 -196.561,0 -355.906,-159.345 -355.906,-355.906 0,-196.562 159.345,-355.906 355.906,-355.906 196.562,0 355.906,159.344 355.906,355.906 z"
         sodipodi:ry="355.90601"
         sodipodi:rx="355.90601"
         sodipodi:cy="35346.301"
         sodipodi:cx="20090.4"
         id="circle32723"
         r="355.90601"
         cy="35346.301"
         cx="20090.4" />
      <circle
         d="m 10958.206,36133.699 c 0,196.562 -159.345,355.906 -355.906,355.906 -196.562,0 -355.906,-159.344 -355.906,-355.906 0,-196.561 159.344,-355.906 355.906,-355.906 196.561,0 355.906,159.345 355.906,355.906 z"
         sodipodi:ry="355.90601"
         sodipodi:rx="355.90601"
         sodipodi:cy="36133.699"
         sodipodi:cx="10602.3"
         id="circle32725"
         r="355.90601"
         cy="36133.699"
         cx="10602.3" />
      <circle
         d="m 10958.206,35346.301 c 0,196.561 -159.345,355.906 -355.906,355.906 -196.562,0 -355.906,-159.345 -355.906,-355.906 0,-196.562 159.344,-355.906 355.906,-355.906 196.561,0 355.906,159.344 355.906,355.906 z"
         sodipodi:ry="355.90601"
         sodipodi:rx="355.90601"
         sodipodi:cy="35346.301"
         sodipodi:cx="10602.3"
         id="circle32727"
         r="355.90601"
         cy="35346.301"
         cx="10602.3" />
      <circle
         d="m 10170.766,36133.699 c 0,196.562 -159.344,355.906 -355.9056,355.906 -196.5615,0 -355.9061,-159.344 -355.9061,-355.906 0,-196.561 159.3446,-355.906 355.9061,-355.906 196.5616,0 355.9056,159.345 355.9056,355.906 z"
         sodipodi:ry="355.90601"
         sodipodi:rx="355.90601"
         sodipodi:cy="36133.699"
         sodipodi:cx="9814.8604"
         id="circle32729"
         r="355.90601"
         cy="36133.699"
         cx="9814.8604" />
      <circle
         d="m 10170.766,35346.301 c 0,196.561 -159.344,355.906 -355.9056,355.906 -196.5615,0 -355.9061,-159.345 -355.9061,-355.906 0,-196.562 159.3446,-355.906 355.9061,-355.906 196.5616,0 355.9056,159.344 355.9056,355.906 z"
         sodipodi:ry="355.90601"
         sodipodi:rx="355.90601"
         sodipodi:cy="35346.301"
         sodipodi:cx="9814.8604"
         id="circle32731"
         r="355.90601"
         cy="35346.301"
         cx="9814.8604" />
      <circle
         d="m 9383.3562,36133.699 c 0,196.562 -159.3445,355.906 -355.906,355.906 -196.5615,0 -355.906,-159.344 -355.906,-355.906 0,-196.561 159.3445,-355.906 355.906,-355.906 196.5615,0 355.906,159.345 355.906,355.906 z"
         sodipodi:ry="355.90601"
         sodipodi:rx="355.90601"
         sodipodi:cy="36133.699"
         sodipodi:cx="9027.4502"
         id="circle32733"
         r="355.90601"
         cy="36133.699"
         cx="9027.4502" />
      <circle
         d="m 9383.3562,35346.301 c 0,196.561 -159.3445,355.906 -355.906,355.906 -196.5615,0 -355.906,-159.345 -355.906,-355.906 0,-196.562 159.3445,-355.906 355.906,-355.906 196.5615,0 355.906,159.344 355.906,355.906 z"
         sodipodi:ry="355.90601"
         sodipodi:rx="355.90601"
         sodipodi:cy="35346.301"
         sodipodi:cx="9027.4502"
         id="circle32735"
         r="355.90601"
         cy="35346.301"
         cx="9027.4502" />
      <circle
         d="m 8595.9558,36133.699 c 0,196.562 -159.3445,355.906 -355.906,355.906 -196.5615,0 -355.906,-159.344 -355.906,-355.906 0,-196.561 159.3445,-355.906 355.906,-355.906 196.5615,0 355.906,159.345 355.906,355.906 z"
         sodipodi:ry="355.90601"
         sodipodi:rx="355.90601"
         sodipodi:cy="36133.699"
         sodipodi:cx="8240.0498"
         id="circle32737"
         r="355.90601"
         cy="36133.699"
         cx="8240.0498" />
      <circle
         d="m 8595.9558,35346.301 c 0,196.561 -159.3445,355.906 -355.906,355.906 -196.5615,0 -355.906,-159.345 -355.906,-355.906 0,-196.562 159.3445,-355.906 355.906,-355.906 196.5615,0 355.906,159.344 355.906,355.906 z"
         sodipodi:ry="355.90601"
         sodipodi:rx="355.90601"
         sodipodi:cy="35346.301"
         sodipodi:cx="8240.0498"
         id="circle32739"
         r="355.90601"
         cy="35346.301"
         cx="8240.0498" />
      <circle
         d="m 7808.5559,36133.699 c 0,196.562 -159.3445,355.906 -355.906,355.906 -196.5615,0 -355.906,-159.344 -355.906,-355.906 0,-196.561 159.3445,-355.906 355.906,-355.906 196.5615,0 355.906,159.345 355.906,355.906 z"
         sodipodi:ry="355.90601"
         sodipodi:rx="355.90601"
         sodipodi:cy="36133.699"
         sodipodi:cx="7452.6499"
         id="circle32741"
         r="355.90601"
         cy="36133.699"
         cx="7452.6499" />
      <circle
         d="m 7808.5559,35346.301 c 0,196.561 -159.3445,355.906 -355.906,355.906 -196.5615,0 -355.906,-159.345 -355.906,-355.906 0,-196.562 159.3445,-355.906 355.906,-355.906 196.5615,0 355.906,159.344 355.906,355.906 z"
         sodipodi:ry="355.90601"
         sodipodi:rx="355.90601"
         sodipodi:cy="35346.301"
         sodipodi:cx="7452.6499"
         id="circle32743"
         r="355.90601"
         cy="35346.301"
         cx="7452.6499" />
      <circle
         d="m 7021.156,36133.699 c 0,196.562 -159.3445,355.906 -355.906,355.906 -196.5615,0 -355.906,-159.344 -355.906,-355.906 0,-196.561 159.3445,-355.906 355.906,-355.906 196.5615,0 355.906,159.345 355.906,355.906 z"
         sodipodi:ry="355.90601"
         sodipodi:rx="355.90601"
         sodipodi:cy="36133.699"
         sodipodi:cx="6665.25"
         id="circle32745"
         r="355.90601"
         cy="36133.699"
         cx="6665.25" />
      <circle
         d="m 7021.156,35346.301 c 0,196.561 -159.3445,355.906 -355.906,355.906 -196.5615,0 -355.906,-159.345 -355.906,-355.906 0,-196.562 159.3445,-355.906 355.906,-355.906 196.5615,0 355.906,159.344 355.906,355.906 z"
         sodipodi:ry="355.90601"
         sodipodi:rx="355.90601"
         sodipodi:cy="35346.301"
         sodipodi:cx="6665.25"
         id="circle32747"
         r="355.90601"
         cy="35346.301"
         cx="6665.25" />
      <circle
         d="m 6233.7561,36133.699 c 0,196.562 -159.3445,355.906 -355.906,355.906 -196.5615,0 -355.906,-159.344 -355.906,-355.906 0,-196.561 159.3445,-355.906 355.906,-355.906 196.5615,0 355.906,159.345 355.906,355.906 z"
         sodipodi:ry="355.90601"
         sodipodi:rx="355.90601"
         sodipodi:cy="36133.699"
         sodipodi:cx="5877.8501"
         id="circle32749"
         r="355.90601"
         cy="36133.699"
         cx="5877.8501" />
      <circle
         d="m 6233.7561,35346.301 c 0,196.561 -159.3445,355.906 -355.906,355.906 -196.5615,0 -355.906,-159.345 -355.906,-355.906 0,-196.562 159.3445,-355.906 355.906,-355.906 196.5615,0 355.906,159.344 355.906,355.906 z"
         sodipodi:ry="355.90601"
         sodipodi:rx="355.90601"
         sodipodi:cy="35346.301"
         sodipodi:cx="5877.8501"
         id="circle32751"
         r="355.90601"
         cy="35346.301"
         cx="5877.8501" />
      <circle
         d="m 5446.3562,36133.699 c 0,196.562 -159.3445,355.906 -355.906,355.906 -196.5615,0 -355.906,-159.344 -355.906,-355.906 0,-196.561 159.3445,-355.906 355.906,-355.906 196.5615,0 355.906,159.345 355.906,355.906 z"
         sodipodi:ry="355.90601"
         sodipodi:rx="355.90601"
         sodipodi:cy="36133.699"
         sodipodi:cx="5090.4502"
         id="circle32753"
         r="355.90601"
         cy="36133.699"
         cx="5090.4502" />
      <circle
         d="m 5446.3562,35346.301 c 0,196.561 -159.3445,355.906 -355.906,355.906 -196.5615,0 -355.906,-159.345 -355.906,-355.906 0,-196.562 159.3445,-355.906 355.906,-355.906 196.5615,0 355.906,159.344 355.906,355.906 z"
         sodipodi:ry="355.90601"
         sodipodi:rx="355.90601"
         sodipodi:cy="35346.301"
         sodipodi:cx="5090.4502"
         id="circle32755"
         r="355.90601"
         cy="35346.301"
         cx="5090.4502" />
      <circle
         d="m 20446.306,13346.3 c 0,196.561 -159.344,355.906 -355.906,355.906 -196.561,0 -355.906,-159.345 -355.906,-355.906 0,-196.562 159.345,-355.906 355.906,-355.906 196.562,0 355.906,159.344 355.906,355.906 z"
         sodipodi:ry="355.90601"
         sodipodi:rx="355.90601"
         sodipodi:cy="13346.3"
         sodipodi:cx="20090.4"
         id="circle32757"
         r="355.90601"
         cy="13346.3"
         cx="20090.4" />
      <circle
         d="m 20446.306,14133.7 c 0,196.562 -159.344,355.906 -355.906,355.906 -196.561,0 -355.906,-159.344 -355.906,-355.906 0,-196.561 159.345,-355.906 355.906,-355.906 196.562,0 355.906,159.345 355.906,355.906 z"
         sodipodi:ry="355.90601"
         sodipodi:rx="355.90601"
         sodipodi:cy="14133.7"
         sodipodi:cx="20090.4"
         id="circle32759"
         r="355.90601"
         cy="14133.7"
         cx="20090.4" />
      <circle
         d="m 21233.707,13346.3 c 0,196.561 -159.345,355.906 -355.906,355.906 -196.562,0 -355.906,-159.345 -355.906,-355.906 0,-196.562 159.344,-355.906 355.906,-355.906 196.561,0 355.906,159.344 355.906,355.906 z"
         sodipodi:ry="355.90601"
         sodipodi:rx="355.90601"
         sodipodi:cy="13346.3"
         sodipodi:cx="20877.801"
         id="circle32761"
         r="355.90601"
         cy="13346.3"
         cx="20877.801" />
      <circle
         d="m 21233.707,14133.7 c 0,196.562 -159.345,355.906 -355.906,355.906 -196.562,0 -355.906,-159.344 -355.906,-355.906 0,-196.561 159.344,-355.906 355.906,-355.906 196.561,0 355.906,159.345 355.906,355.906 z"
         sodipodi:ry="355.90601"
         sodipodi:rx="355.90601"
         sodipodi:cy="14133.7"
         sodipodi:cx="20877.801"
         id="circle32763"
         r="355.90601"
         cy="14133.7"
         cx="20877.801" />
      <circle
         d="m 22021.105,13346.3 c 0,196.561 -159.344,355.906 -355.906,355.906 -196.561,0 -355.906,-159.345 -355.906,-355.906 0,-196.562 159.345,-355.906 355.906,-355.906 196.562,0 355.906,159.344 355.906,355.906 z"
         sodipodi:ry="355.90601"
         sodipodi:rx="355.90601"
         sodipodi:cy="13346.3"
         sodipodi:cx="21665.199"
         id="circle32765"
         r="355.90601"
         cy="13346.3"
         cx="21665.199" />
      <circle
         d="m 22021.105,14133.7 c 0,196.562 -159.344,355.906 -355.906,355.906 -196.561,0 -355.906,-159.344 -355.906,-355.906 0,-196.561 159.345,-355.906 355.906,-355.906 196.562,0 355.906,159.345 355.906,355.906 z"
         sodipodi:ry="355.90601"
         sodipodi:rx="355.90601"
         sodipodi:cy="14133.7"
         sodipodi:cx="21665.199"
         id="circle32767"
         r="355.90601"
         cy="14133.7"
         cx="21665.199" />
      <circle
         d="m 22808.605,13346.3 c 0,196.561 -159.344,355.906 -355.906,355.906 -196.561,0 -355.906,-159.345 -355.906,-355.906 0,-196.562 159.345,-355.906 355.906,-355.906 196.562,0 355.906,159.344 355.906,355.906 z"
         sodipodi:ry="355.90601"
         sodipodi:rx="355.90601"
         sodipodi:cy="13346.3"
         sodipodi:cx="22452.699"
         id="circle32769"
         r="355.90601"
         cy="13346.3"
         cx="22452.699" />
      <circle
         d="m 22808.605,14133.7 c 0,196.562 -159.344,355.906 -355.906,355.906 -196.561,0 -355.906,-159.344 -355.906,-355.906 0,-196.561 159.345,-355.906 355.906,-355.906 196.562,0 355.906,159.345 355.906,355.906 z"
         sodipodi:ry="355.90601"
         sodipodi:rx="355.90601"
         sodipodi:cy="14133.7"
         sodipodi:cx="22452.699"
         id="circle32771"
         r="355.90601"
         cy="14133.7"
         cx="22452.699" />
      <circle
         d="m 23596.006,13346.3 c 0,196.561 -159.345,355.906 -355.906,355.906 -196.562,0 -355.906,-159.345 -355.906,-355.906 0,-196.562 159.344,-355.906 355.906,-355.906 196.561,0 355.906,159.344 355.906,355.906 z"
         sodipodi:ry="355.90601"
         sodipodi:rx="355.90601"
         sodipodi:cy="13346.3"
         sodipodi:cx="23240.1"
         id="circle32773"
         r="355.90601"
         cy="13346.3"
         cx="23240.1" />
      <circle
         d="m 23596.006,14133.7 c 0,196.562 -159.345,355.906 -355.906,355.906 -196.562,0 -355.906,-159.344 -355.906,-355.906 0,-196.561 159.344,-355.906 355.906,-355.906 196.561,0 355.906,159.345 355.906,355.906 z"
         sodipodi:ry="355.90601"
         sodipodi:rx="355.90601"
         sodipodi:cy="14133.7"
         sodipodi:cx="23240.1"
         id="circle32775"
         r="355.90601"
         cy="14133.7"
         cx="23240.1" />
      <circle
         d="m 24383.406,13346.3 c 0,196.561 -159.345,355.906 -355.906,355.906 -196.561,0 -355.906,-159.345 -355.906,-355.906 0,-196.562 159.345,-355.906 355.906,-355.906 196.561,0 355.906,159.344 355.906,355.906 z"
         sodipodi:ry="355.90601"
         sodipodi:rx="355.90601"
         sodipodi:cy="13346.3"
         sodipodi:cx="24027.5"
         id="circle32777"
         r="355.90601"
         cy="13346.3"
         cx="24027.5" />
      <circle
         d="m 24383.406,14133.7 c 0,196.562 -159.345,355.906 -355.906,355.906 -196.561,0 -355.906,-159.344 -355.906,-355.906 0,-196.561 159.345,-355.906 355.906,-355.906 196.561,0 355.906,159.345 355.906,355.906 z"
         sodipodi:ry="355.90601"
         sodipodi:rx="355.90601"
         sodipodi:cy="14133.7"
         sodipodi:cx="24027.5"
         id="circle32779"
         r="355.90601"
         cy="14133.7"
         cx="24027.5" />
      <circle
         d="m 25170.806,13346.3 c 0,196.561 -159.344,355.906 -355.906,355.906 -196.561,0 -355.906,-159.345 -355.906,-355.906 0,-196.562 159.345,-355.906 355.906,-355.906 196.562,0 355.906,159.344 355.906,355.906 z"
         sodipodi:ry="355.90601"
         sodipodi:rx="355.90601"
         sodipodi:cy="13346.3"
         sodipodi:cx="24814.9"
         id="circle32781"
         r="355.90601"
         cy="13346.3"
         cx="24814.9" />
      <circle
         d="m 25170.806,14133.7 c 0,196.562 -159.344,355.906 -355.906,355.906 -196.561,0 -355.906,-159.344 -355.906,-355.906 0,-196.561 159.345,-355.906 355.906,-355.906 196.562,0 355.906,159.345 355.906,355.906 z"
         sodipodi:ry="355.90601"
         sodipodi:rx="355.90601"
         sodipodi:cy="14133.7"
         sodipodi:cx="24814.9"
         id="circle32783"
         r="355.90601"
         cy="14133.7"
         cx="24814.9" />
      <circle
         d="m 25958.207,13346.3 c 0,196.561 -159.345,355.906 -355.906,355.906 -196.562,0 -355.906,-159.345 -355.906,-355.906 0,-196.562 159.344,-355.906 355.906,-355.906 196.561,0 355.906,159.344 355.906,355.906 z"
         sodipodi:ry="355.90601"
         sodipodi:rx="355.90601"
         sodipodi:cy="13346.3"
         sodipodi:cx="25602.301"
         id="circle32785"
         r="355.90601"
         cy="13346.3"
         cx="25602.301" />
      <circle
         d="m 25958.207,14133.7 c 0,196.562 -159.345,355.906 -355.906,355.906 -196.562,0 -355.906,-159.344 -355.906,-355.906 0,-196.561 159.344,-355.906 355.906,-355.906 196.561,0 355.906,159.345 355.906,355.906 z"
         sodipodi:ry="355.90601"
         sodipodi:rx="355.90601"
         sodipodi:cy="14133.7"
         sodipodi:cx="25602.301"
         id="circle32787"
         r="355.90601"
         cy="14133.7"
         cx="25602.301" />
      <circle
         d="m 5446.3562,13346.3 c 0,196.561 -159.3445,355.906 -355.906,355.906 -196.5615,0 -355.906,-159.345 -355.906,-355.906 0,-196.562 159.3445,-355.906 355.906,-355.906 196.5615,0 355.906,159.344 355.906,355.906 z"
         sodipodi:ry="355.90601"
         sodipodi:rx="355.90601"
         sodipodi:cy="13346.3"
         sodipodi:cx="5090.4502"
         id="circle32789"
         r="355.90601"
         cy="13346.3"
         cx="5090.4502" />
      <circle
         d="m 5446.3562,14133.7 c 0,196.562 -159.3445,355.906 -355.906,355.906 -196.5615,0 -355.906,-159.344 -355.906,-355.906 0,-196.561 159.3445,-355.906 355.906,-355.906 196.5615,0 355.906,159.345 355.906,355.906 z"
         sodipodi:ry="355.90601"
         sodipodi:rx="355.90601"
         sodipodi:cy="14133.7"
         sodipodi:cx="5090.4502"
         id="circle32791"
         r="355.90601"
         cy="14133.7"
         cx="5090.4502" />
      <circle
         d="m 6233.7561,13346.3 c 0,196.561 -159.3445,355.906 -355.906,355.906 -196.5615,0 -355.906,-159.345 -355.906,-355.906 0,-196.562 159.3445,-355.906 355.906,-355.906 196.5615,0 355.906,159.344 355.906,355.906 z"
         sodipodi:ry="355.90601"
         sodipodi:rx="355.90601"
         sodipodi:cy="13346.3"
         sodipodi:cx="5877.8501"
         id="circle32793"
         r="355.90601"
         cy="13346.3"
         cx="5877.8501" />
      <circle
         d="m 6233.7561,14133.7 c 0,196.562 -159.3445,355.906 -355.906,355.906 -196.5615,0 -355.906,-159.344 -355.906,-355.906 0,-196.561 159.3445,-355.906 355.906,-355.906 196.5615,0 355.906,159.345 355.906,355.906 z"
         sodipodi:ry="355.90601"
         sodipodi:rx="355.90601"
         sodipodi:cy="14133.7"
         sodipodi:cx="5877.8501"
         id="circle32795"
         r="355.90601"
         cy="14133.7"
         cx="5877.8501" />
      <circle
         d="m 7021.156,13346.3 c 0,196.561 -159.3445,355.906 -355.906,355.906 -196.5615,0 -355.906,-159.345 -355.906,-355.906 0,-196.562 159.3445,-355.906 355.906,-355.906 196.5615,0 355.906,159.344 355.906,355.906 z"
         sodipodi:ry="355.90601"
         sodipodi:rx="355.90601"
         sodipodi:cy="13346.3"
         sodipodi:cx="6665.25"
         id="circle32797"
         r="355.90601"
         cy="13346.3"
         cx="6665.25" />
      <circle
         d="m 7021.156,14133.7 c 0,196.562 -159.3445,355.906 -355.906,355.906 -196.5615,0 -355.906,-159.344 -355.906,-355.906 0,-196.561 159.3445,-355.906 355.906,-355.906 196.5615,0 355.906,159.345 355.906,355.906 z"
         sodipodi:ry="355.90601"
         sodipodi:rx="355.90601"
         sodipodi:cy="14133.7"
         sodipodi:cx="6665.25"
         id="circle32799"
         r="355.90601"
         cy="14133.7"
         cx="6665.25" />
      <circle
         d="m 7808.5559,13346.3 c 0,196.561 -159.3445,355.906 -355.906,355.906 -196.5615,0 -355.906,-159.345 -355.906,-355.906 0,-196.562 159.3445,-355.906 355.906,-355.906 196.5615,0 355.906,159.344 355.906,355.906 z"
         sodipodi:ry="355.90601"
         sodipodi:rx="355.90601"
         sodipodi:cy="13346.3"
         sodipodi:cx="7452.6499"
         id="circle32801"
         r="355.90601"
         cy="13346.3"
         cx="7452.6499" />
      <circle
         d="m 7808.5559,14133.7 c 0,196.562 -159.3445,355.906 -355.906,355.906 -196.5615,0 -355.906,-159.344 -355.906,-355.906 0,-196.561 159.3445,-355.906 355.906,-355.906 196.5615,0 355.906,159.345 355.906,355.906 z"
         sodipodi:ry="355.90601"
         sodipodi:rx="355.90601"
         sodipodi:cy="14133.7"
         sodipodi:cx="7452.6499"
         id="circle32803"
         r="355.90601"
         cy="14133.7"
         cx="7452.6499" />
      <circle
         d="m 8595.9558,13346.3 c 0,196.561 -159.3445,355.906 -355.906,355.906 -196.5615,0 -355.906,-159.345 -355.906,-355.906 0,-196.562 159.3445,-355.906 355.906,-355.906 196.5615,0 355.906,159.344 355.906,355.906 z"
         sodipodi:ry="355.90601"
         sodipodi:rx="355.90601"
         sodipodi:cy="13346.3"
         sodipodi:cx="8240.0498"
         id="circle32805"
         r="355.90601"
         cy="13346.3"
         cx="8240.0498" />
      <circle
         d="m 8595.9558,14133.7 c 0,196.562 -159.3445,355.906 -355.906,355.906 -196.5615,0 -355.906,-159.344 -355.906,-355.906 0,-196.561 159.3445,-355.906 355.906,-355.906 196.5615,0 355.906,159.345 355.906,355.906 z"
         sodipodi:ry="355.90601"
         sodipodi:rx="355.90601"
         sodipodi:cy="14133.7"
         sodipodi:cx="8240.0498"
         id="circle32807"
         r="355.90601"
         cy="14133.7"
         cx="8240.0498" />
      <circle
         d="m 9383.3562,13346.3 c 0,196.561 -159.3445,355.906 -355.906,355.906 -196.5615,0 -355.906,-159.345 -355.906,-355.906 0,-196.562 159.3445,-355.906 355.906,-355.906 196.5615,0 355.906,159.344 355.906,355.906 z"
         sodipodi:ry="355.90601"
         sodipodi:rx="355.90601"
         sodipodi:cy="13346.3"
         sodipodi:cx="9027.4502"
         id="circle32809"
         r="355.90601"
         cy="13346.3"
         cx="9027.4502" />
      <circle
         d="m 9383.3562,14133.7 c 0,196.562 -159.3445,355.906 -355.906,355.906 -196.5615,0 -355.906,-159.344 -355.906,-355.906 0,-196.561 159.3445,-355.906 355.906,-355.906 196.5615,0 355.906,159.345 355.906,355.906 z"
         sodipodi:ry="355.90601"
         sodipodi:rx="355.90601"
         sodipodi:cy="14133.7"
         sodipodi:cx="9027.4502"
         id="circle32811"
         r="355.90601"
         cy="14133.7"
         cx="9027.4502" />
      <circle
         d="m 10170.766,13346.3 c 0,196.561 -159.344,355.906 -355.9056,355.906 -196.5615,0 -355.9061,-159.345 -355.9061,-355.906 0,-196.562 159.3446,-355.906 355.9061,-355.906 196.5616,0 355.9056,159.344 355.9056,355.906 z"
         sodipodi:ry="355.90601"
         sodipodi:rx="355.90601"
         sodipodi:cy="13346.3"
         sodipodi:cx="9814.8604"
         id="circle32813"
         r="355.90601"
         cy="13346.3"
         cx="9814.8604" />
      <circle
         d="m 10170.766,14133.7 c 0,196.562 -159.344,355.906 -355.9056,355.906 -196.5615,0 -355.9061,-159.344 -355.9061,-355.906 0,-196.561 159.3446,-355.906 355.9061,-355.906 196.5616,0 355.9056,159.345 355.9056,355.906 z"
         sodipodi:ry="355.90601"
         sodipodi:rx="355.90601"
         sodipodi:cy="14133.7"
         sodipodi:cx="9814.8604"
         id="circle32815"
         r="355.90601"
         cy="14133.7"
         cx="9814.8604" />
      <circle
         d="m 10958.206,13346.3 c 0,196.561 -159.345,355.906 -355.906,355.906 -196.562,0 -355.906,-159.345 -355.906,-355.906 0,-196.562 159.344,-355.906 355.906,-355.906 196.561,0 355.906,159.344 355.906,355.906 z"
         sodipodi:ry="355.90601"
         sodipodi:rx="355.90601"
         sodipodi:cy="13346.3"
         sodipodi:cx="10602.3"
         id="circle32817"
         r="355.90601"
         cy="13346.3"
         cx="10602.3" />
      <circle
         d="m 10958.206,14133.7 c 0,196.562 -159.345,355.906 -355.906,355.906 -196.562,0 -355.906,-159.344 -355.906,-355.906 0,-196.561 159.344,-355.906 355.906,-355.906 196.561,0 355.906,159.345 355.906,355.906 z"
         sodipodi:ry="355.90601"
         sodipodi:rx="355.90601"
         sodipodi:cy="14133.7"
         sodipodi:cx="10602.3"
         id="circle32819"
         r="355.90601"
         cy="14133.7"
         cx="10602.3" />
      <circle
         d="m 15211.361,14740 c 0,229.177 -185.784,414.961 -414.961,414.961 -229.176,0 -414.961,-185.784 -414.961,-414.961 0,-229.177 185.785,-414.961 414.961,-414.961 229.177,0 414.961,185.784 414.961,414.961 z"
         sodipodi:ry="414.961"
         sodipodi:rx="414.961"
         sodipodi:cy="14740"
         sodipodi:cx="14796.4"
         id="circle32821"
         r="414.961"
         cy="14740"
         cx="14796.4" />
      <circle
         d="m 16211.361,14740 c 0,229.177 -185.784,414.961 -414.961,414.961 -229.176,0 -414.961,-185.784 -414.961,-414.961 0,-229.177 185.785,-414.961 414.961,-414.961 229.177,0 414.961,185.784 414.961,414.961 z"
         sodipodi:ry="414.961"
         sodipodi:rx="414.961"
         sodipodi:cy="14740"
         sodipodi:cx="15796.4"
         id="circle32823"
         r="414.961"
         cy="14740"
         cx="15796.4" />
      <circle
         d="m 17046.715,11340 c 0,414.388 -335.927,750.315 -750.315,750.315 -414.387,0 -750.315,-335.927 -750.315,-750.315 0,-414.388 335.928,-750.315 750.315,-750.315 414.388,0 750.315,335.927 750.315,750.315 z"
         sodipodi:ry="750.315"
         sodipodi:rx="750.315"
         sodipodi:cy="11340"
         sodipodi:cx="16296.4"
         id="circle32825"
         r="750.315"
         cy="11340"
         cx="16296.4" />
      <circle
         d="m 15046.715,11340 c 0,414.388 -335.927,750.315 -750.315,750.315 -414.387,0 -750.315,-335.927 -750.315,-750.315 0,-414.388 335.928,-750.315 750.315,-750.315 414.388,0 750.315,335.927 750.315,750.315 z"
         sodipodi:ry="750.315"
         sodipodi:rx="750.315"
         sodipodi:cy="11340"
         sodipodi:cx="14296.4"
         id="circle32827"
         r="750.315"
         cy="11340"
         cx="14296.4" />
      <circle
         d="m 16261.361,34740 c 0,229.177 -185.784,414.961 -414.961,414.961 -229.176,0 -414.961,-185.784 -414.961,-414.961 0,-229.177 185.785,-414.961 414.961,-414.961 229.177,0 414.961,185.784 414.961,414.961 z"
         sodipodi:ry="414.961"
         sodipodi:rx="414.961"
         sodipodi:cy="34740"
         sodipodi:cx="15846.4"
         id="circle32829"
         r="414.961"
         cy="34740"
         cx="15846.4" />
      <circle
         d="m 15261.361,34740 c 0,229.177 -185.784,414.961 -414.961,414.961 -229.176,0 -414.961,-185.784 -414.961,-414.961 0,-229.177 185.785,-414.961 414.961,-414.961 229.177,0 414.961,185.784 414.961,414.961 z"
         sodipodi:ry="414.961"
         sodipodi:rx="414.961"
         sodipodi:cy="34740"
         sodipodi:cx="14846.4"
         id="circle32831"
         r="414.961"
         cy="34740"
         cx="14846.4" />
      <circle
         d="m 15096.715,38140 c 0,414.388 -335.927,750.315 -750.315,750.315 -414.387,0 -750.315,-335.927 -750.315,-750.315 0,-414.388 335.928,-750.315 750.315,-750.315 414.388,0 750.315,335.927 750.315,750.315 z"
         sodipodi:ry="750.315"
         sodipodi:rx="750.315"
         sodipodi:cy="38140"
         sodipodi:cx="14346.4"
         id="circle32833"
         r="750.315"
         cy="38140"
         cx="14346.4" />
      <circle
         d="m 17096.715,38140 c 0,414.388 -335.927,750.315 -750.315,750.315 -414.387,0 -750.315,-335.927 -750.315,-750.315 0,-414.388 335.928,-750.315 750.315,-750.315 414.388,0 750.315,335.927 750.315,750.315 z"
         sodipodi:ry="750.315"
         sodipodi:rx="750.315"
         sodipodi:cy="38140"
         sodipodi:cx="16346.4"
         id="circle32835"
         r="750.315"
         cy="38140"
         cx="16346.4" />
    </g>
  </g>
</svg>
